<?xml version="1.0" standalone="no"?>
<!DOCTYPE svg PUBLIC "-//W3C//DTD SVG 20010904//EN"
 "http://www.w3.org/TR/2001/REC-SVG-20010904/DTD/svg10.dtd">
<svg version="1.0" xmlns="http://www.w3.org/2000/svg"
 width="300.000000pt" height="350.000000pt" viewBox="0 0 300.000000 350.000000"
 preserveAspectRatio="xMidYMid meet">
<metadata>
Created by potrace 1.10, written by Peter Selinger 2001-2011
</metadata>
<g transform="translate(0.000000,350.000000) scale(0.100000,-0.100000)"
fill="#000000" stroke="none">
<path d="M1010 3491 c0 -5 7 -38 16 -73 9 -35 27 -114 39 -176 14 -67 30 -121
41 -133 19 -21 12 -38 -9 -21 -19 16 -52 8 -55 -14 -3 -16 -1 -17 7 -4 9 12
11 11 11 -7 0 -12 -4 -25 -10 -28 -5 -3 -10 -13 -10 -21 0 -10 6 -8 21 7 15
15 19 29 16 47 -4 22 -3 24 6 12 16 -20 62 -27 52 -8 -4 7 0 5 11 -4 13 -13
15 -21 7 -29 -6 -6 -9 -18 -6 -25 3 -8 1 -14 -5 -14 -23 0 -42 13 -43 29 0 10
-4 7 -10 -9 -8 -20 -12 -22 -19 -10 -6 10 -9 -5 -7 -45 2 -57 3 -61 35 -74 17
-8 32 -21 32 -29 0 -19 34 -10 38 11 2 11 -1 15 -11 12 -7 -3 -20 1 -27 9 -7
9 -16 14 -20 11 -4 -2 -15 4 -25 15 -20 22 -15 25 13 11 21 -12 54 -24 66 -25
5 -1 12 -10 16 -20 6 -19 7 -19 12 2 4 16 13 21 28 20 12 -2 25 4 30 12 4 8
12 25 19 38 14 28 3 52 -48 104 -35 36 -56 42 -44 13 3 -8 0 -15 -7 -15 -8 0
-10 9 -6 25 4 14 2 25 -4 25 -5 0 -10 -5 -10 -11 0 -5 -4 -7 -10 -4 -5 3 -10
11 -10 16 0 6 5 7 10 4 6 -3 10 -1 10 4 0 6 -9 11 -20 11 -12 0 -21 8 -24 23
-2 12 -10 49 -17 82 -7 33 -14 65 -15 70 0 6 -4 22 -8 36 -4 14 -8 32 -10 40
-8 46 -31 119 -38 119 -4 0 -8 -4 -8 -9z m236 -476 c15 -20 23 -39 19 -43 -4
-4 -10 -1 -12 6 -3 6 -9 12 -15 12 -6 0 -7 -8 -4 -17 5 -16 4 -16 -8 1 -21 26
-40 16 -21 -11 9 -13 22 -20 30 -17 8 4 15 1 15 -4 0 -19 -20 -24 -37 -10 -12
9 -15 9 -9 1 10 -18 -18 -17 -33 0 -6 8 -8 17 -4 20 3 4 1 13 -5 20 -7 8 -8
24 -4 42 l8 29 16 -23 c11 -15 23 -21 32 -18 22 9 20 26 -3 20 -11 -3 -21 2
-24 11 -12 31 31 17 59 -19z m-129 -31 c-3 -3 -12 -4 -19 -1 -8 3 -5 6 6 6 11
1 17 -2 13 -5z m-1 -25 c4 -8 9 -7 15 2 4 7 11 10 15 7 3 -4 -1 -14 -9 -22
-14 -14 -18 -14 -39 4 -19 16 -20 19 -6 20 9 0 20 -5 24 -11z"/>
<path d="M1375 3490 c-3 -5 -4 -10 -1 -10 3 0 -3 -15 -14 -32 -11 -18 -31 -55
-45 -83 -43 -86 -101 -194 -113 -208 -7 -8 -9 -17 -5 -21 4 -4 0 -4 -10 0 -12
4 -17 1 -17 -10 0 -9 4 -16 9 -16 12 0 61 63 61 78 0 7 4 12 9 12 5 0 14 12
20 28 6 15 26 54 45 86 19 33 33 63 30 67 -2 4 0 10 6 14 13 8 40 60 45 86 4
20 -9 26 -20 9z"/>
<path d="M2931 3484 c0 -11 3 -14 6 -6 3 7 2 16 -1 19 -3 4 -6 -2 -5 -13z"/>
<path d="M2968 3478 c-50 -76 -97 -208 -157 -438 -16 -64 -48 -172 -69 -240
-22 -69 -47 -170 -56 -225 -40 -249 -38 -244 -117 -270 -35 -12 -54 -25 -64
-46 -8 -15 -25 -33 -36 -40 -18 -9 -20 -8 -17 8 2 10 9 17 14 16 6 -1 16 8 23
19 7 11 9 18 4 16 -45 -21 -60 -33 -74 -56 -12 -21 -34 -34 -89 -52 -56 -19
-74 -22 -78 -12 -3 10 -7 10 -18 1 -26 -21 -15 -29 34 -25 72 6 199 64 320
147 77 53 159 76 228 66 51 -8 140 -53 163 -83 l21 -27 0 25 c0 31 -7 36 -98
76 -71 31 -75 32 -150 23 -42 -5 -78 -8 -80 -6 -2 2 -1 12 2 22 5 15 14 18 39
15 22 -2 38 2 46 12 18 21 46 20 117 -4 57 -20 124 -24 124 -8 0 4 -14 8 -32
8 -17 0 -57 9 -87 19 -31 10 -68 22 -82 25 -22 5 -29 14 -39 55 -7 29 -9 64
-4 83 4 18 8 42 9 52 1 11 7 22 14 24 9 3 9 7 0 18 -8 10 -8 14 0 14 6 0 11
11 11 25 0 14 5 23 13 21 6 -1 9 -1 5 1 -5 3 -8 14 -8 24 0 11 4 18 9 15 5 -4
7 3 4 14 -5 19 70 189 89 201 6 4 5 9 -3 12 -10 4 -10 6 -1 6 6 1 12 7 12 14
0 21 30 77 41 77 5 0 9 5 9 10 0 6 9 20 20 32 12 13 19 34 19 52 -2 29 -2 29
-6 5 -2 -15 -20 -41 -40 -59 -19 -18 -42 -49 -50 -69 -8 -20 -23 -54 -33 -76
-58 -131 -113 -305 -129 -404 -5 -35 -4 -68 6 -104 7 -28 11 -58 8 -64 -5 -14
-33 -17 -59 -7 -16 6 -23 54 -8 54 5 0 9 29 9 65 1 35 4 69 8 74 6 11 11 31
20 81 5 25 60 210 118 397 18 55 35 99 39 97 13 -8 36 53 26 70 -11 19 20 139
33 130 4 -2 9 6 11 18 2 15 9 22 19 20 12 -2 15 4 12 22 -3 13 0 27 6 30 6 4
11 11 11 17 0 17 -17 9 -32 -13z"/>
<path d="M1240 3470 c0 -5 5 -10 10 -10 6 0 10 5 10 10 0 6 -4 10 -10 10 -5 0
-10 -4 -10 -10z"/>
<path d="M78 3404 c2 -27 9 -51 14 -52 5 -2 3 -11 -4 -20 -11 -15 -11 -15 3
-5 9 7 19 10 22 6 4 -3 7 -2 7 4 0 6 -7 13 -15 17 -9 3 -15 18 -15 38 0 18 -4
39 -9 47 -5 8 -7 -5 -3 -35z"/>
<path d="M138 3405 c2 -19 6 -35 8 -35 2 0 4 16 4 35 0 19 -4 35 -8 35 -4 0
-6 -16 -4 -35z"/>
<path d="M465 3430 c3 -5 8 -10 11 -10 2 0 4 5 4 10 0 6 -5 10 -11 10 -5 0 -7
-4 -4 -10z"/>
<path d="M11 3414 c0 -11 3 -14 6 -6 3 7 2 16 -1 19 -3 4 -6 -2 -5 -13z"/>
<path d="M2971 3394 c0 -11 3 -14 6 -6 3 7 2 16 -1 19 -3 4 -6 -2 -5 -13z"/>
<path d="M1445 3390 c-3 -6 1 -7 9 -4 18 7 21 14 7 14 -6 0 -13 -4 -16 -10z"/>
<path d="M50 3371 c0 -6 4 -13 10 -16 6 -3 7 1 4 9 -7 18 -14 21 -14 7z"/>
<path d="M1425 3360 c3 -5 8 -10 11 -10 2 0 4 5 4 10 0 6 -5 10 -11 10 -5 0
-7 -4 -4 -10z"/>
<path d="M2545 3360 c-3 -5 -2 -10 4 -10 5 0 13 5 16 10 3 6 2 10 -4 10 -5 0
-13 -4 -16 -10z"/>
<path d="M10 3358 c0 -17 43 -88 54 -88 7 0 6 4 -3 9 -8 5 -11 16 -7 28 4 12
1 25 -9 33 -8 7 -15 9 -15 4 0 -5 -5 -2 -10 6 -5 8 -10 12 -10 8z"/>
<path d="M140 3340 c0 -5 5 -10 11 -10 5 0 7 5 4 10 -3 6 -8 10 -11 10 -2 0
-4 -4 -4 -10z"/>
<path d="M945 3330 c-3 -5 -1 -10 4 -10 6 0 11 5 11 10 0 6 -2 10 -4 10 -3 0
-8 -4 -11 -10z"/>
<path d="M970 3318 c0 -9 7 -22 17 -29 15 -13 15 -12 3 11 -17 34 -20 36 -20
18z"/>
<path d="M85 3300 c-3 -5 -1 -10 4 -10 6 0 11 5 11 10 0 6 -2 10 -4 10 -3 0
-8 -4 -11 -10z"/>
<path d="M1460 3290 c6 -11 15 -20 20 -20 6 0 2 9 -7 20 -10 11 -19 20 -21 20
-1 0 2 -9 8 -20z"/>
<path d="M2943 3294 c0 -16 13 -19 21 -5 3 5 0 11 -7 14 -8 3 -14 -1 -14 -9z"/>
<path d="M1350 3275 c7 -9 15 -13 17 -11 7 7 -7 26 -19 26 -6 0 -6 -6 2 -15z"/>
<path d="M1650 3280 c0 -5 5 -10 11 -10 5 0 7 5 4 10 -3 6 -8 10 -11 10 -2 0
-4 -4 -4 -10z"/>
<path d="M2370 3271 c0 -5 7 -12 16 -15 14 -5 15 -4 4 9 -14 17 -20 19 -20 6z"/>
<path d="M2542 3268 c-17 -17 -15 -33 3 -18 21 17 19 3 -11 -69 -49 -121 -89
-154 -130 -105 -50 60 -67 75 -81 69 -8 -3 -24 2 -36 10 -24 17 -73 20 -82 5
-4 -7 -14 -5 -28 5 -33 23 -64 18 -104 -19 -21 -18 -68 -48 -105 -65 -68 -32
-96 -54 -57 -44 12 4 25 0 30 -8 7 -11 9 -10 9 5 0 21 27 45 49 46 8 0 23 8
33 17 17 15 19 15 31 -1 15 -21 48 -18 55 4 5 13 3 13 -12 1 -13 -11 -20 -11
-29 -2 -15 15 1 41 36 59 36 17 77 -8 77 -47 0 -35 19 -55 37 -40 7 7 13 16
13 21 0 6 -6 6 -14 -1 -19 -16 -30 2 -22 33 7 30 29 38 62 26 21 -8 25 -15 20
-34 -3 -14 -3 -32 0 -40 7 -17 34 -22 34 -6 0 6 -7 10 -15 10 -18 0 -18 5 -5
31 16 29 34 23 72 -23 29 -36 36 -55 43 -113 11 -92 11 -120 -4 -180 -15 -63
-19 -124 -10 -156 6 -19 7 -14 9 21 1 25 2 48 1 53 0 4 4 6 10 5 18 -5 48 83
47 137 l0 50 -8 -51 c-7 -48 -38 -129 -46 -121 -3 2 3 21 11 41 11 26 12 35 4
30 -9 -5 -10 -2 -6 10 4 10 7 20 7 22 0 3 5 2 11 -2 13 -8 4 92 -12 134 -15
40 -10 59 19 71 15 6 37 27 50 45 13 19 34 37 48 40 25 7 84 79 84 103 0 24
-25 8 -26 -16 -1 -25 -41 -71 -61 -71 -10 0 -8 10 7 40 30 58 24 120 -8 88z"/>
<path d="M76 3216 c32 -57 44 -65 44 -31 0 18 -6 29 -19 32 -11 3 -22 11 -25
19 -6 16 10 19 17 4 3 -6 4 -5 3 2 -1 7 -12 14 -24 16 -21 3 -21 3 4 -42z"/>
<path d="M130 3251 c0 -6 4 -13 10 -16 6 -3 7 1 4 9 -7 18 -14 21 -14 7z"/>
<path d="M210 3239 c0 -8 11 -27 25 -44 l25 -30 -22 40 c-27 50 -28 51 -28 34z"/>
<path d="M1168 3233 c7 -3 16 -2 19 1 4 3 -2 6 -13 5 -11 0 -14 -3 -6 -6z"/>
<path d="M1295 3230 c-3 -5 1 -10 9 -10 9 0 16 5 16 10 0 6 -4 10 -9 10 -6 0
-13 -4 -16 -10z"/>
<path d="M2065 3220 c3 -5 11 -10 16 -10 6 0 7 5 4 10 -3 6 -11 10 -16 10 -6
0 -7 -4 -4 -10z"/>
<path d="M150 3208 c0 -10 9 -27 19 -37 11 -11 24 -29 31 -40 6 -12 15 -21 21
-21 6 0 -2 17 -19 38 -16 20 -34 46 -40 57 -10 17 -11 18 -12 3z"/>
<path d="M797 3204 c6 -15 23 -19 23 -5 0 5 -7 11 -14 14 -10 4 -13 1 -9 -9z"/>
<path d="M1392 3208 c2 -6 15 -12 28 -13 21 -2 22 -1 5 12 -23 16 -38 17 -33
1z"/>
<path d="M1450 3210 c0 -5 5 -10 10 -10 6 0 10 -7 10 -15 0 -8 5 -15 10 -15 6
0 10 5 10 11 0 6 7 9 15 6 8 -4 17 -2 20 3 4 6 -5 10 -19 10 -14 0 -26 5 -26
10 0 6 -7 10 -15 10 -8 0 -15 -4 -15 -10z"/>
<path d="M1366 3177 c3 -10 9 -15 12 -12 3 3 0 11 -7 18 -10 9 -11 8 -5 -6z"/>
<path d="M1568 3183 c7 -3 16 -2 19 1 4 3 -2 6 -13 5 -11 0 -14 -3 -6 -6z"/>
<path d="M216 3165 c4 -8 11 -15 16 -15 6 0 5 6 -2 15 -7 8 -14 15 -16 15 -2
0 -1 -7 2 -15z"/>
<path d="M1597 3172 c-9 -2 -15 -7 -13 -11 6 -9 86 -1 86 8 0 8 -42 10 -73 3z"/>
<path d="M1035 3160 c-3 -5 -1 -10 4 -10 6 0 11 5 11 10 0 6 -2 10 -4 10 -3 0
-8 -4 -11 -10z"/>
<path d="M1908 3153 c7 -3 16 -2 19 1 4 3 -2 6 -13 5 -11 0 -14 -3 -6 -6z"/>
<path d="M140 3134 c0 -14 -3 -14 -15 -4 -13 11 -14 10 -9 -4 4 -10 13 -15 21
-12 8 3 17 6 19 6 2 0 4 7 4 15 0 8 -4 15 -10 15 -5 0 -10 -7 -10 -16z"/>
<path d="M881 3124 c0 -11 3 -14 6 -6 3 7 2 16 -1 19 -3 4 -6 -2 -5 -13z"/>
<path d="M1446 3127 c3 -10 9 -15 12 -12 3 3 0 11 -7 18 -10 9 -11 8 -5 -6z"/>
<path d="M240 3097 c0 -14 7 -30 15 -37 11 -9 12 -15 5 -20 -14 -8 -3 -37 16
-44 10 -4 12 -2 8 6 -7 11 -14 44 -17 79 -1 9 -7 21 -14 28 -10 9 -13 7 -13
-12z"/>
<path d="M1245 3110 c3 -5 13 -10 21 -10 8 0 14 5 14 10 0 6 -9 10 -21 10 -11
0 -17 -4 -14 -10z"/>
<path d="M1293 3107 c0 -7 9 -13 19 -13 10 0 18 6 18 13 0 7 -8 13 -18 13 -10
0 -19 -6 -19 -13z"/>
<path d="M1380 3090 c11 -21 50 -46 50 -32 0 10 -43 52 -53 52 -4 0 -3 -9 3
-20z"/>
<path d="M155 3090 c3 -5 8 -10 11 -10 2 0 4 5 4 10 0 6 -5 10 -11 10 -5 0 -7
-4 -4 -10z"/>
<path d="M190 3071 c0 -6 4 -13 10 -16 6 -3 7 1 4 9 -7 18 -14 21 -14 7z"/>
<path d="M1445 3070 c-3 -6 1 -7 9 -4 18 7 21 14 7 14 -6 0 -13 -4 -16 -10z"/>
<path d="M45 3060 c3 -5 8 -10 11 -10 2 0 4 5 4 10 0 6 -5 10 -11 10 -5 0 -7
-4 -4 -10z"/>
<path d="M188 3012 c15 -29 46 -72 67 -96 23 -24 57 -82 80 -134 39 -90 64
-124 43 -59 -6 17 -11 42 -12 54 0 11 -5 19 -10 16 -4 -3 -12 1 -17 8 -12 19
-11 32 1 24 6 -3 10 -1 10 4 0 6 -4 11 -10 11 -5 0 -10 6 -10 13 0 7 -19 34
-42 58 -24 25 -52 58 -63 73 -11 16 -30 40 -43 55 -20 23 -19 19 6 -27z"/>
<path d="M915 3050 c3 -5 11 -10 16 -10 6 0 7 5 4 10 -3 6 -11 10 -16 10 -6 0
-7 -4 -4 -10z"/>
<path d="M1466 3046 c8 -20 43 -34 98 -40 55 -6 52 12 -3 19 -18 2 -43 11 -56
19 -30 20 -46 20 -39 2z"/>
<path d="M50 3026 c0 -8 7 -16 15 -20 17 -6 18 -4 9 18 -8 20 -24 21 -24 2z"/>
<path d="M127 3020 c3 -11 10 -23 16 -27 7 -4 8 0 4 11 -4 10 -7 22 -7 27 0 5
-4 9 -9 9 -5 0 -7 -9 -4 -20z"/>
<path d="M1836 2983 c-20 -21 -36 -43 -36 -50 0 -30 -24 -63 -41 -58 -24 8
-59 -28 -59 -60 0 -14 5 -25 10 -25 13 0 4 -43 -22 -99 l-21 -43 25 -22 c13
-11 37 -40 51 -63 17 -27 35 -43 47 -43 25 0 25 0 -7 59 -27 48 -28 49 -9 70
25 28 38 27 27 -2 -11 -29 20 -90 62 -121 24 -18 29 -18 37 -6 6 11 2 22 -16
41 -26 27 -32 50 -20 84 8 20 7 20 -8 1 -23 -29 -20 -54 13 -87 17 -16 24 -29
16 -29 -17 0 -63 55 -71 84 -3 12 0 34 5 49 10 27 12 27 33 13 15 -10 45 -16
85 -16 34 0 85 -5 113 -11 45 -10 50 -13 50 -38 0 -39 -23 -66 -69 -80 -55
-16 -58 -46 -3 -39 57 8 109 44 129 89 9 21 19 39 22 39 4 0 12 -19 19 -41 13
-42 13 -42 -22 -71 -20 -16 -36 -34 -36 -39 0 -21 33 -6 76 36 48 45 48 45 32
115 -6 28 32 21 61 -10 26 -29 32 -31 58 -23 20 7 27 16 25 29 -5 27 -18 38
-37 30 -13 -4 -15 -13 -11 -32 9 -33 -11 -23 -25 13 -6 17 -14 23 -26 19 -13
-5 -14 -4 -3 9 7 9 10 18 6 22 -3 3 -6 1 -6 -5 0 -6 -15 -16 -34 -22 l-35 -11
14 -38 c11 -31 11 -41 -2 -62 -8 -13 -12 -16 -9 -6 3 10 -1 29 -10 42 -9 14
-14 32 -10 40 3 9 0 15 -9 15 -20 0 -19 16 3 32 18 14 30 64 12 53 -6 -3 -10
-12 -10 -19 0 -7 -11 -23 -25 -36 -13 -12 -22 -27 -19 -31 2 -5 0 -16 -5 -26
-5 -10 -12 -26 -15 -35 -6 -19 -101 -71 -119 -65 -7 2 9 13 36 25 55 25 65 42
58 113 -1 19 -45 27 -166 32 -78 4 -92 9 -105 41 l-9 21 0 -22 c-1 -15 -9 -25
-25 -29 -13 -3 -34 -16 -47 -30 l-22 -24 31 -50 c42 -68 22 -64 -23 5 -21 30
-41 55 -46 55 -12 0 -12 37 1 45 5 3 14 25 21 48 6 23 18 50 27 61 16 18 16
18 -5 12 -21 -7 -33 7 -15 17 4 2 1 2 -5 1 -16 -4 -17 8 -1 24 15 15 52 16 42
1 -3 -6 8 -24 27 -40 27 -23 31 -31 21 -41 -11 -11 -12 -9 -7 7 5 15 -1 12
-23 -12 -20 -20 -33 -27 -36 -20 -3 7 -3 -1 1 -18 8 -40 13 -44 27 -21 6 10
24 34 39 54 21 26 26 43 22 62 -4 18 -1 31 10 40 17 14 21 0 4 -17 -7 -7 -6
-20 3 -43 l14 -33 1 62 c1 33 0 61 -1 61 -9 0 -66 -33 -71 -40 -3 -5 -1 -11 5
-15 5 -3 10 0 11 7 0 12 17 -18 18 -35 1 -13 -36 11 -42 27 -7 18 38 126 52
126 5 0 13 9 16 20 4 11 15 20 26 20 11 0 17 5 14 10 -10 17 -22 11 -59 -27z
m-54 -245 c-7 -7 -12 -8 -12 -2 0 14 12 26 19 19 2 -3 -1 -11 -7 -17z m588
-123 c0 -8 -2 -15 -4 -15 -2 0 -6 7 -10 15 -3 8 -1 15 4 15 6 0 10 -7 10 -15z
m-170 -115 c-24 -19 -40 -25 -40 -15 0 5 51 34 60 34 3 0 -6 -8 -20 -19z"/>
<path d="M1326 2995 c4 -8 8 -15 10 -15 2 0 4 7 4 15 0 8 -4 15 -10 15 -5 0
-7 -7 -4 -15z"/>
<path d="M2690 2999 c0 -5 5 -7 10 -4 6 3 10 8 10 11 0 2 -4 4 -10 4 -5 0 -10
-5 -10 -11z"/>
<path d="M310 2991 c0 -6 4 -13 10 -16 6 -3 7 1 4 9 -7 18 -14 21 -14 7z"/>
<path d="M1365 2992 c6 -5 21 -13 35 -17 17 -5 22 -4 15 3 -5 5 -21 13 -35 17
-17 5 -22 4 -15 -3z"/>
<path d="M70 2986 c0 -4 9 -16 20 -28 11 -12 20 -17 20 -11 0 5 -9 18 -20 28
-11 10 -20 15 -20 11z"/>
<path d="M2960 2979 c0 -5 5 -7 10 -4 6 3 10 8 10 11 0 2 -4 4 -10 4 -5 0 -10
-5 -10 -11z"/>
<path d="M145 2970 c-3 -5 -1 -10 4 -10 6 0 11 5 11 10 0 6 -2 10 -4 10 -3 0
-8 -4 -11 -10z"/>
<path d="M2140 2960 c0 -5 5 -10 11 -10 5 0 7 5 4 10 -3 6 -8 10 -11 10 -2 0
-4 -4 -4 -10z"/>
<path d="M280 2956 c0 -2 8 -10 18 -17 15 -13 16 -12 3 4 -13 16 -21 21 -21
13z"/>
<path d="M1276 2951 c-4 -5 -2 -20 3 -33 9 -21 10 -21 10 10 1 32 -3 39 -13
23z"/>
<path d="M2040 2938 c0 -49 -39 -139 -78 -180 -35 -38 -50 -35 -18 3 34 39 39
65 27 118 -5 24 -7 50 -4 57 3 8 0 14 -6 14 -6 0 -11 -11 -11 -25 0 -18 -7
-28 -24 -35 -23 -8 -57 -52 -39 -49 4 1 23 1 41 0 45 -1 43 -33 -8 -83 -41
-42 -49 -58 -27 -58 24 0 75 38 103 78 38 53 89 67 162 45 35 -11 51 -21 48
-30 -3 -7 -1 -13 4 -13 6 0 10 5 10 10 0 6 5 10 10 10 14 0 12 -94 -2 -108 -7
-7 -8 -12 -4 -12 15 0 35 34 36 60 0 57 -10 69 -69 86 -31 9 -75 28 -99 41
-40 24 -42 27 -36 59 4 22 2 34 -5 34 -6 0 -11 -10 -11 -22z m-84 -86 c-4 -3
-11 -1 -17 5 -6 6 -18 9 -27 6 -10 -5 -13 -2 -8 6 5 7 14 10 22 7 7 -3 17 0
21 7 5 8 9 6 11 -6 2 -10 1 -21 -2 -25z m127 -3 c-12 -11 -38 -15 -40 -6 -2 4
-3 14 -3 22 0 12 4 13 25 3 14 -6 22 -15 18 -19z m-168 -129 c-3 -5 -11 -10
-16 -10 -6 0 -7 5 -4 10 3 6 11 10 16 10 6 0 7 -4 4 -10z"/>
<path d="M2743 2933 c-18 -38 -16 -54 2 -19 9 16 14 33 13 37 -2 5 -9 -4 -15
-18z"/>
<path d="M140 2946 c0 -2 7 -9 15 -16 13 -11 14 -10 9 4 -5 14 -24 23 -24 12z"/>
<path d="M86 2927 c3 -10 9 -15 12 -12 3 3 0 11 -7 18 -10 9 -11 8 -5 -6z"/>
<path d="M190 2931 c0 -5 3 -11 8 -13 10 -4 42 -67 42 -83 0 -7 7 -18 15 -25
8 -7 16 -24 16 -39 1 -17 3 -20 6 -8 2 9 9 15 14 12 21 -14 11 7 -66 132 -19
32 -35 42 -35 24z"/>
<path d="M1425 2929 c-4 -6 -5 -12 -2 -15 2 -3 7 2 10 11 7 17 1 20 -8 4z"/>
<path d="M2905 2930 c-3 -6 1 -7 9 -4 18 7 21 14 7 14 -6 0 -13 -4 -16 -10z"/>
<path d="M360 2900 c6 -11 13 -20 16 -20 2 0 0 9 -6 20 -6 11 -13 20 -16 20
-2 0 0 -9 6 -20z"/>
<path d="M1655 2910 c3 -5 8 -10 11 -10 2 0 4 5 4 10 0 6 -5 10 -11 10 -5 0
-7 -4 -4 -10z"/>
<path d="M1825 2910 c-3 -5 -1 -10 4 -10 6 0 11 5 11 10 0 6 -2 10 -4 10 -3 0
-8 -4 -11 -10z"/>
<path d="M940 2906 c0 -2 7 -7 16 -10 8 -3 12 -2 9 4 -6 10 -25 14 -25 6z"/>
<path d="M2350 2868 c-7 -18 -28 -65 -48 -104 -27 -56 -43 -76 -74 -94 -22
-12 -37 -24 -35 -26 10 -10 73 34 92 63 42 64 46 70 41 51 -3 -10 -1 -18 4
-18 6 0 10 5 10 12 0 8 3 9 10 2 13 -13 -6 -62 -30 -81 -8 -6 -12 -15 -7 -19
8 -9 77 54 77 70 0 6 -8 2 -16 -9 -16 -19 -16 -19 -8 5 5 14 8 41 7 60 -2 19
-3 54 -3 78 -1 23 -3 42 -5 42 -1 0 -8 -15 -15 -32z m17 -104 c-2 -2 -12 2
-21 9 -16 12 -17 17 -5 38 l13 24 8 -34 c5 -18 7 -35 5 -37z"/>
<path d="M1220 2880 c0 -6 7 -10 15 -10 8 0 15 2 15 4 0 2 -7 6 -15 10 -8 3
-15 1 -15 -4z"/>
<path d="M155 2870 c3 -5 11 -10 16 -10 6 0 7 5 4 10 -3 6 -11 10 -16 10 -6 0
-7 -4 -4 -10z"/>
<path d="M1346 2866 c10 -8 21 -12 24 -10 5 6 -21 24 -34 24 -6 0 -1 -6 10
-14z"/>
<path d="M2865 2869 c-11 -17 1 -21 15 -4 8 9 8 15 2 15 -6 0 -14 -5 -17 -11z"/>
<path d="M1440 2863 c0 -15 19 -37 26 -31 3 4 -1 14 -10 23 -9 9 -16 13 -16 8z"/>
<path d="M2706 2855 c-3 -8 -1 -15 4 -15 13 0 22 18 11 24 -5 3 -11 -1 -15 -9z"/>
<path d="M115 2850 c3 -5 8 -10 11 -10 2 0 4 5 4 10 0 6 -5 10 -11 10 -5 0 -7
-4 -4 -10z"/>
<path d="M1167 2840 c-9 -11 -13 -20 -7 -20 5 0 14 9 20 20 6 11 9 20 8 20 -2
0 -11 -9 -21 -20z"/>
<path d="M171 2828 c-1 -20 4 -28 15 -28 12 0 14 4 7 13 -6 6 -13 19 -16 27
-3 9 -6 3 -6 -12z"/>
<path d="M2991 2834 c0 -11 3 -14 6 -6 3 7 2 16 -1 19 -3 4 -6 -2 -5 -13z"/>
<path d="M1393 2815 c0 -8 4 -15 9 -15 4 0 8 4 8 9 0 6 -4 12 -8 15 -5 3 -9
-1 -9 -9z"/>
<path d="M116 2795 c9 -14 21 -25 26 -25 5 0 2 7 -6 16 -9 8 -16 20 -16 25 0
5 -5 9 -10 9 -6 0 -3 -11 6 -25z"/>
<path d="M545 2810 c3 -5 11 -10 16 -10 6 0 7 5 4 10 -3 6 -11 10 -16 10 -6 0
-7 -4 -4 -10z"/>
<path d="M637 2809 c7 -7 15 -10 18 -7 3 3 -2 9 -12 12 -14 6 -15 5 -6 -5z"/>
<path d="M725 2810 c3 -5 11 -10 16 -10 6 0 7 5 4 10 -3 6 -11 10 -16 10 -6 0
-7 -4 -4 -10z"/>
<path d="M1457 2800 c3 -11 9 -20 13 -20 5 0 6 9 3 20 -3 11 -9 20 -13 20 -5
0 -6 -9 -3 -20z"/>
<path d="M2125 2810 c-3 -5 -1 -10 4 -10 6 0 11 5 11 10 0 6 -2 10 -4 10 -3 0
-8 -4 -11 -10z"/>
<path d="M1925 2800 c-3 -5 -1 -10 4 -10 6 0 11 5 11 10 0 6 -2 10 -4 10 -3 0
-8 -4 -11 -10z"/>
<path d="M2680 2795 c0 -8 2 -15 4 -15 2 0 6 7 10 15 3 8 1 15 -4 15 -6 0 -10
-7 -10 -15z"/>
<path d="M910 2790 c0 -5 5 -10 11 -10 5 0 7 5 4 10 -3 6 -8 10 -11 10 -2 0
-4 -4 -4 -10z"/>
<path d="M1188 2793 c6 -2 18 -2 25 0 6 3 1 5 -13 5 -14 0 -19 -2 -12 -5z"/>
<path d="M2030 2790 c0 -5 5 -10 10 -10 6 0 10 5 10 10 0 6 -4 10 -10 10 -5 0
-10 -4 -10 -10z"/>
<path d="M1900 2780 c0 -5 5 -10 11 -10 5 0 7 5 4 10 -3 6 -8 10 -11 10 -2 0
-4 -4 -4 -10z"/>
<path d="M2080 2770 c0 -5 5 -10 10 -10 6 0 10 5 10 10 0 6 -4 10 -10 10 -5 0
-10 -4 -10 -10z"/>
<path d="M190 2763 c0 -5 5 -14 12 -21 9 -9 9 -12 -1 -12 -9 0 -8 -4 3 -15 20
-21 24 -19 19 10 -5 24 -33 57 -33 38z"/>
<path d="M1220 2760 c0 -7 6 -10 14 -7 7 3 19 0 26 -6 10 -9 11 -9 8 3 -5 18
-48 26 -48 10z"/>
<path d="M1285 2760 c-3 -5 -1 -10 4 -10 6 0 11 5 11 10 0 6 -2 10 -4 10 -3 0
-8 -4 -11 -10z"/>
<path d="M300 2740 c6 -11 12 -20 14 -20 2 0 2 9 -1 20 -3 11 -9 20 -15 20 -5
0 -4 -9 2 -20z"/>
<path d="M940 2756 c0 -2 9 -6 20 -9 11 -3 20 -1 20 4 0 5 -9 9 -20 9 -11 0
-20 -2 -20 -4z"/>
<path d="M1310 2749 c0 -5 5 -7 10 -4 6 3 10 8 10 11 0 2 -4 4 -10 4 -5 0 -10
-5 -10 -11z"/>
<path d="M2150 2750 c0 -5 5 -10 10 -10 6 0 10 5 10 10 0 6 -4 10 -10 10 -5 0
-10 -4 -10 -10z"/>
<path d="M141 2723 c11 -34 19 -42 19 -20 0 7 -7 22 -15 33 -13 17 -14 16 -4
-13z"/>
<path d="M1855 2740 c-3 -5 -1 -10 4 -10 6 0 11 5 11 10 0 6 -2 10 -4 10 -3 0
-8 -4 -11 -10z"/>
<path d="M1461 2730 c0 -8 6 -28 14 -45 17 -39 18 -21 0 25 -7 19 -14 28 -14
20z"/>
<path d="M1505 2730 c3 -5 14 -10 23 -10 15 0 15 2 2 10 -20 13 -33 13 -25 0z"/>
<path d="M104 2715 c8 -8 18 -15 22 -15 3 0 1 7 -6 15 -7 8 -17 15 -22 15 -5
0 -3 -7 6 -15z"/>
<path d="M2041 2704 c0 -11 3 -14 6 -6 3 7 2 16 -1 19 -3 4 -6 -2 -5 -13z"/>
<path d="M297 2690 c3 -11 9 -20 14 -20 5 0 9 -7 9 -15 0 -8 7 -15 16 -15 9 0
14 -8 13 -17 -2 -29 0 -43 9 -43 12 0 6 110 -7 123 -14 14 -14 2 -1 -24 8 -13
7 -19 0 -19 -14 0 -40 25 -40 39 0 6 -4 11 -9 11 -5 0 -7 -9 -4 -20z"/>
<path d="M1020 2700 c-9 -6 -10 -10 -3 -10 6 0 15 5 18 10 8 12 4 12 -15 0z"/>
<path d="M1100 2699 c0 -5 4 -8 9 -5 5 3 14 -1 21 -9 7 -8 17 -12 22 -8 6 3 0
12 -13 19 -29 16 -39 17 -39 3z"/>
<path d="M1324 2701 c4 -5 0 -12 -6 -14 -8 -3 -6 -6 5 -6 9 -1 17 6 17 14 0 8
-5 15 -11 15 -5 0 -8 -4 -5 -9z"/>
<path d="M825 2690 c3 -5 12 -10 20 -10 8 0 17 5 20 10 4 6 -5 10 -20 10 -15
0 -24 -4 -20 -10z"/>
<path d="M227 2676 c-3 -8 0 -17 7 -19 10 -4 12 1 9 14 -6 23 -9 24 -16 5z"/>
<path d="M1720 2679 c0 -5 5 -7 10 -4 6 3 10 8 10 11 0 2 -4 4 -10 4 -5 0 -10
-5 -10 -11z"/>
<path d="M2 2645 c-1 -16 5 -56 12 -87 8 -32 12 -58 9 -58 -3 0 -1 -6 4 -12 6
-7 13 -23 15 -35 4 -16 2 -20 -8 -16 -8 3 -14 2 -14 -1 0 -4 12 -11 26 -16 31
-12 27 -34 -7 -38 -44 -6 -45 -22 -1 -22 55 0 54 -18 0 -23 -41 -3 -41 -4 10
-5 53 -2 74 -21 25 -23 l-28 -1 28 -8 c41 -13 59 -30 47 -45 -8 -9 -6 -14 6
-19 8 -3 17 -6 19 -6 11 0 -11 65 -46 135 -22 45 -42 92 -44 106 -1 13 -12 53
-23 89 -11 36 -23 76 -25 90 -4 22 -4 22 -5 -5z"/>
<path d="M538 2663 c7 -3 16 -2 19 1 4 3 -2 6 -13 5 -11 0 -14 -3 -6 -6z"/>
<path d="M2967 2639 c7 -7 15 -10 18 -7 3 3 -2 9 -12 12 -14 6 -15 5 -6 -5z"/>
<path d="M630 2632 c0 -5 7 -13 16 -16 10 -4 14 -1 12 6 -5 15 -28 23 -28 10z"/>
<path d="M960 2630 c0 -5 5 -10 11 -10 5 0 7 5 4 10 -3 6 -8 10 -11 10 -2 0
-4 -4 -4 -10z"/>
<path d="M1238 2633 c6 -2 9 -10 5 -16 -4 -7 0 -8 11 -4 10 4 20 7 22 7 3 0 2
5 -1 10 -3 6 -16 10 -28 9 -12 0 -16 -3 -9 -6z"/>
<path d="M1540 2631 c0 -6 4 -12 8 -15 5 -3 9 1 9 9 0 8 -4 15 -9 15 -4 0 -8
-4 -8 -9z"/>
<path d="M230 2621 c0 -6 5 -13 10 -16 6 -4 8 -10 5 -15 -3 -5 0 -12 6 -16 9
-5 10 1 5 19 -4 16 -1 27 7 30 6 3 2 6 -10 6 -13 1 -23 -3 -23 -8z"/>
<path d="M293 2625 c35 -76 47 -106 47 -114 0 -6 5 -11 11 -11 7 0 8 7 4 18
-4 9 -8 24 -9 32 -1 16 -4 20 -37 60 -11 14 -18 21 -16 15z"/>
<path d="M1195 2620 c3 -5 10 -10 16 -10 5 0 9 5 9 10 0 6 -7 10 -16 10 -8 0
-12 -4 -9 -10z"/>
<path d="M1908 2623 c7 -3 16 -2 19 1 4 3 -2 6 -13 5 -11 0 -14 -3 -6 -6z"/>
<path d="M206 2605 c4 -8 8 -15 10 -15 2 0 4 7 4 15 0 8 -4 15 -10 15 -5 0 -7
-7 -4 -15z"/>
<path d="M1125 2610 c-8 -13 5 -13 25 0 13 8 13 10 -2 10 -9 0 -20 -4 -23 -10z"/>
<path d="M1480 2613 c0 -15 72 -153 80 -153 4 0 10 -9 13 -20 3 -11 11 -20 19
-20 8 0 9 3 3 8 -18 13 -95 158 -95 179 0 7 -4 13 -10 13 -5 0 -10 -3 -10 -7z"/>
<path d="M2595 2610 c-3 -6 1 -7 9 -4 18 7 21 14 7 14 -6 0 -13 -4 -16 -10z"/>
<path d="M1632 2580 c0 -14 2 -19 5 -12 2 6 2 18 0 25 -3 6 -5 1 -5 -13z"/>
<path d="M2500 2590 c-8 -5 -12 -12 -9 -15 4 -3 12 1 19 10 14 17 11 19 -10 5z"/>
<path d="M2985 2590 c3 -5 8 -10 11 -10 2 0 4 5 4 10 0 6 -5 10 -11 10 -5 0
-7 -4 -4 -10z"/>
<path d="M1700 2585 c0 -5 5 -17 10 -25 5 -8 10 -10 10 -5 0 6 -5 17 -10 25
-5 8 -10 11 -10 5z"/>
<path d="M515 2570 c3 -5 8 -10 11 -10 2 0 4 5 4 10 0 6 -5 10 -11 10 -5 0 -7
-4 -4 -10z"/>
<path d="M548 2557 c11 -13 10 -16 -3 -19 -12 -2 -7 -9 17 -22 30 -18 32 -18
18 -2 -8 11 -15 26 -15 34 0 8 -7 18 -15 20 -13 4 -13 3 -2 -11z"/>
<path d="M1258 2553 c-10 -2 -18 -11 -18 -19 0 -8 8 -14 18 -14 14 0 15 2 2
10 -13 8 -13 10 2 10 9 0 20 5 23 10 6 10 2 11 -27 3z"/>
<path d="M2870 2550 c0 -5 5 -10 11 -10 5 0 7 5 4 10 -3 6 -8 10 -11 10 -2 0
-4 -4 -4 -10z"/>
<path d="M195 2540 c3 -5 8 -10 11 -10 2 0 4 5 4 10 0 6 -5 10 -11 10 -5 0 -7
-4 -4 -10z"/>
<path d="M235 2540 c3 -5 11 -10 16 -10 6 0 7 5 4 10 -3 6 -11 10 -16 10 -6 0
-7 -4 -4 -10z"/>
<path d="M587 2529 c7 -7 15 -10 18 -7 3 3 -2 9 -12 12 -14 6 -15 5 -6 -5z"/>
<path d="M1150 2530 c0 -12 28 -21 35 -11 2 5 -4 11 -15 14 -11 3 -20 2 -20
-3z"/>
<path d="M765 2520 c3 -5 8 -10 11 -10 2 0 4 5 4 10 0 6 -5 10 -11 10 -5 0 -7
-4 -4 -10z"/>
<path d="M1680 2522 c1 -20 16 -29 27 -17 9 10 8 14 -8 18 -10 3 -19 2 -19 -1z"/>
<path d="M210 2506 c0 -8 4 -17 9 -20 5 -4 7 3 4 14 -6 23 -13 26 -13 6z"/>
<path d="M300 2513 c0 -6 8 -17 18 -24 16 -13 16 -13 2 6 -8 11 -16 22 -17 24
-2 2 -3 0 -3 -6z"/>
<path d="M1606 2506 c6 -15 4 -17 -6 -11 -9 6 -11 4 -5 -4 5 -9 10 -10 18 -2
8 8 7 14 -2 24 -10 10 -11 8 -5 -7z"/>
<path d="M1823 2505 c0 -8 5 -13 11 -12 6 1 10 -3 9 -10 -2 -7 4 -10 12 -7 17
7 12 20 -14 33 -13 7 -18 6 -18 -4z"/>
<path d="M260 2506 c0 -2 7 -7 16 -10 8 -3 12 -2 9 4 -6 10 -25 14 -25 6z"/>
<path d="M375 2500 c3 -5 8 -10 11 -10 2 0 4 5 4 10 0 6 -5 10 -11 10 -5 0 -7
-4 -4 -10z"/>
<path d="M1658 2503 c-5 -25 -3 -63 4 -63 4 0 5 -8 1 -17 -4 -13 -3 -15 5 -8
8 8 9 21 2 44 -5 19 -7 38 -4 42 3 5 3 9 0 9 -3 0 -7 -3 -8 -7z"/>
<path d="M2780 2490 c0 -5 7 -7 15 -4 8 4 15 8 15 10 0 2 -7 4 -15 4 -8 0 -15
-4 -15 -10z"/>
<path d="M590 2475 c-11 -13 -10 -14 4 -9 9 3 16 10 16 15 0 13 -6 11 -20 -6z"/>
<path d="M476 2463 c-6 -14 -5 -15 5 -6 7 7 10 15 7 18 -3 3 -9 -2 -12 -12z"/>
<path d="M1475 2470 c-3 -5 -1 -10 4 -10 6 0 11 5 11 10 0 6 -2 10 -4 10 -3 0
-8 -4 -11 -10z"/>
<path d="M1706 2465 c4 -8 8 -15 10 -15 2 0 4 7 4 15 0 8 -4 15 -10 15 -5 0
-7 -7 -4 -15z"/>
<path d="M2898 2473 c7 -3 16 -2 19 1 4 3 -2 6 -13 5 -11 0 -14 -3 -6 -6z"/>
<path d="M292 2450 c7 -10 14 -18 15 -16 6 6 -9 36 -18 36 -5 0 -4 -9 3 -20z"/>
<path d="M325 2447 c0 -18 5 -23 18 -19 20 5 22 13 5 30 -18 18 -23 15 -23
-11z"/>
<path d="M385 2460 c-4 -6 -1 -9 7 -8 7 2 12 -2 11 -9 -2 -7 4 -10 13 -6 8 3
14 6 12 7 -2 1 -10 7 -20 14 -11 9 -18 10 -23 2z"/>
<path d="M628 2463 c7 -3 16 -2 19 1 4 3 -2 6 -13 5 -11 0 -14 -3 -6 -6z"/>
<path d="M2603 2449 c-18 -12 -33 -25 -33 -30 0 -9 67 28 76 42 9 15 -9 10
-43 -12z"/>
<path d="M89 2423 c10 -21 33 -55 49 -76 17 -21 33 -43 35 -50 2 -7 8 -9 12
-5 5 5 1 16 -8 26 -10 10 -17 22 -17 26 0 4 -11 18 -25 32 -14 14 -32 38 -40
54 -9 17 -18 30 -20 30 -3 0 3 -17 14 -37z"/>
<path d="M500 2451 c0 -5 7 -12 16 -15 14 -5 15 -4 4 9 -14 17 -20 19 -20 6z"/>
<path d="M1815 2450 c3 -5 11 -10 16 -10 6 0 7 5 4 10 -3 6 -11 10 -16 10 -6
0 -7 -4 -4 -10z"/>
<path d="M2705 2450 c3 -5 11 -10 16 -10 6 0 7 5 4 10 -3 6 -11 10 -16 10 -6
0 -7 -4 -4 -10z"/>
<path d="M2955 2450 c3 -5 11 -10 16 -10 6 0 7 5 4 10 -3 6 -11 10 -16 10 -6
0 -7 -4 -4 -10z"/>
<path d="M585 2440 c3 -5 11 -10 16 -10 6 0 7 5 4 10 -3 6 -11 10 -16 10 -6 0
-7 -4 -4 -10z"/>
<path d="M1875 2440 c3 -5 8 -10 11 -10 2 0 4 5 4 10 0 6 -5 10 -11 10 -5 0
-7 -4 -4 -10z"/>
<path d="M2230 2422 c-21 -42 -22 -42 -16 -42 8 0 38 61 33 66 -2 2 -10 -8
-17 -24z"/>
<path d="M550 2430 c0 -5 5 -10 11 -10 5 0 7 5 4 10 -3 6 -8 10 -11 10 -2 0
-4 -4 -4 -10z"/>
<path d="M620 2430 c0 -5 5 -10 10 -10 6 0 10 5 10 10 0 6 -4 10 -10 10 -5 0
-10 -4 -10 -10z"/>
<path d="M1780 2430 c0 -5 5 -10 11 -10 5 0 7 5 4 10 -3 6 -8 10 -11 10 -2 0
-4 -4 -4 -10z"/>
<path d="M1977 2429 c7 -7 15 -10 18 -7 3 3 -2 9 -12 12 -14 6 -15 5 -6 -5z"/>
<path d="M728 2423 c7 -3 16 -2 19 1 4 3 -2 6 -13 5 -11 0 -14 -3 -6 -6z"/>
<path d="M1825 2420 c3 -5 8 -10 11 -10 2 0 4 5 4 10 0 6 -5 10 -11 10 -5 0
-7 -4 -4 -10z"/>
<path d="M341 2378 c2 -50 14 -94 21 -82 4 6 3 28 -3 48 -6 21 -8 44 -5 52 3
8 1 14 -4 14 -6 0 -9 -15 -9 -32z"/>
<path d="M540 2407 c0 -2 15 -14 33 -27 17 -13 26 -17 20 -8 -7 8 -12 17 -10
19 1 2 0 3 -2 2 -2 -1 -12 2 -22 8 -11 5 -19 8 -19 6z"/>
<path d="M2482 2386 c-7 -16 -8 -26 -1 -26 12 0 22 25 17 41 -2 6 -9 0 -16
-15z"/>
<path d="M1840 2390 c0 -5 5 -10 11 -10 5 0 7 5 4 10 -3 6 -8 10 -11 10 -2 0
-4 -4 -4 -10z"/>
<path d="M1580 2380 c-13 -8 -12 -10 3 -10 9 0 17 5 17 10 0 12 -1 12 -20 0z"/>
<path d="M1665 2379 c-4 -6 -5 -12 -2 -15 2 -3 7 2 10 11 7 17 1 20 -8 4z"/>
<path d="M290 2362 c0 -12 19 -26 26 -19 2 2 -2 10 -11 17 -9 8 -15 8 -15 2z"/>
<path d="M518 2363 c7 -3 16 -2 19 1 4 3 -2 6 -13 5 -11 0 -14 -3 -6 -6z"/>
<path d="M440 2356 c0 -2 8 -10 18 -17 15 -13 16 -12 3 4 -13 16 -21 21 -21
13z"/>
<path d="M1262 2344 c10 -10 20 -16 22 -13 3 3 -5 11 -17 18 -21 13 -21 12 -5
-5z"/>
<path d="M1500 2350 c0 -5 5 -10 10 -10 6 0 10 5 10 10 0 6 -4 10 -10 10 -5 0
-10 -4 -10 -10z"/>
<path d="M1790 2351 c0 -9 30 -24 36 -18 2 1 -6 8 -16 15 -11 7 -20 8 -20 3z"/>
<path d="M2965 2350 c4 -6 11 -8 16 -5 14 9 11 15 -7 15 -8 0 -12 -5 -9 -10z"/>
<path d="M1153 2335 c0 -8 4 -12 9 -9 5 3 6 10 3 15 -9 13 -12 11 -12 -6z"/>
<path d="M1660 2340 c0 -5 10 -14 23 -20 20 -10 20 -10 5 3 -10 8 -15 17 -11
20 3 4 1 7 -5 7 -7 0 -12 -4 -12 -10z"/>
<path d="M1863 2335 c0 -8 4 -15 9 -15 4 0 8 4 8 9 0 6 -4 12 -8 15 -5 3 -9
-1 -9 -9z"/>
<path d="M2027 2325 c3 -8 9 -12 14 -9 12 7 11 11 -5 17 -10 4 -13 1 -9 -8z"/>
<path d="M690 2314 c1 -16 39 -56 50 -52 6 2 -3 16 -20 33 -16 16 -30 25 -30
19z"/>
<path d="M2455 2309 c-4 -6 -5 -12 -2 -15 2 -3 7 2 10 11 7 17 1 20 -8 4z"/>
<path d="M1640 2286 c14 -13 27 -22 29 -20 6 5 -35 44 -46 44 -4 0 4 -11 17
-24z"/>
<path d="M1870 2294 c0 -8 5 -12 10 -9 6 4 8 11 5 16 -9 14 -15 11 -15 -7z"/>
<path d="M2070 2306 c0 -9 40 -13 46 -5 3 5 -6 9 -20 9 -14 0 -26 -2 -26 -4z"/>
<path d="M1679 2287 c6 -8 8 -16 5 -20 -3 -3 4 -11 17 -17 l22 -12 -22 31
c-12 17 -25 31 -28 31 -3 0 0 -6 6 -13z"/>
<path d="M1740 2289 c0 -5 5 -7 10 -4 6 3 10 8 10 11 0 2 -4 4 -10 4 -5 0 -10
-5 -10 -11z"/>
<path d="M784 2277 c3 -10 6 -23 6 -28 0 -5 8 -9 18 -9 10 0 13 3 6 8 -6 4
-16 16 -23 27 -10 17 -12 17 -7 2z"/>
<path d="M1500 2268 c16 -18 23 -19 33 -9 9 10 9 11 -4 6 -10 -4 -19 0 -22 9
-4 9 -11 16 -17 16 -6 0 -2 -10 10 -22z"/>
<path d="M366 2267 c3 -10 9 -15 12 -12 3 3 0 11 -7 18 -10 9 -11 8 -5 -6z"/>
<path d="M425 2260 c14 -16 20 -17 26 -8 5 8 2 16 -9 20 -30 12 -35 8 -17 -12z"/>
<path d="M2156 2264 c-5 -14 -4 -15 9 -4 17 14 19 20 6 20 -5 0 -12 -7 -15
-16z"/>
<path d="M2191 2254 c0 -11 3 -14 6 -6 3 7 2 16 -1 19 -3 4 -6 -2 -5 -13z"/>
<path d="M556 2245 c4 -8 10 -12 15 -9 11 6 2 24 -11 24 -5 0 -7 -7 -4 -15z"/>
<path d="M1760 2250 c0 -5 5 -10 11 -10 5 0 7 5 4 10 -3 6 -8 10 -11 10 -2 0
-4 -4 -4 -10z"/>
<path d="M1898 2247 c-10 -8 -13 -18 -9 -26 6 -9 10 -7 14 9 4 14 10 19 18 14
8 -4 10 -3 5 4 -9 14 -7 14 -28 -1z"/>
<path d="M2070 2256 c0 -2 7 -6 15 -10 8 -3 15 -1 15 4 0 6 -7 10 -15 10 -8 0
-15 -2 -15 -4z"/>
<path d="M717 2206 c29 -26 55 -55 58 -66 3 -10 12 -21 20 -24 20 -7 19 -4 -5
24 -11 13 -20 29 -20 37 0 7 -6 13 -14 13 -8 0 -16 6 -19 13 -3 6 -20 21 -38
31 -28 16 -24 10 18 -28z"/>
<path d="M1996 2237 c3 -10 9 -15 12 -12 3 3 0 11 -7 18 -10 9 -11 8 -5 -6z"/>
<path d="M2378 2243 c7 -3 16 -2 19 1 4 3 -2 6 -13 5 -11 0 -14 -3 -6 -6z"/>
<path d="M373 2209 c11 -65 20 -94 35 -111 12 -15 13 -18 1 -18 -9 0 -10 -3
-4 -8 6 -4 12 -16 12 -27 1 -11 13 -54 26 -95 14 -41 28 -91 32 -110 4 -19 16
-50 27 -67 11 -18 15 -33 9 -33 -6 0 -8 -7 -4 -16 4 -12 8 -11 18 8 10 20 8
27 -12 51 -13 16 -23 37 -23 48 0 11 -9 45 -20 76 -23 65 -24 77 -10 68 15 -9
12 18 -5 52 -8 16 -16 38 -18 49 -4 22 -13 45 -33 91 -8 17 -14 38 -14 46 0 9
-5 19 -11 23 -8 5 -10 -3 -6 -27z"/>
<path d="M2220 2229 c0 -5 5 -7 10 -4 6 3 10 8 10 11 0 2 -4 4 -10 4 -5 0 -10
-5 -10 -11z"/>
<path d="M1690 2225 c0 -5 5 -17 10 -25 5 -8 10 -10 10 -5 0 6 -5 17 -10 25
-5 8 -10 11 -10 5z"/>
<path d="M1767 2219 c7 -7 15 -10 18 -7 3 3 -2 9 -12 12 -14 6 -15 5 -6 -5z"/>
<path d="M110 2213 c-37 -6 -110 -42 -110 -53 0 -12 13 -13 24 -3 4 4 31 15
61 24 45 14 55 14 59 3 3 -8 0 -14 -6 -14 -6 0 -2 -10 9 -22 12 -13 24 -38 28
-55 3 -18 11 -33 17 -33 6 0 8 -7 4 -15 -3 -8 -1 -15 4 -15 6 0 10 -8 10 -17
0 -10 11 -42 25 -71 14 -30 23 -58 20 -62 -3 -4 2 -11 11 -14 8 -3 14 -14 12
-23 -1 -10 7 -34 20 -54 26 -43 28 -78 5 -141 -16 -44 -15 -50 2 -100 9 -29
19 -91 22 -138 2 -56 10 -97 22 -120 10 -19 24 -66 31 -105 7 -38 17 -80 21
-93 5 -12 14 -53 19 -90 6 -37 22 -89 35 -117 13 -27 41 -89 63 -136 23 -48
68 -122 101 -167 34 -44 61 -85 61 -91 0 -7 12 -23 27 -37 l28 -26 -27 -21
c-24 -20 -25 -24 -12 -42 8 -11 12 -25 10 -32 -3 -7 2 -13 10 -13 12 0 15 6
10 22 -13 43 -11 52 16 67 22 13 29 13 42 2 20 -17 21 -50 1 -57 -8 -4 -15
-12 -15 -20 0 -8 -3 -14 -7 -14 -5 0 -14 -4 -21 -9 -18 -11 8 -64 43 -87 24
-16 65 -12 65 7 0 6 -8 5 -20 -1 -25 -13 -36 -7 -56 31 -14 28 -13 32 6 59 38
53 101 28 65 -26 -19 -30 -19 -33 3 -31 12 1 18 11 20 38 2 33 -3 44 -42 83
-24 25 -48 46 -54 46 -5 0 -22 11 -38 25 -16 14 -32 25 -36 25 -5 0 -8 8 -8
18 0 10 -9 28 -20 40 -11 12 -20 24 -20 28 0 4 -16 26 -35 50 -19 23 -35 47
-35 53 0 6 -4 11 -10 11 -5 0 -10 11 -10 24 0 13 -4 26 -8 28 -11 4 -52 86
-52 104 0 9 -12 36 -27 62 -15 26 -29 58 -30 72 -2 14 -9 48 -15 75 -7 28 -11
54 -10 58 1 5 -4 28 -13 53 -19 58 -20 85 0 78 18 -7 60 -73 52 -81 -4 -3 -16
11 -28 31 -25 43 -36 48 -14 6 8 -16 35 -50 60 -75 44 -45 45 -46 70 -29 14 9
25 12 25 5 0 -6 -11 -18 -25 -27 -14 -9 -23 -19 -21 -21 3 -3 17 4 32 16 20
16 30 18 40 10 11 -9 10 -14 -9 -29 -12 -10 -31 -20 -42 -23 -16 -4 -16 -5 5
-6 15 0 33 8 43 20 14 16 21 18 32 9 8 -7 22 -10 30 -6 8 3 26 1 40 -4 14 -5
56 -11 93 -12 l68 -3 -23 -34 c-29 -42 -29 -75 -2 -102 17 -17 29 -20 67 -15
26 3 55 7 65 8 9 1 17 7 17 13 0 5 4 4 9 -4 8 -13 5 -60 -4 -70 -2 -2 4 -20
14 -40 23 -47 34 -91 22 -91 -5 0 -7 -15 -4 -34 3 -18 0 -43 -7 -56 -7 -12 -8
-20 -2 -16 5 3 13 -21 17 -57 10 -76 9 -70 18 -84 9 -14 -2 -45 -14 -37 -5 3
-9 -1 -9 -9 0 -24 -41 -69 -58 -62 -12 4 -12 3 -3 -9 8 -10 9 -16 1 -21 -5 -3
-10 -16 -10 -28 0 -17 -2 -19 -9 -8 -6 9 -8 -5 -5 -38 2 -29 6 -57 10 -63 4
-6 -2 -8 -17 -4 -19 6 -21 5 -7 -3 9 -6 28 -32 43 -58 35 -60 64 -93 83 -93 9
0 4 9 -13 22 -40 31 -75 113 -75 175 0 60 13 96 50 138 54 62 58 73 43 134 -8
32 -13 96 -11 151 1 69 -3 111 -16 153 -22 73 -11 168 30 264 8 17 14 36 14
42 0 15 17 14 23 -1 4 -10 6 -10 6 -1 1 6 -3 15 -9 18 -20 12 -9 36 23 55 27
16 37 32 50 78 9 31 18 71 20 87 1 17 18 62 36 100 56 120 60 129 54 138 -3 5
-26 -38 -51 -96 -39 -90 -48 -104 -61 -94 -12 10 -13 9 -3 -10 28 -51 1 -136
-60 -196 -28 -27 -44 -52 -46 -70 -2 -33 -10 -49 -20 -43 -4 2 -7 -9 -8 -24
-1 -15 -5 -36 -9 -46 -4 -11 -7 -26 -6 -35 1 -11 -16 -26 -51 -43 -61 -31 -88
-32 -117 -8 l-21 17 21 42 c28 57 95 123 117 117 11 -4 13 -3 5 3 -15 11 24
93 44 93 10 0 11 8 7 28 -6 23 -5 25 8 15 12 -11 14 -8 10 17 -3 18 2 35 12
45 9 9 13 22 9 28 -4 7 0 8 11 4 10 -4 15 -3 11 3 -10 16 14 77 32 84 11 5 13
10 6 17 -14 14 -4 49 14 49 10 0 13 6 9 15 -3 9 -2 23 3 33 4 9 14 31 22 47 8
17 25 34 37 40 12 5 22 13 22 17 0 5 6 8 13 8 8 0 20 11 27 25 7 13 16 23 19
20 4 -2 37 25 75 61 37 35 72 61 77 58 5 -3 9 0 9 5 0 6 5 11 10 11 6 0 20 9
32 20 12 10 25 17 30 14 4 -3 11 2 14 11 4 9 13 14 21 11 8 -3 12 -2 8 3 -6
10 60 54 81 54 7 0 11 3 9 7 -9 14 134 110 154 103 14 -4 14 -4 1 6 -13 9 -12
11 5 11 11 0 29 7 39 15 10 8 23 12 29 8 6 -3 7 -1 3 5 -5 8 3 11 26 8 63 -7
203 -188 252 -326 l27 -73 -30 -31 c-16 -17 -31 -40 -33 -51 -2 -11 -9 -19
-14 -18 -16 3 -11 -41 5 -54 11 -9 13 -15 5 -20 -18 -13 -23 -40 -11 -53 10
-10 8 -11 -8 -5 -49 19 -65 18 -65 -4 0 -11 11 -28 24 -36 30 -20 54 -69 56
-115 3 -58 2 -63 -20 -57 -11 3 -23 1 -26 -4 -3 -5 3 -9 14 -9 10 0 28 -10 39
-22 17 -20 19 -35 17 -100 -2 -56 2 -80 12 -89 10 -8 14 -8 14 0 0 6 -5 11
-11 11 -5 0 -7 5 -4 10 3 6 10 10 14 10 10 0 33 -51 26 -58 -13 -13 -50 -11
-57 3 -11 19 -38 19 -52 -1 -10 -13 -12 -13 -13 5 -1 12 4 21 10 21 8 0 7 4
-2 9 -12 8 -13 16 -2 48 16 49 11 87 -12 91 -14 3 -17 -1 -12 -21 4 -15 0 -38
-10 -58 -20 -38 -24 -124 -7 -141 9 -9 19 -5 45 20 18 18 35 32 37 32 8 0 4
-156 -4 -169 -5 -7 -14 -10 -22 -7 -8 3 -14 1 -14 -4 0 -6 4 -10 9 -10 5 0 7
-9 4 -20 -6 -23 -14 -25 -31 -8 -9 9 -12 8 -12 -4 0 -9 -18 -35 -40 -58 -33
-35 -42 -39 -59 -31 -28 16 -48 13 -55 -5 -8 -21 2 -33 13 -15 11 18 45 10 49
-12 5 -27 -51 -77 -87 -77 -24 0 -31 4 -31 20 0 35 -52 51 -86 25 -17 -13 -16
-14 20 -8 59 9 75 -29 31 -72 -33 -34 -85 -35 -85 -2 0 13 -5 28 -12 35 -15
15 -48 16 -48 2 0 -5 9 -10 19 -10 39 0 33 -62 -7 -74 -9 -3 -33 -1 -52 4 -19
6 -50 10 -68 10 -27 0 -36 6 -50 33 -9 17 -45 59 -78 93 -53 52 -64 68 -74
117 -16 72 -43 88 -35 21 7 -62 22 -86 75 -127 25 -19 58 -53 74 -76 28 -40
28 -41 12 -81 -9 -22 -16 -62 -16 -88 0 -28 -8 -64 -20 -87 -11 -22 -20 -52
-20 -67 0 -50 39 -122 57 -105 8 9 -7 47 -19 44 -18 -4 -28 54 -17 95 11 42
29 51 29 15 0 -33 52 -131 71 -135 18 -3 31 30 22 54 -9 25 -24 15 -17 -12 13
-50 -19 -20 -44 42 -27 66 -35 188 -14 236 l11 26 58 -13 c74 -18 114 -18 138
-2 11 8 38 15 60 15 29 1 46 8 61 25 11 13 37 27 57 31 44 8 97 50 97 77 0 10
5 19 10 19 6 0 15 11 20 24 5 13 18 27 29 31 11 3 23 15 26 26 4 10 15 19 26
19 11 0 22 8 25 17 3 10 10 27 14 38 20 45 27 91 17 118 -5 16 -7 30 -5 32 2
2 22 6 44 7 l41 3 -14 43 c-8 23 -21 42 -29 42 -10 0 -14 14 -14 51 0 43 2 50
14 40 15 -13 31 -58 27 -80 -1 -7 2 -10 8 -6 6 3 12 -1 12 -9 1 -9 2 -19 4
-23 14 -52 18 -62 26 -57 10 6 17 -9 50 -104 18 -51 24 -60 36 -50 11 9 11 13
1 19 -7 5 -8 9 -3 9 6 0 4 4 -4 9 -13 8 -13 12 0 27 9 11 9 15 1 10 -7 -4 -14
0 -18 11 -3 10 -9 26 -14 35 -8 15 -6 16 21 6 17 -6 47 -7 67 -3 20 3 46 8 57
10 11 2 20 4 20 5 0 1 10 3 23 6 24 4 30 -14 10 -34 -7 -7 -9 -12 -6 -12 4 0
-5 -13 -20 -29 -32 -36 -112 -91 -131 -91 -9 0 -12 -8 -8 -23 12 -48 37 -185
42 -229 6 -43 11 -49 68 -92 34 -25 68 -46 75 -46 17 0 87 -36 113 -58 11 -9
54 -50 96 -89 41 -40 78 -73 82 -73 3 0 16 -10 27 -23 24 -25 144 -120 144
-114 0 8 -36 43 -80 77 -59 46 -112 92 -185 164 -67 65 -150 126 -172 126 -27
0 -93 45 -93 63 0 11 -4 15 -11 11 -8 -5 -10 0 -6 17 4 13 9 35 12 49 4 19 2
18 -6 -5 -21 -55 -33 -62 -41 -24 -3 18 -2 42 4 52 7 14 7 17 -1 13 -12 -8
-12 -8 -16 44 -2 19 -4 35 -5 35 -1 0 -4 9 -5 20 -2 11 -8 35 -14 53 -9 30 -8
34 12 42 12 5 18 9 14 9 -4 1 -2 7 5 15 7 8 16 12 20 9 10 -5 40 11 40 23 1
16 33 51 44 47 12 -4 24 27 24 63 0 17 8 22 39 27 50 6 138 63 180 116 18 22
37 39 42 36 5 -4 7 0 4 7 -3 7 -1 19 3 26 7 10 15 9 41 -4 18 -9 35 -13 38
-10 4 3 1 6 -5 6 -6 0 -24 11 -40 25 -29 24 -30 26 -15 55 16 33 25 108 13
115 -7 4 -10 41 -12 135 -1 85 1 102 15 94 9 -6 9 -4 1 7 -7 8 -10 37 -8 64 1
28 4 70 5 95 1 25 5 52 10 61 9 17 9 17 -68 22 -28 1 -49 -1 -47 -5 3 -5 -3
-11 -12 -15 -10 -4 -19 -2 -22 5 -3 9 -8 8 -18 -2 -7 -8 -30 -14 -50 -14 -20
0 -39 -5 -43 -10 -3 -6 -20 -14 -36 -18 l-30 -7 20 23 20 24 -35 -22 c-33 -20
-37 -20 -48 -4 -11 15 -12 14 -6 -7 5 -19 3 -23 -10 -18 -8 3 -18 2 -21 -3 -4
-6 -11 -10 -16 -10 -6 0 -7 4 -4 10 3 5 -13 2 -37 -8 -24 -10 -51 -16 -61 -14
-10 2 -24 -1 -31 -8 -20 -16 -56 -21 -56 -7 0 22 15 35 45 43 17 4 35 10 40
14 6 4 29 11 52 15 24 4 45 11 49 16 3 5 23 6 45 3 25 -4 39 -3 39 4 0 16 -18
24 -23 10 -3 -10 -7 -10 -20 1 -28 22 -20 32 26 30 23 -1 53 2 66 6 22 8 23 7
10 -16 -11 -22 -11 -23 4 -11 8 7 16 23 15 35 0 41 -9 68 -19 62 -7 -5 -7 -11
0 -19 12 -14 3 -29 -24 -43 -28 -14 -50 -6 -34 13 9 11 9 14 0 14 -6 0 -14 -6
-17 -13 -8 -21 -34 -16 -34 5 0 11 4 17 9 13 5 -3 13 -1 16 5 4 6 3 10 -2 9
-20 -3 -25 2 -13 16 11 13 10 14 -4 9 -12 -5 -16 0 -16 16 0 15 5 20 14 17 10
-4 13 -1 9 9 -5 14 -34 20 -32 7 1 -5 1 -15 -1 -23 -1 -11 -4 -9 -10 5 -12 28
-12 47 0 40 6 -3 10 -1 10 4 0 6 -6 11 -14 11 -8 0 -16 6 -19 13 -2 6 -8 9
-12 5 -4 -4 -3 -13 1 -20 5 -7 19 -42 31 -78 19 -53 21 -71 12 -97 -10 -31
-14 -34 -84 -47 -11 -2 -33 -9 -49 -15 -23 -9 -31 -9 -38 1 -6 10 -8 8 -8 -4
0 -25 -27 -23 -35 2 -3 11 -10 20 -15 20 -4 0 -6 -9 -3 -20 3 -11 9 -20 14
-20 5 0 8 -8 7 -17 -1 -10 0 -30 0 -45 2 -24 4 -26 30 -18 45 15 253 59 325
70 37 6 104 22 148 36 45 14 82 24 84 22 3 -2 -1 -62 -17 -288 0 -8 3 -76 7
-150 l7 -135 -38 -75 c-56 -109 -106 -140 -283 -180 -92 -21 -138 -27 -145
-20 -5 5 -22 10 -38 10 -23 0 -29 6 -38 40 -18 67 -46 125 -78 161 -30 35 -30
35 -33 177 -3 131 -1 143 18 164 46 51 56 77 50 127 -14 122 -114 309 -214
402 -60 56 -84 65 -120 45 -16 -8 -48 -24 -73 -36 -25 -11 -54 -29 -65 -39
-11 -11 -90 -65 -175 -122 -181 -120 -268 -188 -381 -299 -33 -32 -51 -61 -64
-100 -15 -49 -120 -293 -162 -378 -26 -52 -55 -62 -164 -56 -127 7 -129 7
-191 59 -30 25 -65 45 -77 45 -14 0 -25 9 -32 28 -5 15 -36 50 -67 78 l-57 51
-2 94 c-1 68 -7 109 -22 150 -20 52 -20 59 -6 99 24 67 19 94 -43 244 -32 78
-74 183 -93 233 -19 51 -38 92 -44 92 -5 -1 -21 -4 -35 -6z m2062 -651 c-24
-47 -56 -57 -46 -15 4 15 18 44 33 63 25 33 26 34 29 12 2 -13 -5 -40 -16 -60z
m-87 -147 c41 -40 31 -61 -10 -24 -19 18 -35 36 -35 41 0 15 21 8 45 -17z
m-1591 -294 c-2 -3 -12 3 -22 13 -16 17 -16 18 5 5 12 -7 20 -15 17 -18z m42
-2 c7 -12 -15 -31 -28 -23 -9 6 1 34 12 34 5 0 12 -5 16 -11z m1521 -56 c-8
-15 -12 -42 -10 -60 3 -17 0 -39 -7 -50 -10 -15 -10 -13 -6 15 3 18 2 31 -3
28 -12 -8 5 64 18 77 6 6 12 22 12 37 2 22 2 22 6 3 2 -12 -2 -34 -10 -50z
m-723 -345 c9 -43 2 -45 -11 -3 -6 19 -8 35 -3 35 4 0 10 -14 14 -32z"/>
<path d="M560 2197 c0 -3 12 -12 26 -22 15 -9 23 -12 20 -6 -7 11 -46 35 -46
28z"/>
<path d="M1796 2185 c4 -8 11 -15 16 -15 6 0 5 6 -2 15 -7 8 -14 15 -16 15 -2
0 -1 -7 2 -15z"/>
<path d="M1330 2180 c0 -5 5 -10 11 -10 5 0 7 5 4 10 -3 6 -8 10 -11 10 -2 0
-4 -4 -4 -10z"/>
<path d="M1375 2180 c3 -5 8 -10 11 -10 2 0 4 5 4 10 0 6 -5 10 -11 10 -5 0
-7 -4 -4 -10z"/>
<path d="M1895 2180 c3 -5 8 -10 11 -10 2 0 4 5 4 10 0 6 -5 10 -11 10 -5 0
-7 -4 -4 -10z"/>
<path d="M921 2173 c-1 -18 13 -23 29 -11 12 8 12 9 -2 5 -9 -3 -19 -1 -22 6
-3 9 -5 9 -5 0z"/>
<path d="M1860 2170 c0 -5 5 -10 11 -10 5 0 7 5 4 10 -3 6 -8 10 -11 10 -2 0
-4 -4 -4 -10z"/>
<path d="M1920 2176 c0 -2 7 -7 16 -10 8 -3 12 -2 9 4 -6 10 -25 14 -25 6z"/>
<path d="M1907 2139 c4 -13 8 -18 11 -10 2 7 -1 18 -6 23 -8 8 -9 4 -5 -13z"/>
<path d="M2170 2145 c-7 -8 -19 -15 -27 -15 -8 0 -57 -10 -109 -22 -73 -17
-91 -24 -77 -31 10 -5 39 -32 65 -60 26 -29 46 -45 45 -36 -2 8 -22 33 -46 54
-41 37 -42 39 -21 47 14 5 28 4 36 -3 11 -9 14 -9 14 0 0 7 9 6 24 -5 19 -12
29 -13 43 -5 17 10 17 10 1 11 -10 0 -18 5 -18 11 0 8 -6 7 -17 -2 -14 -12
-16 -12 -11 1 5 16 80 32 109 24 21 -6 30 17 14 33 -10 10 -16 9 -25 -2z"/>
<path d="M1670 2135 c0 -8 4 -15 10 -15 5 0 7 7 4 15 -4 8 -8 15 -10 15 -2 0
-4 -7 -4 -15z"/>
<path d="M960 2130 c0 -5 5 -10 11 -10 5 0 7 5 4 10 -3 6 -8 10 -11 10 -2 0
-4 -4 -4 -10z"/>
<path d="M1761 2114 c0 -11 3 -14 6 -6 3 7 2 16 -1 19 -3 4 -6 -2 -5 -13z"/>
<path d="M1335 2099 c-4 -6 -5 -12 -2 -15 2 -3 7 2 10 11 7 17 1 20 -8 4z"/>
<path d="M1676 2097 c3 -10 9 -15 12 -12 3 3 0 11 -7 18 -10 9 -11 8 -5 -6z"/>
<path d="M1630 2071 c0 -11 4 -22 9 -25 4 -3 6 6 3 19 -5 30 -12 33 -12 6z"/>
<path d="M670 2072 c0 -12 19 -26 26 -19 2 2 -2 10 -11 17 -9 8 -15 8 -15 2z"/>
<path d="M798 2058 c12 -12 25 -19 28 -15 4 4 -1 14 -12 22 -29 22 -41 18 -16
-7z"/>
<path d="M310 2066 c0 -4 7 -14 15 -22 8 -9 15 -11 15 -6 0 5 -7 15 -15 22 -8
7 -15 9 -15 6z"/>
<path d="M460 2065 c0 -2 9 -21 19 -42 10 -21 22 -51 25 -68 6 -27 5 -28 -8
-12 -13 17 -14 16 -12 -6 0 -14 6 -23 14 -21 46 14 45 13 28 30 -9 8 -16 26
-16 38 0 28 -28 86 -41 86 -5 0 -9 -2 -9 -5z"/>
<path d="M1588 2033 c7 -3 16 -2 19 1 4 3 -2 6 -13 5 -11 0 -14 -3 -6 -6z"/>
<path d="M2056 2029 c3 -5 9 -9 14 -9 15 0 101 -61 107 -76 4 -10 8 -10 18 -1
10 9 6 15 -17 26 -16 8 -42 26 -57 40 -26 24 -77 40 -65 20z"/>
<path d="M2150 2029 c0 -8 5 -21 10 -29 8 -12 9 -10 7 7 -4 26 -17 43 -17 22z"/>
<path d="M783 2015 c0 -8 4 -15 9 -15 4 0 8 7 8 15 0 8 -4 15 -8 15 -5 0 -9
-7 -9 -15z"/>
<path d="M1655 2020 c3 -5 8 -10 11 -10 2 0 4 5 4 10 0 6 -5 10 -11 10 -5 0
-7 -4 -4 -10z"/>
<path d="M1610 1990 c0 -5 5 -10 10 -10 6 0 10 5 10 10 0 6 -4 10 -10 10 -5 0
-10 -4 -10 -10z"/>
<path d="M2190 1984 c0 -2 9 -8 20 -14 11 -6 20 -7 20 -2 0 6 -9 12 -20 15
-11 3 -20 3 -20 1z"/>
<path d="M2458 1973 c6 -2 12 -11 12 -19 0 -8 7 -17 16 -21 13 -5 13 -7 2 -14
-10 -7 -9 -9 5 -9 9 0 17 2 17 5 0 13 -45 65 -54 64 -6 0 -5 -3 2 -6z"/>
<path d="M2118 1883 c26 -44 48 -80 50 -78 5 5 -48 101 -72 130 -14 17 -5 -6
22 -52z"/>
<path d="M376 1932 c-2 -4 -1 -14 5 -22 7 -12 9 -10 9 8 0 23 -5 28 -14 14z"/>
<path d="M791 1924 c0 -11 3 -14 6 -6 3 7 2 16 -1 19 -3 4 -6 -2 -5 -13z"/>
<path d="M2250 1936 c0 -9 30 -14 35 -6 4 6 -3 10 -14 10 -12 0 -21 -2 -21 -4z"/>
<path d="M1836 1911 c-3 -5 1 -11 9 -14 9 -4 12 -1 8 9 -6 16 -10 17 -17 5z"/>
<path d="M2260 1908 c0 -5 7 -8 15 -8 8 0 18 0 22 -1 4 0 9 3 10 8 2 4 -8 8
-22 8 -14 0 -25 -3 -25 -7z"/>
<path d="M512 1897 c-8 -10 -6 -16 9 -26 12 -7 18 -15 15 -18 -3 -3 1 -18 8
-32 8 -14 19 -37 24 -51 9 -21 11 -22 11 -5 0 11 -12 48 -28 83 -22 49 -30 60
-39 49z"/>
<path d="M540 1901 c0 -6 4 -13 10 -16 6 -3 7 1 4 9 -7 18 -14 21 -14 7z"/>
<path d="M817 1899 c7 -7 15 -10 18 -7 3 3 -2 9 -12 12 -14 6 -15 5 -6 -5z"/>
<path d="M2503 1885 c0 -8 4 -15 9 -15 4 0 8 7 8 15 0 8 -4 15 -8 15 -5 0 -9
-7 -9 -15z"/>
<path d="M2275 1880 c-3 -5 -1 -10 4 -10 6 0 11 5 11 10 0 6 -2 10 -4 10 -3 0
-8 -4 -11 -10z"/>
<path d="M2305 1880 c-3 -5 -1 -10 4 -10 6 0 11 5 11 10 0 6 -2 10 -4 10 -3 0
-8 -4 -11 -10z"/>
<path d="M2025 1820 c10 -11 20 -18 23 -16 5 6 -23 36 -34 36 -4 0 1 -9 11
-20z"/>
<path d="M820 1826 c0 -2 7 -9 15 -16 13 -11 14 -10 9 4 -5 14 -24 23 -24 12z"/>
<path d="M780 1810 c-8 -5 -12 -12 -9 -15 4 -3 12 1 19 10 14 17 11 19 -10 5z"/>
<path d="M1821 1804 c0 -11 3 -14 6 -6 3 7 2 16 -1 19 -3 4 -6 -2 -5 -13z"/>
<path d="M2507 1813 c-4 -3 -7 -11 -7 -17 0 -6 5 -5 12 2 6 6 9 14 7 17 -3 3
-9 2 -12 -2z"/>
<path d="M531 1794 c0 -11 3 -14 6 -6 3 7 2 16 -1 19 -3 4 -6 -2 -5 -13z"/>
<path d="M1610 1800 c0 -5 5 -10 11 -10 5 0 7 5 4 10 -3 6 -8 10 -11 10 -2 0
-4 -4 -4 -10z"/>
<path d="M2090 1761 c0 -6 4 -13 10 -16 6 -3 7 1 4 9 -7 18 -14 21 -14 7z"/>
<path d="M1711 1724 c0 -11 3 -14 6 -6 3 7 2 16 -1 19 -3 4 -6 -2 -5 -13z"/>
<path d="M2080 1730 c0 -5 5 -10 11 -10 5 0 7 5 4 10 -3 6 -8 10 -11 10 -2 0
-4 -4 -4 -10z"/>
<path d="M20 1721 c0 -5 5 -13 10 -16 6 -3 10 -2 10 4 0 5 -4 13 -10 16 -5 3
-10 2 -10 -4z"/>
<path d="M470 1708 c0 -9 5 -20 10 -23 13 -8 13 5 0 25 -8 13 -10 13 -10 -2z"/>
<path d="M1381 1693 c-11 -15 -25 -33 -31 -40 -5 -7 -6 -14 -2 -17 5 -3 16 11
27 30 20 37 35 44 35 17 1 -15 4 -14 21 6 11 13 17 26 14 30 -3 3 -10 -1 -16
-9 -7 -12 -11 -13 -18 -2 -6 11 -13 7 -30 -15z"/>
<path d="M2731 1704 c0 -11 3 -14 6 -6 3 7 2 16 -1 19 -3 4 -6 -2 -5 -13z"/>
<path d="M20 1659 c0 -5 5 -7 10 -4 6 3 10 8 10 11 0 2 -4 4 -10 4 -5 0 -10
-5 -10 -11z"/>
<path d="M370 1650 c-6 -11 -8 -20 -6 -20 3 0 10 9 16 20 6 11 8 20 6 20 -3 0
-10 -9 -16 -20z"/>
<path d="M437 1645 c16 -22 43 -41 43 -30 0 6 -50 55 -56 55 -3 0 3 -11 13
-25z"/>
<path d="M490 1654 c0 -8 5 -12 10 -9 6 3 10 10 10 16 0 5 -4 9 -10 9 -5 0
-10 -7 -10 -16z"/>
<path d="M1376 1634 c-18 -26 -18 -26 2 -15 11 6 22 17 26 26 9 23 -7 17 -28
-11z"/>
<path d="M35 1639 c-4 -6 -5 -12 -2 -15 2 -3 7 2 10 11 7 17 1 20 -8 4z"/>
<path d="M516 1612 c-8 -13 28 -22 45 -11 9 6 10 9 2 9 -6 0 -18 3 -26 6 -8 3
-18 1 -21 -4z"/>
<path d="M1382 1590 c-15 -25 -54 -28 -45 -3 4 11 3 14 -5 9 -21 -13 -13 -36
11 -36 22 0 67 29 67 44 0 13 -16 5 -28 -14z"/>
<path d="M480 1593 c1 -30 40 -174 55 -202 9 -19 21 -46 26 -60 4 -14 17 -51
28 -81 l21 -55 -3 40 c-3 41 -9 55 -58 158 -15 31 -33 91 -40 132 -6 41 -16
75 -20 75 -5 0 -9 -3 -9 -7z"/>
<path d="M645 1580 c10 -11 23 -20 28 -20 6 0 0 9 -13 20 -13 11 -25 20 -28
20 -3 0 3 -9 13 -20z"/>
<path d="M1647 1569 c-38 -10 -94 -54 -119 -93 -16 -25 -18 -43 -14 -97 l5
-67 -38 -10 c-35 -8 -38 -8 -34 9 3 11 0 19 -6 19 -6 0 -11 -6 -11 -14 0 -7
-7 -19 -15 -26 -9 -7 -13 -15 -10 -18 2 -3 -5 -13 -17 -23 -11 -11 -18 -19
-14 -19 3 0 -1 -11 -9 -24 -18 -28 -34 -29 -117 -13 -41 8 -58 16 -58 27 0 8
-7 2 -15 -14 -8 -15 -15 -29 -15 -30 0 0 19 -1 43 -2 23 0 56 -6 73 -14 41
-18 89 1 110 43 21 39 61 74 102 88 27 9 39 7 78 -11 l45 -22 -23 -16 c-39
-26 -48 -44 -48 -98 0 -62 -13 -74 -44 -45 -12 12 -28 21 -34 21 -16 0 -15 29
3 60 15 26 20 70 9 70 -15 0 -94 -134 -94 -158 0 -5 18 -21 40 -36 42 -28 45
-50 7 -63 -39 -13 -51 -12 -115 2 -35 9 -68 13 -73 9 -19 -11 -8 -32 21 -37
17 -4 30 -12 30 -18 0 -7 -3 -9 -7 -6 -3 4 -12 2 -20 -4 -10 -9 -13 -8 -13 0
0 7 -4 10 -9 7 -5 -4 -11 -1 -13 6 -3 9 -10 8 -22 -5 -17 -17 -16 -19 21 -56
35 -35 37 -41 29 -70 -17 -58 34 -200 71 -201 7 0 2 15 -12 36 -20 29 -25 50
-25 95 0 32 5 61 10 64 6 3 10 1 10 -4 0 -6 4 -11 9 -11 5 0 15 26 21 58 6 31
16 68 21 82 10 23 9 24 -6 9 -9 -9 -19 -37 -23 -63 -4 -26 -10 -48 -13 -49
-10 -3 -109 82 -109 93 0 5 11 4 25 -2 19 -8 31 -8 51 1 33 15 27 31 -17 47
-28 10 -30 13 -11 13 31 1 111 -19 118 -30 3 -5 0 -26 -5 -47 -15 -54 2 -105
44 -138 19 -15 35 -35 35 -45 0 -23 16 -33 23 -15 3 8 1 16 -6 19 -8 2 -12 34
-12 98 1 91 2 96 38 156 21 35 44 66 50 70 7 4 4 -6 -7 -21 -11 -17 -14 -31
-8 -35 5 -3 12 -15 15 -26 4 -11 5 -4 3 15 -2 19 3 45 12 57 12 19 12 23 0 23
-11 0 -13 12 -8 58 8 83 35 121 74 106 10 -4 14 1 13 15 0 11 -3 18 -5 16 -5
-5 -59 31 -83 55 -10 10 -18 38 -20 68 -4 44 -1 52 15 54 24 4 34 28 12 28
-25 0 -19 14 16 41 51 39 71 48 101 49 34 0 36 -16 2 -24 -14 -4 -25 -11 -25
-16 0 -6 -5 -10 -11 -10 -5 0 -7 5 -4 10 3 6 1 10 -5 10 -6 0 -10 -8 -8 -17 1
-10 -8 -40 -21 -67 -22 -44 -22 -49 -8 -58 9 -5 19 -8 22 -8 3 0 18 -6 33 -13
15 -8 50 -19 77 -26 77 -18 107 -32 101 -48 -3 -7 15 3 39 24 25 20 45 38 45
39 0 1 -7 20 -15 44 -14 40 -14 43 8 61 39 33 60 23 32 -15 -24 -32 -18 -55
30 -104 41 -42 51 -66 46 -109 -1 -7 3 -13 9 -13 15 0 12 -33 -6 -59 l-16 -23
-20 33 c-16 26 -17 34 -6 40 14 9 -5 13 -49 10 -22 -2 -37 13 -38 38 0 21 -24
25 -31 6 -9 -22 19 -50 65 -63 40 -12 71 -56 52 -75 -18 -18 -51 3 -51 33 0
16 -4 32 -10 35 -5 3 -9 -2 -8 -12 4 -45 -1 -49 -69 -62 -38 -7 -95 -15 -128
-17 -60 -5 -60 -5 -84 31 -30 45 -20 69 28 71 19 1 43 11 59 26 36 34 51 38
91 22 45 -19 51 -17 23 6 -13 10 -29 17 -37 14 -7 -3 -19 4 -25 17 -9 17 -14
19 -20 8 -5 -7 -6 -17 -4 -21 3 -4 -2 -8 -10 -8 -8 0 -20 -9 -26 -20 -6 -11
-21 -20 -33 -20 -12 0 -37 -9 -55 -20 -38 -23 -37 -42 6 -98 25 -33 27 -34 81
-27 31 3 89 13 128 21 72 16 81 15 147 -12 14 -5 17 -4 12 5 -5 8 3 24 22 43
35 33 51 70 33 76 -6 2 -11 18 -11 36 0 18 -5 37 -12 44 -7 7 -12 40 -12 82 1
48 -3 70 -11 70 -15 0 -45 -32 -45 -48 0 -7 -4 -12 -10 -12 -16 0 -12 22 10
58 24 39 24 38 3 46 -9 4 -32 -4 -54 -18 l-37 -25 16 -44 16 -45 -29 -24 c-28
-25 -29 -25 -59 -8 -17 10 -48 21 -68 24 -124 22 -157 83 -81 152 24 22 35 24
78 19 28 -2 62 -8 78 -11 39 -9 35 14 -6 31 -49 20 -129 32 -160 24z m168 -40
c6 -7 0 -6 -18 0 -16 6 -39 11 -53 11 -13 0 -24 4 -24 9 0 11 81 -6 95 -20z
m177 -143 c-7 -46 -8 -47 -24 -29 -16 18 -16 21 3 52 11 18 22 31 24 29 2 -2
1 -25 -3 -52z m-377 14 c3 -5 2 -10 -4 -10 -5 0 -13 5 -16 10 -3 6 -2 10 4 10
5 0 13 -4 16 -10z m-164 -219 c-12 -22 -21 -45 -21 -50 0 -5 18 -20 40 -32 46
-26 47 -30 20 -47 -18 -11 -25 -9 -55 14 -19 14 -35 30 -35 35 0 16 61 131 66
126 3 -3 -4 -23 -15 -46z m39 -177 c-42 -61 -55 -111 -52 -193 l1 -44 -24 23
c-28 27 -32 40 -10 40 8 0 15 4 15 9 0 5 -9 7 -20 4 -18 -5 -20 0 -20 35 0 50
15 92 33 92 7 0 35 22 62 50 27 27 50 48 52 46 2 -2 -15 -30 -37 -62z m-204
-186 c-3 -13 -6 -41 -6 -63 -1 -35 -2 -37 -11 -17 -11 28 -1 102 13 102 6 0 8
-10 4 -22z"/>
<path d="M391 1524 c0 -11 3 -14 6 -6 3 7 2 16 -1 19 -3 4 -6 -2 -5 -13z"/>
<path d="M862 1490 c0 -14 2 -19 5 -12 2 6 2 18 0 25 -3 6 -5 1 -5 -13z"/>
<path d="M926 1495 c-3 -8 -1 -15 4 -15 13 0 22 18 11 24 -5 3 -11 -1 -15 -9z"/>
<path d="M1190 1495 c-20 -24 -6 -28 15 -5 10 11 13 20 8 20 -6 0 -16 -7 -23
-15z"/>
<path d="M401 1484 c0 -11 3 -14 6 -6 3 7 2 16 -1 19 -3 4 -6 -2 -5 -13z"/>
<path d="M1030 1480 c-8 -5 -10 -10 -5 -10 6 0 17 5 25 10 8 5 11 10 5 10 -5
0 -17 -5 -25 -10z"/>
<path d="M1160 1456 c0 -2 7 -6 15 -10 8 -3 15 -1 15 4 0 6 -7 10 -15 10 -8 0
-15 -2 -15 -4z"/>
<path d="M736 1424 c-5 -14 -4 -15 9 -4 17 14 19 20 6 20 -5 0 -12 -7 -15 -16z"/>
<path d="M880 1420 c19 -13 30 -13 30 0 0 6 -10 10 -22 10 -19 0 -20 -2 -8
-10z"/>
<path d="M1420 1405 c-7 -8 -16 -12 -21 -9 -5 3 -9 0 -9 -5 0 -6 9 -11 20 -11
11 0 20 6 20 14 0 8 6 17 13 19 7 4 8 6 1 6 -6 1 -17 -6 -24 -14z"/>
<path d="M60 1390 c6 -11 13 -20 16 -20 2 0 0 9 -6 20 -6 11 -13 20 -16 20 -2
0 0 -9 6 -20z"/>
<path d="M380 1402 c0 -13 50 -115 70 -142 9 -12 10 -10 4 10 -9 33 -74 148
-74 132z"/>
<path d="M590 1400 c0 -9 59 -35 64 -29 2 2 -12 11 -30 20 -19 9 -34 13 -34 9z"/>
<path d="M1277 1390 c3 -11 7 -20 9 -20 2 0 4 9 4 20 0 11 -4 20 -9 20 -5 0
-7 -9 -4 -20z"/>
<path d="M76 1337 c3 -10 9 -15 12 -12 3 3 0 11 -7 18 -10 9 -11 8 -5 -6z"/>
<path d="M1341 1303 c-10 -26 -10 -27 4 -9 8 11 15 23 15 28 0 15 -7 8 -19
-19z"/>
<path d="M1635 1313 c-7 -19 9 -38 24 -29 16 10 14 33 -3 39 -8 3 -17 -1 -21
-10z m25 -13 c0 -5 -2 -10 -4 -10 -3 0 -8 5 -11 10 -3 6 -1 10 4 10 6 0 11 -4
11 -10z"/>
<path d="M572 1230 c0 -19 2 -27 5 -17 2 9 2 25 0 35 -3 9 -5 1 -5 -18z"/>
<path d="M10 1246 c0 -3 7 -12 16 -21 14 -14 15 -20 4 -41 -12 -21 -11 -27 1
-40 14 -13 15 -12 11 16 -2 18 0 30 7 30 17 0 13 18 -9 40 -19 19 -30 25 -30
16z"/>
<path d="M695 1240 c28 -12 37 -12 30 0 -3 6 -16 10 -28 9 -21 0 -21 -1 -2 -9z"/>
<path d="M105 1200 c-3 -5 -1 -10 4 -10 6 0 11 5 11 10 0 6 -2 10 -4 10 -3 0
-8 -4 -11 -10z"/>
<path d="M1051 1174 c0 -11 3 -14 6 -6 3 7 2 16 -1 19 -3 4 -6 -2 -5 -13z"/>
<path d="M70 1173 c0 -7 5 -13 10 -13 6 0 10 -7 10 -15 0 -8 9 -20 20 -27 22
-14 27 -38 8 -38 -16 0 -108 -62 -108 -73 0 -4 18 4 40 18 22 14 44 25 50 25
5 0 10 5 10 10 0 6 11 10 25 10 21 0 24 3 16 18 -17 31 -80 97 -81 85z"/>
<path d="M1765 1170 c3 -5 8 -10 11 -10 2 0 4 5 4 10 0 6 -5 10 -11 10 -5 0
-7 -4 -4 -10z"/>
<path d="M568 1148 c5 -5 57 -10 117 -13 61 -3 137 -9 170 -15 33 -5 67 -10
75 -10 37 1 -19 19 -95 30 -90 14 -278 19 -267 8z"/>
<path d="M655 1123 c11 -3 26 -10 33 -15 9 -8 12 -6 12 6 0 12 -9 16 -32 15
-22 -1 -26 -3 -13 -6z"/>
<path d="M0 1110 c0 -5 5 -10 10 -10 6 0 10 5 10 10 0 6 -4 10 -10 10 -5 0
-10 -4 -10 -10z"/>
<path d="M2880 1116 c0 -9 52 -55 63 -56 4 0 7 5 7 11 0 5 -4 8 -9 4 -6 -3
-13 0 -18 7 -11 17 -43 42 -43 34z"/>
<path d="M426 1103 c-6 -7 66 -102 79 -103 6 0 21 -12 34 -25 13 -14 27 -25
32 -25 5 0 -21 29 -56 65 -59 59 -85 97 -52 79 6 -4 8 -3 4 1 -9 11 -34 15
-41 8z"/>
<path d="M1856 1050 c-24 -27 -36 -50 -36 -69 0 -24 -7 -33 -42 -50 -54 -27
-190 -49 -196 -33 -6 19 -22 14 -16 -5 3 -10 -8 -2 -26 17 -23 26 -29 41 -25
58 4 15 2 21 -5 17 -19 -12 -10 -54 18 -84 l27 -30 94 10 c114 13 181 5 188
-22 10 -39 20 -18 11 24 -21 93 -20 100 9 145 15 23 32 42 36 42 5 0 5 -6 -1
-13 -6 -7 -14 -32 -18 -55 -6 -38 -3 -45 37 -94 24 -29 44 -55 46 -57 2 -2 6
-1 9 2 4 4 1 13 -6 22 -10 12 -9 18 10 33 22 18 46 102 29 102 -5 0 -9 -6 -10
-12 -2 -33 -11 -64 -21 -73 -8 -7 -9 -5 -5 8 5 14 0 17 -36 17 -31 0 -38 3
-27 10 10 6 11 10 3 10 -18 0 -16 52 2 76 8 10 15 25 15 32 0 24 -28 11 -64
-28z m90 -121 c3 -6 2 -15 -4 -21 -7 -7 -14 -3 -21 11 -10 17 -9 21 3 21 8 0
18 -5 22 -11z m-116 -20 c0 -15 -4 -19 -16 -15 -9 3 -25 6 -37 6 -21 1 -21 1
3 15 35 20 50 18 50 -6z"/>
<path d="M2615 1070 c-27 -30 -12 -34 15 -5 13 14 19 25 13 25 -5 0 -18 -9
-28 -20z"/>
<path d="M1955 1070 c3 -5 8 -10 11 -10 2 0 4 5 4 10 0 6 -5 10 -11 10 -5 0
-7 -4 -4 -10z"/>
<path d="M1680 1066 c0 -4 7 -14 15 -22 8 -9 15 -11 15 -6 0 5 -7 15 -15 22
-8 7 -15 9 -15 6z"/>
<path d="M2460 1049 c-36 -4 -81 -10 -100 -13 -19 -3 -53 -5 -75 -6 -26 0 -36
-3 -29 -10 7 -7 36 -6 90 1 43 6 107 14 142 19 35 4 66 11 69 14 7 7 -11 6
-97 -5z"/>
<path d="M2960 1051 c0 -5 7 -12 16 -15 14 -5 15 -4 4 9 -14 17 -20 19 -20 6z"/>
<path d="M1980 1030 c0 -5 5 -10 10 -10 6 0 10 5 10 10 0 6 -4 10 -10 10 -5 0
-10 -4 -10 -10z"/>
<path d="M1930 1000 c0 -5 5 -10 11 -10 5 0 7 5 4 10 -3 6 -8 10 -11 10 -2 0
-4 -4 -4 -10z"/>
<path d="M85 990 c-3 -5 -2 -10 4 -10 5 0 13 5 16 10 3 6 2 10 -4 10 -5 0 -13
-4 -16 -10z"/>
<path d="M873 955 c-14 -29 -15 -37 -3 -48 10 -10 11 -9 5 1 -9 16 14 64 26
56 5 -3 6 2 3 10 -9 23 -12 20 -31 -19z"/>
<path d="M1710 979 c0 -5 5 -7 10 -4 6 3 10 8 10 11 0 2 -4 4 -10 4 -5 0 -10
-5 -10 -11z"/>
<path d="M1785 980 c-3 -5 1 -10 10 -10 9 0 13 5 10 10 -3 6 -8 10 -10 10 -2
0 -7 -4 -10 -10z"/>
<path d="M7 949 c4 -13 8 -18 11 -10 2 7 -1 18 -6 23 -8 8 -9 4 -5 -13z"/>
<path d="M1690 940 c0 -5 5 -10 10 -10 6 0 10 5 10 10 0 6 -4 10 -10 10 -5 0
-10 -4 -10 -10z"/>
<path d="M2426 893 c-37 -41 -39 -57 -5 -30 18 14 54 66 48 70 -2 2 -21 -16
-43 -40z"/>
<path d="M2211 914 c0 -11 3 -14 6 -6 3 7 2 16 -1 19 -3 4 -6 -2 -5 -13z"/>
<path d="M2065 910 c-3 -6 1 -7 9 -4 18 7 21 14 7 14 -6 0 -13 -4 -16 -10z"/>
<path d="M2156 904 c-5 -14 -4 -15 9 -4 17 14 19 20 6 20 -5 0 -12 -7 -15 -16z"/>
<path d="M2396 903 c-6 -14 -5 -15 5 -6 7 7 10 15 7 18 -3 3 -9 -2 -12 -12z"/>
<path d="M687 889 c7 -7 15 -10 18 -7 3 3 -2 9 -12 12 -14 6 -15 5 -6 -5z"/>
<path d="M1295 890 c-3 -5 -1 -10 4 -10 6 0 11 5 11 10 0 6 -2 10 -4 10 -3 0
-8 -4 -11 -10z"/>
<path d="M431 885 c-1 -5 10 -43 24 -83 14 -43 23 -85 20 -105 -4 -24 -3 -26
3 -8 6 20 9 21 19 9 7 -8 19 -30 27 -48 13 -32 12 -37 -6 -63 -21 -29 -112
-77 -147 -77 -11 0 -22 -4 -25 -8 -7 -11 32 -7 83 9 25 7 63 30 85 51 33 32
41 36 48 23 5 -8 15 -15 23 -15 9 0 3 12 -16 32 -16 18 -29 37 -29 43 0 5 -10
26 -22 45 -12 19 -37 73 -55 120 -17 47 -32 81 -32 75z"/>
<path d="M2232 870 c0 -14 2 -19 5 -12 2 6 2 18 0 25 -3 6 -5 1 -5 -13z"/>
<path d="M2477 853 c-4 -3 -7 -11 -7 -17 0 -6 5 -5 12 2 6 6 9 14 7 17 -3 3
-9 2 -12 -2z"/>
<path d="M1690 834 c0 -8 5 -12 10 -9 6 3 10 10 10 16 0 5 -4 9 -10 9 -5 0
-10 -7 -10 -16z"/>
<path d="M626 825 c4 -8 11 -15 16 -15 6 0 5 6 -2 15 -7 8 -14 15 -16 15 -2 0
-1 -7 2 -15z"/>
<path d="M1050 809 c0 -16 4 -28 9 -25 8 5 3 56 -5 56 -2 0 -4 -14 -4 -31z"/>
<path d="M1925 830 c-3 -5 -1 -10 4 -10 6 0 11 5 11 10 0 6 -2 10 -4 10 -3 0
-8 -4 -11 -10z"/>
<path d="M105 800 c3 -5 8 -10 11 -10 2 0 4 5 4 10 0 6 -5 10 -11 10 -5 0 -7
-4 -4 -10z"/>
<path d="M53 778 c-2 -16 1 -18 10 -9 7 7 8 14 1 21 -6 6 -10 2 -11 -12z"/>
<path d="M2235 790 c-3 -5 -1 -10 4 -10 6 0 11 5 11 10 0 6 -2 10 -4 10 -3 0
-8 -4 -11 -10z"/>
<path d="M250 769 c0 -11 4 -18 10 -14 5 3 7 12 3 20 -7 21 -13 19 -13 -6z"/>
<path d="M2456 764 c-4 -9 -4 -19 -1 -22 2 -3 7 3 11 12 4 9 4 19 1 22 -2 3
-7 -3 -11 -12z"/>
<path d="M2515 770 c-16 -7 -17 -9 -3 -9 9 -1 20 4 23 9 7 11 7 11 -20 0z"/>
<path d="M201 754 c0 -11 3 -14 6 -6 3 7 2 16 -1 19 -3 4 -6 -2 -5 -13z"/>
<path d="M1727 763 c-10 -9 -9 -33 1 -33 4 0 8 9 8 20 0 23 0 22 -9 13z"/>
<path d="M2265 750 c-3 -5 -2 -10 4 -10 5 0 13 5 16 10 3 6 2 10 -4 10 -5 0
-13 -4 -16 -10z"/>
<path d="M20 743 c0 -6 8 -17 18 -24 16 -13 16 -13 2 6 -8 11 -16 22 -17 24
-2 2 -3 0 -3 -6z"/>
<path d="M215 702 c-16 -9 -35 -21 -41 -27 -38 -32 -52 -42 -82 -54 -32 -14
-35 -13 -58 14 -13 15 -24 23 -24 16 0 -6 11 -24 25 -38 23 -25 26 -26 52 -12
15 8 46 27 68 42 22 16 55 37 73 49 50 31 40 41 -13 10z"/>
<path d="M2165 701 c-3 -5 -1 -12 5 -16 5 -3 10 1 10 9 0 18 -6 21 -15 7z"/>
<path d="M2463 695 c-3 -9 -3 -18 -1 -21 3 -3 8 4 11 16 6 23 -1 27 -10 5z"/>
<path d="M265 690 c3 -5 8 -10 11 -10 2 0 4 5 4 10 0 6 -5 10 -11 10 -5 0 -7
-4 -4 -10z"/>
<path d="M2160 660 c0 -5 5 -10 11 -10 5 0 7 5 4 10 -3 6 -8 10 -11 10 -2 0
-4 -4 -4 -10z"/>
<path d="M1725 650 c-3 -5 -1 -10 4 -10 6 0 11 5 11 10 0 6 -2 10 -4 10 -3 0
-8 -4 -11 -10z"/>
<path d="M2460 637 c0 -13 -5 -28 -11 -34 -13 -13 -5 -43 10 -43 5 0 9 8 9 18
-1 9 2 32 6 50 5 21 4 32 -3 32 -6 0 -11 -10 -11 -23z"/>
<path d="M485 640 c-3 -5 -1 -10 4 -10 6 0 11 5 11 10 0 6 -2 10 -4 10 -3 0
-8 -4 -11 -10z"/>
<path d="M302 598 c11 -22 22 -37 26 -34 3 4 0 12 -6 18 -7 7 -12 20 -12 29 0
9 -6 19 -14 22 -10 4 -8 -5 6 -35z"/>
<path d="M1850 606 c0 -8 4 -17 9 -20 5 -4 7 3 4 14 -6 23 -13 26 -13 6z"/>
<path d="M2246 563 c-6 -14 -5 -15 5 -6 7 7 10 15 7 18 -3 3 -9 -2 -12 -12z"/>
<path d="M600 556 c0 -4 13 -25 28 -45 16 -20 36 -52 45 -71 9 -19 17 -29 17
-22 0 28 -89 165 -90 138z"/>
<path d="M2020 540 c-9 -6 -10 -10 -3 -10 6 0 15 5 18 10 8 12 4 12 -15 0z"/>
<path d="M240 530 c0 -5 5 -10 10 -10 6 0 10 5 10 10 0 6 -4 10 -10 10 -5 0
-10 -4 -10 -10z"/>
<path d="M1275 530 c4 -6 11 -8 16 -5 14 9 11 15 -7 15 -8 0 -12 -5 -9 -10z"/>
<path d="M2225 520 c-3 -5 -1 -10 4 -10 6 0 11 5 11 10 0 6 -2 10 -4 10 -3 0
-8 -4 -11 -10z"/>
<path d="M2265 520 c-3 -5 -1 -10 4 -10 6 0 11 5 11 10 0 6 -2 10 -4 10 -3 0
-8 -4 -11 -10z"/>
<path d="M85 510 c-3 -5 5 -21 18 -34 13 -13 34 -40 46 -60 20 -31 41 -47 41
-31 0 15 -100 133 -105 125z"/>
<path d="M1960 504 c0 -10 5 -26 10 -34 8 -11 9 -7 4 15 -8 37 -14 45 -14 19z"/>
<path d="M30 489 c0 -5 5 -7 10 -4 6 3 10 8 10 11 0 2 -4 4 -10 4 -5 0 -10 -5
-10 -11z"/>
<path d="M325 465 c4 -16 11 -34 16 -39 15 -16 10 16 -7 44 l-15 25 6 -30z"/>
<path d="M1786 443 c-6 -14 -5 -15 5 -6 7 7 10 15 7 18 -3 3 -9 -2 -12 -12z"/>
<path d="M2171 434 c0 -11 3 -14 6 -6 3 7 2 16 -1 19 -3 4 -6 -2 -5 -13z"/>
<path d="M2270 446 c0 -2 7 -7 16 -10 8 -3 12 -2 9 4 -6 10 -25 14 -25 6z"/>
<path d="M1881 424 c0 -11 3 -14 6 -6 3 7 2 16 -1 19 -3 4 -6 -2 -5 -13z"/>
<path d="M1180 420 c0 -5 5 -10 11 -10 5 0 7 5 4 10 -3 6 -8 10 -11 10 -2 0
-4 -4 -4 -10z"/>
<path d="M2210 413 c0 -11 7 -27 17 -34 15 -13 15 -12 3 11 -7 14 -12 27 -11
28 2 2 0 6 -3 10 -3 3 -6 -4 -6 -15z"/>
<path d="M2331 414 c0 -11 3 -14 6 -6 3 7 2 16 -1 19 -3 4 -6 -2 -5 -13z"/>
<path d="M2385 410 c-8 -13 5 -13 25 0 13 8 13 10 -2 10 -9 0 -20 -4 -23 -10z"/>
<path d="M275 390 c-3 -5 -2 -10 4 -10 5 0 13 5 16 10 3 6 2 10 -4 10 -5 0
-13 -4 -16 -10z"/>
<path d="M343 393 c-17 -6 -17 -23 0 -23 8 0 14 7 14 15 0 8 -1 15 -1 14 -1 0
-7 -3 -13 -6z"/>
<path d="M2420 380 c0 -5 5 -10 10 -10 6 0 10 5 10 10 0 6 -4 10 -10 10 -5 0
-10 -4 -10 -10z"/>
<path d="M2460 374 c0 -8 5 -12 10 -9 6 4 8 11 5 16 -9 14 -15 11 -15 -7z"/>
<path d="M85 370 c-3 -5 -1 -10 4 -10 6 0 11 5 11 10 0 6 -2 10 -4 10 -3 0 -8
-4 -11 -10z"/>
<path d="M190 362 c0 -5 9 -17 20 -27 11 -10 20 -22 20 -27 0 -9 36 -62 58
-86 6 -7 12 -18 12 -23 0 -5 5 -9 10 -9 15 0 12 16 -5 34 -8 8 -15 19 -15 24
0 5 -18 28 -40 52 -22 24 -40 49 -40 57 0 7 -4 13 -10 13 -5 0 -10 -4 -10 -8z"/>
<path d="M364 330 c3 -19 10 -38 15 -43 6 -6 6 6 1 28 -11 47 -25 61 -16 15z"/>
<path d="M2465 340 c3 -5 8 -10 11 -10 2 0 4 5 4 10 0 6 -5 10 -11 10 -5 0 -7
-4 -4 -10z"/>
<path d="M1655 330 c3 -5 8 -10 11 -10 2 0 4 5 4 10 0 6 -5 10 -11 10 -5 0 -7
-4 -4 -10z"/>
<path d="M2375 330 c3 -5 8 -10 11 -10 2 0 4 5 4 10 0 6 -5 10 -11 10 -5 0 -7
-4 -4 -10z"/>
<path d="M2140 320 c0 -5 5 -10 11 -10 5 0 7 5 4 10 -3 6 -8 10 -11 10 -2 0
-4 -4 -4 -10z"/>
<path d="M2520 315 c-7 -9 -11 -17 -8 -20 2 -2 12 4 21 15 9 11 13 20 8 20 -5
0 -14 -7 -21 -15z"/>
<path d="M310 294 c0 -8 5 -12 10 -9 6 3 10 10 10 16 0 5 -4 9 -10 9 -5 0 -10
-7 -10 -16z"/>
<path d="M1200 300 c0 -5 5 -10 11 -10 5 0 7 5 4 10 -3 6 -8 10 -11 10 -2 0
-4 -4 -4 -10z"/>
<path d="M2440 300 c0 -5 5 -10 10 -10 6 0 10 5 10 10 0 6 -4 10 -10 10 -5 0
-10 -4 -10 -10z"/>
<path d="M1165 290 c3 -5 8 -10 11 -10 2 0 4 5 4 10 0 6 -5 10 -11 10 -5 0 -7
-4 -4 -10z"/>
<path d="M2161 284 c0 -11 3 -14 6 -6 3 7 2 16 -1 19 -3 4 -6 -2 -5 -13z"/>
<path d="M2200 291 c0 -5 7 -12 16 -15 14 -5 15 -4 4 9 -14 17 -20 19 -20 6z"/>
<path d="M2355 290 c-3 -5 -2 -10 4 -10 5 0 13 5 16 10 3 6 2 10 -4 10 -5 0
-13 -4 -16 -10z"/>
<path d="M552 261 c10 -16 15 -17 26 -8 12 9 11 12 -5 18 -30 12 -34 10 -21
-10z"/>
<path d="M380 254 c0 -21 18 -54 30 -54 14 0 12 16 -3 32 -8 7 -12 19 -9 26 2
6 -1 12 -7 12 -6 0 -11 -7 -11 -16z"/>
<path d="M1055 260 c-3 -6 1 -7 9 -4 18 7 21 14 7 14 -6 0 -13 -4 -16 -10z"/>
<path d="M592 235 c-8 -17 -8 -33 -1 -55 6 -17 8 -38 5 -47 -5 -13 -4 -14 9
-3 8 7 22 9 31 6 13 -5 15 -15 11 -47 -4 -30 -2 -38 6 -30 6 6 11 26 11 46 1
21 6 35 14 35 6 0 12 7 12 15 0 11 -6 12 -22 6 -31 -11 -68 14 -68 45 0 30 10
30 39 3 12 -12 25 -19 28 -16 8 8 -4 24 -36 46 l-28 20 -11 -24z"/>
<path d="M1710 250 c0 -5 5 -10 10 -10 6 0 10 5 10 10 0 6 -4 10 -10 10 -5 0
-10 -4 -10 -10z"/>
<path d="M2505 250 c3 -5 8 -10 11 -10 2 0 4 5 4 10 0 6 -5 10 -11 10 -5 0 -7
-4 -4 -10z"/>
<path d="M2561 224 c0 -11 3 -14 6 -6 3 7 2 16 -1 19 -3 4 -6 -2 -5 -13z"/>
<path d="M2647 226 c-4 -10 -1 -13 9 -9 7 3 14 9 14 14 0 14 -17 10 -23 -5z"/>
<path d="M860 224 c0 -3 4 -13 10 -23 7 -14 3 -25 -20 -47 -16 -16 -30 -35
-30 -41 0 -7 -12 -16 -27 -19 -16 -4 -36 -13 -46 -19 -16 -11 -16 -13 -2 -19
29 -11 98 49 147 129 4 6 -2 19 -13 28 -10 9 -19 14 -19 11z"/>
<path d="M340 214 c0 -17 18 -36 30 -32 7 2 4 10 -9 22 -12 11 -21 15 -21 10z"/>
<path d="M2602 210 c0 -8 4 -26 8 -40 6 -20 8 -21 8 -5 0 11 -3 29 -8 40 -5
12 -8 14 -8 5z"/>
<path d="M425 190 c-4 -12 -5 -24 -2 -27 3 -2 8 5 12 17 4 12 5 24 2 27 -3 2
-8 -5 -12 -17z"/>
<path d="M1955 200 c-16 -7 -17 -9 -3 -9 9 -1 20 4 23 9 7 11 7 11 -20 0z"/>
<path d="M2689 208 c-5 -16 -3 -61 3 -64 4 -3 8 11 8 30 0 20 -2 36 -5 36 -3
0 -5 -1 -6 -2z"/>
<path d="M567 193 c-4 -3 -7 -11 -7 -17 0 -6 5 -5 12 2 6 6 9 14 7 17 -3 3 -9
2 -12 -2z"/>
<path d="M115 180 c-3 -6 1 -7 9 -4 18 7 21 14 7 14 -6 0 -13 -4 -16 -10z"/>
<path d="M774 165 c-16 -13 -35 -24 -41 -25 -18 0 -16 -15 4 -31 9 -8 14 -9
10 -2 -4 6 7 23 25 38 30 25 33 26 39 9 7 -17 8 -17 8 3 1 32 -12 35 -45 8z"/>
<path d="M1620 175 c7 -9 15 -13 17 -11 7 7 -7 26 -19 26 -6 0 -6 -6 2 -15z"/>
<path d="M330 170 c0 -5 5 -10 11 -10 5 0 7 5 4 10 -3 6 -8 10 -11 10 -2 0 -4
-4 -4 -10z"/>
<path d="M2752 136 c-17 -37 -15 -45 4 -18 8 12 14 27 12 33 -2 6 -9 -1 -16
-15z"/>
<path d="M63 143 c-7 -2 -13 -9 -13 -14 0 -6 6 -7 13 -2 6 4 18 8 25 9 8 2 16
5 20 8 6 7 -28 6 -45 -1z"/>
<path d="M431 131 c10 -15 45 -33 94 -49 6 -2 -1 6 -14 17 -13 12 -32 21 -42
21 -11 0 -22 7 -25 15 -4 8 -10 15 -15 15 -5 0 -4 -8 2 -19z"/>
<path d="M213 133 c9 -2 23 -2 30 0 6 3 -1 5 -18 5 -16 0 -22 -2 -12 -5z"/>
<path d="M350 133 c0 -3 67 -101 76 -112 2 -2 7 -2 10 2 3 3 -9 27 -27 54 -19
26 -33 51 -32 54 1 3 -5 6 -13 6 -7 0 -14 -2 -14 -4z"/>
<path d="M1526 116 c3 -8 19 -19 35 -25 37 -13 29 3 -11 24 -25 13 -29 13 -24
1z"/>
<path d="M2786 105 c-11 -8 -16 -15 -10 -15 5 0 18 7 28 15 11 8 16 15 10 15
-5 0 -18 -7 -28 -15z"/>
<path d="M2655 90 c3 -5 8 -10 11 -10 2 0 4 5 4 10 0 6 -5 10 -11 10 -5 0 -7
-4 -4 -10z"/>
<path d="M886 80 c-17 -6 -18 -7 -3 -13 9 -3 19 -2 23 4 9 15 2 18 -20 9z"/>
<path d="M140 60 c0 -5 5 -10 10 -10 6 0 10 5 10 10 0 6 -4 10 -10 10 -5 0
-10 -4 -10 -10z"/>
<path d="M279 54 c-12 -14 -11 -16 5 -13 11 2 21 10 24 17 5 17 -13 15 -29 -4z"/>
<path d="M500 47 c-14 -13 -34 -28 -45 -35 -13 -8 -15 -11 -6 -12 18 0 91 49
91 61 0 15 -14 10 -40 -14z"/>
<path d="M2826 53 c-6 -14 -5 -15 5 -6 7 7 10 15 7 18 -3 3 -9 -2 -12 -12z"/>
<path d="M565 50 c3 -5 15 -15 25 -20 16 -8 18 -8 14 5 -3 8 -10 12 -15 9 -5
-3 -9 0 -9 5 0 6 -5 11 -11 11 -5 0 -7 -4 -4 -10z"/>
<path d="M683 44 c-17 -13 -16 -14 12 -8 37 8 39 10 21 17 -8 3 -22 -1 -33 -9z"/>
<path d="M1325 50 c3 -5 8 -10 11 -10 2 0 4 5 4 10 0 6 -5 10 -11 10 -5 0 -7
-4 -4 -10z"/>
<path d="M630 20 c0 -5 4 -10 9 -10 6 0 13 5 16 10 3 6 -1 10 -9 10 -9 0 -16
-4 -16 -10z"/>
</g>
</svg>
