<?xml version="1.0" standalone="no"?>
<!DOCTYPE svg PUBLIC "-//W3C//DTD SVG 20010904//EN"
 "http://www.w3.org/TR/2001/REC-SVG-20010904/DTD/svg10.dtd">
<svg version="1.0" xmlns="http://www.w3.org/2000/svg"
 width="300.000000pt" height="427.000000pt" viewBox="0 0 300.000000 427.000000"
 preserveAspectRatio="xMidYMid meet">
<metadata>
Created by potrace 1.10, written by Peter Selinger 2001-2011
</metadata>
<g transform="translate(0.000000,427.000000) scale(0.100000,-0.100000)"
fill="#000000" stroke="none">
<path d="M135 4160 c3 -5 8 -10 11 -10 2 0 4 5 4 10 0 6 -5 10 -11 10 -5 0 -7
-4 -4 -10z"/>
<path d="M920 4090 c-42 -18 -90 -30 -137 -33 -39 -3 -96 -14 -127 -24 -54
-18 -55 -19 -71 -75 -9 -34 -15 -88 -14 -136 2 -67 -1 -84 -20 -110 -46 -65
-155 -140 -186 -128 -16 6 -54 104 -62 162 l-6 44 43 0 c47 0 140 44 140 67 0
20 -18 16 -30 -8 -14 -25 -68 -49 -112 -49 l-32 0 59 60 c32 33 55 63 51 67
-4 4 -14 -1 -22 -12 -24 -33 -86 -95 -95 -95 -28 0 12 123 46 143 9 4 13 12
10 18 -9 14 -22 11 -29 -8 -4 -10 -16 -34 -26 -53 -11 -19 -20 -50 -20 -68 0
-61 22 -177 41 -214 20 -39 19 -74 -1 -123 -8 -19 -13 -73 -12 -145 1 -63 -1
-128 -5 -144 -5 -30 -6 -30 -23 15 -23 62 -31 107 -20 114 4 3 1 20 -8 38 -11
22 -17 62 -18 127 -2 58 -7 96 -13 98 -11 4 -10 -36 7 -168 3 -30 7 -62 8 -70
3 -43 18 -107 35 -144 20 -44 25 -131 9 -141 -16 -10 -11 -27 7 -23 14 2 16
14 14 66 -2 60 -1 63 18 57 11 -3 38 -1 60 6 47 14 135 78 139 102 5 26 -17
20 -28 -8 -13 -33 -85 -77 -138 -83 -43 -5 -44 -4 -37 19 4 13 9 46 10 72 1
27 7 52 12 56 5 3 29 38 54 78 38 62 51 75 93 93 50 21 146 88 146 102 0 4 -7
8 -15 8 -8 0 -15 -6 -15 -14 0 -26 -138 -104 -160 -91 -6 4 -14 -4 -19 -17
-11 -29 -78 -139 -92 -153 -9 -7 -10 12 -5 72 4 45 9 89 12 98 3 8 39 30 79
50 52 25 85 49 112 81 21 26 51 58 66 73 15 14 58 55 95 90 70 68 98 80 190
81 23 0 42 5 42 11 0 7 -11 8 -29 4 -16 -3 -59 -7 -95 -8 -53 -2 -66 -5 -66
-18 0 -17 -112 -129 -129 -129 -27 0 -27 140 0 194 23 48 57 65 152 78 79 10
93 9 125 -7 44 -21 152 -33 152 -17 0 16 -21 26 -29 14 -6 -10 -107 1 -120 13
-9 10 26 32 75 46 24 7 44 17 44 21 0 11 -7 9 -80 -22z"/>
<path d="M1766 3867 c-12 -108 -15 -257 -6 -262 6 -4 10 -12 10 -18 0 -8 -4
-7 -9 2 -6 9 -10 -8 -13 -52 -1 -37 -2 -67 -1 -67 1 0 9 7 18 16 12 13 19 14
30 4 19 -16 20 -3 1 15 -7 8 -16 11 -20 8 -3 -4 -6 -1 -6 5 0 7 5 12 10 12 7
0 7 6 0 20 -6 11 -7 20 -3 20 4 0 6 22 5 49 -4 48 -3 48 22 44 16 -3 26 -1 26
7 0 7 -8 9 -19 5 -11 -3 -23 0 -27 6 -10 16 -11 69 -2 69 4 0 5 6 2 14 -4 11
8 14 56 15 56 0 61 -1 70 -24 11 -29 20 -34 14 -7 -4 15 3 18 50 19 34 1 56
-3 56 -9 0 -6 6 -5 16 3 13 10 17 10 24 -1 6 -9 4 -17 -3 -22 -8 -5 -6 -8 6
-8 13 0 17 5 13 18 -5 16 0 19 39 19 25 0 45 -3 45 -7 0 -4 7 -10 14 -13 11
-4 13 -1 9 10 -5 12 -1 14 15 9 11 -4 23 -2 27 4 4 6 -8 10 -33 10 -23 0 -45
6 -52 15 -7 8 -18 15 -24 14 -7 0 -6 -2 2 -6 6 -2 12 -9 12 -15 0 -7 -18 -8
-50 -4 -34 5 -50 3 -50 -4 0 -6 -4 -8 -10 -5 -5 3 -37 7 -70 9 -33 1 -63 5
-66 9 -4 3 -19 3 -35 0 -39 -8 -65 3 -50 21 9 11 7 15 -9 19 -17 4 -19 1 -14
-19 4 -15 2 -24 -5 -24 -12 0 -14 27 -5 81 6 34 9 37 39 36 24 -1 36 -7 43
-23 10 -21 54 -36 79 -27 19 8 4 25 -16 18 -25 -8 -51 4 -44 21 4 10 36 14
136 17 107 2 96 3 -55 4 l-187 1 -5 -51z"/>
<path d="M2165 3910 c3 -5 18 -7 32 -4 23 6 24 5 14 -14 -8 -15 -8 -23 1 -28
6 -4 8 -3 5 3 -4 6 3 19 15 29 12 11 19 14 15 8 -5 -8 12 -12 54 -13 34 -1 65
-3 69 -6 5 -3 12 0 16 6 5 8 3 9 -6 4 -8 -5 -11 -4 -7 3 4 5 16 8 27 5 17 -5
20 -14 20 -65 l0 -60 -42 2 c-105 4 -124 1 -125 -21 -2 -16 1 -18 11 -10 7 6
17 7 21 3 5 -4 5 -1 1 6 -11 19 12 14 24 -5 11 -17 11 -17 6 1 -6 16 -1 18 39
13 25 -2 48 -7 52 -11 4 -4 8 -27 8 -53 2 -37 -2 -47 -17 -51 -10 -2 -18 -12
-17 -21 0 -10 2 -11 6 -3 2 6 12 12 20 12 10 0 13 -6 9 -16 -3 -9 -6 -22 -6
-30 0 -9 -4 -13 -9 -10 -5 3 -11 -1 -14 -9 -4 -9 -1 -12 7 -9 9 4 13 -16 15
-81 1 -63 -2 -85 -11 -85 -10 0 -9 -3 1 -9 11 -7 13 -28 8 -101 -4 -51 -12
-99 -19 -107 -9 -11 -8 -13 3 -11 14 3 15 -5 4 -34 -4 -11 -3 -18 5 -18 6 0 8
-5 5 -10 -8 -14 -35 6 -35 26 0 7 -6 11 -14 8 -8 -3 -28 15 -50 46 -35 49 -36
53 -19 66 10 8 13 13 8 12 -15 -4 -125 105 -125 124 0 15 -84 46 -105 39 -5
-2 -15 -4 -22 -4 -7 0 -10 -3 -8 -7 3 -4 -3 -14 -13 -23 -14 -13 -20 -13 -35
-2 -18 13 -18 13 0 18 17 4 17 5 0 6 -11 1 -15 6 -11 13 5 8 2 9 -9 5 -10 -3
-17 -2 -17 2 0 5 6 12 13 14 7 3 5 6 -5 6 -10 1 -18 5 -18 11 0 5 6 7 13 4 10
-3 12 5 9 31 -2 19 -8 35 -13 35 -6 0 -5 8 1 19 5 11 10 49 10 85 0 36 4 66 9
66 6 0 7 -39 4 -93 -6 -96 1 -129 30 -133 10 -1 13 4 10 17 -3 10 -10 19 -16
19 -6 0 -7 3 -4 6 3 4 2 14 -3 23 -5 10 -5 23 1 32 7 12 9 11 9 -3 0 -18 37
-44 47 -34 4 3 6 21 5 40 -2 42 19 72 43 63 13 -5 15 -14 11 -32 -4 -17 -1
-34 10 -48 16 -22 16 -22 12 11 -4 31 4 42 17 22 3 -5 8 -40 11 -77 6 -61 5
-66 -10 -54 -14 12 -16 12 -10 -3 3 -9 10 -16 16 -16 5 0 7 -4 3 -9 -3 -5 -1
-12 5 -16 10 -6 14 35 10 125 -1 33 -8 51 -26 68 -13 13 -24 30 -24 39 0 11
-6 14 -21 10 -14 -4 -29 2 -46 19 -25 25 -46 26 -25 2 14 -18 19 -121 5 -125
-12 -4 -25 53 -24 111 1 22 -2 36 -6 33 -3 -4 -12 -2 -19 4 -19 16 -34 2 -34
-33 0 -22 -4 -29 -15 -25 -8 4 -17 2 -20 -4 -4 -5 -1 -8 6 -7 14 3 28 -38 21
-65 -3 -10 -10 -16 -17 -13 -15 5 -35 -13 -35 -32 0 -8 -8 -21 -17 -28 -14
-11 -14 -13 -2 -9 20 7 41 -37 34 -73 l-5 -27 10 25 c9 18 8 35 -1 62 -9 28
-9 44 -1 60 10 21 11 21 11 -12 1 -35 21 -103 34 -116 17 -17 5 -25 -13 -9
-24 22 -27 9 -4 -16 15 -17 14 -19 -19 -32 -19 -8 -37 -24 -40 -36 -3 -12 -2
-19 2 -16 8 5 71 -61 71 -75 0 -7 24 -20 38 -20 3 0 -4 9 -16 20 -12 12 -22
23 -22 27 0 9 42 43 53 43 6 0 8 3 4 6 -3 4 -21 -3 -39 -14 l-34 -21 -13 29
c-14 32 -7 54 15 46 8 -3 14 -1 14 5 0 6 8 8 19 4 12 -4 31 6 57 30 27 25 45
34 59 30 11 -3 32 -8 48 -11 27 -6 39 -33 15 -35 -7 0 -2 -5 11 -10 15 -6 21
-14 17 -25 -3 -8 -2 -12 4 -9 13 8 50 -17 50 -33 0 -7 4 -11 9 -8 5 3 11 0 14
-8 4 -10 -11 -19 -48 -30 -49 -16 -104 -56 -77 -56 7 0 12 5 12 10 0 6 3 9 8
9 18 -3 35 2 29 8 -4 3 9 12 30 19 32 11 38 11 49 -4 11 -14 9 -20 -9 -37 -13
-11 -18 -17 -13 -12 21 15 53 7 66 -18 7 -14 17 -25 22 -25 12 0 78 -67 78
-79 0 -11 -88 -27 -97 -18 -3 3 4 19 16 36 15 21 18 32 10 37 -7 4 -10 3 -7
-2 3 -5 -7 -24 -22 -43 -28 -33 -30 -33 -107 -34 -43 0 -110 2 -150 4 -71 3
-72 4 -66 28 4 17 2 22 -6 17 -6 -4 -11 -16 -11 -26 0 -22 -23 -31 -68 -25
-37 5 -54 13 -48 23 2 4 -9 7 -25 8 -15 1 -26 -3 -23 -7 3 -5 12 -9 20 -9 8 0
14 -4 14 -8 0 -10 -42 -8 -59 2 -7 5 -18 3 -24 -3 -7 -7 -6 -12 6 -17 19 -7
653 -1 660 6 3 3 6 203 8 445 l4 440 -133 3 c-90 2 -131 -1 -127 -8z m-175
-530 c0 -5 -7 -10 -15 -10 -8 0 -15 5 -15 10 0 6 7 10 15 10 8 0 15 -4 15 -10z"/>
<path d="M2050 3887 c-25 -5 -55 -9 -67 -9 -30 0 -29 -10 2 -25 20 -9 25 -8
25 2 0 15 54 30 70 20 5 -3 10 -1 10 6 0 8 4 8 13 2 6 -5 23 -6 37 -2 14 4 18
8 10 9 -46 6 -59 5 -100 -3z"/>
<path d="M2400 3871 c0 -10 -20 -12 -87 -6 -49 4 -85 3 -81 -1 8 -8 30 -11
110 -17 33 -3 52 0 59 10 7 7 9 16 5 20 -3 3 -6 1 -6 -6z"/>
<path d="M1804 3746 c-10 -8 -16 -18 -11 -22 4 -4 7 -1 7 6 0 9 5 7 15 -6 9
-12 14 -14 15 -6 0 8 5 10 13 6 7 -5 7 -1 -3 12 -8 10 -15 20 -15 21 -1 2 -10
-4 -21 -11z"/>
<path d="M2352 3751 c-11 -6 -9 -9 6 -13 15 -4 19 -2 15 8 -6 16 -4 16 -21 5z"/>
<path d="M2387 3749 c7 -7 15 -10 18 -7 3 3 -2 9 -12 12 -14 6 -15 5 -6 -5z"/>
<path d="M1948 3738 c5 -5 16 -8 23 -6 8 3 3 7 -10 11 -17 4 -21 3 -13 -5z"/>
<path d="M1867 3710 c-20 -24 -11 -27 15 -3 17 15 18 15 18 -11 0 -19 -4 -25
-12 -20 -10 5 -10 3 0 -7 11 -12 14 -12 21 0 10 15 0 53 -15 58 -5 2 -17 -6
-27 -17z"/>
<path d="M2335 3721 c-3 -5 -2 -12 3 -15 5 -3 9 1 9 9 0 17 -3 19 -12 6z"/>
<path d="M1582 3681 c-25 -45 -28 -61 -8 -61 14 0 29 24 30 49 1 21 22 25 30
6 3 -9 2 -13 -4 -10 -6 3 -10 -5 -10 -18 0 -28 7 -37 24 -31 12 5 12 23 0 82
-7 35 -38 27 -62 -17z"/>
<path d="M2126 3703 c-6 -14 -5 -15 5 -6 7 7 10 15 7 18 -3 3 -9 -2 -12 -12z"/>
<path d="M2200 3710 c0 -5 5 -10 11 -10 5 0 7 5 4 10 -3 6 -8 10 -11 10 -2 0
-4 -4 -4 -10z"/>
<path d="M1476 3670 c-19 -43 -15 -60 13 -60 25 0 33 11 19 27 -8 10 -8 20 1
39 14 32 14 34 -2 34 -7 0 -21 -18 -31 -40z"/>
<path d="M2168 3705 c-6 -7 14 -55 23 -55 3 0 5 9 4 20 -1 22 -18 44 -27 35z"/>
<path d="M2310 3685 c0 -9 6 -12 15 -9 8 4 15 7 15 9 0 2 -7 5 -15 9 -9 3 -15
0 -15 -9z"/>
<path d="M2231 3673 c7 -12 15 -20 18 -17 3 2 -3 12 -13 22 -17 16 -18 16 -5
-5z"/>
<path d="M2146 3665 c-3 -8 -1 -15 4 -15 6 0 10 7 10 15 0 8 -2 15 -4 15 -2 0
-6 -7 -10 -15z"/>
<path d="M1856 3655 c4 -8 8 -15 10 -15 2 0 4 7 4 15 0 8 -4 15 -10 15 -5 0
-7 -7 -4 -15z"/>
<path d="M2296 3643 c-6 -14 -5 -15 5 -6 7 7 10 15 7 18 -3 3 -9 -2 -12 -12z"/>
<path d="M2255 3630 c-15 -17 -16 -20 -3 -20 9 0 19 7 22 16 10 25 1 27 -19 4z"/>
<path d="M837 3627 c-9 -25 -109 -70 -154 -70 -24 0 -43 -4 -43 -8 0 -17 -47
-33 -115 -39 l-70 -7 65 -1 c39 -1 76 4 92 12 15 8 52 19 81 26 30 6 75 24
101 40 26 17 51 30 56 30 6 0 10 7 10 15 0 18 -16 20 -23 2z"/>
<path d="M1835 3620 c-3 -5 -2 -10 4 -10 5 0 13 5 16 10 3 6 2 10 -4 10 -5 0
-13 -4 -16 -10z"/>
<path d="M2067 3624 c-8 -9 2 -55 15 -69 6 -6 7 5 2 30 -8 46 -8 47 -17 39z"/>
<path d="M2300 3601 c8 -5 18 -7 24 -4 5 4 7 -3 4 -15 -3 -12 0 -26 7 -32 10
-8 11 -4 6 22 -5 25 -13 34 -31 36 -19 2 -22 1 -10 -7z"/>
<path d="M2355 3600 c-3 -6 1 -7 9 -4 18 7 21 14 7 14 -6 0 -13 -4 -16 -10z"/>
<path d="M1855 3590 c3 -5 8 -10 11 -10 2 0 4 5 4 10 0 6 -5 10 -11 10 -5 0
-7 -4 -4 -10z"/>
<path d="M2230 3577 c0 -9 4 -18 9 -21 5 -4 8 1 7 9 -3 21 -16 31 -16 12z"/>
<path d="M2270 3580 c-13 -8 -12 -10 3 -10 9 0 17 5 17 10 0 12 -1 12 -20 0z"/>
<path d="M1815 3570 c3 -5 8 -10 11 -10 2 0 4 5 4 10 0 6 -5 10 -11 10 -5 0
-7 -4 -4 -10z"/>
<path d="M1832 3540 c-10 -17 -10 -20 3 -20 8 0 15 9 15 20 0 11 -1 20 -3 20
-1 0 -8 -9 -15 -20z"/>
<path d="M2367 3530 c-3 -11 -1 -20 4 -20 5 0 9 9 9 20 0 11 -2 20 -4 20 -2 0
-6 -9 -9 -20z"/>
<path d="M2625 3542 c-48 -2 -65 -6 -55 -12 13 -8 12 -10 -3 -10 -17 0 -18 -8
-15 -72 l3 -73 35 1 c19 0 54 2 78 2 l42 2 0 79 c0 44 -3 81 -7 83 -5 2 -39 2
-78 0z m75 -48 c0 -20 -5 -34 -12 -35 -10 0 -10 -2 0 -6 6 -2 12 -17 12 -32 0
-26 -2 -27 -65 -29 -37 -2 -65 1 -65 6 0 6 15 9 34 8 19 -1 33 1 30 3 -2 2 3
9 10 15 8 6 17 21 20 33 6 18 -1 26 -36 47 l-43 25 58 0 57 -1 0 -34z m-63
-11 c27 -18 21 -37 -18 -53 -41 -18 -54 -9 -52 36 1 22 2 40 2 42 2 6 46 -11
68 -25z"/>
<path d="M2060 3530 c-13 -8 -13 -10 2 -10 9 0 20 5 23 10 8 13 -5 13 -25 0z"/>
<path d="M2120 3510 c0 -5 5 -10 10 -10 6 0 10 5 10 10 0 6 -4 10 -10 10 -5 0
-10 -4 -10 -10z"/>
<path d="M1153 3502 c-13 -8 -39 -100 -30 -108 13 -13 29 10 24 35 -6 31 1 45
25 49 14 2 15 -1 6 -26 -12 -31 -6 -62 13 -62 7 0 10 12 7 30 -3 19 0 31 9 35
8 3 13 15 11 27 -3 24 -41 36 -65 20z"/>
<path d="M1421 3488 c-4 -13 -11 -38 -14 -55 -5 -26 -3 -33 9 -33 11 0 14 6
10 16 -4 9 -2 13 5 8 8 -4 9 1 4 15 -4 12 -2 21 4 21 6 0 11 11 11 25 0 31
-18 33 -29 3z"/>
<path d="M1500 3495 c0 -8 -15 -22 -32 -32 l-33 -18 28 -3 c22 -3 27 -7 22
-23 -4 -13 -2 -19 8 -19 9 0 17 14 21 38 4 20 9 45 12 55 4 11 0 17 -10 17 -9
0 -16 -7 -16 -15z"/>
<path d="M2056 3497 c3 -10 9 -15 12 -12 3 3 0 11 -7 18 -10 9 -11 8 -5 -6z"/>
<path d="M2089 3508 c-9 -35 -5 -58 9 -57 9 0 12 3 6 5 -6 3 -9 16 -6 29 2 14
2 25 -2 25 -3 0 -6 -1 -7 -2z"/>
<path d="M880 3481 c-13 -26 -13 -34 2 -25 7 4 8 3 4 -5 -4 -6 -11 -9 -16 -6
-4 3 -10 0 -12 -6 -2 -7 -10 -4 -18 7 -11 13 -11 16 -2 10 10 -6 13 -3 10 9
-6 34 -27 27 -37 -12 -6 -21 -11 -44 -11 -50 0 -19 20 -16 28 5 4 9 19 18 35
19 24 2 27 -1 22 -18 -4 -13 -2 -19 9 -19 13 0 16 12 16 55 0 56 -11 70 -30
36z"/>
<path d="M989 3453 c-32 -52 -23 -71 15 -29 14 14 19 27 13 29 -6 2 -7 9 -2
17 12 20 25 -19 14 -46 -8 -23 -2 -37 12 -28 5 3 9 27 9 55 0 64 -20 65 -61 2z"/>
<path d="M1293 3488 c-31 -39 -17 -78 27 -78 17 0 30 5 30 10 0 6 -8 10 -18
10 -10 0 -22 3 -25 6 -11 12 13 44 33 44 11 0 20 5 20 10 0 14 -56 12 -67 -2z"/>
<path d="M1589 3453 c-19 -31 -25 -49 -18 -52 16 -5 40 29 32 43 -4 6 1 5 10
-3 9 -7 17 -22 17 -33 0 -32 25 -15 28 20 3 33 -12 72 -29 72 -5 0 -23 -21
-40 -47z m51 23 c0 -3 -4 -8 -10 -11 -5 -3 -10 -1 -10 4 0 6 5 11 10 11 6 0
10 -2 10 -4z"/>
<path d="M2260 3490 c0 -5 5 -10 11 -10 5 0 7 5 4 10 -3 6 -8 10 -11 10 -2 0
-4 -4 -4 -10z"/>
<path d="M2327 3489 c7 -7 15 -10 18 -7 3 3 -2 9 -12 12 -14 6 -15 5 -6 -5z"/>
<path d="M1864 3469 c-3 -6 -2 -15 3 -20 5 -5 9 -1 10 11 2 22 -2 25 -13 9z"/>
<path d="M1750 3455 c-13 -15 -5 -55 11 -55 6 0 3 -7 -6 -16 -15 -15 -15 -18
2 -34 10 -9 25 -15 33 -11 12 4 11 6 -3 9 -14 3 -17 10 -13 25 3 12 1 29 -4
37 -5 8 -5 21 1 31 12 23 -5 34 -21 14z"/>
<path d="M1830 3459 c0 -5 5 -7 10 -4 6 3 10 8 10 11 0 2 -4 4 -10 4 -5 0 -10
-5 -10 -11z"/>
<path d="M2269 3463 c-1 -5 -1 -12 0 -17 1 -5 -4 -13 -11 -17 -10 -7 -9 -9 4
-9 9 0 22 -8 28 -17 11 -17 11 -17 6 0 -3 9 -1 17 4 17 6 0 10 5 10 11 0 8 -5
8 -15 -1 -12 -10 -15 -9 -16 6 -1 11 -1 22 0 27 0 4 -1 7 -4 7 -3 0 -6 -3 -6
-7z"/>
<path d="M2325 3460 c3 -5 8 -10 11 -10 2 0 4 5 4 10 0 6 -5 10 -11 10 -5 0
-7 -4 -4 -10z"/>
<path d="M2365 3460 c-3 -5 -2 -10 4 -10 5 0 13 5 16 10 3 6 2 10 -4 10 -5 0
-13 -4 -16 -10z"/>
<path d="M1150 3449 c0 -5 5 -7 10 -4 6 3 10 8 10 11 0 2 -4 4 -10 4 -5 0 -10
-5 -10 -11z"/>
<path d="M2040 3450 c0 -5 5 -10 11 -10 5 0 7 5 4 10 -3 6 -8 10 -11 10 -2 0
-4 -4 -4 -10z"/>
<path d="M2220 3445 c-7 -9 -8 -15 -2 -15 5 0 12 7 16 15 3 8 4 15 2 15 -2 0
-9 -7 -16 -15z"/>
<path d="M1843 3425 c0 -8 4 -12 9 -9 5 3 6 10 3 15 -9 13 -12 11 -12 -6z"/>
<path d="M1800 3420 c0 -5 5 -10 10 -10 6 0 10 5 10 10 0 6 -4 10 -10 10 -5 0
-10 -4 -10 -10z"/>
<path d="M1875 3400 c-3 -5 -1 -10 4 -10 6 0 11 5 11 10 0 6 -2 10 -4 10 -3 0
-8 -4 -11 -10z"/>
<path d="M2338 3403 c7 -3 16 -2 19 1 4 3 -2 6 -13 5 -11 0 -14 -3 -6 -6z"/>
<path d="M1840 3360 c-6 -11 -9 -20 -8 -20 2 0 11 9 21 20 9 11 13 20 7 20 -5
0 -14 -9 -20 -20z"/>
<path d="M2290 3371 c0 -5 -8 -11 -17 -14 -10 -2 -1 -4 19 -3 21 1 43 7 50 14
9 9 9 12 0 12 -7 0 -12 -5 -12 -10 0 -7 -6 -7 -20 0 -12 6 -20 7 -20 1z"/>
<path d="M2050 3340 c-8 -5 -5 -9 8 -12 11 -3 25 -2 32 2 8 5 5 9 -8 12 -11 3
-25 2 -32 -2z"/>
<path d="M2276 3331 c-4 -7 -5 -15 -2 -18 9 -9 19 4 14 18 -4 11 -6 11 -12 0z"/>
<path d="M1749 3303 c-5 -174 -3 -250 8 -246 15 6 25 33 13 33 -6 0 -10 5 -10
11 0 5 4 8 8 5 9 -5 10 59 1 68 -2 3 -3 36 -2 75 1 39 -3 73 -8 77 -5 3 -9 -7
-10 -23z"/>
<path d="M2310 3322 c0 -20 25 -30 38 -16 7 8 8 14 3 14 -5 0 -16 3 -25 6 -9
3 -16 2 -16 -4z"/>
<path d="M2364 3295 c-17 -19 -18 -25 -8 -29 8 -3 14 1 14 8 0 8 5 16 12 18 6
2 9 9 7 16 -2 6 -13 1 -25 -13z"/>
<path d="M1776 3283 c-6 -14 -5 -15 5 -6 7 7 10 15 7 18 -3 3 -9 -2 -12 -12z"/>
<path d="M2300 3291 c0 -6 4 -13 10 -16 6 -3 7 1 4 9 -7 18 -14 21 -14 7z"/>
<path d="M1156 3277 c-26 -19 -18 -71 12 -75 12 -2 22 1 22 7 0 6 -7 11 -15
11 -22 0 -18 28 5 42 11 7 20 16 20 20 0 12 -24 9 -44 -5z"/>
<path d="M1370 3253 c-22 -38 -16 -53 23 -53 21 0 23 17 2 22 -13 3 -13 6 -1
30 22 42 1 43 -24 1z"/>
<path d="M1597 3255 c-9 -20 -17 -43 -17 -52 0 -15 2 -14 19 1 16 15 19 15 24
1 10 -24 30 -18 24 7 -4 13 0 26 10 33 22 16 9 45 -20 45 -17 0 -28 -10 -40
-35z m41 -2 c-2 -9 -11 -17 -21 -19 -18 -2 -18 -2 -1 17 21 23 26 24 22 2z"/>
<path d="M1810 3280 c0 -5 4 -10 9 -10 5 0 12 -14 16 -31 8 -35 10 -35 19 6 4
20 3 25 -3 16 -7 -11 -10 -9 -16 8 -6 21 -25 29 -25 11z"/>
<path d="M1875 3279 c-4 -6 -5 -12 -2 -15 2 -3 7 2 10 11 7 17 1 20 -8 4z"/>
<path d="M2060 3286 c0 -2 7 -7 16 -10 8 -3 12 -2 9 4 -6 10 -25 14 -25 6z"/>
<path d="M2122 3263 c-23 -15 -39 -29 -37 -31 3 -3 12 1 21 9 9 8 33 22 53 31
20 10 29 17 21 18 -9 0 -35 -12 -58 -27z"/>
<path d="M692 3263 c-14 -28 -24 -93 -14 -93 19 0 77 47 81 65 3 19 -23 45
-46 45 -7 0 -16 -8 -21 -17z m42 -22 c3 -4 -6 -19 -19 -31 -28 -26 -31 -23
-13 15 12 26 23 32 32 16z"/>
<path d="M1236 3258 c-18 -25 -6 -48 25 -48 25 0 52 40 37 57 -16 20 -45 16
-62 -9z m44 -5 c-1 -18 -19 -35 -29 -28 -9 5 -9 10 0 21 12 15 29 19 29 7z"/>
<path d="M1470 3266 c-18 -22 -9 -60 16 -64 28 -4 58 31 49 57 -8 25 -46 28
-65 7z m40 -25 c0 -12 -20 -25 -27 -18 -7 7 6 27 18 27 5 0 9 -4 9 -9z"/>
<path d="M816 3248 c-8 -13 -17 -33 -21 -45 -6 -20 -3 -23 24 -23 17 0 31 5
31 11 0 6 -9 8 -20 4 -15 -5 -18 -3 -14 9 3 8 9 15 12 14 20 -2 25 3 12 12
-12 8 -11 10 8 10 13 0 22 6 22 15 0 23 -38 18 -54 -7z"/>
<path d="M925 3240 c-22 -43 -19 -60 10 -60 14 0 25 5 25 11 0 6 -9 8 -20 4
-12 -4 -20 -2 -20 5 0 6 4 9 9 6 8 -5 31 35 31 54 0 20 -20 9 -35 -20z"/>
<path d="M1792 3250 c0 -14 2 -19 5 -12 2 6 2 18 0 25 -3 6 -5 1 -5 -13z"/>
<path d="M2335 3246 c-24 -25 -26 -36 -9 -36 10 0 14 3 11 7 -4 3 -2 12 5 20
13 17 7 25 -7 9z"/>
<path d="M2557 3244 c-10 -11 -9 -26 2 -19 16 9 75 14 109 8 26 -4 32 -10 32
-31 0 -24 -1 -25 -20 -7 -14 13 -29 16 -55 12 -23 -4 -33 -2 -29 4 3 6 -3 5
-14 -2 -20 -13 -37 -89 -19 -89 4 0 6 -4 3 -8 -3 -4 30 -7 72 -6 42 2 71 0 65
-4 -7 -4 -42 -9 -80 -10 -37 -2 -70 -5 -72 -8 -11 -10 10 -12 87 -7 l83 6 -3
81 -3 81 -75 3 c-42 1 -79 0 -83 -4z m114 -54 c6 0 7 -5 4 -11 -4 -6 3 -13 14
-16 13 -3 21 -12 19 -22 -2 -12 -18 -17 -66 -19 l-63 -3 3 33 c2 23 8 33 20
33 9 0 20 4 24 8 4 4 14 5 22 2 7 -3 18 -5 23 -5z"/>
<path d="M1780 3195 c0 -8 4 -15 8 -15 5 0 9 7 9 15 0 8 -4 15 -9 15 -4 0 -8
-7 -8 -15z"/>
<path d="M1950 3176 c0 -30 3 -34 21 -31 12 3 24 7 28 11 3 4 -3 4 -13 0 -16
-5 -17 -4 -6 9 10 12 10 15 -3 15 -10 0 -14 6 -11 15 4 8 1 15 -5 15 -6 0 -11
-15 -11 -34z"/>
<path d="M1886 3182 c-3 -6 -1 -14 5 -17 14 -9 20 -2 10 14 -6 8 -11 9 -15 3z"/>
<path d="M2095 3181 c-3 -5 -1 -12 5 -16 5 -3 10 1 10 9 0 18 -6 21 -15 7z"/>
<path d="M2345 3180 c-3 -5 -1 -10 4 -10 6 0 11 5 11 10 0 6 -2 10 -4 10 -3 0
-8 -4 -11 -10z"/>
<path d="M2195 3171 c-3 -5 -2 -12 3 -15 5 -3 9 1 9 9 0 17 -3 19 -12 6z"/>
<path d="M1797 3164 c-8 -8 1 -24 12 -24 4 0 8 7 8 15 0 16 -9 20 -20 9z"/>
<path d="M2047 3133 c7 -17 20 -17 26 1 4 10 0 14 -12 13 -11 -1 -17 -7 -14
-14z"/>
<path d="M1960 3121 c0 -6 4 -13 10 -16 6 -3 7 1 4 9 -7 18 -14 21 -14 7z"/>
<path d="M1834 3099 c-19 -22 -19 -22 6 -9 17 9 25 10 28 1 2 -6 8 -11 14 -11
7 0 7 5 -1 13 -6 8 -8 17 -4 20 3 4 0 7 -9 7 -8 0 -23 -10 -34 -21z"/>
<path d="M1435 3064 c-9 -25 -16 -47 -14 -49 12 -11 53 -8 57 4 3 10 -1 12
-16 9 l-21 -6 19 39 c24 45 24 49 6 49 -7 0 -21 -21 -31 -46z"/>
<path d="M1911 3101 c-8 -6 -9 -11 -3 -15 6 -3 14 -1 17 5 9 14 2 20 -14 10z"/>
<path d="M1198 3093 c-19 -5 -32 -40 -26 -70 4 -21 39 -24 46 -4 3 10 -1 12
-17 8 -11 -3 -19 -1 -15 4 3 5 11 9 19 9 8 0 17 5 21 12 5 8 0 9 -14 6 -12 -4
-22 -2 -22 3 0 5 9 9 20 9 11 0 20 7 20 15 0 15 -2 16 -32 8z"/>
<path d="M1586 3069 c-14 -17 -26 -37 -26 -46 0 -19 25 -11 25 8 0 8 4 20 9
28 7 10 10 11 16 0 5 -7 3 -20 -3 -30 -6 -10 -8 -21 -4 -25 12 -12 19 3 24 51
7 54 -5 58 -41 14z"/>
<path d="M1069 3083 c-16 -4 -29 -31 -29 -60 0 -16 34 -17 61 -3 38 21 12 73
-32 63z m21 -38 c0 -8 -7 -15 -15 -15 -16 0 -20 12 -8 23 11 12 23 8 23 -8z"/>
<path d="M2060 3070 c0 -5 5 -10 11 -10 5 0 7 5 4 10 -3 6 -8 10 -11 10 -2 0
-4 -4 -4 -10z"/>
<path d="M2190 3065 c0 -7 30 -13 34 -7 3 4 -4 9 -15 9 -10 1 -19 0 -19 -2z"/>
<path d="M2108 3053 c7 -3 16 -2 19 1 4 3 -2 6 -13 5 -11 0 -14 -3 -6 -6z"/>
<path d="M220 2974 c-6 -14 -10 -28 -10 -32 1 -10 24 31 26 46 4 21 -6 13 -16
-14z"/>
<path d="M348 2980 c-7 -24 -3 -38 8 -28 3 4 4 17 2 30 l-3 23 -7 -25z"/>
<path d="M277 2984 c-3 -3 -3 -12 0 -20 3 -8 0 -14 -6 -14 -6 0 -11 -4 -11
-10 0 -19 17 -10 28 15 10 22 3 42 -11 29z"/>
<path d="M860 2940 l0 -50 -64 0 -65 0 -7 -45 c-10 -69 -4 -75 71 -75 l66 0
-3 -67 -3 -68 -65 0 -65 0 2 68 2 67 -75 0 -74 0 0 60 0 59 73 3 72 3 3 44 3
44 -31 -7 c-62 -12 -120 -44 -120 -65 0 -17 -6 -21 -33 -21 -47 0 -97 -50 -97
-96 0 -29 -3 -34 -24 -34 -21 0 -28 -9 -45 -55 -29 -78 -29 -81 24 -77 l45 4
0 -38 c0 -22 3 -56 6 -76 l7 -38 -52 0 c-50 0 -51 -1 -51 -30 0 -27 2 -29 35
-25 30 4 35 2 35 -15 0 -11 -3 -19 -7 -18 -5 0 -16 -2 -25 -6 -14 -6 -15 -12
-6 -32 9 -19 18 -24 37 -22 25 3 26 6 29 76 l3 72 62 0 63 0 2 -69 c4 -78 2
-80 -73 -75 l-50 3 0 -58 c0 -75 13 -91 76 -91 l49 0 0 -38 c0 -36 2 -39 48
-55 26 -9 57 -17 68 -17 19 0 21 5 20 49 0 27 -4 52 -7 55 -3 3 -33 6 -67 7
l-62 2 0 73 0 74 65 0 c45 0 65 -4 66 -12 0 -7 2 -24 3 -38 1 -14 3 -42 4 -62
l2 -38 65 0 65 0 0 -65 0 -65 38 0 c75 0 82 6 82 66 l0 54 45 1 c25 1 53 2 63
3 13 0 16 -6 14 -32 -3 -30 -1 -32 15 -24 10 6 29 22 42 36 l24 26 -39 0 -39
0 2 72 1 73 56 3 56 3 0 -41 c0 -49 11 -51 33 -5 20 43 21 46 5 44 -35 -4 -38
1 -38 81 l0 80 45 0 c41 0 45 2 45 25 0 20 -5 25 -25 25 -27 0 -32 12 -12 29
10 8 17 7 25 -1 14 -14 16 2 6 40 -5 17 -14 22 -40 22 -32 0 -34 2 -35 38 -1
20 0 49 1 65 2 27 1 27 -64 27 l-66 0 0 -65 0 -65 -55 0 -55 0 0 65 0 65 -65
0 -65 0 0 60 0 60 63 0 63 0 -4 34 c-4 31 -8 35 -50 46 -26 7 -53 14 -59 16
-9 2 -13 -11 -13 -46z m68 -5 c-3 -3 -9 2 -12 12 -6 14 -5 15 5 6 7 -7 10 -15
7 -18z m-232 -10 c-10 -8 -37 -13 -60 -13 -22 1 -33 3 -23 6 9 2 15 7 13 11
-3 4 10 5 29 3 18 -2 36 1 40 8 4 6 10 8 13 5 4 -4 -1 -13 -12 -20z m214 10
c9 -11 16 -13 24 -5 14 14 26 12 26 -5 0 -8 -9 -15 -19 -15 -30 0 -52 11 -44
23 4 6 0 8 -11 4 -10 -4 -15 -3 -11 3 9 14 21 12 35 -5z m-124 -85 c8 0 17 -7
20 -15 4 -8 13 -15 21 -15 18 0 11 -24 -8 -28 -8 -1 -20 10 -27 25 -6 15 -9
18 -6 7 3 -14 -1 -24 -11 -28 -12 -4 -15 0 -13 17 2 12 -2 21 -8 20 -14 -3
-13 29 1 39 6 4 11 1 13 -7 2 -8 10 -15 18 -15z m-248 3 c12 -11 13 -18 5 -20
-7 -3 -10 -10 -7 -17 9 -23 -26 -27 -48 -6 -12 11 -16 20 -10 20 7 0 12 7 12
16 0 8 5 12 10 9 6 -3 10 -1 10 4 0 15 9 14 28 -6z m299 6 c-14 -8 -22 -8 -30
0 -8 8 -3 11 19 11 25 -1 27 -2 11 -11z m-90 -61 c-3 -8 -6 -5 -6 6 -1 11 2
17 5 13 3 -3 4 -12 1 -19z m-167 -98 l0 -70 -65 0 -65 0 0 64 c0 72 0 73 83
75 l47 1 0 -70z m386 8 c-1 -26 -5 -51 -10 -55 -4 -4 -7 -3 -6 2 6 27 -1 85
-9 80 -6 -3 -8 -14 -6 -25 2 -12 0 -18 -6 -15 -5 4 -9 1 -9 -4 0 -6 5 -11 10
-11 6 0 10 -4 10 -10 0 -16 -18 -12 -37 8 -27 29 -28 45 -1 36 21 -6 22 -6 8
11 -12 15 -12 17 -1 10 10 -6 13 -4 9 6 -4 10 3 14 22 14 27 0 28 -2 26 -47z
m-286 32 c0 -5 -8 -6 -17 -3 -15 6 -16 5 -3 -9 13 -14 17 -15 26 -3 6 8 14 12
17 8 10 -10 8 -25 -2 -19 -17 11 -19 -19 -2 -38 15 -18 15 -18 -6 -7 -27 14
-43 14 -43 0 0 -6 7 -9 15 -6 8 4 17 1 21 -5 5 -8 -3 -9 -25 -5 -21 5 -30 3
-25 -4 3 -6 -3 -5 -14 2 -31 19 -22 68 13 69 5 0 4 -5 -3 -12 -7 -7 -12 -19
-12 -27 0 -11 5 -9 16 7 17 24 10 46 -12 38 -8 -3 -14 -1 -14 4 0 8 21 15 58
19 6 0 12 -3 12 -9z m495 0 c4 -6 11 -8 16 -5 5 4 9 2 9 -4 0 -5 3 -18 6 -28
5 -17 5 -17 -10 1 -16 20 -47 16 -45 -6 0 -9 2 -10 5 -1 4 8 11 7 25 -5 25
-22 24 -35 -2 -27 -14 5 -25 2 -30 -6 -7 -11 -9 -10 -9 4 0 10 -4 15 -10 12
-14 -9 8 47 23 58 8 6 6 7 -5 3 -10 -3 -20 -1 -23 4 -4 6 5 10 19 10 14 0 28
-5 31 -10z m-755 -19 c-7 -14 -6 -21 3 -24 8 -3 5 -12 -11 -27 -23 -22 -46
-20 -24 2 7 7 12 19 12 28 0 9 5 21 12 28 17 17 20 15 8 -7z m480 -51 c0 -5
-4 -10 -10 -10 -5 0 -10 5 -10 10 0 6 5 10 10 10 6 0 10 -4 10 -10z m84 -72
c-2 -24 -3 -58 -3 -75 l-1 -33 -60 0 -60 0 0 68 c0 38 3 72 7 75 3 4 32 7 63
7 l56 0 -2 -42z m240 -28 l1 -65 -55 -6 c-30 -3 -58 -4 -62 -2 -5 2 -8 36 -8
74 l0 70 62 -3 62 -3 0 -65z m-504 -10 l0 -70 -70 0 -70 0 1 63 c1 34 3 65 6
70 2 4 33 7 69 7 l64 0 0 -70z m-207 39 c-6 -6 -17 -8 -24 -3 -9 5 -8 9 7 14
23 9 31 3 17 -11z m756 -5 c-6 -8 -15 -12 -18 -8 -3 4 0 9 7 11 6 3 9 10 6 15
-4 7 -2 8 5 4 9 -6 9 -11 0 -22z m-713 1 c-3 -8 -1 -15 4 -15 6 0 10 -5 10
-11 0 -5 -4 -8 -9 -4 -16 9 -32 -30 -19 -43 9 -9 4 -12 -20 -12 -29 0 -32 3
-28 25 3 16 -1 28 -12 34 -12 7 -5 8 25 5 24 -2 42 0 42 4 -3 15 1 32 7 32 3
0 4 -7 0 -15z m511 -25 c0 -22 -4 -40 -8 -40 -5 0 -9 18 -9 40 0 22 4 40 9 40
4 0 8 -18 8 -40z m-259 6 c4 -20 -14 -44 -25 -32 -4 4 -1 11 6 15 10 7 10 10
1 16 -19 12 -35 -11 -20 -30 19 -23 38 -18 54 13 14 24 15 25 16 6 0 -29 -23
-46 -57 -42 -23 2 -29 9 -31 32 -5 44 48 65 56 22z m219 -16 c0 -22 -4 -37 -8
-34 -5 3 -9 21 -9 40 0 19 4 34 9 34 4 0 8 -18 8 -40z m73 -142 l0 -78 -60 0
-60 0 0 74 c0 83 1 84 83 83 l37 -1 0 -78z m-240 -3 l0 -76 -67 3 -68 3 -3 73
-3 72 71 0 70 0 0 -75z m-180 23 c-11 -10 -20 -25 -20 -32 0 -16 -23 -27 -36
-18 -15 11 -13 42 2 43 8 1 19 2 24 3 15 2 30 28 22 41 -3 5 2 4 11 -4 17 -13
16 -15 -3 -33z m275 32 c3 -5 1 -10 -4 -10 -6 0 -11 5 -11 10 0 6 2 10 4 10 3
0 8 -4 11 -10z m-295 -12 c0 -6 -3 -8 -6 -5 -4 3 -15 2 -25 -3 -12 -7 -20 -6
-25 2 -4 7 -3 8 4 4 7 -4 12 -2 12 3 0 6 9 11 20 11 11 0 20 -5 20 -12z m506
6 c18 -5 21 -12 19 -52 -2 -65 -25 -68 -25 -3 0 41 -3 49 -15 45 -8 -4 -15 -1
-15 5 0 12 6 13 36 5z m-726 -14 c0 -5 -2 -10 -4 -10 -3 0 -8 5 -11 10 -3 6
-1 10 4 10 6 0 11 -4 11 -10z m499 -31 c-8 -5 -8 -8 0 -13 6 -4 11 -15 11 -24
-1 -16 -2 -16 -14 0 -10 14 -15 15 -25 5 -11 -10 -12 -8 -7 9 5 15 2 24 -9 28
-9 3 -13 10 -10 16 4 6 10 8 15 5 5 -3 12 0 16 6 5 9 11 7 21 -6 9 -13 10 -21
2 -26z m-241 -29 c2 -30 -12 -42 -21 -17 -4 10 9 47 16 47 2 0 4 -13 5 -30z
m192 16 c0 -3 -4 -8 -10 -11 -5 -3 -10 -1 -10 4 0 6 5 11 10 11 6 0 10 -2 10
-4z m260 -37 c0 -5 -10 -9 -21 -9 -18 0 -19 2 -9 15 12 15 30 12 30 -6z m-710
-9 c0 -5 -5 -10 -11 -10 -5 0 -7 5 -4 10 3 6 8 10 11 10 2 0 4 -4 4 -10z m540
-94 c0 -41 -3 -77 -7 -79 -5 -2 -32 -2 -60 1 l-53 4 0 74 0 74 60 0 60 0 0
-74z m-191 41 c6 -8 8 -17 4 -20 -3 -4 1 -7 10 -7 10 0 17 -7 17 -15 0 -12 -4
-13 -19 -5 -25 13 -28 13 -34 -2 -3 -9 6 -13 26 -13 21 0 32 6 38 20 7 18 8
18 8 -5 1 -40 -11 -48 -61 -41 -5 1 -11 1 -15 0 -4 0 -11 10 -16 23 -6 17 -4
26 9 35 14 10 15 13 3 14 -11 0 -11 2 0 6 11 5 11 7 0 14 -11 7 -11 9 2 9 9 0
22 -6 28 -13z m261 4 c0 -5 8 -12 19 -16 25 -8 25 -87 -1 -91 -11 -1 -15 3
-11 12 3 8 9 14 15 14 17 0 4 43 -14 46 -10 1 -18 -2 -18 -7 0 -5 7 -9 15 -9
8 0 15 -5 15 -11 0 -6 -9 -9 -20 -6 -11 3 -23 1 -26 -4 -3 -5 0 -9 5 -9 6 0
11 -7 11 -15 0 -8 -9 -15 -20 -15 -11 0 -20 5 -20 10 0 6 5 10 10 10 12 0 9
22 -5 32 -6 4 -2 8 8 8 12 0 17 8 17 30 0 17 5 30 10 30 6 0 10 -4 10 -9z
m-528 -28 c-2 -16 -1 -25 3 -21 5 4 15 2 24 -4 14 -11 13 -10 -1 7 -14 18 -14
22 -1 34 8 7 17 10 21 6 4 -4 2 -10 -5 -12 -10 -3 -10 -9 0 -24 10 -16 9 -21
-2 -28 -7 -5 -10 -14 -6 -20 5 -8 -2 -10 -22 -5 -36 8 -41 13 -44 44 -4 29 7
50 25 50 9 0 12 -9 8 -27z m496 10 c-2 -10 -7 -18 -12 -18 -5 0 -10 8 -12 18
-1 9 4 17 13 17 8 0 13 -7 11 -17z m-181 1 c-3 -3 -12 -4 -19 -1 -8 3 -5 6 6
6 11 1 17 -2 13 -5z m-147 -146 c0 -3 3 -14 7 -24 5 -13 3 -16 -10 -11 -12 4
-14 2 -10 -10 6 -14 2 -14 -24 2 -26 15 -29 21 -20 35 10 17 57 23 57 8z m250
-3 c-1 -5 -8 -9 -17 -7 -11 3 -9 -3 6 -19 27 -29 28 -48 1 -24 -18 16 -20 16
-20 2 0 -10 -4 -17 -10 -17 -12 0 -8 63 5 72 13 10 36 6 35 -7z"/>
<path d="M501 2264 c0 -11 3 -14 6 -6 3 7 2 16 -1 19 -3 4 -6 -2 -5 -13z"/>
<path d="M516 2242 c-3 -5 1 -9 9 -9 8 0 12 4 9 9 -3 4 -7 8 -9 8 -2 0 -6 -4
-9 -8z"/>
<path d="M1165 2911 c-3 -5 -1 -12 5 -16 5 -3 10 1 10 9 0 18 -6 21 -15 7z"/>
<path d="M1070 2903 c-14 -3 -29 -9 -35 -15 -7 -7 -1 -9 20 -4 17 4 25 3 19
-1 -17 -12 -36 -54 -29 -61 4 -4 12 2 19 12 6 11 21 30 34 42 35 34 31 37 -28
27z"/>
<path d="M1226 2878 c-8 -13 -18 -35 -21 -50 -7 -26 -5 -28 24 -28 17 0 31 5
31 10 0 6 -6 10 -14 10 -8 0 -16 7 -19 15 -5 11 -1 12 18 5 20 -7 25 -6 25 5
0 8 -4 14 -9 13 -5 -2 -11 2 -12 7 -2 6 6 11 19 13 30 5 28 22 -3 22 -14 0
-30 -9 -39 -22z"/>
<path d="M1356 2878 c-19 -32 -29 -78 -16 -78 6 0 14 9 18 21 8 21 9 21 26 -5
9 -15 21 -24 26 -21 14 9 -6 42 -30 50 -11 3 -20 11 -20 16 0 6 5 7 10 4 6 -3
10 -1 10 5 0 6 5 8 11 4 8 -4 7 -9 -2 -15 -8 -5 -9 -9 -4 -9 21 0 38 19 32 34
-9 23 -44 20 -61 -6z"/>
<path d="M1504 2892 c-15 -9 -46 -83 -39 -90 8 -8 23 10 27 33 3 20 21 45 33
45 3 0 -1 -11 -10 -24 -8 -13 -13 -31 -9 -40 9 -22 27 -20 19 3 -3 10 1 24 10
31 19 16 19 36 -1 44 -19 7 -16 7 -30 -2z"/>
<path d="M1601 2854 c-25 -42 -25 -44 -7 -44 14 0 32 36 28 53 -1 4 2 7 7 7 6
0 7 -16 4 -36 -5 -29 -3 -36 8 -32 8 3 15 22 17 46 3 36 0 42 -16 42 -12 0
-28 -14 -41 -36z"/>
<path d="M1150 2854 c-12 -32 -13 -44 -1 -44 5 0 14 14 20 31 13 39 13 39 1
39 -6 0 -15 -12 -20 -26z"/>
<path d="M2571 2841 c-19 -3 -36 -11 -38 -18 -5 -15 87 -20 232 -12 108 5 107
5 -60 8 -169 4 -170 4 -75 12 52 5 125 6 163 4 40 -3 67 -1 67 5 0 11 -231 12
-289 1z"/>
<path d="M2300 2730 c-6 -11 -17 -20 -24 -20 -16 0 -39 -26 -42 -46 -1 -8 -26
-38 -54 -67 -94 -94 -99 -102 -114 -152 -17 -55 -15 -65 9 -41 12 12 13 16 3
16 -11 0 -11 2 0 9 8 4 13 12 13 17 -2 29 40 90 53 76 3 -3 6 2 6 10 0 14 27
46 63 75 29 23 15 -28 -26 -96 -21 -35 -36 -66 -32 -69 8 -8 26 19 92 137 32
57 70 117 86 132 33 34 34 39 2 39 -14 0 -29 -8 -35 -20z m-38 -62 c-15 -15
-16 -31 -1 -22 7 4 7 -2 -1 -17 -18 -33 -18 -33 -15 -2 2 34 15 66 23 58 3 -3
0 -11 -6 -17z"/>
<path d="M2170 2526 c-24 -36 -47 -63 -51 -61 -4 3 -10 -2 -13 -11 -4 -12 -2
-15 9 -10 9 3 15 0 15 -9 0 -23 -22 -65 -32 -59 -4 3 -15 -1 -22 -9 -11 -11
-12 -17 -3 -26 13 -13 -6 -31 -34 -31 -9 0 -19 -9 -22 -20 -3 -11 -12 -20 -21
-20 -10 0 -13 6 -9 16 4 12 1 15 -12 13 -10 -2 -20 -11 -22 -19 -3 -10 -2 -11
4 -3 6 8 11 5 19 -11 9 -20 7 -27 -14 -47 l-25 -24 6 23 c4 18 2 22 -11 20
-11 -2 -16 -11 -14 -23 2 -11 1 -17 -4 -13 -10 10 -55 -52 -47 -65 4 -6 0 -8
-10 -4 -9 3 -19 1 -23 -5 -4 -7 -3 -8 4 -4 17 10 15 -10 -3 -28 -8 -8 -15 -20
-15 -26 0 -6 -7 -13 -15 -16 -20 -8 -19 -20 2 -28 11 -5 22 -1 30 10 16 22 17
38 1 28 -7 -4 -8 -3 -4 5 4 6 12 9 17 6 11 -7 48 33 86 92 16 24 34 43 41 43
8 0 19 14 25 30 6 17 19 32 28 35 45 14 132 146 111 167 -6 6 6 33 35 75 24
36 42 67 40 69 -2 3 -24 -25 -47 -60z m-78 -178 c-7 -7 -12 -8 -12 -2 0 6 3
14 7 17 3 4 9 5 12 2 2 -3 -1 -11 -7 -17z m-180 -195 c-11 -15 -30 -37 -43
-48 l-24 -20 21 25 c11 14 28 38 38 53 10 16 20 26 23 23 3 -2 -4 -17 -15 -33z"/>
<path d="M1981 2426 c-12 -18 -21 -40 -21 -48 0 -8 -9 -23 -20 -33 -11 -10
-20 -25 -20 -33 0 -9 -7 -23 -16 -33 -9 -10 -14 -25 -12 -34 2 -11 17 5 46 48
23 35 58 78 77 96 33 30 34 32 18 51 -23 27 -28 26 -52 -14z"/>
<path d="M375 2411 c-6 -11 9 -23 19 -14 9 9 7 23 -3 23 -6 0 -12 -4 -16 -9z"/>
<path d="M2350 2378 c0 -19 2 -20 10 -8 13 19 13 30 0 30 -5 0 -10 -10 -10
-22z"/>
<path d="M2420 2380 c0 -12 7 -20 16 -20 13 0 14 3 5 13 -6 8 -8 17 -4 20 3 4
1 7 -5 7 -7 0 -12 -9 -12 -20z"/>
<path d="M2530 2380 c0 -11 4 -20 9 -20 13 0 32 26 24 33 -13 14 -33 6 -33
-13z"/>
<path d="M2584 2384 c3 -9 6 -18 6 -20 0 -2 4 -4 9 -4 5 0 7 9 4 20 -3 11 -10
20 -15 20 -6 0 -7 -7 -4 -16z"/>
<path d="M2700 2393 c0 -14 19 -38 25 -32 8 8 -5 39 -16 39 -5 0 -9 -3 -9 -7z"/>
<path d="M2746 2392 c-10 -16 1 -32 22 -32 11 0 13 3 6 8 -6 4 -13 14 -16 22
-3 10 -6 11 -12 2z"/>
<path d="M2196 2375 c-3 -9 0 -15 9 -15 16 0 20 16 6 24 -5 3 -11 -1 -15 -9z"/>
<path d="M2232 2378 c2 -6 10 -14 16 -16 7 -2 10 2 6 12 -7 18 -28 22 -22 4z"/>
<path d="M2385 2380 c-3 -5 -1 -10 4 -10 6 0 11 5 11 10 0 6 -2 10 -4 10 -3 0
-8 -4 -11 -10z"/>
<path d="M2470 2377 c0 -7 9 -13 20 -14 11 -1 20 4 20 10 0 7 -9 13 -20 14
-11 1 -20 -4 -20 -10z"/>
<path d="M1796 2355 c-3 -9 0 -15 9 -15 16 0 20 16 6 24 -5 3 -11 -1 -15 -9z"/>
<path d="M1850 2350 c0 -11 4 -20 9 -20 13 0 32 26 24 33 -13 14 -33 6 -33
-13z"/>
<path d="M1735 2350 c-11 -17 5 -32 21 -19 7 6 11 15 8 20 -7 12 -21 11 -29
-1z"/>
<path d="M1992 2340 c-18 -29 -15 -38 4 -12 9 13 14 25 12 27 -2 2 -9 -5 -16
-15z"/>
<path d="M2625 2350 c-3 -5 -2 -10 4 -10 5 0 13 5 16 10 3 6 2 10 -4 10 -5 0
-13 -4 -16 -10z"/>
<path d="M1591 2337 c-6 -8 -8 -17 -4 -20 10 -11 33 -8 33 4 0 5 -5 7 -12 3
-8 -5 -9 -2 -5 9 8 20 3 22 -12 4z"/>
<path d="M1640 2331 c0 -5 7 -11 15 -15 9 -3 15 0 15 9 0 8 -7 15 -15 15 -8 0
-15 -4 -15 -9z"/>
<path d="M1510 2305 c0 -8 7 -15 15 -15 8 0 15 7 15 15 0 8 -7 15 -15 15 -8 0
-15 -7 -15 -15z"/>
<path d="M1550 2310 c0 -5 5 -10 10 -10 6 0 10 5 10 10 0 6 -4 10 -10 10 -5 0
-10 -4 -10 -10z"/>
<path d="M2413 2294 c-3 -8 -1 -20 4 -25 7 -7 12 -5 16 5 4 9 2 16 -4 16 -6 0
-7 5 -4 10 3 6 4 10 0 10 -3 0 -8 -7 -12 -16z"/>
<path d="M2156 2293 c-11 -11 -6 -23 9 -23 8 0 15 4 15 9 0 13 -16 22 -24 14z"/>
<path d="M2207 2293 c-13 -12 -7 -33 8 -33 8 0 15 9 15 20 0 20 -11 26 -23 13z"/>
<path d="M2294 2286 c-8 -22 -2 -27 16 -16 12 7 12 12 3 21 -10 10 -14 9 -19
-5z"/>
<path d="M2460 2288 c0 -9 5 -20 10 -23 13 -8 13 5 0 25 -8 13 -10 13 -10 -2z"/>
<path d="M2544 2289 c-10 -17 13 -36 27 -22 12 12 4 33 -11 33 -5 0 -12 -5
-16 -11z"/>
<path d="M2600 2278 c0 -12 1 -19 3 -17 1 2 9 12 16 22 12 14 11 17 -3 17 -10
0 -16 -8 -16 -22z"/>
<path d="M2647 2293 c-12 -12 -7 -30 8 -30 8 0 15 9 15 19 0 18 -11 24 -23 11z"/>
<path d="M2704 2286 c-8 -22 3 -33 18 -18 9 9 9 15 0 24 -9 9 -13 7 -18 -6z"/>
<path d="M2100 2274 c0 -8 6 -11 15 -8 8 4 15 9 15 13 0 4 -7 8 -15 8 -8 0
-15 -6 -15 -13z"/>
<path d="M2250 2275 c0 -8 7 -15 16 -15 14 0 14 3 4 15 -7 8 -14 15 -16 15 -2
0 -4 -7 -4 -15z"/>
<path d="M1405 2249 c-4 -6 -5 -13 -2 -16 7 -7 27 6 27 18 0 12 -17 12 -25 -2z"/>
<path d="M1950 2250 c0 -5 5 -10 10 -10 6 0 10 5 10 10 0 6 -4 10 -10 10 -5 0
-10 -4 -10 -10z"/>
<path d="M1666 2235 c-3 -9 0 -15 9 -15 9 0 12 6 9 15 -4 8 -7 15 -9 15 -2 0
-5 -7 -9 -15z"/>
<path d="M1700 2236 c0 -8 5 -18 10 -21 6 -3 10 3 10 14 0 12 -4 21 -10 21 -5
0 -10 -6 -10 -14z"/>
<path d="M1370 2225 c0 -8 4 -15 10 -15 5 0 7 7 4 15 -4 8 -8 15 -10 15 -2 0
-4 -7 -4 -15z"/>
<path d="M1576 2221 c-4 -7 -5 -15 -2 -18 9 -9 19 4 14 18 -4 11 -6 11 -12 0z"/>
<path d="M1504 2174 c3 -9 6 -18 6 -20 0 -3 4 -3 10 1 11 7 2 35 -12 35 -6 0
-7 -7 -4 -16z"/>
<path d="M2704 2179 c-8 -14 11 -33 25 -25 6 4 11 11 11 16 0 13 -29 20 -36 9z"/>
<path d="M2760 2171 c-7 -13 -7 -22 0 -26 5 -3 10 -5 11 -3 11 48 7 61 -11 29z"/>
<path d="M2166 2171 c-7 -11 18 -33 27 -24 4 3 7 12 7 20 0 15 -26 18 -34 4z"/>
<path d="M2265 2170 c-7 -12 2 -30 16 -30 12 0 12 27 0 35 -5 3 -12 1 -16 -5z"/>
<path d="M2430 2160 c0 -13 5 -20 13 -17 6 2 12 10 12 17 0 7 -6 15 -12 18 -8
2 -13 -5 -13 -18z"/>
<path d="M2546 2165 c-3 -9 0 -15 9 -15 8 0 15 7 15 15 0 8 -4 15 -9 15 -5 0
-11 -7 -15 -15z"/>
<path d="M2590 2165 c0 -8 7 -15 15 -15 8 0 15 7 15 15 0 8 -7 15 -15 15 -8 0
-15 -7 -15 -15z"/>
<path d="M2640 2165 c0 -14 42 -13 47 2 2 6 -8 11 -22 11 -14 0 -25 -6 -25
-13z"/>
<path d="M1295 2160 c-9 -14 3 -30 23 -30 16 1 16 2 0 14 -10 7 -15 16 -11 19
3 4 4 7 0 7 -3 0 -9 -4 -12 -10z"/>
<path d="M1464 2159 c-10 -17 13 -36 27 -22 12 12 4 33 -11 33 -5 0 -12 -5
-16 -11z"/>
<path d="M2212 2158 c2 -5 8 -9 13 -9 5 0 11 4 13 9 1 5 -4 9 -13 9 -9 0 -14
-4 -13 -9z"/>
<path d="M2355 2159 c-4 -5 1 -9 9 -9 9 0 19 0 23 -1 4 0 9 3 10 8 4 12 -35
14 -42 2z"/>
<path d="M1423 2133 c-7 -2 -13 -12 -13 -21 0 -14 2 -14 9 -3 5 7 14 10 20 7
6 -4 11 0 11 8 0 16 -6 18 -27 9z"/>
<path d="M1252 2116 c1 -10 8 -17 13 -17 15 1 12 24 -3 29 -9 3 -13 -2 -10
-12z"/>
<path d="M111 2094 c0 -11 3 -14 6 -6 3 7 2 16 -1 19 -3 4 -6 -2 -5 -13z"/>
<path d="M1363 2074 c-7 -19 2 -28 22 -21 19 8 19 23 0 31 -9 3 -18 -1 -22
-10z"/>
<path d="M2773 2055 c0 -25 11 -33 22 -16 3 5 1 12 -5 16 -6 4 -8 11 -5 16 4
5 2 9 -3 9 -5 0 -9 -11 -9 -25z"/>
<path d="M2454 2059 c-10 -17 13 -36 27 -22 12 12 4 33 -11 33 -5 0 -12 -5
-16 -11z"/>
<path d="M2516 2054 c-8 -21 -8 -24 3 -24 5 0 11 9 14 20 6 24 -8 27 -17 4z"/>
<path d="M2560 2055 c-10 -12 -9 -16 5 -21 19 -8 40 9 31 25 -10 15 -21 14
-36 -4z m25 -5 c3 -5 1 -10 -4 -10 -6 0 -11 5 -11 10 0 6 2 10 4 10 3 0 8 -4
11 -10z"/>
<path d="M2617 2050 c3 -12 6 -19 7 -18 1 2 8 11 15 21 12 15 11 17 -7 17 -15
0 -19 -5 -15 -20z"/>
<path d="M2664 2059 c-3 -6 0 -15 7 -20 14 -8 32 9 23 23 -7 11 -22 10 -30 -3z"/>
<path d="M2722 2054 c4 -21 22 -23 26 -1 2 10 -3 17 -13 17 -10 0 -15 -6 -13
-16z"/>
<path d="M1146 2051 c-8 -12 21 -47 31 -38 4 5 0 15 -10 22 -13 10 -15 14 -5
18 9 4 9 6 1 6 -6 1 -14 -3 -17 -8z"/>
<path d="M1317 2048 c-5 -14 19 -42 27 -30 2 4 -2 15 -9 25 -9 13 -14 14 -18
5z"/>
<path d="M1442 2044 c2 -11 -18 -50 -45 -91 l-49 -70 16 -37 c9 -21 27 -51 41
-68 14 -16 25 -42 25 -57 0 -15 6 -36 14 -46 12 -16 12 -10 -1 40 -8 33 -26
72 -39 86 -30 31 -42 92 -24 114 7 9 33 29 57 45 l45 30 19 -22 c17 -19 18
-20 10 -3 -24 47 -27 48 -56 21 -44 -41 -48 -30 -9 24 20 28 31 50 25 50 -6 0
-11 -6 -11 -12 0 -9 -4 -8 -11 2 -8 12 -9 11 -7 -6z"/>
<path d="M2395 2051 c-10 -9 -4 -17 14 -18 11 -1 21 4 24 11 4 11 -28 17 -38
7z"/>
<path d="M1480 2032 c0 -5 16 -16 35 -25 36 -17 44 -32 23 -40 -7 -3 -8 -6 -2
-6 5 -1 19 6 30 14 11 8 14 14 6 15 -7 0 -30 11 -52 25 -22 14 -40 22 -40 17z"/>
<path d="M1096 2022 c-2 -4 -1 -14 3 -21 6 -9 10 -7 14 8 5 20 -7 29 -17 13z"/>
<path d="M204 2009 c-3 -6 -2 -15 3 -20 5 -5 9 -1 10 11 2 22 -2 25 -13 9z"/>
<path d="M255 2000 c-4 -6 -3 -16 3 -22 13 -13 23 4 13 21 -7 10 -10 10 -16 1z"/>
<path d="M1070 1990 c0 -5 -5 -9 -11 -7 -6 1 -13 -3 -15 -8 -2 -6 5 -11 16
-12 14 -1 20 4 20 18 0 10 -2 19 -5 19 -3 0 -5 -4 -5 -10z"/>
<path d="M325 1980 c-4 -7 -1 -16 6 -21 17 -10 26 8 11 23 -6 6 -12 6 -17 -2z"/>
<path d="M986 1972 c-2 -4 -1 -14 5 -22 5 -8 9 -13 10 -10 0 3 2 13 4 23 3 17
-10 24 -19 9z"/>
<path d="M1230 1973 c0 -17 19 -35 29 -29 8 5 7 11 -3 22 -16 15 -26 18 -26 7z"/>
<path d="M1593 1974 c4 -4 16 -12 28 -18 12 -6 28 -27 36 -46 12 -32 13 -33 8
-5 -6 30 -46 75 -67 75 -6 0 -8 -3 -5 -6z"/>
<path d="M407 1963 c-13 -12 -7 -20 15 -19 12 0 23 7 24 14 1 7 0 8 -3 2 -3
-8 -9 -8 -17 -1 -7 6 -16 8 -19 4z"/>
<path d="M523 1954 c-7 -19 2 -28 22 -21 19 8 19 23 0 31 -9 3 -18 -1 -22 -10z"/>
<path d="M470 1944 c0 -17 22 -14 28 4 2 7 -3 12 -12 12 -9 0 -16 -7 -16 -16z"/>
<path d="M665 1947 c-4 -10 -5 -21 -1 -24 10 -10 18 4 13 24 -4 17 -4 17 -12
0z"/>
<path d="M833 1945 c-3 -9 -3 -19 1 -22 8 -9 37 18 30 28 -8 14 -24 11 -31 -6z"/>
<path d="M921 1953 c-1 -6 4 -15 10 -19 13 -8 36 13 25 23 -4 4 -11 1 -15 -6
-7 -11 -10 -11 -14 0 -3 9 -6 10 -6 2z"/>
<path d="M700 1935 c0 -8 4 -15 10 -15 5 0 7 7 4 15 -4 8 -8 15 -10 15 -2 0
-4 -7 -4 -15z"/>
<path d="M1205 1939 c-4 -6 -5 -13 -2 -16 7 -7 27 6 27 18 0 12 -17 12 -25 -2z"/>
<path d="M1154 1919 c-10 -17 13 -36 27 -22 12 12 4 33 -11 33 -5 0 -12 -5
-16 -11z"/>
<path d="M1748 1903 c-9 -10 -19 -29 -23 -43 -4 -14 -15 -34 -25 -45 -32 -36
-42 -63 -30 -84 5 -11 15 -21 21 -23 6 -2 2 -11 -9 -21 -15 -14 -22 -15 -28
-6 -4 7 -3 10 4 5 6 -3 13 -2 16 3 3 5 -1 12 -9 15 -11 4 -19 -3 -26 -22 -10
-27 -11 -27 -28 23 -10 28 -23 61 -30 73 -7 13 -9 31 -6 42 6 18 -7 32 -32 36
-15 3 -27 -24 -24 -55 3 -24 3 -24 -22 5 -34 39 -55 22 -31 -25 9 -18 16 -53
16 -77 -1 -24 3 -44 9 -44 6 0 8 9 4 20 -4 12 -2 20 6 20 8 0 8 4 -1 15 -7 9
-10 18 -7 22 3 3 0 18 -8 34 -22 41 -18 47 10 17 14 -15 25 -32 25 -38 0 -16
23 -7 28 11 3 12 2 12 -6 0 -7 -10 -10 -3 -10 24 0 45 24 80 27 39 1 -13 3
-35 4 -49 1 -14 6 -25 10 -25 5 0 5 -4 2 -10 -3 -5 -1 -10 5 -10 6 0 8 -5 4
-12 -4 -7 -3 -8 4 -4 7 4 12 3 12 -3 0 -5 -8 -12 -17 -14 -13 -3 -11 -5 6 -6
19 -1 23 -5 18 -27 -4 -20 -1 -24 12 -18 9 3 25 9 36 12 11 2 25 9 31 14 7 5
14 3 17 -6 3 -8 1 -17 -6 -20 -9 -3 -9 -5 0 -5 7 -1 22 9 35 22 13 12 17 16 8
10 -19 -15 -34 -17 -26 -4 4 5 0 12 -6 14 -10 4 -9 8 2 16 13 9 12 13 -7 30
-11 11 -24 17 -27 14 -18 -18 -2 20 24 55 16 22 32 52 36 67 8 33 18 38 60 30
24 -4 38 -13 44 -30 11 -28 45 -41 66 -24 17 14 20 12 33 -21 8 -20 10 -21 10
-6 1 11 -6 28 -15 38 -15 16 -18 16 -29 2 -15 -21 -51 -11 -58 16 -3 10 -22
26 -42 34 -45 19 -39 19 -57 -1z"/>
<path d="M170 1883 c0 -8 5 -11 10 -8 6 3 10 1 10 -5 0 -6 5 -8 10 -5 16 10
12 22 -10 28 -13 3 -20 0 -20 -10z"/>
<path d="M1053 1880 c1 -20 8 -25 20 -14 7 8 -3 34 -13 34 -5 0 -8 -9 -7 -20z"/>
<path d="M100 1881 c0 -6 4 -13 10 -16 6 -3 7 1 4 9 -7 18 -14 21 -14 7z"/>
<path d="M1555 1880 c3 -5 12 -10 20 -10 8 0 17 5 20 10 4 6 -5 10 -20 10 -15
0 -24 -4 -20 -10z"/>
<path d="M226 1873 c-11 -11 -7 -20 9 -20 8 0 15 4 15 8 0 11 -16 20 -24 12z"/>
<path d="M284 1866 c-4 -10 -2 -22 4 -28 8 -8 13 -7 18 6 4 10 2 22 -4 28 -8
8 -13 7 -18 -6z"/>
<path d="M1000 1866 c0 -8 4 -17 9 -20 11 -7 33 18 24 27 -12 12 -33 7 -33 -7z"/>
<path d="M964 1856 c-8 -22 -2 -27 16 -16 12 7 12 12 3 21 -10 10 -14 9 -19
-5z"/>
<path d="M330 1845 c0 -8 5 -15 10 -15 6 0 10 7 10 15 0 8 -4 15 -10 15 -5 0
-10 -7 -10 -15z"/>
<path d="M902 1851 c-8 -4 -10 -15 -6 -26 7 -17 8 -16 16 5 10 27 7 32 -10 21z"/>
<path d="M1460 1850 c0 -5 4 -10 9 -10 6 0 13 5 16 10 3 6 -1 10 -9 10 -9 0
-16 -4 -16 -10z"/>
<path d="M1646 1835 c-4 -17 -9 -38 -12 -47 -3 -10 -1 -18 5 -18 6 0 10 3 9 8
-1 4 2 19 6 34 5 15 6 33 4 40 -3 7 -8 -1 -12 -17z"/>
<path d="M380 1840 c0 -5 7 -10 16 -10 8 0 12 5 9 10 -3 6 -10 10 -16 10 -5 0
-9 -4 -9 -10z"/>
<path d="M517 1844 c-7 -8 3 -34 13 -34 9 0 8 26 -1 35 -3 3 -8 2 -12 -1z"/>
<path d="M793 1830 c1 -21 12 -26 22 -10 3 6 1 10 -5 10 -6 0 -8 5 -5 10 3 6
2 10 -4 10 -5 0 -9 -9 -8 -20z"/>
<path d="M835 1840 c-8 -13 4 -32 16 -25 12 8 12 35 0 35 -6 0 -13 -4 -16 -10z"/>
<path d="M560 1825 c0 -8 4 -15 10 -15 5 0 7 7 4 15 -4 8 -8 15 -10 15 -2 0
-4 -7 -4 -15z"/>
<path d="M683 1826 c5 -16 24 -18 30 -2 4 10 0 14 -14 13 -10 -1 -18 -6 -16
-11z"/>
<path d="M735 1831 c-7 -12 12 -24 25 -16 11 7 4 25 -10 25 -5 0 -11 -4 -15
-9z"/>
<path d="M1944 1774 c-4 -10 -14 -28 -23 -38 -14 -16 -14 -18 -1 -14 17 5 45
56 36 65 -3 3 -9 -3 -12 -13z"/>
<path d="M1630 1749 c0 -5 5 -7 10 -4 6 3 10 8 10 11 0 2 -4 4 -10 4 -5 0 -10
-5 -10 -11z"/>
<path d="M1115 1717 c-16 -7 -39 -17 -51 -24 -28 -16 -56 -74 -43 -89 5 -6 7
-27 5 -46 -4 -28 0 -40 17 -56 31 -29 105 -46 148 -34 32 8 30 9 -22 9 -35 0
-71 7 -95 19 -38 19 -38 19 -40 86 -2 64 -1 69 28 93 17 14 44 29 59 32 16 3
29 9 29 14 0 5 -1 9 -2 8 -2 0 -16 -6 -33 -12z"/>
<path d="M1183 1723 c15 -2 39 -2 55 0 15 2 2 4 -28 4 -30 0 -43 -2 -27 -4z"/>
<path d="M1535 1678 c2 -36 9 -63 19 -73 19 -19 20 -31 5 -40 -6 -4 -8 -14 -5
-22 3 -8 1 -11 -4 -8 -6 3 -10 1 -10 -5 0 -15 -63 -41 -74 -30 -5 5 -1 23 8
41 21 43 21 44 -10 20 -15 -12 -33 -21 -40 -21 -8 0 -14 -5 -14 -11 0 -6 9 -8
20 -4 14 4 20 2 20 -9 0 -8 3 -21 6 -29 4 -12 0 -14 -16 -10 -13 3 -19 11 -16
19 3 8 1 14 -4 14 -6 0 -10 -9 -10 -20 0 -12 -7 -32 -16 -45 -10 -15 -13 -32
-9 -46 6 -17 9 -19 16 -8 12 19 11 32 -1 24 -5 -3 -10 -1 -10 4 0 6 5 11 10
11 6 0 10 7 10 16 0 9 6 14 13 11 13 -5 102 37 112 52 3 5 14 8 25 6 17 -3 19
0 14 21 -3 13 -1 31 5 38 8 10 9 16 1 21 -6 3 -8 11 -5 16 4 5 -1 9 -9 9 -9 0
-16 8 -15 18 0 10 3 12 6 5 2 -7 12 -13 21 -13 13 0 12 2 -3 14 -11 8 -24 12
-28 9 -5 -3 -6 3 -3 14 4 11 2 31 -3 44 -7 18 -8 10 -6 -33z"/>
<path d="M1319 1699 c18 -11 35 -18 38 -15 5 5 -50 36 -64 36 -4 0 7 -9 26
-21z"/>
<path d="M1794 1704 c-10 -8 -12 -12 -4 -7 8 4 38 10 65 14 l50 6 -46 2 c-28
0 -52 -5 -65 -15z"/>
<path d="M1899 1679 c-30 -3 -64 -11 -75 -18 -18 -12 -18 -12 1 -5 11 4 55 9
97 12 75 4 78 3 107 -26 17 -16 33 -42 36 -58 3 -16 15 -58 26 -93 12 -38 16
-68 11 -75 -14 -18 -23 -48 -12 -41 6 3 10 11 10 17 0 6 7 16 16 23 15 10 14
15 -4 51 -11 21 -25 64 -31 95 -20 94 -75 131 -182 118z"/>
<path d="M1368 1663 c-16 -2 -28 -8 -28 -13 0 -7 47 1 85 15 13 4 -22 3 -57
-2z"/>
<path d="M1774 1658 c-4 -7 -14 -24 -23 -38 l-15 -25 23 23 c12 12 26 20 32
17 5 -4 9 1 9 9 0 20 -17 29 -26 14z"/>
<path d="M1401 1643 c-1 -8 -14 -13 -33 -13 -46 0 -27 -11 24 -14 24 -1 49 -5
56 -10 7 -4 16 -5 19 -2 4 3 1 6 -6 6 -7 0 -9 5 -5 11 4 7 19 8 37 5 22 -5 28
-3 21 4 -6 6 -28 13 -50 16 -29 4 -35 3 -24 -5 13 -9 11 -11 -7 -11 -12 0 -24
6 -26 13 -4 10 -6 10 -6 0z"/>
<path d="M1632 1611 c44 -6 77 -21 49 -21 -8 0 -7 -5 3 -16 23 -22 20 -32 -9
-26 -15 2 -22 9 -18 16 4 6 -1 4 -12 -4 -17 -14 -16 -15 16 -22 19 -4 46 -10
60 -13 18 -5 31 -1 42 10 21 21 22 35 1 35 -10 0 -14 -6 -10 -15 10 -28 -39
-18 -52 10 -12 25 -4 33 14 15 14 -14 74 8 74 27 0 12 -3 12 -21 0 -15 -11
-29 -12 -57 -5 -20 6 -57 12 -82 13 l-45 4 47 -8z"/>
<path d="M1840 1606 c19 -8 44 -15 55 -15 17 0 16 2 -5 11 -14 5 -38 12 -55
14 -29 3 -29 3 5 -10z"/>
<path d="M2424 1605 c-4 -9 -4 -18 -2 -21 9 -8 39 8 35 19 -6 18 -27 20 -33 2z"/>
<path d="M1941 1603 c0 -5 4 -17 9 -28 8 -18 9 -17 9 8 1 15 -3 27 -9 27 -5 0
-10 -3 -9 -7z"/>
<path d="M1371 1592 c0 -7 -5 -10 -11 -7 -5 3 -10 2 -10 -3 0 -6 -19 -21 -43
-35 -45 -27 -87 -67 -69 -67 6 0 14 5 17 11 4 6 25 24 48 40 38 27 41 28 59
12 17 -16 17 -17 -9 -46 -16 -16 -37 -39 -48 -51 -11 -11 -31 -28 -43 -36 -28
-18 -44 -85 -35 -140 3 -19 32 -75 64 -123 33 -49 59 -91 59 -95 0 -4 9 -13
20 -20 19 -11 20 -10 19 25 -1 36 -2 36 -8 9 -5 -24 -8 -26 -17 -15 -23 28
-26 59 -8 87 21 33 75 81 91 82 21 0 43 56 43 108 0 39 5 53 25 72 22 21 25
22 25 5 0 -24 6 -17 14 20 l7 30 -40 -40 c-37 -36 -41 -44 -41 -90 0 -51 -20
-95 -44 -95 -6 0 -27 -15 -46 -34 -33 -32 -35 -33 -48 -15 -7 10 -23 18 -35
18 l-22 -2 23 -4 c30 -6 42 -32 30 -63 -8 -18 -12 -21 -16 -10 -3 8 -16 29
-29 46 -12 17 -20 34 -15 39 4 5 2 5 -4 2 -13 -8 -38 36 -31 55 3 8 8 4 15
-12 6 -14 11 -19 11 -11 1 8 -6 23 -16 33 -10 11 -16 33 -15 59 2 37 10 48 81
118 45 45 76 82 71 87 -5 5 -10 23 -13 39 -2 17 -5 24 -6 17z"/>
<path d="M1400 1589 c-12 -9 -12 -10 4 -5 11 4 23 1 28 -6 7 -10 9 -10 6 1 -6
20 -20 23 -38 10z"/>
<path d="M1515 1590 c4 -6 11 -8 16 -5 14 9 11 15 -7 15 -8 0 -12 -5 -9 -10z"/>
<path d="M1834 1571 c7 -10 3 -12 -15 -6 -19 5 -21 4 -9 -4 8 -6 25 -11 37
-11 22 0 63 -46 63 -72 1 -8 4 -7 11 4 7 14 5 22 -8 36 -26 27 -88 68 -79 53z"/>
<path d="M1917 1573 c-3 -5 -1 -17 3 -28 6 -17 7 -16 12 8 5 25 -5 37 -15 20z"/>
<path d="M2300 1569 c0 -4 11 -6 25 -6 14 0 25 3 25 8 0 5 -11 8 -25 7 -14 -1
-25 -5 -25 -9z"/>
<path d="M1227 1563 c-4 -3 -7 -13 -7 -22 1 -13 3 -13 11 2 11 19 8 33 -4 20z"/>
<path d="M1595 1534 c4 -16 9 -45 11 -64 l4 -35 -14 30 -15 30 4 -29 c4 -26
19 -45 36 -46 8 0 3 61 -6 91 -5 14 -4 19 4 15 18 -12 13 -2 -10 18 -22 18
-22 18 -14 -10z"/>
<path d="M2412 1548 c3 -7 12 -14 21 -16 12 -2 15 1 11 12 -7 19 -38 22 -32 4z"/>
<path d="M1946 1534 c-5 -14 -4 -15 9 -4 17 14 19 20 6 20 -5 0 -12 -7 -15
-16z"/>
<path d="M693 1518 c-14 -7 -23 -19 -22 -32 1 -17 2 -18 6 -3 2 9 8 15 13 12
5 -3 7 -12 3 -20 -4 -11 2 -15 18 -14 17 0 20 2 9 7 -19 9 -22 42 -4 42 12 0
34 -37 34 -55 0 -2 -17 -6 -37 -8 l-38 -4 38 -1 c24 -1 37 -7 37 -16 0 -7 7
-19 15 -26 16 -13 21 0 6 16 -5 5 -12 29 -15 53 -2 24 -11 48 -18 52 -16 11
-17 10 -45 -3z"/>
<path d="M1658 1512 c-3 -11 1 -18 11 -19 9 -1 31 -4 49 -7 19 -3 30 -1 27 4
-4 6 -15 10 -25 10 -28 0 -51 11 -44 21 3 5 1 9 -4 9 -5 0 -12 -8 -14 -18z"/>
<path d="M2303 1517 c5 -17 37 -21 37 -5 0 8 -9 14 -21 15 -12 1 -19 -3 -16
-10z"/>
<path d="M2410 1510 c0 -6 7 -10 15 -10 8 0 15 2 15 4 0 2 -7 6 -15 10 -8 3
-15 1 -15 -4z"/>
<path d="M80 1490 c-10 -6 -11 -10 -2 -10 7 0 12 -13 12 -32 1 -31 1 -32 15
-14 12 15 12 22 3 27 -25 16 6 24 75 21 75 -3 107 -6 145 -16 12 -3 30 -8 40
-10 61 -15 172 -66 172 -78 0 -5 -4 -7 -9 -4 -5 4 -7 -3 -4 -14 4 -15 1 -18
-15 -15 -11 2 -32 11 -46 20 -14 10 -26 13 -26 8 0 -5 27 -22 60 -38 33 -16
68 -37 77 -47 13 -14 18 -16 25 -6 5 9 8 6 8 -9 0 -27 -12 -30 -30 -7 -8 8
-23 20 -34 26 -12 6 -2 -6 21 -26 l42 -37 4 -82 3 -82 0 93 c-1 50 1 93 4 95
3 1 4 26 2 54 -2 29 -8 51 -12 48 -4 -3 -11 2 -14 11 -3 8 -10 12 -16 9 -5 -3
-10 -1 -10 5 0 12 -88 54 -173 82 -96 31 -286 48 -317 28z m504 -132 c-3 -5 2
-11 10 -14 18 -7 22 -39 6 -49 -16 -10 -59 28 -60 52 0 18 5 22 24 21 14 -1
22 -6 20 -10z"/>
<path d="M575 1320 c-3 -5 1 -10 10 -10 9 0 13 5 10 10 -3 6 -8 10 -10 10 -2
0 -7 -4 -10 -10z"/>
<path d="M1550 1485 c0 -8 -7 -15 -17 -15 -9 0 -13 -3 -9 -7 3 -4 -6 -12 -21
-19 -24 -10 -25 -13 -7 -13 11 -1 32 12 47 27 29 30 33 42 17 42 -5 0 -10 -7
-10 -15z"/>
<path d="M1770 1490 c0 -5 5 -10 10 -10 6 0 10 5 10 10 0 6 -4 10 -10 10 -5 0
-10 -4 -10 -10z"/>
<path d="M1630 1480 c0 -5 5 -10 11 -10 5 0 7 5 4 10 -3 6 -8 10 -11 10 -2 0
-4 -4 -4 -10z"/>
<path d="M1660 1473 c0 -6 21 -33 46 -60 39 -40 41 -42 15 -8 -23 29 -27 41
-18 48 9 6 8 7 -3 4 -8 -2 -20 3 -27 12 -7 9 -13 11 -13 4z"/>
<path d="M2300 1463 c0 -8 5 -13 12 -11 18 6 21 25 3 25 -8 0 -15 -7 -15 -14z"/>
<path d="M2400 1465 c0 -10 7 -15 18 -13 21 4 19 22 -2 26 -10 2 -16 -3 -16
-13z"/>
<path d="M227 1454 c-3 -3 -3 -13 0 -22 4 -13 2 -13 -9 2 -11 13 -17 16 -22 7
-4 -6 -11 -9 -16 -6 -5 3 -12 1 -15 -5 -5 -8 -11 -8 -20 0 -9 8 -15 8 -20 0
-3 -5 -3 -10 2 -11 4 0 34 -2 67 -4 32 -3 67 -7 78 -11 14 -4 18 -2 14 5 -4 6
-12 11 -17 11 -15 0 -39 26 -32 34 4 3 4 6 1 6 -2 0 -7 -3 -11 -6z"/>
<path d="M280 1445 c0 -8 2 -15 4 -15 2 0 6 7 10 15 3 8 1 15 -4 15 -6 0 -10
-7 -10 -15z"/>
<path d="M662 1440 c0 -14 2 -19 5 -12 2 6 2 18 0 25 -3 6 -5 1 -5 -13z"/>
<path d="M1720 1448 c0 -4 16 -8 37 -8 30 0 45 -9 89 -50 51 -48 56 -51 96
-46 24 3 63 12 88 21 25 8 32 12 15 9 -139 -27 -138 -27 -213 40 -35 31 -112
55 -112 34z"/>
<path d="M303 1408 c-2 -16 1 -17 13 -8 8 8 14 8 14 2 0 -5 17 -10 37 -10 21
0 39 -5 41 -11 7 -22 22 -10 21 17 -1 15 -3 20 -6 10 -4 -15 -7 -15 -40 -2
-19 8 -38 13 -40 10 -3 -3 -13 -1 -22 4 -13 6 -17 4 -18 -12z"/>
<path d="M676 1414 c-3 -8 -10 -13 -15 -10 -4 3 -16 -2 -24 -12 -15 -16 -15
-18 4 -19 11 -1 26 9 36 23 9 14 21 23 28 20 6 -2 18 0 26 5 10 6 5 9 -17 9
-20 0 -34 -6 -38 -16z"/>
<path d="M2294 1422 c3 -5 1 -12 -6 -14 -8 -3 -9 -6 -1 -11 6 -4 13 0 17 8 3
8 0 17 -6 21 -6 4 -8 3 -4 -4z"/>
<path d="M2840 1399 c-25 -24 -70 -120 -70 -150 0 -9 -22 -60 -50 -115 -27
-54 -50 -112 -50 -127 0 -34 -11 -56 -62 -124 -24 -31 -48 -80 -60 -120 -11
-38 -32 -80 -46 -96 -22 -23 -24 -31 -15 -47 10 -15 9 -25 -3 -49 -8 -17 -19
-33 -25 -36 -20 -13 -7 -36 32 -55 38 -20 42 -20 59 -5 10 9 21 37 25 63 4 26
11 52 15 57 16 20 -8 39 -48 39 -40 1 -42 7 -12 36 13 12 40 61 44 77 1 10 6
26 11 36 4 10 5 20 2 23 -3 4 6 17 19 29 14 13 25 26 25 29 -1 17 13 36 28 37
11 0 12 2 3 6 -8 3 -10 9 -3 16 15 19 50 118 39 111 -13 -8 14 38 30 51 7 6
12 15 11 20 -4 15 29 85 40 85 5 0 7 9 4 21 -3 12 -1 24 6 28 6 4 13 22 15 40
2 18 8 36 12 40 5 3 9 12 9 20 0 8 5 16 12 18 9 3 12 -25 11 -111 -1 -64 -5
-116 -10 -116 -4 0 -8 -5 -8 -11 0 -5 5 -7 10 -4 7 4 10 -8 9 -32 -1 -21 0
-76 1 -123 2 -95 -12 -142 -39 -132 -13 5 -14 3 -4 -9 10 -13 7 -22 -17 -50
-70 -84 -100 -121 -120 -155 -14 -21 -25 -31 -29 -25 -5 8 -13 6 -27 -4 -16
-13 -17 -16 -4 -25 8 -5 20 -8 25 -7 6 2 39 41 74 88 35 46 70 88 77 92 8 4
24 27 35 50 12 23 28 49 35 58 12 13 14 68 12 299 l-3 284 -25 -25z m-275
-782 c17 -13 17 -16 1 -47 -9 -18 -16 -41 -16 -51 0 -10 -5 -21 -12 -25 -8 -5
-9 -2 -5 9 3 10 2 17 -3 17 -6 0 -10 -7 -10 -15 0 -18 -14 -19 -28 -2 -8 9 -6
24 8 54 10 23 16 44 13 47 -8 7 7 26 21 26 7 0 20 -6 31 -13z"/>
<path d="M90 1383 c0 -22 2 -25 10 -13 7 10 10 11 10 2 0 -7 -7 -15 -15 -18
-11 -5 -15 -23 -15 -75 0 -57 3 -67 15 -63 8 4 15 1 15 -5 0 -6 -6 -10 -12 -8
-18 3 -24 -103 -6 -115 10 -6 10 -10 1 -16 -12 -8 -9 -54 4 -75 4 -6 1 -7 -7
-2 -8 5 -11 3 -8 -6 3 -8 12 -15 21 -17 14 -3 17 7 17 70 0 40 2 139 3 221 2
134 0 147 -15 147 -13 0 -18 -8 -18 -27z m17 -75 c-3 -8 -6 -5 -6 6 -1 11 2
17 5 13 3 -3 4 -12 1 -19z m3 -50 c0 -36 -10 -32 -14 6 -2 14 1 26 5 26 5 0 9
-14 9 -32z m0 -118 c0 -5 -5 -10 -11 -10 -5 0 -7 5 -4 10 3 6 8 10 11 10 2 0
4 -4 4 -10z"/>
<path d="M736 1398 c3 -10 -1 -18 -13 -21 -11 -4 -9 -5 7 -4 19 2 25 -3 26
-21 1 -12 5 -26 9 -30 4 -4 6 0 5 8 -4 25 0 40 9 40 5 0 10 -69 10 -157 1 -87
4 -179 7 -205 6 -41 4 -48 -10 -48 -14 0 -17 8 -16 38 4 77 0 205 -6 199 -3
-3 -6 -48 -5 -101 1 -55 -3 -97 -9 -101 -5 -3 -10 1 -10 9 0 8 -4 18 -10 21
-6 4 -7 -2 -1 -17 5 -13 14 -22 20 -20 6 1 11 -7 11 -17 0 -17 9 -20 68 -23
37 -2 94 0 127 3 51 5 45 6 -42 7 l-103 2 0 63 c-1 34 -3 107 -5 162 -2 55 -4
124 -4 153 -1 49 -3 53 -22 47 -14 -5 -25 -1 -35 12 -11 15 -13 15 -8 1z"/>
<path d="M1620 1375 c0 -8 4 -15 10 -15 5 0 7 7 4 15 -4 8 -8 15 -10 15 -2 0
-4 -7 -4 -15z"/>
<path d="M1685 1381 c-3 -5 -1 -12 5 -16 5 -3 10 1 10 9 0 18 -6 21 -15 7z"/>
<path d="M361 1180 c-2 -170 0 -203 14 -216 8 -9 21 -13 28 -11 6 3 8 6 2 6
-6 1 -10 70 -9 188 1 162 -1 189 -15 200 -14 11 -14 12 4 13 17 0 17 2 5 10
-8 5 -18 10 -21 10 -3 0 -6 -90 -8 -200z m16 -142 c-3 -8 -6 -5 -6 6 -1 11 2
17 5 13 3 -3 4 -12 1 -19z m0 -40 c-3 -8 -6 -5 -6 6 -1 11 2 17 5 13 3 -3 4
-12 1 -19z"/>
<path d="M1542 1343 c-29 -95 -33 -123 -22 -163 20 -73 60 -101 165 -116 36
-5 28 -2 -46 20 -113 34 -135 104 -83 274 3 12 4 22 2 22 -3 0 -10 -17 -16
-37z"/>
<path d="M2256 1349 c-15 -30 -14 -49 4 -49 4 0 6 9 3 20 -4 14 0 20 11 20 17
0 22 25 7 35 -5 3 -16 -9 -25 -26z"/>
<path d="M1426 1355 c4 -8 0 -22 -7 -31 -16 -20 -58 -10 -81 19 -10 12 -18 17
-18 10 0 -6 5 -15 11 -19 6 -3 9 -15 6 -25 -4 -15 -2 -17 13 -9 12 6 21 7 25
0 7 -12 36 -2 53 18 14 19 16 52 2 52 -5 0 -7 -7 -4 -15z"/>
<path d="M342 1330 c0 -19 2 -27 5 -17 2 9 2 25 0 35 -3 9 -5 1 -5 -18z"/>
<path d="M637 1346 c-4 -10 -1 -13 9 -9 7 3 14 9 14 14 0 14 -17 10 -23 -5z"/>
<path d="M1776 1309 c15 -30 31 -70 35 -89 6 -29 7 -31 8 -9 1 28 -43 134 -60
145 -6 3 2 -18 17 -47z"/>
<path d="M1395 1340 c-3 -5 -1 -10 4 -10 6 0 11 5 11 10 0 6 -2 10 -4 10 -3 0
-8 -4 -11 -10z"/>
<path d="M2370 1338 c0 -11 28 -10 35 1 3 6 -4 9 -15 8 -11 -1 -20 -5 -20 -9z"/>
<path d="M1705 1330 c3 -5 13 -10 21 -10 8 0 14 5 14 10 0 6 -9 10 -21 10 -11
0 -17 -4 -14 -10z"/>
<path d="M635 1300 c-3 -6 1 -7 9 -4 18 7 21 14 7 14 -6 0 -13 -4 -16 -10z"/>
<path d="M2357 1303 c-7 -6 11 -33 22 -33 4 0 7 9 7 20 0 19 -16 27 -29 13z"/>
<path d="M1575 1280 c-10 -11 -15 -20 -11 -20 11 0 39 30 34 36 -3 2 -13 -5
-23 -16z"/>
<path d="M751 1269 c4 -32 -2 -60 -11 -54 -5 3 -10 1 -10 -4 0 -13 11 -14 25
-3 15 10 18 59 5 67 -6 4 -11 1 -9 -6z"/>
<path d="M1930 1261 c-14 -28 -13 -33 8 -20 10 7 19 18 19 25 0 20 -15 17 -27
-5z"/>
<path d="M2037 1266 c-4 -10 -5 -21 -2 -24 9 -9 17 6 13 25 -3 17 -4 17 -11
-1z"/>
<path d="M2222 1264 c-19 -20 -4 -38 15 -18 9 9 12 19 7 24 -5 5 -15 2 -22 -6z"/>
<path d="M1973 1240 c-1 -11 2 -18 8 -15 11 7 12 35 1 35 -4 0 -8 -9 -9 -20z"/>
<path d="M2180 1226 c0 -15 27 -29 34 -18 3 5 -4 13 -15 20 -15 10 -19 10 -19
-2z"/>
<path d="M630 1215 c0 -9 6 -12 15 -9 8 4 15 7 15 9 0 2 -7 5 -15 9 -9 3 -15
0 -15 -9z"/>
<path d="M2310 1208 c0 -10 7 -18 15 -18 8 0 18 0 22 -1 4 0 9 4 11 9 2 6 -5
9 -15 8 -10 -2 -21 2 -25 8 -5 7 -8 4 -8 -6z"/>
<path d="M1409 1154 c-12 -25 -19 -47 -17 -50 2 -2 14 19 25 46 12 28 19 50
17 50 -3 0 -14 -21 -25 -46z"/>
<path d="M631 1080 c0 -102 1 -110 19 -110 21 0 36 17 25 28 -4 4 -10 1 -12
-5 -10 -27 -21 -11 -13 17 5 17 5 28 0 25 -4 -3 -7 6 -6 20 0 14 5 25 10 25 5
0 4 6 -2 13 -7 8 -7 18 -2 27 5 8 5 22 -1 32 -6 10 -7 23 -4 28 3 6 2 10 -4
10 -6 0 -10 -43 -10 -110z"/>
<path d="M697 1174 c-3 -4 1 -13 9 -21 19 -20 26 -13 10 9 -7 10 -16 15 -19
12z"/>
<path d="M1792 1155 c-17 -37 -14 -45 4 -12 9 16 14 31 11 33 -2 2 -9 -7 -15
-21z"/>
<path d="M2283 1166 c0 -8 9 -17 19 -19 22 -6 23 0 4 19 -18 18 -23 18 -23 0z"/>
<path d="M2122 1128 c5 -15 28 -23 28 -10 0 5 -7 13 -16 16 -10 4 -14 1 -12
-6z"/>
<path d="M2257 1114 c-13 -13 -7 -24 14 -24 11 0 19 5 17 12 -5 14 -22 21 -31
12z"/>
<path d="M1749 1084 c-22 -25 -22 -26 -3 -16 12 6 24 18 28 27 8 21 3 19 -25
-11z"/>
<path d="M2090 1100 c0 -13 28 -25 38 -16 3 4 0 11 -8 16 -20 13 -30 12 -30 0z"/>
<path d="M2225 1060 c3 -5 10 -10 16 -10 5 0 9 5 9 10 0 6 -7 10 -16 10 -8 0
-12 -4 -9 -10z"/>
<path d="M695 1049 c-4 -6 -5 -12 -2 -15 2 -3 7 2 10 11 7 17 1 20 -8 4z"/>
<path d="M2025 1040 c-8 -13 4 -32 16 -25 12 8 12 35 0 35 -6 0 -13 -4 -16
-10z"/>
<path d="M2193 1037 c2 -20 19 -25 26 -6 2 6 -1 9 -7 5 -6 -3 -13 0 -16 6 -3
7 -5 5 -3 -5z"/>
<path d="M2725 1040 c-3 -5 -1 -10 4 -10 6 0 11 5 11 10 0 6 -2 10 -4 10 -3 0
-8 -4 -11 -10z"/>
<path d="M2652 1010 c0 -14 2 -19 5 -12 2 6 2 18 0 25 -3 6 -5 1 -5 -13z"/>
<path d="M695 1010 c3 -5 8 -10 11 -10 2 0 4 5 4 10 0 6 -5 10 -11 10 -5 0 -7
-4 -4 -10z"/>
<path d="M1980 1006 c0 -9 7 -16 16 -16 9 0 14 5 12 12 -6 18 -28 21 -28 4z"/>
<path d="M2173 1013 c4 -6 1 -13 -5 -16 -9 -3 -10 -8 -3 -15 7 -7 14 -6 22 3
10 10 9 16 -4 27 -10 7 -14 8 -10 1z"/>
<path d="M1945 980 c-8 -13 4 -32 16 -25 12 8 12 35 0 35 -6 0 -13 -4 -16 -10z"/>
<path d="M2136 975 c4 -8 10 -15 15 -15 4 0 6 7 3 15 -4 8 -10 15 -15 15 -4 0
-6 -7 -3 -15z"/>
<path d="M515 959 l-100 -5 113 -2 c61 -1 112 0 112 2 0 9 -31 11 -125 5z"/>
<path d="M240 943 c0 -15 2 -15 9 -4 7 11 10 10 14 -5 4 -17 5 -17 6 -1 1 14
8 16 34 13 19 -2 40 0 48 5 9 6 -8 9 -48 9 -53 0 -63 -3 -63 -17z"/>
<path d="M688 953 c12 -2 32 -2 45 0 12 2 2 4 -23 4 -25 0 -35 -2 -22 -4z"/>
<path d="M1020 957 c5 -5 159 -16 363 -26 l27 -1 0 -251 0 -250 -36 6 c-30 4
-35 3 -30 -11 3 -8 6 -21 6 -27 0 -8 4 -7 12 1 18 18 46 15 51 -5 3 -10 6 40
7 112 3 139 0 428 -5 433 -6 7 -52 10 -220 17 -99 4 -178 5 -175 2z"/>
<path d="M1905 940 c3 -5 8 -10 11 -10 2 0 4 5 4 10 0 6 -5 10 -11 10 -5 0 -7
-4 -4 -10z"/>
<path d="M1880 929 c0 -5 -4 -7 -10 -4 -5 3 -10 -1 -10 -9 0 -10 6 -13 15 -10
14 6 22 34 10 34 -3 0 -5 -5 -5 -11z"/>
<path d="M2050 932 c0 -5 6 -15 14 -21 11 -9 15 -8 20 6 4 10 4 14 0 10 -4 -4
-13 -2 -21 4 -8 7 -13 8 -13 1z"/>
<path d="M980 920 c0 -5 5 -10 11 -10 5 0 7 5 4 10 -3 6 -8 10 -11 10 -2 0 -4
-4 -4 -10z"/>
<path d="M273 908 c-19 -9 -23 -19 -23 -55 0 -24 5 -43 11 -43 6 0 8 9 4 21
-5 15 -4 19 4 15 6 -4 11 -3 11 3 0 5 -5 11 -11 13 -16 5 -1 34 24 46 12 6 18
11 12 11 -5 0 -20 -5 -32 -11z"/>
<path d="M915 910 c-3 -6 1 -7 9 -4 18 7 21 14 7 14 -6 0 -13 -4 -16 -10z"/>
<path d="M1146 911 c-3 -5 3 -11 15 -14 16 -4 18 -3 8 9 -13 16 -16 17 -23 5z"/>
<path d="M1806 913 c-3 -3 -3 -10 0 -14 7 -12 34 -11 34 0 0 11 -26 22 -34 14z"/>
<path d="M2037 904 c4 -12 3 -15 -5 -10 -7 4 -12 2 -12 -3 0 -6 7 -11 15 -11
17 0 20 25 5 35 -6 4 -7 -1 -3 -11z"/>
<path d="M91 894 c0 -11 3 -14 6 -6 3 7 2 16 -1 19 -3 4 -6 -2 -5 -13z"/>
<path d="M234 820 c0 -52 1 -74 3 -47 2 26 2 68 0 95 -2 26 -3 4 -3 -48z"/>
<path d="M1760 896 c0 -9 5 -16 10 -16 6 0 10 4 10 9 0 6 -4 13 -10 16 -5 3
-10 -1 -10 -9z"/>
<path d="M1710 879 c0 -24 23 -21 28 4 2 10 -3 17 -12 17 -10 0 -16 -9 -16
-21z"/>
<path d="M2147 893 c-4 -3 -7 -11 -7 -17 0 -6 5 -5 12 2 6 6 9 14 7 17 -3 3
-9 2 -12 -2z"/>
<path d="M1250 880 c0 -5 5 -10 11 -10 5 0 7 5 4 10 -3 6 -8 10 -11 10 -2 0
-4 -4 -4 -10z"/>
<path d="M1970 870 c0 -11 7 -20 15 -20 8 0 15 9 15 20 0 11 -7 20 -15 20 -8
0 -15 -9 -15 -20z"/>
<path d="M1570 866 c0 -8 4 -17 9 -21 6 -3 9 4 8 15 -1 23 -17 28 -17 6z"/>
<path d="M685 859 c-4 -6 -5 -12 -2 -15 2 -3 7 2 10 11 7 17 1 20 -8 4z"/>
<path d="M1058 863 c7 -3 16 -2 19 1 4 3 -2 6 -13 5 -11 0 -14 -3 -6 -6z"/>
<path d="M1615 860 c-3 -5 1 -10 10 -10 9 0 13 5 10 10 -3 6 -8 10 -10 10 -2
0 -7 -4 -10 -10z"/>
<path d="M375 840 c-3 -5 -1 -10 4 -10 6 0 11 5 11 10 0 6 -2 10 -4 10 -3 0
-8 -4 -11 -10z"/>
<path d="M610 846 c0 -2 7 -7 16 -10 8 -3 12 -2 9 4 -6 10 -25 14 -25 6z"/>
<path d="M800 839 c0 -5 5 -7 10 -4 6 3 10 8 10 11 0 2 -4 4 -10 4 -5 0 -10
-5 -10 -11z"/>
<path d="M1018 833 c7 -3 16 -2 19 1 4 3 -2 6 -13 5 -11 0 -14 -3 -6 -6z"/>
<path d="M1866 824 c-9 -22 -8 -23 14 -21 23 2 25 10 6 26 -11 9 -15 8 -20 -5z"/>
<path d="M340 811 c-7 -15 -7 -22 2 -27 7 -4 10 -4 6 1 -4 4 -3 16 3 26 5 11
7 19 5 19 -3 0 -10 -9 -16 -19z"/>
<path d="M415 819 c-4 -6 -5 -12 -2 -15 2 -3 7 2 10 11 7 17 1 20 -8 4z"/>
<path d="M2067 822 c-3 -4 1 -15 8 -25 8 -12 15 -14 20 -8 3 6 0 18 -9 26 -8
8 -17 12 -19 7z"/>
<path d="M1823 800 c1 -20 8 -25 20 -14 7 8 -3 34 -13 34 -5 0 -8 -9 -7 -20z"/>
<path d="M2536 805 c-3 -9 -6 -22 -5 -28 0 -7 5 -1 10 12 5 13 8 26 5 28 -2 2
-6 -3 -10 -12z"/>
<path d="M610 799 c0 -5 5 -7 10 -4 6 3 10 8 10 11 0 2 -4 4 -10 4 -5 0 -10
-5 -10 -11z"/>
<path d="M945 799 c-4 -6 -5 -12 -2 -15 2 -3 7 2 10 11 7 17 1 20 -8 4z"/>
<path d="M1011 794 c0 -11 3 -14 6 -6 3 7 2 16 -1 19 -3 4 -6 -2 -5 -13z"/>
<path d="M1090 806 c0 -2 7 -7 16 -10 8 -3 12 -2 9 4 -6 10 -25 14 -25 6z"/>
<path d="M672 780 c-17 -27 -15 -35 4 -16 8 9 14 21 12 26 -2 6 -9 1 -16 -10z"/>
<path d="M1741 787 c-6 -8 -8 -17 -4 -20 12 -12 19 -7 19 13 0 24 0 24 -15 7z"/>
<path d="M1780 785 c0 -9 6 -12 15 -9 8 4 12 10 9 15 -8 14 -24 10 -24 -6z"/>
<path d="M250 781 c0 -6 9 -9 19 -8 11 0 17 5 15 9 -7 11 -34 10 -34 -1z"/>
<path d="M1035 780 c-3 -6 1 -7 9 -4 18 7 21 14 7 14 -6 0 -13 -4 -16 -10z"/>
<path d="M1146 777 c3 -10 9 -15 12 -12 3 3 0 11 -7 18 -10 9 -11 8 -5 -6z"/>
<path d="M2024 779 c-10 -17 13 -36 27 -22 12 12 4 33 -11 33 -5 0 -12 -5 -16
-11z"/>
<path d="M1550 763 c0 -13 5 -23 10 -23 13 0 13 11 0 30 -8 12 -10 11 -10 -7z"/>
<path d="M1611 772 c0 -7 -5 -11 -10 -7 -5 3 -12 1 -15 -4 -6 -9 23 -25 31
-17 3 2 3 13 0 23 -3 10 -5 12 -6 5z"/>
<path d="M2706 764 c-3 -9 -6 -23 -6 -32 1 -12 5 -10 15 8 8 14 14 28 15 33 0
13 -18 7 -24 -9z"/>
<path d="M555 760 c-3 -5 1 -10 10 -10 9 0 13 5 10 10 -3 6 -8 10 -10 10 -2 0
-7 -4 -10 -10z"/>
<path d="M776 755 c4 -8 8 -15 10 -15 2 0 4 7 4 15 0 8 -4 15 -10 15 -5 0 -7
-7 -4 -15z"/>
<path d="M1637 763 c-12 -12 -7 -22 8 -17 8 4 15 10 15 15 0 11 -14 12 -23 2z"/>
<path d="M1990 750 c0 -13 5 -18 14 -14 8 3 12 12 9 20 -8 21 -23 17 -23 -6z"/>
<path d="M250 738 c0 -12 3 -17 8 -12 4 5 11 12 15 15 5 3 2 9 -7 12 -12 5
-16 0 -16 -15z"/>
<path d="M327 740 c3 -11 9 -22 13 -25 5 -3 6 4 3 15 -3 11 -9 22 -13 25 -5 3
-6 -4 -3 -15z"/>
<path d="M473 735 c2 -22 -3 -30 -18 -33 -11 -2 -24 -9 -30 -14 -7 -7 0 -8 20
-4 17 4 38 7 48 7 14 0 16 3 8 13 -7 9 -7 16 2 25 9 10 9 11 -5 6 -11 -4 -18
0 -21 12 -3 10 -5 5 -4 -12z"/>
<path d="M742 744 c-7 -8 -22 -14 -33 -14 -11 0 -39 -10 -62 -21 -42 -22 -54
-24 -50 -9 3 10 -35 1 -42 -10 -3 -4 10 -10 27 -14 24 -5 41 0 70 19 20 14 46
25 57 25 28 0 91 -29 97 -44 7 -18 57 -39 81 -34 12 3 3 9 -27 19 -25 9 -49
24 -55 35 -5 10 -16 19 -22 20 -46 4 -46 3 -33 19 16 20 9 28 -8 9z"/>
<path d="M525 740 c-3 -5 1 -10 10 -10 9 0 13 5 10 10 -3 6 -8 10 -10 10 -2 0
-7 -4 -10 -10z"/>
<path d="M1942 741 c-10 -6 -10 -10 3 -21 13 -11 15 -9 15 9 0 24 0 24 -18 12z"/>
<path d="M1131 712 c-12 -18 -18 -32 -12 -32 6 0 11 4 11 10 0 13 64 24 168
29 17 0 32 5 32 10 0 10 -71 8 -89 -3 -6 -4 -11 -2 -11 3 0 6 -5 11 -11 11 -5
0 -7 -4 -4 -10 4 -6 -6 -10 -24 -10 -16 0 -31 5 -33 12 -2 6 -14 -3 -27 -20z"/>
<path d="M876 721 c-4 -5 3 -7 14 -4 23 6 26 13 6 13 -8 0 -17 -4 -20 -9z"/>
<path d="M1085 720 c-3 -5 -1 -10 4 -10 6 0 11 5 11 10 0 6 -2 10 -4 10 -3 0
-8 -4 -11 -10z"/>
<path d="M1040 716 c0 -2 8 -10 18 -17 15 -13 16 -12 3 4 -13 16 -21 21 -21
13z"/>
<path d="M1330 709 c0 -5 17 -9 37 -9 20 0 33 3 29 7 -11 11 -66 12 -66 2z"/>
<path d="M1892 708 c5 -15 28 -18 29 -3 0 6 -7 12 -17 13 -10 3 -15 -1 -12
-10z"/>
<path d="M226 664 c-3 -26 -6 -123 -6 -215 l0 -169 60 0 c50 0 60 -3 61 -17 0
-11 3 -13 6 -6 5 13 193 17 566 13 78 -1 123 3 133 11 11 9 14 9 14 -1 0 -9 4
-9 17 1 11 10 14 10 9 2 -5 -9 1 -13 21 -13 19 0 24 3 14 9 -8 5 -9 11 -3 15
6 3 13 -3 17 -14 5 -17 15 -20 67 -20 43 0 58 3 55 13 -2 6 -14 11 -26 10 -13
-2 -20 1 -16 7 11 17 43 11 50 -10 7 -22 44 -27 63 -8 9 9 12 9 12 -3 0 -11
11 -15 40 -14 40 0 40 0 40 40 0 22 -4 36 -8 30 -4 -5 -27 -10 -52 -10 -35 0
-44 -3 -43 -15 4 -21 -34 -23 -41 -3 -5 13 -4 14 9 3 17 -15 19 -7 5 21 -6 10
-18 19 -26 19 -9 0 -12 -5 -8 -12 4 -7 3 -8 -4 -4 -6 4 -25 -3 -41 -15 -30
-22 -54 -19 -44 6 3 8 0 15 -7 15 -6 0 -8 -4 -5 -10 3 -5 -1 -10 -9 -10 -8 0
-18 4 -21 10 -3 6 -19 10 -36 10 -21 0 -29 -5 -30 -17 0 -11 -3 -13 -6 -5 -7
17 -40 15 -47 -3 -3 -8 -11 -15 -18 -14 -10 0 -10 2 0 6 10 4 8 11 -9 29 -26
28 -55 31 -87 8 -55 -38 -124 -51 -282 -53 -85 -1 -205 1 -266 5 l-112 7 0 33
c0 31 3 34 50 50 42 14 56 14 94 4 47 -13 69 -8 37 8 -35 19 -81 20 -132 2
-43 -14 -51 -15 -47 -3 4 8 6 21 6 29 0 11 5 12 18 6 9 -5 37 -6 62 -2 30 5
36 8 18 9 -16 0 -28 6 -28 11 0 6 -11 8 -27 4 -22 -6 -25 -4 -20 9 3 9 3 16
-1 16 -29 -5 -32 3 -28 101 2 55 6 104 10 107 4 4 15 2 24 -5 44 -31 66 -34
107 -13 30 16 35 21 18 21 -12 0 -24 6 -27 13 -3 6 -4 3 -3 -8 2 -16 -4 -20
-28 -19 -17 0 -29 6 -28 12 2 6 -4 9 -11 6 -8 -3 -25 2 -39 10 l-24 16 -7 -46z
m701 -348 c-14 -14 -27 -12 -27 5 0 7 32 18 39 13 2 -2 -3 -10 -12 -18z m32
-20 c10 -12 8 -13 -8 -9 -12 3 -18 9 -15 14 7 12 10 11 23 -5z m421 -16 c0 -5
-4 -10 -9 -10 -6 0 -13 5 -16 10 -3 6 1 10 9 10 9 0 16 -4 16 -10z"/>
<path d="M1000 700 c0 -5 4 -10 9 -10 6 0 13 5 16 10 3 6 -1 10 -9 10 -9 0
-16 -4 -16 -10z"/>
<path d="M1858 704 c-3 -5 -2 -18 2 -28 3 -11 9 -15 12 -10 3 5 2 18 -2 28 -3
11 -9 15 -12 10z"/>
<path d="M675 680 c-3 -5 -1 -10 4 -10 6 0 11 5 11 10 0 6 -2 10 -4 10 -3 0
-8 -4 -11 -10z"/>
<path d="M700 676 c0 -8 7 -16 15 -20 13 -4 14 -2 5 14 -13 23 -20 26 -20 6z"/>
<path d="M1820 676 c0 -9 7 -16 16 -16 9 0 14 5 12 12 -6 18 -28 21 -28 4z"/>
<path d="M507 657 c3 -15 9 -27 14 -27 13 0 11 13 -5 35 -13 18 -14 18 -9 -8z"/>
<path d="M906 672 c-3 -6 0 -12 6 -15 10 -3 9 -8 -2 -22 -14 -18 -13 -18 12 0
26 19 40 44 17 29 -6 -3 -15 -1 -19 6 -5 8 -10 9 -14 2z"/>
<path d="M970 665 c-7 -9 -11 -17 -8 -20 2 -2 12 4 21 15 9 11 13 20 8 20 -5
0 -14 -7 -21 -15z"/>
<path d="M1134 669 c-5 -9 -2 -10 9 -6 10 4 17 2 17 -5 0 -7 5 -6 15 2 17 14
79 4 69 -12 -3 -5 3 -4 13 3 28 17 92 4 88 -19 -1 -9 0 -11 2 -4 3 8 12 11 20
8 8 -3 19 -3 25 0 6 4 -12 14 -38 23 -59 21 -209 27 -220 10z"/>
<path d="M1770 665 c0 -7 7 -12 15 -11 24 4 27 13 5 19 -13 3 -20 0 -20 -8z"/>
<path d="M1585 653 c3 -8 5 -19 5 -24 0 -20 16 -7 18 14 1 15 -4 24 -14 24 -9
0 -13 -6 -9 -14z"/>
<path d="M2670 659 c0 -5 5 -7 10 -4 6 3 10 8 10 11 0 2 -4 4 -10 4 -5 0 -10
-5 -10 -11z"/>
<path d="M470 651 c0 -5 5 -13 10 -16 6 -3 10 -2 10 4 0 5 -4 13 -10 16 -5 3
-10 2 -10 -4z"/>
<path d="M990 651 c0 -4 11 -6 25 -4 27 6 64 -21 42 -31 -6 -3 -2 -3 10 -1 12
3 24 1 28 -5 7 -12 121 -14 129 -2 3 5 -21 8 -52 7 -31 0 -59 2 -62 5 -28 31
-120 55 -120 31z"/>
<path d="M1680 645 c0 -8 7 -15 15 -15 9 0 12 6 9 15 -4 8 -10 15 -15 15 -5 0
-9 -7 -9 -15z"/>
<path d="M400 635 c-8 -9 -8 -15 -2 -15 12 0 26 19 19 26 -2 2 -10 -2 -17 -11z"/>
<path d="M695 630 c3 -5 14 -10 23 -10 15 0 15 2 2 10 -20 13 -33 13 -25 0z"/>
<path d="M958 623 c6 -2 18 -2 25 0 6 3 1 5 -13 5 -14 0 -19 -2 -12 -5z"/>
<path d="M810 601 c0 -6 4 -12 8 -15 5 -3 9 1 9 9 0 8 -4 15 -9 15 -4 0 -8 -4
-8 -9z"/>
<path d="M1230 581 c0 -11 6 -21 14 -21 7 0 32 -18 55 -40 40 -39 67 -52 58
-27 -2 6 -10 11 -16 9 -6 -1 -11 5 -11 13 0 8 -3 14 -7 14 -20 -3 -24 2 -13
16 10 12 8 14 -8 10 -13 -2 -31 7 -46 22 -25 25 -26 25 -26 4z"/>
<path d="M540 584 c0 -3 7 -12 15 -20 16 -17 18 -14 9 10 -6 15 -24 23 -24 10z"/>
<path d="M290 554 c0 -8 5 -12 10 -9 6 3 10 10 10 16 0 5 -4 9 -10 9 -5 0 -10
-7 -10 -16z"/>
<path d="M475 560 c-4 -6 3 -10 14 -10 11 0 25 -8 30 -17 6 -10 10 -13 11 -8
0 25 -44 53 -55 35z"/>
<path d="M916 535 c4 -8 12 -15 20 -15 20 0 17 7 -6 20 -16 9 -18 8 -14 -5z"/>
<path d="M960 520 c0 -5 5 -10 11 -10 5 0 7 5 4 10 -3 6 -8 10 -11 10 -2 0 -4
-4 -4 -10z"/>
<path d="M711 516 c12 -10 59 -15 59 -6 0 5 -14 10 -32 10 -17 0 -29 -2 -27
-4z"/>
<path d="M780 511 c0 -5 5 -13 10 -16 6 -3 10 -2 10 4 0 5 -4 13 -10 16 -5 3
-10 2 -10 -4z"/>
<path d="M1095 491 c17 -10 32 -17 34 -15 8 7 -29 34 -46 34 -13 0 -10 -5 12
-19z"/>
<path d="M2430 500 c0 -5 10 -15 23 -21 22 -12 22 -12 3 10 -21 23 -26 26 -26
11z"/>
<path d="M240 492 c0 -4 14 -13 31 -21 23 -10 34 -10 42 -2 15 15 27 14 21 -3
-4 -9 2 -14 18 -15 13 0 30 -1 38 -1 8 -1 34 2 58 6 41 6 60 -7 27 -20 -8 -3
-15 -1 -15 4 0 6 -4 10 -9 10 -5 0 -7 -9 -4 -19 6 -23 54 -32 85 -17 23 12 26
28 7 35 -7 2 -9 -1 -5 -8 4 -6 1 -11 -8 -11 -8 0 -23 -3 -33 -6 -11 -4 -8 3
11 19 20 17 27 30 22 42 -4 12 -10 14 -19 7 -23 -18 -106 -21 -139 -4 -24 12
-38 13 -60 4 -16 -6 -30 -6 -34 -1 -6 11 -34 12 -34 1z"/>
<path d="M932 491 c-11 -7 -11 -9 1 -14 16 -6 27 0 27 15 0 10 -11 10 -28 -1z"/>
<path d="M1022 486 c7 -8 15 -12 17 -11 5 6 -10 25 -20 25 -5 0 -4 -6 3 -14z"/>
<path d="M1367 485 c-4 -8 -2 -17 3 -20 6 -4 10 3 10 14 0 25 -6 27 -13 6z"/>
<path d="M642 459 c-24 -29 -44 -39 -39 -18 1 6 -3 13 -9 16 -7 2 -11 -7 -11
-22 0 -18 4 -25 13 -21 8 3 14 1 14 -3 0 -5 -6 -11 -12 -14 -7 -2 8 -6 33 -8
36 -3 45 -1 41 9 -4 12 -1 12 16 1 27 -17 40 -5 18 16 -18 18 -21 30 -6 20 6
-3 10 -2 10 4 0 24 -20 19 -35 -9 -8 -16 -23 -30 -33 -30 -15 0 -15 2 -2 10
10 6 11 10 3 10 -7 0 -13 5 -13 11 0 6 6 9 14 6 17 -7 51 28 41 42 -10 16 -18
13 -43 -20z"/>
<path d="M545 460 c3 -5 10 -10 16 -10 5 0 9 5 9 10 0 6 -7 10 -16 10 -8 0
-12 -4 -9 -10z"/>
<path d="M722 461 c-9 -5 -9 -12 2 -27 13 -17 17 -17 37 -6 18 11 23 12 30 1
6 -11 9 -9 15 4 10 28 -4 33 -38 12 -27 -16 -31 -16 -25 -2 7 19 -4 29 -21 18z"/>
<path d="M865 463 c-44 -9 -48 -12 -36 -27 8 -10 9 -16 1 -21 -27 -17 -1 -44
49 -51 31 -4 41 -3 37 5 -4 6 -20 11 -37 11 -34 0 -37 10 -10 30 11 7 18 17
15 22 -3 4 2 11 10 14 9 3 16 10 16 15 0 9 -11 10 -45 2z m9 -28 c-5 -11 -11
-12 -25 -4 -26 13 -24 19 6 19 17 0 23 -4 19 -15z"/>
<path d="M925 449 c-7 -10 12 -22 24 -15 5 3 9 -6 9 -19 0 -21 -4 -24 -22 -19
-21 7 -21 6 -2 -14 18 -20 43 -21 31 -1 -4 5 4 13 17 18 17 7 19 10 6 10 -10
1 -18 5 -18 11 0 6 3 9 8 9 4 -1 21 0 37 1 l30 2 -35 9 c-55 15 -80 17 -85 8z"/>
<path d="M1104 435 c1 -20 6 -22 69 -23 40 -1 67 3 67 9 0 6 5 7 10 4 19 -12
10 -32 -12 -28 -16 3 -27 -3 -36 -16 -7 -13 -8 -21 -2 -21 5 0 10 4 10 9 0 15
30 22 50 11 13 -7 19 -6 24 5 3 8 1 15 -5 15 -6 0 -8 4 -4 10 3 5 12 7 19 4 7
-3 19 2 26 11 12 14 10 16 -16 10 -22 -5 -25 -4 -14 4 9 7 10 11 3 11 -6 0
-14 -4 -17 -9 -3 -5 -15 -7 -26 -4 -11 3 -20 1 -20 -4 0 -5 -10 -9 -22 -7 -13
1 -36 3 -51 3 -16 1 -26 5 -23 10 3 5 -3 11 -13 14 -14 3 -18 -1 -17 -18z"/>
<path d="M2416 441 c-10 -11 -32 -25 -49 -32 -18 -7 -48 -27 -67 -45 -33 -31
-38 -33 -67 -22 -23 9 -39 9 -64 0 -19 -6 -24 -10 -11 -8 15 3 22 0 19 -7 -3
-7 -10 -11 -16 -9 -7 1 -10 -2 -6 -8 3 -5 -3 -10 -14 -10 -12 0 -21 -3 -21 -7
0 -5 11 -8 25 -8 18 0 29 8 38 28 13 30 32 34 60 12 18 -13 17 -15 -13 -30
-18 -9 -62 -21 -97 -26 -35 -5 -83 -19 -106 -31 -23 -12 -60 -21 -82 -21 -31
0 -33 -1 -11 -4 30 -5 30 -5 -18 -29 -26 -13 -54 -24 -62 -24 -8 0 -14 -5 -14
-11 0 -7 7 -8 18 -4 9 4 45 11 80 16 35 5 81 18 102 29 29 15 59 20 117 20
l77 0 -22 -22 c-19 -19 -25 -21 -42 -10 -20 12 -102 7 -130 -10 -14 -8 19 -5
90 8 l25 4 -25 -15 c-14 -8 -42 -14 -63 -15 -20 0 -45 -4 -55 -9 -9 -5 -37
-14 -62 -21 -65 -17 -94 -30 -86 -37 3 -4 12 -1 18 5 15 15 41 16 32 0 -8 -13
12 -3 39 20 10 9 17 11 17 4 0 -7 7 -9 17 -5 13 5 15 2 10 -11 -4 -10 -3 -15
3 -11 6 3 10 14 10 24 0 14 11 19 52 24 28 4 56 11 62 17 13 13 46 13 46 0 0
-5 -9 -10 -20 -10 -11 0 -20 -4 -20 -10 0 -16 18 -12 40 10 11 11 24 20 29 20
5 0 18 11 28 23 10 13 36 32 57 42 21 10 48 34 59 52 25 42 28 39 15 -13 -11
-40 -20 -47 -82 -68 -10 -4 -16 -9 -13 -12 3 -3 20 1 38 10 18 9 34 14 37 11
10 -10 -30 -43 -59 -49 -17 -3 -42 -15 -56 -26 -20 -15 -41 -20 -92 -20 -44 0
-74 -5 -87 -15 -18 -14 -18 -14 9 -15 15 0 27 5 27 11 0 8 4 8 13 2 19 -16 47
-23 47 -13 0 5 -8 11 -17 13 -10 3 5 5 32 6 33 1 59 8 75 21 14 11 32 20 40
20 8 0 29 9 47 20 24 14 34 29 39 57 4 21 13 50 20 65 24 46 -5 46 -45 0 -45
-52 -73 -62 -169 -61 -61 0 -90 -5 -139 -25 -96 -40 -122 -32 -38 11 43 22 99
41 149 49 90 16 112 27 156 83 19 23 49 46 74 55 41 16 101 66 79 66 -5 0 -18
-9 -27 -19z"/>
<path d="M1053 438 c0 -7 11 -14 24 -14 19 -2 22 1 12 12 -14 17 -36 18 -36 2z"/>
<path d="M400 431 c0 -14 18 -23 31 -15 8 4 7 9 -2 15 -18 11 -29 11 -29 0z"/>
<path d="M2530 429 c0 -8 16 -31 36 -50 20 -18 52 -66 71 -106 24 -51 44 -78
68 -93 25 -16 32 -25 28 -41 -5 -19 -7 -19 -15 -5 -5 9 -15 16 -23 16 -8 0
-29 19 -47 42 -51 64 -104 118 -117 118 -17 0 -79 -69 -103 -115 -25 -48 -42
-62 -88 -70 -19 -4 -39 -10 -45 -15 -5 -4 -31 -11 -57 -14 -27 -4 -48 -11 -48
-16 0 -4 17 -4 38 1 23 5 38 4 40 -2 3 -6 10 -5 20 3 13 11 15 11 8 -2 -5 -9
-2 -8 7 2 7 10 34 26 59 37 25 11 49 24 53 30 3 6 11 9 16 5 6 -4 6 -11 -1
-19 -10 -13 -3 -71 8 -61 10 10 11 81 1 93 -7 8 -7 18 1 32 22 42 43 20 43
-43 -1 -33 0 -36 7 -16 l7 25 7 -30 c11 -44 20 -58 42 -61 17 -2 16 0 -5 17
-13 11 -21 22 -17 26 3 4 19 -6 34 -20 16 -15 32 -27 37 -27 5 0 -14 21 -43
46 -28 25 -52 51 -52 57 0 7 -7 24 -14 39 -13 25 -13 30 4 50 l18 23 10 -25
c6 -14 13 -42 17 -62 4 -28 18 -48 57 -83 28 -25 53 -43 56 -41 4 5 -35 41
-75 71 -20 15 -54 145 -39 145 18 0 36 -22 36 -44 0 -27 22 -86 33 -86 4 0 6
-4 3 -9 -3 -4 4 -17 17 -27 l22 -19 -19 23 c-20 23 -10 32 12 10 6 -6 19 -13
27 -14 25 -4 -1 23 -29 30 -14 3 -31 20 -40 41 -26 54 -14 63 19 15 16 -24 47
-53 67 -66 27 -18 38 -31 38 -49 0 -16 6 -25 16 -25 13 0 15 7 11 36 l-6 36
21 -18 c12 -11 30 -27 40 -37 14 -13 23 -15 32 -8 9 7 16 7 24 -1 8 -8 11 -6
9 10 -1 14 -10 22 -29 24 -30 5 -34 -1 -18 -20 6 -6 -6 4 -27 23 -20 20 -38
44 -40 55 -4 26 -34 55 -69 67 -21 7 -31 20 -42 52 -8 24 -31 60 -52 81 -21
21 -43 46 -49 56 -8 15 -10 16 -11 3z m178 -215 c12 -8 27 -24 33 -36 l11 -21
-29 21 c-35 25 -59 52 -46 52 5 0 19 -7 31 -16z"/>
<path d="M897 417 c-4 -10 2 -13 19 -9 13 2 21 8 18 13 -8 14 -31 11 -37 -4z"/>
<path d="M1010 410 c0 -5 5 -10 10 -10 6 0 10 5 10 10 0 6 -4 10 -10 10 -5 0
-10 -4 -10 -10z"/>
<path d="M1050 400 c-12 -8 -9 -10 13 -10 15 0 27 5 27 10 0 13 -20 13 -40 0z"/>
<path d="M550 390 c0 -5 4 -10 9 -10 6 0 13 5 16 10 3 6 -1 10 -9 10 -9 0 -16
-4 -16 -10z"/>
<path d="M756 383 c11 -11 18 -12 28 -4 11 9 15 7 19 -9 5 -19 27 -29 27 -12
0 17 -36 40 -62 40 -24 0 -25 -2 -12 -15z"/>
<path d="M1108 393 c7 -3 16 -2 19 1 4 3 -2 6 -13 5 -11 0 -14 -3 -6 -6z"/>
<path d="M1145 389 c-4 -5 -16 -9 -27 -9 -12 0 -19 -3 -15 -6 7 -8 87 6 87 15
0 10 -39 11 -45 0z"/>
<path d="M987 376 c-6 -15 1 -26 15 -26 4 0 8 9 8 20 0 23 -15 27 -23 6z"/>
<path d="M1020 382 c0 -5 7 -15 15 -22 8 -7 15 -8 15 -2 0 5 -7 15 -15 22 -8
7 -15 8 -15 2z"/>
<path d="M484 373 c5 -9 0 -13 -16 -13 -13 0 -30 -5 -38 -11 -11 -7 1 -9 43
-6 31 2 57 0 57 -4 0 -14 40 -17 50 -3 18 21 4 31 -37 29 -21 -2 -44 2 -52 9
-12 8 -13 8 -7 -1z"/>
<path d="M1320 365 c0 -12 46 -22 58 -13 8 7 17 7 27 -2 12 -10 15 -10 15 4 0
13 -11 16 -50 16 -27 0 -50 -2 -50 -5z"/>
<path d="M1140 350 c8 -5 24 -10 35 -10 17 0 17 2 5 10 -8 5 -24 10 -35 10
-17 0 -17 -2 -5 -10z"/>
<path d="M597 339 c-21 -12 -13 -31 10 -22 10 4 14 2 9 -5 -3 -6 -1 -14 5 -18
8 -4 9 -3 5 4 -9 15 -1 15 25 2 13 -8 19 -7 19 0 0 6 -11 15 -24 20 -13 5 -25
13 -27 19 -3 6 -10 6 -22 0z"/>
<path d="M656 336 c6 -15 64 -28 64 -14 0 8 -42 28 -60 28 -5 0 -7 -6 -4 -14z"/>
<path d="M2035 329 c-36 -23 -26 -25 16 -3 17 8 38 13 47 11 12 -3 10 -5 -5
-6 -13 -1 -23 -7 -23 -16 0 -8 -9 -15 -21 -15 -12 0 -18 -4 -13 -11 3 -6 0
-15 -7 -20 -10 -6 -10 -9 -2 -9 7 0 25 14 40 30 14 17 35 30 45 30 22 0 24 16
2 24 -25 10 -47 6 -79 -15z"/>
<path d="M250 330 c0 -5 5 -10 11 -10 5 0 7 5 4 10 -3 6 -8 10 -11 10 -2 0 -4
-4 -4 -10z"/>
<path d="M780 320 c-13 -9 -13 -10 0 -9 8 0 24 4 35 9 20 9 20 9 0 9 -11 0
-27 -4 -35 -9z"/>
<path d="M315 310 c3 -5 8 -10 11 -10 2 0 4 5 4 10 0 6 -5 10 -11 10 -5 0 -7
-4 -4 -10z"/>
<path d="M360 309 c0 -5 5 -7 10 -4 6 3 10 8 10 11 0 2 -4 4 -10 4 -5 0 -10
-5 -10 -11z"/>
<path d="M1995 280 c-3 -5 -2 -10 4 -10 5 0 13 5 16 10 3 6 2 10 -4 10 -5 0
-13 -4 -16 -10z"/>
<path d="M907 233 c-4 -3 -7 -11 -7 -17 0 -6 5 -5 12 2 6 6 9 14 7 17 -3 3 -9
2 -12 -2z"/>
<path d="M930 225 c0 -8 5 -15 10 -15 6 0 10 7 10 15 0 8 -4 15 -10 15 -5 0
-10 -7 -10 -15z"/>
<path d="M971 224 c0 -11 3 -14 6 -6 3 7 2 16 -1 19 -3 4 -6 -2 -5 -13z"/>
<path d="M1000 230 c0 -5 5 -10 10 -10 6 0 10 5 10 10 0 6 -4 10 -10 10 -5 0
-10 -4 -10 -10z"/>
<path d="M1041 224 c0 -11 3 -14 6 -6 3 7 2 16 -1 19 -3 4 -6 -2 -5 -13z"/>
<path d="M1065 231 c-3 -5 -1 -12 5 -16 5 -3 10 1 10 9 0 18 -6 21 -15 7z"/>
<path d="M365 220 c-3 -5 -1 -10 4 -10 6 0 11 5 11 10 0 6 -2 10 -4 10 -3 0
-8 -4 -11 -10z"/>
<path d="M1130 220 c0 -5 7 -10 15 -10 8 0 15 5 15 10 0 6 -7 10 -15 10 -8 0
-15 -4 -15 -10z"/>
<path d="M1207 216 c-4 -10 -1 -13 9 -9 15 6 19 23 5 23 -5 0 -11 -7 -14 -14z"/>
<path d="M1250 220 c0 -5 5 -10 10 -10 6 0 10 5 10 10 0 6 -4 10 -10 10 -5 0
-10 -4 -10 -10z"/>
<path d="M1285 220 c-3 -5 1 -10 10 -10 9 0 13 5 10 10 -3 6 -8 10 -10 10 -2
0 -7 -4 -10 -10z"/>
<path d="M2744 215 c11 -8 25 -15 30 -15 6 0 5 4 -3 9 -11 7 -11 9 0 14 8 3 1
6 -16 6 -29 0 -29 0 -11 -14z"/>
<path d="M1175 210 c3 -5 8 -10 11 -10 2 0 4 5 4 10 0 6 -5 10 -11 10 -5 0 -7
-4 -4 -10z"/>
<path d="M411 174 c0 -11 3 -14 6 -6 3 7 2 16 -1 19 -3 4 -6 -2 -5 -13z"/>
<path d="M372 155 c-6 -14 -8 -25 -3 -25 8 0 23 41 17 47 -1 2 -8 -8 -14 -22z"/>
<path d="M318 163 c7 -3 16 -2 19 1 4 3 -2 6 -13 5 -11 0 -14 -3 -6 -6z"/>
<path d="M1801 136 c-7 -8 -27 -17 -46 -20 -35 -7 -44 -19 -25 -31 6 -3 24 3
40 15 29 21 42 16 18 -8 -7 -7 -8 -12 -2 -12 9 0 18 13 42 63 6 13 -15 8 -27
-7z"/>
<path d="M1827 104 c-10 -13 -14 -24 -9 -24 13 0 35 27 30 39 -1 5 -11 -2 -21
-15z"/>
<path d="M2389 107 c-8 -7 -20 -12 -27 -9 -6 2 -12 -1 -12 -8 0 -6 5 -8 10 -5
6 3 10 0 10 -7 0 -7 9 -4 22 10 12 12 19 24 16 27 -3 3 -12 0 -19 -8z"/>
</g>
</svg>
