<?xml version="1.0" standalone="no"?>
<!DOCTYPE svg PUBLIC "-//W3C//DTD SVG 20010904//EN"
 "http://www.w3.org/TR/2001/REC-SVG-20010904/DTD/svg10.dtd">
<svg version="1.0" xmlns="http://www.w3.org/2000/svg"
 width="203.000000pt" height="300.000000pt" viewBox="0 0 203.000000 300.000000"
 preserveAspectRatio="xMidYMid meet">
<metadata>
Created by potrace 1.10, written by Peter Selinger 2001-2011
</metadata>
<g transform="translate(0.000000,300.000000) scale(0.100000,-0.100000)"
fill="#000000" stroke="none">
<path d="M2018 2965 c2 -19 6 -35 8 -35 2 0 4 16 4 35 0 19 -4 35 -8 35 -4 0
-6 -16 -4 -35z"/>
<path d="M2014 2735 c0 -99 2 -138 3 -87 2 51 2 132 0 180 -1 48 -3 6 -3 -93z"/>
<path d="M217 2786 c-4 -10 0 -14 14 -13 10 1 18 6 16 11 -5 16 -24 18 -30 2z"/>
<path d="M563 2717 c-23 -34 -31 -97 -13 -97 6 0 8 11 4 25 -8 33 32 91 51 75
8 -6 11 -18 8 -26 -3 -8 0 -14 6 -14 16 0 13 36 -5 54 -21 22 -26 20 -51 -17z"/>
<path d="M1325 2740 c-3 -6 1 -13 10 -16 19 -8 30 0 20 15 -8 14 -22 14 -30 1z"/>
<path d="M757 2663 c-13 -12 -7 -33 8 -33 8 0 15 9 15 20 0 20 -11 26 -23 13z"/>
<path d="M654 2641 c-41 -25 -64 -59 -64 -93 0 -20 -5 -28 -17 -28 -13 0 -9
-6 12 -20 17 -11 40 -20 52 -20 12 0 25 -5 28 -10 9 -15 -15 -42 -32 -35 -8 3
-24 -2 -36 -10 -27 -19 -86 -19 -113 0 -12 8 -24 11 -28 8 -9 -9 24 -29 60
-37 21 -5 45 -2 69 8 21 9 45 16 54 16 10 0 27 10 39 23 l22 24 -26 14 c-15 7
-32 14 -38 14 -31 2 -42 17 -38 48 4 33 56 97 79 97 18 0 17 -2 -17 -59 -16
-28 -25 -53 -20 -56 7 -5 70 110 70 129 0 12 -25 6 -56 -13z"/>
<path d="M1210 2645 c0 -8 7 -15 15 -15 9 0 12 6 9 15 -4 8 -10 15 -15 15 -5
0 -9 -7 -9 -15z"/>
<path d="M717 2607 c5 -30 1 -45 -16 -68 -15 -20 -17 -29 -8 -29 16 0 47 51
47 77 0 11 -7 28 -15 39 -13 17 -14 16 -8 -19z"/>
<path d="M805 2630 c-21 -8 -53 -40 -41 -40 4 0 17 6 29 14 12 8 39 17 60 20
45 8 60 -13 32 -44 -10 -11 -16 -23 -13 -26 3 -3 15 7 27 22 29 37 14 64 -37
63 -20 0 -46 -4 -57 -9z"/>
<path d="M1488 2580 c-20 -12 -21 -65 -1 -82 11 -9 19 -9 33 0 15 9 21 7 33
-11 21 -33 29 -65 22 -88 -7 -21 -7 -21 -19 2 -18 37 -61 54 -97 39 -42 -18
-55 -46 -33 -71 9 -10 22 -19 27 -19 6 0 21 -9 33 -21 18 -17 106 -38 89 -21
-2 3 0 11 6 18 5 7 6 15 1 18 -5 3 -4 26 1 55 10 46 9 52 -17 91 -15 23 -25
48 -22 55 2 7 -3 20 -13 29 -20 19 -21 19 -43 6z m39 -26 c2 -7 -6 -10 -21 -7
-14 3 -23 10 -20 15 8 12 36 6 41 -8z m3 -34 c0 -5 -9 -10 -20 -10 -11 0 -20
5 -20 10 0 6 9 10 20 10 11 0 20 -4 20 -10z m5 -115 c14 -13 25 -33 25 -45 0
-27 -13 -26 -25 2 -10 23 -55 52 -65 41 -3 -3 1 -8 9 -11 20 -7 61 -52 61 -68
0 -13 -102 50 -109 68 -5 14 30 37 57 38 13 0 34 -11 47 -25z"/>
<path d="M763 2552 c-17 -17 -18 -13 17 -52 29 -32 30 -32 55 -16 34 22 41 44
22 63 -20 20 -76 23 -94 5z m84 -18 c2 -5 -3 -19 -11 -29 -14 -20 -15 -20 -40
4 -14 14 -26 28 -26 32 0 12 73 5 77 -7z"/>
<path d="M485 2537 c-7 -11 -10 -27 -7 -36 5 -12 8 -9 10 12 2 19 9 27 23 27
10 0 19 4 19 8 0 16 -31 9 -45 -11z"/>
<path d="M541 2533 c-1 -6 -4 -20 -7 -30 -5 -17 -5 -17 6 0 6 10 9 23 6 30 -3
9 -5 9 -5 0z"/>
<path d="M1135 2520 c3 -5 10 -10 16 -10 5 0 9 5 9 10 0 6 -7 10 -16 10 -8 0
-12 -4 -9 -10z"/>
<path d="M401 2501 c-13 -10 -21 -23 -17 -30 10 -15 27 -14 20 2 -3 8 9 20 28
29 25 13 28 17 13 17 -11 0 -31 -8 -44 -18z"/>
<path d="M2012 2500 c0 -14 2 -19 5 -12 2 6 2 18 0 25 -3 6 -5 1 -5 -13z"/>
<path d="M500 2500 c0 -5 5 -10 10 -10 6 0 10 5 10 10 0 6 -4 10 -10 10 -5 0
-10 -4 -10 -10z"/>
<path d="M1664 2469 c-17 -11 -43 -41 -57 -68 -24 -47 -25 -61 -4 -61 13 0 97
89 97 103 0 7 -23 -13 -50 -43 -53 -58 -60 -59 -34 -7 32 63 103 100 118 61
11 -28 -31 -79 -91 -113 -39 -22 -49 -30 -30 -26 64 13 137 82 137 129 0 18
-27 46 -43 45 -7 0 -26 -9 -43 -20z"/>
<path d="M485 2473 c-42 -9 -105 -35 -105 -44 0 -13 6 -12 48 10 48 24 130 35
165 22 15 -6 35 -7 44 -4 35 14 -98 28 -152 16z"/>
<path d="M330 2442 c0 -4 9 -13 20 -20 17 -10 20 -10 20 4 0 8 -4 12 -10 9 -5
-3 -10 -1 -10 4 0 6 -4 11 -10 11 -5 0 -10 -3 -10 -8z"/>
<path d="M305 2430 c3 -5 2 -10 -2 -10 -5 0 -9 -11 -9 -25 0 -14 3 -25 7 -25
4 0 7 8 7 18 0 9 3 25 7 35 4 10 3 17 -5 17 -6 0 -8 -4 -5 -10z"/>
<path d="M1036 2413 c-11 -11 -6 -23 9 -23 8 0 15 4 15 9 0 13 -16 22 -24 14z"/>
<path d="M355 2389 c-4 -6 -13 -8 -21 -5 -8 3 -14 -1 -14 -9 0 -11 6 -12 30
-4 17 6 30 15 30 20 0 12 -17 11 -25 -2z"/>
<path d="M912 2338 c5 -15 28 -18 29 -3 0 6 -7 12 -17 13 -10 3 -15 -1 -12
-10z"/>
<path d="M1611 2246 c-8 -9 -8 -16 -2 -20 5 -3 12 0 15 6 5 10 7 10 12 1 7
-15 24 -17 24 -3 0 19 -37 31 -49 16z"/>
<path d="M553 2193 c-18 -7 -16 -43 2 -43 18 0 20 16 3 24 -7 3 -4 5 7 3 12
-1 20 -10 20 -22 0 -14 -6 -19 -20 -17 -23 4 -92 4 -120 0 -30 -5 -54 -31 -42
-46 7 -9 6 -17 -1 -24 -16 -16 -15 -38 2 -38 17 0 164 76 189 98 21 19 22 36
1 56 -16 17 -21 18 -41 9z m-3 -70 c0 -5 -16 -16 -35 -25 l-35 -18 0 25 c0 22
4 25 35 25 19 0 35 -3 35 -7z m-81 -30 c0 -25 -1 -26 -9 -8 -12 27 -12 35 0
35 6 0 10 -12 9 -27z m-19 -13 c0 -11 -7 -20 -15 -20 -15 0 -21 21 -8 33 12
13 23 7 23 -13z"/>
<path d="M1072 2168 c-6 -8 -8 -34 -5 -62 5 -42 10 -50 34 -60 28 -10 29 -13
29 -74 0 -43 3 -61 11 -56 6 4 9 32 8 73 -2 36 0 72 4 78 9 15 -1 83 -16 101
-5 6 -20 12 -32 12 -12 0 -27 -6 -33 -12z m63 -48 c9 -55 -12 -79 -42 -49 -17
17 -5 43 13 28 11 -9 14 -7 14 10 0 18 -4 21 -20 16 -14 -4 -20 -2 -20 8 0 18
10 27 31 27 12 0 19 -11 24 -40z"/>
<path d="M2021 2134 c0 -11 3 -14 6 -6 3 7 2 16 -1 19 -3 4 -6 -2 -5 -13z"/>
<path d="M120 2121 c0 -12 5 -21 10 -21 6 0 10 6 10 14 0 8 -4 18 -10 21 -5 3
-10 -3 -10 -14z"/>
<path d="M1775 2070 c-4 -7 -1 -16 6 -21 17 -10 26 8 11 23 -6 6 -12 6 -17 -2z"/>
<path d="M120 2039 c0 -11 5 -17 10 -14 6 3 10 13 10 21 0 8 -4 14 -10 14 -5
0 -10 -9 -10 -21z"/>
<path d="M1775 1981 c-3 -5 -1 -12 5 -16 5 -3 10 1 10 9 0 18 -6 21 -15 7z"/>
<path d="M124 1969 c-3 -6 -1 -16 5 -22 8 -8 11 -5 11 11 0 24 -5 28 -16 11z"/>
<path d="M1304 1946 c7 -35 6 -36 -24 -36 -16 0 -30 -4 -30 -10 0 -5 11 -10
25 -10 14 0 25 -4 25 -10 0 -5 -11 -10 -25 -10 -38 0 -30 -17 11 -25 26 -4 39
-2 47 9 14 18 67 10 67 -10 0 -16 21 -28 73 -42 34 -9 38 -9 35 6 -3 11 -12
16 -26 15 -46 -5 -69 13 -75 58 -7 50 5 69 39 69 16 0 24 -6 24 -17 0 -10 7
-31 15 -47 20 -38 19 -43 -5 -21 -11 10 -20 24 -20 32 0 7 -4 13 -10 13 -17 0
-12 -67 6 -74 14 -5 15 -4 4 9 -7 9 -10 18 -6 22 3 3 6 2 6 -4 0 -11 79 -37
87 -29 3 3 0 12 -7 21 -7 9 -15 13 -18 10 -9 -9 -31 30 -32 57 0 36 -14 43
-85 44 -33 0 -71 4 -84 8 -23 8 -23 7 -17 -28z m77 -5 c11 -11 19 -71 9 -71
-5 0 -16 7 -25 16 -14 15 -17 14 -36 -10 -30 -38 -42 -32 -17 10 17 29 19 40
10 55 -11 17 -9 18 21 12 17 -3 35 -8 38 -12z"/>
<path d="M2021 1964 c0 -11 3 -14 6 -6 3 7 2 16 -1 19 -3 4 -6 -2 -5 -13z"/>
<path d="M2021 1914 c0 -11 3 -14 6 -6 3 7 2 16 -1 19 -3 4 -6 -2 -5 -13z"/>
<path d="M1775 1896 c-5 -11 -3 -21 6 -26 19 -12 21 -7 10 21 -8 22 -10 22
-16 5z"/>
<path d="M125 1887 c-4 -10 -5 -21 -1 -24 10 -10 18 4 13 24 -4 17 -4 17 -12
0z"/>
<path d="M636 1810 c-70 -70 -86 -108 -95 -210 -3 -41 -10 -80 -14 -87 -10
-15 -12 -93 -3 -121 l7 -21 36 25 c20 13 48 24 62 24 30 0 131 47 131 60 0 5
25 20 55 35 41 19 60 35 74 63 11 21 26 44 35 51 21 18 31 77 16 96 -14 17
-49 12 -98 -16 -43 -25 -77 -26 -67 -1 4 9 10 39 13 65 4 40 1 52 -18 72 -38
40 -67 33 -134 -35z m124 21 c5 -11 9 -44 9 -73 l-2 -53 -6 43 c-7 43 -34 82
-48 69 -3 -4 1 -13 9 -20 9 -6 19 -29 22 -50 l7 -38 -30 22 c-17 12 -34 19
-38 14 -5 -4 -2 -10 5 -12 7 -3 26 -19 42 -36 22 -23 26 -34 18 -44 -12 -15
-58 -18 -58 -3 0 14 -39 32 -51 24 -7 -4 2 -12 20 -20 l32 -13 -23 -32 c-13
-18 -42 -51 -65 -74 -41 -40 -54 -65 -34 -65 5 0 12 9 16 19 3 11 17 26 30 35
14 9 37 34 51 56 15 22 33 40 40 40 8 0 22 -16 31 -35 9 -19 20 -35 25 -35 11
0 10 7 -7 41 -14 27 -14 31 2 54 22 30 37 31 64 4 22 -22 39 -19 20 5 -14 16
4 26 47 26 20 0 23 3 14 12 -9 9 -18 9 -39 -1 -25 -11 -27 -11 -13 3 8 9 30
18 48 22 30 6 32 5 32 -23 0 -17 -8 -37 -19 -47 -10 -9 -26 -34 -36 -56 -13
-29 -27 -42 -51 -50 -19 -7 -52 -27 -75 -46 -24 -20 -65 -41 -97 -50 -49 -13
-73 -22 -114 -42 -15 -7 -8 83 8 113 11 22 14 44 9 86 -4 35 -3 59 3 63 6 3
16 22 22 41 17 51 108 144 142 145 17 0 31 -7 38 -19z"/>
<path d="M600 1569 c0 -5 5 -7 10 -4 6 3 10 8 10 11 0 2 -4 4 -10 4 -5 0 -10
-5 -10 -11z"/>
<path d="M656 1523 c9 -38 14 -42 14 -10 0 14 -5 29 -10 32 -7 4 -8 -3 -4 -22z"/>
<path d="M1005 1710 c4 -6 11 -8 16 -5 14 9 11 15 -7 15 -8 0 -12 -5 -9 -10z"/>
<path d="M2022 1680 c0 -14 2 -19 5 -12 2 6 2 18 0 25 -3 6 -5 1 -5 -13z"/>
<path d="M357 1645 c-15 -14 -27 -32 -27 -40 0 -25 -15 -17 -27 15 -13 35 -37
39 -54 9 -15 -29 -2 -214 17 -230 7 -6 28 -14 47 -18 32 -8 33 -7 46 33 7 23
23 57 35 76 28 41 43 149 24 168 -18 18 -30 15 -61 -13z m56 -20 c-2 -11 -4
-37 -4 -58 -1 -20 -6 -40 -11 -43 -5 -4 -23 -35 -39 -70 -15 -35 -33 -64 -39
-64 -6 0 -22 7 -35 16 -19 12 -24 24 -23 52 0 21 -3 56 -7 79 -4 23 -5 53 -1
67 7 30 34 35 42 9 3 -10 9 -25 14 -34 4 -8 3 -30 -4 -50 -11 -35 -10 -99 2
-99 4 0 7 24 8 54 0 33 7 64 17 80 9 14 17 31 17 37 0 20 32 50 49 46 9 -1 15
-11 14 -22z"/>
<path d="M270 1559 c0 -5 5 -7 10 -4 6 3 10 8 10 11 0 2 -4 4 -10 4 -5 0 -10
-5 -10 -11z"/>
<path d="M1742 1528 c-18 -18 -14 -56 7 -68 36 -19 58 -12 70 22 10 28 9 35
-6 45 -21 16 -55 17 -71 1z m67 -14 c2 -2 0 -16 -4 -31 -7 -24 -9 -25 -13 -8
-6 30 -20 41 -34 27 -9 -9 -8 -12 5 -12 9 0 17 -4 17 -10 0 -16 -30 -12 -36 5
-13 32 37 54 65 29z"/>
<path d="M1122 1488 c6 -18 28 -21 28 -4 0 9 -7 16 -16 16 -9 0 -14 -5 -12
-12z"/>
<path d="M1340 1486 c0 -15 18 -31 26 -23 7 7 -7 37 -17 37 -5 0 -9 -6 -9 -14z"/>
<path d="M1170 1465 c0 -8 5 -15 10 -15 6 0 10 7 10 15 0 8 -4 15 -10 15 -5 0
-10 -7 -10 -15z"/>
<path d="M1290 1455 c0 -8 5 -15 10 -15 6 0 10 7 10 15 0 8 -4 15 -10 15 -5 0
-10 -7 -10 -15z"/>
<path d="M1230 1434 c0 -17 22 -14 28 4 2 7 -3 12 -12 12 -9 0 -16 -7 -16 -16z"/>
<path d="M1150 1423 c0 -5 6 -15 12 -21 10 -10 10 -15 -2 -22 -18 -11 -37 0
-19 11 12 8 11 11 -1 19 -22 15 -30 12 -30 -10 0 -11 9 -29 21 -41 20 -20 21
-20 42 -2 12 10 24 19 27 21 2 2 -2 7 -10 12 -8 5 -15 15 -15 21 0 7 -6 14
-12 17 -7 2 -13 0 -13 -5z"/>
<path d="M1310 1415 c0 -8 7 -15 15 -15 8 0 15 7 15 15 0 8 -7 15 -15 15 -8 0
-15 -7 -15 -15z"/>
<path d="M1345 1396 c-12 -18 -24 -24 -43 -21 -17 2 -35 -5 -49 -17 l-22 -20
6 21 c3 11 10 21 15 21 5 0 6 5 3 10 -10 17 -25 11 -25 -10 0 -11 -7 -20 -15
-20 -19 0 -19 -5 0 -34 20 -30 47 -24 64 15 13 29 14 29 38 14 18 -12 28 -14
38 -5 8 6 12 17 9 25 -3 7 -1 16 5 20 6 3 11 10 11 16 0 17 -20 9 -35 -15z"/>
<path d="M1744 1379 c-25 -28 -9 -59 31 -59 33 0 45 13 45 50 0 26 -55 32 -76
9z m49 -11 c11 -9 14 -18 8 -27 -7 -11 -10 -9 -16 8 -7 22 -20 27 -30 11 -3
-5 2 -10 11 -10 14 0 15 -3 6 -12 -19 -19 -40 6 -22 27 15 18 21 19 43 3z"/>
<path d="M1742 1238 c-21 -21 -14 -58 14 -68 14 -6 29 -10 34 -10 12 0 32 62
23 71 -16 14 -60 18 -71 7z m47 -17 c9 -6 11 -16 6 -27 -6 -17 -8 -17 -16 4
-5 13 -14 20 -20 16 -8 -4 -7 -9 2 -15 7 -4 10 -11 6 -15 -11 -12 -30 13 -24
30 7 18 25 20 46 7z"/>
<path d="M412 1154 c-34 -23 -55 -72 -49 -111 4 -22 -1 -53 -12 -81 -15 -40
-15 -53 -5 -82 13 -38 9 -119 -6 -134 -13 -13 -13 -53 0 -61 5 -3 6 -15 1 -28
-5 -13 -7 -35 -4 -50 6 -29 -11 -37 -21 -10 -5 12 -9 14 -18 5 -22 -22 -28
-13 -28 39 0 42 -3 52 -20 56 -16 4 -20 15 -22 62 l-3 56 -41 3 -42 3 -4 -157
c-2 -87 -2 -171 0 -187 l4 -28 84 3 c73 3 85 1 90 -15 7 -22 24 -12 24 15 0
12 14 45 30 75 17 29 30 63 30 75 1 22 1 23 15 4 8 -11 15 -36 15 -55 0 -20 5
-43 10 -51 15 -22 1 88 -15 120 -7 14 -21 42 -31 63 -12 25 -20 33 -22 22 -2
-9 2 -23 8 -31 17 -19 7 -76 -25 -142 -14 -28 -25 -60 -25 -69 0 -11 -3 -14
-10 -7 -7 7 -3 30 11 70 22 62 33 160 20 169 -5 2 -2 28 5 57 17 63 17 95 3
136 -7 22 -8 40 -1 59 l10 28 2 -35 c1 -19 5 -44 9 -55 8 -19 8 -19 19 0 11
20 11 20 26 0 14 -20 15 -19 36 8 29 37 36 28 13 -15 -10 -18 -19 -53 -20 -78
-6 -109 -3 -156 10 -177 4 -6 4 -43 1 -81 -6 -58 -9 -69 -23 -65 -12 3 -11 1
3 -11 11 -9 23 -16 27 -16 11 0 4 223 -8 245 -6 11 -7 29 -2 40 4 11 8 40 8
64 1 31 15 71 51 143 28 55 50 113 50 129 0 17 -12 42 -31 64 -25 28 -38 35
-68 35 -20 0 -47 -7 -59 -16z m118 -32 c26 -33 26 -92 -1 -126 -42 -54 -142
-22 -154 49 -8 42 25 92 67 103 43 11 64 5 88 -26z m-60 -167 c28 9 25 -11 -7
-41 -18 -16 -29 -21 -33 -13 -5 6 -17 8 -29 4 -19 -6 -21 -3 -21 39 l0 45 35
-20 c21 -13 42 -18 55 -14z m-260 -204 c0 -38 -4 -61 -12 -63 -9 -3 -12 -34
-9 -118 3 -99 1 -112 -11 -102 -8 6 -18 9 -21 5 -4 -3 -7 71 -7 165 l0 172 30
0 c30 0 30 0 30 -59z m51 -121 c3 -30 2 -60 -3 -67 -5 -7 -8 -31 -6 -55 2 -40
1 -43 -22 -43 -25 0 -25 1 -28 104 -3 107 3 124 38 118 10 -1 17 -19 21 -57z
m57 -76 c2 -16 -4 -44 -14 -61 -18 -34 -34 -43 -34 -19 0 7 -3 28 -6 45 -6 29
-4 31 22 32 25 2 26 2 6 6 -19 4 -21 7 -11 19 17 21 33 12 37 -22z"/>
<path d="M1235 1073 c-27 -8 -59 -14 -70 -14 -11 0 -26 -6 -35 -13 -8 -8 -28
-17 -45 -20 -16 -4 -46 -20 -65 -37 -19 -17 -48 -38 -63 -46 -31 -15 -75 -14
-67 2 3 5 11 8 19 7 7 -2 11 2 9 10 -7 19 -29 16 -42 -5 -9 -15 -7 -21 8 -32
22 -16 58 -11 96 13 15 10 50 17 90 18 75 2 119 11 140 30 8 7 37 19 63 26 69
18 80 8 94 -89 11 -80 23 -115 50 -141 17 -17 30 -8 15 10 -13 17 -16 218 -2
218 5 0 10 5 10 10 0 6 -6 10 -14 10 -8 0 -28 14 -44 30 -35 34 -67 37 -147
13z m122 -13 c37 -22 40 -31 47 -160 6 -109 -8 -94 -19 21 -7 80 -18 102 -53
113 -12 4 -22 14 -22 23 0 8 -6 13 -12 10 -7 -2 -12 -11 -12 -19 1 -11 -15
-19 -51 -28 -38 -9 -52 -17 -48 -26 6 -16 -13 -19 -22 -4 -9 15 -25 12 -25 -5
0 -12 -14 -15 -62 -15 -57 0 -61 1 -42 14 11 8 52 24 90 36 38 12 92 30 119
40 64 24 73 24 112 0z"/>
<path d="M1670 751 c0 -16 49 -26 63 -12 8 8 6 11 -10 11 -12 0 -28 3 -37 6
-9 3 -16 1 -16 -5z"/>
<path d="M1523 713 c-13 -2 -23 -9 -23 -14 0 -15 46 -10 60 6 13 16 9 17 -37
8z"/>
<path d="M1548 589 c-27 -22 -48 -45 -48 -50 0 -6 -11 -25 -25 -43 -30 -39
-31 -48 -7 -69 20 -18 64 -21 97 -7 13 6 3 7 -27 3 -55 -7 -60 2 -23 45 26 31
30 42 18 42 -5 0 -19 -16 -32 -35 -13 -19 -28 -32 -33 -29 -5 3 2 21 16 39 15
19 26 38 26 44 0 6 24 29 53 52 l52 42 6 -59 c5 -57 9 -49 12 26 3 51 -26 50
-85 -1z"/>
<path d="M798 578 c-11 -9 -15 -28 -14 -57 1 -35 5 -45 23 -52 32 -12 55 11
59 59 3 33 -1 44 -16 52 -24 13 -33 13 -52 -2z m57 -17 c3 -5 -8 -9 -25 -9
-16 1 -30 5 -30 10 0 11 47 10 55 -1z m-11 -30 c3 -5 -3 -11 -14 -14 -20 -5
-35 5 -23 17 9 9 31 7 37 -3z m6 -36 c-14 -17 -46 -20 -55 -6 -3 5 7 12 22 14
16 2 32 5 37 6 5 0 3 -6 -4 -14z"/>
<path d="M1023 579 c-37 -14 -29 -39 13 -39 21 0 33 -4 29 -10 -3 -5 -19 -10
-35 -10 -36 0 -47 -17 -26 -38 27 -27 69 -5 77 40 8 53 -13 74 -58 57z m47
-17 c0 -5 -13 -7 -30 -4 -16 2 -30 6 -30 8 0 2 14 4 30 4 17 0 30 -4 30 -8z
m0 -58 c0 -2 -8 -8 -19 -13 -13 -7 -23 -6 -35 2 -16 11 -13 13 18 14 20 1 36
-1 36 -3z"/>
<path d="M894 565 c-3 -8 -3 -18 0 -24 4 -5 2 -12 -4 -16 -14 -9 -12 -21 6
-39 33 -34 84 -8 84 43 0 15 -5 32 -12 39 -17 17 -67 15 -74 -3z m68 -21 c11
-23 10 -29 -10 -45 -13 -10 -30 -15 -37 -12 -18 6 -20 25 -2 22 29 -4 38 2 35
23 -3 23 -38 39 -38 19 0 -6 7 -11 15 -11 8 0 15 -4 15 -10 0 -15 -16 -12 -30
5 -15 18 -5 35 21 35 11 0 24 -11 31 -26z"/>
<path d="M1593 517 c0 -25 32 -76 41 -66 5 4 -32 89 -39 89 -1 0 -2 -11 -2
-23z"/>
<path d="M1560 460 c-14 -11 -20 -20 -13 -20 11 0 43 26 43 36 0 7 -4 5 -30
-16z"/>
<path d="M852 438 c-7 -7 -12 -29 -12 -50 0 -28 5 -40 22 -49 18 -10 24 -8 40
11 36 45 -10 128 -50 88z m42 -23 c4 -11 -1 -15 -19 -15 -18 0 -23 4 -19 15 4
8 12 15 19 15 7 0 15 -7 19 -15z m3 -50 c-5 -16 -37 -18 -37 -3 0 8 9 14 20
14 11 0 19 -5 17 -11z"/>
<path d="M951 436 c-15 -18 -2 -75 21 -90 13 -8 22 -6 37 8 21 19 28 46 12 46
-5 0 -11 -9 -14 -20 -3 -11 -12 -20 -20 -20 -24 0 -31 19 -10 27 35 12 43 24
32 44 -12 22 -42 25 -58 5z m32 -27 c-23 -8 -27 -4 -19 17 5 14 9 14 22 3 14
-12 14 -14 -3 -20z"/>
<path d="M1590 436 c0 -9 5 -16 10 -16 6 0 10 4 10 9 0 6 -4 13 -10 16 -5 3
-10 -1 -10 -9z"/>
<path d="M1740 314 c0 -17 22 -14 28 4 2 7 -3 12 -12 12 -9 0 -16 -7 -16 -16z"/>
<path d="M116 211 c-4 -7 -5 -15 -2 -18 9 -9 19 4 14 18 -4 11 -6 11 -12 0z"/>
<path d="M141 204 c0 -11 3 -14 6 -6 3 7 2 16 -1 19 -3 4 -6 -2 -5 -13z"/>
<path d="M195 210 c-8 -13 -1 -24 14 -19 6 3 7 10 2 18 -6 10 -10 10 -16 1z"/>
<path d="M80 200 c0 -5 5 -10 10 -10 6 0 10 5 10 10 0 6 -4 10 -10 10 -5 0
-10 -4 -10 -10z"/>
<path d="M160 195 c0 -8 5 -15 10 -15 6 0 10 7 10 15 0 8 -4 15 -10 15 -5 0
-10 -7 -10 -15z"/>
</g>
</svg>
