<?xml version="1.0" standalone="no"?>
<!DOCTYPE svg PUBLIC "-//W3C//DTD SVG 20010904//EN"
 "http://www.w3.org/TR/2001/REC-SVG-20010904/DTD/svg10.dtd">
<svg version="1.0" xmlns="http://www.w3.org/2000/svg"
 width="228.000000pt" height="296.000000pt" viewBox="0 0 228.000000 296.000000"
 preserveAspectRatio="xMidYMid meet">
<metadata>
Created by potrace 1.10, written by Peter Selinger 2001-2011
</metadata>
<g transform="translate(0.000000,296.000000) scale(0.100000,-0.100000)"
fill="#000000" stroke="none">
<path d="M545 2932 c-33 -15 -96 -47 -140 -71 -96 -52 -183 -71 -247 -54 -52
14 -57 11 -23 -11 33 -21 129 -39 170 -32 17 4 83 29 146 57 180 81 202 88
254 76 44 -10 55 -20 35 -32 -13 -8 -13 -38 2 -70 9 -20 18 -25 48 -25 47 0
74 27 68 70 -4 27 -1 31 31 40 86 24 151 8 182 -44 25 -42 53 -52 173 -61 100
-8 132 -18 139 -46 7 -26 54 -42 106 -35 55 8 81 30 81 70 0 61 89 165 158
186 l27 8 -26 1 c-37 1 -103 -50 -135 -104 -14 -25 -28 -44 -31 -42 -11 12 25
102 50 123 19 16 23 24 13 24 -28 0 -70 -69 -73 -119 -1 -25 -2 -49 -2 -52 -2
-13 -55 -29 -99 -29 -51 0 -61 5 -78 35 -18 32 -62 47 -156 53 l-89 5 -30 39
c-57 71 -123 85 -239 49 -60 -19 -62 -19 -103 0 -61 27 -138 24 -212 -9z m195
2 c31 -12 38 -19 30 -29 -8 -10 -19 -10 -52 2 -56 19 -91 11 -214 -47 -131
-62 -185 -80 -237 -79 -41 1 -41 1 23 18 36 10 101 37 145 62 163 90 225 105
305 73z m294 -4 c23 -11 53 -38 68 -60 28 -40 28 -40 95 -40 89 -1 144 -14
166 -41 23 -28 17 -33 -19 -15 -17 9 -71 18 -128 22 -73 4 -102 10 -112 23 -8
9 -27 32 -43 51 -29 34 -31 35 -98 34 -65 -1 -126 -21 -175 -56 -14 -10 -20
-10 -29 -1 -24 24 29 62 123 87 73 20 105 19 152 -4z m-204 -85 c-14 -17 -30
-20 -30 -6 0 5 8 12 18 14 9 3 19 5 21 6 2 0 -2 -6 -9 -14z m-21 -22 c32 4 38
2 34 -10 -11 -28 -93 -39 -93 -13 0 5 -3 17 -7 27 -6 16 -5 16 10 4 11 -9 31
-12 56 -8z m741 -77 c0 -29 -20 -38 -86 -38 -43 0 -74 14 -74 33 0 5 28 9 63
9 34 0 69 5 77 10 20 13 20 13 20 -14z"/>
<path d="M2034 2940 c27 -11 54 -24 59 -29 25 -25 -61 -76 -152 -92 -68 -12
-137 -49 -133 -70 1 -9 -9 -21 -23 -27 -14 -6 -25 -16 -25 -22 0 -5 -7 -10
-15 -10 -17 0 -19 -9 -5 -30 7 -11 10 -12 10 -2 0 8 14 27 31 43 28 26 33 28
43 13 11 -14 15 -14 46 4 19 11 61 26 93 32 83 17 122 35 146 69 29 41 23 129
-9 139 -13 5 -13 3 -1 -12 22 -26 7 -29 -30 -7 -19 12 -45 21 -59 20 -19 0
-13 -5 24 -19z m80 -77 c-9 -39 -41 -66 -104 -85 -30 -10 -77 -24 -105 -33
-69 -22 -79 -22 -83 -3 -4 22 56 53 132 67 59 11 146 53 146 71 0 6 5 10 10
10 6 0 8 -11 4 -27z"/>
<path d="M545 2716 c-30 -70 -14 -164 35 -211 30 -29 30 -29 61 -11 35 21 54
12 24 -11 -16 -13 -17 -15 -2 -10 24 9 21 -10 -5 -24 -17 -9 -24 -9 -33 5 -13
17 -30 23 -20 6 3 -5 -6 -22 -20 -36 -20 -20 -29 -24 -38 -15 -6 6 -15 11 -19
11 -13 0 -9 -28 4 -32 21 -7 -8 -60 -30 -56 -22 4 -22 33 1 32 19 -2 23 11 7
21 -15 9 -40 -14 -40 -36 0 -10 9 -23 20 -29 15 -8 24 -6 40 10 11 11 20 29
20 40 0 11 5 20 10 20 6 0 22 11 36 25 14 14 29 23 34 20 4 -3 20 -1 34 5 20
7 26 16 26 40 0 35 -23 49 -52 31 -10 -6 -23 -9 -28 -6 -20 13 -8 39 35 77 25
22 45 46 45 53 0 16 -31 28 -53 19 -22 -8 -47 -66 -47 -111 l-1 -38 -20 38
c-19 36 -19 40 -4 57 15 16 25 62 29 125 2 36 -33 30 -49 -9z m39 3 c-6 -11
-15 -54 -15 -81 0 -9 -8 -23 -16 -30 -15 -12 -16 -8 -10 39 7 59 23 97 38 88
5 -4 7 -11 3 -16z m72 -104 c-14 -12 -26 -27 -26 -34 0 -6 -7 -11 -15 -11 -14
0 -13 4 1 33 20 38 32 47 51 40 11 -5 9 -11 -11 -28z"/>
<path d="M881 2704 c-20 -14 -23 -23 -18 -61 3 -26 0 -46 -7 -51 -6 -4 -50 -9
-99 -12 -79 -5 -90 -9 -115 -33 l-27 -28 47 26 c41 23 55 26 100 20 41 -5 61
-2 90 13 21 11 48 17 66 14 35 -5 72 25 72 58 0 26 -43 70 -67 70 -10 0 -29
-7 -42 -16z m40 -27 c-1 -12 -15 -9 -19 4 -3 6 1 10 8 8 6 -3 11 -8 11 -12z
m49 -17 c0 -5 -9 -10 -21 -10 -11 0 -17 5 -14 10 3 6 13 10 21 10 8 0 14 -4
14 -10z m-47 -14 c19 -14 23 -36 7 -36 -5 0 -10 7 -10 15 0 8 -9 15 -21 15
-11 0 -17 5 -14 10 8 13 16 12 38 -4z"/>
<path d="M287 2638 c-9 -7 -19 -27 -23 -44 -5 -29 -3 -32 33 -46 35 -15 39
-14 46 1 30 66 77 106 77 67 0 -9 -5 -16 -11 -16 -5 0 -7 5 -4 10 3 6 4 10 1
10 -2 0 -17 -25 -32 -55 -30 -59 -34 -60 -96 -30 -24 11 -28 11 -28 -1 0 -8
-4 -14 -10 -14 -14 0 -12 23 3 40 10 12 9 12 -5 1 -26 -19 -24 -55 2 -48 14 3
20 0 20 -11 0 -8 8 -24 17 -35 17 -18 17 -19 0 -28 -9 -6 -17 -18 -17 -28 0
-26 31 -36 46 -16 9 12 21 15 46 10 30 -6 37 -2 71 35 41 47 47 69 17 77 -11
3 -20 13 -20 22 0 9 -5 22 -12 29 -9 9 -8 15 7 26 26 19 13 47 -22 45 -16 -1
-42 1 -58 5 -19 4 -37 2 -48 -6z m71 -39 c-5 -16 -16 -29 -24 -29 -8 0 -14 -6
-15 -12 0 -10 -2 -10 -5 -1 -3 7 -11 10 -19 7 -20 -8 -27 13 -14 38 16 31 25
35 58 30 28 -4 29 -6 19 -33z m49 -54 c7 -20 0 -27 -20 -19 -9 3 -13 12 -10
20 7 19 22 18 30 -1z m-114 -31 c9 -3 13 -13 10 -25 -4 -15 -8 -17 -19 -8 -8
6 -14 18 -14 25 0 16 2 16 23 8z m111 -10 c22 -21 20 -26 -6 -20 -13 3 -17 3
-9 0 11 -5 11 -8 0 -16 -10 -6 -7 -7 9 -3 29 8 28 -6 -3 -35 -19 -17 -28 -21
-36 -13 -6 6 -17 9 -24 6 -7 -2 -15 4 -18 14 -4 15 -5 15 -6 -3 -1 -23 -24
-48 -34 -37 -13 12 -7 22 10 16 12 -5 15 -2 11 8 -7 19 17 79 32 79 13 0 13
-17 0 -22 -6 -2 -6 -8 0 -18 8 -13 10 -12 10 3 0 25 18 21 22 -5 l3 -23 7 23
c4 13 1 28 -7 36 -8 7 -11 16 -8 20 11 11 31 7 47 -10z m41 -14 c0 -22 -21
-22 -22 1 -1 12 3 19 10 16 7 -2 12 -10 12 -17z"/>
<path d="M23 2580 c0 -25 2 -35 4 -22 2 12 2 32 0 45 -2 12 -4 2 -4 -23z"/>
<path d="M1668 2600 c-9 -9 -22 -20 -29 -22 -11 -4 -11 -10 -2 -30 8 -17 38
-39 97 -68 51 -25 106 -61 137 -91 28 -27 76 -61 107 -77 31 -16 76 -39 98
-52 54 -31 88 -19 103 37 10 34 7 44 -25 108 -51 99 -74 127 -129 154 -88 44
-178 59 -263 43 -41 -7 -56 -6 -66 3 -11 11 -16 10 -28 -5z m244 -14 c56 -14
149 -59 168 -81 26 -31 90 -161 90 -182 0 -30 -15 -59 -35 -66 -22 -9 -217
102 -274 156 -27 25 -85 64 -130 86 -44 23 -81 47 -81 55 0 20 27 38 47 32 10
-3 38 -2 63 3 64 13 88 12 152 -3z"/>
<path d="M1716 2561 c-4 -7 -5 -15 -2 -18 9 -9 19 4 14 18 -4 11 -6 11 -12 0z"/>
<path d="M1811 2554 c0 -11 3 -14 6 -6 3 7 2 16 -1 19 -3 4 -6 -2 -5 -13z"/>
<path d="M1880 2554 c0 -10 6 -14 14 -11 7 3 19 0 25 -6 8 -8 11 -6 11 7 0 9
-4 15 -9 11 -5 -3 -12 -1 -16 5 -10 16 -25 12 -25 -6z"/>
<path d="M1780 2550 c0 -5 5 -10 10 -10 6 0 10 5 10 10 0 6 -4 10 -10 10 -5 0
-10 -4 -10 -10z"/>
<path d="M1950 2540 c0 -5 5 -10 10 -10 6 0 10 5 10 10 0 6 -4 10 -10 10 -5 0
-10 -4 -10 -10z"/>
<path d="M1820 2500 c0 -5 5 -10 10 -10 6 0 10 5 10 10 0 6 -4 10 -10 10 -5 0
-10 -4 -10 -10z"/>
<path d="M1855 2500 c-3 -5 -1 -10 4 -10 6 0 11 5 11 10 0 6 -2 10 -4 10 -3 0
-8 -4 -11 -10z"/>
<path d="M1880 2495 c0 -8 4 -15 8 -15 5 0 9 7 9 15 0 8 -4 15 -9 15 -4 0 -8
-7 -8 -15z"/>
<path d="M1911 2504 c-1 -6 6 -17 14 -24 12 -10 15 -9 15 4 0 10 -4 15 -9 12
-5 -4 -12 0 -14 6 -4 8 -6 9 -6 2z"/>
<path d="M1926 2432 c-8 -14 -9 -13 27 -18 15 -1 27 2 27 8 0 6 -9 8 -20 5
-10 -3 -21 0 -23 6 -2 8 -6 7 -11 -1z"/>
<path d="M1990 2420 c0 -5 5 -10 10 -10 6 0 10 5 10 10 0 6 -4 10 -10 10 -5 0
-10 -4 -10 -10z"/>
<path d="M2000 2371 c0 -6 5 -12 10 -12 20 -3 25 -4 38 -12 7 -5 12 -3 12 6 0
7 -6 14 -12 14 -7 0 -21 4 -30 8 -11 4 -18 3 -18 -4z"/>
<path d="M2070 2350 c0 -5 7 -10 15 -10 8 0 15 5 15 10 0 6 -7 10 -15 10 -8 0
-15 -4 -15 -10z"/>
<path d="M2115 2319 c-10 -15 3 -25 16 -12 7 7 7 13 1 17 -6 3 -14 1 -17 -5z"/>
<path d="M1075 2535 c-33 -25 -82 -52 -108 -60 -26 -8 -60 -23 -75 -33 -15
-11 -58 -34 -97 -51 -38 -18 -79 -40 -90 -50 -11 -10 -37 -26 -57 -36 -21 -10
-47 -33 -60 -54 -12 -20 -42 -58 -66 -85 -24 -28 -53 -68 -64 -90 -11 -23 -35
-57 -53 -77 -18 -20 -36 -43 -41 -52 -5 -8 -36 -31 -70 -50 -74 -44 -111 -73
-102 -82 3 -3 43 5 88 19 44 14 86 26 91 26 6 0 2 -13 -7 -30 -25 -42 -9 -49
29 -13 17 18 64 49 102 69 39 21 77 44 85 52 8 8 30 21 50 29 19 8 45 24 57
35 15 14 41 22 85 25 35 3 78 11 97 18 28 9 40 9 64 -3 28 -14 34 -13 102 22
40 20 80 36 89 36 9 0 33 7 52 15 34 14 41 13 104 -9 38 -13 81 -33 96 -45 27
-21 27 -21 60 -2 30 18 40 19 141 9 98 -10 116 -15 193 -56 47 -24 96 -52 110
-62 46 -32 111 -61 121 -54 13 8 -50 49 -70 45 -8 -1 -12 3 -8 12 4 11 0 13
-16 10 -13 -3 -18 -1 -11 4 7 4 14 17 16 28 5 28 62 23 125 -9 44 -23 111 -72
88 -64 -50 16 -85 34 -85 43 0 5 -5 3 -10 -5 -9 -13 -12 -13 -25 4 -7 10 -18
15 -24 11 -6 -3 -11 -1 -11 4 0 6 -4 11 -9 11 -5 0 -8 -8 -7 -17 3 -22 113
-62 169 -63 50 0 42 11 -51 70 -41 27 -82 60 -91 74 -10 14 -69 81 -133 148
-130 138 -231 214 -311 233 -29 7 -69 19 -90 28 -20 9 -62 21 -93 26 -42 8
-66 20 -101 51 -64 56 -99 55 -178 -5z m172 -9 c43 -36 62 -45 106 -50 30 -4
70 -16 89 -26 20 -10 58 -23 85 -28 58 -10 162 -75 238 -149 78 -76 217 -234
211 -241 -3 -3 -27 10 -53 28 -37 27 -45 30 -40 14 5 -14 2 -13 -13 6 -37 47
-54 61 -68 55 -15 -6 -57 13 -48 22 3 3 12 0 21 -7 9 -7 18 -10 21 -8 3 3 -12
16 -33 29 -21 13 -61 40 -89 60 -32 24 -79 45 -130 59 -43 12 -91 29 -106 36
-15 8 -37 14 -49 14 -21 0 -22 -1 -4 -20 18 -20 17 -20 -31 -21 -55 0 -78 -8
-82 -27 -2 -10 19 -13 85 -12 54 1 103 -4 128 -13 22 -8 57 -17 78 -21 34 -6
53 -26 25 -26 -20 0 -151 -93 -156 -110 -3 -11 2 -9 19 5 71 61 189 121 189
97 0 -5 25 -16 56 -26 30 -10 58 -24 61 -32 3 -8 17 -14 31 -14 17 0 38 -14
64 -42 29 -32 41 -39 47 -29 5 7 11 9 14 4 3 -4 -7 -24 -23 -43 -26 -32 -30
-34 -47 -19 -10 9 -33 21 -51 27 -18 6 -45 20 -60 30 -35 24 -249 50 -279 33
-11 -5 -23 -7 -27 -4 -3 3 -6 1 -6 -5 0 -18 -17 -14 -58 13 -48 32 -125 55
-182 54 -34 0 -40 -2 -25 -9 17 -7 16 -9 -9 -9 -16 -1 -64 -18 -105 -40 l-76
-39 -30 39 c-16 22 -49 63 -72 92 l-42 52 34 8 c19 5 35 12 35 15 0 4 69 6
152 4 84 -2 168 0 186 3 28 5 31 8 22 25 -9 17 -20 18 -152 13 -130 -5 -141
-4 -129 11 19 23 5 20 -37 -9 -20 -14 -61 -33 -91 -42 -75 -21 -136 -55 -167
-92 -14 -17 -54 -49 -90 -72 -35 -23 -64 -46 -64 -50 0 -13 -54 -88 -63 -89
-5 0 -5 5 -2 10 11 17 -19 11 -45 -10 -53 -41 -54 -19 -1 35 21 22 46 56 56
75 9 19 39 60 65 90 26 30 54 69 63 85 9 18 36 42 64 58 27 14 57 35 68 47 10
11 37 25 59 31 23 6 65 26 95 46 29 19 74 41 100 49 26 7 73 34 105 59 75 58
97 58 163 1z m287 -247 c72 -23 155 -67 209 -110 17 -13 -89 27 -113 43 -14 9
-47 22 -75 28 -27 7 -63 17 -80 23 -29 10 -65 39 -65 53 0 3 8 3 18 -1 9 -4
57 -20 106 -36z m-400 -10 c-7 -11 -34 -12 -34 -1 0 14 11 21 26 15 8 -3 11
-9 8 -14z m96 5 c0 -17 -22 -14 -28 4 -2 7 3 12 12 12 9 0 16 -7 16 -16z m90
6 c0 -5 -4 -10 -10 -10 -5 0 -10 5 -10 10 0 6 5 10 10 10 6 0 10 -4 10 -10z
m50 0 c0 -5 -4 -10 -10 -10 -5 0 -10 5 -10 10 0 6 5 10 10 10 6 0 10 -4 10
-10z m40 0 c0 -5 -4 -10 -10 -10 -5 0 -10 5 -10 10 0 6 5 10 10 10 6 0 10 -4
10 -10z m-450 -10 c0 -5 -4 -10 -10 -10 -5 0 -10 5 -10 10 0 6 5 10 10 10 6 0
10 -4 10 -10z m45 0 c3 -5 -1 -10 -9 -10 -8 0 -18 5 -21 10 -3 6 1 10 9 10 8
0 18 -4 21 -10z m40 0 c3 -5 2 -10 -4 -10 -5 0 -13 5 -16 10 -3 6 -2 10 4 10
5 0 13 -4 16 -10z m45 0 c0 -5 -4 -10 -9 -10 -6 0 -13 5 -16 10 -3 6 1 10 9
10 9 0 16 -4 16 -10z m100 0 c0 -5 -7 -10 -15 -10 -8 0 -15 5 -15 10 0 6 7 10
15 10 8 0 15 -4 15 -10z m-346 -94 c25 -30 46 -59 46 -64 0 -6 11 -19 25 -30
29 -23 34 -38 7 -21 -15 9 -30 8 -67 -5 -27 -9 -69 -16 -93 -16 -44 0 -56 -6
-167 -77 l-35 -22 -20 39 c-24 47 -23 49 82 119 37 25 69 53 71 62 3 10 21 24
40 32 19 8 38 20 41 26 12 19 22 13 70 -43z m-312 -227 c7 -21 6 -22 -5 -7
-12 15 -14 14 -25 -11 -13 -30 -66 -64 -55 -36 3 8 0 15 -6 15 -6 0 -11 -4
-11 -8 0 -5 -6 -16 -13 -26 -11 -15 -17 -16 -40 -5 -20 9 -33 9 -50 1 -42 -20
-88 -32 -81 -21 10 16 126 69 151 69 12 0 24 6 26 13 4 9 8 9 15 -1 8 -12 13
-12 31 0 12 7 24 21 27 31 8 24 25 17 36 -14z"/>
<path d="M1208 2463 c7 -3 16 -2 19 1 4 3 -2 6 -13 5 -11 0 -14 -3 -6 -6z"/>
<path d="M1365 2140 c-8 -14 3 -30 21 -30 9 0 12 -5 8 -12 -4 -7 -3 -8 5 -4
14 9 5 26 -14 26 -9 0 -12 6 -9 15 7 17 -1 20 -11 5z"/>
<path d="M930 2111 c0 -5 11 -8 25 -7 33 1 33 16 0 16 -14 0 -25 -4 -25 -9z"/>
<path d="M741 2179 c-24 -11 -42 -22 -39 -25 3 -3 21 2 39 10 19 7 45 19 59
24 21 9 22 11 5 11 -11 0 -40 -9 -64 -20z"/>
<path d="M375 1900 c-3 -6 1 -7 9 -4 18 7 21 14 7 14 -6 0 -13 -4 -16 -10z"/>
<path d="M22 2500 c0 -19 2 -27 5 -17 2 9 2 25 0 35 -3 9 -5 1 -5 -18z"/>
<path d="M17 2441 c-4 -17 -3 -21 5 -13 5 5 8 16 6 23 -3 8 -7 3 -11 -10z"/>
<path d="M142 2377 c-14 -51 0 -127 24 -127 8 0 14 -8 14 -19 0 -13 -9 -20
-30 -25 -31 -6 -61 -49 -45 -64 8 -7 20 13 13 22 -5 8 36 35 54 36 9 0 18 -5
20 -10 2 -6 1 36 0 92 -4 96 -12 128 -33 128 -4 0 -12 -15 -17 -33z m33 -55
c0 -66 -11 -83 -19 -29 -8 51 -4 98 8 94 6 -2 11 -30 11 -65z"/>
<path d="M27 2323 c-3 -16 -1 -32 4 -37 5 -6 9 4 9 27 0 44 -6 48 -13 10z"/>
<path d="M28 2223 c-2 -5 -1 -26 3 -48 l6 -40 2 48 c1 44 -3 57 -11 40z"/>
<path d="M223 2193 c-10 -16 -23 -32 -30 -36 -18 -11 -16 -42 2 -57 8 -7 13
-16 10 -20 -3 -5 2 -15 11 -24 12 -12 20 -13 35 -6 10 6 19 15 19 20 0 5 15
10 33 12 32 3 32 4 33 58 2 58 -9 75 -37 60 -12 -7 -21 -5 -29 5 -18 21 -27
19 -47 -12z m37 -24 c0 -11 -4 -17 -10 -14 -5 3 -10 13 -10 21 0 8 5 14 10 14
6 0 10 -9 10 -21z m58 -1 c-3 -7 -13 -15 -24 -17 -16 -3 -17 -1 -5 13 16 19
34 21 29 4z m-81 -45 c-9 -9 -19 -14 -23 -11 -10 10 6 28 24 28 15 0 15 -1 -1
-17z m73 -13 c0 -18 -19 -11 -30 11 -11 19 -10 20 9 9 12 -6 21 -15 21 -20z
m-59 -33 c-16 -16 -26 0 -10 19 9 11 15 12 17 4 2 -6 -1 -17 -7 -23z"/>
<path d="M29 2103 c-2 -74 2 -248 6 -252 3 -2 5 59 5 137 0 78 -2 142 -5 142
-3 0 -5 -12 -6 -27z"/>
<path d="M1920 2000 c0 -5 5 -10 11 -10 5 0 7 5 4 10 -3 6 -8 10 -11 10 -2 0
-4 -4 -4 -10z"/>
<path d="M1030 1980 c-8 -5 -15 -23 -16 -40 -2 -30 10 -41 19 -17 3 9 8 8 22
-3 16 -13 18 -13 13 0 -2 8 -15 20 -27 26 -16 8 -19 14 -11 19 7 4 16 2 20 -5
5 -9 9 -9 14 -1 8 12 0 31 -12 31 -4 0 -14 -5 -22 -10z"/>
<path d="M1217 1973 c-12 -12 -7 -41 8 -47 19 -7 46 20 39 39 -6 15 -35 20
-47 8z m33 -19 c0 -17 -22 -14 -28 4 -2 7 3 12 12 12 9 0 16 -7 16 -16z"/>
<path d="M1481 1953 c-1 -26 -16 -31 -25 -8 -9 25 -26 17 -25 -12 1 -19 3 -22
6 -10 4 17 6 17 23 2 26 -23 37 -16 29 20 -5 23 -7 25 -8 8z"/>
<path d="M960 1925 c0 -8 4 -15 10 -15 5 0 7 7 4 15 -4 8 -8 15 -10 15 -2 0
-4 -7 -4 -15z"/>
<path d="M1640 1919 c-14 -4 -19 -7 -12 -8 6 -1 12 -10 12 -20 0 -11 5 -23 11
-27 8 -5 10 1 5 19 -5 20 -2 26 11 29 10 2 14 6 8 9 -5 3 -21 3 -35 -2z"/>
<path d="M833 1913 c-7 -3 -13 -18 -13 -35 0 -27 1 -28 16 -13 14 13 19 14 25
3 7 -10 9 -10 9 3 0 22 -23 48 -37 42z m17 -17 c0 -3 -4 -8 -10 -11 -5 -3 -10
-1 -10 4 0 6 5 11 10 11 6 0 10 -2 10 -4z"/>
<path d="M1806 1855 c-20 -20 -6 -45 25 -45 28 0 34 20 12 42 -19 18 -21 18
-37 3z m34 -21 c0 -9 -5 -14 -12 -12 -18 6 -21 28 -4 28 9 0 16 -7 16 -16z"/>
<path d="M654 1835 c-4 -9 4 -23 17 -35 34 -27 47 -25 20 4 -13 14 -20 29 -16
35 3 6 1 11 -5 11 -6 0 -13 -7 -16 -15z"/>
<path d="M1160 1797 c-26 -23 -39 -42 -32 -45 8 -2 12 -29 12 -82 0 -77 0 -78
-29 -88 -35 -12 -107 -76 -131 -115 l-18 -28 -35 36 c-33 34 -41 37 -96 38
-34 1 -61 3 -61 5 0 8 70 111 79 116 14 9 14 53 1 61 -11 7 -67 -22 -96 -50
-12 -11 -41 -36 -64 -55 -92 -76 -141 -131 -150 -172 -7 -33 -7 -33 -14 17 -4
28 -9 56 -12 63 -4 13 -32 28 -39 20 -5 -5 -19 -229 -17 -268 5 -91 10 -128
20 -147 7 -12 12 -40 12 -62 0 -23 4 -41 9 -41 14 0 10 72 -6 104 -23 44 -24
421 -1 398 5 -5 15 -38 23 -73 11 -54 11 -68 -1 -91 -16 -30 -18 -48 -6 -48 4
0 18 37 31 81 14 45 33 91 43 103 19 21 19 21 13 -14 -4 -19 -16 -53 -27 -76
-11 -23 -18 -50 -16 -60 4 -15 6 -16 10 -4 3 8 11 31 18 50 7 19 17 53 22 75
15 59 30 85 42 78 6 -3 8 -3 4 1 -5 6 79 85 142 132 24 19 60 27 60 14 0 -20
-52 -80 -63 -73 -6 4 -8 0 -4 -10 3 -9 -6 -32 -23 -55 -33 -46 -50 -59 -50
-40 -1 7 -7 -2 -15 -21 -8 -18 -29 -49 -45 -68 -30 -33 -39 -63 -20 -63 6 0
10 8 10 19 0 10 12 32 28 49 15 17 37 44 48 59 19 24 24 26 38 14 14 -12 16
-12 10 3 -5 14 3 16 58 16 60 0 66 -2 97 -34 20 -20 29 -36 22 -40 -14 -9 -73
22 -66 34 4 6 1 10 -4 10 -6 0 -11 -5 -11 -10 0 -6 -19 -15 -42 -21 -35 -10
-46 -19 -60 -49 -10 -20 -18 -48 -18 -61 0 -14 -6 -31 -12 -38 -11 -11 -10
-13 3 -8 11 3 21 -3 29 -18 19 -35 38 -38 63 -10 57 65 89 95 99 89 16 -10 2
-68 -26 -111 -13 -21 -30 -59 -36 -85 -7 -26 -21 -54 -31 -64 -27 -24 -25
-124 2 -124 6 0 6 8 0 19 -12 22 -12 91 0 91 11 0 39 55 39 76 0 9 13 38 29
65 17 26 34 65 40 86 6 21 20 53 31 71 16 26 18 37 9 48 -25 31 87 141 166
163 48 13 138 15 131 2 -4 -5 2 -7 11 -5 24 6 116 -53 107 -68 -4 -6 -3 -8 3
-5 6 4 23 -9 38 -29 21 -28 24 -38 15 -49 -10 -12 -10 -18 0 -30 7 -8 10 -15
6 -15 -12 0 28 -86 54 -115 15 -16 37 -51 49 -77 12 -25 33 -54 47 -62 21 -14
23 -22 18 -55 -4 -26 -2 -41 6 -46 10 -6 12 -2 8 13 -3 12 -2 37 2 56 4 20 5
34 1 33 -18 -4 -55 29 -71 66 -10 23 -32 58 -50 77 -20 23 -29 43 -27 57 2 12
-1 21 -6 20 -6 -1 -13 6 -15 17 -4 18 -3 18 27 0 17 -10 34 -26 37 -36 3 -10
10 -18 15 -18 5 0 23 -13 41 -30 32 -31 82 -42 72 -16 -3 7 2 16 10 19 12 5
13 13 5 42 -6 19 -7 40 -4 45 3 5 -10 24 -29 41 -20 17 -34 35 -31 39 3 4 -11
11 -29 14 -19 4 -37 12 -39 19 -4 8 -6 7 -6 -3 -1 -15 -60 -45 -70 -35 -2 3
13 21 35 40 29 26 46 34 64 30 14 -2 40 -7 58 -11 42 -8 132 -93 133 -126 0
-13 3 -17 6 -10 9 23 -18 71 -58 102 -48 39 -139 71 -162 58 -10 -5 -22 -6
-28 -3 -5 4 9 17 33 30 l43 23 48 -19 c49 -20 157 -118 157 -144 0 -8 5 -17
11 -21 20 -12 -1 39 -32 78 -16 20 -29 43 -29 51 0 8 -6 17 -14 20 -7 3 -17
20 -21 39 -9 38 -7 33 -28 78 -16 36 -6 54 16 30 9 -10 9 -11 -2 -5 -9 5 -12
4 -7 -3 4 -7 13 -12 20 -12 12 0 96 -130 96 -149 0 -5 11 -30 23 -56 l24 -46
-5 106 c-3 77 -1 105 7 105 8 0 10 -8 6 -20 -3 -11 -2 -20 3 -20 6 0 12 -17
15 -37 3 -21 11 -60 17 -88 7 -27 12 -65 13 -83 0 -18 4 -27 8 -21 3 6 9 -22
12 -62 2 -41 8 -85 12 -99 5 -20 5 -22 -5 -10 -13 17 -12 12 22 -75 21 -55 21
-54 -3 85 -6 36 -10 81 -10 101 1 20 -6 55 -14 79 -8 23 -15 54 -15 68 0 14
-4 39 -10 56 -5 17 -15 55 -23 85 -7 30 -18 56 -24 58 -17 6 -32 -48 -30 -104
2 -54 -7 -63 -16 -16 -11 55 -106 193 -133 193 -34 0 -20 -59 42 -185 l14 -30
-23 26 c-13 14 -46 33 -74 42 -49 16 -53 16 -97 -3 -52 -24 -63 -35 -41 -47
13 -8 10 -14 -16 -38 -22 -21 -33 -26 -36 -17 -11 29 -59 75 -109 103 l-52 30
-4 75 c-2 41 1 75 6 77 5 2 -14 21 -41 44 l-49 41 -44 -41z m103 -25 c3 -4 8
-44 11 -89 7 -78 6 -83 -12 -83 -11 0 -27 10 -35 23 l-16 22 -7 -22 c-6 -21
-40 -38 -48 -24 -3 4 -6 45 -7 90 -2 80 -1 84 27 106 29 23 29 23 56 4 15 -11
29 -23 31 -27z m362 -361 c17 -19 31 -42 31 -51 1 -8 3 -28 5 -44 7 -49 -21
-55 -70 -17 -76 61 -99 88 -94 114 11 56 81 55 128 -2z m-727 10 c42 -17 40
-33 -8 -72 -22 -18 -49 -47 -60 -66 -23 -39 -42 -42 -64 -8 -34 52 -12 119 49
146 22 10 42 17 45 16 3 -2 20 -9 38 -16z m590 -8 c-4 -22 -22 -20 -26 1 -2
10 3 16 13 16 10 0 15 -7 13 -17z m-513 -3 c3 -6 -1 -13 -10 -16 -19 -8 -30 0
-20 15 8 14 22 14 30 1z m-25 -55 c-7 -8 -16 -12 -21 -9 -13 8 -1 24 18 24 13
0 13 -3 3 -15z"/>
<path d="M1200 1774 c0 -8 5 -12 10 -9 6 4 8 11 5 16 -9 14 -15 11 -15 -7z"/>
<path d="M627 1810 c6 -22 23 -38 23 -21 0 17 -12 41 -20 41 -5 0 -6 -9 -3
-20z"/>
<path d="M30 1799 c0 -5 5 -7 10 -4 6 3 10 8 10 11 0 2 -4 4 -10 4 -5 0 -10
-5 -10 -11z"/>
<path d="M1435 1783 c-27 -8 -56 -17 -63 -19 -8 -2 -12 -16 -10 -36 2 -28 8
-34 31 -36 16 -2 34 1 41 7 8 6 20 9 29 5 28 -10 52 64 29 87 -4 4 -29 0 -57
-8z m49 -25 c-1 -13 -3 -27 -3 -31 -1 -5 -10 -5 -21 -2 -13 4 -22 1 -26 -9 -3
-9 -17 -14 -35 -14 -25 1 -29 5 -29 28 0 22 4 26 23 25 12 -1 28 2 35 8 8 6
12 6 12 -2 0 -6 5 -11 10 -11 6 0 10 7 10 15 0 8 6 15 13 15 8 0 13 -9 11 -22z"/>
<path d="M29 1768 c-1 -2 -2 -21 -3 -42 -3 -35 -1 -37 11 -21 15 22 17 35 3
35 -5 0 -7 7 -4 15 5 12 -2 24 -7 13z"/>
<path d="M2002 1758 c-7 -7 -12 -22 -12 -35 0 -18 18 -31 100 -74 87 -44 103
-56 116 -88 8 -20 25 -44 37 -53 25 -19 15 -38 -11 -22 -9 6 -26 25 -37 42
-11 17 -24 31 -29 32 -15 0 3 -63 25 -86 17 -18 22 -37 23 -87 1 -51 6 -72 28
-104 18 -28 28 -58 31 -94 l3 -54 2 53 c2 40 -4 65 -25 104 -21 40 -27 64 -25
104 2 36 -2 55 -13 64 -26 21 -17 33 11 15 22 -14 28 -15 35 -4 32 51 -19 113
-151 183 -65 34 -84 49 -82 63 5 26 10 28 29 11 38 -33 223 -124 223 -110 0 5
-34 23 -76 42 -42 18 -100 51 -130 72 -63 44 -57 41 -72 26z m9 -41 c-8 -8
-11 -7 -11 4 0 9 3 19 7 23 4 4 9 2 11 -4 3 -7 -1 -17 -7 -23z m249 -200 c0
-13 -29 12 -42 37 -10 19 -8 18 16 -3 14 -14 26 -29 26 -34z m-60 -18 c0 -6
-4 -7 -10 -4 -5 3 -10 11 -10 16 0 6 5 7 10 4 6 -3 10 -11 10 -16z"/>
<path d="M463 1738 c-18 -11 -33 -25 -33 -31 0 -8 4 -7 12 1 18 18 28 15 28
-8 0 -11 5 -20 10 -20 6 0 8 11 4 26 -4 17 -2 29 7 35 7 4 11 10 9 12 -3 2
-20 -5 -37 -15z"/>
<path d="M1010 1753 c-31 -6 -70 -41 -70 -63 0 -9 -5 -21 -12 -28 -8 -8 -8
-15 1 -26 15 -18 47 -10 90 23 19 14 39 29 44 32 6 4 6 15 2 25 -5 11 -9 23
-9 28 -1 12 -14 14 -46 9z m26 -29 c-5 -17 -3 -23 4 -19 5 3 10 1 10 -4 0 -6
-4 -11 -9 -11 -4 0 -20 -11 -35 -25 -14 -13 -26 -19 -26 -13 0 9 -3 9 -12 0
-16 -16 -28 -15 -28 3 0 8 5 15 11 15 5 0 7 5 4 10 -8 14 41 64 54 56 5 -4 12
-2 16 4 11 19 17 10 11 -16z"/>
<path d="M305 1608 c-16 -23 -59 -66 -95 -96 -151 -126 -155 -135 -122 -260
16 -63 19 -97 15 -182 -8 -158 -6 -211 10 -255 8 -23 22 -41 32 -44 13 -2 16
1 12 13 -3 8 -9 50 -11 93 -5 61 -4 71 4 46 10 -31 30 -54 30 -34 0 5 -4 12
-9 15 -15 10 -19 55 -5 73 15 21 18 33 6 33 -5 0 -16 -16 -25 -35 -19 -39 -22
-112 -8 -163 6 -18 6 -30 1 -27 -4 3 -15 36 -25 74 -14 58 -15 76 -5 106 18
55 17 233 -2 270 -9 17 -19 49 -22 71 -11 65 11 103 97 168 78 59 137 118 137
138 0 7 7 3 15 -8 14 -18 15 -17 9 10 -5 21 -4 27 5 22 23 -15 8 -41 -79 -135
-84 -91 -89 -99 -81 -127 6 -21 4 -36 -5 -49 -18 -24 -29 -13 -15 13 6 12 11
29 11 38 0 15 -4 14 -25 -6 -28 -27 -32 -52 -10 -70 13 -11 20 -9 39 9 19 18
23 30 19 59 -5 35 0 42 81 127 72 76 85 95 83 120 -3 43 -27 41 -62 -7z m-153
-280 c-7 -7 -12 -8 -12 -2 0 14 12 26 19 19 2 -3 -1 -11 -7 -17z"/>
<path d="M41 1565 c-6 -25 -5 -515 2 -515 4 0 7 -7 7 -17 0 -9 1 -14 3 -12 1
2 0 128 -3 279 -3 151 -7 271 -9 265z"/>
<path d="M222 1391 c-10 -16 -11 -26 -3 -34 15 -15 23 -3 19 30 l-3 28 -13
-24z"/>
<path d="M1857 1397 c-3 -8 -1 -20 4 -28 6 -10 9 -7 9 14 0 29 -5 35 -13 14z"/>
<path d="M1810 1368 c0 -7 5 -20 10 -28 8 -12 10 -11 10 7 0 12 -4 25 -10 28
-5 3 -10 0 -10 -7z"/>
<path d="M1136 1343 l-48 -4 7 -167 c4 -92 10 -170 13 -173 6 -6 108 2 228 17
l42 5 -5 152 c-2 84 -6 158 -8 165 -4 12 -107 14 -229 5z m217 -60 c4 -32 7
-101 8 -153 l2 -95 -44 -6 c-24 -4 -78 -10 -121 -13 l-76 -8 -6 64 c-3 35 -8
107 -12 160 l-6 97 69 4 c37 1 93 4 124 5 l56 2 6 -57z"/>
<path d="M1280 1308 c0 -4 5 -8 10 -8 6 0 10 -12 10 -27 0 -33 5 -28 13 12 5
26 2 31 -14 31 -10 0 -19 -4 -19 -8z"/>
<path d="M1130 1299 c0 -5 5 -7 10 -4 6 3 10 -3 10 -14 0 -14 -5 -19 -15 -15
-8 4 -15 1 -15 -6 0 -6 8 -10 18 -8 23 4 30 58 8 58 -9 0 -16 -5 -16 -11z"/>
<path d="M1178 1305 c-3 -6 -2 -21 3 -34 8 -19 12 -21 24 -11 17 14 20 50 4
50 -5 0 -7 -4 -4 -10 3 -5 3 -16 -1 -22 -6 -9 -10 -5 -14 12 -3 14 -9 20 -12
15z"/>
<path d="M1243 1285 c1 -20 8 -31 20 -33 9 -2 17 1 17 7 0 6 -6 11 -14 11 -8
0 -17 10 -19 23 -4 15 -5 12 -4 -8z"/>
<path d="M1292 1205 c-9 -18 -8 -26 1 -32 21 -13 37 -12 37 2 0 19 -17 28 -23
13 -4 -9 -6 -8 -6 3 -1 8 4 20 11 27 7 7 8 12 2 12 -6 0 -16 -11 -22 -25z"/>
<path d="M1144 1197 c-3 -14 -4 -34 -1 -44 4 -14 5 -14 6 5 1 26 17 29 25 5 2
-10 4 -3 3 16 -2 41 -24 53 -33 18z"/>
<path d="M1200 1193 c0 -28 16 -47 34 -40 10 4 15 17 15 34 -2 25 -2 25 -6 5
-3 -13 -10 -21 -16 -19 -7 2 -11 11 -9 21 2 9 -2 16 -8 16 -5 0 -10 -8 -10
-17z"/>
<path d="M1295 1120 c-16 -7 -17 -9 -3 -9 10 -1 18 -11 20 -28 3 -25 4 -23 9
10 5 40 5 40 -26 27z"/>
<path d="M1225 1109 c-4 -5 1 -19 11 -30 16 -18 16 -19 1 -13 -10 3 -17 1 -17
-5 0 -14 27 -14 35 -1 4 6 1 17 -5 25 -6 8 -9 19 -5 25 3 5 2 10 -4 10 -5 0
-13 -5 -16 -11z"/>
<path d="M1179 1103 c-1 -5 -1 -12 0 -17 1 -5 -1 -16 -5 -25 -5 -13 -9 -10
-20 14 -10 23 -13 25 -13 10 -1 -29 15 -49 33 -42 10 4 16 18 16 37 0 26 -8
43 -11 23z"/>
<path d="M1760 1330 c0 -19 3 -21 12 -12 9 9 9 15 0 24 -9 9 -12 7 -12 -12z"/>
<path d="M206 1311 c-17 -32 -17 -35 0 -74 25 -54 24 -134 -2 -178 -16 -27
-21 -52 -21 -117 0 -45 3 -84 7 -87 3 -2 7 36 7 85 0 74 3 93 18 110 30 33 33
138 6 191 -20 39 -21 43 -5 60 9 10 14 24 12 31 -3 8 -12 -1 -22 -21z"/>
<path d="M627 1313 c-7 -12 4 -63 14 -63 5 0 6 15 2 33 -7 37 -9 41 -16 30z"/>
<path d="M557 1288 c-3 -9 1 -24 8 -35 11 -14 14 -15 14 -3 0 8 -4 24 -8 34
-6 17 -8 17 -14 4z"/>
<path d="M510 1248 c0 -15 5 -30 10 -33 13 -8 13 25 0 45 -8 12 -10 9 -10 -12z"/>
<path d="M871 1254 c0 -11 3 -14 6 -6 3 7 2 16 -1 19 -3 4 -6 -2 -5 -13z"/>
<path d="M1921 1144 c0 -11 3 -14 6 -6 3 7 2 16 -1 19 -3 4 -6 -2 -5 -13z"/>
<path d="M1873 1136 c-22 -10 -31 -26 -15 -26 10 1 46 29 41 33 -2 2 -14 -2
-26 -7z"/>
<path d="M2263 1090 c-9 -23 -9 -30 1 -30 8 0 13 13 14 30 0 17 0 30 -1 30 -2
0 -8 -13 -14 -30z"/>
<path d="M705 1030 c3 -5 10 -10 16 -10 5 0 9 5 9 10 0 6 -7 10 -16 10 -8 0
-12 -4 -9 -10z"/>
<path d="M2083 1023 c-4 -9 -18 -27 -32 -39 -24 -21 -25 -23 -9 -41 9 -10 18
-27 19 -37 2 -10 12 -24 22 -30 14 -9 21 -7 32 8 7 10 19 15 24 11 6 -3 19 -4
29 0 15 4 19 15 18 53 -2 56 -11 75 -36 67 -11 -3 -20 0 -24 10 -7 20 -35 19
-43 -2z m37 -39 c0 -24 -17 -15 -22 11 -4 20 -3 23 8 14 8 -6 14 -18 14 -25z
m38 -6 c-2 -6 -10 -14 -16 -16 -7 -2 -10 2 -6 12 7 18 28 22 22 4z m-63 -18
c3 -5 -3 -10 -14 -10 -12 0 -21 5 -21 10 0 6 6 10 14 10 8 0 18 -4 21 -10z
m63 -46 c-10 -10 -28 6 -28 24 0 15 1 15 17 -1 9 -9 14 -19 11 -23z m-48 1 c0
-8 -4 -15 -10 -15 -5 0 -10 7 -10 15 0 8 5 15 10 15 6 0 10 -7 10 -15z"/>
<path d="M520 1021 c0 -5 7 -15 17 -22 15 -13 15 -12 4 9 -12 23 -21 28 -21
13z"/>
<path d="M39 994 c-1 -10 -1 -59 -1 -109 0 -57 -4 -93 -11 -97 -9 -6 -8 -8 1
-8 15 0 15 -127 -1 -137 -5 -3 -5 -8 1 -12 7 -4 12 -76 13 -199 1 -106 5 -192
10 -192 8 0 1 761 -7 769 -2 2 -5 -4 -5 -15z"/>
<path d="M2214 921 c32 -33 29 -44 -31 -119 -41 -50 -56 -118 -29 -128 20 -8
28 -1 31 23 1 10 7 31 14 47 6 16 9 36 6 44 -3 7 4 25 15 39 11 14 20 32 20
40 0 8 5 11 10 8 17 -10 11 -62 -10 -101 -16 -27 -18 -39 -10 -49 12 -15 52
-16 43 -2 -3 4 -11 6 -19 3 -9 -4 -14 2 -14 15 0 11 5 17 10 14 6 -3 10 3 10
14 0 12 4 21 9 21 10 0 8 42 -4 80 -8 28 -53 80 -69 80 -5 0 3 -13 18 -29z
m-14 -135 c0 -2 -7 -17 -15 -32 -8 -16 -15 -39 -15 -52 0 -13 -4 -20 -10 -17
-15 9 -12 44 7 76 15 25 33 39 33 25z"/>
<path d="M910 915 c-7 -9 -8 -15 -2 -15 5 0 12 7 16 15 3 8 4 15 2 15 -2 0 -9
-7 -16 -15z"/>
<path d="M1144 851 c-22 -34 -25 -46 -19 -82 7 -38 5 -44 -33 -83 -70 -73
-133 -158 -128 -172 3 -8 0 -11 -8 -8 -7 3 -16 -1 -19 -9 -9 -25 -180 -257
-188 -257 -5 0 -9 9 -9 21 0 12 -6 35 -14 52 -7 18 -21 52 -30 77 -20 56 -81
140 -101 140 -8 0 -15 -9 -15 -20 0 -12 -8 -37 -19 -58 -26 -51 -31 -92 -34
-287 -2 -94 -2 -154 0 -135 2 19 6 42 10 50 7 20 8 74 0 87 -13 21 11 219 32
268 11 26 21 56 21 67 0 54 91 -87 121 -188 12 -41 26 -77 31 -80 4 -3 3 -15
-3 -26 -11 -21 -12 -21 -25 -3 -18 24 -18 41 0 26 8 -7 -4 26 -26 71 -23 46
-41 89 -41 96 0 8 -4 9 -9 4 -6 -6 -6 -17 0 -28 11 -21 55 -113 61 -128 2 -5
-1 -6 -8 -2 -17 11 -14 5 30 -75 23 -41 43 -91 46 -111 3 -21 12 -43 21 -50
13 -11 14 -10 4 9 -7 12 -12 34 -12 49 0 15 -7 35 -16 45 -19 21 -18 24 81
135 81 91 133 139 142 130 14 -14 -56 -236 -105 -333 -16 -31 -9 -61 7 -34 7
11 9 11 13 0 3 -8 7 -12 10 -9 11 11 115 187 122 205 4 11 29 56 55 100 26 44
74 127 106 185 84 154 85 154 140 155 45 0 47 1 60 39 14 41 4 83 -16 70 -7
-4 -7 -10 -1 -16 7 -7 7 -18 0 -34 -14 -30 -23 -30 -43 -2 -13 19 -18 21 -34
11 -17 -11 -19 -10 -16 5 2 9 8 30 14 45 25 64 11 71 -55 26 l-44 -30 -10 25
c-5 15 -14 26 -20 26 -15 0 -2 43 16 53 18 11 18 27 -1 27 -8 0 -26 -18 -41
-39z m29 -81 c21 -34 28 -36 62 -14 20 13 25 14 25 3 0 -12 2 -12 9 0 5 8 8 0
7 -25 -1 -33 2 -39 20 -40 12 -1 26 -4 33 -8 16 -10 4 -26 -14 -19 -8 3 -26 2
-40 -1 -18 -5 -23 -11 -18 -24 6 -14 4 -15 -9 -4 -13 10 -15 9 -11 -11 3 -14
-2 -29 -11 -36 -9 -8 -16 -22 -16 -31 0 -10 -14 -32 -31 -49 -17 -17 -27 -36
-23 -42 3 -6 3 -14 -2 -18 -17 -11 -64 -90 -64 -106 0 -18 -17 -20 -23 -2 -2
6 -8 9 -12 5 -4 -4 -3 -14 4 -22 9 -11 8 -18 -6 -32 -10 -9 -18 -22 -19 -28 0
-6 -2 -17 -2 -24 -1 -7 -14 -18 -29 -24 -21 -8 -24 -12 -12 -15 15 -4 15 -8
-3 -44 -10 -22 -25 -42 -33 -45 -14 -6 -31 -42 -27 -57 1 -5 -2 -6 -8 -2 -6 3
-9 9 -6 13 2 4 11 24 21 45 13 28 20 35 26 25 6 -9 9 -9 9 -1 0 6 -4 14 -9 17
-10 7 15 85 35 107 9 10 10 19 4 25 -7 7 -5 17 5 30 14 18 14 18 15 -5 0 -13
3 -22 6 -18 3 3 3 20 -1 37 -7 34 -51 87 -57 70 -2 -6 -12 -13 -23 -14 -11 -2
-19 -8 -18 -14 3 -11 -85 -102 -98 -102 -5 0 -16 -12 -26 -27 -20 -34 -53 -67
-53 -55 0 4 5 13 12 20 7 7 9 12 5 12 -4 0 7 13 24 29 19 18 28 35 23 42 -4 8
-3 9 4 5 7 -4 12 -1 12 8 0 8 8 21 18 28 9 7 18 20 20 28 2 8 12 24 23 36 10
11 19 27 20 35 1 8 5 3 9 -11 7 -22 8 -21 9 13 1 23 5 36 11 32 6 -3 10 1 10
9 0 9 5 15 11 13 7 -1 16 13 21 31 5 17 13 32 18 32 5 0 11 9 15 19 3 10 18
22 33 26 15 4 21 10 14 12 -17 6 24 53 45 53 8 0 12 4 8 9 -9 15 24 41 43 34
15 -6 15 -5 -1 11 -17 18 -17 19 0 39 16 18 16 20 1 14 -12 -4 -16 -1 -15 14
2 27 10 24 30 -11z"/>
<path d="M1247 707 c-3 -8 1 -21 9 -27 15 -13 17 -6 5 24 -6 17 -8 17 -14 3z"/>
<path d="M1207 691 c-4 -17 -3 -21 5 -13 5 5 8 16 6 23 -3 8 -7 3 -11 -10z"/>
<path d="M1180 685 c0 -8 2 -15 4 -15 2 0 6 7 10 15 3 8 1 15 -4 15 -6 0 -10
-7 -10 -15z"/>
<path d="M1143 645 c-3 -9 -3 -19 1 -22 3 -4 6 1 6 10 0 8 6 18 13 20 9 4 9 6
-1 6 -7 1 -15 -6 -19 -14z"/>
<path d="M1176 643 c-6 -14 -5 -15 5 -6 7 7 10 15 7 18 -3 3 -9 -2 -12 -12z"/>
<path d="M1082 634 c-7 -8 -8 -14 -3 -14 10 0 25 19 20 25 -2 1 -10 -3 -17
-11z"/>
<path d="M1110 620 c-9 -6 -10 -10 -3 -10 6 0 15 5 18 10 8 12 4 12 -15 0z"/>
<path d="M1197 609 c5 -17 3 -18 -21 -9 -32 12 -35 -1 -3 -16 17 -7 26 -7 33
1 14 17 15 33 0 38 -10 4 -12 0 -9 -14z"/>
<path d="M1057 579 c7 -7 15 -10 18 -7 3 3 -2 9 -12 12 -14 6 -15 5 -6 -5z"/>
<path d="M1140 561 c-8 -6 -18 -7 -24 -4 -5 3 -6 1 -3 -5 8 -12 47 -4 47 9 0
11 -1 11 -20 0z"/>
<path d="M1040 549 c0 -5 -4 -8 -9 -4 -5 3 -13 0 -17 -6 -4 -7 -3 -9 4 -5 5 3
12 2 14 -4 2 -6 9 -1 16 10 7 12 8 20 2 20 -5 0 -10 -5 -10 -11z"/>
<path d="M1170 549 c0 -5 5 -7 10 -4 6 3 10 8 10 11 0 2 -4 4 -10 4 -5 0 -10
-5 -10 -11z"/>
<path d="M1050 516 c0 -2 7 -7 16 -10 8 -3 12 -2 9 4 -6 10 -25 14 -25 6z"/>
<path d="M1095 510 c-3 -5 -1 -10 4 -10 6 0 11 5 11 10 0 6 -2 10 -4 10 -3 0
-8 -4 -11 -10z"/>
<path d="M1136 504 c-9 -24 -2 -26 12 -4 7 11 8 20 3 20 -5 0 -12 -7 -15 -16z"/>
<path d="M1082 476 c8 -9 15 -10 19 -3 4 5 9 2 12 -9 6 -19 6 -19 4 0 -1 11
-11 20 -25 23 -19 2 -21 1 -10 -11z"/>
<path d="M975 470 c-3 -5 -1 -10 4 -10 6 0 11 5 11 10 0 6 -2 10 -4 10 -3 0
-8 -4 -11 -10z"/>
<path d="M1033 463 c-3 -10 -8 -22 -11 -27 -3 -5 1 -7 8 -4 7 2 15 14 17 26 4
26 -5 29 -14 5z"/>
<path d="M1005 460 c3 -5 8 -10 11 -10 2 0 4 5 4 10 0 6 -5 10 -11 10 -5 0 -7
-4 -4 -10z"/>
<path d="M980 440 c0 -5 5 -10 11 -10 5 0 7 5 4 10 -3 6 -8 10 -11 10 -2 0 -4
-4 -4 -10z"/>
<path d="M951 417 c-13 -21 -12 -21 5 -5 10 10 16 20 13 22 -3 3 -11 -5 -18
-17z"/>
<path d="M1087 424 c3 -7 11 -10 19 -7 20 8 17 22 -5 20 -10 0 -17 -7 -14 -13z"/>
<path d="M1026 405 c-3 -8 -1 -15 3 -15 5 0 7 -10 5 -22 -2 -13 -1 -16 2 -8 4
8 10 20 14 25 5 6 2 15 -5 22 -10 10 -14 9 -19 -2z"/>
<path d="M1073 389 c-2 -23 3 -25 10 -4 4 8 3 16 -1 19 -4 3 -9 -4 -9 -15z"/>
<path d="M880 359 c0 -5 5 -7 10 -4 6 3 10 8 10 11 0 2 -4 4 -10 4 -5 0 -10
-5 -10 -11z"/>
<path d="M1010 255 c-11 -13 -10 -14 4 -9 9 3 16 10 16 15 0 13 -6 11 -20 -6z"/>
<path d="M1727 820 c-29 -31 -55 -38 -74 -19 -7 7 -12 5 -15 -9 -5 -17 -1 -18
31 -12 20 4 44 11 54 15 10 4 17 3 17 -4 0 -8 19 -10 65 -5 39 4 65 3 65 -3 0
-5 -11 -25 -25 -44 -19 -24 -24 -41 -20 -59 9 -32 21 -40 72 -40 l41 0 -11
-29 c-7 -20 -8 -42 -1 -68 l9 -38 77 -5 c43 -4 83 -11 89 -17 17 -17 1 -67
-34 -107 -29 -33 -40 -38 -115 -50 -64 -11 -96 -23 -145 -54 -67 -42 -106 -57
-177 -67 -57 -8 -137 -33 -170 -53 -23 -15 -22 -13 5 17 40 44 53 50 162 77
55 13 123 39 166 63 46 25 92 42 127 47 74 9 138 41 161 78 10 17 19 36 19 41
0 6 -9 -4 -20 -22 -27 -46 -57 -61 -145 -78 -50 -10 -103 -29 -149 -54 -40
-22 -104 -46 -146 -55 -108 -24 -169 -57 -202 -107 -15 -24 -26 -44 -24 -47 2
-2 23 8 45 22 23 15 65 31 94 37 148 30 186 42 249 80 45 28 94 47 148 59 44
10 90 25 103 33 30 19 80 112 73 135 -12 37 -72 83 -110 85 -20 1 -36 3 -36 5
0 1 7 13 16 27 19 30 21 79 4 100 -10 12 -27 16 -62 13 -26 -1 -48 -1 -48 1 0
3 7 12 16 22 19 21 12 47 -23 89 -22 26 -31 30 -76 30 -44 -1 -56 -5 -80 -30z
m132 10 c10 -5 21 -15 24 -22 3 -10 -13 -13 -64 -13 -65 0 -69 1 -69 23 0 20
5 22 46 22 25 0 53 -4 63 -10z m41 -73 c0 -7 -7 -23 -16 -36 -24 -34 -39 -11
-17 27 17 29 33 34 33 9z m88 -72 c6 -3 12 -12 12 -21 0 -11 -5 -14 -16 -10
-9 3 -44 6 -79 6 -53 0 -63 3 -68 19 -4 18 0 19 67 14 39 -2 77 -6 84 -8z m5
-51 c11 -11 -26 -64 -45 -64 -22 0 -23 18 -2 48 15 22 34 28 47 16z m74 -108
l23 -21 -68 3 c-47 2 -71 8 -79 20 -22 27 -15 31 45 25 39 -4 64 -12 79 -27z"/>
<path d="M545 830 c-11 -17 5 -32 21 -19 7 6 11 15 8 20 -7 12 -21 11 -29 -1z"/>
<path d="M640 825 c0 -12 4 -13 19 -5 14 7 21 6 24 -3 3 -7 6 -5 6 6 1 12 -7
17 -24 17 -16 0 -25 -6 -25 -15z"/>
<path d="M379 773 c-12 -21 -24 -40 -26 -43 -2 -2 -17 10 -32 28 -16 17 -31
32 -34 32 -2 0 -2 -20 0 -44 5 -41 3 -44 -23 -54 l-29 -10 26 -1 c35 -1 52 20
43 56 l-7 28 31 -29 30 -28 16 31 c22 42 28 39 20 -9 -6 -36 -5 -40 15 -40 12
0 32 -5 43 -11 13 -7 24 -7 30 -1 7 7 -4 12 -32 17 l-42 7 4 54 c3 30 1 54 -3
54 -4 0 -18 -17 -30 -37z"/>
<path d="M467 777 c-9 -11 -14 -23 -10 -26 3 -3 8 0 10 7 3 6 9 10 13 7 12 -7
20 9 12 22 -5 8 -13 5 -25 -10z"/>
<path d="M745 787 c-4 -10 -3 -23 4 -30 16 -16 23 -3 12 24 -8 22 -10 22 -16
6z"/>
<path d="M790 735 c-31 -32 -31 -34 -16 -62 15 -30 15 -30 70 -20 51 9 54 12
58 43 3 29 0 34 -38 52 l-42 21 -32 -34z m94 -35 c0 -18 -7 -26 -29 -32 -18
-4 -32 -3 -36 3 -4 8 -9 7 -15 -2 -6 -10 -10 -7 -15 11 -4 17 0 32 14 47 18
20 23 21 51 9 22 -9 30 -19 30 -36z"/>
<path d="M1000 760 c0 -5 5 -10 10 -10 6 0 10 5 10 10 0 6 -4 10 -10 10 -5 0
-10 -4 -10 -10z"/>
<path d="M200 671 c0 -5 14 -12 30 -16 17 -4 30 -9 30 -12 0 -4 -14 -31 -31
-61 -28 -51 -29 -55 -14 -78 8 -13 25 -24 36 -24 18 0 19 -2 9 -15 -15 -18
-13 -20 18 -29 16 -6 22 -3 22 8 0 9 5 16 10 16 6 0 10 -4 10 -10 0 -5 8 -10
18 -10 21 0 68 91 58 115 -10 27 2 35 32 19 33 -17 39 -5 18 37 -15 29 -15 33
2 45 19 15 5 19 -17 5 -12 -8 -13 -14 -3 -36 18 -39 15 -47 -13 -29 -14 9 -25
12 -26 8 0 -5 -9 10 -19 34 -18 40 -42 54 -55 32 -3 -5 -21 -10 -40 -10 -19 0
-37 5 -40 10 -8 13 -35 13 -35 1z m161 -48 c7 -21 12 -42 11 -47 -2 -4 2 -14
8 -21 8 -10 6 -24 -9 -54 -12 -22 -25 -42 -31 -46 -13 -8 -13 18 0 31 21 21
29 72 14 91 -13 16 -13 16 -8 1 4 -12 1 -18 -10 -18 -9 0 -16 8 -16 19 0 11
-5 23 -11 27 -9 5 -10 -1 -5 -20 4 -15 2 -26 -4 -26 -5 0 -10 7 -10 15 0 8 -5
15 -11 15 -6 0 -8 -7 -5 -17 4 -9 1 -20 -6 -24 -20 -13 -2 -22 20 -10 28 15
62 14 62 -2 0 -18 -66 -94 -74 -86 -4 3 3 17 14 32 25 32 26 45 1 23 -23 -21
-49 -18 -65 6 -20 33 62 148 106 148 10 0 21 -14 29 -37z"/>
<path d="M1458 593 c-9 -10 -20 -30 -23 -45 -7 -26 -5 -28 22 -28 23 0 33 7
42 27 10 23 9 29 -7 45 -17 18 -19 18 -34 1z m18 -19 c-4 -12 -2 -15 9 -10 12
4 13 2 4 -12 -6 -10 -20 -18 -30 -18 -23 0 -23 1 -3 31 18 28 29 33 20 9z"/>
<path d="M1532 530 c-13 -11 -18 -21 -12 -25 17 -10 11 -39 -11 -58 -11 -10
-18 -21 -14 -25 3 -3 10 -1 14 6 4 8 15 14 23 16 8 1 27 9 41 19 32 21 37 21
37 2 0 -20 16 -19 24 2 6 14 9 14 27 -6 11 -11 17 -26 13 -33 -5 -8 -2 -9 10
-5 12 5 16 3 14 -5 -3 -7 -24 -19 -49 -27 -24 -8 -51 -16 -59 -19 -8 -3 -21
-4 -27 -3 -13 2 -18 -11 -7 -21 8 -9 134 38 152 56 15 14 13 19 -18 51 -25 26
-42 35 -60 33 -19 -2 -25 2 -25 15 0 17 -30 48 -44 47 -3 -1 -16 -9 -29 -20z
m56 -23 c3 -16 -22 -46 -39 -47 -12 0 -16 59 -5 64 21 9 41 1 44 -17z"/>
<path d="M2272 525 c0 -16 2 -22 5 -12 2 9 2 23 0 30 -3 6 -5 -1 -5 -18z"/>
<path d="M1392 434 c-12 -8 -22 -22 -22 -31 0 -9 -7 -24 -16 -34 -28 -32 -8
-40 78 -34 84 6 98 9 98 26 0 6 -5 7 -12 2 -7 -4 -22 -8 -33 -9 -11 -1 -27 -3
-35 -5 -10 -3 -14 2 -12 14 2 9 -2 17 -8 17 -5 0 -10 -6 -10 -14 0 -14 -21
-26 -46 -26 -18 0 -18 15 2 34 8 9 13 20 10 25 -8 12 16 30 51 41 28 8 28 8 3
9 -14 1 -36 -6 -48 -15z"/>
<path d="M1510 405 c-9 -11 -9 -15 -1 -15 6 0 11 6 11 13 0 7 3 8 8 2 11 -15
45 -19 40 -4 -6 18 -44 21 -58 4z"/>
<path d="M208 274 c-34 -18 -36 -42 -6 -74 12 -13 22 -33 23 -44 0 -10 7 -21
15 -24 12 -4 13 -3 2 10 -10 13 -9 18 3 28 21 17 41 -1 49 -44 9 -45 28 -61
56 -46 15 8 20 19 18 38 -4 32 -34 42 -52 16 -12 -15 -14 -13 -20 21 -5 23 -3
42 3 48 16 16 14 57 -3 57 -8 0 -16 7 -20 15 -7 19 -33 19 -68 -1z m59 -15 c3
-12 11 -18 19 -15 17 6 18 -8 4 -35 -14 -25 -51 -24 -79 2 -21 19 -25 42 -8
39 4 0 15 6 23 15 21 21 35 19 41 -6z m91 -142 c4 -21 -25 -34 -40 -19 -8 8
-8 16 2 27 16 19 34 15 38 -8z"/>
<path d="M328 113 c7 -3 16 -2 19 1 4 3 -2 6 -13 5 -11 0 -14 -3 -6 -6z"/>
<path d="M2242 232 c-40 -19 -52 -55 -27 -82 21 -23 36 -25 53 -8 7 7 8 17 1
30 -11 20 -39 25 -39 7 0 -6 7 -9 15 -5 9 3 15 0 15 -9 0 -20 -36 -19 -44 0
-12 32 23 66 48 46 8 -6 11 -2 12 15 1 13 1 23 0 23 0 -1 -16 -9 -34 -17z"/>
<path d="M38 198 c-2 -46 0 -74 10 -143 8 -55 9 -51 10 58 1 71 -2 117 -8 117
-6 0 -11 -15 -12 -32z"/>
<path d="M584 183 c10 -41 8 -71 -8 -106 -18 -40 -26 -77 -18 -77 4 0 16 30
27 66 22 74 30 83 53 61 18 -19 10 -40 -34 -94 -22 -28 -24 -33 -9 -33 9 0 30
14 46 31 29 31 30 31 49 14 11 -10 20 -24 20 -32 0 -7 5 -13 10 -13 18 0 11
18 -20 52 -16 18 -35 47 -41 65 -6 18 -17 33 -24 33 -20 0 -47 30 -41 46 3 8
0 14 -5 14 -7 0 -9 -10 -5 -27z"/>
<path d="M1276 201 c-4 -6 0 -18 8 -27 12 -12 16 -12 16 -2 0 22 -17 42 -24
29z"/>
<path d="M1970 158 c-23 -42 -42 -60 -68 -64 -8 -2 -21 -9 -30 -17 -10 -8 -23
-12 -30 -10 -7 3 -19 -1 -27 -7 -12 -10 -18 -10 -30 0 -12 10 -20 9 -40 -4
-14 -9 -25 -23 -25 -30 0 -8 -6 -17 -12 -19 -9 -4 -7 -6 3 -6 9 -1 21 10 27
24 12 27 31 32 49 14 9 -9 16 -7 28 5 10 9 25 14 35 11 9 -3 23 1 30 10 20 24
31 18 20 -11 -7 -17 -7 -31 0 -42 10 -18 13 -11 11 28 -1 16 7 34 21 45 l22
20 -17 -27 c-20 -31 -23 -63 -5 -52 8 5 9 2 5 -10 -4 -9 -3 -15 2 -12 4 3 11
27 15 52 6 49 35 124 47 124 9 0 79 -118 79 -132 0 -6 -7 -20 -17 -30 -18 -20
-4 -25 15 -6 9 9 15 9 24 0 22 -22 32 -12 11 11 -11 12 -25 37 -32 56 -6 19
-19 43 -28 53 -9 10 -21 28 -27 40 -18 34 -31 31 -56 -14z"/>
<path d="M1247 139 c-9 -12 -14 -27 -10 -32 3 -5 9 -4 13 3 4 7 12 15 18 19 6
4 7 12 3 20 -7 10 -12 8 -24 -10z"/>
<path d="M2020 88 c0 -9 7 -21 15 -28 11 -9 12 -17 4 -32 -6 -11 -9 -22 -6
-24 2 -2 9 7 17 20 11 22 10 28 -9 52 -13 17 -21 21 -21 12z"/>
<path d="M1200 40 c0 -17 2 -19 14 -8 14 13 12 28 -5 28 -5 0 -9 -9 -9 -20z"/>
<path d="M1540 43 c0 -19 11 -43 21 -43 13 0 11 14 -6 36 -8 10 -15 14 -15 7z"/>
<path d="M156 15 c-4 -12 -2 -13 13 -6 10 6 21 8 24 5 2 -3 19 -7 35 -9 22 -3
30 0 26 8 -7 19 -91 20 -98 2z"/>
<path d="M1017 17 c-3 -8 3 -14 16 -15 12 0 17 2 12 6 -6 4 -13 11 -16 15 -4
4 -9 2 -12 -6z"/>
<path d="M1450 10 c0 -5 5 -10 10 -10 6 0 10 5 10 10 0 6 -4 10 -10 10 -5 0
-10 -4 -10 -10z"/>
<path d="M1808 3 c7 -3 16 -2 19 1 4 3 -2 6 -13 5 -11 0 -14 -3 -6 -6z"/>
</g>
</svg>
