<?xml version="1.0" standalone="no"?>
<!DOCTYPE svg PUBLIC "-//W3C//DTD SVG 20010904//EN"
 "http://www.w3.org/TR/2001/REC-SVG-20010904/DTD/svg10.dtd">
<svg version="1.0" xmlns="http://www.w3.org/2000/svg"
 width="225.000000pt" height="297.000000pt" viewBox="0 0 225.000000 297.000000"
 preserveAspectRatio="xMidYMid meet">
<metadata>
Created by potrace 1.10, written by Peter Selinger 2001-2011
</metadata>
<g transform="translate(0.000000,297.000000) scale(0.100000,-0.100000)"
fill="#000000" stroke="none">
<path d="M2244 2885 c0 -49 1 -71 3 -48 2 23 2 64 0 90 -2 26 -3 8 -3 -42z"/>
<path d="M846 2784 c-10 -25 -7 -34 9 -34 8 0 15 5 15 10 0 6 -5 10 -11 10 -8
0 -8 5 1 15 7 9 8 15 2 15 -5 0 -13 -7 -16 -16z"/>
<path d="M930 2790 c0 -5 5 -10 10 -10 6 0 10 5 10 10 0 6 -4 10 -10 10 -5 0
-10 -4 -10 -10z"/>
<path d="M1278 2773 c7 -3 16 -2 19 1 4 3 -2 6 -13 5 -11 0 -14 -3 -6 -6z"/>
<path d="M1053 2763 c-7 -2 -13 -12 -13 -21 0 -14 2 -14 9 -3 7 11 9 11 14 0
3 -8 6 -4 6 9 1 12 0 22 -1 21 -2 0 -9 -3 -15 -6z"/>
<path d="M1238 2758 c9 -11 10 -18 2 -23 -17 -10 -12 -25 13 -34 27 -11 49 5
27 19 -13 9 -13 11 0 19 18 12 13 17 -25 27 -27 6 -29 5 -17 -8z m22 -38 c0
-5 -4 -10 -10 -10 -5 0 -10 5 -10 10 0 6 5 10 10 10 6 0 10 -4 10 -10z"/>
<path d="M764 2745 c-5 -12 -10 -13 -20 -4 -11 9 -14 8 -14 -5 0 -21 29 -21
37 0 5 13 7 13 14 2 7 -10 9 -9 9 5 0 21 -18 23 -26 2z"/>
<path d="M1010 2745 c0 -8 5 -15 10 -15 6 0 10 7 10 15 0 8 -4 15 -10 15 -5 0
-10 -7 -10 -15z"/>
<path d="M1315 2752 c-14 -10 -17 -32 -5 -32 6 0 10 8 11 18 0 10 3 12 6 4 2
-6 9 -10 14 -6 5 3 7 10 4 15 -7 11 -16 11 -30 1z"/>
<path d="M950 2730 c-14 -11 -20 -20 -13 -20 6 0 14 4 17 9 3 5 15 7 26 4 12
-3 20 0 20 6 0 7 -4 10 -9 7 -5 -4 -11 -2 -13 3 -1 6 -14 1 -28 -9z"/>
<path d="M1765 2723 c-28 -7 -65 -43 -65 -64 0 -24 38 -49 75 -49 42 0 102 18
120 36 17 17 20 60 5 69 -6 4 -7 -5 -4 -24 5 -25 2 -31 -22 -44 -65 -33 -146
-33 -159 0 -11 31 35 63 106 72 62 8 63 8 14 9 -27 0 -59 -2 -70 -5z"/>
<path d="M560 2710 c-12 -7 -12 -12 -2 -22 9 -9 12 -9 12 5 0 20 26 23 33 5 2
-7 8 -10 12 -6 22 21 -26 37 -55 18z"/>
<path d="M897 2713 c-12 -12 -7 -22 8 -17 8 4 15 10 15 15 0 11 -14 12 -23 2z"/>
<path d="M520 2701 c0 -5 5 -13 10 -16 6 -3 10 -2 10 4 0 5 -4 13 -10 16 -5 3
-10 2 -10 -4z"/>
<path d="M670 2694 c0 -8 5 -12 10 -9 6 3 10 10 10 16 0 5 -4 9 -10 9 -5 0
-10 -7 -10 -16z"/>
<path d="M826 2691 c-4 -7 -5 -15 -2 -18 9 -9 19 4 14 18 -4 11 -6 11 -12 0z"/>
<path d="M1830 2679 c0 -11 4 -18 10 -14 5 3 7 12 3 20 -7 21 -13 19 -13 -6z"/>
<path d="M790 2674 c0 -8 5 -12 10 -9 6 4 8 11 5 16 -9 14 -15 11 -15 -7z"/>
<path d="M1806 2681 c-4 -7 -5 -15 -2 -18 9 -9 19 4 14 18 -4 11 -6 11 -12 0z"/>
<path d="M960 2666 c0 -9 5 -16 10 -16 6 0 10 4 10 9 0 6 -4 13 -10 16 -5 3
-10 -1 -10 -9z"/>
<path d="M990 2670 c0 -5 7 -10 16 -10 8 0 12 5 9 10 -3 6 -10 10 -16 10 -5 0
-9 -4 -9 -10z"/>
<path d="M1771 2664 c0 -11 3 -14 6 -6 3 7 2 16 -1 19 -3 4 -6 -2 -5 -13z"/>
<path d="M720 2656 c0 -21 16 -28 29 -12 9 11 8 15 -5 20 -22 8 -24 8 -24 -8z"/>
<path d="M1738 2663 c7 -3 16 -2 19 1 4 3 -2 6 -13 5 -11 0 -14 -3 -6 -6z"/>
<path d="M917 2654 c-9 -10 2 -24 18 -24 9 0 12 6 9 15 -6 16 -17 19 -27 9z"/>
<path d="M654 2639 c-3 -6 -16 -8 -29 -5 -25 6 -43 -18 -23 -30 7 -4 14 -2 16
4 2 6 10 8 18 5 8 -3 14 0 14 6 0 6 6 8 13 5 8 -3 14 2 14 11 0 17 -13 20 -23
4z"/>
<path d="M1360 2639 c0 -18 140 -300 170 -344 27 -38 28 -47 33 -181 3 -101 9
-150 20 -173 15 -30 15 -33 -9 -68 -44 -66 -46 -62 135 -268 41 -47 78 -85 83
-85 5 0 8 15 7 33 -3 33 -20 67 -50 102 -9 11 -20 36 -24 55 -4 19 -15 49 -25
67 l-19 32 29 21 c37 26 40 25 40 -9 0 -42 20 -92 52 -129 15 -18 35 -49 43
-68 8 -20 26 -49 40 -66 14 -16 25 -37 25 -47 0 -9 5 -22 12 -29 6 -6 9 -14 6
-17 -3 -3 -31 22 -62 56 -31 34 -59 59 -62 56 -3 -3 24 -36 60 -73 45 -46 69
-65 76 -58 12 12 -14 87 -40 119 -9 11 -31 45 -48 76 -17 30 -40 63 -51 73
-13 11 -24 42 -31 87 -11 64 -10 70 10 99 12 16 26 30 31 30 6 0 16 15 24 34
13 30 13 40 0 77 -8 23 -15 52 -15 65 0 12 -4 26 -10 29 -6 4 -1 18 11 34 33
45 29 92 -14 147 -20 26 -37 53 -37 59 0 6 -11 22 -24 34 -21 20 -27 21 -48
11 -12 -7 -30 -21 -39 -32 -11 -14 -22 -18 -36 -14 -25 8 -96 85 -143 157 -35
53 -97 119 -112 119 -4 0 -8 -5 -8 -11z m94 -91 c19 -25 42 -60 50 -76 16 -30
113 -122 129 -122 5 0 22 14 37 30 15 17 35 30 43 30 22 0 117 -144 117 -177
0 -14 -11 -40 -24 -57 -13 -17 -26 -41 -30 -53 -4 -12 -29 -39 -57 -59 -27
-20 -59 -55 -71 -78 -16 -30 -23 -36 -26 -23 -5 22 31 91 69 135 16 18 29 38
29 45 0 7 7 25 15 40 9 19 11 27 3 25 -6 -2 -17 -21 -24 -42 -8 -21 -28 -54
-45 -74 -40 -45 -62 -97 -57 -134 3 -16 1 -31 -3 -33 -13 -9 -29 87 -36 213
-5 116 -8 130 -33 167 -15 22 -42 72 -60 110 -56 120 -67 143 -91 182 l-24 38
27 -20 c14 -11 42 -41 62 -67z m358 -470 c24 -109 28 -98 -62 -187 l-82 -82
15 -32 c8 -18 22 -56 32 -84 9 -29 25 -59 36 -67 17 -12 44 -74 36 -83 -2 -2
-37 36 -78 83 -41 47 -91 105 -111 129 -21 23 -38 51 -37 61 0 11 20 46 44 79
25 33 51 74 59 91 7 17 35 46 61 65 26 19 51 45 56 58 12 30 19 23 31 -31z"/>
<path d="M1675 2370 c3 -5 10 -10 16 -10 5 0 9 5 9 10 0 6 -7 10 -16 10 -8 0
-12 -4 -9 -10z"/>
<path d="M1736 2361 c-4 -5 -2 -12 3 -15 5 -4 12 -2 15 3 4 5 2 12 -3 15 -5 4
-12 2 -15 -3z"/>
<path d="M845 2610 c3 -5 10 -10 16 -10 5 0 9 5 9 10 0 6 -7 10 -16 10 -8 0
-12 -4 -9 -10z"/>
<path d="M1215 2610 c3 -5 8 -10 11 -10 2 0 4 5 4 10 0 6 -5 10 -11 10 -5 0
-7 -4 -4 -10z"/>
<path d="M787 2603 c-4 -3 -7 -11 -7 -17 0 -6 5 -5 12 2 6 6 9 14 7 17 -3 3
-9 2 -12 -2z"/>
<path d="M740 2585 c0 -9 5 -15 11 -13 6 2 11 8 11 13 0 5 -5 11 -11 13 -6 2
-11 -4 -11 -13z"/>
<path d="M558 2403 c-16 -8 -28 -17 -28 -21 0 -6 -79 -13 -195 -16 -22 0 -50
3 -62 7 -18 7 -22 5 -17 -7 3 -9 1 -16 -5 -16 -24 0 -9 -18 30 -35 37 -17 48
-18 127 -6 91 13 122 9 122 -15 0 -39 132 -42 160 -4 17 22 19 22 97 11 44 -6
88 -9 99 -5 66 21 74 27 63 40 -6 7 -7 18 -3 25 5 9 0 10 -22 3 -45 -13 -224
-5 -223 11 4 36 -17 50 -56 35 -15 -6 -26 -6 -30 0 -8 13 -24 11 -57 -7z m57
-43 c1 -19 1 -30 -1 -25 -3 6 -46 9 -111 6 -60 -1 -131 -4 -160 -5 -29 0 -57
4 -62 9 -7 7 12 10 57 11 37 0 92 3 122 5 30 2 62 2 70 -1 9 -3 15 1 15 10 0
15 29 30 54 27 8 -1 15 -16 16 -37z m72 10 c0 -26 -4 -30 -29 -30 -23 0 -28 4
-28 24 0 23 11 31 46 35 6 0 11 -12 11 -29z m175 -25 c37 1 62 -3 55 -7 -25
-16 -221 -3 -210 14 3 6 21 7 47 2 22 -5 71 -9 108 -9z m-252 -39 c0 -29 -17
-43 -32 -28 -6 6 -17 8 -26 4 -12 -4 -14 -1 -9 12 4 10 7 22 7 27 0 5 14 9 30
9 25 0 30 -4 30 -24z m75 15 c7 -12 -44 -53 -56 -45 -5 3 -9 16 -9 30 0 20 5
24 29 24 17 0 32 -4 36 -9z"/>
<path d="M1224 2374 c-35 -17 -64 -61 -64 -98 0 -68 97 -91 151 -37 16 16 29
39 29 51 0 43 -44 101 -77 100 -4 0 -22 -7 -39 -16z m74 -16 c11 -13 24 -36
28 -51 9 -40 -36 -87 -83 -87 -36 0 -73 29 -73 58 0 37 60 100 96 102 6 0 20
-10 32 -22z"/>
<path d="M1270 2316 c0 -17 14 -29 23 -20 8 8 -3 34 -14 34 -5 0 -9 -6 -9 -14z"/>
<path d="M1242 2301 c4 -13 18 -16 19 -4 0 4 -5 9 -11 12 -7 2 -11 -2 -8 -8z"/>
<path d="M1220 2281 c0 -6 -8 -11 -17 -11 -14 0 -15 -2 -4 -12 11 -11 14 -10
18 0 3 6 9 10 14 6 5 -3 9 -1 9 5 0 5 -4 13 -10 16 -5 3 -10 1 -10 -4z"/>
<path d="M145 2330 c4 -6 11 -8 16 -5 14 9 11 15 -7 15 -8 0 -12 -5 -9 -10z"/>
<path d="M2050 2270 c0 -6 -11 -8 -25 -4 -29 7 -45 -17 -25 -41 6 -8 9 -19 5
-25 -4 -6 0 -19 8 -28 9 -9 18 -29 22 -44 8 -33 34 -57 71 -67 28 -7 29 -9 29
-77 0 -38 -3 -107 -7 -154 -5 -58 -5 -80 2 -68 16 26 32 206 25 283 -11 118
-58 235 -95 235 -5 0 -10 -5 -10 -10z m65 -94 c20 -67 20 -107 -1 -99 -8 3
-13 12 -10 19 3 8 2 14 -3 14 -5 0 -12 10 -16 23 -4 12 -8 24 -9 27 -1 3 -7
15 -14 27 -10 18 -9 23 4 31 11 6 13 11 5 16 -6 4 -11 15 -11 24 1 29 38 -27
55 -82z m-62 60 c7 -18 -24 -31 -35 -14 -12 20 -9 28 11 28 10 0 21 -6 24 -14z
m-6 -48 c16 -20 43 -109 32 -102 -11 7 -33 55 -31 67 1 4 -5 10 -13 13 -16 6
-21 34 -6 34 5 0 13 -6 18 -12z"/>
<path d="M217 2225 c-4 -8 -2 -17 3 -20 6 -4 10 -4 10 -1 0 2 3 11 6 20 3 9 2
16 -4 16 -5 0 -12 -7 -15 -15z"/>
<path d="M315 2162 c-2 -3 -14 -5 -26 -6 -12 0 -24 -7 -27 -15 -3 -10 0 -12
13 -8 40 16 65 19 65 8 0 -6 4 -11 9 -11 6 0 9 8 8 18 -1 16 -30 25 -42 14z"/>
<path d="M416 2155 c4 -8 7 -15 9 -15 2 0 5 7 9 15 3 9 0 15 -9 15 -9 0 -12
-6 -9 -15z"/>
<path d="M237 2153 c-10 -9 -9 -23 2 -23 5 0 11 7 15 15 5 15 -5 20 -17 8z"/>
<path d="M375 2150 c3 -5 10 -10 16 -10 5 0 9 5 9 10 0 6 -7 10 -16 10 -8 0
-12 -4 -9 -10z"/>
<path d="M145 2139 c-10 -15 2 -24 17 -12 7 6 23 9 36 7 12 -2 22 1 22 6 0 13
-67 13 -75 -1z"/>
<path d="M1005 2094 c-14 -15 -25 -36 -25 -48 0 -24 -36 -51 -63 -47 -28 4
-86 -19 -97 -39 -7 -13 -5 -21 8 -32 21 -18 68 -38 88 -38 21 0 44 -25 44 -48
0 -30 38 -72 66 -72 20 0 29 10 50 55 18 38 32 55 45 55 17 0 18 3 7 20 -17
27 -24 25 -37 -11 -9 -26 -14 -29 -33 -24 -23 7 -23 7 -3 -9 20 -16 20 -16 0
-9 -17 6 -18 5 -7 -9 11 -14 11 -21 1 -40 -9 -17 -14 -19 -17 -8 -3 7 0 16 7
18 6 2 8 9 4 15 -5 7 -8 33 -8 59 l0 48 30 -6 c25 -4 36 0 59 23 27 26 28 26
22 6 -8 -27 14 -32 33 -9 13 16 1 28 -33 33 -24 4 -45 31 -46 58 0 29 -37 85
-55 85 -9 0 -27 -12 -40 -26z m52 -6 c-3 -8 -6 -5 -6 6 -1 11 2 17 5 13 3 -3
4 -12 1 -19z m-17 1 c0 -5 -6 -7 -12 -3 -10 6 -10 4 0 -7 20 -22 15 -41 -9
-34 -15 5 -19 4 -15 -4 4 -6 14 -11 23 -11 10 0 13 -5 8 -17 -4 -10 -8 -22 -9
-28 -1 -5 -7 -19 -13 -29 -16 -28 -58 -15 -59 19 -2 21 2 25 26 25 16 0 32 5
36 12 5 8 2 9 -11 5 -15 -6 -17 -3 -11 24 6 34 23 59 37 59 5 0 9 -5 9 -11z
m40 -28 c0 -5 -7 -11 -15 -15 -9 -3 -15 0 -15 9 0 8 7 15 15 15 8 0 15 -4 15
-9z m-11 -52 c-10 -6 -6 -9 14 -9 24 0 27 -4 27 -31 0 -28 -2 -30 -32 -29 -53
3 -57 1 -60 -32 -3 -29 -6 -33 -28 -30 -43 4 -54 11 -41 26 6 7 8 16 4 19 -3
4 7 7 23 7 40 1 60 19 68 62 4 20 12 38 19 41 17 6 22 -14 6 -24z m-132 -41
c7 -16 7 -30 0 -45 -11 -25 -33 -32 -23 -8 3 9 0 15 -9 15 -8 0 -15 -4 -15
-10 0 -5 -5 -10 -11 -10 -5 0 -8 4 -5 9 3 5 -9 12 -27 17 l-32 8 32 3 c23 3
30 8 26 19 -3 8 0 14 6 14 6 0 11 -7 11 -15 0 -8 7 -15 16 -15 11 0 14 6 9 20
-9 27 9 25 22 -2z m73 -118 c13 -8 13 -11 -2 -27 -22 -21 -36 -10 -17 14 8 9
9 14 2 10 -6 -4 -14 -3 -18 3 -8 13 15 13 35 0z m10 -52 c0 -16 -3 -19 -11
-11 -6 6 -8 16 -5 22 11 17 16 13 16 -11z"/>
<path d="M1196 1942 c-3 -6 2 -13 12 -17 16 -7 15 -8 -3 -15 -11 -4 -28 -3
-38 2 -26 13 -38 6 -23 -14 11 -15 19 -16 49 -7 21 5 37 16 37 23 0 18 -27 40
-34 28z"/>
<path d="M403 1874 c-18 -22 -19 -30 -10 -46 10 -16 6 -24 -34 -61 -32 -30
-50 -57 -62 -95 -10 -29 -28 -71 -41 -94 l-23 -41 22 -68 c12 -38 25 -72 28
-76 4 -3 7 -19 7 -33 0 -15 7 -33 15 -40 9 -8 15 -9 15 -2 0 6 -5 14 -10 17
-6 4 -8 16 -5 27 4 11 1 26 -8 36 -8 9 -18 33 -22 52 -3 19 -11 48 -17 64 -10
24 -9 31 5 41 10 7 15 19 11 28 -3 8 -1 18 5 22 6 3 11 1 11 -4 0 -6 5 -11 11
-11 6 0 8 8 4 19 -7 24 22 116 43 133 13 11 14 10 4 -9 -7 -12 -12 -41 -12
-64 0 -52 7 -48 13 7 3 23 11 52 19 65 36 64 54 89 61 89 9 0 -2 -50 -14 -66
-10 -13 -13 -69 -5 -104 24 -110 37 -124 62 -63 8 21 19 47 24 58 5 13 8 -24
7 -100 -1 -66 -6 -127 -11 -135 -5 -8 -6 -12 -1 -8 4 4 14 0 21 -10 12 -15 13
-12 8 23 -11 79 -3 240 15 272 27 51 -5 124 -82 185 -29 23 -30 23 -54 -8z
m68 -22 c-18 -6 -13 -19 12 -26 25 -6 57 -53 57 -84 0 -11 -16 -39 -36 -63
-19 -23 -38 -55 -41 -71 -8 -41 -20 -34 -27 15 -18 121 -18 125 7 142 24 15
57 12 57 -7 0 -5 -4 -7 -9 -4 -12 8 -61 -11 -61 -23 0 -5 12 -4 26 4 15 7 32
11 39 9 7 -3 16 0 20 6 10 16 -26 41 -52 35 -19 -5 -21 -2 -17 40 3 25 1 45
-3 44 -17 -3 -24 1 -18 11 4 6 16 3 32 -7 14 -9 21 -19 14 -21z m-51 -1 c0 -6
-4 -13 -10 -16 -5 -3 -10 1 -10 9 0 9 5 16 10 16 6 0 10 -4 10 -9z"/>
<path d="M1927 1883 c-13 -12 -7 -25 8 -19 8 3 15 1 15 -5 0 -6 5 -7 10 -4 6
4 5 12 -4 21 -16 16 -20 17 -29 7z"/>
<path d="M2190 1870 c0 -6 7 -10 15 -10 8 0 15 2 15 4 0 2 -7 6 -15 10 -8 3
-15 1 -15 -4z"/>
<path d="M1866 1855 c4 -8 8 -15 10 -15 2 0 4 7 4 15 0 8 -4 15 -10 15 -5 0
-7 -7 -4 -15z"/>
<path d="M1890 1860 c0 -5 5 -10 10 -10 6 0 10 5 10 10 0 6 -4 10 -10 10 -5 0
-10 -4 -10 -10z"/>
<path d="M800 1845 c-14 -16 -10 -18 14 -9 9 3 16 10 16 15 0 14 -16 11 -30
-6z"/>
<path d="M2200 1835 c0 -8 5 -15 10 -15 6 0 10 7 10 15 0 8 -4 15 -10 15 -5 0
-10 -7 -10 -15z"/>
<path d="M765 1801 c-6 -11 9 -23 19 -14 9 9 7 23 -3 23 -6 0 -12 -4 -16 -9z"/>
<path d="M2195 1800 c3 -5 10 -10 16 -10 5 0 9 5 9 10 0 6 -7 10 -16 10 -8 0
-12 -4 -9 -10z"/>
<path d="M790 1780 c0 -5 5 -10 10 -10 6 0 10 5 10 10 0 6 -4 10 -10 10 -5 0
-10 -4 -10 -10z"/>
<path d="M821 1774 c0 -11 3 -14 6 -6 3 7 2 16 -1 19 -3 4 -6 -2 -5 -13z"/>
<path d="M1410 1780 c0 -5 5 -10 10 -10 6 0 10 5 10 10 0 6 -4 10 -10 10 -5 0
-10 -4 -10 -10z"/>
<path d="M842 1771 c2 -7 7 -12 11 -12 12 1 9 15 -3 20 -7 2 -11 -2 -8 -8z"/>
<path d="M2197 1766 c-6 -15 1 -26 15 -26 5 0 6 5 3 10 -3 6 -1 10 4 10 6 0
11 5 11 10 0 15 -27 12 -33 -4z"/>
<path d="M760 1745 c-10 -12 -10 -15 4 -15 9 0 16 7 16 15 0 8 -2 15 -4 15 -2
0 -9 -7 -16 -15z"/>
<path d="M790 1731 c0 -5 9 -11 20 -14 12 -3 20 0 20 7 0 6 -9 12 -20 13 -11
1 -20 -2 -20 -6z"/>
<path d="M840 1721 c0 -5 14 -11 30 -13 35 -5 41 7 8 16 -31 8 -38 7 -38 -3z"/>
<path d="M915 1711 c-3 -7 2 -11 14 -11 12 0 21 -4 21 -9 0 -5 15 -5 35 -1 22
5 35 4 38 -3 2 -6 6 -3 10 6 6 15 1 18 -36 16 -23 -1 -49 1 -58 5 -10 4 -20 3
-24 -3z"/>
<path d="M2204 1684 c5 -14 4 -15 -9 -4 -18 15 -19 11 -5 -24 5 -14 14 -26 19
-26 6 0 8 6 5 14 -3 8 -1 24 6 35 9 17 8 21 -6 21 -11 0 -14 -5 -10 -16z"/>
<path d="M2183 1605 c0 -14 5 -25 12 -25 15 0 14 42 -1 47 -7 2 -11 -7 -11
-22z"/>
<path d="M350 1603 c0 -19 11 -43 21 -43 13 0 11 14 -6 36 -8 10 -15 14 -15 7z"/>
<path d="M310 1568 c0 -9 5 -20 10 -23 13 -8 13 5 0 25 -8 13 -10 13 -10 -2z"/>
<path d="M276 1525 c4 -8 8 -15 10 -15 2 0 4 7 4 15 0 8 -4 15 -10 15 -5 0 -7
-7 -4 -15z"/>
<path d="M1333 1510 c-3 -13 -14 -20 -28 -20 -13 0 -30 -3 -39 -6 -11 -4 -16
-1 -16 10 0 9 -4 16 -8 16 -13 0 -32 -23 -32 -38 0 -7 -14 -25 -30 -39 -31
-26 -66 -81 -56 -90 2 -3 16 13 30 36 15 22 45 53 67 68 35 23 54 28 132 31
89 4 123 14 111 33 -8 14 -40 10 -54 -7 -15 -17 -62 -15 -66 4 -1 7 0 8 3 2 5
-12 23 -4 23 11 0 18 -32 9 -37 -11z m-93 -24 c0 -3 -4 -8 -10 -11 -5 -3 -10
-1 -10 4 0 6 5 11 10 11 6 0 10 -2 10 -4z"/>
<path d="M822 1508 c2 -6 12 -12 22 -14 10 -1 20 -5 23 -8 6 -5 -6 -6 -79 -6
-48 0 -68 -14 -49 -33 7 -7 26 -5 65 8 47 16 60 17 97 6 55 -17 114 -54 135
-86 9 -14 21 -25 26 -25 16 0 -31 58 -62 76 -25 15 -27 20 -17 41 7 17 7 27 0
34 -15 15 -33 3 -33 -20 0 -17 -3 -17 -35 -7 -19 7 -43 20 -53 29 -21 19 -46
23 -40 5z m145 -40 c-3 -8 -6 -5 -6 6 -1 11 2 17 5 13 3 -3 4 -12 1 -19z
m-192 -8 c-3 -5 -10 -10 -16 -10 -5 0 -9 5 -9 10 0 6 7 10 16 10 8 0 12 -4 9
-10z"/>
<path d="M1269 1430 c-9 -5 -27 -11 -39 -13 -23 -4 -50 -32 -50 -51 0 -6 9 0
20 14 12 16 20 20 20 11 0 -11 4 -9 15 5 8 10 15 15 15 10 0 -5 9 -1 20 9 12
11 20 13 20 6 0 -7 5 -9 10 -6 11 7 4 25 -8 25 -4 0 -14 -5 -23 -10z"/>
<path d="M878 1414 c-9 -8 2 -34 14 -34 5 0 6 5 3 10 -7 12 8 14 19 3 4 -5 15
-8 24 -8 10 -1 28 -7 40 -14 13 -7 26 -11 28 -8 7 7 -37 33 -68 40 -14 4 -32
9 -40 12 -8 3 -17 3 -20 -1z"/>
<path d="M1190 1344 c-22 -19 -28 -29 -19 -34 6 -4 8 -13 5 -19 -5 -7 5 -11
28 -11 35 0 76 27 76 50 0 16 -53 12 -78 -6 -13 -9 -22 -11 -22 -4 0 6 19 20
43 30 30 14 36 20 20 20 -12 0 -36 -12 -53 -26z m67 -26 c-2 -7 -12 -12 -22
-10 -10 2 -21 -2 -26 -9 -4 -8 -12 -10 -16 -5 -10 10 25 36 50 36 11 0 17 -5
14 -12z"/>
<path d="M340 1350 c0 -5 5 -10 10 -10 6 0 10 5 10 10 0 6 -4 10 -10 10 -5 0
-10 -4 -10 -10z"/>
<path d="M954 1341 c4 -6 16 -11 26 -11 10 0 22 -4 25 -10 3 -5 14 -10 23 -10
14 0 13 3 -4 14 -28 20 -79 33 -70 17z"/>
<path d="M917 1313 c-13 -12 -7 -23 23 -38 57 -29 104 -9 60 27 -22 18 -70 24
-83 11z m78 -19 c9 -9 13 -19 10 -22 -3 -3 -11 0 -17 6 -15 15 -31 16 -22 1 4
-8 0 -8 -15 0 -11 7 -21 16 -21 21 0 16 47 11 65 -6z"/>
<path d="M1074 1265 c-7 -17 1 -45 13 -45 5 0 8 14 8 30 1 32 -12 40 -21 15z"/>
<path d="M1270 1260 c-9 -6 -10 -10 -3 -10 6 0 15 5 18 10 8 12 4 12 -15 0z"/>
<path d="M1593 1263 c-15 -5 -18 -33 -4 -33 8 0 25 30 19 35 -2 1 -9 0 -15 -2z"/>
<path d="M1666 1263 c-11 -11 -6 -23 9 -23 8 0 15 4 15 9 0 13 -16 22 -24 14z"/>
<path d="M1501 1244 c0 -11 3 -14 6 -6 3 7 2 16 -1 19 -3 4 -6 -2 -5 -13z"/>
<path d="M1525 1251 c-3 -5 -1 -12 5 -16 5 -3 10 1 10 9 0 18 -6 21 -15 7z"/>
<path d="M1550 1250 c0 -5 5 -10 10 -10 6 0 10 5 10 10 0 6 -4 10 -10 10 -5 0
-10 -4 -10 -10z"/>
<path d="M1720 1245 c0 -12 5 -15 16 -11 9 4 23 1 30 -5 11 -9 14 -8 14 5 0 9
-6 16 -14 16 -8 0 -21 3 -30 6 -11 4 -16 1 -16 -11z"/>
<path d="M260 1231 c-13 -25 -13 -41 0 -41 6 0 10 9 10 21 0 11 5 17 10 14 6
-3 10 1 10 9 0 22 -17 20 -30 -3z"/>
<path d="M1391 1214 c-14 -13 -19 -24 -13 -28 6 -4 16 3 22 14 8 15 17 19 31
15 12 -4 19 -2 19 7 0 21 -33 16 -59 -8z"/>
<path d="M1150 1221 c0 -5 5 -13 10 -16 6 -3 10 -2 10 4 0 5 -4 13 -10 16 -5
3 -10 2 -10 -4z"/>
<path d="M1035 1210 c-4 -7 -2 -16 6 -21 18 -11 23 -4 11 17 -7 12 -11 13 -17
4z"/>
<path d="M400 1191 c0 -20 13 -35 23 -25 7 8 -4 44 -14 44 -5 0 -9 -9 -9 -19z"/>
<path d="M1120 1200 c0 -5 5 -10 10 -10 6 0 10 5 10 10 0 6 -4 10 -10 10 -5 0
-10 -4 -10 -10z"/>
<path d="M954 1187 c3 -10 6 -30 6 -45 0 -20 3 -23 12 -14 7 7 44 12 93 12 44
0 96 4 117 9 28 7 40 5 52 -7 10 -10 16 -12 16 -5 0 7 -5 15 -10 18 -6 4 -8
15 -5 26 4 11 2 19 -4 19 -6 0 -11 -6 -11 -14 0 -21 -26 -28 -128 -34 -94 -5
-94 -5 -119 24 -16 19 -23 22 -19 11z"/>
<path d="M1073 1185 c2 -5 10 -10 17 -10 7 0 15 5 17 10 2 6 -6 11 -17 11 -11
0 -19 -5 -17 -11z"/>
<path d="M1290 1188 c0 -7 13 -13 30 -14 35 -1 40 11 8 20 -33 8 -38 8 -38 -6z"/>
<path d="M1483 1193 c-7 -2 -13 -11 -13 -18 0 -8 6 -17 13 -21 6 -4 9 -4 5 1
-4 4 -3 16 3 26 5 11 8 19 7 18 -2 0 -9 -3 -15 -6z"/>
<path d="M1540 1190 c-5 -3 -5 -11 0 -20 6 -10 10 -11 10 -3 0 7 6 10 14 7 7
-3 16 2 19 10 4 10 0 14 -14 13 -11 -1 -24 -4 -29 -7z"/>
<path d="M1595 1187 c-4 -10 -5 -21 -1 -24 10 -10 18 4 13 24 -4 17 -4 17 -12
0z"/>
<path d="M1630 1180 c0 -11 4 -20 9 -20 6 0 9 9 8 20 -1 11 -5 20 -9 20 -4 0
-8 -9 -8 -20z"/>
<path d="M1700 1181 c0 -17 6 -21 30 -21 20 0 30 5 30 15 0 18 -17 20 -22 4
-3 -8 -10 -6 -21 5 -16 16 -17 16 -17 -3z"/>
<path d="M360 1181 c0 -6 5 -13 10 -16 6 -3 10 1 10 9 0 9 -4 16 -10 16 -5 0
-10 -4 -10 -9z"/>
<path d="M1792 1170 c0 -14 2 -19 5 -12 2 6 2 18 0 25 -3 6 -5 1 -5 -13z"/>
<path d="M330 1160 c0 -13 5 -18 15 -14 12 5 13 10 4 20 -15 19 -19 18 -19 -6z"/>
<path d="M1440 1171 c0 -5 5 -13 10 -16 6 -3 10 -2 10 4 0 5 -4 13 -10 16 -5
3 -10 2 -10 -4z"/>
<path d="M1816 1165 c-3 -8 -1 -15 3 -15 5 0 11 7 15 15 3 8 1 15 -3 15 -5 0
-11 -7 -15 -15z"/>
<path d="M1886 1171 c-4 -7 -5 -15 -2 -18 9 -9 19 4 14 18 -4 11 -6 11 -12 0z"/>
<path d="M500 1157 c0 -10 8 -17 18 -17 9 0 13 4 7 8 -5 4 -13 11 -17 16 -5 5
-8 2 -8 -7z"/>
<path d="M1405 1156 c-11 -7 -24 -15 -30 -16 -27 -7 -35 -13 -35 -29 0 -13 2
-14 9 -2 5 8 18 16 28 17 40 6 58 11 56 18 -6 23 -10 25 -28 12z"/>
<path d="M1923 1163 c-7 -3 -13 -9 -13 -15 0 -6 7 -8 15 -4 8 3 21 -1 28 -9
11 -10 17 -11 26 -2 8 8 11 8 11 -1 0 -7 7 -12 16 -12 23 0 12 23 -14 26 -37
6 -47 9 -52 15 -3 3 -11 4 -17 2z"/>
<path d="M290 1141 c0 -6 5 -13 10 -16 6 -3 10 1 10 9 0 9 -4 16 -10 16 -5 0
-10 -4 -10 -9z"/>
<path d="M434 1139 c-3 -6 -1 -16 5 -22 8 -8 11 -5 11 11 0 24 -5 28 -16 11z"/>
<path d="M460 1140 c0 -5 7 -10 15 -10 8 0 15 5 15 10 0 6 -7 10 -15 10 -8 0
-15 -4 -15 -10z"/>
<path d="M606 1141 c-5 -7 -3 -18 3 -24 14 -14 20 -6 11 17 -5 15 -9 16 -14 7z"/>
<path d="M640 1135 c0 -8 9 -15 20 -15 13 0 18 5 14 15 -4 8 -12 15 -20 15 -8
0 -14 -7 -14 -15z"/>
<path d="M216 1132 c-3 -6 -13 -9 -21 -5 -11 3 -15 -2 -15 -17 0 -18 3 -20 14
-11 7 6 20 9 27 6 8 -3 21 -1 29 5 12 7 12 12 2 22 -9 9 -12 8 -13 -7 0 -20
-1 -20 -8 -1 -5 13 -10 16 -15 8z"/>
<path d="M2035 1130 c-9 -15 4 -30 20 -23 8 3 15 9 15 13 0 12 -29 20 -35 10z"/>
<path d="M1645 1119 c-4 -6 -5 -13 -2 -16 7 -7 27 6 27 18 0 12 -17 12 -25 -2z"/>
<path d="M1676 1115 c-9 -25 -7 -29 8 -16 10 8 16 9 21 1 10 -15 25 -12 25 6
0 10 -6 14 -14 11 -7 -3 -18 -1 -23 4 -7 7 -13 5 -17 -6z"/>
<path d="M381 1104 c0 -11 3 -14 6 -6 3 7 2 16 -1 19 -3 4 -6 -2 -5 -13z"/>
<path d="M410 1110 c0 -5 5 -10 10 -10 6 0 10 5 10 10 0 6 -4 10 -10 10 -5 0
-10 -4 -10 -10z"/>
<path d="M1750 1110 c0 -5 5 -10 10 -10 6 0 10 5 10 10 0 6 -4 10 -10 10 -5 0
-10 -4 -10 -10z"/>
<path d="M1780 1098 c0 -19 2 -20 10 -8 13 19 13 30 0 30 -5 0 -10 -10 -10
-22z"/>
<path d="M1807 1104 c-8 -8 1 -24 12 -24 4 0 8 7 8 15 0 16 -9 20 -20 9z"/>
<path d="M1841 1086 c0 -11 3 -15 6 -8 2 6 10 9 16 5 28 -17 74 -12 62 7 -5 8
-11 7 -21 -1 -8 -7 -14 -7 -14 -1 0 5 -11 12 -25 14 -20 4 -25 1 -24 -16z"/>
<path d="M346 1091 c-4 -5 -2 -12 3 -15 5 -4 12 -2 15 3 4 5 2 12 -3 15 -5 4
-12 2 -15 -3z"/>
<path d="M520 1089 c0 -13 24 -23 27 -12 2 6 12 9 22 6 10 -3 21 0 25 5 3 6
-10 9 -34 9 -22 -1 -40 -4 -40 -8z"/>
<path d="M271 1068 c-1 -16 4 -28 9 -28 12 0 12 8 0 35 -8 18 -9 17 -9 -7z"/>
<path d="M305 1080 c-8 -13 4 -32 16 -25 12 8 12 35 0 35 -6 0 -13 -4 -16 -10z"/>
<path d="M500 1075 c0 -8 4 -15 10 -15 5 0 7 7 4 15 -4 8 -8 15 -10 15 -2 0
-4 -7 -4 -15z"/>
<path d="M236 1073 c-12 -12 -6 -33 9 -33 8 0 15 6 15 14 0 17 -14 28 -24 19z"/>
<path d="M455 1070 c-3 -5 -3 -15 1 -21 6 -11 23 6 24 24 0 10 -18 9 -25 -3z"/>
<path d="M363 1042 c-8 -5 -8 -12 2 -26 13 -17 15 -17 37 4 l23 23 -28 -7
c-19 -4 -26 -3 -22 4 7 12 4 12 -12 2z"/>
<path d="M295 1000 c-4 -6 -11 -8 -16 -5 -5 4 -9 2 -9 -4 0 -6 -7 -8 -15 -5
-9 4 -15 0 -15 -10 0 -20 4 -20 41 -1 16 9 33 13 38 10 5 -2 11 2 15 10 6 17
-29 22 -39 5z"/>
<path d="M1120 1000 c0 -5 5 -10 11 -10 5 0 7 5 4 10 -3 6 -8 10 -11 10 -2 0
-4 -4 -4 -10z"/>
<path d="M210 970 c-8 -5 -11 -12 -7 -16 4 -4 13 -2 19 4 15 15 7 24 -12 12z"/>
<path d="M742 943 c-20 -8 -44 -62 -37 -83 7 -22 -5 -26 -23 -8 -16 16 -71 12
-93 -8 -41 -37 -5 -91 55 -81 l34 5 -26 -56 c-23 -48 -27 -71 -27 -146 0 -66
4 -90 13 -94 11 -3 12 0 2 18 -26 48 13 226 61 282 l19 23 -5 -25 c-7 -31 25
-85 55 -93 23 -6 60 23 60 47 0 20 -49 76 -66 76 -20 0 -18 4 21 43 62 62 32
131 -43 100z m48 -69 c0 -17 -47 -57 -59 -49 -6 3 -11 22 -11 41 0 27 5 37 22
43 23 8 47 -9 48 -35z m-81 -58 c11 -13 6 -17 -29 -26 -47 -13 -49 -12 -55 19
-8 41 52 46 84 7z m-98 -23 c13 -16 12 -17 -3 -4 -10 7 -18 15 -18 17 0 8 8 3
21 -13z m150 -3 c12 -7 19 -21 19 -41 0 -18 4 -28 10 -24 6 3 10 -1 10 -9 0
-23 -17 -28 -23 -6 -3 12 -14 20 -26 20 -17 0 -21 6 -21 35 0 38 2 40 31 25z"/>
<path d="M2175 930 c-3 -5 -12 -10 -20 -10 -8 0 -25 -11 -38 -24 -28 -28 -44
-76 -25 -76 6 0 24 -12 40 -27 17 -16 44 -29 71 -33 l43 -6 -2 60 c-3 87 -8
109 -30 117 -27 11 -32 10 -39 -1z m45 -29 c0 -11 5 -23 10 -26 6 -3 10 -21
10 -40 0 -35 -21 -65 -45 -65 -19 0 -72 47 -62 56 4 4 17 -2 30 -13 12 -11 29
-24 37 -28 13 -7 13 -6 2 7 -10 13 -10 17 2 21 8 3 17 1 20 -6 3 -8 5 -6 5 3
0 8 -4 22 -9 30 -8 13 -10 12 -10 -2 0 -12 -8 -18 -25 -18 -34 0 -31 15 5 32
29 12 40 28 21 28 -5 0 -11 6 -14 13 -2 6 -3 4 -2 -5 4 -24 -23 -31 -35 -8
-13 25 -13 28 8 33 38 10 52 7 52 -12z m-62 -31 c10 -16 10 -20 -1 -20 -7 0
-19 6 -26 13 -10 10 -11 9 -6 -4 6 -17 -11 -36 -22 -25 -7 6 24 56 35 56 4 0
13 -9 20 -20z"/>
<path d="M1693 916 c2 -6 13 -11 24 -11 12 0 25 -3 29 -7 4 -5 1 -8 -6 -8 -10
0 -11 -3 -3 -11 6 -6 16 -8 22 -5 16 10 13 36 -4 36 -8 0 -15 4 -15 9 0 5 -11
9 -25 9 -15 0 -24 -5 -22 -12z"/>
<path d="M1675 879 c-8 -23 0 -34 31 -43 15 -4 24 -2 28 9 3 9 0 15 -8 15 -8
0 -16 9 -19 20 -7 26 -24 26 -32 -1z m25 -20 c0 -6 -4 -7 -10 -4 -5 3 -10 11
-10 16 0 6 5 7 10 4 6 -3 10 -11 10 -16z"/>
<path d="M1275 843 c-13 -12 -12 -164 0 -184 4 -5 16 -7 28 -3 12 4 43 8 69 9
67 3 74 13 76 94 1 64 -1 71 -24 86 -20 13 -29 14 -39 5 -8 -7 -20 -8 -27 -4
-19 13 -70 11 -83 -3z m75 -39 c0 -19 5 -34 10 -34 6 0 10 14 10 30 0 35 19
47 49 31 13 -8 19 -20 18 -39 -2 -26 -5 -27 -72 -33 -39 -3 -75 -2 -81 2 -5 5
-8 23 -6 42 3 30 7 33 38 34 32 1 34 -1 34 -33z m-2 -119 c-2 -1 -17 -6 -34
-9 -31 -7 -32 -6 -32 28 0 32 3 35 32 38 28 3 31 0 34 -25 2 -16 2 -30 0 -32z
m86 43 c7 -28 -3 -38 -38 -41 -25 -2 -28 2 -31 31 -3 30 -1 32 30 32 25 0 34
-5 39 -22z"/>
<path d="M1057 773 c-4 -3 -7 -11 -7 -17 0 -6 5 -5 12 2 6 6 9 14 7 17 -3 3
-9 2 -12 -2z"/>
<path d="M1872 675 c-11 -14 -26 -43 -33 -63 -16 -50 -17 -51 -78 -56 -29 -3
-59 -10 -67 -17 -17 -14 -18 -50 -1 -68 10 -11 8 -12 -13 -7 -61 17 -107 18
-138 2 -18 -9 -32 -19 -32 -21 0 -9 65 -45 80 -45 8 1 2 7 -15 16 l-30 14 36
-4 c20 -2 42 0 50 5 9 6 -4 9 -39 9 -55 0 -63 14 -15 23 31 6 133 -13 133 -25
0 -4 -12 -8 -27 -8 -16 -1 -39 -10 -52 -20 -19 -16 -21 -23 -11 -35 15 -18
133 -16 168 4 12 6 27 9 32 6 17 -11 70 37 70 63 0 13 11 37 25 54 29 35 35
84 10 82 -5 -1 -10 18 -11 41 0 22 -5 49 -11 59 -9 17 -12 16 -31 -9z m27 -77
c1 -15 -4 -30 -10 -33 -7 -5 -9 6 -5 32 l5 38 -11 -42 c-6 -24 -15 -43 -19
-43 -15 0 -10 59 8 93 l17 32 7 -25 c4 -14 7 -37 8 -52z m10 -68 c-13 -22 -27
-40 -31 -40 -10 0 -5 10 24 53 29 40 33 33 7 -13z m-137 -3 c-2 -9 2 -27 9
-39 6 -13 9 -20 5 -16 -4 3 -19 0 -33 -7 -29 -15 -43 -12 -43 10 0 7 -5 15
-12 17 -18 6 -1 38 21 38 11 0 23 5 26 11 10 15 30 4 27 -14z m85 -15 c3 -32
2 -33 -30 -30 -26 2 -33 8 -35 30 -2 19 2 28 15 31 36 10 47 2 50 -31z m23
-61 c0 -18 -6 -31 -17 -35 -10 -3 -23 -8 -29 -11 -7 -3 -14 4 -17 17 -4 13 -7
27 -9 33 -2 8 22 17 65 24 4 0 7 -12 7 -28z m-86 -13 c8 -33 8 -38 -8 -38 -8
0 -17 -8 -21 -17 -6 -16 -8 -16 -26 6 -26 32 -24 45 9 58 39 15 39 15 46 -9z
m-80 -38 c-15 -15 -92 -26 -79 -12 9 9 37 17 75 21 10 1 11 -2 4 -9z"/>
<path d="M2216 655 c31 -41 34 -42 34 -12 0 16 -9 28 -25 35 -38 17 -39 15 -9
-23z"/>
<path d="M756 532 c-2 -4 4 -13 15 -20 21 -13 22 -12 13 12 -7 17 -20 21 -28
8z"/>
<path d="M1 504 c0 -11 3 -14 6 -6 3 7 2 16 -1 19 -3 4 -6 -2 -5 -13z"/>
<path d="M942 460 c0 -14 2 -19 5 -12 2 6 2 18 0 25 -3 6 -5 1 -5 -13z"/>
<path d="M970 465 c0 -8 5 -15 10 -15 6 0 10 7 10 15 0 8 -4 15 -10 15 -5 0
-10 -7 -10 -15z"/>
<path d="M870 461 c0 -6 5 -13 10 -16 6 -3 10 1 10 9 0 9 -4 16 -10 16 -5 0
-10 -4 -10 -9z"/>
<path d="M900 460 c0 -5 7 -10 15 -10 8 0 15 5 15 10 0 6 -7 10 -15 10 -8 0
-15 -4 -15 -10z"/>
<path d="M828 453 c-10 -3 -18 -8 -18 -13 0 -5 -7 -7 -15 -4 -10 4 -15 0 -15
-10 0 -13 4 -15 19 -6 11 5 29 10 40 10 12 0 21 4 21 9 0 13 -12 18 -32 14z"/>
<path d="M2020 440 c-12 -22 -6 -40 12 -40 7 0 6 6 -2 15 -10 12 -10 15 4 15
17 0 22 15 7 25 -6 3 -15 -4 -21 -15z"/>
<path d="M2231 448 c0 -7 4 -22 9 -33 7 -16 8 -14 7 12 -1 18 -5 33 -9 33 -5
0 -8 -6 -7 -12z"/>
<path d="M294 389 c-3 -6 -21 -9 -39 -7 l-33 4 4 -66 c2 -36 -1 -88 -7 -116
-9 -42 -9 -57 4 -85 8 -19 20 -53 26 -76 10 -38 14 -42 41 -40 21 1 30 7 30
20 0 21 -16 23 -24 2 -10 -26 -23 -16 -34 25 -9 38 -8 41 14 46 22 6 87 82
113 132 6 12 21 22 32 22 16 0 18 3 9 19 -5 11 -10 33 -10 50 0 27 -4 31 -25
31 -14 0 -37 11 -51 25 -27 27 -39 31 -50 14z m4 -49 c-10 -39 -28 -55 -28
-26 0 8 -5 18 -12 22 -8 5 -9 2 -5 -9 4 -11 1 -17 -9 -17 -12 0 -12 4 -4 20 6
11 7 20 3 20 -8 1 47 28 58 29 4 1 2 -17 -3 -39z m64 -32 c-14 -16 -36 -28
-49 -28 -23 0 -31 14 -14 24 4 3 11 19 14 35 l6 29 35 -17 34 -16 -26 -27z
m44 6 c-3 -8 -1 -24 4 -35 8 -14 7 -19 -2 -19 -7 0 -23 -17 -36 -38 -32 -52
-95 -122 -87 -97 3 11 20 43 37 72 22 35 36 50 47 46 12 -3 11 0 -3 11 -19 16
-19 17 9 46 32 34 40 37 31 14z m-150 -116 c-25 -97 -35 -72 -15 34 9 50 15
65 24 58 9 -7 7 -30 -9 -92z m58 10 c-19 -28 -37 -61 -40 -74 -3 -13 -10 -24
-15 -24 -11 0 -11 6 0 50 5 19 12 51 15 70 6 34 8 36 40 32 l33 -4 -33 -50z"/>
<path d="M330 309 c0 -5 5 -7 10 -4 6 3 10 8 10 11 0 2 -4 4 -10 4 -5 0 -10
-5 -10 -11z"/>
<path d="M884 388 c-3 -5 -10 -6 -15 -3 -5 4 -9 1 -9 -6 0 -8 -4 -8 -15 1 -12
10 -15 9 -15 -5 0 -14 7 -16 43 -11 23 3 45 5 50 5 4 1 7 7 7 15 0 15 -38 18
-46 4z"/>
<path d="M942 388 c2 -5 8 -9 13 -9 5 0 11 4 13 9 1 5 -4 9 -13 9 -9 0 -14 -4
-13 -9z"/>
<path d="M980 391 c0 -5 8 -11 18 -15 9 -3 22 -9 29 -12 7 -3 10 2 7 13 -5 19
-54 31 -54 14z"/>
<path d="M1050 385 c0 -16 16 -20 24 -6 3 5 -1 11 -9 15 -9 3 -15 0 -15 -9z"/>
<path d="M1090 371 c0 -29 15 -33 16 -5 1 13 -2 24 -7 24 -5 0 -9 -9 -9 -19z"/>
<path d="M1952 359 c2 -6 8 -10 13 -10 5 0 11 4 13 10 2 6 -4 11 -13 11 -9 0
-15 -5 -13 -11z"/>
<path d="M1914 334 c3 -9 6 -18 6 -20 0 -2 7 -4 15 -4 8 0 15 5 15 11 0 5 -4
7 -10 4 -5 -3 -10 1 -10 9 0 9 -5 16 -11 16 -6 0 -8 -7 -5 -16z"/>
<path d="M1880 316 c0 -12 -5 -16 -15 -12 -18 6 -20 -10 -3 -20 6 -4 14 -2 16
4 2 7 8 10 13 6 12 -7 11 7 -1 26 -8 13 -10 12 -10 -4z"/>
<path d="M1625 279 c-4 -11 -4 -23 -1 -26 3 -4 6 1 6 10 0 10 5 17 10 17 6 0
10 5 10 10 0 18 -19 10 -25 -11z"/>
<path d="M2236 224 c-7 -73 -22 -124 -37 -124 -11 0 -21 49 -13 72 6 20 -14
83 -24 73 -13 -13 -12 -51 3 -87 32 -81 25 -89 -110 -134 -40 -13 -59 -23 -45
-23 39 -1 137 35 174 64 19 14 39 41 46 58 12 34 26 177 18 177 -3 0 -8 -34
-12 -76z m-56 -30 c0 -8 -4 -12 -10 -9 -5 3 -10 13 -10 21 0 8 5 12 10 9 6 -3
10 -13 10 -21z"/>
<path d="M1830 281 c0 -6 -7 -11 -15 -11 -8 0 -15 -4 -15 -10 0 -5 -7 -7 -15
-4 -9 4 -15 0 -15 -10 0 -20 1 -20 36 -2 15 8 31 13 36 10 4 -3 8 2 8 10 0 8
-4 18 -10 21 -5 3 -10 1 -10 -4z"/>
<path d="M1695 219 c-4 -6 -5 -13 -2 -16 7 -7 27 6 27 18 0 12 -17 12 -25 -2z"/>
<path d="M1621 203 c7 -10 15 -20 16 -22 2 -2 3 5 3 17 0 14 -6 22 -16 22 -14
0 -15 -3 -3 -17z"/>
<path d="M1650 205 c0 -8 5 -15 10 -15 6 0 10 7 10 15 0 8 -4 15 -10 15 -5 0
-10 -7 -10 -15z"/>
<path d="M1000 155 c0 -8 5 -15 10 -15 6 0 10 7 10 15 0 8 -4 15 -10 15 -5 0
-10 -7 -10 -15z"/>
<path d="M1036 155 c-4 -10 1 -15 14 -15 13 0 18 5 14 15 -4 8 -10 15 -14 15
-4 0 -10 -7 -14 -15z"/>
<path d="M1072 158 c6 -18 28 -21 28 -4 0 9 -7 16 -16 16 -9 0 -14 -5 -12 -12z"/>
<path d="M1110 154 c0 -8 5 -12 10 -9 6 3 10 10 10 16 0 5 -4 9 -10 9 -5 0
-10 -7 -10 -16z"/>
<path d="M1146 161 c-10 -16 -5 -21 28 -27 19 -3 26 0 26 11 0 18 -30 21 -31
3 0 -7 -4 -4 -8 6 -5 14 -10 16 -15 7z"/>
<path d="M1217 153 c-11 -10 -8 -20 7 -26 10 -4 14 0 13 14 -1 20 -9 24 -20
12z"/>
<path d="M891 134 c0 -11 3 -14 6 -6 3 7 2 16 -1 19 -3 4 -6 -2 -5 -13z"/>
<path d="M910 140 c0 -5 5 -10 11 -10 5 0 7 5 4 10 -3 6 -8 10 -11 10 -2 0 -4
-4 -4 -10z"/>
<path d="M850 131 c0 -6 5 -13 10 -16 6 -3 10 1 10 9 0 9 -4 16 -10 16 -5 0
-10 -4 -10 -9z"/>
<path d="M820 121 c0 -6 5 -13 10 -16 6 -3 10 1 10 9 0 9 -4 16 -10 16 -5 0
-10 -4 -10 -9z"/>
<path d="M790 101 c0 -12 5 -21 10 -21 6 0 10 6 10 14 0 8 -4 18 -10 21 -5 3
-10 -3 -10 -14z"/>
<path d="M980 97 c0 -7 12 -13 28 -14 15 0 19 1 10 4 -10 2 -18 9 -18 14 0 5
-4 9 -10 9 -5 0 -10 -6 -10 -13z"/>
<path d="M1047 103 c-10 -9 -9 -33 1 -33 4 0 8 9 9 20 2 21 0 24 -10 13z"/>
<path d="M615 70 c-17 -25 -21 -27 -35 -15 -14 12 -17 10 -26 -21 -12 -36 -7
-42 15 -21 11 9 14 9 18 0 7 -20 23 -15 23 6 0 10 9 30 20 44 21 27 25 37 13
37 -5 0 -17 -13 -28 -30z"/>
<path d="M896 92 c-11 -10 -6 -18 14 -19 11 -1 22 2 25 6 5 10 -31 22 -39 13z"/>
<path d="M1110 84 c0 -17 22 -14 28 4 2 7 -3 12 -12 12 -9 0 -16 -7 -16 -16z"/>
<path d="M1157 84 c-8 -8 1 -24 14 -24 5 0 9 7 9 15 0 15 -12 20 -23 9z"/>
<path d="M1196 82 c-11 -10 -6 -18 14 -19 11 -1 22 2 25 6 5 10 -31 22 -39 13z"/>
<path d="M1940 50 c-13 -32 -7 -52 15 -43 16 6 21 58 6 67 -5 3 -14 -7 -21
-24z m12 -22 c-8 -8 -9 -4 -5 13 4 13 8 18 11 10 2 -7 -1 -18 -6 -23z"/>
<path d="M1287 63 c-13 -13 -7 -32 8 -27 8 4 15 12 15 20 0 15 -12 19 -23 7z"/>
<path d="M1326 61 c-4 -7 -5 -15 -2 -18 9 -9 19 4 14 18 -4 11 -6 11 -12 0z"/>
<path d="M1370 60 c0 -6 -4 -8 -10 -5 -5 3 -10 2 -10 -4 0 -5 9 -9 20 -8 21 1
26 12 10 22 -5 3 -10 1 -10 -5z"/>
<path d="M936 14 c-5 -14 -4 -15 9 -4 17 14 19 20 6 20 -5 0 -12 -7 -15 -16z"/>
<path d="M900 10 c0 -5 5 -10 10 -10 6 0 10 5 10 10 0 6 -4 10 -10 10 -5 0
-10 -4 -10 -10z"/>
<path d="M2138 8 c6 -6 18 -8 28 -6 14 3 12 5 -9 10 -19 3 -25 2 -19 -4z"/>
<path d="M2088 3 c7 -3 16 -2 19 1 4 3 -2 6 -13 5 -11 0 -14 -3 -6 -6z"/>
</g>
</svg>
