<?xml version="1.0" standalone="no"?>
<!DOCTYPE svg PUBLIC "-//W3C//DTD SVG 20010904//EN"
 "http://www.w3.org/TR/2001/REC-SVG-20010904/DTD/svg10.dtd">
<svg version="1.0" xmlns="http://www.w3.org/2000/svg"
 width="300.000000pt" height="470.000000pt" viewBox="0 0 300.000000 470.000000"
 preserveAspectRatio="xMidYMid meet">
<metadata>
Created by potrace 1.10, written by Peter Selinger 2001-2011
</metadata>
<g transform="translate(0.000000,470.000000) scale(0.100000,-0.100000)"
fill="#000000" stroke="none">
<path d="M543 4685 c-3 -9 -3 -18 -1 -21 3 -3 8 4 11 16 6 23 -1 27 -10 5z"/>
<path d="M1226 4653 c3 -27 10 -52 14 -56 14 -15 21 46 9 75 -18 44 -31 34
-23 -19z"/>
<path d="M1314 4684 c-18 -14 -18 -15 4 -4 12 6 22 13 22 15 0 8 -5 6 -26 -11z"/>
<path d="M1396 4684 c-5 -14 -4 -15 9 -4 17 14 19 20 6 20 -5 0 -12 -7 -15
-16z"/>
<path d="M1450 4677 c0 -28 -24 -53 -67 -68 -17 -6 -34 -18 -38 -27 -5 -14 -4
-14 13 1 10 9 25 17 33 17 8 0 24 8 35 18 35 28 57 82 34 82 -5 0 -10 -11 -10
-23z"/>
<path d="M1863 4681 c0 -11 5 -18 9 -15 4 3 5 11 1 19 -7 21 -12 19 -10 -4z"/>
<path d="M2464 4673 c-5 -17 -3 -28 4 -31 7 -2 12 -12 12 -22 0 -22 28 -34 45
-20 7 6 23 9 36 8 17 -2 24 3 26 17 4 19 3 19 -7 2 -9 -13 -15 -15 -24 -7 -10
7 -17 6 -26 -5 -17 -21 -30 -19 -30 4 0 10 -7 21 -15 25 -17 6 -21 36 -5 36 6
0 10 5 10 10 0 21 -20 9 -26 -17z"/>
<path d="M2515 4690 c3 -5 11 -10 16 -10 6 0 7 5 4 10 -3 6 -11 10 -16 10 -6
0 -7 -4 -4 -10z"/>
<path d="M2610 4691 c0 -5 5 -13 10 -16 6 -3 10 -2 10 4 0 5 -4 13 -10 16 -5
3 -10 2 -10 -4z"/>
<path d="M2844 4692 c-16 -11 -44 -73 -38 -84 3 -5 0 -15 -6 -23 -9 -11 -9
-19 -2 -28 6 -7 9 -22 6 -34 -3 -11 -1 -24 4 -27 6 -3 8 -15 5 -25 -3 -13 3
-23 19 -31 19 -10 21 -10 11 1 -7 7 -13 23 -13 35 0 12 -5 24 -12 26 -8 3 -8
9 -1 23 8 13 8 24 -1 38 -8 15 -8 21 2 24 10 4 10 8 0 20 -10 12 -9 17 2 27 8
6 16 18 18 26 2 8 10 21 19 28 18 13 6 17 -13 4z"/>
<path d="M1308 4646 c-26 -17 -47 -36 -47 -43 -1 -6 11 -21 25 -32 26 -21 25
-45 -1 -34 -8 3 -15 0 -15 -6 0 -6 4 -11 9 -11 5 0 32 -18 60 -40 28 -22 51
-37 51 -32 0 4 -20 37 -45 72 -25 35 -41 66 -37 69 11 8 55 81 51 85 -2 1 -25
-12 -51 -28z m2 -42 c0 -2 -9 -4 -21 -4 -11 0 -18 4 -14 10 5 8 35 3 35 -6z"/>
<path d="M2588 4653 c6 -2 18 -2 25 0 6 3 1 5 -13 5 -14 0 -19 -2 -12 -5z"/>
<path d="M292 4633 c-18 -3 -36 -11 -39 -19 -3 -8 -10 -14 -15 -14 -13 0 -52
-50 -55 -70 -11 -65 -11 -64 40 -67 26 -1 47 2 47 8 0 5 11 7 25 3 16 -4 25
-2 25 5 0 6 11 16 24 21 34 13 41 75 12 112 -12 15 -23 26 -26 26 -3 -1 -20
-3 -38 -5z m-2 -24 c0 -8 4 -8 14 0 21 18 51 -15 52 -57 1 -27 -2 -32 -22 -32
-15 0 -24 -6 -24 -15 0 -17 -16 -20 -25 -4 -5 6 -13 2 -22 -11 -11 -15 -18
-19 -26 -11 -7 7 -14 7 -23 0 -7 -6 -17 -8 -22 -5 -13 8 10 76 26 76 7 0 12 8
10 18 -2 11 4 18 20 20 12 2 22 10 22 18 0 8 5 14 10 14 6 0 10 -5 10 -11z"/>
<path d="M540 4621 c0 -6 4 -13 10 -16 6 -3 7 1 4 9 -7 18 -14 21 -14 7z"/>
<path d="M1860 4586 c0 -22 3 -27 11 -19 8 8 8 16 0 30 -9 16 -10 14 -11 -11z"/>
<path d="M1124 4571 c4 -6 17 -11 29 -11 13 0 32 -7 44 -15 19 -14 21 -22 16
-68 -6 -56 0 -56 34 3 20 35 20 70 1 70 -5 0 -8 -7 -5 -14 4 -10 1 -13 -8 -10
-7 3 -16 12 -19 19 -3 10 5 13 35 11 27 -2 37 0 30 7 -15 15 -166 23 -157 8z"/>
<path d="M2522 4560 c0 -14 2 -19 5 -12 2 6 2 18 0 25 -3 6 -5 1 -5 -13z"/>
<path d="M545 4550 c-3 -5 -1 -10 4 -10 6 0 11 5 11 10 0 6 -2 10 -4 10 -3 0
-8 -4 -11 -10z"/>
<path d="M540 4480 c0 -5 5 -10 11 -10 5 0 7 5 4 10 -3 6 -8 10 -11 10 -2 0
-4 -4 -4 -10z"/>
<path d="M2035 4476 c-13 -9 -25 -11 -37 -5 -17 9 -48 3 -48 -10 0 -9 55 -7
94 4 20 5 31 4 37 -6 8 -12 11 -12 19 1 7 12 13 13 29 3 24 -15 36 -4 13 13
-12 8 -22 9 -35 2 -13 -7 -23 -6 -30 1 -14 14 -19 14 -42 -3z"/>
<path d="M2215 4480 c-4 -6 -16 -8 -28 -4 -19 6 -20 5 -9 -9 11 -13 17 -14 33
-4 17 10 23 9 36 -8 11 -14 17 -16 20 -7 7 19 31 14 38 -9 5 -16 9 -18 15 -9
10 15 30 4 30 -16 0 -8 4 -13 9 -10 17 11 61 -12 55 -29 -4 -10 0 -15 15 -15
14 0 21 -6 21 -20 0 -12 7 -20 16 -20 12 0 15 -6 10 -25 -4 -14 -2 -25 4 -25
5 0 10 -11 10 -25 0 -14 5 -25 11 -25 6 0 8 -7 5 -16 -4 -9 -1 -23 6 -31 10
-12 9 -17 -5 -24 -9 -5 -14 -16 -11 -24 4 -8 1 -15 -6 -15 -7 0 -10 -7 -6 -16
8 -22 -38 -68 -59 -60 -11 4 -15 0 -13 -12 2 -11 -4 -17 -17 -17 -11 0 -25 -6
-31 -13 -5 -8 -17 -13 -25 -12 -36 6 -57 -1 -62 -20 -3 -13 -10 -18 -21 -14
-12 4 -16 0 -16 -16 0 -13 -8 -24 -19 -27 -11 -3 -21 -13 -24 -24 -3 -11 -14
-19 -25 -19 -11 0 -22 -7 -26 -15 -3 -8 -14 -15 -25 -15 -10 0 -22 -7 -25 -16
-4 -10 -12 -14 -22 -10 -11 4 -22 -1 -31 -14 -12 -16 -17 -18 -33 -8 -15 10
-23 9 -41 -7 -16 -14 -23 -16 -26 -7 -3 6 -13 12 -24 12 -21 0 -24 11 -8 27 8
8 8 13 0 17 -16 10 -13 26 4 26 8 0 15 5 15 10 0 6 -4 10 -10 10 -5 0 -10 7
-10 15 0 8 7 15 15 15 9 0 12 6 9 15 -4 8 -1 21 5 29 6 7 9 20 6 28 -4 10 1
17 15 21 13 3 19 10 15 17 -4 7 2 14 14 17 12 3 21 13 21 24 0 11 5 19 10 19
6 0 10 14 10 30 0 20 5 30 15 30 11 0 14 7 9 25 -5 18 -2 25 9 25 10 0 13 7
10 20 -3 13 0 20 8 20 8 0 20 9 27 20 10 17 10 20 -3 20 -8 0 -15 -6 -15 -14
0 -7 -9 -16 -19 -19 -13 -3 -21 -17 -26 -45 -3 -22 -13 -43 -21 -46 -8 -3 -14
-17 -14 -31 0 -14 -11 -37 -25 -51 -14 -14 -25 -29 -25 -33 0 -5 -6 -11 -14
-14 -8 -3 -16 -18 -18 -34 l-3 -28 -110 -1 c-79 0 -113 3 -123 13 -16 15 -32
17 -32 3 0 -5 -11 -10 -24 -10 -13 0 -27 -7 -30 -16 -4 -9 -13 -14 -21 -10 -9
3 -15 0 -15 -9 0 -8 -9 -15 -20 -15 -11 0 -20 -7 -20 -15 0 -8 -8 -19 -19 -24
-19 -11 -46 -95 -36 -112 4 -5 -1 -9 -9 -9 -9 0 -16 -4 -16 -10 0 -5 -6 -10
-14 -10 -18 0 -28 40 -15 57 6 6 8 17 5 22 -6 10 -4 18 23 69 9 18 8 22 -3 22
-14 0 -36 -55 -36 -88 0 -7 -5 -20 -11 -30 -9 -15 -8 -24 6 -45 17 -26 45 -37
45 -17 0 6 6 10 14 10 17 0 26 22 26 60 0 26 33 77 70 107 8 7 39 25 69 40 49
24 54 25 63 9 7 -12 17 -15 41 -11 25 5 37 2 51 -14 10 -11 23 -18 27 -15 5 3
12 -2 15 -10 9 -23 23 -20 17 4 -3 11 -14 20 -24 20 -31 0 -30 18 2 22 16 3
32 1 36 -4 3 -6 16 -7 29 -4 13 4 24 2 24 -3 0 -22 -13 -41 -29 -41 -24 -1
-55 -27 -41 -35 6 -4 17 1 24 11 20 27 33 10 29 -40 -3 -43 -2 -45 31 -56 24
-8 41 -8 54 -1 10 5 28 8 39 5 11 -3 25 1 32 10 8 9 22 16 33 16 10 0 21 6 24
14 3 8 11 13 18 10 7 -3 19 2 26 11 7 8 19 15 26 15 8 0 19 9 26 20 7 11 18
20 25 20 15 0 35 35 26 44 -3 3 1 6 10 6 9 0 20 7 25 16 5 8 24 17 43 19 44 4
89 22 89 35 0 6 8 14 17 17 34 13 61 46 68 81 4 21 11 42 16 48 10 12 -4 92
-21 125 -8 14 -6 19 12 25 13 4 24 2 26 -5 2 -6 14 -8 28 -5 15 4 24 2 24 -5
0 -6 13 -11 29 -11 17 0 32 -4 36 -10 3 -5 12 -7 20 -3 10 3 15 -1 15 -12 0
-12 5 -15 20 -10 14 5 20 2 20 -9 0 -10 9 -16 25 -16 16 0 25 -6 25 -15 0 -9
9 -15 21 -15 15 0 19 -5 15 -15 -5 -14 5 -20 27 -16 5 1 11 -8 14 -19 3 -11 9
-20 14 -20 5 0 9 -7 9 -15 0 -8 7 -15 16 -15 12 0 15 -6 10 -25 -4 -15 -2 -25
4 -25 7 0 9 -8 5 -20 -4 -13 -2 -20 6 -20 8 0 6 -7 -5 -19 -16 -17 -16 -19 0
-25 16 -6 16 -8 0 -25 -15 -16 -15 -19 -1 -31 10 -8 12 -17 6 -23 -5 -5 -7
-16 -4 -24 3 -8 0 -19 -8 -24 -12 -8 -12 -11 1 -19 13 -9 13 -12 -2 -20 -10
-6 -14 -18 -11 -30 3 -12 0 -20 -7 -20 -7 0 -9 -8 -5 -20 4 -12 2 -20 -5 -20
-7 0 -9 -8 -5 -20 4 -12 2 -20 -5 -20 -7 0 -9 -7 -6 -15 4 -10 -2 -19 -17 -24
l-22 -8 23 -7 c22 -7 32 -36 12 -36 -5 0 -10 -4 -10 -10 0 -5 9 -10 20 -10 13
0 18 -5 13 -15 -3 -9 2 -22 12 -29 10 -7 15 -18 12 -23 -4 -6 3 -13 14 -16 12
-3 19 -12 17 -19 -3 -7 5 -18 16 -23 12 -6 20 -18 18 -27 -1 -9 4 -18 13 -22
18 -6 18 -7 4 33 -6 17 -17 31 -25 31 -8 0 -14 7 -14 15 0 7 -6 18 -13 22 -12
8 -18 20 -51 94 -14 32 -14 40 1 85 8 27 17 58 18 69 2 11 4 22 5 25 1 3 3 12
4 20 2 24 37 25 43 1 3 -11 10 -18 15 -15 6 4 14 0 19 -7 7 -11 9 -10 9 4 0 9
-7 17 -15 17 -8 0 -15 5 -15 10 0 6 -12 15 -26 20 -14 6 -22 15 -19 21 13 20
16 89 4 89 -8 0 -8 4 -1 13 7 8 9 35 5 67 -3 30 -6 64 -7 75 0 11 -11 31 -23
45 -13 13 -25 32 -29 42 -3 10 -14 18 -24 18 -10 0 -20 9 -23 21 -3 12 -10 18
-15 15 -5 -3 -17 3 -27 14 -10 11 -24 20 -32 20 -7 0 -13 5 -13 10 0 6 -7 10
-15 10 -8 0 -29 8 -47 18 -33 19 -156 47 -165 39 -5 -5 -53 37 -53 46 0 9 -46
57 -55 57 -4 0 -21 10 -38 22 -18 13 -38 22 -44 20 -7 -2 -13 2 -13 9 0 7 -10
9 -25 7 -14 -3 -30 1 -36 8 -14 17 -25 18 -34 4z"/>
<path d="M1870 4460 c-11 -11 -24 -20 -30 -20 -5 0 -15 -10 -21 -22 -7 -13
-18 -27 -25 -33 -7 -5 -14 -17 -16 -25 -2 -8 -11 -21 -21 -29 -10 -7 -16 -19
-13 -27 3 -7 -4 -18 -14 -24 -11 -6 -20 -20 -20 -30 0 -11 -7 -20 -15 -20 -9
0 -18 -12 -21 -30 -6 -27 -37 -50 -51 -36 -4 3 -12 1 -19 -5 -19 -16 -153 -17
-166 -2 -7 9 -16 10 -28 3 -11 -6 -21 -6 -24 -1 -3 5 -22 9 -42 8 -51 -1 -71
-34 -71 -115 0 -34 4 -65 8 -68 5 -3 9 -13 9 -22 0 -28 72 -54 120 -43 32 7
40 6 40 -5 0 -8 4 -14 9 -14 5 0 7 9 4 20 -4 15 0 20 16 20 14 0 21 6 21 19 0
11 9 21 21 24 12 3 18 10 14 17 -4 7 1 14 13 17 12 3 22 15 24 27 2 13 11 22
26 24 12 2 22 10 22 18 0 8 7 17 15 20 9 4 14 14 13 23 -2 9 7 20 20 26 14 6
22 18 22 33 0 16 7 26 21 29 12 3 18 11 15 19 -3 8 3 20 14 26 11 7 20 23 20
36 0 12 7 25 15 28 8 4 15 15 15 25 0 12 7 19 19 19 14 0 21 8 23 28 2 21 8
27 24 25 15 -2 24 4 27 19 5 17 11 19 33 14 24 -6 26 -5 15 8 -18 21 -37 20
-61 -4z m-470 -320 c0 16 30 12 36 -5 5 -11 10 -12 26 -4 16 8 23 8 29 -2 6
-11 11 -11 20 -2 10 10 16 10 27 1 10 -9 15 -9 21 0 4 7 15 10 23 7 9 -4 19
-2 23 4 9 15 25 14 25 -2 0 -7 -19 -31 -42 -53 -64 -60 -108 -110 -108 -121 0
-14 -24 -23 -59 -23 -15 0 -32 -5 -39 -12 -17 -17 -25 -3 -13 21 6 11 12 53
13 92 1 62 -2 75 -20 89 -28 23 -15 35 15 15 13 -9 23 -11 23 -5z m-70 -5 c0
-8 7 -15 15 -15 15 0 16 -4 19 -100 2 -58 -12 -84 -38 -74 -21 8 -45 59 -35
75 4 7 3 19 -3 26 -7 9 -7 17 2 28 6 8 9 19 6 24 -7 11 14 51 26 51 5 0 8 -7
8 -15z"/>
<path d="M545 4450 c3 -5 8 -10 11 -10 2 0 4 5 4 10 0 6 -5 10 -11 10 -5 0 -7
-4 -4 -10z"/>
<path d="M860 4444 c0 -5 7 -19 15 -30 8 -10 15 -14 15 -8 0 5 -7 19 -15 30
-8 10 -15 14 -15 8z"/>
<path d="M2862 4428 c2 -6 10 -14 16 -16 7 -2 10 2 6 12 -7 18 -28 22 -22 4z"/>
<path d="M2913 4402 c10 -10 17 -28 17 -39 0 -12 7 -23 15 -27 17 -6 21 9 5
19 -16 10 -12 28 5 21 8 -3 15 -1 15 4 0 6 -9 10 -20 10 -11 0 -23 7 -26 15
-4 8 -11 15 -17 15 -5 0 -3 -8 6 -18z"/>
<path d="M550 4359 c0 -19 4 -41 9 -48 6 -10 8 1 4 30 -7 55 -13 63 -13 18z"/>
<path d="M887 4285 c-11 -178 -9 -227 12 -255 22 -31 41 -85 41 -116 0 -25
-43 -64 -71 -64 -9 0 -27 12 -39 28 -19 22 -21 36 -17 80 3 31 2 50 -4 47 -5
-4 -9 -33 -9 -65 0 -53 3 -61 31 -84 39 -33 56 -33 91 1 38 36 37 89 -2 163
-31 58 -39 124 -21 173 6 14 6 62 2 113 l-8 89 -6 -110z"/>
<path d="M940 4330 c10 -25 20 -63 22 -84 1 -20 6 -40 10 -42 22 -14 -10 116
-37 151 -10 14 -9 6 5 -25z"/>
<path d="M857 4353 c-4 -3 -7 -25 -7 -47 0 -23 -5 -57 -11 -76 -14 -42 -18
-216 -5 -193 5 9 6 42 3 74 -3 37 0 76 9 106 13 43 27 143 20 143 -1 0 -6 -3
-9 -7z"/>
<path d="M2333 4343 c-7 -2 -13 -12 -13 -20 0 -13 3 -13 15 -3 12 10 15 10 15
0 0 -7 7 -10 15 -6 9 3 15 0 15 -9 0 -8 5 -15 10 -15 19 0 10 32 -10 37 -11 3
-20 9 -20 14 0 10 -8 10 -27 2z"/>
<path d="M2976 4323 c10 -40 14 -41 14 -5 0 18 -5 32 -10 32 -6 0 -8 -11 -4
-27z"/>
<path d="M1251 4324 c0 -11 3 -14 6 -6 3 7 2 16 -1 19 -3 4 -6 -2 -5 -13z"/>
<path d="M22 4275 c-7 -22 -16 -47 -18 -55 -3 -8 4 -1 16 17 12 18 20 43 18
55 -2 19 -5 16 -16 -17z"/>
<path d="M85 4261 c-3 -10 -19 -33 -35 -50 -17 -17 -30 -39 -30 -48 0 -13 6
-9 19 12 10 17 28 38 40 47 11 10 21 27 21 38 0 25 -7 26 -15 1z"/>
<path d="M2992 4250 c0 -19 2 -27 5 -17 2 9 2 25 0 35 -3 9 -5 1 -5 -18z"/>
<path d="M136 4225 c-4 -14 -11 -25 -18 -25 -19 0 -58 -54 -58 -82 0 -17 -11
-35 -30 -51 -36 -31 -38 -40 -6 -25 23 10 56 70 56 103 0 7 13 23 29 35 28 19
49 56 38 66 -2 3 -7 -7 -11 -21z"/>
<path d="M180 4207 c0 -13 -13 -36 -29 -51 -16 -15 -34 -47 -41 -71 -10 -34
-20 -47 -45 -59 -18 -9 -37 -16 -43 -16 -5 0 -12 -7 -15 -15 -5 -12 0 -11 31
2 53 24 80 51 88 87 3 17 19 46 35 64 16 18 29 37 29 42 0 4 3 15 6 24 3 9 1
16 -5 16 -6 0 -11 -10 -11 -23z"/>
<path d="M1251 4194 c0 -11 3 -14 6 -6 3 7 2 16 -1 19 -3 4 -6 -2 -5 -13z"/>
<path d="M552 4170 c0 -14 2 -19 5 -12 2 6 2 18 0 25 -3 6 -5 1 -5 -13z"/>
<path d="M968 4160 c2 -16 6 -30 8 -30 2 0 4 14 4 30 0 17 -4 30 -8 30 -5 0
-7 -13 -4 -30z"/>
<path d="M1850 4175 c-17 -21 -5 -31 15 -12 8 9 15 18 15 21 0 11 -18 6 -30
-9z"/>
<path d="M1245 4161 c-3 -5 -1 -12 5 -16 5 -3 10 1 10 9 0 18 -6 21 -15 7z"/>
<path d="M1893 4150 c-23 -9 -30 -25 -15 -33 7 -5 52 27 52 37 0 8 -10 7 -37
-4z"/>
<path d="M10 4124 c0 -8 5 -12 10 -9 6 4 8 11 5 16 -9 14 -15 11 -15 -7z"/>
<path d="M2420 4126 c0 -10 -6 -13 -15 -10 -11 4 -15 0 -15 -16 0 -16 -4 -20
-15 -16 -9 3 -15 0 -15 -9 0 -21 -28 -19 -33 3 -4 12 -5 11 -6 -6 -1 -28 28
-42 41 -19 5 10 15 17 22 17 8 0 16 7 20 15 3 8 12 15 21 15 17 0 21 25 5 35
-5 3 -10 -1 -10 -9z"/>
<path d="M1 4084 c0 -11 3 -14 6 -6 3 7 2 16 -1 19 -3 4 -6 -2 -5 -13z"/>
<path d="M1836 4034 c-3 -9 -13 -14 -20 -11 -8 3 -17 -1 -20 -10 -4 -9 -13
-13 -21 -9 -9 3 -18 -1 -22 -10 -3 -9 -13 -14 -24 -11 -23 6 -35 -9 -14 -17
18 -6 45 2 45 15 0 5 9 9 20 9 11 0 20 5 20 10 0 6 9 10 20 10 19 0 38 25 27
36 -2 3 -7 -3 -11 -12z"/>
<path d="M850 3989 c0 -5 5 -7 10 -4 6 3 10 8 10 11 0 2 -4 4 -10 4 -5 0 -10
-5 -10 -11z"/>
<path d="M2123 3992 c-36 -11 -82 -82 -52 -82 5 0 8 4 4 9 -3 6 1 13 8 18 8 4
16 15 19 23 2 8 11 15 19 16 43 3 49 5 49 14 0 11 -14 11 -47 2z"/>
<path d="M761 3970 c0 -8 4 -22 9 -30 12 -18 12 -2 0 25 -6 13 -9 15 -9 5z"/>
<path d="M854 3962 c-13 -8 -10 -60 5 -75 16 -16 41 11 41 43 0 16 -7 30 -16
34 -19 7 -16 7 -30 -2z m30 -27 c3 -9 0 -15 -9 -15 -8 0 -15 7 -15 15 0 8 4
15 9 15 5 0 11 -7 15 -15z m-4 -35 c0 -5 -2 -10 -4 -10 -3 0 -8 5 -11 10 -3 6
-1 10 4 10 6 0 11 -4 11 -10z"/>
<path d="M550 3949 c0 -5 5 -7 10 -4 6 3 10 8 10 11 0 2 -4 4 -10 4 -5 0 -10
-5 -10 -11z"/>
<path d="M1251 3934 c0 -11 3 -14 6 -6 3 7 2 16 -1 19 -3 4 -6 -2 -5 -13z"/>
<path d="M0 3921 c0 -5 5 -13 11 -17 8 -5 8 -8 0 -13 -7 -5 3 -12 24 -18 20
-6 35 -7 35 -2 0 5 -3 9 -8 9 -4 0 -20 11 -35 25 -15 14 -27 21 -27 16z"/>
<path d="M1252 3883 c-1 -17 -5 -40 -8 -50 -5 -17 -5 -17 6 0 6 9 9 32 7 50
l-4 32 -1 -32z"/>
<path d="M2843 3887 c4 -11 1 -20 -8 -23 -8 -4 -15 -12 -15 -20 0 -8 -6 -11
-17 -7 -11 4 -14 3 -9 -5 13 -21 34 -13 50 20 12 24 13 34 5 42 -9 8 -10 6 -6
-7z"/>
<path d="M1750 3845 c-6 -8 -21 -15 -33 -17 -12 -2 -23 -11 -25 -21 -2 -9 -17
-32 -33 -49 -16 -18 -29 -40 -29 -50 0 -10 -4 -18 -10 -18 -5 0 -10 -7 -10
-15 0 -8 -5 -24 -10 -35 -5 -11 -14 -28 -19 -39 -11 -21 3 -41 30 -41 9 0 19
-6 22 -14 3 -8 32 -18 67 -24 59 -11 63 -10 81 11 10 12 19 29 19 37 0 8 7 28
15 44 8 15 15 35 15 42 0 16 44 10 67 -8 7 -5 17 -7 23 -3 6 4 17 2 24 -4 7
-6 21 -9 30 -5 9 3 16 2 16 -4 0 -5 19 -9 42 -9 42 0 81 17 105 47 7 8 13 11
13 6 0 -5 10 0 23 12 20 19 26 20 50 9 15 -6 27 -18 27 -25 0 -7 10 -16 22
-21 14 -5 17 -10 10 -15 -12 -7 -8 -54 8 -91 19 -46 23 -61 21 -81 -1 -12 5
-24 14 -28 9 -3 14 -10 11 -15 -4 -5 1 -17 10 -25 9 -9 13 -23 10 -31 -3 -9 3
-19 15 -25 11 -6 17 -15 14 -19 -3 -5 1 -21 9 -36 15 -29 7 -60 -20 -77 -7 -4
-15 -24 -18 -43 l-7 -35 -137 0 c-146 0 -291 -9 -332 -20 -18 -5 -27 -16 -34
-43 -12 -46 -6 -53 65 -72 107 -28 258 -40 392 -28 145 12 184 28 189 77 2 23
8 31 23 32 31 0 68 19 93 47 19 21 22 29 13 45 -8 15 -8 23 -1 27 8 5 7 12 -2
22 -14 17 -18 41 -19 111 -2 67 30 92 66 52 10 -11 24 -20 32 -20 7 0 13 -5
13 -10 0 -6 8 -14 18 -18 28 -12 102 -64 102 -73 0 -4 9 -11 21 -14 17 -6 19
-12 13 -38 -3 -17 -12 -37 -20 -44 -7 -8 -11 -19 -8 -26 3 -9 -7 -12 -36 -9
-25 3 -40 0 -40 -7 0 -6 4 -11 9 -11 5 0 31 -20 58 -45 44 -39 51 -50 56 -93
9 -75 35 -130 75 -157 49 -33 55 -22 8 17 -43 35 -52 54 -65 138 -10 61 -39
102 -92 130 -11 7 -18 14 -15 17 3 3 29 -6 57 -21 29 -14 53 -25 55 -23 2 1
12 23 24 47 l20 45 -6 -48 c-4 -40 -1 -59 22 -105 15 -31 29 -51 31 -45 2 6
-5 29 -15 50 -34 67 -36 81 -11 85 12 2 25 10 27 18 4 13 3 13 -10 2 -18 -14
-34 0 -23 18 4 6 1 17 -5 26 -16 18 -40 1 -40 -27 0 -11 -11 -24 -25 -31 -29
-13 -31 -12 -40 25 -6 20 -4 27 8 27 10 0 13 7 10 20 -4 14 0 20 11 20 9 0 16
5 16 10 0 6 -4 10 -10 10 -5 0 -10 9 -10 20 0 13 -7 20 -20 20 -11 0 -20 6
-20 14 0 7 -9 16 -21 19 -12 3 -18 10 -14 16 3 7 -2 11 -15 11 -11 0 -23 7
-26 15 -4 8 -15 15 -25 15 -12 0 -19 7 -19 19 0 14 -5 18 -19 14 -12 -3 -24 3
-33 16 -10 14 -21 19 -32 15 -11 -4 -16 -1 -16 10 0 9 -5 16 -11 16 -17 0 -69
53 -62 63 3 6 -2 16 -12 23 -15 11 -16 16 -5 29 10 12 10 15 -5 15 -12 0 -15
5 -11 16 4 12 2 15 -9 10 -8 -3 -15 -1 -15 4 0 6 -9 10 -20 10 -11 0 -20 5
-20 11 0 6 -9 9 -20 6 -11 -3 -23 -1 -26 4 -3 5 -16 6 -30 3 -13 -4 -24 -2
-24 4 0 6 -8 8 -19 5 -11 -3 -21 2 -24 11 -4 9 -13 13 -22 10 -11 -5 -18 0
-22 15 -3 11 -12 21 -19 21 -28 0 -28 31 1 56 16 13 31 24 34 24 4 0 11 10 16
23 6 12 19 22 30 23 38 2 45 4 45 13 0 11 -62 8 -76 -4 -5 -5 -13 -18 -17 -27
-3 -10 -13 -18 -22 -18 -8 0 -15 -7 -15 -15 0 -8 -9 -15 -20 -15 -13 0 -20 -7
-20 -20 0 -13 -7 -20 -20 -20 -14 0 -18 -5 -13 -17 5 -13 2 -15 -14 -11 -16 4
-23 0 -27 -14 -3 -15 -11 -19 -25 -15 -13 3 -21 -1 -24 -14 -5 -20 -37 -27
-37 -9 0 6 -11 8 -25 4 -14 -3 -25 -2 -25 4 0 5 -11 7 -25 4 -15 -2 -25 0 -25
8 0 7 -8 9 -19 5 -13 -4 -23 0 -29 11 -6 11 -11 13 -16 5 -10 -16 -26 -14 -26
4 0 8 -4 15 -10 15 -5 0 -10 -7 -10 -15 0 -8 -5 -15 -11 -15 -6 0 -8 -7 -5
-15 3 -9 -1 -18 -9 -21 -8 -4 -12 -10 -9 -15 3 -6 0 -16 -6 -24 -6 -8 -9 -18
-6 -23 3 -5 -2 -16 -12 -25 -20 -18 -84 -17 -90 1 -3 10 -7 10 -18 1 -11 -9
-15 -8 -20 5 -3 9 -14 16 -24 16 -24 0 -37 20 -20 30 7 4 9 13 6 19 -4 6 0 14
9 17 9 4 14 13 11 20 -3 7 4 20 15 27 11 8 17 21 14 29 -4 9 1 18 10 22 9 3
14 10 10 15 -3 6 3 14 12 20 10 5 18 18 18 28 0 13 7 18 28 16 18 -1 27 3 27
14 0 11 6 14 24 9 15 -4 26 -1 29 8 7 18 -48 19 -63 1z m604 -223 c5 -3 25 -6
44 -8 50 -5 100 -31 107 -57 16 -51 40 -97 52 -97 7 0 13 -6 13 -14 0 -7 9
-16 20 -19 23 -6 27 -37 5 -37 -9 0 -12 -6 -9 -15 4 -8 2 -15 -3 -15 -11 0
-10 -67 1 -77 3 -3 6 -19 6 -34 0 -15 6 -29 13 -32 9 -3 9 -9 -1 -26 -7 -12
-8 -21 -2 -21 17 0 11 -25 -10 -43 -11 -9 -27 -17 -35 -17 -8 0 -15 -5 -15
-11 0 -5 -8 -9 -17 -8 -10 1 -26 -1 -36 -6 -11 -4 -23 -3 -29 3 -7 7 -16 7
-31 -1 -15 -9 -21 -9 -24 0 -3 8 -14 11 -29 7 -15 -4 -24 -2 -24 5 0 6 4 11 9
11 5 0 7 9 4 20 -3 11 0 20 6 20 6 0 11 12 11 26 0 19 4 25 15 20 11 -4 15 1
15 19 0 15 6 25 15 25 12 0 11 7 -6 36 -11 20 -18 43 -15 51 4 9 -2 17 -14 20
-14 4 -19 11 -15 24 4 12 -1 22 -15 29 -17 9 -19 14 -9 26 6 8 8 14 3 14 -5 0
-15 4 -23 9 -13 8 -13 12 -1 26 12 15 12 18 -3 27 -11 6 -16 16 -12 28 3 10 0
20 -9 23 -9 4 -14 19 -13 40 1 30 4 35 26 35 15 0 30 -3 35 -6z m-11 -532 c5
-20 11 -22 90 -20 50 0 39 -16 -15 -24 -142 -20 -374 -12 -528 19 -21 4 -21 3
5 -9 88 -41 486 -51 558 -14 15 8 18 6 15 -9 -7 -35 -71 -47 -253 -48 -213 0
-355 23 -355 59 0 34 21 55 60 58 19 2 121 5 226 6 185 3 192 2 197 -18z"/>
<path d="M309 3770 c58 -57 61 -62 61 -108 0 -49 -21 -134 -40 -162 -9 -13
-12 -12 -25 4 -13 18 -13 22 4 40 23 26 41 60 41 78 0 7 -15 -12 -33 -42 -33
-54 -55 -101 -41 -87 4 3 20 -5 36 -18 41 -35 67 -39 171 -28 55 5 112 6 141
0 37 -6 66 -4 112 7 74 19 103 20 139 6 l27 -10 -36 -25 c-83 -56 -324 -92
-435 -65 -29 7 -75 28 -103 46 -27 19 -51 34 -53 34 -2 0 -6 -17 -10 -38 -13
-80 80 -218 161 -238 16 -4 47 -16 68 -27 l39 -21 40 22 c27 15 45 19 55 13
14 -8 10 -15 -20 -45 -20 -20 -50 -39 -67 -42 -17 -4 -31 -10 -31 -15 0 -29
99 20 124 62 14 24 20 25 83 24 38 -1 74 -4 80 -8 7 -4 13 6 17 28 4 20 20 51
36 69 32 36 40 57 15 36 -21 -17 -32 -4 -39 43 -10 65 32 119 107 137 31 8 31
8 5 9 -36 1 -36 15 2 31 20 8 54 10 107 5 66 -6 88 -3 138 14 64 23 120 27
130 11 3 -5 0 -10 -7 -11 -7 0 -3 -4 10 -9 45 -19 20 -105 -46 -155 -48 -37
-60 -39 -43 -7 13 25 14 42 2 42 -5 0 -12 -18 -16 -41 -8 -48 15 -83 51 -76
13 2 20 -1 18 -7 -2 -6 5 -17 17 -24 18 -11 20 -11 15 0 -3 7 -9 21 -12 31 -5
13 -14 17 -30 14 -48 -9 -46 18 4 54 59 43 62 44 62 26 0 -10 8 -13 24 -10 16
3 23 10 19 19 -3 8 0 14 6 14 20 0 11 27 -14 40 -19 10 -25 21 -25 47 0 23 -8
42 -26 60 -22 22 -31 25 -70 19 -24 -3 -58 -13 -76 -22 -31 -16 -116 -20 -170
-9 -17 4 -43 -1 -70 -13 -32 -14 -59 -18 -103 -15 -35 3 -84 -2 -116 -10 -41
-11 -68 -13 -95 -6 -22 5 -71 6 -111 3 l-72 -7 1 89 c1 66 -3 98 -16 124 -10
21 -14 25 -10 10 4 -14 8 -71 9 -127 1 -102 1 -103 -22 -103 -27 0 -28 10 -8
76 8 27 14 69 14 94 -1 41 -2 38 -15 -30 -20 -110 -40 -151 -59 -119 -4 5 0
18 8 27 21 23 37 87 37 147 0 37 3 46 10 35 7 -11 9 -4 6 24 -5 41 -32 80 -52
72 -6 -2 -24 9 -40 25 -15 16 -34 29 -42 29 -7 0 14 -27 47 -60z m69 -28 c20
-30 11 -28 -19 4 -13 15 -18 25 -10 22 8 -2 21 -14 29 -26z m-23 -370 c77 -38
166 -46 294 -28 63 10 128 24 144 33 28 14 29 14 23 -2 -3 -9 -6 -36 -6 -59 0
-38 -3 -43 -32 -53 -98 -34 -292 -23 -395 22 -78 35 -103 60 -103 103 0 33 1
34 18 20 9 -9 35 -25 57 -36z m1013 30 c15 -10 5 -45 -12 -39 -13 4 -21 47 -9
47 4 0 14 -4 21 -8z m-978 -136 c107 -42 276 -51 378 -21 64 20 79 6 46 -42
-13 -19 -21 -40 -17 -45 3 -6 0 -8 -8 -6 -8 3 -26 2 -40 -2 -15 -5 -50 -1 -84
7 -53 14 -61 13 -97 -3 -37 -16 -42 -17 -71 -2 -18 9 -47 21 -65 27 -39 12
-89 52 -114 90 -24 36 -22 46 5 29 12 -8 42 -22 67 -32z"/>
<path d="M1246 3795 c-3 -8 -1 -15 4 -15 6 0 10 7 10 15 0 8 -2 15 -4 15 -2 0
-6 -7 -10 -15z"/>
<path d="M2317 3763 c-13 -12 -7 -34 11 -40 9 -4 22 -13 28 -22 6 -8 18 -12
28 -8 23 9 20 30 -4 22 -15 -5 -20 -2 -20 10 0 12 -5 15 -16 11 -13 -5 -15 -2
-11 14 5 20 -3 26 -16 13z"/>
<path d="M2546 3721 c-7 -11 4 -71 13 -71 3 0 6 18 7 40 1 38 -8 51 -20 31z"/>
<path d="M2924 3711 c8 -13 68 -42 74 -37 2 3 -2 11 -9 19 -17 16 -74 32 -65
18z"/>
<path d="M351 3654 c0 -11 3 -14 6 -6 3 7 2 16 -1 19 -3 4 -6 -2 -5 -13z"/>
<path d="M1850 3569 c0 -5 5 -7 10 -4 6 3 10 8 10 11 0 2 -4 4 -10 4 -5 0 -10
-5 -10 -11z"/>
<path d="M2579 3564 c-11 -14 -11 -18 2 -28 8 -6 18 -19 22 -28 7 -20 22 -23
32 -8 3 6 -1 10 -10 10 -11 0 -15 5 -11 15 3 9 0 15 -10 15 -11 0 -13 6 -9 20
8 24 2 26 -16 4z"/>
<path d="M270 3466 c0 -9 5 -16 10 -16 6 0 10 4 10 9 0 6 -4 13 -10 16 -5 3
-10 -1 -10 -9z"/>
<path d="M1276 3461 c-9 -10 -16 -25 -16 -34 0 -25 47 -22 60 3 9 16 8 20 -5
20 -8 0 -15 -7 -15 -16 0 -8 -4 -12 -10 -9 -16 10 -12 21 12 32 18 8 19 10 6
16 -9 3 -23 -2 -32 -12z"/>
<path d="M1136 3353 c4 -16 10 -34 14 -42 23 -44 -60 -99 -162 -109 -56 -5
-60 -7 -78 -42 -44 -86 -122 -120 -190 -85 -39 20 -57 19 -65 -5 -4 -11 -10
-18 -15 -15 -5 3 -10 -1 -13 -7 -3 -10 -7 -10 -20 0 -14 12 -19 12 -32 -1 -22
-22 -19 -30 7 -16 18 10 20 9 15 -5 -8 -19 19 -23 26 -3 4 9 8 9 15 -2 8 -11
12 -10 21 7 6 11 11 28 11 37 0 14 3 14 32 -1 18 -9 56 -18 85 -19 49 -3 54
-1 87 35 19 21 42 53 51 69 11 23 23 31 43 31 38 0 118 26 158 51 19 11 34 16
34 11 0 -5 13 -12 29 -15 16 -4 41 -19 55 -34 20 -21 26 -24 26 -11 0 9 5 20
12 24 6 4 8 3 5 -3 -4 -6 0 -16 8 -23 12 -10 15 -10 15 1 0 29 -16 42 -38 30
-15 -8 -21 -7 -25 3 -3 8 -23 18 -44 23 -35 8 -38 12 -38 43 -1 46 -15 100
-26 100 -5 0 -6 -12 -3 -27z"/>
<path d="M0 2984 c0 -4 8 -14 18 -23 10 -9 21 -24 25 -33 3 -10 14 -18 24 -17
11 0 13 3 6 6 -7 2 -13 11 -13 19 0 8 -7 17 -15 20 -8 4 -15 12 -15 20 0 8 -7
14 -15 14 -8 0 -15 -3 -15 -6z"/>
<path d="M2140 2893 c0 -32 -1 -141 -4 -243 -2 -103 0 -165 4 -140 4 25 9 115
10 200 1 85 3 174 4 198 2 23 -1 42 -5 42 -5 0 -9 -26 -9 -57z"/>
<path d="M2220 2615 c0 -186 2 -336 5 -334 7 8 8 659 1 666 -3 4 -6 -146 -6
-332z"/>
<path d="M13 2883 c9 -9 20 -13 24 -9 4 4 1 11 -7 16 -25 16 -35 11 -17 -7z"/>
<path d="M84 2872 c4 -20 1 -23 -22 -21 -46 4 -62 -1 -62 -16 0 -18 12 -19 27
-4 14 14 63 1 63 -17 0 -8 4 -14 8 -14 13 0 8 52 -7 75 -12 19 -12 19 -7 -3z"/>
<path d="M530 2856 c0 -31 6 -34 13 -6 3 11 1 23 -4 26 -5 3 -9 -6 -9 -20z"/>
<path d="M2775 2800 c3 -5 8 -10 11 -10 2 0 4 5 4 10 0 6 -5 10 -11 10 -5 0
-7 -4 -4 -10z"/>
<path d="M610 2789 c-61 -15 -72 -26 -68 -68 l3 -36 90 -23 c50 -13 116 -24
147 -25 l58 -2 2 -135 c0 -74 1 -268 0 -430 -1 -173 3 -301 8 -310 7 -10 10
143 9 430 l0 445 28 0 28 -1 6 -89 c4 -50 7 -242 8 -427 l1 -336 -40 -23 c-22
-13 -40 -26 -40 -31 0 -13 9 -10 53 21 53 36 167 91 188 91 9 0 22 7 29 15 7
8 10 15 7 15 -6 0 -72 -27 -127 -52 -25 -11 -46 -19 -47 -17 -1 2 -5 173 -8
379 -4 206 -7 393 -8 415 l-2 40 115 7 c162 10 174 15 178 65 3 47 3 47 -103
69 -89 19 -452 28 -515 13z m515 -29 c142 -24 90 -39 -160 -45 -163 -4 -322
11 -375 37 l-25 11 30 8 c43 11 447 3 530 -11z m-551 -18 c8 -14 103 -32 216
-41 100 -8 369 1 411 14 26 9 26 -21 -1 -35 -33 -18 -229 -32 -360 -27 -164 7
-268 30 -281 64 -5 13 -9 26 -9 29 0 7 19 4 24 -4z"/>
<path d="M33 2773 c-15 -5 -17 -23 -4 -23 5 0 11 7 15 15 3 8 4 15 3 14 -1 0
-8 -3 -14 -6z"/>
<path d="M75 2770 c-3 -5 -2 -10 4 -10 5 0 13 5 16 10 3 6 2 10 -4 10 -5 0
-13 -4 -16 -10z"/>
<path d="M43 2712 l-21 -27 -10 25 c-9 22 -10 20 -9 -17 l1 -42 33 34 c18 19
33 39 33 45 0 14 -2 13 -27 -18z"/>
<path d="M2670 2719 c0 -6 -6 -9 -12 -6 -17 6 -58 -10 -58 -23 0 -6 12 -15 27
-21 14 -5 31 -16 37 -23 6 -8 27 -17 46 -20 19 -3 46 -8 60 -11 46 -10 130
-11 120 -1 -5 5 -37 10 -73 11 -35 1 -70 6 -78 10 -7 5 -25 9 -39 9 -14 1 -24
6 -23 13 1 6 -11 14 -27 18 -39 9 -39 25 0 25 17 0 30 5 30 11 0 7 10 9 28 5
46 -11 281 -12 286 -1 3 9 -57 12 -89 5 -28 -6 -92 -5 -107 3 -10 4 -26 3 -37
-3 -13 -7 -22 -7 -26 0 -8 14 -65 13 -65 -1z"/>
<path d="M2714 2672 c15 -24 286 -25 286 -1 0 5 -12 6 -27 2 -37 -9 -133 -9
-207 1 -37 5 -56 4 -52 -2z"/>
<path d="M2933 2627 c-13 -5 -23 -14 -23 -19 0 -5 8 -4 18 1 10 6 28 8 39 5
12 -3 24 0 29 7 5 9 2 10 -11 5 -10 -4 -21 -3 -24 2 -4 6 -15 5 -28 -1z"/>
<path d="M1957 2516 c-3 -7 1 -23 9 -34 8 -12 14 -25 13 -29 -4 -22 3 -34 26
-45 14 -6 25 -17 25 -24 0 -18 52 -44 87 -44 18 0 33 -8 42 -21 12 -20 11 -21
-6 -14 -31 14 -80 17 -87 7 -11 -18 79 -102 108 -102 15 0 62 -24 109 -55 70
-46 92 -56 135 -59 37 -2 78 -16 155 -54 56 -29 116 -52 132 -52 16 0 66 -7
111 -15 80 -16 84 -15 124 5 22 11 45 18 50 15 6 -3 10 1 10 9 0 20 1 20 -57
-5 -43 -19 -55 -20 -118 -10 -38 6 -89 13 -112 16 -23 3 -88 28 -144 55 -69
34 -115 50 -141 50 -43 0 -82 18 -173 79 -33 23 -72 41 -87 41 -17 0 -29 7
-32 18 -4 11 -18 25 -31 32 -27 14 -33 30 -12 30 7 0 55 -20 105 -44 112 -55
147 -62 231 -46 59 11 73 10 140 -9 41 -11 77 -19 80 -17 3 2 32 7 64 10 33 4
70 12 84 17 25 9 26 9 20 -26 -3 -19 -2 -35 4 -35 5 0 9 7 9 15 0 13 4 14 21
4 12 -6 36 -11 54 -11 35 0 95 27 95 42 0 5 -18 0 -40 -11 -41 -22 -102 -21
-116 2 -21 35 62 109 125 109 17 0 31 5 31 10 0 29 -110 -10 -155 -54 -22 -22
-25 -23 -30 -6 -3 10 -21 25 -40 34 -19 9 -39 26 -45 36 -6 11 -23 23 -38 26
-15 4 -40 18 -56 31 -24 20 -36 23 -65 18 -20 -4 -42 -11 -48 -17 -17 -14 -16
-43 2 -58 8 -7 15 -20 15 -29 0 -10 11 -28 25 -41 27 -26 35 -17 9 11 -8 9
-17 24 -18 33 -1 8 -10 24 -20 35 -23 25 -15 37 30 46 29 5 43 2 63 -13 15
-10 36 -22 48 -26 13 -4 31 -18 42 -32 10 -13 23 -24 29 -24 13 0 62 -40 62
-51 0 -14 -58 -11 -63 4 -3 7 -6 5 -6 -5 -1 -21 -5 -22 -31 -8 -12 6 -16 17
-13 30 3 11 0 20 -6 20 -6 0 -11 -5 -11 -11 0 -25 -30 14 -31 40 l0 26 -11
-23 c-7 -13 -17 -21 -25 -18 -7 3 -13 1 -13 -4 0 -6 7 -10 16 -10 9 0 27 -9
40 -19 l25 -20 -23 -4 c-17 -3 -15 -5 9 -6 17 0 35 -6 39 -12 8 -13 -75 -7
-155 12 -41 9 -70 10 -125 1 -78 -12 -116 -6 -184 27 -46 24 -88 79 -72 95 13
13 13 66 0 66 -5 0 -22 14 -37 30 -14 17 -32 30 -39 30 -7 0 -30 11 -50 25
-41 28 -79 33 -87 11z m85 -28 c14 -10 33 -18 42 -18 8 0 23 -11 32 -25 9 -13
25 -27 35 -30 14 -5 19 -14 17 -28 -4 -29 -32 -28 -36 1 -2 12 -10 22 -19 22
-8 0 -17 9 -20 20 -3 11 -9 17 -15 14 -5 -3 -17 0 -26 8 -15 12 -16 11 -4 -4
10 -13 10 -17 0 -21 -7 -3 -3 -6 8 -6 12 -1 27 -8 34 -16 10 -12 9 -15 -6 -16
-11 0 -4 -5 14 -10 17 -5 32 -14 32 -20 0 -6 -9 -8 -22 -4 -13 4 -31 9 -40 11
-10 3 -18 12 -18 19 0 8 -14 22 -31 30 -21 11 -29 21 -25 32 4 9 -1 24 -10 34
-9 10 -13 22 -10 28 8 12 31 5 68 -21z"/>
<path d="M2600 2325 c7 -8 17 -15 22 -15 6 0 5 7 -2 15 -7 8 -17 15 -22 15 -6
0 -5 -7 2 -15z"/>
<path d="M117 2255 c-43 -41 -87 -75 -98 -75 -10 0 -19 -4 -19 -10 0 -5 13 -7
30 -3 39 7 39 -5 0 -18 -17 -6 -30 -15 -30 -21 0 -5 26 5 58 22 40 21 66 43
83 71 13 22 34 56 46 75 12 19 19 34 15 34 -4 -1 -42 -34 -85 -75z m37 3 c-24
-41 -61 -78 -77 -78 -14 0 -6 12 30 45 51 47 59 52 47 33z"/>
<path d="M25 2263 c-3 -10 -2 -19 3 -21 6 -2 7 -12 4 -24 -3 -14 -1 -19 6 -14
14 8 16 76 3 76 -5 0 -12 -8 -16 -17z"/>
<path d="M0 2230 c0 -5 5 -10 11 -10 5 0 7 5 4 10 -3 6 -8 10 -11 10 -2 0 -4
-4 -4 -10z"/>
<path d="M170 2200 c-24 -5 -28 -8 -12 -9 13 0 21 -5 17 -10 -3 -6 -14 -9 -25
-8 -11 1 -49 -14 -85 -33 -66 -36 -83 -63 -47 -74 28 -9 63 -50 97 -114 34
-64 53 -72 118 -51 47 15 77 51 77 92 0 46 -37 114 -79 144 -20 15 -38 29 -41
31 -3 2 6 12 20 22 27 21 19 23 -40 10z m46 -69 c52 -41 69 -72 69 -129 0 -53
0 -54 -44 -79 -61 -34 -82 -26 -117 43 -29 58 -79 114 -101 114 -7 0 -13 5
-13 10 0 6 5 10 10 10 6 0 31 14 58 30 53 35 95 35 138 1z"/>
<path d="M2130 2113 c4 -151 0 -318 -8 -308 -16 23 -173 85 -214 85 -24 0 6
-18 39 -25 40 -7 172 -67 238 -109 l40 -25 2 226 c2 124 0 224 -2 221 -3 -3
-8 -97 -12 -209 -3 -112 -7 -205 -8 -207 -1 -1 -15 5 -31 14 l-30 17 3 198 c1
132 -1 199 -8 199 -7 0 -10 -29 -9 -77z"/>
<path d="M27 1913 c-15 -2 -27 -9 -27 -15 0 -6 10 -7 27 -3 16 4 44 11 63 15
l35 8 -35 -1 c-19 0 -47 -2 -63 -4z"/>
<path d="M1835 1909 c-4 -6 -4 -13 0 -17 4 -4 10 -1 12 6 7 19 23 14 23 -8 0
-60 -101 -155 -235 -223 -27 -14 -61 -37 -74 -51 -14 -14 -29 -26 -34 -26 -5
0 -28 17 -51 38 -40 37 -158 112 -176 112 -10 0 -110 78 -127 99 -17 21 -12
56 7 56 9 0 14 -7 12 -17 -2 -10 2 -18 8 -18 5 0 10 5 10 10 0 7 52 10 150 9
83 0 150 -4 150 -9 0 -10 -63 -35 -152 -60 -72 -20 -85 -26 -76 -35 3 -3 25 2
49 11 24 8 52 17 62 19 37 8 93 30 108 42 22 18 35 17 120 -16 42 -16 98 -32
125 -35 41 -5 33 -1 -46 24 -52 17 -105 34 -117 37 -13 3 -23 9 -23 13 0 12
142 32 203 29 31 -2 57 -1 57 4 0 13 -163 7 -226 -9 -47 -11 -72 -13 -99 -5
-20 5 -92 8 -160 6 -75 -3 -127 -1 -130 5 -11 17 -44 11 -55 -10 -23 -42 48
-115 177 -182 68 -35 132 -79 157 -107 18 -20 19 -23 3 -56 l-16 -34 -43 14
c-24 7 -88 29 -143 48 -314 109 -408 136 -495 143 -61 5 -74 2 -181 -41 -123
-48 -172 -85 -185 -138 -6 -25 -1 -34 39 -70 25 -24 74 -55 112 -70 37 -15 96
-47 131 -72 36 -24 81 -47 100 -51 l34 -6 0 -69 c0 -57 -5 -76 -24 -107 -70
-106 -77 -273 -20 -432 3 -8 7 -49 9 -90 5 -121 15 -191 35 -241 11 -30 14
-52 8 -61 -5 -7 -8 -33 -7 -58 2 -47 -28 -133 -42 -124 -5 3 -9 19 -9 36 0 17
-6 39 -13 47 -7 9 -18 37 -25 63 -13 51 -6 84 22 107 18 15 21 47 6 56 -6 4
-8 10 -5 15 8 13 -6 40 -21 40 -17 0 -59 -57 -67 -90 -4 -14 -29 -50 -57 -80
-27 -30 -50 -58 -50 -62 0 -5 -4 -8 -10 -8 -5 0 -10 15 -10 34 0 38 -24 66
-41 49 -14 -14 -14 -182 -1 -248 7 -38 8 -17 4 93 -3 87 -1 142 4 142 12 0 39
-116 35 -147 -1 -13 2 -23 8 -23 6 0 11 18 11 41 0 40 14 79 28 79 4 0 5 -21
3 -46 -2 -26 1 -44 5 -41 5 3 10 31 12 63 2 32 9 65 15 73 10 11 13 2 18 -48
6 -57 13 -80 23 -70 2 2 0 24 -5 49 -7 36 -4 58 13 111 22 69 52 119 64 106 4
-4 1 -19 -6 -34 -7 -16 -14 -44 -17 -63 -2 -19 -5 -40 -8 -47 -4 -13 9 -59 36
-121 11 -24 17 -47 14 -52 -7 -12 12 -50 25 -50 5 0 21 22 35 49 23 46 79 100
92 88 3 -3 -4 -19 -16 -35 -23 -33 -54 -139 -44 -155 3 -5 14 19 23 55 9 36
26 81 37 99 33 55 9 79 -38 38 l-24 -21 -3 48 c-2 27 1 50 8 54 8 5 8 27 -3
81 -23 127 10 209 99 242 59 22 66 28 53 47 -8 13 -12 12 -25 -5 -15 -20 -69
-28 -90 -13 -5 4 -27 5 -48 1 -36 -6 -33 -23 3 -18 9 1 10 0 4 -2 -14 -5 -18
-23 -5 -23 4 0 17 7 29 15 14 10 24 12 28 5 6 -9 -1 -14 -17 -11 -4 0 -16 -13
-28 -29 -12 -17 -25 -30 -29 -30 -11 0 -30 89 -20 95 8 6 8 44 -1 43 -18 -2
-23 4 -10 12 13 8 13 10 -1 10 -20 0 -36 65 -21 83 5 7 12 24 16 39 3 14 17
40 31 57 14 16 33 52 42 78 8 26 22 54 31 60 9 7 13 16 9 19 -9 9 -47 -21 -68
-55 -23 -37 -39 -40 -39 -6 0 15 16 42 40 68 44 47 86 117 70 117 -10 0 -74
-76 -76 -91 -1 -5 -2 -13 -3 -19 0 -5 -6 -10 -12 -10 -5 0 -8 4 -5 9 4 5 1 11
-4 13 -19 6 84 122 148 167 35 24 61 45 58 48 -8 8 -111 -63 -138 -95 -15 -18
-29 -32 -32 -32 -3 0 -4 27 -4 60 l1 60 36 0 c20 0 63 6 97 13 l60 13 -3 -38
c-3 -38 -2 -39 30 -36 18 1 38 -1 44 -5 6 -4 18 -1 25 7 8 7 24 17 36 20 12 4
22 12 22 17 0 6 4 8 9 4 5 -3 16 1 23 9 8 7 24 17 36 21 16 4 22 13 20 28 -3
19 4 23 67 34 39 6 76 12 83 12 40 2 -24 -45 -103 -75 -85 -31 -133 -63 -177
-117 -24 -28 -84 -92 -134 -142 -92 -92 -110 -123 -99 -174 11 -59 62 -73 137
-38 72 32 129 88 193 188 103 160 171 239 205 239 5 0 10 -13 10 -28 0 -19
-11 -39 -36 -63 -57 -54 -101 -131 -134 -234 -17 -52 -35 -97 -39 -99 -4 -3
-7 17 -6 45 1 27 -2 49 -6 49 -9 0 -19 -39 -19 -80 0 -41 -33 -100 -56 -100
-12 0 -15 6 -9 23 15 50 17 67 6 67 -6 0 -11 -9 -11 -20 0 -12 -15 -29 -40
-45 -34 -22 -60 -51 -60 -69 0 -4 9 -1 20 6 11 7 20 19 20 27 0 8 3 11 7 8 3
-4 12 -2 19 4 15 13 30 6 44 -22 7 -13 7 -19 0 -19 -5 0 -10 7 -10 15 0 8 -4
15 -10 15 -5 0 -10 -6 -10 -14 0 -7 -14 -16 -30 -19 -58 -11 -64 -14 -74 -30
-17 -27 3 -32 30 -6 21 19 36 24 80 24 52 0 55 1 51 22 -2 12 0 21 6 20 18 -4
83 108 106 183 28 89 85 192 134 239 l35 33 13 -41 c16 -53 43 -55 60 -6 7 19
16 35 20 35 10 0 89 -104 122 -161 15 -25 40 -82 56 -126 37 -103 42 -112 83
-148 26 -23 45 -30 74 -30 28 0 56 -10 90 -32 27 -17 60 -34 74 -38 73 -19 90
-36 121 -118 18 -48 22 -79 22 -170 0 -84 1 -99 7 -62 4 28 12 63 18 78 7 16
12 71 12 124 0 70 6 115 22 167 46 148 18 316 -72 445 -44 63 -134 145 -213
194 -26 17 -46 31 -44 33 1 1 34 -6 72 -18 117 -33 138 -38 190 -38 28 0 65 4
84 10 30 8 184 94 252 141 l26 17 79 -75 c112 -105 354 -295 354 -276 0 4 -55
48 -121 98 -66 49 -160 128 -210 175 l-89 85 23 29 23 28 39 -22 c121 -67 237
-161 308 -250 15 -18 27 -29 27 -23 0 14 -50 76 -102 125 -54 50 -147 117
-215 154 -45 24 -52 31 -47 50 13 53 -78 132 -190 165 -96 29 -263 22 -381
-15 -44 -14 -86 -26 -93 -26 -13 0 -336 -116 -364 -131 -31 -16 -46 -10 -53
22 -9 39 13 62 99 108 32 17 84 52 116 76 51 39 61 43 86 35 37 -12 233 -50
258 -50 11 0 17 3 13 6 -6 7 -167 40 -244 51 -42 5 -53 15 -33 28 20 12 42 67
36 91 -7 25 -39 33 -51 13z m-839 -258 c66 -21 174 -56 241 -77 68 -20 121
-39 119 -41 -2 -3 -66 0 -142 5 -134 10 -142 12 -229 54 -80 38 -97 43 -160
43 -93 -1 -245 -28 -278 -50 -32 -20 -36 -64 -9 -87 9 -8 53 -34 97 -58 44
-24 94 -53 111 -66 44 -34 103 -56 147 -56 21 1 79 13 130 27 61 18 114 27
158 26 36 0 90 6 121 14 31 8 76 17 102 20 38 6 46 4 46 -9 0 -11 -10 -16 -32
-16 -18 0 -53 -5 -78 -11 -25 -6 -90 -19 -145 -29 -55 -10 -134 -26 -175 -34
-98 -21 -212 -21 -252 0 -17 9 -51 31 -77 49 -25 18 -76 45 -113 60 -73 29
-138 84 -138 117 0 37 63 83 172 126 57 22 117 42 133 44 50 5 127 -10 251
-51z m1444 35 c99 -29 180 -92 180 -138 0 -43 -52 -93 -174 -165 -66 -39 -134
-77 -151 -84 -46 -18 -152 -13 -225 11 -54 17 -268 58 -385 73 -24 3 -22 4 11
6 23 0 66 -4 95 -10 30 -6 101 -10 159 -10 58 0 121 -4 140 -9 145 -44 190
-34 280 58 36 37 78 78 93 91 34 29 34 46 0 80 -21 20 -50 32 -111 46 -79 18
-87 18 -175 2 -51 -9 -126 -21 -167 -26 -43 -5 -118 -25 -174 -46 -85 -32
-204 -59 -214 -50 -2 2 14 9 35 15 21 7 97 34 168 60 117 43 321 103 385 113
50 7 179 -2 230 -17z m-1515 -86 c22 -10 60 -26 85 -37 78 -35 111 -41 260
-48 145 -6 190 -12 190 -24 -1 -22 -25 -31 -106 -37 l-90 -7 -18 28 c-10 15
-20 24 -23 22 -2 -3 3 -17 12 -31 l17 -25 -34 4 c-18 2 -53 6 -76 9 -30 3 -49
11 -59 25 -8 12 -19 21 -25 21 -6 0 -3 -9 7 -20 18 -20 17 -20 -13 -20 -46 0
-171 28 -193 44 -18 12 -18 14 -3 20 23 9 -2 39 -27 31 -12 -4 -22 1 -29 14
-12 23 -40 18 -40 -8 0 -12 -8 -17 -27 -16 -32 0 -43 -24 -14 -32 21 -5 30
-23 11 -23 -12 0 -13 -37 -2 -44 5 -3 23 4 41 15 34 21 51 18 51 -8 0 -13 -3
-13 -15 -3 -8 7 -15 8 -15 2 0 -17 25 -31 40 -22 8 5 11 12 7 16 -13 13 37 31
61 22 13 -4 54 -11 93 -14 57 -6 67 -9 58 -20 -13 -16 2 -19 18 -3 12 12 165
1 157 -12 -7 -12 9 -12 22 0 16 15 104 20 104 6 0 -18 -78 -35 -163 -35 -47 0
-96 -7 -134 -20 -156 -51 -206 -48 -304 20 -30 21 -87 55 -126 74 -80 40 -97
57 -88 84 8 26 44 40 135 52 41 5 89 14 105 19 37 11 97 3 150 -19z m1450 11
c106 -30 120 -62 51 -113 -25 -18 -61 -54 -80 -80 -23 -30 -48 -51 -72 -58
-42 -14 -117 -8 -184 16 -33 12 -63 14 -114 10 -38 -4 -105 -2 -150 3 -44 6
-115 13 -158 16 -61 5 -77 10 -81 24 -4 16 1 18 42 13 25 -3 48 -9 49 -13 2
-5 8 -9 13 -9 7 0 7 6 0 17 -6 11 -6 24 0 35 12 23 -6 25 -19 2 -11 -21 -87
-16 -87 6 0 11 23 17 90 26 55 8 127 26 184 49 70 27 118 38 195 45 55 6 115
14 131 19 49 15 116 12 190 -8z m-827 -79 c7 -20 18 -62 23 -92 6 -30 11 -55
12 -57 2 -1 44 -8 95 -14 53 -7 92 -17 91 -23 -3 -26 2 -36 19 -36 10 0 25 -9
35 -20 10 -12 21 -18 26 -16 5 3 14 -1 21 -9 7 -8 20 -15 29 -15 9 0 22 -5 29
-12 8 -8 15 -8 24 -1 32 26 64 18 127 -32 64 -51 171 -187 152 -193 -16 -5
-26 -3 -26 6 0 19 -47 79 -74 95 -38 22 -41 13 -5 -15 14 -11 36 -44 49 -73
13 -30 42 -70 64 -90 29 -26 41 -45 41 -64 -1 -24 -1 -25 -12 -6 -12 22 -28
35 -42 35 -5 0 -4 -6 2 -12 6 -7 12 -47 14 -88 3 -69 2 -75 -17 -75 -16 0 -20
6 -18 28 1 15 -3 27 -8 27 -17 0 -30 -53 -24 -92 8 -44 -2 -48 -50 -18 -31 19
-38 41 -21 68 13 22 -4 29 -19 8 -8 -10 -16 -23 -17 -27 -2 -5 -13 -10 -26
-12 -13 -2 -28 -10 -32 -17 -5 -8 -12 -11 -16 -8 -3 4 0 14 9 22 17 17 11 65
-8 72 -7 3 -11 13 -8 23 2 9 -3 23 -12 31 -20 17 -29 7 -16 -18 16 -29 14 -62
-3 -62 -8 0 -18 5 -21 10 -3 5 -12 10 -18 10 -7 0 -6 -4 3 -11 11 -8 12 -12 2
-16 -6 -2 -9 -9 -6 -15 4 -6 -3 -8 -17 -6 -13 1 -28 12 -34 24 -6 11 -15 19
-22 17 -12 -4 -53 35 -53 51 0 5 11 -1 24 -13 14 -13 32 -21 43 -18 15 3 15 5
-7 15 -14 6 -21 11 -16 11 5 1 4 7 -1 14 -5 6 -10 26 -12 42 -4 36 -28 85 -41
85 -13 0 -13 -13 1 -27 7 -7 9 -23 4 -40 -7 -26 -8 -25 -29 33 -32 86 -83 168
-161 254 -29 32 -31 38 -20 67 l11 33 80 -64 c45 -36 96 -86 115 -112 19 -26
50 -61 69 -78 35 -31 100 -98 175 -183 34 -38 48 -46 86 -50 39 -4 49 -2 68
18 27 29 28 87 2 137 -24 47 -252 262 -278 262 -16 0 -148 72 -194 106 -26 19
-65 41 -88 49 -47 16 -40 27 -61 -100 -16 -99 -30 -149 -39 -139 -44 48 -80
393 -39 368 7 -4 8 -3 4 4 -8 13 32 97 42 88 3 -4 12 -23 20 -44z m-762 1
c-11 -11 -19 6 -11 24 8 17 8 17 12 0 3 -10 2 -21 -1 -24z m-31 -4 c12 -19 -5
-23 -22 -6 -16 16 -16 17 -1 17 9 0 20 -5 23 -11z m80 1 c-3 -5 -13 -10 -21
-10 -8 0 -14 -7 -14 -16 0 -9 -5 -14 -12 -12 -21 7 -19 23 4 34 30 15 51 17
43 4z m17 -48 c-19 -6 -44 6 -37 18 4 7 14 6 28 -2 14 -7 17 -13 9 -16z m-95
-9 c-9 -9 -20 -13 -24 -9 -4 4 -1 11 7 16 25 16 35 11 17 -7z m693 -37 c0 -9
-15 -15 -45 -18 -27 -2 -44 1 -42 7 3 8 18 13 80 24 4 0 7 -5 7 -13z m173 -43
c-7 -2 -19 -2 -25 0 -7 3 -2 5 12 5 14 0 19 -2 13 -5z m239 -53 c40 -8 138
-62 138 -76 0 -2 -12 -1 -26 2 -19 5 -25 4 -20 -5 4 -6 1 -11 -8 -11 -8 0 -20
8 -25 18 -9 15 -12 15 -21 2 -8 -13 -11 -11 -16 7 -5 18 -11 22 -29 17 -17 -4
-24 -1 -27 13 -2 10 -12 18 -23 18 -11 0 -21 8 -23 18 -3 14 1 18 15 13 10 -3
39 -10 65 -16z m-244 1 c7 -4 14 -19 15 -32 3 -36 37 -66 74 -67 18 0 35 3 38
8 3 4 27 -4 55 -19 47 -24 50 -29 56 -74 4 -26 11 -50 16 -53 17 -11 40 19 36
48 -3 18 0 27 6 25 6 -2 11 -28 12 -58 1 -47 4 -54 21 -57 17 -2 23 4 28 29
l7 31 24 -25 c13 -14 39 -38 59 -53 27 -21 35 -33 35 -59 0 -18 9 -43 19 -56
18 -22 20 -22 26 -6 11 27 23 20 36 -22 9 -31 9 -47 -1 -70 -11 -28 -17 -31
-54 -31 -59 0 -68 9 -56 51 17 59 -9 131 -53 143 -14 4 -32 -2 -50 -15 l-28
-20 -37 30 c-20 17 -64 63 -98 103 -52 62 -148 146 -209 183 -14 8 -16 18 -10
43 7 34 12 37 33 23z m-348 -16 c0 -8 -9 -15 -20 -15 -11 0 -20 -7 -20 -16 0
-10 -6 -13 -19 -9 -13 4 -20 0 -24 -15 -3 -14 -10 -18 -22 -14 -10 4 -21 -1
-30 -12 -11 -15 -16 -16 -26 -7 -9 9 -16 9 -25 2 -18 -15 -38 -1 -24 16 8 10
7 14 -2 17 -23 8 33 32 112 49 97 22 100 22 100 4z m185 -20 c0 -29 -7 -39
-42 -65 -24 -18 -43 -35 -43 -38 0 -4 -15 -24 -34 -45 -30 -35 -35 -37 -59
-26 -78 35 -127 -52 -86 -153 10 -24 7 -30 -28 -63 -87 -85 -170 -116 -207
-79 -24 24 -19 73 11 117 l27 39 18 -22 c10 -12 18 -31 18 -42 0 -28 34 -19
38 10 2 12 -4 36 -12 53 -9 17 -13 36 -10 41 9 15 34 -12 34 -38 0 -31 20 -41
37 -18 14 19 9 68 -9 91 -12 15 16 55 91 131 52 51 55 53 63 32 5 -13 15 -20
25 -18 10 1 23 -1 29 -5 12 -7 64 35 64 52 0 6 -8 15 -17 21 -13 8 -14 10 -3
7 9 -3 31 8 50 24 19 16 37 29 40 29 3 0 5 -16 5 -35z m210 15 c3 -5 -1 -10
-9 -10 -9 0 -16 5 -16 10 0 6 4 10 9 10 6 0 13 -4 16 -10z m19 -31 c-27 -11
-34 -10 -34 0 0 11 31 20 44 13 5 -3 1 -9 -10 -13z m-315 -25 c2 -2 1 -7 -2
-11 -4 -4 -12 -2 -18 4 -6 6 -18 9 -27 6 -10 -4 -13 -2 -8 6 7 10 42 7 55 -5z
m331 7 c0 -12 -20 -25 -27 -18 -7 7 6 27 18 27 5 0 9 -4 9 -9z m31 -4 c-1 -12
-15 -9 -19 4 -3 6 1 10 8 8 6 -3 11 -8 11 -12z m-431 -32 c-9 -11 -16 -13 -23
-6 -7 7 -6 15 3 26 9 11 16 13 23 6 7 -7 6 -15 -3 -26z m42 0 c0 -5 -5 -11
-11 -13 -6 -2 -11 4 -11 13 0 9 5 15 11 13 6 -2 11 -8 11 -13z m548 -61 c4
-10 4 -28 0 -38 -5 -16 -9 -11 -17 23 -8 29 -8 41 -1 39 6 -2 14 -13 18 -24z
m75 -63 c-12 -48 -25 -47 -23 2 2 37 5 44 16 35 8 -7 11 -21 7 -37z m-687 0
c11 -6 7 -21 -19 -67 l-33 -58 -7 33 c-9 43 -3 58 30 76 25 14 25 14 4 15 -14
0 -29 -11 -40 -26 -14 -22 -15 -33 -6 -67 7 -23 10 -44 7 -46 -18 -18 -32 96
-15 128 12 22 54 29 79 12z m-168 -97 c0 -19 -4 -34 -10 -34 -5 0 -10 10 -10
23 0 13 -5 28 -11 34 -6 6 -8 16 -4 23 12 20 35 -10 35 -46z m-292 19 c-2 -5
-10 -20 -17 -35 -11 -22 -12 -30 -1 -43 14 -17 40 -20 40 -5 0 6 4 10 9 10 5
0 7 -9 4 -21 -4 -15 -12 -20 -29 -16 -13 2 -21 0 -18 -4 3 -5 12 -9 21 -9 13
0 13 -3 3 -15 -7 -8 -20 -15 -29 -15 -13 0 -13 -2 -2 -9 9 -6 10 -11 2 -15 -6
-4 -16 -4 -22 -1 -20 13 11 185 34 185 5 0 7 -3 5 -7z m230 -57 c8 -15 10 -35
7 -44 -6 -13 -9 -10 -16 15 -5 18 -14 35 -19 38 -14 9 -12 27 3 23 6 -3 18
-17 25 -32z m1087 -16 c4 0 3 6 -1 13 -5 9 -4 9 6 0 7 -7 10 -19 6 -30 -7 -17
-8 -17 -22 1 -8 11 -14 29 -13 40 0 20 1 20 9 -1 5 -13 12 -23 15 -23z m114
-4 c1 -5 -5 -3 -13 4 -8 6 -12 19 -9 27 6 14 8 14 14 -3 4 -10 8 -23 8 -28z
m-223 16 c21 -14 34 -51 34 -96 0 -25 -4 -46 -9 -46 -5 0 -7 18 -4 40 4 27 0
47 -11 65 -17 25 -50 33 -61 15 -4 -7 2 -9 18 -5 21 6 26 2 36 -26 13 -37 14
-69 4 -69 -10 0 -63 66 -63 79 0 5 -5 11 -11 13 -16 5 18 38 39 38 9 0 22 -4
28 -8z m-216 -126 c0 -11 -19 -15 -25 -6 -3 5 1 10 9 10 9 0 16 -2 16 -4z
m-1020 -22 c0 -8 -4 -12 -10 -9 -5 3 -10 10 -10 16 0 5 5 9 10 9 6 0 10 -7 10
-16z m1493 -14 c-3 -11 -9 -20 -14 -20 -10 0 -12 24 -2 33 13 13 21 7 16 -13z
m-5 -61 c-3 -8 -7 -3 -11 10 -4 17 -3 21 5 13 5 -5 8 -16 6 -23z m-278 -19 c0
-14 -28 -19 -33 -6 -3 6 4 13 14 13 10 1 19 -2 19 -7z m266 -26 c-11 -8 -15
-14 -8 -14 6 0 9 -7 6 -15 -8 -21 -34 -19 -35 3 0 12 -2 13 -6 3 -3 -8 1 -19
10 -26 14 -10 14 -17 3 -56 -7 -24 -11 -60 -10 -79 2 -34 2 -34 -12 9 -8 25
-28 60 -46 78 -38 40 -33 53 8 18 33 -29 44 -31 44 -10 0 8 -9 15 -21 15 -17
0 -19 4 -13 23 5 12 8 32 9 44 0 16 4 19 15 13 9 -5 26 -3 40 5 31 16 42 9 16
-11z m-175 -42 c6 -15 5 -21 -1 -17 -6 3 -10 13 -10 21 0 12 -4 13 -21 3 -17
-9 -20 -8 -14 2 6 9 3 11 -8 6 -10 -3 -17 -2 -17 4 0 6 14 9 31 7 22 -2 34
-10 40 -26z m-1231 -149 c0 -13 -22 -43 -32 -43 -7 0 -7 4 1 14 8 10 9 16 1
21 -18 11 -11 23 10 18 11 -3 20 -7 20 -10z m-90 -154 c-7 -11 -14 -18 -17
-15 -8 8 5 36 17 36 7 0 7 -6 0 -21z"/>
<path d="M604 1534 c-8 -30 10 -54 27 -37 11 11 2 63 -12 63 -5 0 -12 -12 -15
-26z m21 -14 c3 -5 1 -10 -4 -10 -6 0 -11 5 -11 10 0 6 2 10 4 10 3 0 8 -4 11
-10z"/>
<path d="M1350 1481 c0 -5 5 -13 10 -16 6 -3 10 -2 10 4 0 5 -4 13 -10 16 -5
3 -10 2 -10 -4z"/>
<path d="M2211 1586 c-8 -10 -9 -16 -1 -21 15 -9 12 -25 -4 -25 -8 0 -16 -4
-18 -9 -1 -6 -42 -15 -90 -21 -48 -6 -98 -15 -110 -20 l-23 -9 25 0 c14 0 68
6 120 14 52 8 99 15 103 15 5 0 6 4 3 9 -3 5 1 12 10 15 13 5 14 9 4 21 -17
21 -8 28 15 11 18 -13 17 -15 -13 -47 -18 -19 -32 -40 -32 -46 0 -16 32 -17
48 -1 9 9 15 8 26 -7 18 -25 50 -13 43 16 -4 15 0 23 14 26 24 7 21 39 -4 37
-12 -1 -17 6 -17 22 0 28 -24 32 -39 7 -6 -10 -11 -13 -11 -6 0 21 -36 35 -49
19z m80 -39 c-16 -16 -26 0 -10 19 9 11 15 12 17 4 2 -6 -1 -17 -7 -23z m-22
-34 c-19 -24 -43 -42 -48 -37 -6 6 41 53 53 53 5 1 2 -7 -5 -16z m54 10 c-7
-2 -19 -2 -25 0 -7 3 -2 5 12 5 14 0 19 -2 13 -5z m-24 -52 c-14 -4 -30 19
-22 33 3 5 12 1 20 -10 10 -13 10 -20 2 -23z"/>
<path d="M2377 1563 c-11 -10 -8 -41 4 -49 17 -10 32 12 24 35 -6 21 -16 26
-28 14z"/>
<path d="M1955 1506 c-13 -20 -26 -26 -54 -26 -20 0 -43 -5 -51 -11 -11 -8 0
-9 41 -6 41 4 63 1 78 -9 25 -18 28 -8 5 18 -14 14 -14 20 -4 33 7 9 10 18 7
21 -3 3 -13 -6 -22 -20z"/>
<path d="M1817 1486 c-4 -9 -29 -17 -67 -21 -76 -9 -69 -21 10 -17 34 2 60 -1
64 -7 4 -6 12 -11 18 -11 7 0 6 5 -2 15 -6 8 -9 23 -5 35 7 22 -10 28 -18 6z"/>
<path d="M1500 1460 c0 -15 21 -23 32 -12 6 6 2 11 -11 15 -12 3 -21 1 -21 -3z"/>
<path d="M1850 884 c0 -3 9 -19 20 -34 11 -16 16 -31 11 -34 -11 -7 -11 -55 0
-62 5 -3 7 -10 4 -15 -4 -5 -1 -9 5 -9 6 0 9 12 8 28 -2 19 1 26 11 24 19 -4
6 43 -22 79 -21 26 -37 36 -37 23z"/>
<path d="M971 903 c-6 -12 -11 -32 -10 -45 1 -18 3 -16 10 10 11 38 25 34 38
-11 9 -30 9 -31 10 -6 1 15 -7 37 -18 50 l-18 23 -12 -21z"/>
<path d="M982 850 c0 -14 2 -19 5 -12 2 6 2 18 0 25 -3 6 -5 1 -5 -13z"/>
<path d="M2196 655 c-2 -7 4 -15 17 -19 27 -7 28 -5 6 16 -14 13 -19 14 -23 3z"/>
<path d="M1130 1747 c-41 -10 -92 -22 -113 -26 -43 -10 -60 -21 -30 -21 24 0
213 47 221 55 13 12 -8 10 -78 -8z"/>
<path d="M365 1474 c-161 -85 -341 -256 -361 -340 -6 -27 -5 -27 13 6 19 36
39 62 106 136 43 48 190 156 255 187 23 12 42 25 42 29 0 11 1 11 -55 -18z"/>
<path d="M345 1337 c-60 -62 -150 -143 -200 -180 -77 -57 -94 -66 -120 -61
l-30 5 33 -20 c26 -17 32 -27 32 -55 0 -36 -21 -66 -46 -66 -8 0 -14 -10 -14
-25 l0 -26 22 21 c28 26 40 25 33 -2 -3 -13 -7 -39 -8 -60 -2 -24 -10 -42 -26
-55 -13 -11 -22 -26 -19 -33 3 -10 10 -7 26 10 12 13 24 21 27 18 3 -3 2 -31
-1 -63 -5 -44 -11 -59 -25 -62 -11 -3 -17 -9 -14 -13 3 -5 1 -11 -5 -15 -5 -3
-10 -13 -10 -21 0 -10 9 -5 24 13 27 31 44 27 26 -7 -9 -17 -9 -21 0 -15 9 6
9 3 1 -13 -8 -15 -8 -21 2 -25 7 -2 2 -9 -13 -17 -28 -15 -40 -29 -40 -49 0
-10 10 -6 28 12 l28 27 -1 -39 c0 -21 -2 -38 -5 -36 -3 2 -12 -4 -20 -13 -13
-14 -12 -15 3 -9 9 3 17 4 17 1 0 -10 -28 -34 -39 -34 -6 0 -11 -12 -10 -27 0
-17 3 -22 6 -13 6 15 33 39 44 40 4 0 3 -19 -1 -42 -5 -24 -6 -47 -3 -51 3 -5
-4 -11 -15 -14 -11 -2 -23 -15 -26 -26 -10 -37 -7 -39 19 -10 l24 28 1 -33 c0
-34 -13 -66 -37 -90 -7 -7 -13 -24 -13 -38 0 -23 1 -23 20 -7 22 19 27 38 8
27 -10 -5 -10 -4 -1 6 16 17 47 5 39 -16 -3 -9 -6 -23 -6 -32 0 -10 -14 -23
-31 -31 -20 -9 -27 -16 -19 -21 9 -5 9 -9 1 -14 -6 -4 -11 -21 -11 -38 0 -33
7 -35 13 -2 4 26 26 64 36 64 13 0 20 -53 10 -72 -7 -13 -6 -18 5 -18 18 0 24
26 15 69 -4 18 -5 48 -2 67 3 18 2 41 -2 51 -4 10 -7 50 -6 88 6 334 6 646 0
673 -4 18 -3 35 3 38 10 7 7 56 -7 87 -4 10 -3 17 4 17 20 0 174 124 261 210
73 72 139 150 128 150 -2 0 -52 -51 -113 -113z"/>
<path d="M2120 1228 c0 -17 3 -28 7 -25 9 10 10 57 1 57 -4 0 -8 -14 -8 -32z"/>
<path d="M2200 1190 c0 -45 4 -69 10 -65 6 3 10 33 10 65 0 32 -4 62 -10 65
-6 4 -10 -20 -10 -65z"/>
<path d="M841 818 c-22 -49 -21 -104 1 -128 10 -11 14 -20 8 -20 -5 0 -10 -6
-10 -13 0 -9 9 -12 29 -9 21 3 31 11 35 28 4 14 4 29 1 34 -9 15 -25 12 -25
-5 0 -22 -27 -19 -33 4 -2 10 2 36 9 57 25 72 13 115 -15 52z"/>
<path d="M790 765 c0 -8 7 -15 16 -15 14 0 14 3 4 15 -7 8 -14 15 -16 15 -2 0
-4 -7 -4 -15z"/>
<path d="M1030 746 c0 -8 -12 -24 -27 -36 -44 -35 -62 -80 -32 -80 6 0 7 5 4
10 -3 6 0 10 7 10 9 0 9 3 -2 10 -12 8 -10 10 9 10 13 0 22 3 19 6 -3 3 5 17
18 31 25 27 32 53 14 53 -5 0 -10 -6 -10 -14z"/>
<path d="M25 700 c-3 -5 -1 -10 4 -10 6 0 11 5 11 10 0 6 -2 10 -4 10 -3 0 -8
-4 -11 -10z"/>
<path d="M2992 660 c0 -19 2 -27 5 -17 2 9 2 25 0 35 -3 9 -5 1 -5 -18z"/>
<path d="M2119 453 c-1 -220 2 -447 7 -452 2 -2 4 131 4 297 0 166 -2 302 -5
302 -3 0 -5 -66 -6 -147z"/>
<path d="M930 407 c0 -104 4 -177 9 -177 11 0 9 336 -2 346 -4 4 -7 -72 -7
-169z"/>
<path d="M2993 535 c0 -27 2 -38 4 -22 2 15 2 37 0 50 -2 12 -4 0 -4 -28z"/>
<path d="M1410 530 c-117 -37 -143 -53 -230 -142 -52 -53 -109 -161 -116 -216
l-4 -37 13 40 c65 211 249 355 452 355 159 0 349 -105 414 -228 7 -13 15 -21
18 -19 10 10 -27 63 -79 115 -54 55 -178 123 -248 137 -74 15 -165 13 -220 -5z"/>
<path d="M2993 425 c0 -33 2 -45 4 -27 2 18 2 45 0 60 -2 15 -4 0 -4 -33z"/>
<path d="M2305 430 c4 -12 1 -28 -6 -36 -10 -12 -8 -19 11 -39 24 -25 25 -37
21 -214 -1 -58 -2 -62 -18 -50 -9 8 -31 37 -49 65 -40 62 -61 84 -80 84 -25 0
-27 -28 -5 -73 12 -24 21 -52 21 -63 0 -10 7 -32 15 -48 8 -15 15 -35 15 -42
0 -8 5 -14 11 -14 6 0 8 7 5 17 -4 9 -14 40 -22 67 -13 43 -24 69 -52 129 -2
4 3 7 10 7 16 0 58 -41 58 -56 0 -5 19 -31 42 -57 36 -43 42 -47 51 -31 23 41
21 279 -3 324 -6 12 -9 25 -5 28 10 10 65 -55 65 -77 0 -10 7 -35 15 -54 8
-20 15 -52 15 -72 0 -19 5 -35 10 -35 17 0 11 59 -11 111 -12 27 -18 53 -14
57 4 4 10 1 13 -7 2 -8 20 -31 38 -51 24 -26 34 -48 35 -71 1 -19 5 -45 10
-59 6 -18 7 -12 3 22 -8 69 26 61 41 -9 3 -18 11 -33 16 -33 12 0 12 17 -1 39
-6 12 -5 40 4 81 8 41 15 57 19 47 15 -41 26 -186 19 -249 -5 -38 -5 -68 -1
-68 24 0 15 308 -10 333 -18 18 -41 -13 -41 -54 0 -22 -4 -39 -9 -39 -5 0 -29
21 -53 47 -104 113 -157 163 -172 163 -13 0 -16 -5 -11 -20z m25 -61 c0 -6 -4
-7 -10 -4 -5 3 -10 11 -10 16 0 6 5 7 10 4 6 -3 10 -11 10 -16z"/>
<path d="M2988 273 c-3 -48 -1 -101 3 -118 4 -18 7 15 8 88 1 64 -1 117 -3
117 -2 0 -6 -39 -8 -87z"/>
<path d="M1466 238 c-35 -35 -75 -72 -91 -84 -22 -16 -29 -28 -29 -55 0 -38
21 -99 35 -99 4 0 1 16 -7 35 -24 57 -19 93 17 114 17 10 53 44 81 75 72 81
90 78 155 -21 68 -106 65 -101 79 -158 12 -50 12 -50 13 -12 1 42 -24 96 -91
197 -60 91 -80 92 -162 8z"/>
<path d="M1963 255 c22 -79 28 -113 31 -175 3 -80 16 -108 16 -34 -1 67 -26
204 -41 218 -8 8 -10 6 -6 -9z"/>
<path d="M1505 170 c3 -5 8 -10 11 -10 2 0 4 5 4 10 0 6 -5 10 -11 10 -5 0 -7
-4 -4 -10z"/>
<path d="M1575 170 c3 -5 8 -10 11 -10 2 0 4 5 4 10 0 6 -5 10 -11 10 -5 0 -7
-4 -4 -10z"/>
<path d="M936 133 c-8 -46 -6 -122 4 -128 6 -4 10 25 10 74 0 84 -5 101 -14
54z"/>
<path d="M2430 125 c0 -14 5 -25 10 -25 6 0 10 11 10 25 0 14 -4 25 -10 25 -5
0 -10 -11 -10 -25z"/>
<path d="M676 131 c-4 -7 -5 -15 -2 -18 9 -9 19 4 14 18 -4 11 -6 11 -12 0z"/>
<path d="M621 108 c-1 -16 4 -28 9 -28 12 0 12 8 0 35 -8 18 -9 17 -9 -7z"/>
<path d="M1045 89 c-4 -22 -3 -45 1 -49 5 -5 10 13 11 41 3 60 -3 63 -12 8z"/>
<path d="M1513 84 c-47 -46 -48 -46 -61 -25 -8 11 -18 21 -23 21 -5 0 -2 -11
7 -25 9 -14 22 -25 29 -25 7 0 34 20 61 45 71 67 81 60 24 -15 -36 -47 -43
-60 -32 -60 13 0 93 116 85 124 -16 16 -46 2 -90 -40z"/>
<path d="M2500 103 c0 -22 2 -25 10 -13 13 20 13 40 0 40 -5 0 -10 -12 -10
-27z"/>
<path d="M2558 106 c-3 -14 -2 -26 2 -26 13 0 21 33 12 42 -6 6 -11 -1 -14
-16z"/>
<path d="M2993 60 c0 -36 2 -50 4 -32 2 17 2 47 0 65 -2 17 -4 3 -4 -33z"/>
<path d="M570 71 c0 -12 5 -21 10 -21 6 0 10 6 10 14 0 8 -4 18 -10 21 -5 3
-10 -3 -10 -14z"/>
<path d="M1630 16 c0 -9 5 -16 10 -16 6 0 10 4 10 9 0 6 -4 13 -10 16 -5 3
-10 -1 -10 -9z"/>
<path d="M2207 23 c-4 -3 -7 -11 -7 -17 0 -6 5 -5 12 2 6 6 9 14 7 17 -3 3 -9
2 -12 -2z"/>
<path d="M406 12 c-3 -5 1 -9 9 -9 8 0 15 4 15 9 0 4 -4 8 -9 8 -6 0 -12 -4
-15 -8z"/>
<path d="M1045 10 c3 -5 8 -10 11 -10 2 0 4 5 4 10 0 6 -5 10 -11 10 -5 0 -7
-4 -4 -10z"/>
</g>
</svg>
