<?xml version="1.0" standalone="no"?>
<!DOCTYPE svg PUBLIC "-//W3C//DTD SVG 20010904//EN"
 "http://www.w3.org/TR/2001/REC-SVG-20010904/DTD/svg10.dtd">
<svg version="1.0" xmlns="http://www.w3.org/2000/svg"
 width="300.000000pt" height="375.000000pt" viewBox="0 0 300.000000 375.000000"
 preserveAspectRatio="xMidYMid meet">
<metadata>
Created by potrace 1.10, written by Peter Selinger 2001-2011
</metadata>
<g transform="translate(0.000000,375.000000) scale(0.100000,-0.100000)"
fill="#000000" stroke="none">
<path d="M674 3546 c-4 -9 8 -33 28 -58 40 -50 71 -137 55 -156 -7 -9 -4 -21
11 -41 17 -23 18 -31 8 -42 -19 -20 -35 -74 -27 -88 4 -6 15 -9 24 -6 12 5 14
2 10 -14 -3 -12 0 -28 7 -36 11 -14 15 -14 31 1 18 16 19 16 19 -8 0 -13 3
-28 7 -31 9 -10 33 13 33 31 0 13 -3 12 -16 -4 -15 -18 -15 -17 -10 19 5 41
-3 47 -22 17 -22 -35 -35 -24 -30 25 6 49 2 55 -18 28 -21 -29 -26 -8 -8 36 9
22 22 41 30 41 8 0 14 5 14 10 0 6 -7 10 -15 10 -8 0 -19 9 -25 19 -13 25 -13
34 0 26 14 -9 13 8 -2 23 -9 9 -9 12 -1 12 7 0 15 -4 18 -10 3 -5 11 -10 18
-10 6 0 -3 15 -21 33 -32 33 -45 60 -17 37 33 -28 11 8 -35 58 -28 29 -50 57
-50 63 0 5 24 -8 53 -29 64 -49 97 -66 105 -56 4 4 1 9 -6 12 -8 2 -44 24 -80
49 -37 25 -70 47 -75 50 -4 2 -10 -3 -13 -11z"/>
<path d="M973 3495 c-13 -19 -23 -43 -23 -52 0 -12 5 -8 16 12 8 17 21 36 29
44 12 12 15 9 20 -21 4 -19 4 -65 1 -102 -3 -39 -1 -66 4 -66 6 0 10 7 10 15
0 8 5 15 10 15 6 0 10 -9 10 -20 0 -11 5 -20 10 -20 6 0 10 5 10 10 0 6 5 10
10 10 6 0 10 -30 10 -70 0 -40 4 -70 10 -70 6 0 10 -5 10 -11 0 -6 -9 -8 -20
-4 -13 4 -20 2 -20 -7 0 -17 -82 -23 -110 -8 -12 6 -20 21 -20 36 0 33 -16 23
-23 -16 -5 -21 -11 -28 -22 -24 -10 4 -15 0 -15 -10 0 -21 18 -20 42 0 15 14
20 15 33 4 9 -7 45 -14 81 -15 53 -2 62 0 53 11 -18 22 6 16 26 -6 10 -11 22
-20 27 -20 12 0 0 40 -18 61 -8 9 -14 37 -14 67 0 64 -15 106 -35 98 -9 -3
-15 0 -15 9 0 8 -7 15 -16 15 -13 0 -14 9 -9 53 7 59 -5 111 -26 115 -8 1 -24
-14 -36 -33z"/>
<path d="M943 3488 c-19 -24 -44 -80 -39 -86 3 -3 7 -3 9 -1 1 2 12 24 25 48
22 44 24 64 5 39z"/>
<path d="M870 3471 c0 -5 -3 -18 -6 -28 -6 -16 -5 -16 9 2 12 14 16 16 17 6 0
-11 3 -12 11 -4 6 6 8 16 5 22 -9 13 -36 15 -36 2z"/>
<path d="M2550 3434 c-28 -24 -90 -105 -90 -118 0 -17 18 -1 43 39 29 46 83
92 94 81 4 -3 -3 -20 -15 -36 -24 -31 -28 -45 -12 -35 6 3 10 2 10 -4 0 -5 -6
-12 -12 -15 -10 -5 -10 -7 0 -12 9 -4 0 -14 -27 -31 -23 -13 -41 -28 -41 -34
0 -14 8 -11 43 15 47 35 136 78 155 74 12 -2 6 -13 -24 -44 -21 -22 -52 -50
-69 -62 l-30 -22 30 6 30 6 -25 -22 -25 -22 27 6 c22 5 26 3 22 -9 -4 -8 -10
-15 -15 -15 -5 0 -9 -4 -9 -10 0 -5 7 -10 15 -10 22 0 18 -21 -4 -27 -18 -5
-18 -7 -4 -41 11 -27 12 -41 5 -53 -8 -13 -7 -19 3 -23 9 -3 15 -18 15 -36 0
-16 4 -30 10 -30 16 0 23 -46 10 -69 -7 -14 -7 -21 0 -21 6 0 15 11 21 24 9
18 6 33 -11 70 -31 69 -44 155 -25 176 8 9 11 21 6 29 -5 7 -7 27 -6 45 2 17
-1 36 -6 42 -6 8 3 20 26 38 36 28 69 79 58 90 -13 12 -49 5 -90 -18 l-43 -25
2 27 c1 15 8 37 16 49 16 26 10 53 -12 53 -8 0 -28 -12 -46 -26z"/>
<path d="M2345 3310 c-22 -11 -54 -20 -71 -20 -39 0 -84 -16 -84 -29 0 -5 18
-12 40 -16 46 -8 56 -30 10 -23 -20 3 -30 0 -30 -8 0 -16 39 -44 62 -44 10 0
18 -6 18 -13 0 -7 9 -20 20 -30 12 -10 20 -29 20 -47 0 -20 5 -30 15 -30 11 0
15 -11 15 -35 0 -22 6 -38 14 -41 8 -3 13 -11 10 -18 -7 -19 14 -68 28 -64 17
6 23 29 6 26 -10 -2 -13 11 -13 50 1 46 -1 51 -12 36 -20 -27 -25 -11 -13 41
12 53 8 68 -10 36 -6 -12 -15 -19 -21 -16 -6 4 -5 13 1 25 14 25 13 30 -6 30
-11 0 -15 6 -11 20 3 11 1 23 -4 26 -5 3 -9 0 -9 -5 0 -6 -4 -11 -10 -11 -5 0
-10 9 -10 20 0 16 -7 20 -30 20 -35 0 -41 17 -7 22 34 5 26 30 -13 44 l-35 12
47 1 c29 1 61 9 80 21 39 24 67 25 94 5 22 -17 34 -19 34 -5 0 11 -52 40 -72
40 -8 0 -31 -9 -53 -20z"/>
<path d="M1000 3190 c0 -5 5 -10 10 -10 6 0 10 5 10 10 0 6 -4 10 -10 10 -5 0
-10 -4 -10 -10z"/>
<path d="M2381 3184 c0 -11 3 -14 6 -6 3 7 2 16 -1 19 -3 4 -6 -2 -5 -13z"/>
<path d="M1810 3058 c-5 -13 -16 -57 -25 -98 -34 -160 -43 -177 -60 -117 -8
24 -16 32 -32 31 -15 0 -24 7 -28 23 -4 16 -13 23 -30 23 -13 0 -27 -5 -30
-11 -9 -13 -42 16 -62 55 -10 19 -18 25 -25 18 -7 -7 -4 -17 11 -33 23 -25 26
-35 11 -44 -5 -3 -10 -19 -10 -35 0 -29 -14 -48 -24 -31 -10 16 -36 124 -31
129 3 3 12 -12 21 -34 9 -21 19 -34 21 -27 7 18 -27 83 -43 83 -22 0 -17 -56
11 -135 14 -38 25 -71 25 -72 0 -1 -7 0 -16 4 -20 8 -44 -21 -44 -53 0 -13 10
-31 23 -41 22 -16 22 -19 10 -45 -16 -32 -14 -80 4 -86 9 -2 11 5 7 27 -4 17
-1 45 6 61 12 28 11 33 -9 47 -31 21 -26 79 7 76 17 -2 22 2 22 22 0 14 6 25
13 25 9 0 12 9 10 28 -3 15 2 36 10 47 15 19 16 19 28 -8 14 -31 29 -36 29 -8
0 11 5 23 10 26 16 10 40 -15 40 -41 0 -13 5 -24 10 -24 6 0 10 7 10 15 0 30
19 14 31 -25 8 -27 18 -40 30 -40 20 0 23 9 59 168 13 56 28 98 32 94 16 -16
11 -164 -6 -211 -9 -24 -14 -46 -11 -49 10 -10 18 7 32 70 14 62 27 88 44 88
10 0 2 -61 -17 -124 -8 -26 -13 -51 -10 -53 5 -5 17 20 30 60 3 9 10 17 16 17
14 0 12 -30 -5 -60 -19 -33 -20 -62 -1 -37 7 9 16 17 18 17 8 0 4 -57 -5 -66
-10 -10 -9 -24 1 -24 26 0 34 85 10 101 -5 3 -4 18 2 34 13 33 6 59 -14 52
-10 -4 -12 4 -8 38 2 24 2 52 -2 61 -6 15 -8 15 -26 -1 -20 -18 -20 -17 -20
23 0 43 -17 92 -32 92 -5 0 -13 -10 -18 -22z"/>
<path d="M1577 2956 c-3 -8 2 -16 14 -19 21 -6 22 -5 13 17 -8 20 -20 21 -27
2z"/>
<path d="M2440 2895 c0 -8 8 -23 18 -33 9 -10 25 -35 36 -54 12 -24 23 -35 33
-31 12 5 9 11 -11 30 -29 27 -36 59 -10 49 9 -3 24 -6 35 -6 10 0 19 -7 19
-15 0 -8 6 -25 13 -38 6 -12 13 -24 14 -25 1 -2 9 0 17 5 14 8 13 12 -9 33
-30 28 -32 44 -5 35 28 -9 25 9 -3 22 -14 7 -29 7 -39 2 -11 -6 -22 -4 -33 8
-13 13 -18 14 -25 3 -9 -15 -30 -5 -30 16 0 8 -4 14 -10 14 -5 0 -10 -7 -10
-15z"/>
<path d="M2700 2874 c0 -4 17 -28 38 -53 52 -62 62 -82 24 -47 -18 16 -35 27
-38 23 -4 -4 -13 1 -21 11 -13 15 -13 15 -8 -8 5 -22 2 -21 -30 14 -19 22 -38
37 -41 34 -3 -4 11 -24 31 -47 30 -33 41 -39 64 -35 19 4 32 0 45 -15 11 -12
23 -21 28 -21 19 0 5 39 -33 90 -39 53 -59 71 -59 54z"/>
<path d="M326 2734 c-3 -9 -6 -35 -6 -60 0 -34 -3 -42 -15 -38 -25 10 -36 -39
-24 -99 13 -58 59 -156 83 -176 22 -18 20 -5 -3 28 -50 70 -86 226 -51 226 8
0 24 -25 38 -62 25 -63 75 -133 86 -122 4 4 -4 20 -18 36 -43 51 -76 139 -76
204 0 33 4 59 10 59 6 0 10 -6 10 -12 0 -55 143 -266 181 -268 4 0 17 31 29
70 26 81 42 106 59 95 9 -5 11 -21 6 -51 -3 -24 -4 -44 -2 -44 3 0 14 16 26
35 25 43 40 44 48 5 4 -24 8 -28 19 -19 24 20 44 3 38 -31 -5 -25 -3 -30 12
-30 16 0 15 -2 -5 -13 -37 -18 -37 -36 -2 -43 25 -5 29 -9 20 -20 -6 -8 -18
-14 -25 -14 -14 0 -19 -17 -16 -52 1 -10 -3 -18 -9 -18 -5 0 -7 -5 -4 -11 4
-6 -1 -17 -11 -25 -18 -15 -18 -15 3 -11 27 6 50 -17 35 -35 -12 -15 2 -31 31
-36 17 -3 17 0 -2 37 -12 22 -25 42 -30 46 -7 4 -7 15 -1 31 6 14 8 30 4 35
-3 5 9 21 25 35 35 29 33 44 -5 44 -16 0 -24 5 -21 13 2 6 16 11 31 10 23 -2
25 1 16 18 -6 10 -15 19 -20 19 -6 0 -10 13 -10 29 0 33 -20 54 -44 45 -10 -4
-16 -1 -16 9 0 23 -28 43 -42 29 -17 -17 -28 -15 -28 7 0 20 -17 31 -38 23
-14 -4 -72 -117 -72 -139 0 -55 -116 92 -148 186 -8 25 -19 52 -25 59 -13 17
-34 15 -41 -4z"/>
<path d="M1590 2699 c0 -5 5 -7 10 -4 6 3 10 8 10 11 0 2 -4 4 -10 4 -5 0 -10
-5 -10 -11z"/>
<path d="M1516 2628 c-25 -35 -19 -46 7 -14 29 35 48 19 23 -20 -20 -29 -5
-40 34 -26 21 8 26 5 40 -22 11 -22 22 -31 40 -31 14 0 29 -6 33 -12 4 -7 17
-13 27 -13 19 0 26 -12 20 -35 -6 -25 -5 -77 2 -81 4 -3 8 0 8 6 0 6 5 8 12 4
8 -5 9 -2 4 12 -18 43 -17 53 3 66 26 16 28 31 2 23 -12 -3 -21 0 -25 10 -3 8
-15 15 -26 15 -13 0 -20 7 -20 20 0 11 -4 20 -10 20 -5 0 -10 -7 -10 -15 0 -8
-6 -15 -14 -15 -16 0 -50 66 -41 80 9 15 -7 12 -29 -5 -29 -22 -32 -19 -28 20
4 30 1 35 -16 35 -12 0 -28 -10 -36 -22z"/>
<path d="M1990 2641 c0 -15 38 -29 130 -49 101 -21 115 -36 25 -28 -38 4 -78
10 -87 12 -10 3 -18 1 -18 -5 0 -6 11 -11 25 -11 14 0 25 -4 25 -10 0 -5 -16
-10 -35 -10 -35 0 -47 -13 -22 -24 6 -3 -9 -4 -35 -2 -37 3 -47 0 -51 -14 -3
-13 -13 -16 -38 -13 -19 2 -43 4 -54 5 -11 1 -25 9 -32 17 -6 9 -15 13 -19 9
-4 -4 -1 -14 6 -23 9 -11 9 -19 2 -28 -7 -7 -7 -25 -2 -47 4 -19 8 -29 9 -21
1 11 4 11 16 1 20 -17 19 -1 -1 21 -10 11 -13 25 -9 38 6 18 12 20 70 14 54
-5 66 -3 71 11 4 11 19 16 50 16 24 0 44 4 44 9 0 5 11 12 25 15 14 4 25 11
25 17 0 6 18 7 48 3 36 -4 51 -2 60 9 18 21 1 31 -103 59 -49 14 -98 28 -107
33 -11 4 -18 3 -18 -4z"/>
<path d="M230 2495 c0 -20 7 -52 15 -71 11 -28 12 -39 3 -54 -16 -26 12 -85
51 -108 26 -14 27 -18 13 -28 -15 -11 -14 -15 12 -43 16 -17 38 -33 48 -36 11
-4 17 -14 15 -28 -2 -17 3 -22 20 -20 l23 3 -26 -58 c-39 -85 -45 -112 -30
-118 10 -4 12 -22 9 -70 -4 -72 7 -82 36 -31 11 17 28 41 39 52 26 27 95 155
88 162 -8 9 -9 7 -50 -74 -20 -40 -38 -73 -41 -73 -2 0 -2 7 1 15 4 8 4 15 1
15 -3 0 -17 -25 -31 -57 -30 -64 -44 -67 -22 -5 10 27 11 42 4 42 -5 0 -7 7
-4 15 19 46 19 50 5 38 -36 -34 -29 7 15 94 32 65 32 73 1 67 -14 -2 -25 0
-25 6 0 5 5 10 10 10 6 0 10 5 10 10 0 6 -9 10 -19 10 -20 0 -81 45 -81 61 0
4 7 5 17 2 10 -4 14 -2 10 4 -4 6 3 8 20 5 18 -3 24 -1 19 7 -4 6 -15 11 -23
11 -44 0 -120 81 -107 114 5 14 13 9 41 -24 19 -22 41 -40 49 -40 10 0 2 12
-19 33 -38 36 -87 125 -87 158 0 17 5 20 21 16 16 -4 18 -3 8 9 -21 26 -39 16
-39 -21z"/>
<path d="M685 2441 c-3 -5 -1 -12 5 -16 5 -3 10 1 10 9 0 18 -6 21 -15 7z"/>
<path d="M2443 2384 c-3 -9 3 -37 14 -63 17 -42 18 -50 5 -69 -10 -16 -21 -20
-41 -16 -18 4 -32 0 -40 -10 -11 -13 -9 -23 12 -58 13 -24 27 -55 30 -69 4
-14 25 -42 47 -63 22 -20 40 -41 40 -46 0 -12 29 -40 41 -40 6 0 7 9 4 20 -4
11 -2 20 4 20 6 0 11 -4 11 -10 0 -5 5 -10 10 -10 6 0 10 8 10 18 0 10 16 33
35 52 26 25 33 39 29 56 -6 22 -4 23 27 14 19 -6 35 -10 35 -10 1 0 4 7 7 14
5 12 -1 14 -29 10 -31 -4 -35 -2 -29 15 3 11 1 22 -4 25 -6 4 -8 13 -4 21 6
18 44 20 62 3 11 -11 13 -10 8 4 -3 10 -2 20 3 23 6 4 10 11 10 18 0 8 -3 8
-12 -1 -7 -7 -25 -12 -41 -12 -25 0 -28 3 -24 21 8 32 -9 69 -33 69 -11 0 -20
5 -20 11 0 7 -9 9 -23 5 -14 -3 -33 1 -45 10 -12 8 -22 12 -22 7 0 -4 -9 7
-20 25 -21 35 -47 42 -57 16z m63 -61 c16 -38 28 -44 19 -10 -6 21 -5 21 8 4
11 -13 16 -15 20 -5 3 8 10 1 17 -17 l13 -30 7 25 c7 23 11 23 14 1 2 -18 16
-24 16 -7 0 10 6 16 13 14 7 -3 13 -25 14 -54 1 -40 -3 -52 -20 -66 l-22 -18
23 0 c28 0 30 -30 2 -37 -11 -3 -20 -10 -20 -15 0 -6 7 -7 16 -4 14 5 15 4 4
-9 -8 -10 -9 -15 -1 -15 20 0 12 -14 -19 -35 -16 -11 -30 -27 -30 -35 0 -11
-3 -11 -12 -2 -10 10 -15 7 -24 -10 -12 -22 -13 -22 -20 -3 -4 11 -25 37 -48
58 -26 24 -36 40 -29 43 9 4 1 20 -22 51 -19 25 -35 52 -35 59 0 21 37 17 61
-7 11 -11 23 -18 27 -15 3 4 0 12 -6 18 -7 7 -12 17 -12 22 0 6 5 5 12 -2 7
-7 17 -12 22 -12 6 0 5 5 -2 12 -15 15 -16 32 -2 23 15 -9 12 8 -10 60 -11 26
-20 56 -20 68 1 22 1 22 16 2 9 -11 22 -35 30 -52z"/>
<path d="M2530 2060 c0 -5 7 -10 16 -10 8 0 12 5 9 10 -3 6 -10 10 -16 10 -5
0 -9 -4 -9 -10z"/>
<path d="M708 2235 c-10 -13 -18 -31 -18 -39 0 -11 -10 -16 -27 -17 -27 0 -27
-1 -6 -11 28 -13 40 -47 22 -59 -12 -8 -12 -11 1 -18 9 -7 17 -6 21 1 4 7 8 5
11 -3 3 -8 9 -11 13 -7 5 5 1 16 -7 25 -31 37 -28 82 9 121 7 8 11 18 8 23 -8
12 -7 12 -27 -16z"/>
<path d="M1202 1953 c-16 -21 -44 -60 -61 -87 -26 -42 -31 -46 -31 -25 0 29
-9 43 -32 52 -9 3 -18 16 -20 29 -2 18 -9 22 -28 20 -38 -4 -54 -26 -54 -79
-1 -27 -8 -56 -16 -66 -14 -16 -15 -16 -22 4 -16 42 -36 3 -42 -79 -2 -42 -8
-96 -11 -120 -12 -73 20 -87 77 -34 25 23 28 23 49 8 14 -9 32 -13 47 -9 29 7
42 -9 42 -54 0 -18 5 -33 11 -33 6 0 9 7 6 14 -4 10 -1 13 9 9 19 -7 18 11 -1
27 -26 22 -18 45 16 46 24 1 41 12 68 41 20 22 53 50 74 63 46 27 49 63 5 68
-25 3 -26 5 -15 29 9 21 8 27 -7 38 -14 11 -16 17 -6 35 9 16 9 25 -1 36 -9
11 -9 21 1 44 27 65 -12 80 -58 23z m48 7 c0 -6 -7 -27 -15 -47 -8 -19 -15
-38 -15 -40 0 -3 7 -3 15 1 18 7 18 -2 0 -34 -18 -32 -19 -44 0 -37 22 9 28
-11 11 -38 -22 -33 -20 -37 12 -31 15 3 34 1 42 -4 13 -9 12 -13 -8 -28 -12
-9 -49 -28 -82 -40 -33 -13 -60 -28 -60 -33 0 -13 7 -11 35 7 28 19 33 11 8
-14 -25 -26 -62 -42 -69 -31 -4 7 -10 7 -18 0 -15 -13 -89 -7 -94 8 -6 18 -30
13 -42 -9 -6 -11 -15 -18 -19 -15 -5 2 -14 -2 -21 -10 -9 -11 -16 -12 -25 -5
-10 8 -10 20 -2 48 5 20 12 71 14 112 4 68 6 73 18 51 l13 -24 6 21 c4 12 14
22 22 22 10 0 14 14 14 53 0 56 11 84 29 73 6 -4 11 -2 11 3 0 6 5 11 10 11 6
0 10 -14 10 -30 0 -24 4 -30 18 -28 14 2 18 -6 20 -44 2 -27 6 -48 10 -48 4 0
35 43 70 95 56 86 82 113 82 85z"/>
<path d="M970 1670 c0 -5 5 -10 11 -10 5 0 7 5 4 10 -3 6 -8 10 -11 10 -2 0
-4 -4 -4 -10z"/>
<path d="M926 1601 c-9 -9 -16 -24 -16 -32 0 -8 7 -4 16 10 13 18 18 20 25 10
7 -11 9 -10 9 3 0 25 -15 30 -34 9z"/>
<path d="M1770 1940 c6 -11 8 -25 5 -30 -3 -6 1 -10 10 -10 11 0 15 5 11 15
-7 20 3 19 28 -4 12 -10 46 -26 77 -35 58 -16 100 -48 79 -61 -8 -5 -1 -14 19
-26 34 -21 40 -36 14 -41 -15 -3 -15 -5 -2 -18 30 -30 51 -70 45 -86 -3 -9 3
-27 14 -41 11 -14 20 -36 20 -50 0 -13 13 -47 29 -76 16 -28 36 -76 45 -106
19 -64 18 -61 7 -61 -5 0 -15 16 -22 35 -13 35 -44 52 -33 18 5 -15 4 -16 -5
-3 -6 8 -11 20 -11 27 0 7 -11 24 -25 38 -13 15 -31 46 -40 69 -15 38 -20 42
-51 43 -19 1 -34 -4 -34 -10 -1 -7 -8 -3 -18 9 -10 11 -23 19 -29 17 -7 -3
-17 14 -24 36 -11 38 -14 40 -29 26 -16 -14 -18 -14 -24 0 -3 9 -6 37 -6 61 0
26 -5 44 -11 44 -8 0 -10 15 -7 45 3 25 2 45 -3 45 -5 0 -9 -5 -9 -12 0 -6 -3
-9 -6 -6 -3 4 -1 22 4 41 8 30 7 38 -9 53 -10 9 -18 19 -17 23 2 12 -14 41
-23 41 -17 0 -9 -28 15 -57 20 -24 24 -36 19 -71 -3 -24 -2 -42 4 -42 5 0 10
-15 10 -32 2 -46 17 -130 27 -146 5 -8 16 -12 26 -9 13 3 22 -6 35 -35 11 -25
22 -37 30 -34 21 8 38 -20 31 -50 -5 -17 -3 -23 4 -19 5 3 10 -1 10 -9 0 -9 5
-16 11 -16 7 0 8 7 4 18 -15 32 -11 66 8 70 13 3 17 -4 18 -30 1 -18 0 -37 -1
-43 -1 -5 2 -7 6 -3 4 4 13 3 20 -2 9 -8 9 -2 -1 27 -7 21 -11 40 -9 42 6 6 8
3 37 -59 36 -75 60 -113 75 -118 7 -2 12 2 12 10 1 7 7 -2 15 -19 18 -43 45
-44 45 -3 0 33 -55 186 -71 195 -5 4 -9 19 -9 34 0 15 -7 36 -15 47 -8 10 -15
31 -15 45 0 14 -11 40 -24 57 -15 20 -22 41 -19 56 4 17 -1 28 -16 38 -12 7
-21 22 -21 33 0 25 -50 60 -108 75 -23 6 -59 22 -79 35 -44 30 -57 32 -43 5z"/>
<path d="M1856 1791 c-4 -5 -2 -12 3 -15 5 -4 12 -2 15 3 4 5 2 12 -3 15 -5 4
-12 2 -15 -3z"/>
<path d="M1233 1620 c4 -14 7 -33 7 -42 0 -10 5 -18 11 -18 6 0 9 7 6 14 -4
11 -1 13 11 9 12 -5 10 2 -8 23 -14 16 -27 31 -29 34 -2 3 -1 -6 2 -20z"/>
<path d="M275 1360 c-3 -5 -1 -10 4 -10 6 0 11 5 11 10 0 6 -2 10 -4 10 -3 0
-8 -4 -11 -10z"/>
<path d="M2440 1248 c-11 -18 -24 -56 -30 -85 -11 -51 -24 -67 -33 -40 -3 9
-8 8 -22 -3 -24 -20 -45 -72 -45 -112 0 -28 -6 -36 -37 -53 -48 -26 -56 -47
-14 -39 30 6 45 -9 19 -19 -20 -8 12 -27 45 -27 15 0 27 -4 27 -9 0 -17 67
-33 88 -22 28 15 31 6 15 -41 -15 -45 -14 -51 10 -42 11 4 15 14 12 28 -7 29
4 42 41 48 l31 4 -13 -33 c-8 -18 -14 -40 -14 -50 1 -17 1 -17 11 1 9 15 13
16 21 5 6 -9 7 -3 3 19 -10 48 6 62 55 49 32 -9 43 -8 55 3 12 13 8 15 -33 16
-222 4 -252 7 -268 25 -10 11 -27 19 -39 19 -15 0 -22 6 -21 17 0 10 -9 19
-24 23 -24 6 -24 7 13 20 35 13 37 16 37 58 0 23 8 57 17 75 16 31 17 31 22 9
l6 -24 20 22 c37 41 76 64 85 50 5 -8 21 -2 57 24 56 40 68 44 59 20 -4 -12
-2 -15 9 -10 18 6 20 -5 3 -22 -6 -6 -9 -15 -5 -19 4 -4 13 -1 19 5 16 16 48
15 48 -1 0 -7 -7 -23 -16 -35 -18 -26 -12 -41 9 -24 26 22 26 -1 0 -35 -32
-41 -25 -55 8 -16 21 25 68 53 87 53 4 0 -9 -14 -28 -31 -28 -24 -31 -29 -12
-24 25 7 29 -7 7 -25 -8 -7 -15 -16 -15 -21 0 -5 7 -9 15 -9 25 0 17 -18 -15
-35 -30 -16 -43 -39 -15 -29 8 4 15 2 15 -4 0 -6 -13 -13 -30 -17 -16 -4 -30
-11 -30 -16 0 -12 5 -12 46 6 26 11 34 19 30 31 -4 10 3 23 16 34 19 15 20 20
9 33 -9 12 -10 21 -1 37 6 11 8 25 5 30 -4 6 1 17 9 26 34 33 1 48 -42 18 -20
-14 -22 -14 -22 0 0 9 -8 16 -17 16 -13 0 -14 3 -5 12 7 7 12 20 12 30 0 17
-4 20 -32 22 -7 1 -23 12 -35 25 -18 19 -28 22 -50 16 -15 -5 -35 -7 -43 -6
-14 2 -49 39 -48 51 3 40 -17 39 -42 -2z m21 -37 c-18 -32 -12 -38 10 -11 12
15 19 19 18 10 -4 -36 0 -43 16 -30 9 7 18 10 22 6 10 -10 -5 -20 -36 -22 -15
-1 -38 -7 -51 -14 -21 -11 -22 -10 -17 12 13 49 41 103 44 86 3 -9 -1 -26 -6
-37z"/>
<path d="M1444 1195 c-10 -8 -33 -15 -50 -15 -16 0 -39 -8 -50 -18 -11 -10
-32 -22 -47 -26 -20 -5 -29 -15 -34 -36 -3 -19 -12 -30 -23 -30 -34 0 -81 -22
-76 -36 3 -8 -4 -19 -15 -25 -13 -6 -18 -16 -15 -26 4 -9 1 -22 -6 -30 -9 -11
-9 -16 3 -24 19 -12 20 -12 49 12 16 13 19 19 8 15 -10 -3 -26 -9 -35 -12 -10
-3 -2 8 17 25 21 19 28 31 19 31 -8 0 -21 -6 -28 -12 -11 -11 -13 -10 -9 2 2
8 21 19 41 24 20 5 37 13 37 18 0 5 -12 5 -26 2 -19 -5 -25 -4 -20 5 4 6 17
11 29 11 44 0 67 12 67 34 0 28 18 46 46 46 12 0 24 7 28 15 3 9 18 15 39 15
19 0 40 7 47 15 7 9 19 14 26 11 7 -3 18 2 24 10 10 11 9 14 -7 14 -10 0 -28
-7 -39 -15z"/>
<path d="M1471 1158 l-34 -33 17 30 17 30 -25 -28 c-47 -51 -23 -67 27 -19
l30 27 -7 -25 c-13 -45 -27 -104 -33 -137 -3 -17 -13 -40 -22 -50 -9 -10 -20
-26 -24 -35 -3 -10 -16 -18 -27 -18 -11 0 -20 -6 -20 -14 0 -7 -10 -25 -21
-40 -12 -15 -19 -29 -17 -31 5 -5 11 1 78 73 22 24 44 41 50 37 15 -9 12 -26
-7 -47 -15 -17 -15 -18 10 -16 15 1 27 8 27 16 0 7 5 10 10 7 20 -12 9 10 -16
34 -16 15 -23 30 -18 40 11 28 54 204 54 223 0 15 -16 7 -49 -24z"/>
<path d="M623 1138 c-19 -21 -53 -80 -53 -93 0 -18 18 0 28 29 7 19 20 40 29
48 15 11 16 11 8 -7 -15 -37 -17 -73 -4 -80 7 -5 28 -8 47 -7 36 2 34 -13 -3
-20 -14 -2 -21 -14 -26 -40 -3 -20 -12 -44 -19 -53 -11 -14 -11 -18 -1 -25 10
-5 11 -18 7 -41 -4 -19 -7 -47 -7 -63 0 -15 -6 -41 -14 -57 -8 -15 -15 -36
-15 -46 0 -9 -15 -33 -32 -52 l-33 -35 29 18 29 18 -5 -31 c-2 -17 -1 -31 4
-31 4 0 8 6 8 13 0 8 3 7 10 -3 5 -8 12 -11 16 -7 4 4 -1 16 -10 26 -14 15
-16 27 -10 53 4 18 7 36 6 41 -1 4 3 7 8 7 14 0 31 -46 24 -65 -4 -8 -1 -15 5
-15 6 0 11 8 12 18 0 10 3 12 6 4 2 -6 9 -10 14 -6 5 3 -5 22 -22 44 -25 31
-29 42 -20 58 6 11 11 32 11 48 1 54 7 119 15 160 6 34 13 44 41 57 45 22 43
37 -5 37 -67 0 -71 4 -55 57 21 71 15 82 -23 41z"/>
<path d="M1395 1080 c-3 -5 -1 -10 4 -10 6 0 11 5 11 10 0 6 -2 10 -4 10 -3 0
-8 -4 -11 -10z"/>
<path d="M482 1047 c-12 -13 -22 -33 -22 -45 0 -11 -11 -38 -25 -58 -14 -20
-25 -47 -25 -59 0 -16 -9 -26 -32 -36 -35 -14 -98 -66 -98 -80 0 -5 9 -9 20
-9 21 0 27 -15 10 -25 -6 -3 -10 -13 -10 -21 0 -11 6 -13 21 -9 19 6 20 5 9
-15 -20 -37 -7 -38 61 -2 4 1 4 -9 1 -24 -3 -17 0 -31 10 -38 25 -18 30 -63
13 -118 -31 -106 -10 -131 36 -41 15 28 43 66 63 83 20 18 34 35 31 38 -3 3
-16 -5 -29 -17 -15 -14 -25 -18 -28 -11 -3 10 -23 -24 -56 -100 l-11 -25 0 25
c-1 14 8 50 19 80 24 66 24 64 4 56 -13 -5 -15 -1 -12 24 4 26 2 29 -14 24
-16 -5 -18 -2 -12 23 7 31 29 53 54 53 9 0 31 16 50 35 24 24 29 35 18 35 -9
0 -23 -12 -33 -26 -9 -14 -23 -23 -30 -20 -7 2 -19 -2 -25 -10 -7 -8 -17 -14
-22 -14 -6 0 -23 -9 -40 -21 -37 -27 -44 -20 -16 16 18 23 19 28 5 22 -9 -4
-24 -10 -32 -13 -26 -11 -16 15 15 38 40 29 38 40 -5 22 -19 -7 -37 -14 -41
-14 -16 0 25 35 73 62 44 25 53 34 53 58 0 16 11 42 26 59 14 17 22 35 19 41
-13 21 24 60 56 60 18 0 28 4 24 10 -11 18 -51 11 -73 -13z"/>
<path d="M1490 1010 c0 -5 5 -12 10 -15 6 -3 11 -18 11 -33 1 -20 3 -22 6 -8
4 15 7 16 14 5 8 -12 11 -12 19 1 15 22 12 30 -10 30 -11 0 -20 4 -20 9 0 5
-7 11 -15 15 -8 3 -15 1 -15 -4z"/>
<path d="M565 950 c3 -5 8 -10 11 -10 2 0 4 5 4 10 0 6 -5 10 -11 10 -5 0 -7
-4 -4 -10z"/>
<path d="M2391 934 c0 -11 3 -14 6 -6 3 7 2 16 -1 19 -3 4 -6 -2 -5 -13z"/>
<path d="M1185 919 c-4 -5 -18 -9 -30 -7 -13 2 -23 -1 -22 -7 2 -10 13 -12 69
-14 25 -1 26 -3 17 -33 -12 -42 -11 -159 1 -178 13 -21 25 -5 39 54 8 33 9 52
2 59 -7 7 -12 -7 -17 -42 -4 -28 -11 -54 -17 -58 -14 -8 -2 159 13 187 13 24
3 47 -13 31 -16 -16 -27 -13 -21 4 7 17 -11 21 -21 4z"/>
<path d="M1305 808 c-6 -19 -8 -20 -12 -5 -5 18 -23 24 -23 8 0 -43 36 -55 46
-16 8 33 -1 43 -11 13z"/>
<path d="M1994 570 c-11 -4 -49 -26 -84 -49 -48 -31 -66 -38 -76 -30 -8 6 -28
9 -46 5 -18 -3 -39 -2 -47 3 -8 5 -27 5 -44 0 -20 -6 -35 -5 -44 2 -16 14 -57
4 -102 -24 -19 -11 -45 -22 -58 -23 -14 -2 -37 -11 -51 -21 l-27 -18 43 -3
c23 -2 42 -7 42 -12 0 -11 -56 -23 -70 -15 -5 3 -10 2 -10 -4 0 -22 60 -41
125 -41 46 0 71 -5 81 -15 10 -9 34 -15 64 -15 l49 0 -9 -31 c-8 -26 -7 -30 6
-25 9 3 17 6 20 6 2 0 1 7 -2 15 -10 25 16 45 58 45 36 0 39 -2 32 -22 -17
-55 -17 -54 -6 -39 5 7 15 10 21 6 8 -5 10 1 5 19 -5 23 -3 26 19 26 14 0 29
5 33 11 4 7 24 9 51 6 62 -7 116 9 110 32 -3 14 8 19 62 29 121 23 123 67 3
60 -62 -3 -68 -2 -64 14 3 12 -1 18 -12 18 -19 0 -21 11 -3 29 9 11 9 14 0 18
-8 3 -11 14 -7 29 5 20 3 24 -17 23 -13 0 -33 -4 -45 -9z m47 -17 c-5 -10 -27
-29 -50 -43 -22 -14 -41 -29 -41 -33 0 -9 32 7 73 35 15 11 27 14 27 8 0 -6
-7 -13 -15 -16 -8 -4 -12 -10 -9 -15 3 -5 -6 -14 -20 -21 -14 -6 -26 -15 -26
-20 0 -12 12 -9 34 7 11 8 26 15 33 15 19 0 16 -20 -4 -27 -23 -9 -47 -32 -40
-39 3 -3 14 -1 25 5 31 17 164 33 175 22 10 -10 -18 -19 -137 -46 -21 -4 -26
-9 -17 -15 8 -4 10 -13 6 -20 -5 -9 -28 -11 -76 -7 -40 3 -69 2 -69 -4 0 -5
-59 -9 -135 -9 -103 0 -135 3 -135 13 0 9 -12 11 -40 9 -23 -2 -62 -1 -88 3
-46 7 -46 8 -19 17 36 13 32 42 -6 46 -33 4 -26 22 9 22 13 0 48 14 77 30 62
35 77 38 52 10 -21 -24 -8 -26 31 -5 16 8 43 14 59 14 17 -1 22 -3 13 -6 -10
-2 -18 -9 -18 -14 0 -11 7 -11 28 0 29 15 87 17 84 2 -4 -19 29 -6 122 50 87
52 113 61 97 32z"/>
<path d="M1610 390 c0 -5 5 -10 10 -10 6 0 10 5 10 10 0 6 -4 10 -10 10 -5 0
-10 -4 -10 -10z"/>
</g>
</svg>
