<?xml version="1.0" standalone="no"?>
<!DOCTYPE svg PUBLIC "-//W3C//DTD SVG 20010904//EN"
 "http://www.w3.org/TR/2001/REC-SVG-20010904/DTD/svg10.dtd">
<svg version="1.0" xmlns="http://www.w3.org/2000/svg"
 width="300.000000pt" height="230.000000pt" viewBox="0 0 300.000000 230.000000"
 preserveAspectRatio="xMidYMid meet">
<metadata>
Created by potrace 1.10, written by Peter Selinger 2001-2011
</metadata>
<g transform="translate(0.000000,230.000000) scale(0.100000,-0.100000)"
fill="#000000" stroke="none">
<path d="M93 2244 c9 -9 1077 -11 1083 -2 3 4 -241 8 -542 8 -301 0 -545 -3
-541 -6z"/>
<path d="M1210 2238 c0 -5 37 -7 83 -7 85 2 75 6 -26 11 -31 2 -57 0 -57 -4z"/>
<path d="M1400 2228 c0 -4 47 -8 105 -8 58 0 105 4 105 8 0 5 -47 9 -105 8
-58 0 -105 -3 -105 -8z"/>
<path d="M1620 2228 c0 -4 40 -8 89 -8 48 0 110 -2 137 -5 43 -4 45 -4 14 4
-46 12 -240 19 -240 9z"/>
<path d="M1900 2218 c3 -3 127 -9 275 -12 149 -4 303 -9 343 -12 46 -2 72 0
72 7 0 5 -19 9 -42 8 -24 -1 -180 2 -348 6 -168 4 -303 5 -300 3z"/>
<path d="M88 1818 c-2 -216 -2 -395 0 -397 1 -2 4 -2 6 0 7 7 11 789 4 789 -3
0 -8 -177 -10 -392z"/>
<path d="M2633 2193 c20 -2 54 -2 75 0 20 2 3 4 -38 4 -41 0 -58 -2 -37 -4z"/>
<path d="M2760 2191 c0 -5 11 -8 25 -8 13 0 22 3 19 8 -3 5 -14 9 -25 9 -10 0
-19 -4 -19 -9z"/>
<path d="M2828 2181 c11 -7 13 -44 10 -179 -1 -93 0 -168 5 -165 4 2 7 83 7
179 0 159 -1 174 -17 174 -14 0 -15 -2 -5 -9z"/>
<path d="M509 2178 c-9 -17 -3 -48 7 -48 8 0 14 5 14 10 0 6 -5 10 -11 10 -6
0 -9 7 -5 15 4 12 0 23 -5 13z"/>
<path d="M562 2168 c-18 -18 -15 -27 8 -21 11 3 20 12 20 19 0 17 -12 18 -28
2z"/>
<path d="M1104 2165 c-6 -15 2 -35 15 -35 4 0 8 7 8 15 0 8 -5 15 -11 15 -6 0
-4 5 4 10 10 7 11 10 2 10 -7 0 -15 -7 -18 -15z"/>
<path d="M1154 2169 c-3 -6 -1 -15 6 -19 9 -5 9 -9 1 -13 -8 -4 -8 -5 0 -3 7
1 13 12 14 24 2 23 -9 29 -21 11z"/>
<path d="M198 2163 c-24 -6 -23 -19 2 -19 11 0 20 6 20 13 0 7 -1 12 -2 12 -2
-1 -11 -3 -20 -6z"/>
<path d="M234 2159 c-10 -17 13 -36 27 -22 12 12 4 33 -11 33 -5 0 -12 -5 -16
-11z"/>
<path d="M281 2160 c0 -3 4 -13 8 -23 6 -17 8 -16 18 6 11 23 10 26 -8 24 -10
-1 -19 -4 -18 -7z"/>
<path d="M396 2154 c-4 -9 -4 -19 -1 -23 8 -7 41 14 38 25 -4 17 -30 15 -37
-2z"/>
<path d="M457 2163 c-15 -14 -6 -33 16 -33 16 0 18 3 8 9 -7 5 -10 14 -7 20 8
12 -6 15 -17 4z"/>
<path d="M606 2155 c-3 -8 -1 -15 4 -15 6 0 10 7 10 15 0 8 -2 15 -4 15 -2 0
-6 -7 -10 -15z"/>
<path d="M644 2154 c3 -9 6 -20 6 -25 0 -4 7 -6 15 -3 11 5 12 10 2 25 -14 23
-32 25 -23 3z"/>
<path d="M710 2160 c-13 -9 -13 -11 0 -20 26 -17 47 -12 24 6 -10 8 -13 13 -6
9 6 -3 12 -1 12 4 0 14 -10 14 -30 1z"/>
<path d="M770 2154 c0 -14 3 -14 15 -4 8 7 15 14 15 16 0 2 -7 4 -15 4 -8 0
-15 -7 -15 -16z"/>
<path d="M814 2156 c-8 -22 3 -33 18 -18 9 9 9 15 0 24 -9 9 -13 7 -18 -6z"/>
<path d="M910 2156 c0 -24 17 -28 23 -6 3 13 0 20 -9 20 -8 0 -14 -6 -14 -14z"/>
<path d="M950 2150 c0 -13 5 -20 13 -17 6 2 12 10 12 17 0 7 -6 15 -12 18 -8
2 -13 -5 -13 -18z"/>
<path d="M1007 2163 c-13 -12 -7 -20 15 -18 12 1 23 7 24 14 2 7 0 7 -3 1 -3
-8 -9 -8 -17 -1 -7 6 -16 8 -19 4z"/>
<path d="M1198 2153 c-4 -13 1 -19 14 -19 11 0 17 6 16 15 -4 22 -25 24 -30 4z"/>
<path d="M1467 2163 c-12 -12 -7 -41 8 -47 9 -3 15 0 15 10 0 8 -4 12 -10 9
-14 -9 -13 8 2 23 7 7 8 12 2 12 -6 0 -14 -3 -17 -7z"/>
<path d="M1307 2140 c-3 -11 -2 -20 3 -20 4 0 10 9 13 20 3 11 2 20 -3 20 -4
0 -10 -9 -13 -20z"/>
<path d="M1358 2153 c-10 -2 -18 -9 -18 -15 0 -5 6 -8 14 -5 8 3 16 1 19 -6 2
-6 6 -1 9 11 4 12 3 21 0 21 -4 -1 -15 -3 -24 -6z"/>
<path d="M1412 2139 c-7 -12 -11 -24 -8 -27 3 -3 6 0 6 7 0 8 7 11 15 7 10 -4
15 1 15 14 0 26 -12 25 -28 -1z"/>
<path d="M1516 2151 c-9 -15 5 -41 21 -41 12 0 13 3 3 15 -6 8 -9 19 -5 25 3
5 2 10 -4 10 -5 0 -12 -4 -15 -9z"/>
<path d="M1576 2134 c-4 -9 -4 -19 -1 -22 3 -3 5 0 5 8 0 9 3 10 14 1 11 -9
15 -8 20 5 9 23 7 31 -4 14 -6 -10 -10 -11 -10 -2 0 18 -17 15 -24 -4z"/>
<path d="M475 1970 c24 -9 182 -7 192 3 3 4 -43 7 -103 6 -67 0 -101 -3 -89
-9z"/>
<path d="M680 1968 c0 -5 45 -8 100 -8 55 0 100 4 100 8 0 5 -45 8 -100 8 -55
0 -100 -4 -100 -8z"/>
<path d="M894 1968 c-3 -4 11 -8 30 -8 20 0 36 5 36 10 0 12 -59 10 -66 -2z"/>
<path d="M990 1970 c-17 -5 3 -8 65 -9 96 -2 138 -4 278 -16 85 -8 87 -8 87
-34 0 -14 -3 -37 -7 -50 l-6 -23 -168 4 c-93 2 -169 1 -169 -3 0 -7 177 -19
275 -19 34 0 66 5 73 12 7 7 12 34 12 60 0 62 -5 64 -190 72 -80 4 -163 8
-185 10 -22 3 -51 1 -65 -4z"/>
<path d="M425 1919 c-4 -28 -3 -55 1 -59 5 -5 113 -11 239 -15 127 -3 268 -7
315 -10 56 -3 78 -1 63 5 -12 5 -151 12 -309 15 -283 6 -308 9 -299 39 10 35
13 76 6 76 -5 0 -12 -23 -16 -51z"/>
<path d="M460 1920 c0 -11 2 -20 5 -20 2 0 9 9 15 20 9 16 8 20 -5 20 -8 0
-15 -9 -15 -20z"/>
<path d="M651 1926 c-8 -10 -8 -16 3 -25 10 -9 16 -8 26 3 12 15 6 36 -9 36
-5 0 -14 -6 -20 -14z"/>
<path d="M818 1934 c-11 -10 4 -44 19 -44 12 0 13 3 3 15 -6 8 -9 19 -5 25 6
10 -7 14 -17 4z"/>
<path d="M972 1919 c-16 -25 -15 -28 8 -22 11 3 20 11 20 19 0 22 -15 24 -28
3z"/>
<path d="M506 1914 c-9 -24 -8 -26 14 -14 11 6 20 15 20 20 0 16 -27 11 -34
-6z"/>
<path d="M603 1915 c0 -8 4 -15 8 -15 4 0 9 7 13 15 3 9 0 15 -8 15 -7 0 -13
-7 -13 -15z"/>
<path d="M750 1909 c0 -25 33 -22 38 4 2 12 -3 17 -17 17 -15 0 -21 -6 -21
-21z m30 7 c0 -3 -4 -8 -10 -11 -5 -3 -10 -1 -10 4 0 6 5 11 10 11 6 0 10 -2
10 -4z"/>
<path d="M915 1920 c-7 -11 2 -30 13 -30 4 0 8 9 8 20 0 21 -11 26 -21 10z"/>
<path d="M1075 1909 c-4 -11 -4 -23 -1 -26 3 -4 6 1 6 10 0 10 5 17 10 17 6 0
10 5 10 10 0 18 -19 10 -25 -11z"/>
<path d="M1105 1910 c-4 -12 -5 -24 -2 -27 3 -2 8 5 12 17 4 12 5 24 2 27 -3
2 -8 -5 -12 -17z"/>
<path d="M1136 1923 c-12 -12 -6 -33 9 -33 8 0 15 6 15 14 0 17 -14 28 -24 19z"/>
<path d="M1187 1923 c-13 -13 -7 -33 11 -33 13 0 14 2 3 9 -7 5 -10 14 -7 20
8 12 3 15 -7 4z"/>
<path d="M1226 1923 c-13 -13 -5 -29 14 -29 11 0 20 6 20 12 0 14 -25 26 -34
17z"/>
<path d="M1287 1924 c-9 -9 3 -34 17 -34 6 0 12 9 12 20 0 19 -16 27 -29 14z"/>
<path d="M550 1908 c0 -15 18 -17 30 -3 9 11 8 14 -9 12 -12 -1 -21 -5 -21 -9z"/>
<path d="M2839 1798 c-6 -11 -3 -58 3 -58 4 0 8 14 8 30 0 25 -6 38 -11 28z"/>
<path d="M2830 1721 c0 -6 5 -13 10 -16 6 -3 10 1 10 9 0 9 -4 16 -10 16 -5 0
-10 -4 -10 -9z"/>
<path d="M481 1682 c-15 -27 -14 -32 4 -32 20 0 31 28 17 42 -7 7 -14 4 -21
-10z"/>
<path d="M534 1685 c-6 -15 2 -35 15 -35 4 0 8 7 8 15 0 8 -5 15 -11 15 -6 0
-4 5 4 10 10 7 11 10 2 10 -7 0 -15 -7 -18 -15z"/>
<path d="M1319 1683 c0 -5 -2 -16 -4 -25 -2 -10 0 -18 5 -18 4 0 10 11 12 25
3 14 1 25 -3 25 -5 0 -9 -3 -10 -7z"/>
<path d="M1674 1682 c-15 -9 2 -56 16 -47 7 4 7 12 0 24 -5 10 -6 21 -3 25 9
8 1 7 -13 -2z"/>
<path d="M1726 1681 c-4 -5 -2 -20 3 -33 11 -26 13 -24 15 15 2 27 -7 36 -18
18z"/>
<path d="M2836 1681 c-4 -7 -5 -15 -2 -18 9 -9 19 4 14 18 -4 11 -6 11 -12 0z"/>
<path d="M670 1660 c0 -11 6 -20 14 -20 9 0 12 7 9 20 -3 11 -9 20 -14 20 -5
0 -9 -9 -9 -20z"/>
<path d="M726 1664 c-3 -8 -2 -13 3 -9 5 3 12 -1 14 -7 3 -7 6 -3 6 10 1 25
-14 30 -23 6z"/>
<path d="M907 1674 c-14 -14 -7 -35 11 -32 9 2 17 10 17 17 0 16 -18 25 -28
15z"/>
<path d="M957 1673 c-12 -11 -8 -33 6 -33 7 0 13 9 13 20 0 20 -7 25 -19 13z"/>
<path d="M1025 1670 c-3 -5 -12 -7 -20 -3 -9 3 -15 -1 -15 -9 0 -20 38 -17 43
4 6 20 2 24 -8 8z"/>
<path d="M1056 1671 c-9 -14 4 -41 19 -41 8 0 17 5 21 12 5 7 2 9 -8 5 -12 -4
-14 -1 -11 14 5 19 -11 27 -21 10z"/>
<path d="M1230 1660 c-6 -11 -7 -20 -2 -20 10 0 32 21 32 32 0 16 -19 8 -30
-12z"/>
<path d="M1367 1665 c-4 -8 -2 -17 3 -20 6 -4 10 -4 10 -1 0 2 3 11 6 20 3 9
2 16 -4 16 -5 0 -12 -7 -15 -15z"/>
<path d="M1413 1673 c-18 -7 -16 -30 1 -30 8 0 17 9 19 19 5 18 2 20 -20 11z"/>
<path d="M1490 1671 c0 -7 -6 -11 -14 -8 -8 3 -16 0 -19 -7 -3 -6 3 -13 13
-13 18 -2 36 24 25 35 -3 3 -5 0 -5 -7z"/>
<path d="M1770 1660 c0 -11 4 -20 8 -20 4 0 8 9 8 20 0 11 -4 20 -8 20 -4 0
-8 -9 -8 -20z"/>
<path d="M1815 1670 c-8 -12 12 -40 28 -40 8 0 8 3 0 11 -6 6 -9 18 -6 25 6
16 -13 19 -22 4z"/>
<path d="M1906 1664 c-9 -23 -7 -34 5 -34 5 0 7 4 4 10 -3 6 1 7 9 4 11 -4 16
0 16 15 0 24 -25 28 -34 5z"/>
<path d="M1986 1671 c-8 -12 3 -41 15 -41 6 0 5 8 -1 19 -7 14 -6 21 3 24 9 4
9 6 0 6 -6 1 -14 -3 -17 -8z"/>
<path d="M840 1661 c0 -13 26 -32 33 -24 4 3 7 13 7 22 0 14 -2 14 -10 1 -6
-10 -10 -11 -10 -2 0 6 -4 12 -10 12 -5 0 -10 -4 -10 -9z"/>
<path d="M1515 1659 c-4 -6 -5 -12 -2 -15 2 -3 7 2 10 11 7 17 1 20 -8 4z"/>
<path d="M1553 1663 c-20 -7 -15 -29 6 -29 12 0 17 6 13 18 -2 10 -5 18 -6 17
0 0 -7 -3 -13 -6z"/>
<path d="M1870 1648 c0 -19 2 -20 10 -8 13 19 13 30 0 30 -5 0 -10 -10 -10
-22z"/>
<path d="M1270 1649 c0 -5 5 -7 10 -4 6 3 10 8 10 11 0 2 -4 4 -10 4 -5 0 -10
-5 -10 -11z"/>
<path d="M2830 1624 c0 -8 5 -12 10 -9 6 3 10 10 10 16 0 5 -4 9 -10 9 -5 0
-10 -7 -10 -16z"/>
<path d="M2830 1590 c0 -5 5 -10 11 -10 5 0 7 5 4 10 -3 6 -8 10 -11 10 -2 0
-4 -4 -4 -10z"/>
<path d="M2842 1485 c0 -16 2 -22 5 -12 2 9 2 23 0 30 -3 6 -5 -1 -5 -18z"/>
<path d="M433 1443 c9 -2 17 -9 17 -15 0 -14 88 -4 103 11 8 8 2 11 -21 11
-18 0 -32 -4 -32 -10 0 -5 -5 -10 -11 -10 -5 0 -7 5 -4 10 4 6 -9 10 -32 9
-21 -1 -30 -3 -20 -6z"/>
<path d="M2842 1420 c0 -19 2 -27 5 -17 2 9 2 25 0 35 -3 9 -5 1 -5 -18z"/>
<path d="M260 1330 c0 -91 3 -110 15 -110 18 0 20 21 4 37 -8 8 -8 16 0 30 8
12 11 13 9 3 -4 -21 16 -25 20 -5 2 9 -6 26 -17 36 -22 21 -28 35 -11 24 13
-8 13 38 0 51 -6 6 -6 15 0 24 7 11 10 11 10 2 0 -7 5 -10 10 -7 18 11 10 25
-15 25 l-25 0 0 -110z"/>
<path d="M319 1413 c-29 -51 0 -80 52 -53 10 6 19 7 19 3 0 -12 -37 -42 -44
-36 -10 10 -18 -26 -10 -44 4 -10 6 -24 5 -32 -2 -13 9 -9 37 12 10 8 9 14 -4
28 -16 18 -16 20 0 38 11 12 30 19 52 18 32 -1 34 -2 18 -14 -17 -12 -16 -13
3 -13 12 0 24 4 27 8 7 12 -10 34 -25 31 -8 -1 -26 3 -41 9 -15 6 -35 9 -43 6
-9 -4 -15 0 -15 9 0 9 -8 17 -17 20 -13 2 -9 8 17 19 32 15 33 16 10 17 -18 1
-30 -7 -41 -26z m51 -133 c0 -5 -4 -10 -10 -10 -5 0 -10 5 -10 10 0 6 5 10 10
10 6 0 10 -4 10 -10z"/>
<path d="M565 1426 c-18 -13 -18 -14 1 -24 25 -13 49 0 41 22 -8 20 -18 20
-42 2z"/>
<path d="M620 1431 c0 -6 5 -13 10 -16 6 -4 7 -11 4 -17 -10 -15 30 8 46 26
11 14 8 16 -24 16 -20 0 -36 -4 -36 -9z"/>
<path d="M700 1426 c0 -10 6 -13 15 -10 10 4 15 0 15 -14 0 -11 3 -29 6 -39 5
-15 4 -15 -5 -3 -15 21 -14 8 4 -31 15 -34 15 -34 12 36 -2 64 -4 70 -24 73
-15 2 -23 -2 -23 -12z"/>
<path d="M382 1422 c-9 -7 -8 -13 8 -27 11 -10 20 -13 20 -7 0 6 -6 13 -12 16
-7 2 -4 4 7 3 11 -1 22 3 25 8 6 13 -31 18 -48 7z"/>
<path d="M83 1270 c1 -77 5 -140 10 -140 4 0 7 63 7 140 0 85 -4 140 -10 140
-6 0 -9 -53 -7 -140z"/>
<path d="M493 1403 c-22 -4 -33 -33 -13 -33 6 0 10 6 10 13 0 8 3 8 9 -2 6 -9
6 -22 0 -32 -8 -15 -4 -17 24 -13 l32 5 -25 -20 c-14 -11 -19 -21 -12 -21 6 0
12 -7 12 -16 0 -13 -3 -14 -15 -4 -8 7 -22 10 -30 6 -9 -3 -18 0 -21 8 -3 8
-15 11 -30 8 -22 -4 -25 -9 -22 -34 4 -25 2 -29 -14 -25 -10 3 -16 1 -13 -3 3
-5 1 -11 -5 -15 -6 -4 -8 -10 -5 -15 3 -5 -2 -13 -11 -18 -9 -5 -15 -15 -12
-23 2 -7 -11 -29 -29 -48 -22 -23 -30 -38 -23 -45 13 -13 13 -23 -3 -29 -9 -3
-13 11 -15 52 -3 52 -2 55 12 36 16 -20 16 -20 10 0 -9 31 -27 65 -33 65 -4 0
-8 -39 -9 -86 -3 -86 -3 -87 19 -81 13 4 29 1 36 -4 7 -6 18 -9 25 -6 8 4 7 6
-4 6 -21 1 -24 17 -5 24 8 4 8 8 2 14 -19 15 -13 44 11 55 18 8 24 18 22 37
-2 17 2 26 12 26 8 0 15 7 15 15 0 15 13 30 28 30 4 0 7 -10 7 -22 0 -19 2
-20 10 -8 8 12 10 11 10 -7 0 -24 14 -31 25 -13 3 6 1 10 -4 10 -6 0 -11 7
-11 15 0 18 5 18 31 5 13 -8 19 -7 19 0 0 6 5 8 10 5 8 -5 7 -11 -1 -21 -6 -8
-10 -17 -7 -20 3 -2 12 10 21 28 18 36 10 46 -23 28 -30 -16 -46 -2 -21 21 22
21 36 25 25 8 -4 -8 -1 -8 13 -1 12 7 25 7 34 1 7 -5 10 -9 4 -10 -5 0 3 -5
19 -9 22 -7 39 -4 72 13 24 12 44 28 44 35 0 7 -4 10 -10 7 -5 -3 -10 -2 -10
3 0 6 7 13 16 16 19 7 13 31 -7 31 -8 0 -23 8 -34 18 -15 14 -29 17 -55 12
-19 -3 -43 -6 -52 -7 -10 -1 -18 -7 -18 -13 0 -5 -5 -3 -10 5 -5 8 -7 23 -4
33 3 9 4 16 2 16 -2 -1 -13 -4 -25 -6z m155 -49 c55 -38 -3 -123 -64 -95 -58
26 -35 106 31 110 6 1 21 -6 33 -15z m-165 -91 c-3 -7 -11 -13 -19 -13 -8 0
-14 -5 -14 -11 0 -5 -4 -7 -10 -4 -5 3 -10 14 -10 23 0 12 8 17 29 17 19 0 27
-4 24 -12z"/>
<path d="M860 1399 c0 -5 5 -7 10 -4 6 3 10 8 10 11 0 2 -4 4 -10 4 -5 0 -10
-5 -10 -11z"/>
<path d="M891 1394 c0 -11 3 -14 6 -6 3 7 2 16 -1 19 -3 4 -6 -2 -5 -13z"/>
<path d="M530 1390 c0 -5 5 -10 11 -10 5 0 7 5 4 10 -3 6 -8 10 -11 10 -2 0
-4 -4 -4 -10z"/>
<path d="M693 1393 c-17 -6 -16 -30 1 -36 8 -3 16 2 19 14 6 21 -1 29 -20 22z"/>
<path d="M435 1380 c3 -5 8 -10 11 -10 2 0 4 5 4 10 0 6 -5 10 -11 10 -5 0 -7
-4 -4 -10z"/>
<path d="M917 1373 c-13 -13 -7 -33 11 -32 9 0 12 3 5 5 -7 3 -9 12 -6 20 5
15 1 18 -10 7z"/>
<path d="M972 1368 c-16 -16 -15 -25 3 -25 8 0 15 9 15 19 0 21 -2 22 -18 6z"/>
<path d="M2833 1300 c0 -41 2 -58 4 -37 2 20 2 54 0 75 -2 20 -4 3 -4 -38z"/>
<path d="M1067 1346 c-3 -8 2 -13 16 -12 11 1 22 6 24 11 5 16 -35 16 -40 1z"/>
<path d="M1127 1346 c-3 -8 -3 -17 0 -20 7 -7 33 13 33 25 0 15 -27 10 -33 -5z"/>
<path d="M1174 1349 c-3 -6 -2 -15 4 -21 6 -6 11 -2 15 11 5 22 -7 29 -19 10z"/>
<path d="M1260 1347 c0 -19 16 -31 24 -18 3 5 -1 14 -9 21 -12 10 -15 10 -15
-3z"/>
<path d="M1210 1340 c0 -5 7 -10 15 -10 8 0 15 5 15 10 0 6 -7 10 -15 10 -8 0
-15 -4 -15 -10z"/>
<path d="M1317 1333 c-4 -3 -7 -11 -7 -17 0 -6 5 -5 12 2 6 6 9 14 7 17 -3 3
-9 2 -12 -2z"/>
<path d="M707 1280 c-3 -11 -1 -20 4 -20 5 0 6 -14 2 -31 -4 -24 -2 -34 11
-41 16 -9 16 -12 -2 -41 -21 -37 -19 -59 6 -50 14 6 15 4 4 -9 -7 -8 -9 -23
-6 -32 4 -11 2 -16 -6 -14 -7 2 -14 -7 -16 -20 -3 -17 0 -21 8 -16 8 5 7 0 -2
-11 -13 -17 -13 -18 1 -13 9 4 22 1 28 -5 6 -6 11 -7 11 -1 0 5 -5 15 -12 22
-9 9 -9 12 1 12 9 0 12 34 10 141 -1 81 -5 135 -10 127 -7 -10 -9 -9 -9 5 0
23 -16 22 -23 -3z m33 -50 c0 -5 -2 -10 -4 -10 -3 0 -8 5 -11 10 -3 6 -1 10 4
10 6 0 11 -4 11 -10z"/>
<path d="M306 1219 c-12 -21 -14 -29 -4 -27 7 2 14 -8 17 -22 3 -23 4 -23 11
-5 5 13 2 24 -9 32 -9 6 -12 15 -8 19 4 5 12 2 16 -5 5 -7 11 -9 14 -4 3 4 0
16 -7 25 -11 15 -14 14 -30 -13z"/>
<path d="M635 1229 c-11 -16 -1 -19 13 -3 7 8 8 14 3 14 -5 0 -13 -5 -16 -11z"/>
<path d="M593 1214 c15 -8 27 -23 27 -34 0 -30 19 -34 43 -8 28 31 31 57 6 51
-10 -3 -15 -11 -13 -18 10 -25 -13 -24 -36 0 -13 14 -31 25 -39 25 -10 -1 -5
-7 12 -16z"/>
<path d="M1074 1211 c4 -5 0 -12 -6 -15 -7 -3 -4 -5 6 -3 24 3 34 27 11 27 -9
0 -14 -4 -11 -9z"/>
<path d="M1130 1202 c0 -14 6 -22 16 -22 14 0 15 3 3 18 -7 9 -15 19 -16 21
-2 2 -3 -5 -3 -17z"/>
<path d="M1217 1213 c-12 -11 -8 -19 12 -20 11 -1 22 5 25 13 3 8 1 14 -4 14
-6 0 -10 -6 -10 -12 0 -10 -2 -10 -8 0 -5 7 -11 9 -15 5z"/>
<path d="M1286 1204 c-17 -12 -17 -14 -4 -14 9 0 20 5 23 11 11 17 2 18 -19 3z"/>
<path d="M1330 1200 c0 -19 11 -26 23 -14 8 8 -3 34 -14 34 -5 0 -9 -9 -9 -20z"/>
<path d="M1456 1208 c5 -8 2 -9 -10 -5 -12 5 -16 3 -14 -5 7 -19 32 -16 36 5
2 9 -2 17 -8 17 -6 0 -8 -5 -4 -12z"/>
<path d="M1380 1193 c0 -8 5 -13 12 -11 18 6 21 25 3 25 -8 0 -15 -7 -15 -14z"/>
<path d="M1597 1195 c-8 -20 -4 -29 11 -24 5 2 6 13 2 23 -6 19 -7 19 -13 1z"/>
<path d="M1651 1192 c-7 -14 -6 -19 4 -19 17 0 28 24 15 32 -5 3 -13 -3 -19
-13z"/>
<path d="M2833 1175 c0 -22 2 -30 4 -17 2 12 2 30 0 40 -3 9 -5 -1 -4 -23z"/>
<path d="M564 1190 c-26 -10 -42 -32 -23 -29 29 3 36 -2 35 -23 -1 -18 -7 -23
-27 -23 -20 0 -25 -4 -24 -25 0 -18 6 -26 22 -28 16 -2 21 1 18 10 -6 16 3 29
35 51 23 16 23 17 4 17 -21 0 -30 29 -11 41 16 11 -7 17 -29 9z m-18 -117
c-10 -10 -19 5 -10 18 6 11 8 11 12 0 2 -7 1 -15 -2 -18z"/>
<path d="M1793 1193 c-13 -2 -23 -10 -23 -18 0 -18 30 -12 42 8 5 9 8 16 6 16
-2 -1 -13 -4 -25 -6z"/>
<path d="M1830 1180 c0 -11 7 -20 15 -20 8 0 15 9 15 20 0 11 -7 20 -15 20 -8
0 -15 -9 -15 -20z"/>
<path d="M1980 1180 c0 -12 7 -20 16 -20 13 0 14 3 5 13 -6 8 -8 17 -4 20 3 4
1 7 -5 7 -7 0 -12 -9 -12 -20z"/>
<path d="M1910 1181 c0 -10 26 -9 36 2 4 4 -2 7 -14 7 -12 0 -22 -4 -22 -9z"/>
<path d="M396 1165 c-11 -8 -15 -15 -9 -15 6 0 16 7 23 15 16 19 11 19 -14 0z"/>
<path d="M672 1154 c-13 -14 -21 -30 -19 -37 4 -8 6 -7 6 2 1 11 5 10 17 -5
15 -18 15 -18 11 9 -3 21 -1 27 9 23 9 -3 14 2 14 14 0 26 -10 24 -38 -6z"/>
<path d="M1870 1170 c0 -5 7 -10 16 -10 8 0 12 5 9 10 -3 6 -10 10 -16 10 -5
0 -9 -4 -9 -10z"/>
<path d="M2030 1159 c0 -5 5 -7 10 -4 6 3 10 8 10 11 0 2 -4 4 -10 4 -5 0 -10
-5 -10 -11z"/>
<path d="M420 1149 c0 -6 4 -8 9 -5 5 4 8 -5 7 -19 -2 -13 1 -22 5 -19 5 3 9
1 9 -4 0 -6 9 -8 20 -5 12 3 20 0 20 -8 0 -29 14 5 16 37 0 22 -2 30 -7 22 -5
-7 -9 -8 -9 -3 0 13 -70 17 -70 4z m68 -21 c-6 -18 -28 -21 -28 -4 0 9 7 16
16 16 9 0 14 -5 12 -12z"/>
<path d="M390 1131 c0 -11 26 -22 34 -14 3 3 3 10 0 14 -7 12 -34 11 -34 0z"/>
<path d="M2827 1103 c-3 -5 -1 -17 4 -28 7 -17 8 -17 8 8 1 27 -4 34 -12 20z"/>
<path d="M86 1083 c-2 -10 -7 -214 -11 -454 l-7 -436 78 -6 c106 -9 134 -9
134 3 0 6 -39 10 -98 10 l-99 0 4 313 c2 171 5 374 7 450 2 75 2 137 0 137 -1
0 -5 -8 -8 -17z"/>
<path d="M352 1086 c1 -10 8 -17 13 -17 15 1 12 24 -3 29 -9 3 -13 -2 -10 -12z"/>
<path d="M615 1090 c-7 -11 22 -26 32 -17 3 3 12 0 20 -8 16 -16 33 -20 33 -7
0 9 -53 42 -68 42 -6 0 -14 -5 -17 -10z"/>
<path d="M415 1080 c-3 -5 -1 -10 4 -10 6 0 11 5 11 10 0 6 -2 10 -4 10 -3 0
-8 -4 -11 -10z"/>
<path d="M440 1050 c0 -12 -7 -20 -17 -20 -10 0 -27 -7 -37 -15 -10 -8 -23
-12 -29 -8 -5 3 -13 0 -18 -8 -6 -11 -11 -10 -27 4 -10 9 -23 17 -28 17 -5 0
0 -7 10 -15 17 -13 18 -15 3 -15 -9 0 -17 -5 -17 -11 0 -5 -4 -7 -10 -4 -5 3
-10 0 -10 -8 0 -11 23 -16 96 -21 93 -6 121 -3 98 12 -7 4 -8 15 -4 27 7 17 9
18 15 4 7 -19 34 -15 80 13 22 13 25 18 12 18 -10 0 -15 5 -12 10 3 6 -1 10
-9 10 -17 0 -39 -34 -29 -44 3 -3 -1 -6 -10 -6 -9 0 -19 5 -22 10 -11 17 -37
11 -42 -10 -3 -11 -10 -21 -17 -22 -66 -9 -125 -4 -111 10 9 10 39 9 47 -2 3
-5 17 3 31 17 13 15 30 27 36 27 16 0 61 30 61 41 0 5 -9 9 -20 9 -13 0 -20
-7 -20 -20z"/>
<path d="M585 1059 c-11 -16 -1 -19 13 -3 7 8 8 14 3 14 -5 0 -13 -5 -16 -11z"/>
<path d="M1782 1048 c-17 -17 -15 -26 8 -38 16 -9 20 -8 20 6 0 10 -5 14 -15
10 -8 -3 -15 -1 -15 3 0 5 6 11 13 14 6 2 9 7 6 10 -3 4 -11 1 -17 -5z"/>
<path d="M2525 1037 c1 -12 -3 -25 -9 -29 -7 -5 -4 -8 7 -8 11 0 17 8 17 24 0
14 -4 27 -8 30 -5 3 -8 -5 -7 -17z"/>
<path d="M606 1034 c-9 -8 -16 -17 -16 -19 0 -8 41 9 51 21 17 20 -15 19 -35
-2z"/>
<path d="M656 1034 c-9 -24 -2 -26 12 -4 7 11 8 20 3 20 -5 0 -12 -7 -15 -16z"/>
<path d="M1434 1039 c-7 -12 17 -32 26 -22 3 3 -1 8 -8 10 -6 3 -10 9 -6 14 3
5 3 9 0 9 -3 0 -8 -5 -12 -11z"/>
<path d="M1486 1035 c-3 -9 0 -15 9 -15 16 0 20 16 6 24 -5 3 -11 -1 -15 -9z"/>
<path d="M1640 1029 c-7 -13 -7 -19 0 -19 5 0 10 4 10 9 0 5 6 8 13 7 19 -2
24 17 4 20 -9 1 -22 -6 -27 -17z"/>
<path d="M1883 1030 c1 -11 5 -20 9 -20 3 0 6 9 5 20 -1 11 -5 20 -9 20 -3 0
-6 -9 -5 -20z"/>
<path d="M1930 1040 c-13 -8 -12 -10 3 -10 9 0 17 5 17 10 0 12 -1 12 -20 0z"/>
<path d="M1983 1043 c-18 -6 -16 -30 2 -30 15 0 29 24 17 30 -4 3 -13 2 -19 0z"/>
<path d="M2030 1030 c-6 -12 -9 -24 -6 -28 3 -3 6 0 6 7 0 8 7 11 15 7 17 -6
19 2 6 23 -7 11 -11 9 -21 -9z"/>
<path d="M2096 1041 c-5 -7 -3 -18 3 -24 14 -14 20 -6 11 17 -5 15 -9 16 -14
7z"/>
<path d="M2185 1040 c-3 -5 -2 -17 3 -26 7 -13 11 -14 17 -3 5 7 4 14 -3 17
-7 2 -10 8 -6 13 3 5 3 9 0 9 -3 0 -8 -4 -11 -10z"/>
<path d="M2242 1029 c-16 -25 -15 -34 2 -20 11 9 15 9 19 -1 3 -7 6 -3 6 9 1
30 -12 36 -27 12z"/>
<path d="M2310 1030 c-6 -11 -7 -20 -2 -20 10 0 32 21 32 32 0 16 -19 8 -30
-12z"/>
<path d="M2357 1036 c-4 -10 -5 -21 -2 -24 9 -9 17 6 13 25 -3 17 -4 17 -11
-1z"/>
<path d="M2392 1031 c2 -9 12 -17 23 -19 15 -2 17 -1 6 6 -7 6 -11 14 -8 19 3
5 -1 10 -9 10 -8 0 -13 -7 -12 -16z"/>
<path d="M2485 1040 c-3 -5 -12 -7 -20 -3 -8 3 -15 0 -15 -7 0 -6 4 -9 9 -6 5
4 11 0 13 -6 3 -8 9 -4 17 10 11 21 8 32 -4 12z"/>
<path d="M2572 1038 c-18 -18 -14 -32 5 -17 10 8 14 9 10 2 -4 -6 -3 -14 3
-18 5 -3 10 3 10 14 0 25 -13 34 -28 19z"/>
<path d="M2828 978 c-1 -40 -2 -111 -3 -158 -1 -47 2 -92 6 -100 4 -8 8 63 8
158 1 94 -1 172 -4 172 -3 0 -6 -33 -7 -72z"/>
<path d="M365 1029 c-4 -6 -5 -12 -2 -15 2 -3 7 2 10 11 7 17 1 20 -8 4z"/>
<path d="M1710 1025 c-10 -13 -9 -15 9 -15 11 0 21 4 21 9 0 18 -18 21 -30 6z"/>
<path d="M1847 1033 c-4 -3 -7 -11 -7 -17 0 -6 5 -5 12 2 6 6 9 14 7 17 -3 3
-9 2 -12 -2z"/>
<path d="M610 1000 c-8 -5 -18 -6 -22 -4 -4 3 -8 0 -8 -6 0 -6 6 -10 13 -9 6
1 19 0 27 -4 31 -11 60 -15 60 -7 0 5 -10 12 -22 16 -13 4 -25 10 -28 15 -3 4
-12 4 -20 -1z"/>
<path d="M548 983 c7 -3 16 -2 19 1 4 3 -2 6 -13 5 -11 0 -14 -3 -6 -6z"/>
<path d="M480 955 c-11 -13 4 -15 129 -15 87 0 141 4 141 10 0 9 -14 14 -32
11 -57 -7 -98 -7 -98 1 0 6 -7 7 -17 3 -27 -12 -86 -14 -99 -4 -7 6 -16 3 -24
-6z"/>
<path d="M1757 900 c-6 -22 0 -25 22 -11 7 5 10 14 7 20 -11 17 -23 13 -29 -9z"/>
<path d="M1936 905 c-6 -17 15 -30 36 -22 8 3 6 6 -6 6 -12 1 -16 6 -12 16 3
8 1 15 -3 15 -5 0 -12 -7 -15 -15z"/>
<path d="M1994 906 c-8 -22 3 -33 18 -18 9 9 9 15 0 24 -9 9 -13 7 -18 -6z"/>
<path d="M1810 890 c0 -14 7 -20 22 -20 20 0 21 1 3 20 -10 11 -20 20 -22 20
-1 0 -3 -9 -3 -20z"/>
<path d="M2019 795 c-1 -3 -2 -8 -3 -12 -1 -5 -5 -13 -9 -19 -4 -7 1 -14 11
-16 15 -4 17 0 14 23 -4 26 -10 37 -13 24z"/>
<path d="M1956 781 c-3 -5 0 -11 8 -14 15 -6 26 1 26 15 0 11 -27 10 -34 -1z"/>
<path d="M2067 783 c-10 -9 -9 -33 1 -33 4 0 8 9 8 20 0 23 0 22 -9 13z"/>
<path d="M2191 782 c-1 -7 -5 -11 -10 -8 -5 3 -11 0 -14 -8 -4 -9 3 -16 16
-20 26 -6 25 -7 16 24 -4 14 -7 19 -8 12z"/>
<path d="M2101 768 c-1 -10 3 -18 8 -18 5 0 16 -3 24 -6 12 -4 14 0 10 15 -4
16 -9 19 -18 11 -9 -8 -15 -7 -18 2 -4 8 -6 7 -6 -4z"/>
<path d="M2240 765 c-10 -12 -9 -16 5 -21 23 -9 40 10 22 25 -11 9 -17 8 -27
-4z"/>
<path d="M745 760 c-3 -5 -1 -10 4 -10 6 0 11 5 11 10 0 6 -2 10 -4 10 -3 0
-8 -4 -11 -10z"/>
<path d="M446 741 c-8 -12 3 -41 15 -41 5 0 8 11 7 25 -2 25 -12 32 -22 16z"/>
<path d="M500 726 c0 -16 18 -31 27 -22 3 3 -2 12 -11 21 -14 14 -16 14 -16 1z"/>
<path d="M645 730 c-7 -11 2 -30 13 -30 4 0 8 9 8 20 0 21 -11 26 -21 10z"/>
<path d="M697 727 c-3 -8 3 -13 15 -14 10 -1 18 3 16 9 -6 18 -25 21 -31 5z"/>
<path d="M887 734 c-14 -14 -7 -35 11 -32 9 2 17 10 17 17 0 16 -18 25 -28 15z"/>
<path d="M950 730 c-12 -7 -12 -12 -2 -22 9 -9 15 -9 24 0 16 16 -2 34 -22 22z"/>
<path d="M772 718 c3 -7 13 -15 24 -17 16 -3 17 -1 5 13 -16 19 -34 21 -29 4z"/>
<path d="M840 714 c0 -8 5 -12 10 -9 6 3 10 10 10 16 0 5 -4 9 -10 9 -5 0 -10
-7 -10 -16z"/>
<path d="M2832 680 c0 -14 2 -19 5 -12 2 6 2 18 0 25 -3 6 -5 1 -5 -13z"/>
<path d="M2576 665 c-8 -9 -18 -16 -21 -15 -3 0 -5 -2 -5 -5 0 -3 0 -10 0 -15
0 -6 11 1 25 15 14 14 27 25 28 25 1 0 3 -12 3 -26 2 -28 10 -41 20 -31 4 4 2
13 -5 21 -9 11 -9 15 0 18 16 5 2 28 -16 28 -7 0 -20 -7 -29 -15z"/>
<path d="M2515 626 c-39 -43 -56 -77 -46 -93 9 -16 10 -16 11 3 0 12 7 27 15
34 8 7 15 18 15 26 0 7 7 17 16 22 9 5 13 12 8 15 -5 3 -14 0 -19 -7z"/>
<path d="M2823 620 c5 -31 17 -36 17 -7 0 15 -4 27 -10 27 -5 0 -9 -9 -7 -20z"/>
<path d="M2562 618 c-7 -9 -7 -28 -2 -58 12 -60 12 -103 1 -95 -5 3 -12 1 -16
-5 -9 -15 21 -12 34 4 6 7 10 39 9 72 -2 33 0 65 2 73 7 18 -14 25 -28 9z"/>
<path d="M2618 593 c-11 -3 -18 -14 -18 -26 0 -17 3 -19 9 -8 11 17 31 6 31
-17 0 -13 -2 -14 -9 -3 -6 9 -8 5 -8 -13 0 -24 1 -25 13 -9 14 19 19 69 7 76
-5 2 -16 2 -25 0z"/>
<path d="M2533 583 c-7 -2 -13 -9 -13 -15 0 -5 -10 -24 -22 -40 -29 -42 -41
-108 -22 -129 19 -21 99 -17 148 6 28 13 36 24 41 55 7 40 0 64 -14 55 -5 -2
-6 -16 -4 -29 4 -19 -3 -34 -26 -57 -31 -31 -56 -34 -31 -4 10 12 10 15 -4 15
-9 0 -19 -6 -22 -14 -7 -18 -76 -16 -82 3 -3 8 0 11 5 8 5 -3 7 9 5 26 -3 24
2 38 18 52 22 20 22 20 37 0 14 -19 15 -19 7 5 -4 14 -8 35 -7 48 0 12 0 22
-1 21 0 0 -7 -3 -13 -6z"/>
<path d="M2827 566 c-4 -10 -5 -21 -2 -24 9 -9 17 6 13 25 -3 17 -4 17 -11 -1z"/>
<path d="M602 528 c-17 -17 -15 -25 6 -30 12 -4 17 2 18 19 2 26 -6 29 -24 11z"/>
<path d="M653 525 c-3 -9 -3 -19 1 -22 8 -9 37 18 30 28 -8 14 -24 11 -31 -6z"/>
<path d="M707 533 c-13 -13 -7 -33 11 -32 11 0 12 2 4 6 -10 4 -10 8 -1 19 11
14 -1 20 -14 7z"/>
<path d="M750 520 c0 -11 6 -20 13 -20 8 0 14 7 14 15 0 8 -6 16 -14 19 -8 3
-13 -2 -13 -14z"/>
<path d="M2523 503 c-15 -5 -17 -59 -4 -68 6 -3 9 7 7 22 -1 16 2 34 7 41 10
13 9 13 -10 5z"/>
<path d="M2442 488 c-13 -13 -17 -78 -4 -78 4 0 7 15 7 33 -1 17 3 38 8 45 12
15 5 16 -11 0z"/>
<path d="M2822 463 c-1 -28 1 -34 8 -23 12 19 13 60 2 60 -5 0 -9 -17 -10 -37z"/>
<path d="M2825 357 c-4 -10 -5 -21 -1 -24 10 -10 18 4 13 24 -4 17 -4 17 -12
0z"/>
<path d="M1300 305 c-10 -12 -10 -18 0 -30 7 -8 17 -12 23 -8 6 4 3 11 -8 20
-17 12 -17 13 -2 13 9 0 17 5 17 10 0 15 -16 12 -30 -5z"/>
<path d="M725 300 c-3 -5 -1 -10 4 -10 6 0 11 5 11 10 0 6 -2 10 -4 10 -3 0
-8 -4 -11 -10z"/>
<path d="M1233 295 c-3 -9 -3 -18 -1 -21 9 -9 38 8 38 22 0 19 -29 18 -37 -1z
m27 1 c0 -3 -4 -8 -10 -11 -5 -3 -10 -1 -10 4 0 6 5 11 10 11 6 0 10 -2 10 -4z"/>
<path d="M1982 298 c-7 -7 -12 -16 -12 -22 0 -5 3 -6 7 -3 3 4 11 3 17 -2 7
-6 11 -1 12 15 2 26 -6 30 -24 12z"/>
<path d="M2086 301 c-9 -14 4 -41 20 -41 8 0 14 5 14 10 0 6 -5 10 -11 10 -6
0 -9 7 -5 15 6 16 -9 21 -18 6z"/>
<path d="M2830 255 l0 -55 -127 -1 c-71 0 -282 0 -470 1 -206 1 -343 -3 -343
-8 0 -6 189 -10 475 -10 l475 0 0 64 c0 35 -2 64 -5 64 -3 0 -5 -25 -5 -55z"/>
<path d="M1560 283 c0 -13 5 -23 10 -23 13 0 13 11 0 30 -8 12 -10 11 -10 -7z"/>
<path d="M1777 293 c-13 -12 -7 -19 18 -19 14 0 25 6 25 13 0 13 -32 18 -43 6z"/>
<path d="M1875 291 c-3 -6 -11 -9 -16 -6 -5 4 -9 -1 -9 -9 0 -9 4 -16 9 -16
12 0 35 29 28 36 -3 3 -8 0 -12 -5z"/>
<path d="M1914 284 c3 -9 6 -18 6 -20 0 -2 5 -4 10 -4 6 0 10 9 10 20 0 12 -7
20 -16 20 -11 0 -14 -5 -10 -16z"/>
<path d="M2038 278 c4 -16 7 -18 10 -8 3 8 10 18 16 22 6 5 2 8 -11 8 -17 0
-20 -4 -15 -22z"/>
<path d="M1617 283 c-11 -11 -8 -20 8 -20 8 0 15 6 15 14 0 14 -12 17 -23 6z"/>
<path d="M290 189 c0 -10 321 -16 730 -12 206 1 484 3 618 4 133 1 242 4 242
8 0 3 -358 6 -795 6 -437 0 -795 -3 -795 -6z"/>
</g>
</svg>
