<?xml version="1.0" standalone="no"?>
<!DOCTYPE svg PUBLIC "-//W3C//DTD SVG 20010904//EN"
 "http://www.w3.org/TR/2001/REC-SVG-20010904/DTD/svg10.dtd">
<svg version="1.0" xmlns="http://www.w3.org/2000/svg"
 width="300.000000pt" height="303.000000pt" viewBox="0 0 300.000000 303.000000"
 preserveAspectRatio="xMidYMid meet">
<metadata>
Created by potrace 1.10, written by Peter Selinger 2001-2011
</metadata>
<g transform="translate(0.000000,303.000000) scale(0.100000,-0.100000)"
fill="#000000" stroke="none">
<path d="M592 3018 c-5 -7 -13 -23 -16 -35 -4 -12 -16 -25 -26 -28 -11 -4 -23
-17 -26 -29 -3 -13 -16 -29 -30 -36 -13 -8 -24 -21 -24 -30 0 -9 -9 -25 -20
-35 -11 -10 -20 -31 -20 -46 0 -22 6 -30 26 -35 14 -4 36 -2 49 4 25 11 65 82
65 113 0 10 6 30 14 46 8 15 20 40 27 56 20 44 29 13 29 -105 0 -101 1 -108
20 -108 19 0 20 7 20 96 0 95 -15 184 -31 184 -5 0 -4 -12 2 -27 16 -41 25
-243 10 -243 -7 0 -11 34 -11 108 0 129 -9 150 -45 107 -31 -38 -35 -10 -4 29
11 14 16 26 11 26 -5 0 -14 -6 -20 -12z m-12 -92 c0 -14 -4 -28 -10 -31 -5 -3
-10 -16 -10 -29 0 -12 -5 -27 -12 -34 -6 -6 -13 -22 -15 -34 -5 -31 -13 -37
-53 -40 -30 -3 -35 0 -38 19 -2 13 5 29 17 40 12 9 21 26 21 36 0 12 11 23 30
30 17 7 28 17 26 24 -5 13 19 43 35 43 5 0 9 -11 9 -24z"/>
<path d="M1245 2958 c-3 -40 -5 -124 -3 -187 l3 -115 30 -8 c40 -11 521 -15
532 -5 4 5 9 95 9 200 l2 192 -8 -188 c-4 -103 -11 -191 -14 -195 -10 -9 -442
-5 -496 5 l-45 9 2 182 c1 100 0 182 -2 182 -2 0 -6 -33 -10 -72z"/>
<path d="M1436 3009 c-14 -11 -26 -29 -26 -39 0 -11 -10 -24 -21 -31 -19 -10
-21 -17 -16 -74 4 -58 2 -66 -19 -86 -31 -29 -31 -57 0 -65 24 -6 78 0 94 10
6 3 13 -1 16 -10 4 -11 14 -13 43 -8 51 9 54 13 37 59 -7 22 -11 49 -7 60 3
11 8 29 9 40 2 11 7 37 12 57 6 20 7 39 4 42 -3 4 0 6 6 6 7 0 12 -4 12 -9 0
-5 10 -11 22 -13 20 -3 24 -13 35 -73 6 -38 12 -89 12 -112 1 -31 5 -43 16
-43 31 0 11 223 -22 248 -9 6 -34 12 -56 12 -38 0 -39 1 -32 28 6 25 5 26 -10
11 -14 -14 -15 -21 -5 -38 6 -12 10 -36 8 -53 -3 -27 -7 -31 -37 -33 -28 -2
-41 3 -63 27 -35 37 -36 65 -3 80 14 6 25 15 25 20 0 12 -4 10 -34 -13z m211
-69 c7 -14 12 -45 12 -70 l-1 -45 -12 58 c-7 37 -18 64 -31 74 -20 15 -20 15
0 11 11 -2 25 -14 32 -28z m-205 -27 c25 -22 23 -29 -14 -62 -23 -20 -35 -26
-40 -18 -10 15 -10 81 -1 90 11 12 36 8 55 -10z m88 -52 c0 -32 -34 -86 -70
-112 -31 -21 -90 -32 -110 -19 -12 8 -5 20 40 66 56 58 105 94 128 94 7 0 12
-12 12 -29z m137 -108 c-2 -16 -4 -5 -4 22 0 28 2 40 4 28 2 -13 2 -35 0 -50z
m-133 15 c11 -42 7 -48 -29 -48 -19 0 -35 2 -35 5 0 10 43 65 51 65 4 0 9 -10
13 -22z"/>
<path d="M1690 3006 c9 -26 20 -129 24 -231 1 -45 5 -60 16 -60 29 0 22 199
-11 295 -6 18 -7 9 -4 -30 l4 -55 -10 53 c-6 28 -15 52 -20 52 -5 0 -5 -10 1
-24z m49 -238 c1 -27 -2 -48 -6 -48 -5 0 -9 46 -9 103 -2 86 -1 93 6 47 4 -30
8 -76 9 -102z"/>
<path d="M2157 3000 c9 -17 34 -44 55 -61 34 -27 38 -34 38 -78 0 -45 -1 -48
-24 -44 -20 4 -23 1 -23 -21 0 -15 4 -29 9 -32 6 -4 5 -10 -2 -14 -10 -6 -6
-15 14 -34 25 -26 26 -30 26 -148 l0 -122 -28 27 c-15 15 -31 27 -35 27 -13 0
-7 -35 9 -59 16 -22 16 -23 -5 -16 -33 10 -26 -19 15 -65 39 -43 33 -57 -6
-15 -12 13 -27 22 -31 19 -11 -6 13 -55 35 -73 9 -8 16 -18 16 -24 0 -7 -4 -7
-12 1 -17 17 -28 15 -28 -7 0 -17 81 -101 97 -101 15 0 33 16 58 50 27 37 24
56 -6 40 -28 -16 -23 0 13 37 24 25 29 36 20 45 -8 8 -17 7 -36 -6 -37 -24
-32 -14 19 41 24 26 45 51 45 56 0 11 -38 9 -45 -3 -3 -5 -11 -10 -17 -10 -7
0 1 14 17 30 22 23 26 33 17 42 -8 8 -17 7 -36 -6 l-26 -16 0 117 c0 116 0
118 28 141 19 16 23 25 14 29 -10 4 -10 8 0 21 9 11 10 16 2 19 -7 2 -9 13 -6
25 4 15 1 19 -9 16 -8 -3 -13 -11 -11 -18 2 -7 -5 -21 -14 -31 -9 -11 -12 -19
-6 -19 6 0 14 5 17 10 3 6 12 10 18 10 7 0 -1 -12 -18 -27 -28 -25 -28 -25 -5
-19 l25 7 -22 -20 c-22 -18 -23 -27 -23 -151 l0 -131 22 15 c38 27 40 18 7
-24 -39 -48 -33 -60 15 -30 48 29 46 13 -4 -35 -53 -52 -55 -86 -2 -49 30 21
28 9 -8 -36 -37 -46 -37 -54 -4 -46 27 7 26 -1 -4 -36 -23 -27 -51 -22 -88 18
-42 44 -44 62 -4 33 45 -34 45 -18 0 37 -46 56 -53 81 -12 41 53 -51 59 -25 7
36 -43 50 -45 65 -5 36 42 -32 48 -17 11 29 -40 52 -39 59 4 26 l35 -26 0 137
c0 129 -1 138 -22 156 l-23 20 25 -6 c24 -6 24 -6 -5 19 -32 27 -28 33 8 15
15 -7 13 -2 -8 15 -30 26 -28 34 4 16 16 -8 19 -4 24 35 8 58 3 72 -52 123
l-46 44 45 -32 45 -31 3 37 c2 23 -2 40 -10 45 -22 14 -30 10 -14 -7 9 -8 16
-24 16 -36 0 -18 -5 -16 -49 16 -59 44 -67 45 -44 6z m74 -597 c13 -16 12 -17
-3 -4 -10 7 -18 15 -18 17 0 8 8 3 21 -13z"/>
<path d="M2280 2990 c0 -22 3 -40 6 -40 3 0 19 9 35 21 38 27 37 11 -1 -26
-27 -26 -30 -35 -30 -94 0 -35 3 -61 7 -57 4 3 6 29 4 56 -2 44 1 54 43 107
53 66 58 83 19 55 -16 -10 -39 -25 -52 -32 -23 -12 -23 -11 -19 19 2 17 1 31
-4 31 -4 0 -8 -18 -8 -40z"/>
<path d="M2621 3003 c-1 -21 -6 -33 -15 -33 -17 0 -40 -26 -28 -34 5 -3 7 -21
6 -40 -2 -20 2 -38 8 -42 7 -4 6 -9 -3 -14 -10 -7 -10 -11 0 -24 9 -11 10 -16
2 -16 -20 0 -11 -20 14 -32 20 -9 25 -18 25 -48 0 -21 -7 -43 -15 -50 -8 -7
-17 -28 -21 -48 -6 -31 -3 -39 21 -60 30 -26 65 -24 98 5 25 23 23 89 -3 105
-14 9 -20 24 -20 49 0 31 4 38 25 43 24 6 27 19 15 76 0 3 -5 -3 -11 -13 -6
-9 -14 -15 -19 -12 -5 3 -11 1 -15 -5 -4 -6 5 -10 20 -10 32 0 29 -23 -2 -28
-17 -3 -22 -12 -25 -48 -3 -38 0 -47 19 -60 27 -17 31 -65 7 -88 -17 -17 -61
-21 -83 -7 -22 14 -17 68 7 94 15 16 22 36 22 64 0 37 -2 41 -31 47 -18 3 -28
10 -24 16 4 6 15 8 26 5 10 -4 19 -2 19 4 0 5 -10 11 -22 13 -29 4 -26 21 4
29 22 5 21 6 -7 13 -26 7 -27 9 -12 17 9 6 22 7 27 4 6 -3 10 -2 10 4 0 5 -9
11 -20 13 -22 3 -24 24 -2 22 21 -3 13 14 -8 18 -25 4 -22 23 2 22 22 -1 31
26 19 57 -9 23 -10 22 -10 -8z"/>
<path d="M2676 3007 c-10 -32 -2 -44 34 -49 l25 -4 -30 -14 c-26 -11 -27 -14
-10 -17 47 -10 50 -14 20 -28 -27 -12 -28 -13 -7 -14 27 -1 30 -21 2 -21 -11
0 -20 -4 -20 -10 0 -13 16 -13 40 0 12 7 17 19 15 42 -2 18 -4 35 -5 38 -1 3
-3 12 -4 20 0 8 -11 16 -23 18 -16 2 -23 11 -25 35 l-4 32 -8 -28z"/>
<path d="M440 2641 c-7 -13 -7 -22 0 -26 5 -3 10 -5 11 -3 11 48 7 61 -11 29z"/>
<path d="M620 2645 c0 -8 0 -17 0 -20 0 -3 3 -4 7 -2 10 3 11 37 1 37 -4 0 -8
-7 -8 -15z"/>
<path d="M400 2630 c0 -11 4 -20 9 -20 5 0 11 9 14 20 3 13 0 20 -9 20 -8 0
-14 -9 -14 -20z"/>
<path d="M470 2630 c0 -11 2 -20 4 -20 2 0 6 9 9 20 3 11 1 20 -4 20 -5 0 -9
-9 -9 -20z"/>
<path d="M507 2643 c-4 -3 -7 -13 -7 -21 0 -12 3 -12 15 -2 8 7 15 16 15 21 0
11 -14 12 -23 2z"/>
<path d="M580 2629 c0 -11 5 -17 10 -14 6 3 10 13 10 21 0 8 -4 14 -10 14 -5
0 -10 -9 -10 -21z"/>
<path d="M384 2556 c-8 -22 3 -33 18 -18 9 9 9 15 0 24 -9 9 -13 7 -18 -6z"/>
<path d="M507 2556 c-3 -8 -1 -17 6 -20 9 -3 8 -5 -1 -5 -7 -1 -10 -6 -7 -11
10 -16 25 -1 25 26 0 26 -15 33 -23 10z"/>
<path d="M590 2549 c-15 -28 -7 -34 14 -10 11 12 13 21 7 25 -5 4 -15 -3 -21
-15z"/>
<path d="M632 2545 c-12 -26 -7 -31 17 -16 9 6 10 14 4 25 -8 15 -11 14 -21
-9z"/>
<path d="M420 2543 c0 -18 27 -16 33 1 4 10 0 14 -14 13 -10 -1 -19 -7 -19
-14z"/>
<path d="M550 2545 c0 -8 5 -15 10 -15 6 0 10 7 10 15 0 8 -4 15 -10 15 -5 0
-10 -7 -10 -15z"/>
<path d="M670 2537 c1 -21 1 -21 11 -3 9 14 13 15 19 6 4 -7 13 -9 19 -6 20
13 12 23 -19 24 -25 1 -30 -3 -30 -21z"/>
<path d="M980 2257 c-61 -31 -43 -117 24 -117 35 0 66 25 66 53 0 20 30 37 64
37 18 0 26 5 26 18 1 16 1 16 14 0 8 -11 27 -18 49 -18 20 0 39 -5 42 -11 9
-14 3 -18 -34 -23 -19 -2 -39 -13 -47 -25 -17 -24 -34 -19 -34 10 0 20 -10 22
-50 9 -24 -8 -24 -8 6 -9 23 -1 33 -7 37 -21 3 -11 12 -20 21 -20 9 0 21 9 28
20 7 11 21 20 31 20 10 0 27 4 37 10 15 8 20 6 25 -8 6 -22 45 -42 80 -42 25
0 55 33 55 61 0 17 37 29 91 29 17 0 29 5 29 13 0 8 3 9 8 1 8 -13 95 -26 86
-13 -3 5 -19 9 -36 9 -18 0 -36 7 -44 18 -12 16 -14 16 -26 1 -14 -17 -118
-35 -118 -20 0 14 -57 33 -80 26 -11 -4 -29 -16 -39 -27 -12 -12 -21 -16 -26
-9 -3 6 -20 11 -37 11 -17 0 -37 8 -44 18 -13 16 -15 16 -28 0 -7 -10 -24 -18
-38 -18 -13 0 -29 -5 -35 -11 -7 -7 -18 -3 -36 15 -30 30 -33 30 -67 13z m48
-42 c13 20 13 20 10 0 -1 -11 2 -26 6 -34 7 -11 5 -13 -7 -8 -12 4 -17 1 -17
-11 -1 -16 -1 -16 -14 0 -10 13 -15 15 -24 6 -7 -7 -12 -8 -12 -2 0 6 5 15 12
22 9 9 8 12 -5 12 -9 0 -17 5 -17 11 0 5 5 7 10 4 6 -3 10 2 10 12 0 15 2 16
10 3 8 -13 10 -12 11 5 1 13 4 9 8 -10 6 -29 7 -29 19 -10z m349 9 c10 4 13 2
10 -8 -3 -7 0 -19 6 -26 10 -10 8 -12 -6 -7 -15 6 -17 3 -12 -16 5 -20 5 -20
-8 -5 -11 14 -16 15 -27 5 -10 -10 -12 -8 -7 6 6 15 3 17 -15 11 -20 -6 -21
-5 -10 9 9 10 10 17 2 22 -5 3 -10 11 -10 18 0 8 3 8 12 -1 18 -18 38 -15 39
6 1 15 2 15 6 -1 3 -12 10 -16 20 -13z"/>
<path d="M1675 2262 c-6 -4 -18 -19 -28 -34 -14 -22 -25 -28 -52 -28 -24 0
-35 -5 -35 -15 0 -19 -9 -19 -24 -1 -8 10 -24 12 -61 6 l-50 -7 49 -2 c33 -1
53 -6 61 -18 13 -17 35 -10 35 11 0 8 15 16 35 18 28 3 38 -1 50 -18 32 -50
115 -33 115 24 0 40 -26 72 -58 72 -15 0 -32 -4 -37 -8z m11 -41 c-4 -9 3 -5
14 9 16 20 20 22 20 8 0 -12 5 -15 18 -11 14 6 15 4 5 -8 -10 -12 -10 -18 0
-29 10 -10 9 -12 -5 -7 -12 4 -18 1 -18 -9 0 -11 -9 -7 -29 13 -16 16 -24 31
-18 34 5 4 6 12 2 19 -6 9 -4 11 4 6 7 -5 10 -15 7 -25z m4 -35 c0 -3 -4 -8
-10 -11 -5 -3 -10 -1 -10 4 0 6 5 11 10 11 6 0 10 -2 10 -4z"/>
<path d="M2725 2190 c-6 -10 -5 -11 15 -14 6 0 9 -5 8 -11 -2 -5 -6 -9 -10 -7
-5 1 -8 -2 -8 -7 0 -5 9 -11 19 -14 15 -4 19 0 19 17 -2 36 -29 59 -43 36z"/>
<path d="M2653 2125 c4 -9 7 -19 7 -21 0 -2 7 -4 15 -4 22 0 18 18 -7 31 -18
10 -20 9 -15 -6z"/>
<path d="M2730 2116 c0 -2 9 -6 20 -9 11 -3 20 -1 20 4 0 5 -9 9 -20 9 -11 0
-20 -2 -20 -4z"/>
<path d="M2739 2087 c6 -8 8 -17 4 -20 -3 -4 1 -7 10 -7 22 0 22 26 1 34 -24
9 -28 7 -15 -7z"/>
<path d="M2647 2082 c-24 -5 -15 -28 9 -24 10 2 21 6 23 8 9 9 -14 20 -32 16z"/>
<path d="M2730 2046 c0 -2 11 -6 25 -8 14 -3 25 -1 25 3 0 5 -11 9 -25 9 -14
0 -25 -2 -25 -4z"/>
<path d="M173 2024 c-3 -8 0 -21 7 -27 10 -9 14 -9 17 0 2 7 11 9 19 6 9 -3
14 2 14 16 0 23 -15 29 -23 9 -4 -10 -6 -10 -6 0 -1 17 -20 15 -28 -4z"/>
<path d="M246 2025 c-8 -22 -8 -22 9 -22 17 0 18 6 6 25 -7 11 -10 10 -15 -3z"/>
<path d="M277 2034 c7 -3 9 -12 6 -20 -3 -8 0 -14 7 -14 6 0 8 5 5 10 -3 6 -1
10 5 10 6 0 8 5 5 10 -3 6 -14 10 -23 9 -10 0 -12 -3 -5 -5z"/>
<path d="M320 2020 c0 -11 5 -20 10 -20 6 0 10 9 10 20 0 11 -4 20 -10 20 -5
0 -10 -9 -10 -20z"/>
<path d="M407 2034 c-10 -11 -9 -44 2 -44 15 0 19 13 12 33 -4 10 -10 15 -14
11z"/>
<path d="M2640 2024 c0 -9 5 -12 13 -8 8 6 8 3 -1 -9 -15 -17 -7 -40 11 -34
14 4 17 50 3 59 -17 12 -26 9 -26 -8z m25 -34 c3 -5 1 -10 -4 -10 -6 0 -11 5
-11 10 0 6 2 10 4 10 3 0 8 -4 11 -10z"/>
<path d="M370 2013 c0 -13 5 -23 10 -23 13 0 13 11 0 30 -8 12 -10 11 -10 -7z"/>
<path d="M441 2007 c1 -17 2 -18 6 -4 5 21 22 22 29 2 8 -21 19 -19 21 3 1 14
-6 19 -28 20 -24 1 -29 -3 -28 -21z"/>
<path d="M570 2015 c0 -9 6 -12 15 -9 8 4 15 10 15 15 0 5 -7 9 -15 9 -8 0
-15 -7 -15 -15z"/>
<path d="M615 2020 c-8 -13 4 -32 16 -25 12 8 12 35 0 35 -6 0 -13 -4 -16 -10z"/>
<path d="M655 2017 c-8 -19 -2 -31 13 -26 5 2 6 13 2 24 -7 19 -8 19 -15 2z"/>
<path d="M690 2008 c0 -16 3 -17 21 -7 15 8 19 8 15 0 -4 -6 -1 -11 6 -11 8 0
14 8 15 18 1 14 -6 19 -28 19 -22 0 -29 -5 -29 -19z"/>
<path d="M814 2018 c-3 -5 -2 -14 4 -20 12 -12 42 -4 42 11 0 13 -39 21 -46 9z"/>
<path d="M871 2014 c-1 -12 5 -21 14 -21 8 0 15 7 15 14 0 8 -4 12 -9 9 -5 -4
-12 0 -14 6 -3 7 -6 4 -6 -8z"/>
<path d="M917 2010 c3 -11 7 -20 9 -20 2 0 4 9 4 20 0 11 -4 20 -9 20 -5 0 -7
-9 -4 -20z"/>
<path d="M983 2016 c3 -29 27 -32 27 -4 0 17 -3 19 -9 9 -7 -11 -10 -11 -15 0
-3 9 -5 6 -3 -5z"/>
<path d="M1190 2009 c0 -18 -5 -21 -30 -17 -17 3 -35 -1 -40 -7 -7 -9 2 -12
34 -11 41 1 45 3 48 29 3 15 1 27 -4 27 -4 0 -8 -10 -8 -21z"/>
<path d="M951 2004 c0 -11 3 -14 6 -6 3 7 2 16 -1 19 -3 4 -6 -2 -5 -13z"/>
<path d="M1026 2005 c4 -8 10 -15 15 -15 5 0 9 7 9 15 0 8 -7 15 -15 15 -9 0
-12 -6 -9 -15z"/>
<path d="M2555 1980 c3 -5 10 -10 16 -10 5 0 9 5 9 10 0 6 -7 10 -16 10 -8 0
-12 -4 -9 -10z"/>
<path d="M2740 1981 c0 -5 9 -11 20 -14 24 -6 27 8 4 17 -21 8 -24 8 -24 -3z"/>
<path d="M947 1946 c-3 -8 1 -17 9 -20 8 -3 14 1 14 9 0 20 -17 28 -23 11z"/>
<path d="M997 1954 c-4 -4 -7 -14 -7 -23 0 -13 2 -13 9 -2 5 8 14 10 21 6 8
-5 11 -3 8 5 -5 16 -22 23 -31 14z"/>
<path d="M2542 1938 c6 -18 28 -21 28 -4 0 9 -7 16 -16 16 -9 0 -14 -5 -12
-12z"/>
<path d="M2750 1935 c7 -8 16 -12 21 -9 13 8 1 24 -18 24 -13 0 -13 -3 -3 -15z"/>
<path d="M1100 1920 c0 -5 5 -10 11 -10 5 0 7 5 4 10 -3 6 -8 10 -11 10 -2 0
-4 -4 -4 -10z"/>
<path d="M2540 1896 c0 -10 9 -16 21 -16 24 0 21 23 -4 28 -10 2 -17 -3 -17
-12z"/>
<path d="M2750 1890 c6 -11 15 -20 21 -20 6 0 6 7 -1 20 -6 11 -15 20 -21 20
-6 0 -6 -7 1 -20z"/>
<path d="M2640 1887 c0 -7 9 -13 20 -14 24 -2 27 12 4 21 -22 8 -24 8 -24 -7z"/>
<path d="M2543 1863 c4 -3 3 -11 -3 -18 -6 -8 -1 -10 18 -9 38 2 39 3 18 19
-19 15 -46 21 -33 8z"/>
<path d="M2650 1850 c20 -13 33 -13 25 0 -3 6 -14 10 -23 10 -15 0 -15 -2 -2
-10z"/>
<path d="M2650 1830 c0 -6 7 -10 15 -10 8 0 15 2 15 4 0 2 -7 6 -15 10 -8 3
-15 1 -15 -4z"/>
<path d="M2750 1823 c0 -5 9 -14 20 -21 11 -7 20 -8 20 -2 0 5 -9 14 -20 20
-11 6 -20 7 -20 3z"/>
<path d="M2548 1803 c7 -3 16 -2 19 1 4 3 -2 6 -13 5 -11 0 -14 -3 -6 -6z"/>
<path d="M2586 1787 c3 -10 9 -15 12 -12 3 3 0 11 -7 18 -10 9 -11 8 -5 -6z"/>
<path d="M2100 1780 c0 -12 40 -34 48 -26 3 3 0 6 -6 6 -7 0 -12 7 -12 15 0 8
-7 15 -15 15 -8 0 -15 -4 -15 -10z"/>
<path d="M2543 1771 c-1 -14 3 -17 18 -14 15 4 17 8 8 19 -16 19 -24 17 -26
-5z"/>
<path d="M2760 1771 c0 -17 15 -19 28 -5 11 12 9 14 -8 14 -11 0 -20 -4 -20
-9z"/>
<path d="M2657 1741 c4 -17 11 -18 43 -11 7 1 -32 30 -41 30 -4 0 -5 -9 -2
-19z"/>
<path d="M797 1743 c-4 -3 -7 -15 -7 -25 0 -12 -7 -18 -23 -18 -32 0 -70 -29
-64 -50 4 -15 -7 -19 -71 -28 -41 -6 -81 -17 -89 -25 -19 -19 -9 -51 20 -65
22 -10 22 -11 1 -11 -40 -2 -84 -23 -84 -40 0 -26 43 -61 87 -72 44 -10 225
-12 271 -3 26 5 32 12 37 43 5 29 12 39 36 48 32 13 37 42 9 51 -12 4 -13 2
-3 -9 15 -16 -1 -39 -27 -39 -20 0 -30 -19 -30 -55 0 -21 -6 -24 -57 -29 -75
-9 -234 0 -265 14 -31 14 -53 49 -40 62 5 5 37 12 70 15 l61 6 -42 21 c-77 39
-43 72 80 78 40 2 73 4 73 6 0 2 -7 10 -15 18 -27 28 3 54 63 54 18 0 23 5 20
23 -2 18 2 23 25 25 23 3 27 0 27 -20 0 -18 8 -26 32 -33 41 -13 46 -30 13
-47 l-26 -14 26 -12 c30 -14 29 -35 -3 -40 -22 -3 -31 -22 -11 -22 41 0 67 51
32 64 -27 11 4 26 53 26 l40 0 -4 -121 c-4 -100 -2 -121 9 -117 8 3 15 19 17
36 3 27 7 32 28 32 16 0 24 -5 21 -12 -2 -7 -10 -12 -16 -10 -6 1 -11 -2 -11
-6 0 -5 61 -12 137 -15 146 -7 423 -7 386 0 -32 6 -30 33 2 33 23 0 25 -4 25
-40 0 -22 5 -40 10 -40 6 0 10 16 10 35 0 35 0 36 34 29 23 -4 45 -1 65 9 24
12 37 13 60 4 25 -9 33 -8 49 6 10 9 30 17 44 17 14 0 31 6 37 14 16 20 -4 33
-64 40 -48 6 -64 7 -102 6 -10 -1 -40 2 -68 6 l-50 6 3 42 4 43 -154 7 c-84 3
-216 9 -293 12 -201 7 -262 13 -276 30 -6 8 -20 14 -30 14 -14 0 -19 7 -19 25
0 22 -4 25 -33 25 -19 0 -37 -3 -40 -7z m291 -110 c2 -8 -6 -13 -22 -13 -17 0
-26 5 -26 16 0 19 41 16 48 -3z m62 -23 c0 -36 -2 -40 -25 -40 -18 0 -25 5
-25 19 0 14 5 18 20 14 11 -3 20 0 20 6 0 6 -9 11 -20 11 -11 0 -20 7 -20 15
0 9 9 15 25 15 23 0 25 -4 25 -40z m48 34 c12 -4 22 -13 22 -21 0 -10 -6 -12
-19 -8 -11 3 -22 1 -26 -5 -4 -6 4 -10 19 -10 16 0 26 -6 26 -15 0 -10 -10
-15 -30 -15 -28 0 -30 2 -30 40 0 42 1 43 38 34z m82 -20 c0 -10 -7 -14 -22
-12 -32 5 -35 28 -4 28 17 0 26 -5 26 -16z m60 1 c0 -9 -9 -15 -25 -15 -16 0
-25 6 -25 15 0 9 9 15 25 15 16 0 25 -6 25 -15z m60 0 c0 -9 -9 -15 -25 -15
-16 0 -25 6 -25 15 0 9 9 15 25 15 16 0 25 -6 25 -15z m50 -4 c0 -14 -12 -20
-26 -14 -22 8 -17 32 6 26 11 -3 20 -9 20 -12z m50 -6 c0 -8 -9 -15 -20 -15
-11 0 -20 7 -20 15 0 8 9 15 20 15 11 0 20 -7 20 -15z m60 0 c0 -9 -9 -15 -25
-15 -16 0 -25 6 -25 15 0 9 9 15 25 15 16 0 25 -6 25 -15z m50 0 c0 -8 -9 -15
-20 -15 -11 0 -20 7 -20 15 0 8 9 15 20 15 11 0 20 -7 20 -15z m-522 -23 c2
-6 -7 -16 -20 -21 l-23 -10 23 0 c31 -1 29 -31 -3 -31 -23 0 -25 4 -25 41 0
36 2 40 22 37 12 -2 23 -9 26 -16z m192 -32 c0 -36 -2 -40 -25 -40 -34 0 -36
39 -2 41 l22 2 -22 4 c-32 6 -30 33 2 33 23 0 25 -4 25 -40z m60 20 c0 -15 -7
-20 -25 -20 -18 0 -25 5 -25 20 0 15 7 20 25 20 18 0 25 -5 25 -20z m50 0 c0
-13 -7 -20 -20 -20 -13 0 -20 7 -20 20 0 13 7 20 20 20 13 0 20 -7 20 -20z
m50 -6 c0 -8 -9 -14 -20 -14 -19 0 -27 19 -14 33 10 9 34 -4 34 -19z m60 -4
c0 -13 -6 -19 -17 -17 -31 4 -33 37 -3 37 13 0 20 -7 20 -20z m60 0 c0 -15 -7
-20 -25 -20 -18 0 -25 5 -25 20 0 15 7 20 25 20 18 0 25 -5 25 -20z m53 0 c4
-16 0 -20 -19 -20 -17 0 -24 6 -24 20 0 13 7 20 19 20 10 0 21 -9 24 -20z
m-463 -25 c0 -9 -9 -15 -25 -15 -16 0 -25 6 -25 15 0 9 9 15 25 15 16 0 25 -6
25 -15z m70 -4 c0 -15 -7 -19 -30 -19 -22 1 -30 6 -30 20 0 13 7 18 30 18 23
0 30 -5 30 -19z m118 -3 c-7 -20 -48 -23 -48 -4 0 11 9 16 26 16 16 0 24 -5
22 -12z m52 -3 c0 -8 -9 -15 -20 -15 -11 0 -20 7 -20 15 0 8 9 15 20 15 11 0
20 -7 20 -15z m50 0 c0 -8 -9 -15 -20 -15 -11 0 -20 7 -20 15 0 8 9 15 20 15
11 0 20 -7 20 -15z m110 -5 c0 -5 -22 -10 -50 -10 -27 0 -50 5 -50 10 0 6 23
10 50 10 28 0 50 -4 50 -10z m65 0 c4 -6 -7 -10 -24 -10 -17 0 -31 5 -31 10 0
6 11 10 24 10 14 0 28 -4 31 -10z m115 -5 c18 -9 31 -11 35 -5 7 11 48 14 58
3 4 -4 22 -7 40 -7 34 -1 50 -19 20 -24 -10 -2 -28 -8 -40 -14 -12 -6 -39 -8
-62 -4 -23 3 -42 2 -46 -4 -3 -5 -28 -10 -56 -10 -49 0 -49 0 -49 33 0 19 3
37 7 40 11 12 63 7 93 -8z m-642 -27 c3 -13 -3 -18 -22 -18 -20 0 -26 5 -26
21 0 15 5 20 22 17 13 -2 24 -11 26 -20z m62 0 c0 -12 -8 -18 -25 -18 -17 0
-25 6 -25 18 0 12 8 17 25 17 17 0 25 -5 25 -17z m70 -3 c0 -10 -10 -15 -30
-15 -20 0 -30 5 -30 15 0 10 10 15 30 15 20 0 30 -5 30 -15z m60 0 c0 -9 -9
-15 -25 -15 -16 0 -25 6 -25 15 0 9 9 15 25 15 16 0 25 -6 25 -15z m50 0 c0
-8 -9 -15 -20 -15 -11 0 -20 7 -20 15 0 8 9 15 20 15 11 0 20 -7 20 -15z m60
1 c0 -19 -11 -25 -30 -17 -25 10 -22 31 5 31 15 0 25 -6 25 -14z m50 -5 c0
-14 -6 -19 -20 -18 -12 1 -20 8 -20 19 0 11 7 18 20 18 13 0 20 -7 20 -19z
m110 -2 c0 -16 -5 -20 -22 -17 -13 2 -22 9 -20 16 1 6 -2 12 -8 12 -5 0 -10
-7 -10 -15 0 -8 -9 -15 -20 -15 -13 0 -20 7 -20 20 0 17 7 20 50 20 44 0 50
-3 50 -21z m60 0 c0 -15 -5 -20 -22 -17 -34 5 -37 38 -4 38 20 0 26 -5 26 -21z
m-470 -34 c0 -8 -9 -15 -20 -15 -11 0 -20 7 -20 15 0 8 9 15 20 15 11 0 20 -7
20 -15z m80 -1 c0 -11 -8 -14 -32 -12 -46 4 -49 28 -4 28 26 0 36 -4 36 -16z
m58 4 c9 -9 12 -9 12 0 0 7 9 12 20 12 14 0 20 -7 20 -21 0 -19 -4 -21 -31
-15 -17 3 -40 6 -50 6 -11 0 -19 7 -19 15 0 18 31 20 48 3z m110 -10 c-3 -7
-13 -13 -23 -13 -10 0 -20 6 -22 13 -3 7 5 12 22 12 17 0 25 -5 23 -12z m50 0
c-7 -19 -38 -22 -38 -4 0 10 9 16 21 16 12 0 19 -5 17 -12z m52 -3 c0 -8 -9
-15 -20 -15 -11 0 -20 7 -20 15 0 8 9 15 20 15 11 0 20 -7 20 -15z m60 0 c0
-9 -9 -15 -25 -15 -16 0 -25 6 -25 15 0 9 9 15 25 15 16 0 25 -6 25 -15z"/>
<path d="M2543 1719 c-1 -11 5 -19 13 -19 18 0 19 26 1 33 -8 3 -14 -3 -14
-14z"/>
<path d="M2766 1733 c-11 -11 -6 -23 8 -23 8 0 17 4 20 9 7 10 -19 23 -28 14z"/>
<path d="M2112 1714 c4 -21 22 -23 26 -1 2 10 -3 17 -13 17 -10 0 -15 -6 -13
-16z"/>
<path d="M2660 1700 c-12 -7 -12 -12 -3 -21 10 -10 14 -9 19 5 5 14 9 15 16 4
8 -10 9 -10 6 1 -5 19 -19 23 -38 11z"/>
<path d="M2764 1682 c2 -9 11 -18 22 -19 10 -2 13 0 6 3 -6 3 -10 9 -7 14 3 4
-1 10 -9 13 -9 4 -13 0 -12 -11z"/>
<path d="M2100 1666 c0 -10 8 -16 22 -16 12 0 19 1 17 3 -2 1 -12 9 -21 16
-15 12 -18 11 -18 -3z"/>
<path d="M2663 1645 c0 -8 9 -15 19 -15 22 0 24 16 2 24 -21 8 -21 8 -21 -9z"/>
<path d="M2770 1633 c8 -3 18 -11 22 -17 5 -7 8 -4 8 7 0 11 -7 17 -22 16 -16
0 -18 -2 -8 -6z"/>
<path d="M2100 1619 c0 -14 24 -23 28 -10 4 11 6 11 14 0 8 -11 9 -11 5 1 -4
15 -47 24 -47 9z"/>
<path d="M2550 1622 c0 -4 9 -8 20 -8 11 0 20 4 20 8 0 4 -9 8 -20 8 -11 0
-20 -4 -20 -8z"/>
<path d="M2669 1607 c-1 -1 -3 -14 -5 -29 -2 -23 1 -28 19 -27 12 0 16 3 10 6
-16 6 -17 30 -1 35 7 3 6 7 -5 11 -9 3 -18 5 -18 4z"/>
<path d="M2763 1595 c0 -8 9 -15 20 -15 16 0 17 3 7 15 -7 8 -16 15 -20 15 -3
0 -7 -7 -7 -15z"/>
<path d="M15 1587 c-16 -13 -13 -14 25 -13 38 1 46 -3 59 -26 14 -25 14 -31 1
-55 -17 -31 -62 -42 -86 -22 -10 8 -14 8 -14 0 0 -22 49 -32 79 -16 50 25 57
91 15 124 -31 24 -53 26 -79 8z"/>
<path d="M2540 1586 c0 -8 8 -13 18 -12 9 2 21 -2 25 -8 6 -7 7 -6 5 3 -6 20
-48 35 -48 17z"/>
<path d="M2760 1560 c0 -4 9 -10 20 -13 11 -3 20 -2 20 3 0 4 -9 10 -20 13
-11 3 -20 2 -20 -3z"/>
<path d="M2550 1541 c0 -11 6 -18 15 -17 25 4 28 14 6 26 -18 9 -21 8 -21 -9z"/>
<path d="M40 1534 c-11 -12 -10 -18 5 -32 17 -16 17 -16 11 2 -3 10 -1 25 5
32 7 8 7 14 1 14 -5 0 -15 -7 -22 -16z"/>
<path d="M2460 1517 c0 -7 9 -13 21 -14 17 -2 18 1 9 13 -15 17 -30 18 -30 1z"/>
<path d="M2660 1522 c0 -4 5 -13 12 -20 8 -8 9 -12 1 -12 -6 0 -9 -9 -6 -20 6
-21 18 -26 28 -11 3 5 1 12 -5 16 -7 4 -7 12 0 25 14 26 13 30 -10 30 -11 0
-20 -4 -20 -8z"/>
<path d="M2460 1475 c0 -8 7 -15 15 -15 8 0 15 7 15 15 0 8 -7 15 -15 15 -8 0
-15 -7 -15 -15z"/>
<path d="M2770 1476 c0 -7 7 -13 15 -13 8 0 15 4 15 8 0 4 -7 9 -15 13 -9 3
-15 0 -15 -8z"/>
<path d="M2040 1435 c-33 -39 45 -70 160 -63 40 3 45 6 45 27 0 29 -21 36
-124 47 -56 5 -69 3 -81 -11z m160 -14 c21 -4 35 -13 35 -21 0 -12 -14 -15
-68 -13 -38 0 -79 4 -93 7 -25 7 -33 31 -11 39 12 6 75 0 137 -12z"/>
<path d="M2760 1438 c0 -8 11 -14 25 -14 30 0 28 20 -3 24 -14 2 -22 -2 -22
-10z"/>
<path d="M2460 1425 c0 -6 7 -12 15 -12 8 0 15 6 15 12 0 6 -7 12 -15 12 -8 0
-15 -6 -15 -12z"/>
<path d="M2552 1428 c5 -15 28 -18 29 -3 0 6 -7 12 -17 13 -10 3 -15 -1 -12
-10z"/>
<path d="M2665 1421 c-3 -5 -1 -12 5 -16 12 -7 30 2 30 16 0 12 -27 12 -35 0z"/>
<path d="M2769 1391 c6 -10 7 -21 4 -25 -3 -3 3 -6 15 -6 16 0 20 4 15 18 -7
18 -22 32 -36 32 -4 0 -3 -8 2 -19z"/>
<path d="M2464 1382 c2 -9 6 -16 10 -15 27 7 29 11 9 21 -18 10 -21 9 -19 -6z"/>
<path d="M2565 1390 c-16 -7 -17 -9 -3 -9 9 -1 19 -7 21 -13 3 -7 6 -3 6 10 1
12 0 22 -1 21 -2 0 -12 -4 -23 -9z"/>
<path d="M2560 1351 c0 -5 -3 -16 -6 -24 -4 -12 0 -14 15 -10 24 6 28 28 6 37
-8 3 -15 1 -15 -3z"/>
<path d="M2770 1340 c0 -6 7 -10 15 -10 8 0 15 2 15 4 0 2 -7 6 -15 10 -8 3
-15 1 -15 -4z"/>
<path d="M2460 1329 c0 -6 6 -9 14 -6 8 3 17 1 20 -6 2 -7 5 -4 5 6 1 11 -6
17 -19 17 -11 0 -20 -5 -20 -11z"/>
<path d="M2684 1312 c-9 -5 -8 -11 2 -20 12 -11 14 -9 14 8 0 22 0 23 -16 12z"/>
<path d="M2767 1303 c-3 -5 -2 -16 2 -25 4 -13 10 -15 21 -8 10 7 11 10 3 10
-7 0 -13 5 -13 11 0 5 5 7 10 4 6 -3 10 -1 10 4 0 12 -27 15 -33 4z"/>
<path d="M2561 1279 c7 -14 14 -18 21 -11 13 13 2 32 -18 32 -12 0 -13 -4 -3
-21z"/>
<path d="M2455 1280 c3 -5 8 -10 11 -10 2 0 4 5 4 10 0 6 -5 10 -11 10 -5 0
-7 -4 -4 -10z"/>
<path d="M2674 1249 c0 -22 6 -29 20 -29 15 0 17 3 9 11 -6 6 -9 17 -7 24 3 7
-1 15 -9 18 -11 4 -14 -2 -13 -24z"/>
<path d="M2125 1258 c-2 -7 -5 -22 -7 -33 -2 -12 -12 -21 -26 -23 -52 -8 -33
-62 22 -62 23 0 41 -9 61 -30 22 -23 32 -27 46 -19 26 13 24 32 -6 67 -15 18
-23 37 -19 46 3 9 3 27 0 41 -5 20 -13 25 -37 25 -16 0 -31 -6 -34 -12z m55
-28 c0 -26 -3 -29 -25 -28 -18 2 -25 8 -25 24 0 25 8 34 32 34 13 0 18 -8 18
-30z m-2 -63 c3 -17 -1 -18 -45 -11 -56 8 -65 12 -57 25 3 6 27 9 52 7 36 -2
48 -7 50 -21z m52 -49 c0 -18 -31 -20 -50 -3 -19 17 -19 19 -2 31 14 10 20 10
35 -3 9 -9 17 -20 17 -25z"/>
<path d="M2553 1237 c2 -6 13 -11 25 -12 13 -1 21 3 19 8 -2 6 -13 11 -25 12
-13 1 -21 -3 -19 -8z"/>
<path d="M2774 1229 c0 -22 22 -33 29 -15 3 7 -3 17 -12 23 -13 8 -17 7 -17
-8z"/>
<path d="M2670 1185 c0 -8 9 -15 20 -15 11 0 20 7 20 15 0 8 -9 15 -20 15 -11
0 -20 -7 -20 -15z"/>
<path d="M2770 1171 c0 -5 11 -8 25 -8 13 0 22 3 19 8 -3 5 -14 9 -25 9 -10 0
-19 -4 -19 -9z"/>
<path d="M143 1074 c-7 -3 -13 -13 -13 -22 0 -16 56 -17 748 -15 411 1 759 2
775 2 29 1 38 25 13 34 -18 7 -1507 7 -1523 1z m1422 -13 c61 -4 -221 -8 -626
-9 -405 -1 -750 -5 -767 -8 -20 -4 -32 -2 -32 4 0 6 21 13 48 15 85 6 1264 5
1377 -2z"/>
<path d="M2130 964 c-14 -14 -36 -30 -49 -37 -13 -7 -26 -17 -28 -23 -6 -18
145 -90 159 -76 8 8 8 15 -1 25 -9 12 -7 16 13 21 29 7 38 28 26 61 -7 19 -17
25 -39 25 -16 0 -31 6 -35 15 -8 21 -19 19 -46 -11z m40 0 c0 -3 -5 -14 -11
-25 -8 -16 -5 -27 15 -54 14 -19 26 -38 26 -44 0 -12 -129 50 -130 62 0 4 10
11 23 16 12 5 31 18 41 30 18 20 36 28 36 15z m54 -20 c24 -9 20 -51 -4 -59
-24 -8 -50 10 -50 35 0 29 19 37 54 24z"/>
<path d="M291 963 c-1 -18 4 -23 24 -23 14 0 27 0 30 0 3 0 4 3 3 8 -2 4 -13
6 -25 4 -14 -2 -23 4 -26 15 -4 14 -5 13 -6 -4z"/>
<path d="M390 950 c0 -25 17 -26 23 -2 4 15 5 15 6 -1 1 -21 22 -18 29 3 3 7
0 10 -6 6 -6 -3 -13 -2 -17 4 -11 18 -35 11 -35 -10z"/>
<path d="M468 964 c-7 -7 2 -44 11 -44 4 0 7 11 7 25 0 24 -7 31 -18 19z"/>
<path d="M580 946 c0 -16 28 -17 33 -1 3 6 -4 12 -14 12 -10 1 -19 -4 -19 -11z"/>
<path d="M630 945 c0 -8 5 -15 10 -15 6 0 10 7 10 15 0 8 -4 15 -10 15 -5 0
-10 -7 -10 -15z"/>
<path d="M667 946 c-3 -8 1 -17 9 -20 9 -4 14 1 14 14 0 23 -15 27 -23 6z"/>
<path d="M713 945 c-8 -22 6 -33 17 -15 13 20 12 30 0 30 -6 0 -13 -7 -17 -15z"/>
<path d="M760 944 c0 -9 5 -14 12 -12 18 6 21 28 4 28 -9 0 -16 -7 -16 -16z"/>
<path d="M830 944 c0 -14 -3 -14 -15 -4 -12 10 -15 10 -15 -4 0 -9 8 -16 20
-16 13 0 20 7 20 20 0 11 -2 20 -5 20 -3 0 -5 -7 -5 -16z"/>
<path d="M916 944 c-10 -25 -1 -27 19 -4 15 17 16 20 3 20 -9 0 -19 -7 -22
-16z"/>
<path d="M956 944 c-8 -21 -8 -21 9 -21 8 0 15 9 15 19 0 22 -16 24 -24 2z"/>
<path d="M1000 940 c0 -11 2 -20 4 -20 2 0 6 9 9 20 3 11 1 20 -4 20 -5 0 -9
-9 -9 -20z"/>
<path d="M1130 945 c0 -8 4 -15 8 -15 5 0 9 7 9 15 0 8 -4 15 -9 15 -4 0 -8
-7 -8 -15z"/>
<path d="M1167 953 c-4 -3 -7 -13 -7 -21 0 -12 3 -12 15 -2 8 7 15 16 15 21 0
11 -14 12 -23 2z"/>
<path d="M1260 938 c0 -21 0 -21 15 -2 12 15 14 16 15 3 0 -19 30 -21 30 -2 0
8 -4 12 -9 8 -5 -3 -12 -1 -16 5 -11 18 -35 11 -35 -12z"/>
<path d="M1347 953 c-10 -9 -8 -33 2 -33 5 0 11 9 14 20 5 20 -3 26 -16 13z"/>
<path d="M1620 945 c0 -8 5 -15 10 -15 6 0 10 7 10 15 0 8 -4 15 -10 15 -5 0
-10 -7 -10 -15z"/>
<path d="M1030 935 c0 -8 7 -15 15 -15 8 0 15 7 15 15 0 8 -7 15 -15 15 -8 0
-15 -7 -15 -15z"/>
<path d="M1430 937 c0 -7 9 -13 20 -14 11 -1 20 4 20 10 0 7 -9 13 -20 14 -11
1 -20 -4 -20 -10z"/>
<path d="M1487 930 c-3 -11 -1 -20 4 -20 5 0 9 9 9 20 0 11 -2 20 -4 20 -2 0
-6 -9 -9 -20z"/>
<path d="M1517 944 c-13 -14 -7 -32 11 -30 9 2 18 11 20 22 2 14 1 16 -6 5 -7
-9 -11 -10 -13 -2 -3 7 -8 9 -12 5z"/>
<path d="M1570 935 c0 -8 7 -15 15 -15 8 0 15 7 15 15 0 8 -7 15 -15 15 -8 0
-15 -7 -15 -15z"/>
<path d="M2425 890 c-4 -6 -3 -14 0 -20 9 -15 35 -12 35 4 0 17 -27 29 -35 16z"/>
<path d="M2425 841 c-7 -12 12 -24 25 -16 11 7 4 25 -10 25 -5 0 -11 -4 -15
-9z"/>
<path d="M2433 796 c0 -8 8 -17 17 -19 13 -3 16 0 13 14 -6 22 -30 26 -30 5z"/>
<path d="M2440 745 c7 -8 16 -15 21 -15 5 0 6 7 3 15 -4 8 -13 15 -21 15 -13
0 -13 -3 -3 -15z"/>
<path d="M2143 722 c-11 -19 -28 -33 -45 -36 -19 -4 -28 -12 -28 -25 0 -23 32
-44 58 -38 9 2 34 -5 54 -15 21 -10 44 -18 53 -18 17 0 21 35 4 45 -7 5 -3 14
9 26 37 34 2 87 -39 61 -24 -16 -27 -15 -25 4 2 30 -23 27 -41 -4z m12 -58
c-12 -18 -23 -24 -42 -22 -38 4 -39 24 -3 36 17 6 35 23 42 39 l13 28 3 -28
c2 -16 -4 -40 -13 -53z m90 25 c0 -27 -28 -38 -50 -19 -20 17 -19 25 8 38 30
15 42 10 42 -19z m-8 -67 c9 -22 -4 -24 -39 -6 -42 21 -40 18 -32 38 6 15 9
14 36 -2 17 -9 33 -23 35 -30z"/>
<path d="M2526 731 c-3 -4 8 -8 23 -7 16 1 27 4 24 9 -6 10 -41 9 -47 -2z"/>
<path d="M2432 713 c2 -9 8 -18 14 -20 16 -5 13 25 -3 32 -10 3 -13 -1 -11
-12z"/>
<path d="M2550 695 c-10 -12 -10 -15 4 -15 9 0 16 7 16 15 0 8 -2 15 -4 15 -2
0 -9 -7 -16 -15z"/>
<path d="M180 669 c-7 -11 -9 -27 -6 -34 2 -7 -7 -21 -21 -30 -19 -13 -24 -23
-20 -43 5 -26 3 -31 -26 -88 -13 -25 -15 -38 -6 -62 8 -23 7 -41 -5 -77 -9
-25 -16 -50 -16 -55 0 -13 77 -13 85 0 4 6 11 8 16 4 6 -3 26 -3 45 0 37 8 43
24 20 65 -11 21 -11 30 1 59 9 23 11 38 4 46 -6 7 -8 22 -4 34 3 12 1 28 -5
35 -7 8 -6 18 4 31 11 16 18 18 38 8 21 -9 25 -20 31 -77 4 -36 4 -94 1 -127
-7 -59 -1 -77 27 -78 5 0 7 63 5 140 -3 158 -7 166 -79 178 -41 7 -44 10 -41
36 3 27 -12 56 -29 56 -5 0 -13 -9 -19 -21z m30 -33 c0 -21 6 -36 15 -40 19
-7 19 -30 0 -49 -13 -13 -13 -16 0 -27 24 -20 19 -41 -9 -34 -13 3 -27 1 -31
-5 -4 -8 -12 -8 -26 -1 -27 15 -24 2 5 -21 24 -19 93 -146 84 -154 -3 -3 -18
-8 -35 -11 -27 -5 -33 -2 -61 42 -36 53 -50 110 -33 127 6 6 11 19 11 28 0 10
9 24 20 32 18 13 19 16 5 27 -22 19 -18 39 11 50 15 6 25 17 23 27 -3 30 1 43
11 43 6 0 10 -15 10 -34z m97 -56 c21 0 33 -71 31 -180 l-2 -105 -5 120 c-3
66 -10 126 -15 133 -4 8 -22 21 -40 29 -25 11 -26 13 -6 9 14 -3 30 -6 37 -6z
m-72 -142 c0 -37 -14 -37 -38 2 l-20 32 29 -4 c24 -2 29 -8 29 -30z m-92 -109
c20 -36 15 -49 -19 -49 -25 0 -29 14 -18 58 8 30 16 28 37 -9z"/>
<path d="M2438 673 c7 -3 16 -2 19 1 4 3 -2 6 -13 5 -11 0 -14 -3 -6 -6z"/>
<path d="M1152 648 c-7 -7 -12 -24 -12 -39 0 -15 -7 -32 -16 -40 -9 -7 -13
-21 -10 -35 4 -13 0 -27 -10 -35 -8 -7 -14 -24 -12 -40 1 -15 -5 -36 -14 -46
-18 -21 -58 -98 -58 -113 0 -5 20 -10 43 -10 47 0 62 11 90 65 l15 30 10 -26
c6 -14 22 -39 36 -56 24 -28 29 -30 78 -25 29 2 55 6 57 8 7 6 -48 89 -83 127
-20 21 -36 48 -36 61 0 12 -5 27 -12 34 -8 8 -8 15 0 25 7 8 10 16 8 18 -3 2
32 2 77 -1 l81 -5 8 -35 c5 -19 6 -79 2 -132 -5 -96 -5 -98 16 -98 21 0 21 2
18 136 -4 169 -3 167 -133 162 -83 -3 -90 -2 -93 17 -10 67 -23 80 -50 53z
m32 -14 c3 -9 6 -24 6 -35 0 -11 6 -28 12 -39 10 -15 10 -22 1 -31 -9 -9 -8
-15 3 -26 22 -23 17 -43 -11 -43 -14 0 -25 -5 -25 -10 0 -7 -6 -7 -19 0 -11 5
-27 7 -35 4 -25 -9 -20 33 5 46 15 9 18 15 9 24 -13 16 -4 42 17 50 9 4 13 13
9 22 -7 19 1 54 14 54 4 0 11 -7 14 -16z m204 -70 c12 -4 22 -14 22 -23 0 -14
-2 -14 -10 -1 -6 9 -32 17 -72 21 -62 6 -62 6 -13 7 28 1 60 -1 73 -4z m32
-160 c0 -63 -3 -113 -7 -111 -8 5 -5 227 3 227 2 0 4 -52 4 -116z m-186 25
c15 -11 45 -47 67 -80 l40 -59 -51 0 c-47 0 -52 2 -80 42 -63 87 -47 153 24
97z m-81 -27 c0 -18 -13 -48 -28 -67 -21 -28 -33 -35 -61 -35 -18 0 -34 2 -34
4 0 8 54 102 69 119 8 10 24 17 35 15 17 -2 21 -10 19 -36z"/>
<path d="M2540 646 c0 -10 9 -16 21 -16 24 0 21 23 -4 28 -10 2 -17 -3 -17
-12z"/>
<path d="M636 634 c-3 -9 -6 -23 -6 -32 0 -8 -8 -24 -17 -34 -9 -10 -17 -26
-18 -36 0 -9 -5 -24 -10 -32 -21 -33 -79 -219 -71 -227 2 -2 41 -5 86 -6 l82
-2 14 45 c16 51 15 156 0 182 -18 29 5 42 48 28 l36 -12 0 -119 c0 -97 3 -119
15 -119 20 0 28 55 23 162 -5 103 -18 123 -89 134 -34 6 -39 10 -39 33 0 44
-41 70 -54 35z m35 -11 c4 -40 6 -49 13 -65 4 -9 3 -26 -3 -37 -7 -13 -8 -22
-1 -26 5 -3 10 -15 10 -27 0 -14 -5 -18 -16 -14 -8 3 -23 2 -33 -4 -23 -12
-61 -2 -61 16 0 8 9 19 19 26 15 9 18 19 14 39 -4 21 0 30 16 39 12 6 19 15
16 21 -8 12 4 49 16 49 5 0 10 -8 10 -17z m81 -73 c20 -6 39 -18 42 -27 12
-30 17 -188 7 -218 -7 -23 -9 -4 -10 86 -1 127 -4 134 -59 145 -18 4 -32 10
-32 15 0 11 7 11 52 -1z m-142 -125 c14 -16 9 -71 -9 -117 -8 -22 -17 -28 -41
-28 -22 0 -30 5 -30 18 0 15 21 91 35 130 6 17 30 15 45 -3z m74 9 c20 -8 21
-53 2 -114 -12 -42 -16 -45 -49 -48 l-37 -3 16 43 c8 24 14 59 14 78 -1 19 -2
38 -1 43 1 9 33 9 55 1z"/>
<path d="M2433 625 c0 -14 5 -25 11 -25 6 0 11 11 11 25 0 14 -5 25 -11 25 -6
0 -11 -11 -11 -25z"/>
<path d="M813 613 c-13 -2 -23 -9 -23 -14 0 -6 9 -7 23 -2 59 20 107 -1 107
-48 0 -39 -42 -61 -67 -36 -13 13 -14 19 -5 29 7 7 12 17 12 23 0 5 -7 1 -15
-9 -15 -19 -15 -19 -15 1 0 12 -5 25 -10 28 -12 7 -4 -37 11 -67 11 -20 43
-31 68 -23 28 9 42 55 26 85 -19 35 -52 45 -112 33z"/>
<path d="M2540 606 c0 -2 7 -9 15 -16 12 -10 15 -10 15 4 0 9 -7 16 -15 16 -8
0 -15 -2 -15 -4z"/>
<path d="M2432 577 c-10 -12 -9 -16 4 -21 21 -8 23 -6 15 17 -6 17 -9 17 -19
4z"/>
<path d="M887 563 c-4 -3 -7 -11 -7 -17 0 -6 5 -5 12 2 6 6 9 14 7 17 -3 3 -9
2 -12 -2z"/>
<path d="M2536 559 c6 -11 44 -12 44 -1 0 4 -11 8 -25 8 -14 1 -22 -2 -19 -7z"/>
<path d="M2420 542 c0 -5 7 -13 16 -16 22 -8 24 -8 24 6 0 6 -3 8 -7 5 -3 -4
-12 -2 -20 4 -8 7 -13 8 -13 1z"/>
<path d="M2548 523 c6 -2 18 -2 25 0 6 3 1 5 -13 5 -14 0 -19 -2 -12 -5z"/>
<path d="M2111 484 c-12 -15 -21 -30 -21 -34 0 -4 -9 -10 -20 -13 -30 -8 -24
-25 15 -41 19 -8 52 -33 73 -55 49 -52 92 -57 92 -12 0 15 -9 39 -19 53 -13
16 -17 29 -10 39 12 19 11 66 -1 74 -6 4 -24 -7 -40 -24 l-30 -29 0 34 c0 41
-11 43 -39 8z m17 -35 c-18 -12 -22 5 -6 33 l13 23 3 -24 c2 -13 -2 -27 -10
-32z m92 12 c0 -28 -39 -71 -64 -71 -31 0 -86 20 -86 31 0 5 19 9 43 9 33 0
49 6 67 25 28 30 40 32 40 6z m4 -93 c42 -60 0 -78 -53 -24 -33 34 -33 34 -10
39 44 8 48 7 63 -15z"/>
<path d="M2540 493 c0 -7 9 -13 20 -13 12 0 17 5 14 13 -3 8 -11 14 -19 14 -8
0 -15 -6 -15 -14z"/>
<path d="M444 452 c-9 -5 -8 -10 2 -19 9 -9 15 -10 20 -2 8 14 -8 30 -22 21z"/>
<path d="M955 450 c-17 -7 -17 -9 -2 -9 9 -1 17 -6 17 -13 0 -9 3 -9 12 0 17
17 -2 32 -27 22z"/>
<path d="M2447 454 c-8 -8 1 -24 14 -24 5 0 9 7 9 15 0 15 -12 20 -23 9z"/>
<path d="M2548 453 c6 -2 18 -2 25 0 6 3 1 5 -13 5 -14 0 -19 -2 -12 -5z"/>
<path d="M2551 431 c-10 -6 -9 -10 3 -14 8 -3 18 -2 21 3 8 13 -9 20 -24 11z"/>
<path d="M2437 414 c7 -3 9 -12 6 -20 -3 -8 1 -14 10 -14 22 0 14 35 -9 37
-10 2 -14 0 -7 -3z"/>
<path d="M2544 385 c22 -17 36 -19 36 -6 0 10 -24 21 -43 21 -7 0 -3 -7 7 -15z"/>
<path d="M2442 361 c2 -7 7 -12 11 -12 12 1 9 15 -3 20 -7 2 -11 -2 -8 -8z"/>
<path d="M2555 350 c-11 -5 -14 -9 -7 -9 7 -1 10 -5 7 -11 -3 -5 0 -10 7 -10
8 0 14 9 14 20 0 11 0 20 -1 19 0 0 -9 -4 -20 -9z"/>
<path d="M2430 318 c0 -4 9 -8 20 -8 11 0 20 4 20 8 0 4 -9 8 -20 8 -11 0 -20
-4 -20 -8z"/>
<path d="M2540 300 c0 -5 7 -10 15 -10 8 0 15 5 15 10 0 6 -7 10 -15 10 -8 0
-15 -4 -15 -10z"/>
<path d="M2432 288 c7 -19 35 -21 35 -3 0 8 -9 15 -19 15 -11 0 -18 -5 -16
-12z"/>
<path d="M2540 267 c0 -5 6 -7 14 -4 8 3 17 1 20 -6 2 -7 5 -5 5 5 1 11 -6 16
-19 15 -11 -1 -20 -5 -20 -10z"/>
<path d="M2317 225 c32 -40 43 -44 43 -14 0 11 -4 18 -9 15 -4 -3 -16 3 -26
14 -31 34 -37 22 -8 -15z"/>
<path d="M2435 240 c3 -5 15 -10 26 -10 10 0 19 5 19 10 0 6 -12 10 -26 10
-14 0 -23 -4 -19 -10z"/>
<path d="M2435 210 c3 -5 13 -10 21 -10 8 0 12 5 9 10 -3 6 -13 10 -21 10 -8
0 -12 -4 -9 -10z"/>
<path d="M2543 180 c1 -21 7 -30 20 -30 9 0 17 4 17 10 0 5 -8 14 -17 19 -17
10 -17 10 0 11 9 0 17 5 17 10 0 6 -9 10 -20 10 -15 0 -19 -6 -17 -30z"/>
<path d="M2441 151 c-11 -7 -9 -11 7 -20 16 -9 20 -8 18 4 -3 21 -10 25 -25
16z"/>
<path d="M2553 112 c21 -23 22 -39 2 -22 -9 7 -18 11 -20 8 -9 -9 23 -30 34
-23 19 11 9 55 -13 55 -18 0 -18 -1 -3 -18z"/>
<path d="M2437 114 c8 -4 9 -13 3 -29 -9 -24 4 -45 18 -30 20 19 3 66 -23 64
-5 0 -5 -3 2 -5z"/>
<path d="M96 93 c-4 -9 -3 -20 2 -25 6 -6 11 1 14 16 6 29 -6 35 -16 9z"/>
<path d="M600 90 c0 -11 4 -20 9 -20 6 0 9 9 8 20 -1 11 -5 20 -9 20 -4 0 -8
-9 -8 -20z"/>
<path d="M744 94 c3 -9 6 -19 6 -22 0 -9 20 21 20 31 0 4 -7 7 -16 7 -11 0
-14 -5 -10 -16z"/>
<path d="M783 97 c2 -20 19 -25 26 -6 2 6 -1 9 -7 5 -6 -3 -13 0 -16 6 -3 7
-5 5 -3 -5z"/>
<path d="M827 103 c-12 -11 -8 -30 6 -30 7 0 14 9 14 19 2 18 -8 24 -20 11z"/>
<path d="M866 94 c-8 -21 -8 -21 9 -21 8 0 15 6 15 13 0 20 -17 26 -24 8z"/>
<path d="M967 103 c-11 -11 -8 -33 5 -33 6 0 8 3 5 7 -4 3 -2 12 4 20 11 13
-2 19 -14 6z"/>
<path d="M996 95 c-8 -22 -8 -22 9 -22 17 0 18 6 6 25 -7 11 -10 10 -15 -3z"/>
<path d="M1038 92 c-4 -16 -1 -19 18 -18 27 1 28 4 14 26 -9 13 -10 13 -10 0
0 -12 -2 -12 -9 -2 -6 11 -9 9 -13 -6z"/>
<path d="M1335 85 c0 -14 3 -25 8 -25 4 0 7 11 7 25 0 14 -3 25 -7 25 -5 0 -8
-11 -8 -25z"/>
<path d="M127 85 c-8 -20 -4 -29 11 -24 5 2 6 13 2 23 -6 19 -7 19 -13 1z"/>
<path d="M286 84 c-4 -9 -4 -19 -1 -22 3 -3 5 0 5 7 0 7 4 9 10 6 6 -3 7 1 4
9 -8 20 -10 20 -18 0z"/>
<path d="M310 93 c0 -5 5 -15 10 -23 8 -12 10 -11 10 8 0 12 -4 22 -10 22 -5
0 -10 -3 -10 -7z"/>
<path d="M341 84 c0 -11 3 -14 6 -6 3 7 2 16 -1 19 -3 4 -6 -2 -5 -13z"/>
<path d="M373 86 c3 -8 2 -17 -4 -20 -5 -2 -4 -3 2 -2 15 3 21 36 7 36 -6 0
-8 -6 -5 -14z"/>
<path d="M407 94 c-14 -14 -7 -30 13 -30 14 0 20 7 20 21 0 15 -2 17 -9 6 -6
-9 -10 -10 -12 -2 -3 7 -8 9 -12 5z"/>
<path d="M461 82 c-7 -14 -6 -18 9 -19 13 -1 16 4 13 18 -7 24 -10 24 -22 1z"/>
<path d="M560 80 c0 -19 11 -26 23 -14 8 8 -3 34 -14 34 -5 0 -9 -9 -9 -20z"/>
<path d="M636 92 c-3 -6 -1 -14 5 -17 14 -9 20 -2 10 14 -6 8 -11 9 -15 3z"/>
<path d="M671 87 c-1 -21 21 -18 27 4 3 12 2 12 -6 0 -8 -11 -10 -11 -15 0 -4
10 -6 8 -6 -4z"/>
<path d="M710 87 c0 -10 8 -17 18 -17 9 0 13 4 7 8 -5 4 -13 11 -17 16 -5 5
-8 2 -8 -7z"/>
<path d="M1091 84 c0 -11 3 -14 6 -6 3 7 2 16 -1 19 -3 4 -6 -2 -5 -13z"/>
<path d="M1110 83 c0 -7 7 -13 15 -13 8 0 15 6 15 13 0 8 -7 14 -15 14 -8 0
-15 -6 -15 -14z"/>
<path d="M1150 85 c0 -8 5 -15 10 -15 6 0 10 7 10 15 0 8 -4 15 -10 15 -5 0
-10 -7 -10 -15z"/>
<path d="M1187 88 c-3 -10 0 -19 9 -22 23 -9 24 -8 24 17 0 16 -3 18 -9 8 -7
-11 -9 -11 -13 0 -3 10 -6 9 -11 -3z"/>
<path d="M1240 79 c0 -24 23 -21 28 4 2 10 -3 17 -12 17 -10 0 -16 -9 -16 -21z"/>
<path d="M1280 85 c0 -8 7 -15 15 -15 8 0 15 7 15 15 0 8 -7 15 -15 15 -8 0
-15 -7 -15 -15z"/>
<path d="M170 76 c-9 -12 -8 -15 9 -13 12 1 21 7 21 14 0 17 -15 16 -30 -1z"/>
<path d="M1489 83 c-9 -2 -19 -14 -21 -26 -3 -18 1 -22 23 -24 35 -3 57 21 39
42 -7 8 -15 14 -19 14 -3 -1 -13 -3 -22 -6z m35 -34 c-8 -14 -34 -11 -34 4 0
8 3 17 7 20 9 9 34 -13 27 -24z"/>
</g>
</svg>
