<?xml version="1.0" standalone="no"?>
<!DOCTYPE svg PUBLIC "-//W3C//DTD SVG 20010904//EN"
 "http://www.w3.org/TR/2001/REC-SVG-20010904/DTD/svg10.dtd">
<svg version="1.0" xmlns="http://www.w3.org/2000/svg"
 width="271.000000pt" height="258.000000pt" viewBox="0 0 271.000000 258.000000"
 preserveAspectRatio="xMidYMid meet">
<metadata>
Created by potrace 1.10, written by Peter Selinger 2001-2011
</metadata>
<g transform="translate(0.000000,258.000000) scale(0.100000,-0.100000)"
fill="#000000" stroke="none">
<path d="M416 2563 c-6 -14 -5 -15 5 -6 7 7 10 15 7 18 -3 3 -9 -2 -12 -12z"/>
<path d="M485 2542 c-11 -66 -13 -132 -4 -132 5 0 9 21 9 48 0 26 4 64 9 85 5
20 5 37 1 37 -5 0 -11 -17 -15 -38z"/>
<path d="M788 2573 c6 -2 9 -10 6 -15 -4 -7 -2 -8 4 -4 18 11 14 26 -5 25 -11
0 -13 -3 -5 -6z"/>
<path d="M845 2523 c6 -83 15 -132 26 -139 32 -19 -22 -60 -56 -42 -12 7 -16
7 -11 0 3 -5 -2 -13 -12 -17 -16 -6 -16 -7 1 -16 14 -8 37 -1 101 30 46 23 87
48 90 57 3 8 22 40 42 70 20 30 34 57 32 59 -3 3 -28 -31 -57 -75 -51 -78 -68
-91 -99 -71 -16 9 -46 155 -39 183 3 11 0 18 -8 18 -10 0 -13 -14 -10 -57z"/>
<path d="M1074 2566 c-10 -8 -16 -17 -13 -20 3 -3 14 3 24 14 21 23 17 26 -11
6z"/>
<path d="M1500 2569 c0 -5 -5 -7 -12 -3 -7 4 -8 3 -4 -4 13 -22 -102 -192
-130 -192 -9 0 -12 -5 -8 -12 5 -7 3 -8 -5 -4 -7 5 -10 15 -7 23 4 8 1 11 -5
8 -6 -4 -8 -13 -5 -21 7 -17 -34 -56 -71 -68 -12 -4 -27 -14 -35 -23 -11 -14
-11 -16 2 -8 8 5 23 11 33 12 53 8 144 91 209 189 66 101 72 114 53 114 -8 0
-15 -5 -15 -11z"/>
<path d="M2082 2572 c-8 -5 -10 -16 -6 -27 5 -13 4 -16 -4 -11 -8 5 -10 2 -6
-8 5 -12 9 -13 19 -3 8 7 9 16 4 23 -5 6 -4 15 3 22 14 14 9 15 -10 4z"/>
<path d="M2155 2570 c-4 -6 -11 -7 -17 -4 -7 4 -8 2 -4 -4 9 -15 -61 -141 -92
-166 -13 -10 -21 -21 -17 -24 3 -3 12 3 21 14 14 16 14 15 0 -9 -55 -91 -73
-124 -79 -141 -5 -12 -14 -17 -26 -13 -14 3 -23 -5 -35 -30 -9 -19 -12 -32 -6
-28 11 7 -66 -133 -87 -157 -10 -11 -11 -18 -4 -23 6 -3 11 0 11 8 0 8 7 17
15 20 8 4 24 25 36 49 12 24 38 63 59 88 20 25 61 90 90 145 29 55 60 111 70
125 35 52 89 160 80 160 -5 0 -12 -5 -15 -10z m-205 -369 c0 -5 -7 -14 -15
-21 -13 -10 -15 -9 -15 9 0 12 6 21 15 21 8 0 15 -4 15 -9z"/>
<path d="M1200 2560 c-8 -5 -12 -12 -9 -15 4 -3 12 1 19 10 14 17 11 19 -10 5z"/>
<path d="M1862 2549 c-19 -30 -8 -34 12 -4 9 14 13 25 9 25 -5 0 -14 -9 -21
-21z"/>
<path d="M2417 2553 c4 -10 9 -11 16 -4 5 5 17 7 26 4 9 -4 13 -3 9 1 -3 4
-17 9 -31 10 -18 2 -24 -1 -20 -11z"/>
<path d="M2690 2551 c-6 -12 -7 -21 -1 -21 10 0 24 30 17 37 -2 3 -9 -5 -16
-16z"/>
<path d="M1275 2550 c3 -5 8 -10 11 -10 2 0 4 5 4 10 0 6 -5 10 -11 10 -5 0
-7 -4 -4 -10z"/>
<path d="M1767 2539 c4 -13 8 -18 11 -10 2 7 -1 18 -6 23 -8 8 -9 4 -5 -13z"/>
<path d="M755 2530 c-3 -5 0 -10 9 -10 8 0 17 -6 19 -12 4 -8 6 -9 6 -2 1 18
-26 37 -34 24z"/>
<path d="M2391 2514 c0 -11 3 -14 6 -6 3 7 2 16 -1 19 -3 4 -6 -2 -5 -13z"/>
<path d="M2490 2510 c0 -5 7 -10 15 -10 8 0 15 5 15 10 0 6 -7 10 -15 10 -8 0
-15 -4 -15 -10z"/>
<path d="M1617 2479 c7 -7 15 -10 18 -7 3 3 -2 9 -12 12 -14 6 -15 5 -6 -5z"/>
<path d="M2278 2453 c7 -3 16 -2 19 1 4 3 -2 6 -13 5 -11 0 -14 -3 -6 -6z"/>
<path d="M2017 2444 c-4 -4 -7 -14 -7 -23 0 -11 3 -12 11 -4 6 6 10 16 7 23
-2 6 -7 8 -11 4z"/>
<path d="M545 2430 c3 -5 11 -10 16 -10 6 0 7 5 4 10 -3 6 -11 10 -16 10 -6 0
-7 -4 -4 -10z"/>
<path d="M1810 2430 c0 -5 7 -10 15 -10 8 0 15 5 15 10 0 6 -7 10 -15 10 -8 0
-15 -4 -15 -10z"/>
<path d="M2240 2430 c0 -5 5 -10 11 -10 5 0 7 5 4 10 -3 6 -8 10 -11 10 -2 0
-4 -4 -4 -10z"/>
<path d="M1361 2401 c-8 -5 -9 -11 -3 -15 5 -3 12 1 16 9 6 17 6 18 -13 6z"/>
<path d="M472 2375 c0 -16 2 -22 5 -12 2 9 2 23 0 30 -3 6 -5 -1 -5 -18z"/>
<path d="M2285 2390 c3 -5 11 -10 16 -10 6 0 7 5 4 10 -3 6 -11 10 -16 10 -6
0 -7 -4 -4 -10z"/>
<path d="M266 2375 c4 -8 8 -15 10 -15 2 0 4 7 4 15 0 8 -4 15 -10 15 -5 0 -7
-7 -4 -15z"/>
<path d="M2220 2380 c0 -5 5 -10 11 -10 5 0 7 5 4 10 -3 6 -8 10 -11 10 -2 0
-4 -4 -4 -10z"/>
<path d="M2470 2354 c0 -14 3 -14 15 -4 8 7 15 14 15 16 0 2 -7 4 -15 4 -8 0
-15 -7 -15 -16z"/>
<path d="M1455 2349 c-4 -6 -5 -12 -2 -15 2 -3 7 2 10 11 7 17 1 20 -8 4z"/>
<path d="M441 2263 c-40 -138 -73 -247 -83 -276 -6 -15 -8 -30 -5 -34 3 -3 9
6 13 21 3 14 11 23 17 19 6 -3 7 -1 3 5 -3 6 7 53 24 104 34 102 64 227 57
234 -2 2 -14 -31 -26 -73z"/>
<path d="M1967 2333 c-4 -3 -7 -11 -7 -17 0 -6 5 -5 12 2 6 6 9 14 7 17 -3 3
-9 2 -12 -2z"/>
<path d="M246 2317 c3 -10 9 -15 12 -12 3 3 0 11 -7 18 -10 9 -11 8 -5 -6z"/>
<path d="M1601 2304 c0 -11 3 -14 6 -6 3 7 2 16 -1 19 -3 4 -6 -2 -5 -13z"/>
<path d="M2455 2299 c-4 -6 -5 -12 -2 -15 2 -3 7 2 10 11 7 17 1 20 -8 4z"/>
<path d="M745 2290 c-4 -6 -4 -10 -1 -10 2 0 11 -3 20 -6 9 -3 16 -2 16 4 0
14 -28 23 -35 12z"/>
<path d="M716 2263 c-6 -14 -5 -15 5 -6 7 7 10 15 7 18 -3 3 -9 -2 -12 -12z"/>
<path d="M2130 2257 c14 -6 28 -16 32 -22 5 -6 8 -5 8 3 0 7 -12 17 -26 22
-35 14 -45 11 -14 -3z"/>
<path d="M2197 2240 c9 -11 19 -17 21 -15 6 6 -18 35 -29 35 -5 0 -1 -9 8 -20z"/>
<path d="M2257 2240 c3 -11 1 -20 -5 -20 -6 0 -12 8 -14 18 -3 9 -5 -2 -5 -26
0 -40 1 -42 13 -20 7 13 16 30 20 38 4 8 12 18 18 22 6 5 2 8 -11 8 -16 0 -20
-5 -16 -20z"/>
<path d="M2513 2245 c-3 -9 -3 -18 -1 -21 3 -3 8 4 11 16 6 23 -1 27 -10 5z"/>
<path d="M1690 2240 c0 -5 5 -10 11 -10 5 0 7 5 4 10 -3 6 -8 10 -11 10 -2 0
-4 -4 -4 -10z"/>
<path d="M2145 2200 c-3 -6 1 -7 9 -4 18 7 21 14 7 14 -6 0 -13 -4 -16 -10z"/>
<path d="M2377 2203 c-4 -3 -7 -11 -7 -17 0 -6 5 -5 12 2 6 6 9 14 7 17 -3 3
-9 2 -12 -2z"/>
<path d="M2411 2194 c0 -11 3 -14 6 -6 3 7 2 16 -1 19 -3 4 -6 -2 -5 -13z"/>
<path d="M1095 2168 c-64 -22 -167 -83 -163 -95 1 -5 -6 -20 -16 -35 -10 -15
-16 -33 -14 -40 3 -8 12 0 21 18 26 51 173 113 287 120 78 6 80 3 25 -34 -5
-4 -15 -16 -21 -27 -6 -11 -22 -25 -35 -32 -13 -7 -29 -20 -36 -29 -7 -10 -25
-17 -43 -16 -16 0 -30 -4 -30 -9 0 -22 63 -8 103 24 23 17 43 35 45 38 10 21
237 -54 250 -83 2 -5 10 -8 18 -8 19 0 18 -13 -6 -43 -26 -33 -25 -41 6 -72
20 -20 29 -23 45 -15 10 6 19 18 19 27 0 15 -1 15 -18 0 -31 -29 -58 10 -38
57 l11 28 21 -24 c28 -31 67 -149 54 -162 -12 -12 -13 -56 -2 -72 4 -6 15 -13
24 -17 15 -5 17 -15 12 -69 -9 -103 -34 -189 -67 -235 -17 -24 -64 -66 -105
-93 -116 -79 -235 -99 -261 -44 -11 25 -30 31 -47 14 -15 -15 -160 25 -211 58
-27 17 -31 38 -5 27 44 -19 192 -58 238 -62 33 -3 64 1 88 11 33 14 40 14 60
1 21 -14 25 -14 47 4 21 18 23 22 11 41 -12 19 -11 25 6 44 22 24 62 95 62
111 0 6 10 15 22 20 12 6 26 18 32 28 9 14 5 23 -21 47 -19 18 -38 28 -47 24
-9 -3 -26 0 -39 9 -31 20 -212 87 -235 87 -11 0 -40 17 -65 37 -38 31 -43 39
-31 50 12 13 19 33 11 33 -1 0 -26 -21 -53 -47 -28 -27 -79 -61 -113 -77 l-61
-30 0 -78 c0 -48 4 -78 11 -78 23 0 -6 -22 -74 -57 -40 -21 -79 -38 -88 -39
-9 -1 -22 -5 -29 -9 -9 -6 -11 -4 -5 5 6 10 4 12 -8 7 -10 -3 -17 -2 -17 3 0
6 6 10 13 10 6 0 35 24 62 53 85 88 84 79 26 140 -28 29 -57 69 -65 89 -22 51
3 135 55 188 40 40 42 66 2 28 l-23 -21 -47 22 -48 22 -65 -21 c-112 -35 -168
-91 -208 -208 -17 -51 18 -115 82 -147 11 -6 20 -19 20 -28 -1 -9 2 -14 7 -12
10 7 31 -30 22 -39 -12 -12 -81 -6 -119 10 -43 17 -96 63 -88 75 2 4 0 10 -5
13 -5 4 1 34 14 71 13 36 20 65 15 65 -5 0 -7 7 -3 16 5 13 7 13 14 2 7 -10 9
-10 9 2 0 8 12 38 25 65 14 28 25 54 25 58 0 15 82 116 113 140 18 13 51 34
73 45 41 21 45 21 150 7 149 -20 228 -19 245 1 12 15 11 16 -11 9 -38 -12
-137 -7 -274 15 -67 11 -97 2 -173 -52 -53 -37 -90 -75 -98 -100 -4 -10 -11
-18 -17 -18 -5 0 -7 7 -4 16 3 9 2 12 -4 9 -6 -4 -10 -12 -9 -18 3 -17 -27
-87 -78 -186 -25 -46 -43 -85 -40 -87 2 -2 13 15 25 39 12 23 22 36 22 29 0
-7 -6 -25 -14 -40 -8 -15 -17 -44 -21 -63 -6 -30 -2 -41 21 -69 46 -55 156
-94 208 -74 36 14 5 91 -45 113 -16 7 -41 33 -55 57 l-26 44 23 57 c24 60 72
123 94 123 7 0 15 4 17 9 2 4 29 18 60 29 55 20 60 21 107 6 l49 -16 -24 -49
c-14 -27 -26 -70 -27 -96 -2 -27 -11 -65 -20 -87 -9 -21 -17 -43 -17 -48 0 -5
-10 -27 -22 -48 -18 -31 -28 -38 -43 -34 -16 4 -17 3 -5 -5 12 -8 12 -13 -5
-31 -13 -15 -15 -24 -8 -31 25 -25 142 38 182 97 26 38 44 40 49 6 2 -16 -16
-41 -70 -92 -58 -57 -70 -73 -58 -80 27 -17 84 -6 150 28 78 41 114 72 100 86
-15 15 -13 119 3 110 10 -6 10 -4 0 7 -20 21 -16 26 40 53 56 28 83 44 105 64
11 10 21 6 53 -22 22 -18 53 -36 69 -40 17 -3 33 -6 38 -7 24 -5 115 -40 162
-62 56 -26 78 -54 82 -108 3 -36 -39 -116 -75 -141 -18 -12 -34 -25 -37 -29
-12 -17 -90 -50 -121 -50 -36 -1 -178 33 -233 56 -24 10 -36 11 -53 1 l-23
-12 25 -26 c24 -26 150 -72 232 -85 18 -3 33 -9 33 -13 0 -4 6 -7 13 -8 6 0
28 -5 48 -10 74 -19 220 46 311 138 28 30 50 44 55 39 6 -6 19 -6 34 0 23 10
23 10 -6 8 -35 -2 -35 -2 -5 98 19 66 21 102 17 283 0 18 -4 28 -7 21 -5 -7
-9 -5 -14 6 -3 9 -4 21 -1 25 3 5 1 11 -5 15 -6 4 -8 11 -5 16 4 5 2 9 -3 9
-5 0 -12 14 -16 32 -10 52 -89 119 -190 161 -48 20 -104 37 -124 37 l-37 1 39
33 c43 37 41 59 -3 54 -16 -1 -35 5 -45 15 -22 22 -47 21 -121 -5z m105 -5 c0
-5 -31 -15 -69 -25 -38 -9 -93 -28 -122 -42 -66 -31 -76 -27 -16 9 81 47 207
82 207 58z m412 -448 c3 -14 1 -28 -3 -31 -11 -7 -28 36 -22 53 7 19 20 7 25
-22z m-938 -72 l34 -38 -28 -36 c-37 -45 -106 -94 -136 -94 -23 -1 -23 0 -6
20 9 11 20 22 23 25 15 13 58 98 64 128 4 17 8 32 11 32 2 0 19 -17 38 -37z
m794 -99 c1 -1 0 -9 -4 -18 -10 -25 -31 -19 -42 13 -13 37 -5 46 22 24 12 -10
22 -18 24 -19z m-133 -253 c-14 -14 -17 -14 -25 -1 -13 21 8 44 27 28 12 -10
12 -14 -2 -27z m-160 -71 c8 -13 -5 -13 -25 0 -13 8 -13 10 2 10 9 0 20 -4 23
-10z"/>
<path d="M1586 2165 c-3 -8 -12 -15 -21 -15 -8 0 -15 -4 -15 -10 0 -5 4 -10 9
-10 6 0 13 5 16 10 3 6 15 10 25 10 13 0 17 5 14 15 -4 8 -10 15 -14 15 -4 0
-10 -7 -14 -15z"/>
<path d="M2363 2146 c7 -14 13 -23 15 -21 7 6 -9 45 -18 45 -4 0 -3 -11 3 -24z"/>
<path d="M2050 2145 c0 -2 6 -8 13 -14 10 -8 14 -7 14 2 0 8 -6 14 -14 14 -7
0 -13 -1 -13 -2z"/>
<path d="M2460 2135 c-10 -12 -10 -15 2 -15 8 0 15 7 15 15 0 8 -1 15 -2 15
-2 0 -8 -7 -15 -15z"/>
<path d="M1641 2124 c0 -11 3 -14 6 -6 3 7 2 16 -1 19 -3 4 -6 -2 -5 -13z"/>
<path d="M2098 2133 c7 -3 16 -2 19 1 4 3 -2 6 -13 5 -11 0 -14 -3 -6 -6z"/>
<path d="M640 2126 c0 -2 11 -11 25 -20 14 -9 25 -13 25 -8 0 5 -11 14 -25 20
-14 6 -25 10 -25 8z"/>
<path d="M1616 2117 c3 -10 9 -15 12 -12 3 3 0 11 -7 18 -10 9 -11 8 -5 -6z"/>
<path d="M2310 2120 c-12 -8 -10 -10 8 -10 13 0 20 4 17 10 -7 12 -6 12 -25 0z"/>
<path d="M760 2110 c8 -5 20 -10 25 -10 6 0 3 5 -5 10 -8 5 -19 10 -25 10 -5
0 -3 -5 5 -10z"/>
<path d="M827 2109 c7 -7 15 -10 18 -7 3 3 -2 9 -12 12 -14 6 -15 5 -6 -5z"/>
<path d="M1166 2111 c9 -9 34 -9 34 -1 0 5 -9 8 -20 7 -10 -1 -17 -3 -14 -6z"/>
<path d="M1535 2109 c3 -8 -7 -21 -26 -31 -16 -10 -28 -22 -25 -27 4 -5 1 -11
-5 -13 -7 -2 -10 -11 -7 -18 3 -10 10 -4 22 18 9 17 23 32 30 32 7 0 19 6 25
14 9 10 8 16 -4 26 -13 11 -15 10 -10 -1z"/>
<path d="M1578 2103 c7 -3 16 -2 19 1 4 3 -2 6 -13 5 -11 0 -14 -3 -6 -6z"/>
<path d="M1629 2083 c-13 -16 -12 -17 4 -4 16 13 21 21 13 21 -2 0 -10 -8 -17
-17z"/>
<path d="M788 2083 c7 -3 16 -2 19 1 4 3 -2 6 -13 5 -11 0 -14 -3 -6 -6z"/>
<path d="M1665 2080 c-3 -5 1 -10 9 -10 9 0 16 5 16 10 0 6 -4 10 -9 10 -6 0
-13 -4 -16 -10z"/>
<path d="M2340 2079 c0 -5 5 -7 10 -4 6 3 10 8 10 11 0 2 -4 4 -10 4 -5 0 -10
-5 -10 -11z"/>
<path d="M255 2060 c-3 -5 -1 -10 4 -10 6 0 11 5 11 10 0 6 -2 10 -4 10 -3 0
-8 -4 -11 -10z"/>
<path d="M1022 2054 c-7 -8 -8 -14 -3 -14 10 0 25 19 20 25 -2 1 -10 -3 -17
-11z"/>
<path d="M1519 2038 c-16 -18 -29 -36 -29 -40 0 -8 18 9 54 50 30 35 8 25 -25
-10z"/>
<path d="M1646 2045 c-3 -8 -1 -15 3 -15 5 0 11 7 15 15 3 8 1 15 -3 15 -5 0
-11 -7 -15 -15z"/>
<path d="M1743 2035 c-3 -9 -3 -18 -1 -21 3 -3 8 4 11 16 6 23 -1 27 -10 5z"/>
<path d="M2425 2041 c-3 -5 -2 -12 3 -15 5 -3 9 1 9 9 0 17 -3 19 -12 6z"/>
<path d="M1593 2025 c0 -8 4 -12 9 -9 4 3 8 9 8 15 0 5 -4 9 -8 9 -5 0 -9 -7
-9 -15z"/>
<path d="M2105 2030 c3 -5 8 -10 11 -10 2 0 4 5 4 10 0 6 -5 10 -11 10 -5 0
-7 -4 -4 -10z"/>
<path d="M2288 2033 c7 -3 16 -2 19 1 4 3 -2 6 -13 5 -11 0 -14 -3 -6 -6z"/>
<path d="M1766 2017 c3 -10 9 -15 12 -12 3 3 0 11 -7 18 -10 9 -11 8 -5 -6z"/>
<path d="M990 2009 c0 -5 5 -7 10 -4 6 3 10 8 10 11 0 2 -4 4 -10 4 -5 0 -10
-5 -10 -11z"/>
<path d="M1295 2010 c-3 -6 1 -7 9 -4 18 7 21 14 7 14 -6 0 -13 -4 -16 -10z"/>
<path d="M1621 2004 c0 -11 3 -14 6 -6 3 7 2 16 -1 19 -3 4 -6 -2 -5 -13z"/>
<path d="M2020 2012 c0 -5 14 -21 30 -37 17 -16 30 -26 30 -23 0 3 -13 19 -30
36 -16 18 -30 28 -30 24z"/>
<path d="M770 2000 c8 -5 20 -10 25 -10 6 0 3 5 -5 10 -8 5 -19 10 -25 10 -5
0 -3 -5 5 -10z"/>
<path d="M950 2006 c0 -2 7 -9 15 -16 9 -7 15 -8 15 -2 0 5 -7 12 -15 16 -8 3
-15 4 -15 2z"/>
<path d="M1017 1995 c-5 -11 0 -15 16 -15 12 0 18 4 12 8 -5 4 -13 11 -16 15
-4 4 -9 1 -12 -8z"/>
<path d="M1520 1999 c0 -5 5 -7 10 -4 6 3 10 8 10 11 0 2 -4 4 -10 4 -5 0 -10
-5 -10 -11z"/>
<path d="M1990 2002 c0 -12 19 -26 26 -19 2 2 -2 10 -11 17 -9 8 -15 8 -15 2z"/>
<path d="M700 1996 c0 -2 7 -7 16 -10 8 -3 12 -2 9 4 -6 10 -25 14 -25 6z"/>
<path d="M1342 1977 c-5 -6 -12 -22 -16 -33 -5 -16 -2 -23 14 -27 29 -7 53 19
40 43 -14 26 -26 32 -38 17z m26 -30 c2 -10 -3 -17 -12 -17 -9 0 -14 8 -13 20
2 24 21 21 25 -3z"/>
<path d="M1400 1982 c0 -15 28 -23 36 -9 4 7 4 9 -1 5 -4 -4 -14 -3 -22 3 -8
7 -13 8 -13 1z"/>
<path d="M1963 1975 c-6 -6 -8 -18 -3 -24 5 -9 9 -5 13 10 7 28 6 31 -10 14z"/>
<path d="M2255 1980 c3 -5 8 -10 11 -10 2 0 4 5 4 10 0 6 -5 10 -11 10 -5 0
-7 -4 -4 -10z"/>
<path d="M751 1977 c2 -1 15 -11 29 -22 l25 -20 -19 23 c-11 12 -24 22 -29 22
-6 0 -8 -1 -6 -3z"/>
<path d="M892 1966 c7 -8 15 -12 17 -11 5 6 -10 25 -20 25 -5 0 -4 -6 3 -14z"/>
<path d="M1160 1960 c-23 -23 -19 -40 9 -40 24 0 43 23 35 44 -8 21 -20 20
-44 -4z m30 -8 c0 -13 -12 -22 -22 -16 -10 6 -1 24 13 24 5 0 9 -4 9 -8z"/>
<path d="M1633 1974 c3 -4 0 -16 -8 -28 -8 -11 -15 -25 -15 -31 0 -5 9 5 20
23 23 38 24 42 8 42 -6 0 -8 -3 -5 -6z"/>
<path d="M492 1961 c-11 -7 -10 -9 3 -14 9 -4 13 -3 10 2 -3 5 3 12 12 14 13
3 14 5 3 6 -8 0 -21 -3 -28 -8z"/>
<path d="M566 1954 c-5 -13 -3 -14 6 -7 7 6 20 13 28 16 10 4 8 6 -6 6 -12 1
-25 -6 -28 -15z"/>
<path d="M716 1959 c3 -6 9 -8 12 -5 3 3 14 -1 24 -11 10 -9 18 -11 18 -5 0
13 -13 22 -40 27 -12 2 -18 0 -14 -6z"/>
<path d="M1015 1960 c4 -6 11 -8 16 -5 14 9 11 15 -7 15 -8 0 -12 -5 -9 -10z"/>
<path d="M1450 1961 c0 -5 -11 -12 -25 -15 -14 -4 -25 -11 -25 -16 0 -14 13
-13 28 2 6 6 15 8 19 4 5 -4 1 -13 -8 -20 -9 -6 -18 -20 -20 -31 -3 -11 -10
-21 -17 -21 -25 -3 -26 -6 -7 -13 25 -10 35 -5 35 18 0 10 9 26 20 36 13 12
17 22 11 28 -5 5 -7 16 -4 23 3 8 2 14 -1 14 -3 0 -6 -4 -6 -9z"/>
<path d="M1581 1952 c-6 -11 -6 -24 0 -33 7 -11 9 -11 9 4 0 9 4 17 8 17 5 0
9 7 9 15 0 21 -14 19 -26 -3z"/>
<path d="M1917 1949 c4 -13 8 -18 11 -10 2 7 -1 18 -6 23 -8 8 -9 4 -5 -13z"/>
<path d="M2027 1954 c6 -15 23 -19 23 -5 0 5 -7 11 -14 14 -10 4 -13 1 -9 -9z"/>
<path d="M2220 1966 c0 -2 7 -7 16 -10 8 -3 12 -2 9 4 -6 10 -25 14 -25 6z"/>
<path d="M428 1953 c6 -2 18 -2 25 0 6 3 1 5 -13 5 -14 0 -19 -2 -12 -5z"/>
<path d="M680 1950 c8 -5 20 -10 25 -10 6 0 3 5 -5 10 -8 5 -19 10 -25 10 -5
0 -3 -5 5 -10z"/>
<path d="M860 1950 c-11 -7 -11 -10 -2 -10 7 0 11 -4 7 -9 -3 -5 0 -13 6 -17
7 -4 9 -3 5 4 -3 5 0 13 6 15 10 4 10 6 0 6 -7 1 -10 6 -7 11 8 12 4 12 -15 0z"/>
<path d="M1745 1950 c3 -5 8 -10 11 -10 2 0 4 5 4 10 0 6 -5 10 -11 10 -5 0
-7 -4 -4 -10z"/>
<path d="M1650 1935 c0 -5 5 -17 10 -25 5 -8 10 -10 10 -5 0 6 -5 17 -10 25
-5 8 -10 11 -10 5z"/>
<path d="M1936 1925 c-9 -26 -7 -32 5 -12 6 10 9 21 6 23 -2 3 -7 -2 -11 -11z"/>
<path d="M2035 1920 c-3 -5 -1 -10 4 -10 6 0 11 5 11 10 0 6 -2 10 -4 10 -3 0
-8 -4 -11 -10z"/>
<path d="M2402 1910 c0 -14 2 -19 5 -12 2 6 2 18 0 25 -3 6 -5 1 -5 -13z"/>
<path d="M1780 1910 c0 -5 5 -10 10 -10 6 0 10 5 10 10 0 6 -4 10 -10 10 -5 0
-10 -4 -10 -10z"/>
<path d="M1977 1913 c-4 -3 -7 -13 -7 -22 1 -13 3 -13 11 2 11 19 8 33 -4 20z"/>
<path d="M1385 1900 c3 -5 8 -10 11 -10 2 0 4 5 4 10 0 6 -5 10 -11 10 -5 0
-7 -4 -4 -10z"/>
<path d="M1507 1889 c4 -13 9 -17 15 -11 11 11 3 32 -12 32 -4 0 -6 -9 -3 -21z"/>
<path d="M2361 1894 c0 -11 3 -14 6 -6 3 7 2 16 -1 19 -3 4 -6 -2 -5 -13z"/>
<path d="M1860 1891 c0 -10 29 -36 34 -30 1 2 -6 12 -16 22 -10 9 -18 13 -18
8z"/>
<path d="M2071 1884 c0 -11 3 -14 6 -6 3 7 2 16 -1 19 -3 4 -6 -2 -5 -13z"/>
<path d="M1646 1875 c-9 -26 -7 -32 5 -12 6 10 9 21 6 23 -2 3 -7 -2 -11 -11z"/>
<path d="M1170 1869 c0 -5 5 -7 10 -4 6 3 10 8 10 11 0 2 -4 4 -10 4 -5 0 -10
-5 -10 -11z"/>
<path d="M1952 1855 c0 -16 2 -22 5 -12 2 9 2 23 0 30 -3 6 -5 -1 -5 -18z"/>
<path d="M2044 1855 c0 -14 4 -25 9 -25 10 0 9 38 -2 44 -5 3 -8 -5 -7 -19z"/>
<path d="M2181 1864 c0 -11 3 -14 6 -6 3 7 2 16 -1 19 -3 4 -6 -2 -5 -13z"/>
<path d="M727 1855 c3 -8 9 -12 14 -9 12 7 11 11 -5 17 -10 4 -13 1 -9 -8z"/>
<path d="M1003 1862 c-34 -10 -63 -39 -57 -57 9 -22 37 -18 54 8 14 20 32 58
27 56 -1 -1 -12 -4 -24 -7z m-13 -37 c-7 -8 -17 -15 -23 -15 -5 0 -2 9 8 20
21 23 35 19 15 -5z"/>
<path d="M1445 1860 c3 -5 8 -10 11 -10 2 0 4 5 4 10 0 6 -5 10 -11 10 -5 0
-7 -4 -4 -10z"/>
<path d="M470 1840 c-8 -5 -12 -12 -9 -15 4 -3 12 1 19 10 14 17 11 19 -10 5z"/>
<path d="M1786 1835 c-9 -26 -7 -32 5 -12 6 10 9 21 6 23 -2 3 -7 -2 -11 -11z"/>
<path d="M2010 1839 c0 -5 5 -7 10 -4 6 3 10 8 10 11 0 2 -4 4 -10 4 -5 0 -10
-5 -10 -11z"/>
<path d="M2067 1830 c-3 -11 -1 -20 4 -20 5 0 9 9 9 20 0 11 -2 20 -4 20 -2 0
-6 -9 -9 -20z"/>
<path d="M1360 1828 c0 -3 6 -8 13 -11 15 -5 -19 -47 -40 -47 -7 0 -13 -4 -13
-10 0 -5 4 -10 9 -10 6 0 13 5 16 10 3 6 15 10 26 10 10 0 19 4 19 9 0 5 15
18 33 30 17 11 27 21 22 21 -6 0 -16 -5 -23 -12 -9 -9 -12 -8 -12 4 0 11 -8
15 -25 14 -14 0 -25 -4 -25 -8z"/>
<path d="M1620 1825 c0 -8 2 -15 4 -15 2 0 6 7 10 15 3 8 1 15 -4 15 -6 0 -10
-7 -10 -15z"/>
<path d="M1740 1830 c0 -5 5 -10 11 -10 5 0 7 5 4 10 -3 6 -8 10 -11 10 -2 0
-4 -4 -4 -10z"/>
<path d="M1865 1830 c-3 -5 -2 -10 4 -10 5 0 13 5 16 10 3 6 2 10 -4 10 -5 0
-13 -4 -16 -10z"/>
<path d="M500 1820 c0 -5 5 -10 11 -10 5 0 7 5 4 10 -3 6 -8 10 -11 10 -2 0
-4 -4 -4 -10z"/>
<path d="M1078 1823 c7 -3 16 -2 19 1 4 3 -2 6 -13 5 -11 0 -14 -3 -6 -6z"/>
<path d="M2100 1820 c0 -5 5 -10 10 -10 6 0 10 5 10 10 0 6 -4 10 -10 10 -5 0
-10 -4 -10 -10z"/>
<path d="M543 1809 c9 -6 21 -8 26 -4 5 3 12 0 14 -5 3 -6 5 -5 3 1 -1 7 -15
13 -31 15 -24 2 -27 1 -12 -7z"/>
<path d="M1181 1806 c-13 -16 -4 -46 14 -46 19 0 38 28 31 45 -7 19 -30 19
-45 1z m25 -23 c-10 -10 -19 5 -10 18 6 11 8 11 12 0 2 -7 1 -15 -2 -18z"/>
<path d="M1470 1809 c0 -5 -5 -7 -12 -3 -7 4 -8 3 -4 -5 6 -9 11 -9 22 0 17
14 18 19 4 19 -5 0 -10 -5 -10 -11z"/>
<path d="M1906 1805 c7 -18 0 -19 -28 -4 -15 8 -23 8 -32 -2 -8 -9 -8 -10 2
-5 7 4 23 1 36 -7 20 -14 23 -13 34 3 11 17 7 30 -9 30 -5 0 -6 -7 -3 -15z"/>
<path d="M691 1794 c0 -11 3 -14 6 -6 3 7 2 16 -1 19 -3 4 -6 -2 -5 -13z"/>
<path d="M730 1795 c7 -9 15 -13 17 -11 7 7 -7 26 -19 26 -6 0 -6 -6 2 -15z"/>
<path d="M1940 1795 c-8 -9 -8 -15 -2 -15 12 0 26 19 19 26 -2 2 -10 -2 -17
-11z"/>
<path d="M420 1796 c0 -2 7 -7 16 -10 8 -3 12 -2 9 4 -6 10 -25 14 -25 6z"/>
<path d="M2016 1781 c-10 -10 -14 -21 -9 -24 4 -3 16 6 26 19 21 28 8 32 -17
5z"/>
<path d="M2081 1784 c0 -11 3 -14 6 -6 3 7 2 16 -1 19 -3 4 -6 -2 -5 -13z"/>
<path d="M157 1783 c-4 -3 -7 -11 -7 -17 0 -6 5 -5 12 2 6 6 9 14 7 17 -3 3
-9 2 -12 -2z"/>
<path d="M1967 1774 c-4 -4 -7 -14 -7 -23 0 -11 3 -12 11 -4 6 6 10 16 7 23
-2 6 -7 8 -11 4z"/>
<path d="M771 1754 c0 -11 3 -14 6 -6 3 7 2 16 -1 19 -3 4 -6 -2 -5 -13z"/>
<path d="M1369 1751 c-23 -19 -23 -20 -5 -39 15 -17 21 -19 37 -9 25 16 35 47
18 58 -20 12 -24 11 -50 -10z m41 -11 c0 -12 -28 -25 -36 -17 -9 9 6 27 22 27
8 0 14 -5 14 -10z"/>
<path d="M1856 1755 c4 -8 7 -15 9 -15 2 0 5 7 9 15 3 9 0 15 -9 15 -9 0 -12
-6 -9 -15z"/>
<path d="M2300 1759 c0 -5 5 -7 10 -4 6 3 10 8 10 11 0 2 -4 4 -10 4 -5 0 -10
-5 -10 -11z"/>
<path d="M111 1744 c0 -11 3 -14 6 -6 3 7 2 16 -1 19 -3 4 -6 -2 -5 -13z"/>
<path d="M1890 1745 c-11 -13 -10 -15 4 -9 11 4 16 1 17 -12 0 -11 3 -14 5 -7
3 7 1 19 -4 28 -8 15 -10 15 -22 0z"/>
<path d="M1990 1743 c-1 -4 -4 -27 -9 -50 -6 -29 -5 -40 3 -37 7 3 12 12 13
22 0 9 3 27 6 39 3 13 2 25 -4 28 -5 4 -9 3 -9 -2z"/>
<path d="M2030 1734 c0 -8 5 -12 10 -9 6 3 10 10 10 16 0 5 -4 9 -10 9 -5 0
-10 -7 -10 -16z"/>
<path d="M2276 1733 c-6 -14 -5 -15 5 -6 7 7 10 15 7 18 -3 3 -9 -2 -12 -12z"/>
<path d="M1150 1730 c18 -12 30 -13 30 -2 0 4 -10 9 -22 9 -18 2 -20 0 -8 -7z"/>
<path d="M1299 1733 c-1 -5 -1 -12 0 -17 1 -5 -7 -6 -19 -3 -11 3 -20 2 -20
-3 0 -8 24 -20 40 -20 11 0 40 29 40 41 0 11 -39 12 -41 2z"/>
<path d="M1473 1725 c-7 -8 -9 -16 -4 -19 5 -3 12 1 15 10 8 22 4 25 -11 9z"/>
<path d="M1775 1728 c1 -7 8 -12 15 -10 7 1 18 -5 26 -15 7 -10 14 -13 14 -6
0 6 3 20 6 30 5 15 4 16 -5 3 -10 -13 -12 -13 -21 0 -8 12 -11 13 -19 1 -6 -9
-10 -10 -14 -2 -3 7 -4 7 -2 -1z"/>
<path d="M2066 1709 c-3 -17 -3 -35 0 -40 3 -6 0 -16 -6 -24 -7 -8 -8 -15 -4
-15 5 0 15 9 22 20 8 13 8 20 2 20 -7 0 -8 13 -4 35 3 19 4 35 1 35 -2 0 -7
-14 -11 -31z"/>
<path d="M690 1715 c0 -5 5 -17 10 -25 5 -8 10 -10 10 -5 0 6 -5 17 -10 25 -5
8 -10 11 -10 5z"/>
<path d="M2029 1703 c-1 -16 -7 -39 -15 -58 -7 -18 -6 -18 7 -5 18 17 31 70
18 70 -5 0 -9 -3 -10 -7z"/>
<path d="M1326 1685 c-11 -8 -15 -15 -9 -15 6 0 16 7 23 15 16 19 11 19 -14 0z"/>
<path d="M1782 1691 c-17 -11 -26 -81 -10 -81 6 0 9 3 5 6 -3 4 0 22 9 42 16
38 15 45 -4 33z"/>
<path d="M1890 1690 c0 -5 5 -10 11 -10 5 0 7 5 4 10 -3 6 -8 10 -11 10 -2 0
-4 -4 -4 -10z"/>
<path d="M1956 1691 c-4 -7 -5 -15 -2 -18 9 -9 19 4 14 18 -4 11 -6 11 -12 0z"/>
<path d="M1260 1681 c0 -5 7 -12 16 -15 24 -9 27 -7 10 9 -17 17 -26 19 -26 6z"/>
<path d="M2135 1680 c-3 -5 -1 -10 4 -10 6 0 11 5 11 10 0 6 -2 10 -4 10 -3 0
-8 -4 -11 -10z"/>
<path d="M1020 1676 c0 -2 9 -6 20 -9 11 -3 18 -1 14 4 -5 9 -34 13 -34 5z"/>
<path d="M2510 1670 c-13 -8 -12 -10 3 -10 9 0 17 5 17 10 0 12 -1 12 -20 0z"/>
<path d="M1006 1655 c4 -8 1 -15 -5 -15 -6 0 -11 -5 -11 -12 0 -6 9 -3 20 7
22 20 25 15 9 -18 -10 -21 -10 -21 5 -3 21 26 20 33 -4 46 -16 9 -18 8 -14 -5z"/>
<path d="M1887 1663 c-4 -6 0 -16 8 -23 17 -14 20 -50 5 -50 -5 0 -10 7 -10
16 0 14 -3 14 -15 4 -20 -17 -19 -31 3 -23 9 3 0 -10 -21 -28 -20 -19 -37 -39
-37 -46 0 -7 -9 -9 -22 -5 -21 5 -22 4 -8 -13 14 -17 13 -18 -2 -12 -13 4 -18
1 -18 -11 0 -15 -2 -15 -10 -2 -8 12 -11 11 -16 -8 -5 -18 -9 -20 -15 -10 -7
10 -9 9 -9 -4 0 -10 -4 -18 -10 -18 -5 0 -10 -4 -10 -10 0 -16 14 -12 38 10
14 14 22 16 22 8 1 -8 5 -7 14 5 7 9 17 17 22 17 15 1 72 57 78 78 9 28 42 56
51 42 4 -6 1 -18 -7 -27 -12 -15 -11 -15 9 -2 24 15 40 41 20 34 -7 -3 -21 16
-32 42 -12 27 -24 43 -28 36z"/>
<path d="M1923 1657 c0 -7 9 -14 19 -14 16 -2 17 1 8 13 -15 18 -27 18 -27 1z"/>
<path d="M390 1640 c6 -11 13 -20 16 -20 2 0 0 9 -6 20 -6 11 -13 20 -16 20
-2 0 0 -9 6 -20z"/>
<path d="M417 1649 c7 -7 15 -10 18 -7 3 3 -2 9 -12 12 -14 6 -15 5 -6 -5z"/>
<path d="M780 1650 c8 -5 20 -10 25 -10 6 0 3 5 -5 10 -8 5 -19 10 -25 10 -5
0 -3 -5 5 -10z"/>
<path d="M1450 1654 c0 -3 7 -12 15 -20 16 -17 18 -14 9 10 -6 15 -24 23 -24
10z"/>
<path d="M1732 1647 c-7 -8 -6 -19 3 -37 13 -25 14 -24 12 12 -2 43 -1 42 -15
25z"/>
<path d="M2411 1643 c-52 -41 -161 -155 -161 -170 0 -6 -6 -16 -14 -22 -8 -7
-12 -21 -8 -33 3 -14 1 -19 -6 -14 -8 4 -12 0 -12 -12 0 -10 -3 -22 -7 -26 -5
-4 -8 -11 -9 -14 0 -4 -4 -14 -7 -22 -19 -43 -36 -103 -32 -110 2 -4 -9 -22
-25 -40 -17 -19 -30 -38 -30 -43 0 -4 -7 -15 -16 -24 -8 -9 -13 -22 -10 -30 3
-8 -3 -33 -14 -56 -11 -22 -20 -48 -20 -56 0 -21 42 60 65 124 10 28 28 60 41
72 13 12 24 34 24 48 0 38 96 254 133 300 47 58 106 112 141 129 25 12 27 16
11 16 -12 0 -31 -8 -44 -17z"/>
<path d="M1056 1633 c-6 -14 -5 -15 5 -6 7 7 10 15 7 18 -3 3 -9 -2 -12 -12z"/>
<path d="M900 1630 c-8 -5 -11 -12 -8 -16 4 -3 14 1 23 10 18 17 9 21 -15 6z"/>
<path d="M1069 1613 c-13 -16 -12 -17 4 -4 9 7 17 15 17 17 0 8 -8 3 -21 -13z"/>
<path d="M1147 1609 c4 -13 8 -18 11 -10 2 7 -1 18 -6 23 -8 8 -9 4 -5 -13z"/>
<path d="M1210 1615 c-7 -9 -10 -18 -7 -21 3 -3 10 4 17 15 13 25 8 27 -10 6z"/>
<path d="M1930 1621 c0 -5 7 -11 14 -14 10 -4 13 -1 9 9 -6 15 -23 19 -23 5z"/>
<path d="M1970 1623 c0 -7 8 -17 18 -22 15 -9 15 -12 2 -21 -8 -5 -10 -10 -4
-10 13 0 54 34 54 45 0 4 -7 2 -16 -6 -13 -10 -17 -10 -25 2 -5 8 -9 10 -9 4
0 -5 -5 -3 -10 5 -6 9 -10 10 -10 3z"/>
<path d="M265 1610 c3 -5 8 -10 11 -10 2 0 4 5 4 10 0 6 -5 10 -11 10 -5 0 -7
-4 -4 -10z"/>
<path d="M2575 1610 c-3 -5 1 -10 9 -10 9 0 16 5 16 10 0 6 -4 10 -9 10 -6 0
-13 -4 -16 -10z"/>
<path d="M126 1483 c-66 -133 -116 -253 -116 -280 0 -14 3 -12 14 8 7 14 16
37 20 52 7 30 76 179 86 187 3 3 17 31 29 63 13 31 27 60 32 63 11 7 12 24 1
24 -4 0 -34 -52 -66 -117z"/>
<path d="M1701 1584 c0 -11 3 -14 6 -6 3 7 2 16 -1 19 -3 4 -6 -2 -5 -13z"/>
<path d="M280 1581 c0 -5 5 -13 10 -16 6 -3 10 -2 10 4 0 5 -4 13 -10 16 -5 3
-10 2 -10 -4z"/>
<path d="M980 1580 c0 -5 5 -10 10 -10 6 0 10 5 10 10 0 6 -4 10 -10 10 -5 0
-10 -4 -10 -10z"/>
<path d="M1301 1564 c0 -11 3 -14 6 -6 3 7 2 16 -1 19 -3 4 -6 -2 -5 -13z"/>
<path d="M510 1556 c0 -2 7 -7 16 -10 8 -3 12 -2 9 4 -6 10 -25 14 -25 6z"/>
<path d="M1955 1549 c-11 -17 1 -21 15 -4 8 9 8 15 2 15 -6 0 -14 -5 -17 -11z"/>
<path d="M300 1540 c0 -5 5 -10 11 -10 5 0 7 5 4 10 -3 6 -8 10 -11 10 -2 0
-4 -4 -4 -10z"/>
<path d="M2570 1530 c0 -11 2 -20 4 -20 2 0 6 9 9 20 3 11 1 20 -4 20 -5 0 -9
-9 -9 -20z"/>
<path d="M2000 1513 l-25 -25 25 13 c14 7 32 12 39 10 13 -2 13 0 2 13 -8 9
-14 16 -15 15 0 0 -12 -12 -26 -26z"/>
<path d="M912 1519 c16 -11 48 -12 48 -1 0 4 -14 7 -31 8 -20 1 -26 -2 -17 -7z"/>
<path d="M1087 1523 c-9 -8 12 -33 27 -33 6 0 2 6 -9 12 -19 11 -19 11 0 19
15 6 16 8 4 8 -9 1 -19 -2 -22 -6z"/>
<path d="M1307 1515 c-5 -11 0 -15 16 -15 12 0 18 4 12 8 -5 4 -13 11 -16 15
-4 4 -9 1 -12 -8z"/>
<path d="M1865 1491 c-16 -20 -21 -29 -10 -21 34 27 54 49 47 53 -4 2 -20 -12
-37 -32z"/>
<path d="M340 1516 c0 -2 7 -7 16 -10 8 -3 12 -2 9 4 -6 10 -25 14 -25 6z"/>
<path d="M395 1510 c3 -5 11 -10 16 -10 6 0 7 5 4 10 -3 6 -11 10 -16 10 -6 0
-7 -4 -4 -10z"/>
<path d="M1000 1510 c-9 -6 -10 -10 -3 -10 6 0 15 5 18 10 8 12 4 12 -15 0z"/>
<path d="M1248 1513 c7 -3 16 -2 19 1 4 3 -2 6 -13 5 -11 0 -14 -3 -6 -6z"/>
<path d="M1665 1510 c-3 -6 1 -7 9 -4 18 7 21 14 7 14 -6 0 -13 -4 -16 -10z"/>
<path d="M1919 1503 c-13 -17 -13 -17 6 -3 11 8 22 16 24 17 2 2 0 3 -6 3 -6
0 -17 -8 -24 -17z"/>
<path d="M2198 1513 c7 -3 16 -2 19 1 4 3 -2 6 -13 5 -11 0 -14 -3 -6 -6z"/>
<path d="M1356 1494 c-5 -14 -4 -15 9 -4 17 14 19 20 6 20 -5 0 -12 -7 -15
-16z"/>
<path d="M250 1490 c8 -5 20 -10 25 -10 6 0 3 5 -5 10 -8 5 -19 10 -25 10 -5
0 -3 -5 5 -10z"/>
<path d="M1152 1486 c7 -8 15 -12 17 -11 5 6 -10 25 -20 25 -5 0 -4 -6 3 -14z"/>
<path d="M955 1480 c-3 -6 1 -7 9 -4 18 7 21 14 7 14 -6 0 -13 -4 -16 -10z"/>
<path d="M1904 1465 c8 -8 18 -15 22 -15 3 0 1 7 -6 15 -7 8 -17 15 -22 15 -5
0 -3 -7 6 -15z"/>
<path d="M1961 1464 c0 -11 3 -14 6 -6 3 7 2 16 -1 19 -3 4 -6 -2 -5 -13z"/>
<path d="M2000 1465 c0 -8 6 -12 13 -10 16 7 39 -65 26 -82 -6 -6 -18 -9 -27
-6 -13 4 -12 2 3 -10 18 -14 21 -14 29 1 14 26 16 27 25 13 6 -9 9 -5 9 13 0
14 -3 24 -7 22 -3 -2 -12 2 -19 10 -8 9 -9 14 -2 14 15 0 -22 49 -37 50 -7 0
-13 -7 -13 -15z"/>
<path d="M235 1450 c-3 -6 1 -7 9 -4 18 7 21 14 7 14 -6 0 -13 -4 -16 -10z"/>
<path d="M277 1439 c7 -7 15 -10 18 -7 3 3 -2 9 -12 12 -14 6 -15 5 -6 -5z"/>
<path d="M1512 1438 c-7 -7 -12 -22 -12 -35 0 -18 6 -23 25 -23 26 0 47 32 38
58 -6 15 -35 16 -51 0z m38 -12 c0 -2 -3 -11 -6 -20 -9 -23 -24 -20 -24 4 0
11 7 20 15 20 8 0 15 -2 15 -4z"/>
<path d="M350 1436 c0 -2 7 -9 15 -16 9 -7 15 -8 15 -2 0 5 -7 12 -15 16 -8 3
-15 4 -15 2z"/>
<path d="M440 1430 c0 -5 5 -10 11 -10 5 0 7 5 4 10 -3 6 -8 10 -11 10 -2 0
-4 -4 -4 -10z"/>
<path d="M1310 1433 c0 -6 5 -15 11 -18 6 -4 8 -14 5 -22 -3 -8 -1 -11 4 -8
14 8 13 18 -5 41 -8 10 -15 14 -15 7z"/>
<path d="M1845 1430 c3 -5 8 -10 11 -10 2 0 4 5 4 10 0 6 -5 10 -11 10 -5 0
-7 -4 -4 -10z"/>
<path d="M1973 1424 c-3 -8 0 -21 7 -27 10 -10 12 -8 7 6 -4 9 -2 17 3 17 6 0
10 -5 10 -12 0 -6 2 -9 5 -6 8 7 -5 38 -16 38 -5 0 -12 -7 -16 -16z"/>
<path d="M250 1416 c0 -2 7 -7 16 -10 8 -3 12 -2 9 4 -6 10 -25 14 -25 6z"/>
<path d="M1655 1400 c-10 -11 -15 -20 -11 -20 11 0 39 30 34 36 -3 2 -13 -5
-23 -16z"/>
<path d="M408 1394 c18 -12 21 -19 11 -30 -6 -7 -16 -11 -21 -8 -6 4 -5 -3 1
-15 13 -24 26 -28 17 -5 -4 12 -1 14 14 9 11 -4 20 -2 20 4 0 6 -6 11 -12 12
-7 0 -4 4 7 9 15 7 16 9 4 9 -9 1 -22 8 -29 16 -7 8 -17 15 -23 15 -6 0 -1 -7
11 -16z"/>
<path d="M1028 1385 c-3 -16 -1 -25 7 -25 8 0 10 9 7 25 -2 14 -6 25 -7 25 -1
0 -5 -11 -7 -25z"/>
<path d="M458 1393 c7 -3 16 -2 19 1 4 3 -2 6 -13 5 -11 0 -14 -3 -6 -6z"/>
<path d="M772 1391 c-10 -6 -5 -11 19 -20 18 -6 34 -9 37 -7 2 3 -7 8 -22 12
-14 3 -23 10 -20 15 6 11 3 11 -14 0z"/>
<path d="M1454 1392 c4 -7 2 -19 -4 -27 -7 -9 -8 -15 -2 -15 16 0 24 32 11 44
-9 8 -10 8 -5 -2z"/>
<path d="M515 1380 c3 -5 11 -10 16 -10 6 0 7 5 4 10 -3 6 -11 10 -16 10 -6 0
-7 -4 -4 -10z"/>
<path d="M1760 1381 c0 -10 19 -25 25 -20 1 2 -3 10 -11 17 -8 7 -14 8 -14 3z"/>
<path d="M248 1373 c7 -3 16 -2 19 1 4 3 -2 6 -13 5 -11 0 -14 -3 -6 -6z"/>
<path d="M355 1370 c3 -5 11 -10 16 -10 6 0 7 5 4 10 -3 6 -11 10 -16 10 -6 0
-7 -4 -4 -10z"/>
<path d="M732 1364 c10 -10 20 -16 22 -13 3 3 -5 11 -17 18 -21 13 -21 12 -5
-5z"/>
<path d="M865 1371 c-3 -5 -2 -12 3 -15 5 -3 9 1 9 9 0 17 -3 19 -12 6z"/>
<path d="M130 1360 c-9 -6 -10 -10 -3 -10 6 0 15 5 18 10 8 12 4 12 -15 0z"/>
<path d="M575 1360 c-3 -6 1 -7 9 -4 18 7 21 14 7 14 -6 0 -13 -4 -16 -10z"/>
<path d="M280 1340 c33 -26 52 -25 21 0 -13 11 -28 20 -35 20 -6 0 0 -9 14
-20z"/>
<path d="M470 1356 c0 -2 7 -9 15 -16 9 -7 15 -8 15 -2 0 5 -7 12 -15 16 -8 3
-15 4 -15 2z"/>
<path d="M1245 1350 c27 -12 43 -12 25 0 -8 5 -22 9 -30 9 -10 0 -8 -3 5 -9z"/>
<path d="M1466 1343 c-6 -14 -5 -15 5 -6 7 7 10 15 7 18 -3 3 -9 -2 -12 -12z"/>
<path d="M222 1337 c13 -13 63 -37 76 -37 10 0 -71 49 -81 50 -5 0 -2 -6 5
-13z"/>
<path d="M583 1335 c-3 -9 -3 -18 -1 -21 3 -3 8 4 11 16 6 23 -1 27 -10 5z"/>
<path d="M535 1330 c-3 -5 -1 -10 4 -10 6 0 11 5 11 10 0 6 -2 10 -4 10 -3 0
-8 -4 -11 -10z"/>
<path d="M610 1330 c0 -5 7 -7 15 -4 8 4 15 8 15 10 0 2 -7 4 -15 4 -8 0 -15
-4 -15 -10z"/>
<path d="M1181 1318 c1 -16 3 -18 6 -6 2 9 12 19 21 21 12 3 10 5 -5 6 -18 1
-23 -4 -22 -21z"/>
<path d="M2057 1326 c-3 -8 0 -17 7 -19 10 -4 12 1 9 14 -6 23 -9 24 -16 5z"/>
<path d="M380 1321 c0 -5 7 -12 16 -15 14 -5 15 -4 4 9 -14 17 -20 19 -20 6z"/>
<path d="M1161 1314 c0 -11 3 -14 6 -6 3 7 2 16 -1 19 -3 4 -6 -2 -5 -13z"/>
<path d="M710 1305 c0 -8 4 -15 10 -15 5 0 7 7 4 15 -4 8 -8 15 -10 15 -2 0
-4 -7 -4 -15z"/>
<path d="M1547 1294 c-10 -13 -14 -24 -9 -24 13 0 35 27 30 39 -1 5 -11 -2
-21 -15z"/>
<path d="M425 1299 c-4 -6 -5 -13 -2 -16 7 -7 27 6 27 18 0 12 -17 12 -25 -2z"/>
<path d="M560 1280 c0 -5 5 -10 10 -10 6 0 10 5 10 10 0 6 -4 10 -10 10 -5 0
-10 -4 -10 -10z"/>
<path d="M645 1279 c-4 -6 -5 -12 -2 -15 2 -3 7 2 10 11 7 17 1 20 -8 4z"/>
<path d="M830 1279 c0 -5 5 -7 10 -4 6 3 10 8 10 11 0 2 -4 4 -10 4 -5 0 -10
-5 -10 -11z"/>
<path d="M713 1265 c-7 -8 -9 -16 -4 -19 5 -3 12 1 15 10 8 22 4 25 -11 9z"/>
<path d="M457 1259 c7 -7 15 -10 18 -7 3 3 -2 9 -12 12 -14 6 -15 5 -6 -5z"/>
<path d="M530 1263 c8 -3 24 -10 35 -15 20 -9 20 -9 1 6 -11 9 -27 16 -35 15
-14 0 -14 -1 -1 -6z"/>
<path d="M602 1254 c10 -10 20 -16 22 -13 3 3 -5 11 -17 18 -21 13 -21 12 -5
-5z"/>
<path d="M420 1249 c0 -6 -11 -8 -27 -5 -16 3 -34 2 -40 -2 -8 -5 1 -8 22 -8
19 0 43 -8 55 -19 11 -10 23 -16 26 -12 3 3 -4 10 -15 16 -12 7 -18 17 -15 26
4 8 3 15 0 15 -3 0 -6 -5 -6 -11z"/>
<path d="M743 1245 c-21 -24 -14 -40 7 -17 11 12 20 24 20 27 0 10 -15 4 -27
-10z"/>
<path d="M1705 1251 c-3 -5 -1 -12 5 -16 5 -3 10 1 10 9 0 18 -6 21 -15 7z"/>
<path d="M2260 1245 c0 -8 2 -15 4 -15 2 0 6 7 10 15 3 8 1 15 -4 15 -6 0 -10
-7 -10 -15z"/>
<path d="M261 1233 c-12 -13 -10 -14 19 -8 22 5 30 4 26 -4 -5 -7 -1 -9 8 -5
22 8 20 11 -12 22 -21 7 -31 6 -41 -5z"/>
<path d="M1605 1240 c3 -5 8 -10 11 -10 2 0 4 5 4 10 0 6 -5 10 -11 10 -5 0
-7 -4 -4 -10z"/>
<path d="M450 1230 c8 -5 20 -10 25 -10 6 0 3 5 -5 10 -8 5 -19 10 -25 10 -5
0 -3 -5 5 -10z"/>
<path d="M498 1231 c8 -4 13 -12 12 -17 0 -5 7 -10 17 -12 15 -3 16 -1 3 7 -8
6 -10 11 -5 11 13 0 -17 20 -30 20 -5 0 -4 -4 3 -9z"/>
<path d="M655 1230 c3 -5 8 -10 11 -10 2 0 4 5 4 10 0 6 -5 10 -11 10 -5 0 -7
-4 -4 -10z"/>
<path d="M888 1233 c7 -3 16 -2 19 1 4 3 -2 6 -13 5 -11 0 -14 -3 -6 -6z"/>
<path d="M1466 1227 c3 -10 9 -15 12 -12 3 3 0 11 -7 18 -10 9 -11 8 -5 -6z"/>
<path d="M1790 1221 c-6 -12 -7 -21 -1 -21 10 0 24 30 17 37 -2 3 -9 -5 -16
-16z"/>
<path d="M216 1215 c10 -8 24 -14 29 -14 6 0 1 6 -9 14 -11 8 -24 15 -30 15
-5 0 -1 -7 10 -15z"/>
<path d="M808 1223 c7 -3 16 -2 19 1 4 3 -2 6 -13 5 -11 0 -14 -3 -6 -6z"/>
<path d="M956 1214 c-8 -22 -4 -25 11 -9 7 8 9 16 4 19 -5 3 -12 -1 -15 -10z"/>
<path d="M561 1206 c-8 -10 -7 -17 4 -26 10 -9 15 -9 15 -1 0 6 -5 11 -11 11
-5 0 -8 4 -4 10 3 5 12 7 20 3 8 -3 15 -3 15 0 0 12 -30 14 -39 3z"/>
<path d="M896 1200 c-10 -11 -22 -17 -26 -15 -4 3 -7 -6 -7 -19 0 -23 1 -22
33 10 19 18 34 35 34 38 0 11 -15 5 -34 -14z"/>
<path d="M138 1203 c6 -2 18 -2 25 0 6 3 1 5 -13 5 -14 0 -19 -2 -12 -5z"/>
<path d="M400 1202 c0 -5 16 -13 35 -19 20 -6 35 -7 35 -2 0 5 -9 9 -19 9 -11
0 -23 5 -26 10 -7 12 -25 13 -25 2z"/>
<path d="M483 1190 c2 -11 7 -23 12 -27 4 -5 4 -2 0 6 -6 11 -4 13 8 8 24 -9
21 6 -3 21 -18 11 -20 10 -17 -8z"/>
<path d="M720 1190 c13 -11 30 -20 39 -20 9 0 2 9 -17 20 -42 26 -51 26 -22 0z"/>
<path d="M985 1199 c-11 -16 -1 -19 13 -3 7 8 8 14 3 14 -5 0 -13 -5 -16 -11z"/>
<path d="M1670 1188 c0 -19 2 -20 10 -8 13 19 13 30 0 30 -5 0 -10 -10 -10
-22z"/>
<path d="M2530 1199 c0 -5 5 -7 10 -4 6 3 10 8 10 11 0 2 -4 4 -10 4 -5 0 -10
-5 -10 -11z"/>
<path d="M285 1190 c28 -12 37 -12 30 0 -3 6 -16 10 -28 9 -21 0 -21 -1 -2 -9z"/>
<path d="M650 1190 c-8 -5 -10 -10 -5 -10 6 0 17 5 25 10 8 5 11 10 5 10 -5 0
-17 -5 -25 -10z"/>
<path d="M1078 1193 c7 -3 16 -2 19 1 4 3 -2 6 -13 5 -11 0 -14 -3 -6 -6z"/>
<path d="M240 1180 c20 -13 33 -13 25 0 -3 6 -14 10 -23 10 -15 0 -15 -2 -2
-10z"/>
<path d="M88 1173 c7 -3 16 -2 19 1 4 3 -2 6 -13 5 -11 0 -14 -3 -6 -6z"/>
<path d="M554 1163 c11 -13 26 -23 35 -22 14 0 14 1 1 6 -8 3 -24 13 -35 22
-20 16 -20 16 -1 -6z"/>
<path d="M280 1159 c0 -5 5 -7 10 -4 6 3 10 8 10 11 0 2 -4 4 -10 4 -5 0 -10
-5 -10 -11z"/>
<path d="M355 1160 c3 -5 8 -10 11 -10 2 0 4 5 4 10 0 6 -5 10 -11 10 -5 0 -7
-4 -4 -10z"/>
<path d="M395 1149 c-16 -5 -38 -6 -49 -3 -13 4 -16 2 -11 -6 8 -13 73 -5 90
11 10 10 10 10 -30 -2z"/>
<path d="M460 1156 c0 -2 7 -7 16 -10 8 -3 12 -2 9 4 -6 10 -25 14 -25 6z"/>
<path d="M900 1149 c0 -5 5 -7 10 -4 6 3 10 8 10 11 0 2 -4 4 -10 4 -5 0 -10
-5 -10 -11z"/>
<path d="M1196 1153 c-4 -5 -13 -8 -19 -8 -7 0 -12 -12 -12 -27 -1 -16 3 -28
8 -28 5 0 6 11 3 25 -5 18 -3 23 8 19 7 -3 16 2 19 10 7 17 4 20 -7 9z"/>
<path d="M1338 1153 c7 -3 16 -2 19 1 4 3 -2 6 -13 5 -11 0 -14 -3 -6 -6z"/>
<path d="M440 1141 c0 -8 50 -34 56 -29 1 2 -11 11 -27 20 -16 9 -29 14 -29 9z"/>
<path d="M80 1129 c0 -5 5 -7 10 -4 6 3 10 8 10 11 0 2 -4 4 -10 4 -5 0 -10
-5 -10 -11z"/>
<path d="M1129 1127 c6 -8 7 -18 3 -22 -4 -5 -2 -5 5 -1 14 8 6 36 -9 36 -7 0
-6 -5 1 -13z"/>
<path d="M263 1123 c10 -3 16 -11 13 -18 -3 -9 2 -11 16 -7 20 5 20 6 3 19
-11 7 -26 12 -34 12 -12 -1 -11 -3 2 -6z"/>
<path d="M324 1110 c0 -13 4 -16 10 -10 7 7 7 13 0 20 -6 6 -10 3 -10 -10z"/>
<path d="M835 1120 c3 -5 8 -10 11 -10 2 0 4 5 4 10 0 6 -5 10 -11 10 -5 0 -7
-4 -4 -10z"/>
<path d="M866 1113 c-6 -14 -5 -15 5 -6 7 7 10 15 7 18 -3 3 -9 -2 -12 -12z"/>
<path d="M1030 1120 c0 -5 5 -10 11 -10 5 0 7 5 4 10 -3 6 -8 10 -11 10 -2 0
-4 -4 -4 -10z"/>
<path d="M1325 1120 c-3 -6 1 -7 9 -4 18 7 21 14 7 14 -6 0 -13 -4 -16 -10z"/>
<path d="M1464 1119 c-3 -6 -2 -15 3 -20 5 -5 9 -1 9 11 0 23 -2 24 -12 9z"/>
<path d="M103 1105 c0 -8 4 -15 9 -15 4 0 8 7 8 15 0 8 -4 15 -8 15 -5 0 -9
-7 -9 -15z"/>
<path d="M360 1110 c0 -5 5 -10 10 -10 6 0 10 5 10 10 0 6 -4 10 -10 10 -5 0
-10 -4 -10 -10z"/>
<path d="M580 1106 c7 -7 13 -7 20 0 6 6 3 10 -10 10 -13 0 -16 -4 -10 -10z"/>
<path d="M1086 1103 c-4 -9 -1 -21 5 -27 9 -8 10 -7 6 6 -3 9 -1 18 6 21 8 2
8 5 0 10 -6 4 -14 -1 -17 -10z"/>
<path d="M1200 1110 c0 -5 5 -10 11 -10 5 0 7 5 4 10 -3 6 -8 10 -11 10 -2 0
-4 -4 -4 -10z"/>
<path d="M2135 1110 c-3 -5 -1 -10 4 -10 6 0 11 5 11 10 0 6 -2 10 -4 10 -3 0
-8 -4 -11 -10z"/>
<path d="M398 1098 c-10 -7 -10 -8 2 -7 8 1 23 -1 33 -6 27 -11 29 -1 2 11
-14 7 -28 8 -37 2z"/>
<path d="M635 1090 c3 -5 8 -10 11 -10 2 0 4 5 4 10 0 6 -5 10 -11 10 -5 0 -7
-4 -4 -10z"/>
<path d="M813 1084 c-3 -8 0 -21 6 -27 9 -9 11 -8 6 6 -5 12 -2 17 9 17 9 0
16 5 16 10 0 16 -30 11 -37 -6z"/>
<path d="M218 1083 c7 -3 16 -2 19 1 4 3 -2 6 -13 5 -11 0 -14 -3 -6 -6z"/>
<path d="M365 1080 c3 -5 8 -10 11 -10 2 0 4 5 4 10 0 6 -5 10 -11 10 -5 0 -7
-4 -4 -10z"/>
<path d="M488 1083 c7 -3 16 -2 19 1 4 3 -2 6 -13 5 -11 0 -14 -3 -6 -6z"/>
<path d="M566 1081 c-4 -5 -2 -12 3 -15 5 -4 12 -2 15 3 4 5 2 12 -3 15 -5 4
-12 2 -15 -3z"/>
<path d="M866 1070 c6 -23 6 -24 -12 -10 -12 9 -15 9 -7 1 6 -7 9 -21 6 -30
-3 -9 2 -6 11 6 13 18 15 27 6 40 -9 15 -10 14 -4 -7z"/>
<path d="M1580 1074 c0 -8 5 -12 10 -9 6 3 10 10 10 16 0 5 -4 9 -10 9 -5 0
-10 -7 -10 -16z"/>
<path d="M90 1071 c0 -8 41 -23 47 -17 2 1 -8 8 -22 14 -14 6 -25 8 -25 3z"/>
<path d="M130 1076 c0 -2 7 -6 15 -10 8 -3 15 -1 15 4 0 6 -7 10 -15 10 -8 0
-15 -2 -15 -4z"/>
<path d="M308 1071 c11 -7 10 -10 -3 -15 -24 -9 -27 -8 -19 6 4 7 3 8 -4 4
-16 -10 -16 -11 16 -32 21 -13 24 -14 14 -2 -10 13 -10 17 3 22 8 3 15 2 15
-2 0 -4 9 -8 20 -8 26 0 26 2 -12 20 -33 17 -52 21 -30 7z"/>
<path d="M390 1069 c0 -5 5 -7 10 -4 6 3 10 8 10 11 0 2 -4 4 -10 4 -5 0 -10
-5 -10 -11z"/>
<path d="M523 1065 c0 -8 4 -12 9 -9 5 3 6 10 3 15 -9 13 -12 11 -12 -6z"/>
<path d="M611 1071 c-8 -6 -9 -11 -3 -15 6 -3 14 -1 17 5 9 14 2 20 -14 10z"/>
<path d="M732 1056 c19 -16 26 -31 22 -43 -4 -11 -3 -14 3 -7 4 6 13 13 19 15
7 2 -7 17 -30 32 -37 25 -38 26 -14 3z"/>
<path d="M1448 1073 c7 -3 16 -2 19 1 4 3 -2 6 -13 5 -11 0 -14 -3 -6 -6z"/>
<path d="M1486 1071 c-3 -5 1 -11 9 -14 9 -4 12 -1 8 9 -6 16 -10 17 -17 5z"/>
<path d="M43 1063 c9 -2 23 -2 30 0 6 3 -1 5 -18 5 -16 0 -22 -2 -12 -5z"/>
<path d="M430 1061 c13 -9 12 -11 -5 -11 -11 0 -31 -7 -45 -16 -25 -15 -25
-15 -1 -8 13 3 29 7 35 8 6 1 17 5 24 9 6 5 16 6 21 2 5 -3 12 -1 16 5 3 5 0
10 -9 10 -8 0 -23 3 -33 6 -15 5 -15 4 -3 -5z"/>
<path d="M655 1053 c-16 -12 -16 -14 -3 -10 10 3 20 2 23 -3 4 -6 2 -10 -4
-10 -17 0 -33 -38 -19 -46 6 -4 8 -3 4 4 -3 6 1 18 10 27 15 14 18 14 33 0 19
-16 36 -20 27 -6 -4 5 -1 11 5 13 7 2 -1 12 -16 22 -15 10 -24 13 -20 6 5 -8
3 -11 -6 -8 -8 3 -13 11 -11 17 3 14 1 14 -23 -6z m60 -23 c3 -5 1 -10 -4 -10
-6 0 -11 5 -11 10 0 6 2 10 4 10 3 0 8 -4 11 -10z"/>
<path d="M1030 1052 c0 -11 4 -23 8 -26 10 -6 9 30 -1 40 -4 4 -7 -2 -7 -14z"/>
<path d="M228 1053 c6 -2 18 -2 25 0 6 3 1 5 -13 5 -14 0 -19 -2 -12 -5z"/>
<path d="M1111 1047 c-15 -15 -14 -24 3 -30 10 -4 13 -1 10 8 -3 8 2 15 13 17
16 3 16 4 2 10 -9 4 -22 1 -28 -5z"/>
<path d="M2580 1044 c0 -8 5 -12 10 -9 6 3 10 10 10 16 0 5 -4 9 -10 9 -5 0
-10 -7 -10 -16z"/>
<path d="M58 1043 c7 -3 16 -2 19 1 4 3 -2 6 -13 5 -11 0 -14 -3 -6 -6z"/>
<path d="M523 1025 c-28 -32 -14 -32 23 0 18 16 23 25 14 25 -8 0 -25 -12 -37
-25z"/>
<path d="M1552 1035 c-7 -8 -9 -15 -4 -15 5 0 15 7 22 15 16 19 -1 19 -18 0z"/>
<path d="M128 1033 c7 -3 16 -2 19 1 4 3 -2 6 -13 5 -11 0 -14 -3 -6 -6z"/>
<path d="M485 1030 c3 -5 11 -10 16 -10 6 0 7 5 4 10 -3 6 -11 10 -16 10 -6 0
-7 -4 -4 -10z"/>
<path d="M198 1014 c12 -8 30 -13 40 -11 13 4 12 5 -5 6 -12 0 -25 6 -28 11
-3 6 -11 10 -18 10 -6 0 -1 -7 11 -16z"/>
<path d="M268 1018 c5 -5 16 -8 23 -6 8 3 3 7 -10 11 -17 4 -21 3 -13 -5z"/>
<path d="M439 1009 c-23 -19 -23 -20 -2 -10 12 6 25 16 28 21 10 16 -1 12 -26
-11z"/>
<path d="M945 1020 c3 -5 8 -10 11 -10 2 0 4 5 4 10 0 6 -5 10 -11 10 -5 0 -7
-4 -4 -10z"/>
<path d="M1067 1019 c7 -7 15 -10 18 -7 3 3 -2 9 -12 12 -14 6 -15 5 -6 -5z"/>
<path d="M98 1013 c7 -3 16 -2 19 1 4 3 -2 6 -13 5 -11 0 -14 -3 -6 -6z"/>
<path d="M1711 989 c-13 -17 -21 -33 -18 -35 3 -3 15 9 27 26 29 41 20 49 -9
9z"/>
<path d="M2580 1011 c0 -6 4 -13 10 -16 6 -3 7 1 4 9 -7 18 -14 21 -14 7z"/>
<path d="M1738 965 c-21 -22 -32 -42 -26 -44 6 -2 25 13 42 33 34 40 66 43 92
9 9 -12 13 -14 14 -5 0 21 -23 39 -55 43 -25 4 -36 -2 -67 -36z"/>
<path d="M260 990 c0 -5 5 -10 10 -10 6 0 10 5 10 10 0 6 -4 10 -10 10 -5 0
-10 -4 -10 -10z"/>
<path d="M860 989 c0 -5 5 -7 10 -4 6 3 10 8 10 11 0 2 -4 4 -10 4 -5 0 -10
-5 -10 -11z"/>
<path d="M1000 994 c0 -11 32 -44 43 -44 4 0 7 5 7 10 0 6 -7 10 -15 10 -7 0
-19 8 -24 18 -6 9 -11 12 -11 6z"/>
<path d="M1100 989 c0 -5 5 -7 10 -4 6 3 10 8 10 11 0 2 -4 4 -10 4 -5 0 -10
-5 -10 -11z"/>
<path d="M1400 990 c0 -5 5 -10 10 -10 6 0 10 5 10 10 0 6 -4 10 -10 10 -5 0
-10 -4 -10 -10z"/>
<path d="M440 980 c0 -5 9 -14 20 -20 11 -6 20 -9 20 -8 0 2 -9 11 -20 21 -11
9 -20 13 -20 7z"/>
<path d="M480 979 c0 -5 5 -7 10 -4 6 3 10 8 10 11 0 2 -4 4 -10 4 -5 0 -10
-5 -10 -11z"/>
<path d="M745 980 c3 -5 8 -10 11 -10 2 0 4 5 4 10 0 6 -5 10 -11 10 -5 0 -7
-4 -4 -10z"/>
<path d="M780 980 c0 -5 5 -10 11 -10 5 0 7 5 4 10 -3 6 -8 10 -11 10 -2 0 -4
-4 -4 -10z"/>
<path d="M65 960 c17 -11 37 -20 45 -20 8 0 -2 9 -23 20 -48 26 -61 26 -22 0z"/>
<path d="M290 972 c0 -7 11 -24 24 -37 13 -13 21 -27 17 -31 -3 -4 0 -4 7 0
11 6 10 12 -4 27 -20 22 -12 38 10 20 10 -9 15 -8 19 2 4 10 -3 13 -26 12 -18
-1 -35 3 -39 9 -5 8 -8 7 -8 -2z"/>
<path d="M405 955 c33 -28 54 -33 35 -10 -7 8 -19 15 -26 15 -8 0 -14 5 -14
10 0 6 -6 10 -12 10 -7 -1 1 -12 17 -25z"/>
<path d="M545 970 c3 -5 8 -10 11 -10 2 0 4 5 4 10 0 6 -5 10 -11 10 -5 0 -7
-4 -4 -10z"/>
<path d="M970 969 c0 -5 5 -7 10 -4 6 3 10 8 10 11 0 2 -4 4 -10 4 -5 0 -10
-5 -10 -11z"/>
<path d="M258 953 c8 -14 8 -23 2 -25 -6 -2 0 -9 12 -17 21 -13 22 -13 10 1
-9 11 -10 17 -2 20 7 2 2 12 -11 23 l-22 20 11 -22z"/>
<path d="M940 955 c7 -8 10 -22 6 -30 -3 -8 -1 -15 4 -15 6 0 10 6 10 14 0 23
-11 46 -22 46 -6 0 -5 -6 2 -15z"/>
<path d="M209 943 c6 -12 16 -25 21 -28 6 -4 7 -11 4 -17 -4 -7 -2 -8 5 -4 6
4 19 2 27 -5 8 -6 31 -13 52 -15 28 -2 33 0 20 7 -10 6 -24 9 -30 8 -28 -3
-38 2 -74 39 -23 23 -32 29 -25 15z"/>
<path d="M984 948 c-4 -6 1 -17 12 -25 18 -13 18 -15 2 -24 -10 -6 -18 -15
-18 -22 0 -6 11 0 25 14 17 16 24 31 19 42 -5 15 -9 15 -22 5 -13 -11 -15 -10
-9 5 7 19 2 23 -9 5z"/>
<path d="M1453 930 c-6 -16 -10 -30 -7 -30 2 0 10 14 19 30 9 17 12 30 7 30
-4 0 -13 -13 -19 -30z"/>
<path d="M405 926 c17 -14 39 -29 50 -32 11 -4 27 -15 36 -25 9 -11 25 -19 35
-19 13 0 8 7 -18 25 -20 14 -41 25 -45 25 -5 0 -26 12 -48 26 l-40 25 30 -25z"/>
<path d="M514 941 c7 -10 -5 -15 -31 -12 -6 1 -14 -2 -17 -7 -6 -10 29 -8 57
3 10 4 17 4 15 -1 -4 -13 35 -49 57 -52 14 -1 11 3 -9 14 -27 15 -28 18 -12
29 9 7 13 16 8 19 -6 3 -12 -1 -16 -9 -3 -8 -10 -15 -16 -15 -6 0 -9 4 -5 9 3
6 -4 15 -16 21 -15 8 -19 9 -15 1z"/>
<path d="M654 932 c11 -12 14 -22 8 -22 -6 0 -14 5 -17 10 -3 6 -14 10 -23 10
-11 -1 -7 -6 12 -16 20 -11 31 -13 39 -5 15 15 27 14 21 -3 -5 -14 62 -74 72
-64 2 3 -7 13 -21 22 -22 14 -24 20 -15 39 10 20 10 20 -3 5 -8 -10 -17 -15
-20 -11 -4 3 -2 12 5 20 8 10 8 17 -1 26 -10 9 -11 9 -6 -4 7 -20 -25 -19 -52
1 -16 13 -16 13 1 -8z"/>
<path d="M2025 939 c-4 -6 -5 -12 -2 -15 2 -3 7 2 10 11 7 17 1 20 -8 4z"/>
<path d="M1863 918 c-2 -18 0 -20 7 -8 12 18 13 30 2 30 -4 0 -9 -10 -9 -22z"/>
<path d="M70 925 c0 -4 55 -35 62 -35 2 0 5 10 5 22 2 18 0 19 -7 8 -8 -12
-13 -13 -30 -2 -21 13 -30 15 -30 7z"/>
<path d="M180 925 c0 -2 10 -10 23 -16 20 -11 21 -11 8 4 -13 16 -31 23 -31
12z"/>
<path d="M1404 921 c4 -5 1 -12 -4 -14 -6 -3 -5 -4 2 -3 15 3 23 26 8 26 -6 0
-9 -4 -6 -9z"/>
<path d="M46 905 c10 -8 26 -14 34 -14 9 0 4 6 -10 14 -33 19 -49 19 -24 0z"/>
<path d="M385 905 c17 -8 24 -14 16 -15 -24 0 -1 -15 25 -15 13 -1 24 0 24 1
0 6 -49 32 -70 37 -21 6 -20 4 5 -8z"/>
<path d="M1310 916 c0 -2 7 -7 16 -10 8 -3 12 -2 9 4 -6 10 -25 14 -25 6z"/>
<path d="M2525 909 c-4 -6 -5 -12 -2 -15 2 -3 7 2 10 11 7 17 1 20 -8 4z"/>
<path d="M750 906 c0 -2 7 -7 16 -10 8 -3 12 -2 9 4 -6 10 -25 14 -25 6z"/>
<path d="M880 900 c0 -5 5 -10 10 -10 6 0 10 5 10 10 0 6 -4 10 -10 10 -5 0
-10 -4 -10 -10z"/>
<path d="M1722 898 c2 -6 12 -16 21 -22 13 -8 22 -6 39 11 l21 22 -21 -2 c-11
0 -18 -5 -16 -9 3 -4 -2 -8 -10 -8 -9 0 -16 5 -16 10 0 6 -5 10 -11 10 -6 0
-9 -5 -7 -12z"/>
<path d="M642 884 c10 -10 20 -16 22 -13 3 3 -5 11 -17 18 -21 13 -21 12 -5
-5z"/>
<path d="M105 880 c-3 -5 -1 -10 4 -10 6 0 11 5 11 10 0 6 -2 10 -4 10 -3 0
-8 -4 -11 -10z"/>
<path d="M185 880 c27 -12 43 -12 25 0 -8 5 -22 9 -30 9 -10 0 -8 -3 5 -9z"/>
<path d="M796 877 c3 -10 9 -15 12 -12 3 3 0 11 -7 18 -10 9 -11 8 -5 -6z"/>
<path d="M0 876 c0 -2 7 -7 16 -10 8 -3 12 -2 9 4 -6 10 -25 14 -25 6z"/>
<path d="M64 862 c11 -12 25 -22 31 -22 7 0 20 -10 28 -22 9 -13 16 -18 16
-11 1 7 -14 23 -31 36 -51 37 -66 44 -44 19z"/>
<path d="M240 871 c0 -10 50 -25 57 -18 2 3 -10 9 -26 15 -17 6 -31 7 -31 3z"/>
<path d="M1355 870 c-3 -5 -1 -10 4 -10 6 0 11 5 11 10 0 6 -2 10 -4 10 -3 0
-8 -4 -11 -10z"/>
<path d="M1831 866 c-10 -12 -8 -13 8 -9 12 3 18 9 15 14 -7 12 -10 11 -23 -5z"/>
<path d="M142 855 c-7 -8 -9 -15 -4 -15 5 0 15 7 22 15 16 19 -1 19 -18 0z"/>
<path d="M662 852 c-13 -10 -20 -21 -16 -25 4 -4 14 2 22 14 8 11 20 18 29 15
8 -3 11 -1 8 4 -9 14 -16 12 -43 -8z"/>
<path d="M410 850 c0 -5 7 -7 15 -4 8 4 15 8 15 10 0 2 -7 4 -15 4 -8 0 -15
-4 -15 -10z"/>
<path d="M6 836 c6 -15 34 -30 34 -18 0 4 -9 13 -20 19 -16 11 -18 10 -14 -1z"/>
<path d="M336 835 c25 -19 40 -19 24 0 -7 8 -20 15 -28 15 -13 0 -12 -3 4 -15z"/>
<path d="M458 843 c7 -3 16 -2 19 1 4 3 -2 6 -13 5 -11 0 -14 -3 -6 -6z"/>
<path d="M996 837 c3 -10 9 -15 12 -12 3 3 0 11 -7 18 -10 9 -11 8 -5 -6z"/>
<path d="M1790 841 c0 -5 -8 -12 -18 -15 -26 -9 -82 -60 -98 -90 -20 -40 0
-31 29 13 14 22 44 49 67 62 38 22 52 39 30 39 -5 0 -10 -4 -10 -9z"/>
<path d="M2110 840 c0 -5 5 -10 10 -10 6 0 10 5 10 10 0 6 -4 10 -10 10 -5 0
-10 -4 -10 -10z"/>
<path d="M170 830 c8 -5 20 -10 25 -10 6 0 3 5 -5 10 -8 5 -19 10 -25 10 -5 0
-3 -5 5 -10z"/>
<path d="M306 820 c12 -12 27 -21 33 -19 7 3 -3 13 -21 23 l-33 19 21 -23z"/>
<path d="M385 830 c3 -5 8 -10 11 -10 2 0 4 5 4 10 0 6 -5 10 -11 10 -5 0 -7
-4 -4 -10z"/>
<path d="M680 830 c0 -5 5 -10 10 -10 6 0 10 5 10 10 0 6 -4 10 -10 10 -5 0
-10 -4 -10 -10z"/>
<path d="M67 819 c7 -7 15 -10 18 -7 3 3 -2 9 -12 12 -14 6 -15 5 -6 -5z"/>
<path d="M227 823 c-8 -7 30 -46 41 -42 5 2 -1 14 -14 26 -12 12 -24 19 -27
16z"/>
<path d="M425 819 c-4 -6 -4 -13 -1 -16 3 -4 6 -1 6 5 0 7 5 12 11 12 6 0 9
-7 6 -15 -4 -8 -1 -17 5 -21 7 -5 8 -2 3 6 -6 10 -4 12 10 6 18 -7 18 -6 0 14
-20 22 -31 25 -40 9z"/>
<path d="M480 825 c0 -2 14 -10 31 -19 23 -12 28 -12 20 -2 -11 12 -51 29 -51
21z"/>
<path d="M716 813 c-4 -9 -3 -20 2 -25 6 -6 10 1 10 16 0 30 -3 32 -12 9z"/>
<path d="M944 811 c0 -15 3 -17 13 -9 7 6 10 14 7 19 -9 15 -20 10 -20 -10z"/>
<path d="M1021 814 c0 -11 3 -14 6 -6 3 7 2 16 -1 19 -3 4 -6 -2 -5 -13z"/>
<path d="M160 810 c0 -5 5 -10 11 -10 5 0 7 5 4 10 -3 6 -8 10 -11 10 -2 0 -4
-4 -4 -10z"/>
<path d="M277 809 c7 -7 15 -10 18 -7 3 3 -2 9 -12 12 -14 6 -15 5 -6 -5z"/>
<path d="M774 808 c10 -6 22 -6 26 -2 5 5 -3 10 -18 11 -22 1 -24 0 -8 -9z"/>
<path d="M850 814 c0 -7 9 -22 20 -35 25 -31 26 -12 0 21 -11 14 -20 20 -20
14z"/>
<path d="M1820 804 c0 -8 5 -12 10 -9 6 4 8 11 5 16 -9 14 -15 11 -15 -7z"/>
<path d="M3 792 c1 -14 5 -18 11 -12 7 7 6 14 -1 21 -9 9 -12 7 -10 -9z"/>
<path d="M897 790 c10 -11 22 -20 27 -20 5 0 1 9 -9 20 -10 11 -22 20 -26 20
-5 0 -1 -9 8 -20z"/>
<path d="M95 792 c6 -4 11 -14 13 -22 5 -20 21 -39 46 -52 14 -7 9 2 -13 26
-19 20 -30 36 -25 36 6 0 21 -11 34 -25 13 -14 31 -25 39 -25 9 0 -6 16 -33
35 -27 19 -54 35 -60 35 -7 0 -8 -3 -1 -8z"/>
<path d="M191 797 c2 -1 14 -11 27 -21 12 -11 22 -16 22 -13 0 10 -31 37 -42
37 -6 0 -9 -1 -7 -3z"/>
<path d="M45 780 c3 -6 0 -10 -7 -10 -7 -1 0 -8 16 -16 21 -12 31 -13 40 -4 6
6 7 11 1 10 -5 -2 -19 -2 -30 -1 -15 1 -17 3 -7 10 11 7 10 9 -3 14 -9 4 -13
3 -10 -3z"/>
<path d="M297 779 c-18 -10 -18 -12 -1 -30 9 -10 22 -19 28 -19 6 0 0 9 -14
20 -14 11 -20 20 -13 20 6 0 26 -12 45 -27 18 -15 35 -28 37 -30 2 -2 1 -6 -2
-9 -4 -4 -13 -1 -21 5 -11 9 -16 9 -22 -1 -4 -7 -4 -10 1 -6 4 4 14 3 22 -3
10 -9 17 -8 28 1 14 11 13 14 -4 26 -11 8 -18 23 -17 37 2 15 -2 24 -11 24 -8
0 -12 -6 -8 -15 4 -10 0 -12 -11 -8 -8 3 -18 6 -20 6 -3 0 -2 5 1 10 8 12 5
12 -18 -1z"/>
<path d="M404 772 c-9 -14 -7 -24 12 -47 13 -17 24 -25 24 -19 0 6 -9 19 -20
29 -19 17 -19 19 -4 37 10 10 13 18 8 18 -5 0 -14 -8 -20 -18z"/>
<path d="M495 780 c3 -5 1 -10 -6 -10 -7 0 -10 -2 -7 -5 8 -9 38 6 32 16 -3 5
-10 9 -15 9 -6 0 -7 -4 -4 -10z"/>
<path d="M550 781 c0 -6 7 -11 16 -11 8 0 12 -5 9 -10 -4 -6 -11 -7 -17 -4 -7
4 -8 2 -4 -5 6 -9 11 -9 21 -1 10 8 20 5 40 -15 28 -25 65 -34 65 -15 0 5 -10
9 -21 7 -12 -1 -24 4 -27 12 -3 10 0 12 14 7 17 -7 17 -6 -1 14 -10 11 -23 20
-29 20 -6 0 -4 -4 4 -10 31 -20 0 -20 -34 1 -20 11 -36 16 -36 10z"/>
<path d="M700 775 c8 -11 20 -23 25 -27 6 -4 1 -8 -10 -8 -17 0 -17 -2 -5 -10
21 -14 30 -12 30 5 0 8 5 15 11 15 6 0 8 -7 5 -16 -3 -8 -2 -12 3 -9 11 6 10
45 -1 45 -4 0 -10 -5 -13 -11 -5 -7 -17 -2 -33 13 -21 18 -23 19 -12 3z"/>
<path d="M820 775 c7 -9 10 -19 6 -22 -4 -4 -12 -1 -17 7 -9 12 -10 12 -5 -3
3 -10 -1 -25 -9 -33 -8 -8 -12 -21 -9 -29 8 -21 -13 -19 -25 2 -5 10 -13 15
-16 11 -4 -4 3 -17 14 -30 19 -19 23 -20 31 -8 5 8 10 21 10 28 0 8 15 28 33
45 17 17 26 27 19 23 -7 -4 -15 -1 -18 8 -3 9 -11 16 -16 16 -6 0 -5 -7 2 -15z"/>
<path d="M1016 778 c5 -7 2 -9 -8 -6 -8 4 -21 3 -27 -2 -9 -5 -4 -7 13 -7 15
0 29 4 32 8 3 5 10 7 15 4 5 -4 9 -1 9 4 0 6 -9 11 -21 11 -13 0 -18 -4 -13
-12z"/>
<path d="M1281 774 c0 -11 3 -14 6 -6 3 7 2 16 -1 19 -3 4 -6 -2 -5 -13z"/>
<path d="M205 748 c20 -18 46 -41 56 -50 11 -10 19 -14 19 -9 0 6 -5 13 -10
16 -6 4 -7 11 -4 17 4 7 2 8 -5 4 -6 -4 -24 6 -42 23 -17 17 -35 31 -41 31 -6
0 6 -15 27 -32z"/>
<path d="M668 762 c9 -10 19 -17 21 -16 6 5 -20 34 -30 34 -5 0 -1 -8 9 -18z"/>
<path d="M1800 771 c0 -7 -7 -11 -14 -8 -10 4 -13 1 -9 -9 3 -8 0 -21 -7 -29
-6 -8 -10 -20 -8 -27 3 -7 15 7 27 30 12 24 20 47 17 50 -3 3 -6 0 -6 -7z"/>
<path d="M251 753 c-11 -12 -10 -14 2 -11 9 2 23 -6 31 -17 8 -11 17 -18 19
-15 3 3 -5 17 -17 31 -19 22 -24 23 -35 12z"/>
<path d="M437 764 c-3 -4 1 -13 9 -21 18 -18 27 -13 18 11 -6 17 -16 20 -27
10z"/>
<path d="M524 755 c-4 -8 -11 -12 -18 -8 -6 3 -7 2 -3 -2 15 -17 36 -13 34 6
-2 23 -6 24 -13 4z"/>
<path d="M18 739 c12 -11 22 -24 22 -29 0 -6 8 -10 18 -10 13 0 14 2 3 9 -7 5
-11 13 -8 18 3 5 -8 14 -25 21 l-31 11 21 -20z"/>
<path d="M949 748 c7 -9 10 -27 7 -40 l-6 -23 12 23 c10 19 8 26 -7 40 -18 16
-18 16 -6 0z"/>
<path d="M860 740 c0 -5 5 -10 10 -10 6 0 10 5 10 10 0 6 -4 10 -10 10 -5 0
-10 -4 -10 -10z"/>
<path d="M1004 725 c4 -38 17 -44 14 -7 -1 18 -5 32 -9 32 -4 0 -6 -11 -5 -25z"/>
<path d="M86 731 c-3 -4 6 -13 20 -20 35 -16 40 -14 19 9 -20 22 -31 25 -39
11z"/>
<path d="M920 730 c0 -5 5 -10 10 -10 6 0 10 5 10 10 0 6 -4 10 -10 10 -5 0
-10 -4 -10 -10z"/>
<path d="M0 721 c0 -6 4 -13 10 -16 6 -3 7 1 4 9 -7 18 -14 21 -14 7z"/>
<path d="M840 722 c0 -6 9 -16 20 -22 16 -9 20 -8 20 6 0 10 -3 14 -7 11 -3
-4 -12 -2 -20 4 -9 8 -13 8 -13 1z"/>
<path d="M900 721 c0 -10 29 -36 34 -30 1 2 -6 12 -16 22 -10 9 -18 13 -18 8z"/>
<path d="M550 708 c10 -15 10 -21 -1 -35 -13 -16 -12 -17 3 -5 14 11 18 11 25
-2 6 -11 13 -12 23 -6 11 7 11 10 2 10 -7 0 -25 12 -39 28 -14 15 -20 19 -13
10z"/>
<path d="M701 714 c0 -5 4 -18 8 -28 6 -17 8 -17 14 -3 3 8 -1 21 -9 27 -8 7
-14 9 -13 4z"/>
<path d="M238 687 l23 -25 -22 -16 c-13 -9 -18 -16 -12 -16 6 0 19 7 27 15 13
13 13 20 3 35 -6 11 -18 22 -27 25 -8 4 -5 -4 8 -18z"/>
<path d="M605 700 c-3 -5 -1 -10 4 -10 6 0 11 5 11 10 0 6 -2 10 -4 10 -3 0
-8 -4 -11 -10z"/>
<path d="M820 698 c0 -9 5 -20 10 -23 13 -8 13 5 0 25 -8 13 -10 13 -10 -2z"/>
<path d="M100 680 c25 -22 35 -26 25 -10 -13 21 7 8 41 -26 42 -44 39 -55 -5
-19 -17 15 -31 23 -31 17 0 -16 37 -43 61 -45 30 -3 79 -35 79 -52 0 -7 7 -16
16 -19 15 -6 15 -4 4 11 -20 26 -101 103 -109 103 -4 0 -14 12 -21 26 -9 17
-20 24 -32 21 -10 -3 -21 -1 -24 4 -3 5 -10 9 -16 9 -6 0 -1 -9 12 -20z"/>
<path d="M200 693 c0 -13 29 -38 35 -31 3 3 -4 13 -15 23 -11 10 -20 13 -20 8z"/>
<path d="M300 685 c-7 -9 -10 -18 -6 -22 3 -3 6 -1 6 5 0 7 5 12 11 12 6 0 8
-7 5 -16 -6 -14 -4 -15 9 -4 9 7 12 16 8 19 -4 4 -11 10 -14 14 -3 4 -12 1
-19 -8z"/>
<path d="M1616 685 c-3 -9 -6 -22 -5 -28 0 -7 5 -1 10 12 5 13 8 26 5 28 -2 2
-6 -3 -10 -12z"/>
<path d="M1640 692 c0 -15 59 -92 70 -92 16 0 12 9 -20 43 -16 18 -30 38 -30
45 0 6 -4 12 -10 12 -5 0 -10 -4 -10 -8z"/>
<path d="M417 676 c-4 -10 -1 -13 9 -9 7 3 14 0 14 -6 0 -6 -5 -11 -11 -11 -7
0 -5 -10 5 -25 21 -32 9 -32 -37 -1 -22 15 -34 19 -30 10 6 -16 -12 -19 -22
-4 -8 13 -35 13 -35 -1 0 -5 4 -8 9 -5 4 3 17 -2 27 -10 19 -15 19 -15 -1 -10
-19 6 -19 5 -2 -8 16 -12 15 -14 -13 -26 -16 -7 -30 -16 -30 -21 0 -5 8 -5 18
0 9 5 25 12 36 15 11 4 16 12 12 22 -5 12 -1 14 17 9 22 -7 22 -7 2 9 -26 20
-12 20 26 1 16 -9 34 -13 39 -10 5 3 11 1 15 -5 3 -5 11 -10 17 -10 7 0 -1 14
-18 31 -18 20 -25 33 -17 36 10 3 10 9 0 24 -14 23 -23 24 -30 5z"/>
<path d="M505 680 c-3 -5 -1 -10 4 -10 6 0 11 5 11 10 0 6 -2 10 -4 10 -3 0
-8 -4 -11 -10z"/>
<path d="M37 674 c7 -3 9 -12 6 -21 -5 -11 -3 -14 6 -9 7 5 23 -1 39 -15 16
-14 13 -8 -7 14 -19 20 -40 37 -45 36 -6 0 -6 -3 1 -5z"/>
<path d="M180 665 c7 -8 17 -15 22 -15 5 0 3 7 -6 15 -8 8 -18 15 -22 15 -3 0
-1 -7 6 -15z"/>
<path d="M722 659 c-7 -11 -10 -24 -7 -29 3 -5 1 -11 -5 -15 -5 -3 -10 -1 -10
4 0 6 -5 11 -11 11 -5 0 -7 -5 -3 -11 5 -9 -1 -10 -22 -5 -23 6 -27 5 -16 -5
14 -15 16 -39 3 -39 -5 0 -12 9 -16 19 -3 11 -13 22 -21 25 -11 4 -9 -3 7 -25
12 -17 27 -28 35 -25 8 3 14 -1 14 -10 0 -8 7 -17 16 -21 9 -3 13 -12 9 -22
-5 -12 -3 -13 6 -4 8 8 7 18 -6 41 -10 16 -15 37 -12 46 6 15 8 15 27 -1 11
-10 20 -25 20 -34 0 -9 7 -19 15 -23 18 -6 20 5 3 22 -6 6 -8 15 -4 19 4 4 10
2 14 -4 5 -9 11 -6 20 7 7 12 8 20 2 20 -5 0 -10 -4 -10 -10 0 -5 -9 -1 -20
10 -20 20 -28 60 -11 60 5 0 11 -10 14 -22 4 -12 9 -19 13 -15 4 4 13 2 20 -3
6 -6 18 -9 25 -8 7 2 15 -6 17 -16 3 -14 0 -17 -11 -13 -11 4 -14 2 -10 -9 3
-9 0 -14 -7 -12 -7 2 -15 -4 -17 -12 -3 -9 -1 -11 4 -5 11 14 43 18 43 6 0 -5
-5 -12 -10 -14 -6 -3 -5 -4 2 -3 7 2 14 16 15 32 4 49 6 54 20 54 12 0 17 -13
14 -32 0 -5 6 -8 14 -8 8 0 15 5 15 10 0 6 -4 10 -10 10 -5 0 -10 4 -10 10 0
5 7 7 15 4 8 -4 15 -12 15 -20 0 -8 4 -14 9 -14 5 0 12 -8 14 -17 4 -16 5 -16
6 -1 0 9 -3 20 -9 23 -17 10 -11 28 6 21 14 -6 15 -4 4 9 -8 10 -16 12 -19 6
-4 -7 -12 -6 -21 0 -11 8 -12 12 -2 16 6 2 12 9 12 15 0 7 -5 6 -14 -1 -10 -9
-16 -8 -26 4 -9 11 -16 12 -26 4 -7 -6 -18 -8 -24 -4 -5 3 -10 1 -10 -4 0 -6
14 -10 31 -9 18 2 33 -1 35 -7 4 -9 -12 -10 -76 -6 -10 0 -30 12 -42 26 -23
25 -23 25 -36 4z m13 -60 c11 -17 -1 -21 -15 -4 -8 9 -8 15 -2 15 6 0 14 -5
17 -11z"/>
<path d="M941 666 c-8 -10 -8 -16 1 -24 10 -8 13 -4 13 14 0 28 1 28 -14 10z"/>
<path d="M1736 664 c-11 -29 -6 -54 10 -54 14 0 14 3 4 15 -10 12 -10 19 -2
27 14 14 16 28 3 28 -5 0 -12 -7 -15 -16z"/>
<path d="M970 661 c0 -5 5 -13 10 -16 6 -3 10 -2 10 4 0 5 -4 13 -10 16 -5 3
-10 2 -10 -4z"/>
<path d="M1010 650 c-6 -11 -8 -20 -6 -20 3 0 10 9 16 20 6 11 8 20 6 20 -3 0
-10 -9 -16 -20z"/>
<path d="M100 645 c7 -9 15 -13 17 -11 7 7 -7 26 -19 26 -6 0 -6 -6 2 -15z"/>
<path d="M392 646 c7 -8 15 -12 17 -11 5 6 -10 25 -20 25 -5 0 -4 -6 3 -14z"/>
<path d="M476 645 c-3 -8 -1 -15 4 -15 6 0 10 7 10 15 0 8 -2 15 -4 15 -2 0
-6 -7 -10 -15z"/>
<path d="M515 650 c-3 -5 -1 -10 4 -10 6 0 11 5 11 10 0 6 -2 10 -4 10 -3 0
-8 -4 -11 -10z"/>
<path d="M669 643 c-13 -17 -13 -17 6 -3 11 8 22 16 24 17 2 2 0 3 -6 3 -6 0
-17 -8 -24 -17z"/>
<path d="M273 635 c0 -8 11 -25 24 -37 13 -12 23 -16 23 -10 0 7 -4 12 -10 12
-5 0 -12 11 -16 25 -7 27 -21 34 -21 10z"/>
<path d="M0 636 c0 -2 9 -6 20 -9 11 -3 18 -1 14 4 -5 9 -34 13 -34 5z"/>
<path d="M554 632 c3 -6 2 -13 -4 -17 -5 -3 -10 -1 -10 4 0 6 -5 11 -11 11 -8
0 -8 -4 1 -14 6 -8 19 -12 27 -9 10 4 14 2 10 -4 -3 -5 0 -10 8 -10 16 0 4 30
-17 43 -6 4 -8 3 -4 -4z"/>
<path d="M618 633 c7 -3 16 -2 19 1 4 3 -2 6 -13 5 -11 0 -14 -3 -6 -6z"/>
<path d="M1070 630 c0 -5 5 -10 11 -10 5 0 7 5 4 10 -3 6 -8 10 -11 10 -2 0
-4 -4 -4 -10z"/>
<path d="M490 620 c-9 -6 -10 -10 -3 -10 6 0 15 5 18 10 8 12 4 12 -15 0z"/>
<path d="M60 605 c0 -8 2 -15 4 -15 2 0 6 7 10 15 3 8 1 15 -4 15 -6 0 -10 -7
-10 -15z"/>
<path d="M123 605 c0 -8 4 -12 9 -9 12 8 10 -10 -4 -24 -9 -9 -5 -19 17 -42
22 -23 26 -33 17 -42 -9 -9 -12 -8 -12 7 0 15 -3 16 -12 7 -10 -10 -10 -15 2
-22 8 -5 11 -12 7 -16 -4 -4 -21 5 -37 21 -30 29 -41 53 -17 39 9 -6 8 -3 -1
8 -8 10 -20 14 -29 11 -12 -5 -15 -2 -11 8 3 9 -2 26 -13 40 l-18 24 12 -35
c7 -20 22 -46 35 -60 29 -31 28 -38 -4 -34 -25 2 -25 2 -8 -17 21 -23 46 -26
38 -4 -4 10 -2 13 8 10 15 -6 21 -35 6 -35 -19 0 -5 -18 27 -36 19 -10 38 -27
41 -37 3 -10 8 -16 11 -13 9 9 -26 56 -42 56 -8 0 -15 9 -15 20 0 11 5 20 11
20 5 0 7 -5 4 -10 -4 -6 -3 -10 2 -9 17 4 43 -14 43 -30 0 -14 2 -14 10 -1 7
11 2 19 -20 33 -17 11 -27 23 -24 29 4 5 13 4 22 -5 28 -23 39 -27 39 -13 0 8
-7 12 -14 9 -10 -4 -13 1 -10 18 2 13 2 18 0 12 -3 -7 -9 -13 -14 -13 -11 0
-11 7 0 29 7 13 3 21 -20 36 -16 11 -29 24 -29 28 0 5 4 6 9 3 18 -11 19 22 2
38 -15 14 -18 14 -18 1z m-43 -135 c0 -5 -2 -10 -4 -10 -3 0 -8 5 -11 10 -3 6
-1 10 4 10 6 0 11 -4 11 -10z"/>
<path d="M983 605 c0 -8 4 -12 9 -9 5 3 6 10 3 15 -9 13 -12 11 -12 -6z"/>
<path d="M1643 585 c21 -21 40 -35 44 -32 6 7 -28 40 -62 59 -11 6 -3 -6 18
-27z"/>
<path d="M265 590 c10 -11 22 -20 26 -20 5 0 1 9 -8 20 -10 11 -22 20 -27 20
-5 0 -1 -9 9 -20z"/>
<path d="M90 585 c7 -9 15 -13 17 -11 7 7 -7 26 -19 26 -6 0 -6 -6 2 -15z"/>
<path d="M1013 581 c0 -11 5 -18 9 -15 4 3 5 11 1 19 -7 21 -12 19 -10 -4z"/>
<path d="M1735 589 c-11 -17 1 -21 15 -4 8 9 8 15 2 15 -6 0 -14 -5 -17 -11z"/>
<path d="M410 580 c0 -5 5 -10 11 -10 5 0 7 5 4 10 -3 6 -8 10 -11 10 -2 0 -4
-4 -4 -10z"/>
<path d="M955 580 c3 -5 8 -10 11 -10 2 0 4 5 4 10 0 6 -5 10 -11 10 -5 0 -7
-4 -4 -10z"/>
<path d="M700 570 c0 -5 5 -10 11 -10 5 0 7 5 4 10 -3 6 -8 10 -11 10 -2 0 -4
-4 -4 -10z"/>
<path d="M160 561 c0 -6 5 -11 10 -11 6 0 20 -11 32 -25 23 -27 49 -36 28 -10
-21 26 -70 57 -70 46z"/>
<path d="M200 563 c8 -4 23 -15 33 -26 19 -22 22 -16 7 14 -6 10 -21 19 -33
18 -15 0 -17 -2 -7 -6z"/>
<path d="M440 559 c0 -5 5 -7 10 -4 6 3 10 8 10 11 0 2 -4 4 -10 4 -5 0 -10
-5 -10 -11z"/>
<path d="M504 553 c5 -14 3 -23 -3 -23 -15 0 -14 -19 3 -35 11 -12 13 -8 11
26 -1 22 -6 43 -10 47 -4 4 -4 -3 -1 -15z"/>
<path d="M595 560 c-3 -5 1 -10 10 -10 9 0 13 5 10 10 -3 6 -8 10 -10 10 -2 0
-7 -4 -10 -10z"/>
<path d="M975 560 c-3 -5 -1 -10 4 -10 6 0 11 5 11 10 0 6 -2 10 -4 10 -3 0
-8 -4 -11 -10z"/>
<path d="M1315 559 c-4 -6 -5 -12 -2 -15 2 -3 7 2 10 11 7 17 1 20 -8 4z"/>
<path d="M850 556 c0 -2 7 -9 15 -16 9 -7 15 -8 15 -2 0 5 -7 12 -15 16 -8 3
-15 4 -15 2z"/>
<path d="M1700 540 c0 -13 -7 -20 -20 -20 -13 0 -20 -7 -20 -18 0 -10 -4 -22
-10 -28 -5 -5 -5 -15 -1 -23 6 -9 11 -2 15 23 4 20 11 34 16 31 5 -3 16 5 24
17 18 26 20 38 6 38 -5 0 -10 -9 -10 -20z"/>
<path d="M424 530 c1 -8 8 -15 16 -15 8 0 19 -4 23 -10 5 -6 7 -4 4 5 -2 8
-11 14 -20 12 -8 -1 -17 3 -20 10 -2 8 -3 7 -3 -2z"/>
<path d="M627 543 c-4 -3 -7 -11 -7 -17 0 -6 5 -5 12 2 6 6 9 14 7 17 -3 3 -9
2 -12 -2z"/>
<path d="M910 538 c0 -9 5 -20 10 -23 13 -8 13 5 0 25 -8 13 -10 13 -10 -2z"/>
<path d="M535 520 c-3 -5 -1 -10 4 -10 6 0 11 5 11 10 0 6 -2 10 -4 10 -3 0
-8 -4 -11 -10z"/>
<path d="M570 525 c0 -2 6 -8 13 -14 10 -8 14 -7 14 2 0 8 -6 14 -14 14 -7 0
-13 -1 -13 -2z"/>
<path d="M631 507 c-13 -15 -19 -30 -15 -40 7 -20 21 -22 26 -5 3 7 13 -2 23
-20 23 -38 29 -39 42 -9 l11 22 12 -27 c7 -16 17 -28 22 -28 4 0 3 9 -4 20
-11 17 -10 22 1 29 8 5 9 11 3 15 -6 3 -12 0 -15 -6 -3 -10 -7 -10 -20 1 -9 7
-14 18 -10 24 4 6 1 7 -6 2 -9 -5 -9 -11 -3 -17 12 -12 5 -38 -10 -38 -6 0 -7
7 -4 16 3 8 2 13 -3 10 -12 -8 -33 19 -23 30 4 4 0 3 -9 -4 -26 -19 -31 -1 -7
25 12 13 19 23 16 23 -2 0 -14 -11 -27 -23z"/>
<path d="M727 516 c-3 -8 1 -20 9 -26 11 -10 14 -10 14 0 0 9 4 9 17 -1 14
-12 16 -12 11 1 -3 8 -15 14 -26 13 -15 -2 -20 2 -16 12 4 8 4 15 1 15 -3 0
-7 -6 -10 -14z"/>
<path d="M856 515 c7 -18 6 -19 -11 -5 -17 14 -18 14 -5 -9 11 -22 13 -23 22
-7 7 12 6 22 -2 29 -8 9 -9 7 -4 -8z"/>
<path d="M310 511 c0 -5 7 -11 14 -14 10 -4 13 -1 9 9 -6 15 -23 19 -23 5z"/>
<path d="M286 495 c4 -8 1 -15 -5 -15 -6 0 -11 5 -11 10 0 6 -5 10 -12 10 -6
0 -3 -9 7 -20 10 -11 15 -23 12 -27 -4 -4 -13 2 -21 12 -10 14 -15 15 -21 5
-5 -9 -4 -11 3 -6 11 7 17 -6 13 -27 -1 -5 3 -6 8 -3 5 4 12 0 14 -6 3 -8 6
-6 6 5 1 10 5 16 11 12 5 -3 6 -13 3 -22 -6 -15 -5 -16 9 -3 15 14 15 17 0 33
-8 9 -13 20 -10 23 9 8 59 -46 53 -57 -3 -5 1 -6 10 -3 12 5 6 15 -27 50 -47
49 -50 51 -42 29z"/>
<path d="M562 471 c1 -23 5 -41 10 -41 7 0 10 8 7 26 0 4 5 11 13 16 9 7 8 8
-6 4 -13 -5 -17 -2 -13 9 4 8 2 17 -3 20 -6 4 -9 -11 -8 -34z"/>
<path d="M665 500 c3 -5 8 -10 11 -10 2 0 4 5 4 10 0 6 -5 10 -11 10 -5 0 -7
-4 -4 -10z"/>
<path d="M810 501 c0 -5 5 -13 10 -16 6 -3 10 -2 10 4 0 5 -4 13 -10 16 -5 3
-10 2 -10 -4z"/>
<path d="M390 482 c0 -7 4 -12 9 -12 5 0 8 -12 5 -26 -3 -15 -1 -23 5 -20 5 3
11 0 14 -6 2 -7 6 2 9 19 2 18 2 31 0 28 -3 -3 -14 2 -24 12 -11 9 -18 11 -18
5z"/>
<path d="M869 473 c-12 -15 -12 -16 3 -10 9 3 19 1 21 -6 2 -7 7 -10 10 -7 3
3 0 13 -8 23 -12 16 -13 16 -26 0z"/>
<path d="M9 463 c-13 -16 -12 -17 4 -4 9 7 17 15 17 17 0 8 -8 3 -21 -13z"/>
<path d="M465 470 c-3 -6 1 -7 9 -4 18 7 21 14 7 14 -6 0 -13 -4 -16 -10z"/>
<path d="M780 460 c0 -5 5 -10 11 -10 5 0 7 5 4 10 -3 6 -8 10 -11 10 -2 0 -4
-4 -4 -10z"/>
<path d="M826 454 c-9 -23 -2 -28 13 -10 7 8 8 17 3 20 -6 3 -13 -1 -16 -10z"/>
<path d="M1106 440 c20 -33 26 -34 18 -3 -3 12 -12 24 -20 27 -12 5 -11 0 2
-24z"/>
<path d="M1130 461 c0 -6 4 -13 10 -16 6 -3 7 1 4 9 -7 18 -14 21 -14 7z"/>
<path d="M30 451 c0 -5 7 -11 15 -15 8 -3 15 -1 15 3 0 5 -7 11 -15 15 -8 3
-15 1 -15 -3z"/>
<path d="M530 449 c0 -5 5 -7 10 -4 6 3 10 8 10 11 0 2 -4 4 -10 4 -5 0 -10
-5 -10 -11z"/>
<path d="M480 440 c0 -5 5 -10 11 -10 5 0 7 5 4 10 -3 6 -8 10 -11 10 -2 0 -4
-4 -4 -10z"/>
<path d="M589 420 c-6 -16 -15 -27 -20 -24 -5 3 -9 0 -9 -5 0 -17 20 -13 27 5
3 8 12 13 19 10 7 -3 16 -1 19 5 4 5 1 8 -6 7 -6 -2 -14 3 -17 11 -3 9 0 11 8
6 9 -5 11 -4 6 3 -11 18 -16 15 -27 -18z"/>
<path d="M640 430 c0 -5 5 -10 11 -10 5 0 7 5 4 10 -3 6 -8 10 -11 10 -2 0 -4
-4 -4 -10z"/>
<path d="M1055 430 c3 -5 8 -10 11 -10 2 0 4 5 4 10 0 6 -5 10 -11 10 -5 0 -7
-4 -4 -10z"/>
<path d="M535 420 c3 -5 8 -10 11 -10 2 0 4 5 4 10 0 6 -5 10 -11 10 -5 0 -7
-4 -4 -10z"/>
<path d="M38 403 c7 -12 9 -23 4 -26 -4 -2 -1 -2 7 0 7 2 20 -2 27 -8 26 -22
14 -4 -18 26 -24 23 -29 25 -20 8z"/>
<path d="M80 405 c7 -9 15 -13 17 -11 7 7 -7 26 -19 26 -6 0 -6 -6 2 -15z"/>
<path d="M712 400 c0 -14 2 -19 5 -12 2 6 2 18 0 25 -3 6 -5 1 -5 -13z"/>
<path d="M937 388 c-10 -23 -11 -35 -3 -40 14 -9 16 -6 19 36 4 44 1 45 -16 4z"/>
<path d="M985 410 c3 -5 8 -10 11 -10 2 0 4 5 4 10 0 6 -5 10 -11 10 -5 0 -7
-4 -4 -10z"/>
<path d="M6 397 c3 -10 9 -15 12 -12 3 3 0 11 -7 18 -10 9 -11 8 -5 -6z"/>
<path d="M245 387 c-11 -11 -14 -17 -7 -13 8 5 22 0 35 -11 22 -18 22 -18 4 3
-13 16 -15 23 -6 26 7 2 9 7 4 10 -6 3 -19 -4 -30 -15z"/>
<path d="M475 400 c3 -5 8 -10 11 -10 2 0 4 5 4 10 0 6 -5 10 -11 10 -5 0 -7
-4 -4 -10z"/>
<path d="M510 405 c0 -7 43 -45 51 -45 5 0 -3 11 -17 25 -24 24 -34 30 -34 20z"/>
<path d="M900 391 c0 -25 6 -27 13 -6 4 8 2 17 -3 20 -6 4 -10 -3 -10 -14z"/>
<path d="M116 387 c3 -10 9 -15 12 -12 3 3 0 11 -7 18 -10 9 -11 8 -5 -6z"/>
<path d="M440 391 c0 -5 7 -12 16 -15 24 -9 27 -7 10 9 -17 17 -26 19 -26 6z"/>
<path d="M790 390 c0 -5 5 -10 10 -10 6 0 10 5 10 10 0 6 -4 10 -10 10 -5 0
-10 -4 -10 -10z"/>
<path d="M835 390 c-3 -5 -1 -10 4 -10 6 0 11 5 11 10 0 6 -2 10 -4 10 -3 0
-8 -4 -11 -10z"/>
<path d="M856 360 c-20 -51 -20 -55 0 -35 9 9 14 19 11 22 -4 3 -2 14 4 25 6
11 9 22 6 24 -2 3 -12 -13 -21 -36z"/>
<path d="M205 381 c-3 -5 -2 -12 3 -15 5 -3 9 1 9 9 0 17 -3 19 -12 6z"/>
<path d="M626 374 c-9 -23 -2 -28 13 -10 7 8 8 17 3 20 -6 3 -13 -1 -16 -10z"/>
<path d="M387 364 c6 -15 23 -19 23 -5 0 5 -7 11 -14 14 -10 4 -13 1 -9 -9z"/>
<path d="M421 374 c-1 -18 26 -37 34 -24 3 5 0 10 -9 10 -8 0 -17 6 -19 13 -4
7 -6 8 -6 1z"/>
<path d="M587 368 c-3 -9 -1 -20 5 -26 7 -7 0 -10 -25 -8 -20 2 -34 -1 -31 -6
3 -5 14 -6 25 -3 13 5 19 2 19 -10 0 -9 -4 -13 -10 -10 -6 4 -7 -1 -3 -11 5
-13 3 -16 -10 -11 -9 3 -17 2 -17 -4 0 -6 10 -9 22 -7 15 2 26 -4 34 -21 12
-23 32 -41 46 -41 4 0 -4 12 -18 27 -14 15 -23 32 -20 39 3 8 -1 11 -10 7 -7
-3 -14 0 -14 6 0 6 5 11 12 11 6 0 8 3 5 7 -4 3 -2 12 3 18 6 8 7 22 2 35 -7
18 -10 20 -15 8z"/>
<path d="M140 363 c0 -5 10 -19 21 -33 11 -14 18 -18 15 -10 -3 8 -9 23 -12
33 -6 17 -24 24 -24 10z"/>
<path d="M660 363 c0 -5 7 -18 15 -29 12 -16 14 -16 15 -3 0 9 -7 22 -15 29
-8 7 -15 8 -15 3z"/>
<path d="M700 360 c0 -5 5 -10 11 -10 5 0 7 5 4 10 -3 6 -8 10 -11 10 -2 0 -4
-4 -4 -10z"/>
<path d="M730 363 c0 -4 5 -15 10 -23 8 -13 10 -13 10 2 0 9 -4 20 -10 23 -5
3 -10 3 -10 -2z"/>
<path d="M816 355 c-9 -26 -7 -32 5 -12 6 10 9 21 6 23 -2 3 -7 -2 -11 -11z"/>
<path d="M887 349 c4 -13 8 -18 11 -10 2 7 -1 18 -6 23 -8 8 -9 4 -5 -13z"/>
<path d="M51 348 c0 -9 6 -23 14 -32 8 -8 15 -20 15 -27 0 -10 3 -10 12 -1 10
10 10 15 -1 21 -7 5 -11 14 -7 20 4 7 1 9 -8 5 -8 -3 -16 2 -19 13 -4 15 -5
15 -6 1z"/>
<path d="M104 338 c2 -13 9 -22 15 -20 14 3 14 -11 0 -25 -8 -8 -8 -13 0 -17
6 -4 11 0 11 9 0 12 6 15 23 10 20 -6 20 -5 -5 18 -16 13 -28 29 -28 36 0 6
-4 11 -10 11 -5 0 -8 -10 -6 -22z"/>
<path d="M350 354 c0 -7 27 -34 34 -34 4 0 1 9 -6 20 -12 19 -28 27 -28 14z"/>
<path d="M496 344 c-11 -8 -16 -14 -10 -14 13 0 39 18 34 24 -3 2 -14 -2 -24
-10z"/>
<path d="M770 343 c0 -16 36 -53 51 -53 7 0 0 9 -15 21 -19 15 -24 24 -17 33
8 9 6 13 -4 13 -8 0 -15 -6 -15 -14z"/>
<path d="M200 346 c0 -11 22 -31 50 -46 22 -12 24 -11 13 2 -7 8 -9 19 -5 23
4 5 1 5 -6 1 -8 -5 -21 -1 -33 10 -10 9 -19 14 -19 10z"/>
<path d="M635 340 c-3 -5 -1 -10 4 -10 6 0 11 5 11 10 0 6 -2 10 -4 10 -3 0
-8 -4 -11 -10z"/>
<path d="M325 320 c3 -5 8 -10 11 -10 2 0 4 5 4 10 0 6 -5 10 -11 10 -5 0 -7
-4 -4 -10z"/>
<path d="M450 326 c0 -2 8 -10 18 -17 15 -13 16 -12 3 4 -13 16 -21 21 -21 13z"/>
<path d="M717 319 c7 -7 15 -10 18 -7 3 3 -2 9 -12 12 -14 6 -15 5 -6 -5z"/>
<path d="M915 321 c-3 -5 -2 -12 3 -15 5 -3 9 1 9 9 0 17 -3 19 -12 6z"/>
<path d="M621 304 c0 -11 3 -14 6 -6 3 7 2 16 -1 19 -3 4 -6 -2 -5 -13z"/>
<path d="M758 313 c-3 -4 3 -16 14 -25 21 -21 24 -11 4 15 -8 10 -16 15 -18
10z"/>
<path d="M1016 305 c4 -8 8 -15 10 -15 2 0 4 7 4 15 0 8 -4 15 -10 15 -5 0 -7
-7 -4 -15z"/>
<path d="M307 299 c7 -7 15 -10 18 -7 3 3 -2 9 -12 12 -14 6 -15 5 -6 -5z"/>
<path d="M377 303 c-4 -3 -7 -11 -7 -17 0 -6 5 -5 12 2 6 6 9 14 7 17 -3 3 -9
2 -12 -2z"/>
<path d="M658 291 c28 -32 39 -46 45 -61 3 -9 6 -10 6 -3 1 18 -42 82 -56 83
-9 0 -7 -7 5 -19z"/>
<path d="M690 299 c0 -5 5 -7 10 -4 6 4 21 -16 33 -43 18 -38 25 -46 34 -36 9
9 9 14 -3 18 -8 3 -20 18 -26 33 -17 38 -48 59 -48 32z"/>
<path d="M893 275 c0 -22 2 -30 4 -17 2 12 2 30 0 40 -3 9 -5 -1 -4 -23z"/>
<path d="M1938 303 c-1 -5 -33 -24 -70 -43 -38 -19 -68 -38 -68 -43 0 -5 -7
-7 -15 -3 -8 3 -15 2 -15 -3 0 -13 -48 -31 -67 -25 -14 5 -15 4 -4 -4 11 -8 5
-13 -27 -23 -23 -7 -42 -16 -42 -21 0 -5 -4 -7 -9 -3 -5 3 -12 1 -16 -4 -3 -6
-13 -7 -22 -4 -11 4 -14 3 -9 -5 5 -8 0 -12 -13 -12 -11 0 -22 -4 -25 -9 -9
-14 -94 -51 -108 -47 -7 1 -10 1 -5 -1 12 -7 -3 -23 -17 -17 -7 3 -19 -3 -27
-12 -13 -16 -11 -17 16 -11 79 15 594 274 578 290 -9 9 -31 9 -35 0z"/>
<path d="M10 289 c0 -5 5 -7 10 -4 6 3 10 8 10 11 0 2 -4 4 -10 4 -5 0 -10 -5
-10 -11z"/>
<path d="M417 285 c3 -8 9 -12 14 -9 12 7 11 11 -5 17 -10 4 -13 1 -9 -8z"/>
<path d="M1866 291 c-4 -5 3 -7 14 -4 23 6 26 13 6 13 -8 0 -17 -4 -20 -9z"/>
<path d="M280 280 c0 -5 5 -10 10 -10 6 0 10 -5 10 -11 0 -5 -5 -7 -12 -3 -8
5 -9 2 -5 -10 4 -10 7 -21 7 -24 0 -4 6 4 13 18 10 20 10 28 1 38 -15 15 -24
16 -24 2z"/>
<path d="M35 270 c3 -5 8 -10 11 -10 2 0 4 5 4 10 0 6 -5 10 -11 10 -5 0 -7
-4 -4 -10z"/>
<path d="M147 262 c4 -10 9 -10 22 0 9 7 17 13 19 14 2 1 -8 1 -21 0 -15 0
-23 -6 -20 -14z"/>
<path d="M246 271 c-4 -5 -2 -12 3 -15 5 -4 8 -20 6 -37 -3 -24 -1 -30 10 -25
10 4 15 -2 16 -17 1 -16 3 -17 6 -5 2 9 -1 27 -8 40 -7 13 -14 32 -16 42 -4
25 -9 30 -17 17z"/>
<path d="M756 267 c3 -10 9 -15 12 -12 3 3 0 11 -7 18 -10 9 -11 8 -5 -6z"/>
<path d="M1976 249 c-13 -61 -16 -145 -7 -185 l9 -39 2 40 c4 76 3 112 -4 124
-4 6 -2 10 4 9 14 -4 22 49 11 70 -6 10 -10 5 -15 -19z"/>
<path d="M2081 264 c0 -11 3 -14 6 -6 3 7 2 16 -1 19 -3 4 -6 -2 -5 -13z"/>
<path d="M6 257 c3 -10 9 -15 12 -12 3 3 0 11 -7 18 -10 9 -11 8 -5 -6z"/>
<path d="M90 261 c0 -6 4 -13 10 -16 6 -3 7 1 4 9 -7 18 -14 21 -14 7z"/>
<path d="M117 241 c-3 -14 -1 -18 9 -14 16 6 18 19 5 27 -5 3 -11 -3 -14 -13z"/>
<path d="M355 250 c-16 -7 -17 -9 -3 -9 9 -1 20 4 23 9 7 11 7 11 -20 0z"/>
<path d="M567 245 c-5 -10 -3 -14 4 -9 8 5 10 -3 7 -24 -2 -17 -1 -29 4 -26
10 7 10 45 -1 62 -7 11 -9 10 -14 -3z"/>
<path d="M186 237 c3 -10 9 -15 12 -12 3 3 0 11 -7 18 -10 9 -11 8 -5 -6z"/>
<path d="M327 215 c16 -22 33 -32 33 -20 0 9 -34 45 -43 45 -4 0 0 -11 10 -25z"/>
<path d="M50 221 c0 -6 5 -13 10 -16 6 -3 10 1 10 9 0 9 -4 16 -10 16 -5 0
-10 -4 -10 -9z"/>
<path d="M142 200 c13 -20 48 -28 48 -10 0 5 -7 7 -15 4 -8 -4 -17 1 -21 10
-3 9 -10 16 -15 16 -5 0 -4 -9 3 -20z"/>
<path d="M410 201 c0 -25 6 -27 13 -6 4 8 2 17 -3 20 -6 4 -10 -3 -10 -14z"/>
<path d="M675 210 c3 -5 8 -10 11 -10 2 0 4 5 4 10 0 6 -5 10 -11 10 -5 0 -7
-4 -4 -10z"/>
<path d="M210 208 c0 -4 12 -19 28 -35 46 -49 59 -68 54 -83 -4 -11 -2 -11 9
0 13 11 12 16 -7 35 -11 11 -23 25 -25 31 -5 12 -59 59 -59 52z"/>
<path d="M710 205 c0 -5 5 -17 10 -25 5 -8 10 -10 10 -5 0 6 -5 17 -10 25 -5
8 -10 11 -10 5z"/>
<path d="M650 190 c0 -5 9 -14 20 -20 11 -6 20 -9 20 -8 0 2 -9 11 -20 21 -11
9 -20 13 -20 7z"/>
<path d="M30 186 c0 -2 7 -7 16 -10 8 -3 12 -2 9 4 -6 10 -25 14 -25 6z"/>
<path d="M120 182 c0 -12 19 -26 26 -19 2 2 -2 10 -11 17 -9 8 -15 8 -15 2z"/>
<path d="M367 176 c-4 -9 -1 -13 6 -11 7 3 27 -9 46 -25 38 -34 43 -36 35 -15
-4 8 -10 15 -15 15 -4 0 -19 11 -33 25 -29 29 -32 30 -39 11z"/>
<path d="M6 172 c6 -4 15 -18 19 -32 7 -23 8 -24 15 -5 7 20 -12 44 -35 45 -6
0 -5 -4 1 -8z"/>
<path d="M85 165 c20 -14 24 -18 60 -45 17 -13 18 -13 10 0 -11 19 -43 43 -70
53 -20 7 -20 7 0 -8z"/>
<path d="M586 172 c-3 -6 -1 -14 5 -17 14 -9 20 -2 10 14 -6 8 -11 9 -15 3z"/>
<path d="M500 162 c0 -5 7 -9 15 -9 8 0 12 4 9 9 -7 10 -24 10 -24 0z"/>
<path d="M550 160 c0 -5 5 -10 11 -10 5 0 7 5 4 10 -3 6 -8 10 -11 10 -2 0 -4
-4 -4 -10z"/>
<path d="M811 144 c0 -11 3 -14 6 -6 3 7 2 16 -1 19 -3 4 -6 -2 -5 -13z"/>
<path d="M338 143 c6 -2 12 -12 12 -21 0 -15 2 -15 10 -2 9 15 -4 30 -25 29
-5 0 -4 -3 3 -6z"/>
<path d="M210 126 c0 -2 7 -9 15 -16 9 -7 15 -8 15 -2 0 5 -7 12 -15 16 -8 3
-15 4 -15 2z"/>
<path d="M381 121 c-12 -8 -12 -12 2 -25 10 -10 18 -12 22 -6 3 5 1 10 -4 10
-6 0 -11 5 -11 11 0 6 7 8 16 5 8 -3 12 -2 9 4 -8 12 -16 12 -34 1z"/>
<path d="M890 110 c0 -5 5 -10 11 -10 5 0 7 5 4 10 -3 6 -8 10 -11 10 -2 0 -4
-4 -4 -10z"/>
<path d="M170 100 c0 -14 36 -53 46 -49 5 2 -3 16 -18 31 -16 15 -28 23 -28
18z"/>
<path d="M576 101 c-4 -7 -5 -15 -2 -18 9 -9 19 4 14 18 -4 11 -6 11 -12 0z"/>
<path d="M257 79 c3 -10 9 -16 14 -13 13 8 11 21 -5 27 -10 4 -12 0 -9 -14z"/>
<path d="M327 93 c-11 -10 -8 -25 3 -18 5 3 20 -3 32 -14 12 -12 23 -19 26
-16 3 3 -46 55 -53 55 -1 0 -5 -3 -8 -7z"/>
<path d="M2063 60 c0 -25 2 -35 4 -22 2 12 2 32 0 45 -2 12 -4 2 -4 -23z"/>
<path d="M50 88 c0 -10 68 -83 73 -78 2 3 -13 23 -34 44 -22 22 -39 37 -39 34z"/>
<path d="M113 68 c0 -13 1 -18 4 -11 2 7 12 9 21 6 15 -6 15 -5 3 10 -18 23
-27 21 -28 -5z"/>
<path d="M27 73 c-7 -11 51 -79 60 -70 3 4 0 13 -9 20 -8 6 -22 22 -30 35 -9
13 -18 20 -21 15z"/>
<path d="M861 64 c0 -11 3 -14 6 -6 3 7 2 16 -1 19 -3 4 -6 -2 -5 -13z"/>
<path d="M415 60 c3 -5 13 -10 21 -10 8 0 12 5 9 10 -3 6 -13 10 -21 10 -8 0
-12 -4 -9 -10z"/>
<path d="M245 30 c3 -5 11 -10 16 -10 6 0 7 5 4 10 -3 6 -11 10 -16 10 -6 0
-7 -4 -4 -10z"/>
<path d="M26 17 c3 -10 9 -15 12 -12 3 3 0 11 -7 18 -10 9 -11 8 -5 -6z"/>
<path d="M391 27 c2 -1 13 -9 24 -17 19 -14 19 -14 6 3 -7 9 -18 17 -24 17 -6
0 -8 -1 -6 -3z"/>
<path d="M717 19 c7 -7 15 -10 18 -7 3 3 -2 9 -12 12 -14 6 -15 5 -6 -5z"/>
<path d="M330 10 c8 -5 20 -10 25 -10 6 0 3 5 -5 10 -8 5 -19 10 -25 10 -5 0
-3 -5 5 -10z"/>
<path d="M616 12 c-3 -5 1 -9 9 -9 8 0 12 4 9 9 -3 4 -7 8 -9 8 -2 0 -6 -4 -9
-8z"/>
</g>
</svg>
