<?xml version="1.0" standalone="no"?>
<!DOCTYPE svg PUBLIC "-//W3C//DTD SVG 20010904//EN"
 "http://www.w3.org/TR/2001/REC-SVG-20010904/DTD/svg10.dtd">
<svg version="1.0" xmlns="http://www.w3.org/2000/svg"
 width="300.000000pt" height="379.000000pt" viewBox="0 0 300.000000 379.000000"
 preserveAspectRatio="xMidYMid meet">
<metadata>
Created by potrace 1.10, written by Peter Selinger 2001-2011
</metadata>
<g transform="translate(0.000000,379.000000) scale(0.100000,-0.100000)"
fill="#000000" stroke="none">
<path d="M2715 3710 c-22 -45 -43 -84 -46 -86 -4 -2 -35 32 -69 77 -34 44 -64
78 -67 76 -2 -3 5 -40 16 -83 11 -43 18 -81 15 -86 -3 -4 2 -8 10 -8 9 0 16 1
16 3 0 1 -9 31 -20 66 -19 65 -20 89 -2 54 6 -10 31 -45 56 -77 l46 -59 31 67
c35 76 49 81 25 10 -18 -54 -21 -83 -7 -68 11 11 44 169 39 184 -2 6 -21 -25
-43 -70z"/>
<path d="M285 3703 c4 -27 14 -74 22 -106 9 -32 13 -60 10 -63 -3 -3 -36 2
-74 11 -38 9 -84 15 -103 13 -34 -3 -31 -5 65 -57 55 -30 102 -56 104 -57 2
-2 -31 -42 -74 -89 -43 -47 -76 -87 -74 -89 2 -2 43 16 92 39 48 24 87 39 87
34 0 -6 -10 -32 -21 -59 -12 -27 -19 -56 -15 -65 3 -8 2 -15 -2 -15 -5 0 -14
-17 -22 -37 -8 -21 -16 -41 -18 -45 -2 -5 1 -8 7 -8 5 0 21 21 34 48 53 102
57 108 57 87 0 -11 -9 -74 -20 -140 -25 -150 -25 -171 1 -240 27 -74 56 -105
131 -145 78 -42 164 -46 224 -11 35 21 38 21 80 5 25 -9 47 -15 50 -12 2 3
-13 13 -35 21 l-40 16 25 56 c29 63 42 153 26 181 -9 15 -11 7 -12 -41 0 -35
-9 -85 -21 -122 -20 -55 -27 -64 -69 -87 -116 -63 -280 -4 -338 122 -31 68
-31 137 -2 287 11 59 20 137 20 175 0 37 3 75 6 84 9 23 41 20 54 -5 13 -24 5
-69 -11 -69 -8 0 -7 -5 1 -15 16 -19 41 -19 66 0 23 18 11 20 -16 3 -15 -10
-22 -10 -32 0 -9 9 -9 12 0 12 15 0 16 54 2 81 -6 10 -20 19 -30 19 -30 0 -24
22 18 62 43 43 78 58 131 58 43 0 127 -39 160 -74 24 -26 81 -157 81 -187 0
-28 -29 -23 -36 6 -3 13 -12 29 -20 36 -18 15 -18 7 3 -35 16 -35 16 -36 -10
-56 -15 -12 -27 -26 -27 -33 0 -6 13 1 28 16 15 15 42 31 59 37 18 7 51 36 79
71 l48 60 13 -25 c9 -18 18 -23 30 -19 11 4 13 8 5 11 -7 2 -10 8 -7 13 4 5
-2 6 -12 2 -16 -6 -16 -5 -4 10 12 15 11 17 -13 17 -19 0 -36 -13 -67 -52 -48
-62 -59 -68 -59 -36 -1 13 -18 58 -38 101 -21 42 -34 77 -30 77 4 0 8 7 8 15
0 8 -4 15 -10 15 -5 0 -10 -7 -10 -15 0 -8 -4 -15 -10 -15 -5 0 -10 4 -10 9 0
5 -24 21 -54 36 l-54 26 46 42 c26 23 49 43 51 44 13 9 -10 13 -26 5 -28 -15
-198 -80 -201 -77 -1 1 16 41 39 89 22 48 39 89 37 91 -4 5 -121 -131 -150
-173 l-16 -25 -43 84 c-24 46 -47 92 -51 102 -13 31 -19 18 -13 -30z m59 -88
c20 -41 41 -75 46 -75 10 0 99 107 107 127 3 7 9 13 14 13 5 0 -6 -29 -23 -65
-18 -35 -30 -67 -27 -70 5 -4 60 16 167 61 17 7 32 10 31 6 -1 -18 -58 -49
-100 -55 -25 -3 -65 -16 -89 -29 -61 -33 -90 -81 -101 -172 -8 -65 -43 -155
-55 -143 -2 2 5 29 16 60 11 31 20 66 20 77 0 20 -2 19 -52 -8 -96 -53 -102
-48 -35 24 34 36 62 71 62 78 0 6 -38 30 -84 54 -89 45 -83 51 29 27 36 -7 66
-13 67 -11 2 2 -24 130 -32 157 -13 39 3 16 39 -56z"/>
<path d="M1684 3713 c-14 -15 -16 -30 -10 -107 4 -50 12 -96 18 -103 8 -10 65
-13 244 -13 220 0 234 1 244 19 5 11 10 29 10 40 0 16 6 21 25 21 23 0 24 2
13 20 -7 11 -18 20 -25 20 -7 0 -13 11 -13 25 0 14 -4 25 -10 25 -18 0 -10
-40 10 -52 11 -7 20 -16 20 -19 0 -4 -9 -9 -20 -12 -13 -3 -20 -14 -20 -29 0
-13 -5 -29 -12 -36 -17 -17 -441 -17 -456 1 -10 12 -15 68 -13 155 l1 42 45 0
c25 0 45 5 45 10 0 17 -77 11 -96 -7z"/>
<path d="M1790 3721 c0 -10 89 -6 98 4 3 3 -18 5 -46 5 -29 0 -52 -4 -52 -9z"/>
<path d="M1903 3724 c9 -9 96 -11 110 -2 7 4 -17 8 -52 8 -35 0 -62 -3 -58 -6z"/>
<path d="M2030 3722 c0 -5 27 -7 60 -7 56 2 62 0 75 -24 13 -23 14 -24 15 -6
0 12 -5 26 -12 33 -13 13 -138 17 -138 4z"/>
<path d="M1800 3668 c0 -19 2 -20 10 -8 13 19 13 30 0 30 -5 0 -10 -10 -10
-22z"/>
<path d="M1730 3664 c0 -8 10 -12 27 -10 37 4 40 21 3 22 -18 1 -30 -4 -30
-12z"/>
<path d="M1850 3665 c0 -8 5 -15 10 -15 6 0 10 7 10 15 0 8 -4 15 -10 15 -5 0
-10 -7 -10 -15z"/>
<path d="M1885 3670 c-7 -11 -8 -11 23 -14 13 -2 26 2 29 7 3 6 1 7 -5 3 -7
-4 -12 -2 -12 3 0 14 -27 14 -35 1z"/>
<path d="M1200 3650 c0 -5 -6 -7 -14 -4 -7 3 -16 -1 -19 -9 -3 -9 2 -13 16
-12 19 1 40 35 23 35 -3 0 -6 -4 -6 -10z"/>
<path d="M1230 3640 c0 -13 5 -20 13 -17 6 2 12 10 12 17 0 7 -6 15 -12 18 -8
2 -13 -5 -13 -18z"/>
<path d="M1945 3650 c-3 -5 -1 -10 4 -10 6 0 11 5 11 10 0 6 -2 10 -4 10 -3 0
-8 -4 -11 -10z"/>
<path d="M2372 3648 c3 -7 27 -23 54 -37 l49 -25 -31 -8 c-85 -22 -182 -127
-200 -216 -8 -41 -24 -48 -74 -32 -28 9 -50 28 -79 67 -39 53 -59 56 -47 7 6
-22 4 -24 -11 -15 -10 5 -27 19 -37 30 -38 42 -47 21 -17 -43 11 -23 27 -58
36 -79 11 -27 24 -39 43 -43 15 -3 37 -14 50 -24 l22 -18 -30 -30 c-16 -17
-30 -40 -30 -51 0 -12 -6 -21 -15 -21 -8 0 -15 -5 -15 -11 0 -6 9 -9 19 -6 17
4 20 -2 26 -47 4 -28 13 -70 20 -93 10 -34 10 -44 -2 -55 -18 -18 -7 -53 12
-38 9 8 14 6 19 -6 9 -22 8 -24 -9 -18 -8 4 -15 1 -15 -6 0 -7 8 -10 19 -7 16
4 21 -2 26 -36 6 -35 4 -43 -16 -58 -13 -10 -30 -19 -37 -19 -7 0 -23 -11 -36
-24 -28 -31 -25 -91 7 -108 39 -20 119 -37 214 -44 57 -4 93 -11 93 -18 0 -6
4 -4 9 3 5 8 31 18 58 22 37 5 23 7 -59 8 -121 1 -248 17 -293 35 -22 9 -31
21 -33 40 -2 30 0 31 36 12 97 -50 460 -50 610 0 54 18 52 18 52 -7 0 -31 -43
-46 -217 -75 -19 -3 -33 -11 -33 -18 0 -20 -61 -40 -71 -24 -4 7 -11 9 -14 6
-11 -10 4 -28 23 -28 9 0 32 9 50 20 18 11 38 17 44 14 6 -4 8 -2 4 4 -4 7 11
13 41 18 27 3 76 15 111 26 73 22 90 47 72 103 -12 35 -44 55 -90 55 l-30 0
35 45 c60 79 74 175 52 350 -9 66 -16 151 -16 190 -1 72 -15 138 -34 166 -7 9
-33 34 -59 57 -39 33 -58 42 -102 47 -35 5 -64 15 -79 29 -25 22 -63 46 -73
46 -3 0 -4 -5 -2 -12z m236 -110 c42 -35 82 -86 82 -106 0 -7 -8 -12 -18 -12
-33 0 -62 -29 -62 -64 0 -17 6 -38 13 -45 10 -11 5 -12 -26 -9 -43 5 -46 -13
-3 -19 35 -5 61 14 45 33 -6 7 -9 28 -7 46 2 25 9 35 30 42 15 5 30 7 33 5 2
-3 5 -41 6 -85 0 -43 9 -138 20 -211 18 -122 18 -136 3 -200 -19 -84 -57 -155
-99 -188 -71 -53 -190 -58 -272 -9 -58 34 -103 124 -103 208 0 30 -5 58 -11
62 -8 5 -9 -14 -4 -67 6 -71 18 -105 60 -175 25 -41 11 -59 -50 -69 -25 -3
-45 -10 -45 -14 0 -15 95 10 111 30 16 17 19 18 48 3 68 -34 219 -27 263 12
29 27 153 -4 134 -34 -16 -27 -206 -62 -333 -62 -146 0 -342 32 -351 58 -5 15
34 16 44 1 3 -6 17 -9 30 -6 13 2 24 0 24 -4 0 -5 5 -9 11 -9 8 0 7 5 -1 15
-7 9 -20 13 -29 10 -10 -3 -26 1 -37 9 -18 15 -18 15 3 9 35 -8 92 6 102 26 7
12 4 41 -9 92 -10 41 -28 123 -39 184 -19 107 -19 111 -1 151 10 23 27 47 38
53 30 16 78 13 93 -5 8 -9 31 -28 52 -41 21 -13 42 -34 46 -46 5 -12 18 -31
30 -41 12 -11 31 -35 42 -53 12 -19 23 -32 26 -29 8 8 -18 49 -58 93 -45 49
-46 54 -20 97 24 39 37 96 22 96 -6 0 -11 -9 -11 -20 0 -24 -30 -100 -39 -100
-8 0 -50 29 -75 52 -21 19 -100 26 -110 9 -10 -15 -61 1 -91 30 -17 16 -42 30
-55 32 -16 3 -24 11 -24 21 1 9 -3 16 -9 16 -6 0 -7 3 -4 7 4 3 2 12 -5 20 -8
11 -7 12 6 7 9 -3 16 -1 16 5 0 6 -6 11 -14 11 -15 0 -60 50 -52 57 2 2 17
-10 34 -27 42 -41 56 -39 48 8 -4 27 -3 31 3 16 5 -12 15 -25 21 -29 6 -4 15
-18 20 -31 5 -13 17 -24 27 -24 10 0 31 -7 47 -15 15 -8 46 -15 69 -15 28 0
50 -8 74 -26 18 -14 33 -22 33 -18 0 13 -33 44 -46 44 -19 0 -27 41 -14 75 9
28 9 29 -5 11 -8 -11 -15 -32 -15 -48 0 -15 -4 -28 -10 -28 -30 0 14 118 66
177 46 51 117 83 184 83 50 0 63 -4 98 -32z m-437 -362 c-35 -37 -35 -79 -1
-246 18 -85 35 -166 37 -181 4 -20 -1 -28 -22 -37 -46 -21 -64 -15 -31 11 l28
23 -43 149 c-63 223 -57 305 24 305 l30 0 -22 -24z m-41 -285 c0 -5 -7 -11
-15 -15 -15 -5 -20 5 -8 17 9 10 23 9 23 -2z"/>
<path d="M2495 3410 c-3 -5 -1 -10 4 -10 6 0 11 5 11 10 0 6 -2 10 -4 10 -3 0
-8 -4 -11 -10z"/>
<path d="M2520 3411 c0 -6 9 -9 20 -8 11 1 20 5 20 9 0 4 -9 8 -20 8 -11 0
-20 -4 -20 -9z"/>
<path d="M2510 3364 c0 -9 7 -14 17 -12 25 5 28 28 4 28 -12 0 -21 -6 -21 -16z"/>
<path d="M2657 3374 c-8 -8 1 -24 14 -24 5 0 9 7 9 15 0 15 -12 20 -23 9z"/>
<path d="M2560 3245 c-10 -12 -8 -17 13 -26 31 -14 77 -4 77 16 0 8 -4 15 -9
15 -5 0 -17 3 -27 7 -13 5 -15 3 -9 -8 6 -11 5 -12 -6 -1 -17 16 -24 15 -39
-3z m63 -22 c-7 -2 -21 -2 -30 0 -10 3 -4 5 12 5 17 0 24 -2 18 -5z"/>
<path d="M1116 3625 c-3 -9 0 -15 9 -15 8 0 15 7 15 15 0 8 -4 15 -9 15 -5 0
-11 -7 -15 -15z"/>
<path d="M2445 3631 c-5 -9 95 -34 103 -26 5 5 -5 9 -60 24 -21 5 -40 6 -43 2z"/>
<path d="M1790 3605 c0 -8 5 -15 10 -15 6 0 10 7 10 15 0 8 -4 15 -10 15 -5 0
-10 -7 -10 -15z"/>
<path d="M1880 3611 c0 -6 5 -13 10 -16 6 -3 10 1 10 9 0 9 -4 16 -10 16 -5 0
-10 -4 -10 -9z"/>
<path d="M1963 3613 c-18 -7 -16 -20 2 -20 8 0 15 6 15 14 0 7 -1 13 -2 12 -2
0 -9 -3 -15 -6z"/>
<path d="M2016 3611 c-4 -7 -5 -15 -2 -18 9 -9 19 4 14 18 -4 11 -6 11 -12 0z"/>
<path d="M1017 3595 c6 -17 25 -15 31 3 2 7 -5 12 -17 12 -14 0 -19 -5 -14
-15z"/>
<path d="M1850 3600 c0 -5 5 -10 10 -10 6 0 10 5 10 10 0 6 -4 10 -10 10 -5 0
-10 -4 -10 -10z"/>
<path d="M2080 3595 c0 -8 5 -15 10 -15 6 0 10 7 10 15 0 8 -4 15 -10 15 -5 0
-10 -7 -10 -15z"/>
<path d="M980 3586 c0 -9 5 -16 10 -16 6 0 10 4 10 9 0 6 -4 13 -10 16 -5 3
-10 -1 -10 -9z"/>
<path d="M937 3583 c-11 -11 -8 -23 6 -23 8 0 14 7 14 15 0 16 -9 19 -20 8z"/>
<path d="M2780 3581 c-47 -3 -80 -9 -74 -13 6 -4 57 -3 115 1 57 5 109 6 116
4 6 -3 20 0 30 6 20 12 -31 12 -187 2z"/>
<path d="M890 3556 c0 -15 18 -31 26 -23 7 7 -7 37 -17 37 -5 0 -9 -6 -9 -14z"/>
<path d="M2040 3554 c0 -8 5 -12 10 -9 6 4 8 11 5 16 -9 14 -15 11 -15 -7z"/>
<path d="M2838 3532 l-78 -37 69 -102 c38 -57 67 -103 65 -103 -2 0 -36 27
-76 60 -75 63 -93 72 -83 41 3 -10 8 -65 10 -122 2 -57 9 -107 15 -113 9 -8
10 -2 6 24 -3 19 -8 76 -11 125 l-6 90 33 -31 c63 -58 139 -117 144 -111 6 5
-77 141 -124 204 l-24 33 76 34 c42 19 76 37 76 40 0 10 -13 5 -92 -32z"/>
<path d="M1960 3550 c0 -5 7 -10 15 -10 8 0 15 5 15 10 0 6 -7 10 -15 10 -8 0
-15 -4 -15 -10z"/>
<path d="M2000 3550 c0 -5 4 -10 9 -10 6 0 13 5 16 10 3 6 -1 10 -9 10 -9 0
-16 -4 -16 -10z"/>
<path d="M850 3535 c0 -9 5 -15 11 -13 6 2 11 8 11 13 0 5 -5 11 -11 13 -6 2
-11 -4 -11 -13z"/>
<path d="M810 3516 c0 -9 7 -16 16 -16 9 0 14 5 12 12 -6 18 -28 21 -28 4z"/>
<path d="M780 3504 c0 -8 5 -12 10 -9 6 4 8 11 5 16 -9 14 -15 11 -15 -7z"/>
<path d="M1095 3500 c-3 -5 -1 -10 4 -10 6 0 11 5 11 10 0 6 -2 10 -4 10 -3 0
-8 -4 -11 -10z"/>
<path d="M880 3485 c0 -8 5 -15 10 -15 6 0 10 7 10 15 0 8 -4 15 -10 15 -5 0
-10 -7 -10 -15z"/>
<path d="M837 3473 c-12 -12 -7 -22 8 -17 8 4 15 10 15 15 0 11 -14 12 -23 2z"/>
<path d="M780 3450 c0 -5 7 -10 15 -10 8 0 15 5 15 10 0 6 -7 10 -15 10 -8 0
-15 -4 -15 -10z"/>
<path d="M555 3410 c-3 -5 -1 -10 4 -10 6 0 11 5 11 10 0 6 -2 10 -4 10 -3 0
-8 -4 -11 -10z"/>
<path d="M980 3397 c0 -2 9 -14 20 -27 24 -28 25 -40 5 -40 -20 0 -41 -21 -88
-86 -49 -69 -63 -80 -81 -65 -22 19 -82 3 -118 -31 -17 -16 -38 -28 -47 -26
-16 3 -41 45 -61 102 -5 16 -13 26 -16 23 -10 -9 25 -98 48 -123 19 -22 19
-22 -9 -55 -26 -32 -60 -79 -77 -106 -4 -7 -3 -13 3 -13 5 0 22 21 39 48 59
95 154 172 215 172 33 0 64 -38 70 -85 6 -51 -17 -189 -43 -258 -11 -28 -20
-57 -20 -64 0 -7 17 -24 38 -39 20 -14 30 -24 20 -21 -9 3 -24 -1 -35 -9 -20
-15 -19 -15 62 1 37 7 68 -10 45 -25 -54 -35 -372 -39 -514 -6 -81 18 -156 52
-156 71 0 13 30 25 68 25 12 0 22 5 22 11 0 12 -52 4 -88 -13 -20 -11 -22 -17
-16 -57 4 -29 14 -52 28 -63 23 -19 95 -43 178 -58 28 -6 52 -11 53 -13 1 -1
5 -109 9 -240 3 -131 7 -243 9 -250 1 -7 -14 -13 -38 -15 -59 -5 -199 -49
-230 -74 -24 -18 -26 -25 -20 -67 7 -55 11 -59 78 -91 44 -21 53 -30 59 -60
10 -45 0 -155 -19 -202 -11 -27 -14 -66 -11 -141 l3 -103 -55 4 c-30 2 -62 11
-71 18 -9 8 -41 19 -72 24 -30 5 -68 15 -84 23 -40 20 -83 29 -83 17 0 -5 9
-10 20 -10 12 0 39 -9 61 -20 22 -12 59 -23 82 -26 23 -3 56 -15 73 -25 20
-12 50 -19 84 -19 l53 0 -6 -103 c-2 -56 -11 -126 -18 -156 l-13 -53 -55 6
c-31 3 -78 14 -106 24 -56 21 -180 39 -171 24 3 -5 34 -12 69 -15 35 -3 87
-15 116 -26 28 -12 72 -21 96 -21 25 0 45 -1 45 -2 0 -2 -7 -28 -15 -58 -8
-30 -15 -81 -15 -113 l0 -57 -28 6 c-37 9 -38 11 -15 37 23 24 30 53 19 79 -5
10 -6 23 -4 30 5 14 -57 57 -83 58 -9 0 -27 -9 -40 -20 -13 -10 -19 -19 -12
-20 6 0 15 5 18 10 9 15 57 12 79 -5 27 -21 16 -26 -28 -14 -28 8 -41 7 -52
-2 -8 -6 -17 -9 -20 -6 -4 3 -13 -1 -21 -9 -22 -22 -29 -8 -8 16 10 11 14 20
8 20 -16 0 -46 -38 -38 -50 3 -6 -9 -26 -28 -45 -19 -19 -31 -38 -26 -41 15
-9 10 -34 -6 -34 -8 0 -15 -5 -15 -11 0 -6 9 -8 21 -4 12 4 31 3 43 -3 11 -6
30 -13 40 -16 19 -6 19 -7 0 -20 -17 -13 -16 -14 14 -13 18 1 32 3 32 5 0 10
-40 41 -68 52 -44 17 -56 48 -28 71 19 16 21 16 32 0 19 -25 27 -6 9 22 -15
23 -15 25 7 30 12 4 28 1 35 -4 7 -6 18 -9 25 -6 8 4 7 6 -4 6 -21 1 -23 14
-5 30 10 8 25 7 58 -2 40 -12 44 -16 47 -48 2 -29 -3 -42 -33 -72 -20 -20 -45
-37 -55 -37 -11 0 -20 -4 -20 -10 0 -6 9 -6 26 0 37 14 47 12 41 -9 -3 -13 0
-18 12 -16 9 2 18 4 20 4 2 1 -3 9 -12 19 -18 20 -12 38 7 23 6 -5 22 -11 35
-13 13 -1 27 -13 32 -25 7 -20 4 -23 -46 -33 -30 -6 -102 -11 -159 -12 -70 0
-104 -4 -100 -10 9 -14 263 -4 292 11 18 10 23 8 32 -10 7 -11 9 -23 7 -25
-11 -11 -138 -24 -236 -24 -57 0 -102 -2 -99 -6 3 -3 19 -6 34 -7 34 -3 31 17
35 -220 2 -93 7 -173 10 -179 7 -12 132 -13 150 -2 9 5 10 59 4 205 l-7 199
24 0 c12 1 40 7 60 14 35 12 38 12 51 -8 13 -18 12 -26 -5 -59 -47 -92 -40
-197 20 -316 27 -55 88 -129 97 -119 3 3 -9 20 -26 39 -18 19 -50 72 -72 119
-37 79 -39 90 -35 155 4 62 11 83 58 170 29 54 63 113 76 132 30 45 51 113 59
195 4 37 15 90 26 119 20 51 28 203 14 241 -4 9 3 62 14 117 27 129 26 169 -4
241 -14 33 -25 75 -25 95 l0 35 69 0 c82 0 258 33 320 61 46 20 69 17 38 -6
-11 -8 -26 -11 -34 -8 -13 5 -13 2 2 -20 11 -17 26 -27 41 -27 30 0 31 -15 2
-25 -28 -9 -23 -9 -80 -1 -32 5 -48 4 -48 -3 0 -6 15 -11 33 -11 l32 -1 -40
-21 c-22 -11 -48 -27 -57 -36 -19 -16 -25 -48 -8 -37 6 3 10 -3 10 -14 0 -12
23 -67 52 -124 34 -67 56 -126 65 -172 l12 -70 -5 70 c-5 71 -39 162 -84 225
-11 15 -23 48 -26 72 -6 44 -6 44 35 63 23 10 46 24 52 31 6 8 16 11 21 8 14
-9 128 48 128 64 0 8 -9 16 -20 19 -11 3 -20 9 -20 14 0 5 -5 9 -11 9 -5 0 -7
-5 -4 -10 3 -5 -4 -10 -16 -10 -18 0 -19 3 -9 15 13 16 6 35 -15 35 -11 0 -13
10 -9 44 4 25 3 53 -1 63 -5 10 -8 21 -7 24 1 4 -16 9 -38 13 -21 3 -43 12
-47 19 -4 6 -20 12 -35 12 l-27 0 -6 150 c-3 83 -7 164 -7 182 -2 24 5 37 25
53 16 13 27 31 27 46 0 22 -3 24 -27 18 -16 -4 -31 -9 -35 -13 -4 -3 -4 -106
-1 -228 l6 -221 26 -5 c95 -20 131 -38 131 -68 0 -24 -36 -42 -145 -74 -117
-34 -307 -38 -417 -9 -70 18 -138 55 -138 75 0 36 123 84 230 91 l45 3 1 -35
c0 -27 6 -38 25 -47 40 -21 112 -16 144 9 l28 22 -7 105 c-3 58 -9 186 -12
284 l-7 177 57 0 c56 0 170 25 194 43 13 10 16 65 4 83 -4 6 -29 25 -55 43
-40 27 -48 37 -43 55 4 11 9 33 12 49 4 15 10 27 15 27 5 0 8 -4 7 -9 -4 -13
4 -14 35 -2 34 13 37 56 7 94 -19 24 -19 28 -5 90 18 76 9 112 -30 127 -14 5
-25 12 -25 15 0 4 15 26 33 50 17 24 40 56 50 70 10 14 28 25 41 25 35 0 37
10 8 46 -23 29 -42 43 -42 31z m-50 -262 c18 -21 8 -81 -37 -235 -43 -144 -42
-153 5 -171 14 -5 22 -12 19 -15 -6 -6 -44 12 -68 33 -15 12 -13 23 17 126 35
116 44 220 24 258 -9 16 -7 19 8 19 11 0 25 -7 32 -15z m18 -210 c7 -14 12
-34 11 -43 0 -12 -3 -11 -9 6 -12 29 -22 28 -14 -2 7 -28 -9 -42 -25 -23 -7
10 -7 24 1 50 13 44 21 46 36 12z m-585 -254 c31 -11 78 -22 106 -26 28 -3 65
-11 83 -16 81 -23 319 -8 401 26 13 5 17 2 17 -13 0 -30 -19 -40 -106 -58 -84
-18 -254 -15 -378 6 -62 10 -196 57 -196 68 0 4 -3 18 -7 32 -6 22 -4 23 9 12
8 -6 40 -21 71 -31z m300 -113 l47 -1 0 -131 c0 -72 3 -201 7 -288 l6 -156
-37 -10 c-34 -10 -67 -9 -108 4 -15 5 -18 18 -18 87 -1 45 -3 109 -6 142 -3
33 -6 129 -7 213 l-2 153 35 -6 c19 -3 56 -6 83 -7z m187 -107 c-15 -28 -30
-26 -30 3 0 15 7 26 18 28 22 5 26 -6 12 -31z m121 -553 c-8 -39 -33 -53 -128
-73 -224 -45 -320 -44 -471 7 -66 23 -102 49 -102 74 0 14 6 13 35 -5 71 -41
141 -55 295 -55 123 -1 157 3 226 22 44 13 94 32 110 42 40 25 42 25 35 -12z
m50 -88 c11 0 18 -4 14 -9 -8 -14 -58 -6 -63 9 -3 9 1 11 12 7 10 -4 27 -7 37
-7z m-539 -24 l63 -13 -3 -34 c-2 -23 6 -51 25 -84 23 -42 27 -62 27 -120 -1
-40 -9 -94 -19 -125 -15 -44 -17 -72 -11 -161 6 -97 4 -115 -18 -186 -14 -43
-29 -117 -34 -165 -9 -81 -13 -94 -70 -188 l-61 -101 -25 44 c-51 87 -53 197
-6 348 32 104 43 211 34 339 -9 144 -7 191 13 259 10 37 14 80 11 132 -3 43
-1 76 4 73 4 -3 36 -11 70 -18z m587 3 c-22 -14 -33 -10 -19 6 7 8 17 12 22 9
6 -4 5 -10 -3 -15z m-849 -1370 c0 -104 0 -192 0 -196 0 -5 -28 -9 -63 -11
l-64 -3 -6 128 c-8 148 -9 258 -3 264 3 2 34 5 70 5 l66 2 0 -189z"/>
<path d="M633 2473 c9 -2 25 -2 35 0 9 3 1 5 -18 5 -19 0 -27 -2 -17 -5z"/>
<path d="M606 2093 c-6 -14 -5 -15 5 -6 7 7 10 15 7 18 -3 3 -9 -2 -12 -12z"/>
<path d="M20 3363 c0 -13 5 -23 10 -23 13 0 13 11 0 30 -8 12 -10 11 -10 -7z"/>
<path d="M400 3365 c0 -8 5 -15 10 -15 6 0 10 7 10 15 0 8 -4 15 -10 15 -5 0
-10 -7 -10 -15z"/>
<path d="M542 3368 c6 -18 28 -21 28 -4 0 9 -7 16 -16 16 -9 0 -14 -5 -12 -12z"/>
<path d="M140 3331 c0 -5 7 -12 16 -15 21 -8 21 -8 21 9 0 8 -9 15 -19 15 -10
0 -18 -4 -18 -9z"/>
<path d="M78 3323 c-24 -6 -23 -18 2 -20 11 -1 20 4 20 13 0 8 -1 13 -2 13 -2
-1 -11 -3 -20 -6z"/>
<path d="M27 3314 c-7 -8 3 -34 13 -34 5 0 8 9 7 20 -1 20 -8 25 -20 14z"/>
<path d="M100 3265 c0 -8 7 -15 15 -15 8 0 15 7 15 15 0 8 -7 15 -15 15 -8 0
-15 -7 -15 -15z"/>
<path d="M425 3270 c-11 -17 9 -32 36 -28 23 4 23 5 4 13 -11 5 -23 13 -26 18
-4 5 -10 4 -14 -3z"/>
<path d="M480 3260 c11 -11 25 -20 30 -20 11 0 14 30 3 31 -5 0 -18 2 -30 5
-23 4 -23 4 -3 -16z"/>
<path d="M30 3250 c0 -11 5 -20 10 -20 6 0 10 9 10 20 0 11 -4 20 -10 20 -5 0
-10 -9 -10 -20z"/>
<path d="M1080 3210 c13 -24 5 -42 -18 -38 -15 3 -17 -14 -16 -180 0 -147 3
-185 15 -197 21 -21 247 -24 261 -4 12 18 4 367 -9 380 -5 5 -44 10 -87 10
-67 0 -80 4 -103 25 -33 31 -58 33 -43 4z m138 -42 c37 1 72 -1 79 -5 7 -6 14
-69 19 -185 l7 -177 -24 -6 c-36 -8 -219 1 -230 12 -5 5 -12 86 -16 180 l-6
171 24 4 c16 2 25 11 27 26 l4 24 24 -23 c22 -20 34 -23 92 -21z"/>
<path d="M1060 3139 c0 -5 5 -7 10 -4 6 3 10 8 10 11 0 2 -4 4 -10 4 -5 0 -10
-5 -10 -11z"/>
<path d="M1130 3020 c0 -5 5 -10 10 -10 6 0 10 5 10 10 0 6 -4 10 -10 10 -5 0
-10 -4 -10 -10z"/>
<path d="M1160 3020 c0 -5 5 -10 10 -10 6 0 10 5 10 10 0 6 -4 10 -10 10 -5 0
-10 -4 -10 -10z"/>
<path d="M1190 3021 c0 -5 9 -11 21 -14 16 -4 18 -3 8 9 -13 16 -29 19 -29 5z"/>
<path d="M1150 2970 c0 -5 5 -10 10 -10 6 0 10 5 10 10 0 6 -4 10 -10 10 -5 0
-10 -4 -10 -10z"/>
<path d="M1180 2961 c0 -5 11 -8 25 -8 14 0 25 3 25 8 0 5 -11 9 -25 9 -14 0
-25 -4 -25 -9z"/>
<path d="M1101 2848 c-1 -12 7 -16 34 -15 19 1 35 5 35 10 0 5 -13 7 -30 5
-16 -2 -32 0 -34 6 -2 6 -5 4 -5 -6z"/>
<path d="M2754 3119 c-6 -10 12 -29 29 -29 9 0 9 4 1 24 -7 19 -20 21 -30 5z"/>
<path d="M2836 3101 c-4 -7 -5 -15 -2 -18 9 -9 19 4 14 18 -4 11 -6 11 -12 0z"/>
<path d="M2861 3098 c-1 -10 0 -18 2 -19 29 -7 87 -8 87 0 0 5 -14 8 -30 7
-23 -2 -29 1 -25 12 4 12 3 12 -9 3 -11 -9 -15 -9 -19 1 -4 8 -6 7 -6 -4z"/>
<path d="M1925 3087 c-8 -19 -2 -31 13 -26 5 2 6 13 2 24 -7 19 -8 19 -15 2z"/>
<path d="M1965 3092 c-11 -12 -4 -18 18 -16 12 1 28 3 35 3 6 1 12 5 12 9 0 9
-57 12 -65 4z"/>
<path d="M1866 3065 c-4 -10 1 -15 14 -15 11 0 20 7 20 15 0 8 -6 15 -14 15
-8 0 -16 -7 -20 -15z"/>
<path d="M1830 3056 c0 -8 5 -18 10 -21 6 -3 10 3 10 14 0 12 -4 21 -10 21 -5
0 -10 -6 -10 -14z"/>
<path d="M1800 3046 c0 -9 5 -16 10 -16 6 0 10 4 10 9 0 6 -4 13 -10 16 -5 3
-10 -1 -10 -9z"/>
<path d="M2763 3045 c0 -8 4 -15 8 -15 4 0 9 7 13 15 3 9 0 15 -8 15 -7 0 -13
-7 -13 -15z"/>
<path d="M1736 3034 c-11 -7 -16 -17 -11 -21 4 -5 10 -2 12 5 4 10 8 10 19 1
15 -12 19 -2 6 18 -5 8 -12 8 -26 -3z"/>
<path d="M2020 3030 c0 -11 2 -20 4 -20 2 0 6 9 9 20 3 11 1 20 -4 20 -5 0 -9
-9 -9 -20z"/>
<path d="M2055 3040 c-4 -6 -3 -16 3 -22 13 -13 23 4 13 21 -7 10 -10 10 -16
1z"/>
<path d="M2816 3035 c-3 -9 0 -15 8 -15 8 0 16 7 20 15 3 9 0 15 -8 15 -8 0
-16 -7 -20 -15z"/>
<path d="M1940 3018 c0 -19 2 -20 10 -8 13 19 13 30 0 30 -5 0 -10 -10 -10
-22z"/>
<path d="M1980 3025 c0 -8 5 -15 10 -15 6 0 10 7 10 15 0 8 -4 15 -10 15 -5 0
-10 -7 -10 -15z"/>
<path d="M2860 3018 c0 -19 2 -20 10 -8 13 19 13 30 0 30 -5 0 -10 -10 -10
-22z"/>
<path d="M2890 3020 c0 -11 2 -20 4 -20 2 0 6 9 9 20 3 11 1 20 -4 20 -5 0 -9
-9 -9 -20z"/>
<path d="M2920 3014 c0 -8 5 -12 10 -9 6 3 10 10 10 16 0 5 -4 9 -10 9 -5 0
-10 -7 -10 -16z"/>
<path d="M1670 3005 c0 -8 5 -15 10 -15 6 0 10 7 10 15 0 8 -4 15 -10 15 -5 0
-10 -7 -10 -15z"/>
<path d="M1880 3004 c0 -9 5 -14 12 -12 18 6 21 28 4 28 -9 0 -16 -7 -16 -16z"/>
<path d="M2950 3004 c0 -8 5 -12 10 -9 6 4 8 11 5 16 -9 14 -15 11 -15 -7z"/>
<path d="M1830 3006 c0 -2 7 -9 15 -16 12 -10 15 -10 15 4 0 9 -7 16 -15 16
-8 0 -15 -2 -15 -4z"/>
<path d="M2980 3000 c0 -5 5 -10 10 -10 6 0 10 5 10 10 0 6 -4 10 -10 10 -5 0
-10 -4 -10 -10z"/>
<path d="M1620 2991 c0 -18 18 -21 30 -6 10 13 9 15 -9 15 -11 0 -21 -4 -21
-9z"/>
<path d="M1795 2989 c-4 -6 -5 -13 -2 -16 7 -7 27 6 27 18 0 12 -17 12 -25 -2z"/>
<path d="M446 2977 c3 -10 9 -15 12 -12 3 3 0 11 -7 18 -10 9 -11 8 -5 -6z"/>
<path d="M1570 2976 c0 -18 10 -25 26 -19 20 7 17 20 -6 26 -12 3 -20 0 -20
-7z"/>
<path d="M1720 2956 c0 -19 17 -29 25 -16 3 5 1 10 -5 10 -6 0 -8 5 -5 10 3 6
1 10 -4 10 -6 0 -11 -6 -11 -14z"/>
<path d="M1680 2941 c0 -6 5 -13 10 -16 6 -3 10 1 10 9 0 9 -4 16 -10 16 -5 0
-10 -4 -10 -9z"/>
<path d="M2071 2923 c-18 -45 3 -137 23 -104 4 6 2 11 -4 11 -7 0 -9 8 -5 20
4 12 2 20 -5 20 -7 0 -7 7 2 23 14 25 18 57 8 57 -4 0 -13 -12 -19 -27z"/>
<path d="M1640 2925 c0 -8 7 -15 15 -15 8 0 15 7 15 15 0 8 -7 15 -15 15 -8 0
-15 -7 -15 -15z"/>
<path d="M1600 2916 c0 -8 7 -16 15 -20 17 -6 18 -4 9 18 -8 20 -24 21 -24 2z"/>
<path d="M2970 2740 c-9 -6 -10 -10 -3 -10 6 0 15 5 18 10 8 12 4 12 -15 0z"/>
<path d="M210 2710 c-9 -6 -10 -10 -3 -10 6 0 15 5 18 10 8 12 4 12 -15 0z"/>
<path d="M118 2642 c-2 -17 -1 -32 4 -32 4 0 8 5 8 10 0 6 24 -7 52 -29 29
-22 55 -37 58 -34 3 3 -1 8 -8 10 -21 8 -97 75 -103 92 -4 11 -8 5 -11 -17z"/>
<path d="M1008 2659 c6 -7 12 -36 12 -64 0 -46 -3 -53 -26 -64 -15 -6 -25 -14
-22 -16 6 -6 88 33 111 53 16 14 17 11 17 -60 0 -51 -4 -79 -13 -87 -8 -6 -17
-8 -20 -4 -4 3 -7 -2 -7 -12 0 -14 3 -15 15 -5 29 24 26 2 -4 -28 -22 -22 -39
-29 -60 -28 -16 1 -28 -2 -25 -6 9 -15 56 -8 89 12 l33 20 1 118 c2 116 2 118
-26 144 -29 28 -100 53 -75 27z m66 -30 l27 -22 -27 -28 c-15 -16 -30 -27 -32
-24 -10 10 -14 95 -4 95 5 0 21 -10 36 -21z"/>
<path d="M1110 2650 c0 -6 7 -10 15 -10 8 0 15 2 15 4 0 2 -7 6 -15 10 -8 3
-15 1 -15 -4z"/>
<path d="M1210 2620 c0 -5 5 -10 10 -10 6 0 10 5 10 10 0 6 -4 10 -10 10 -5 0
-10 -4 -10 -10z"/>
<path d="M1275 2600 c27 -12 43 -12 25 0 -8 5 -22 9 -30 9 -10 0 -8 -3 5 -9z"/>
<path d="M114 2540 c0 -33 2 -60 6 -60 4 0 7 27 8 60 0 33 -3 60 -7 60 -3 0
-7 -27 -7 -60z"/>
<path d="M1325 2590 c-4 -6 3 -10 14 -10 25 0 27 6 6 13 -8 4 -17 2 -20 -3z"/>
<path d="M340 2522 c0 -4 10 -9 22 -9 18 -2 20 0 8 7 -18 12 -30 13 -30 2z"/>
<path d="M2564 2410 c0 -69 1 -97 3 -62 2 34 2 90 0 125 -2 34 -3 6 -3 -63z"/>
<path d="M935 2511 c-19 -8 -19 -8 3 -15 13 -4 26 -5 29 -2 4 3 1 6 -6 6 -7 0
-9 5 -6 10 7 11 7 11 -20 1z"/>
<path d="M446 2501 c10 -10 80 -24 72 -15 -4 3 -23 10 -43 14 -21 5 -34 5 -29
1z"/>
<path d="M1628 2503 c7 -3 16 -2 19 1 4 3 -2 6 -13 5 -11 0 -14 -3 -6 -6z"/>
<path d="M2393 2502 c-16 -11 -25 -49 -13 -57 6 -4 10 5 10 21 0 22 3 25 12
16 7 -7 21 -12 33 -11 14 0 15 2 5 6 -8 3 -20 11 -26 18 -5 8 -15 11 -21 7z"/>
<path d="M2490 2489 c-31 -17 -32 -18 -7 -13 17 4 27 2 27 -5 0 -6 -6 -12 -12
-12 -17 -2 -48 -5 -74 -7 -30 -3 -38 -29 -14 -42 16 -8 18 -8 14 4 -7 18 12
30 50 30 22 1 34 8 43 26 11 22 13 23 19 6 5 -13 1 -24 -13 -36 -12 -9 -23
-25 -25 -36 -3 -15 -12 -19 -45 -19 -53 0 -75 -19 -47 -40 16 -13 43 -13 84
-1 3 0 7 -3 10 -9 3 -6 -11 -11 -30 -13 -58 -4 -80 -12 -80 -27 0 -17 36 -38
53 -31 7 2 5 5 -4 5 -9 1 -22 8 -29 16 -10 12 -6 13 27 9 31 -3 34 -2 18 6
-17 9 -15 10 12 6 32 -5 60 14 49 33 -4 5 -2 12 4 16 16 10 24 -23 10 -41 -10
-11 -10 -18 -2 -26 18 -18 14 -43 -8 -63 -11 -10 -20 -26 -20 -36 0 -19 -28
-39 -55 -39 -9 0 -13 5 -10 10 10 16 -21 12 -35 -5 -17 -21 -5 -45 22 -44 l23
0 -22 9 c-13 5 -23 14 -23 20 0 12 17 13 24 1 8 -12 58 -1 79 17 9 8 17 23 17
32 0 10 7 23 15 30 17 14 20 56 5 65 -6 4 -5 13 3 25 9 16 9 24 0 40 -8 12 -9
21 -3 25 6 3 10 14 10 23 -1 12 -5 9 -15 -9 -10 -19 -28 -30 -61 -38 -25 -7
-49 -10 -51 -7 -9 9 6 36 19 36 9 0 9 -3 -2 -11 -15 -10 -7 -9 49 6 26 8 64
82 56 112 -6 27 -9 27 -55 2z"/>
<path d="M888 2493 c7 -3 16 -2 19 1 4 3 -2 6 -13 5 -11 0 -14 -3 -6 -6z"/>
<path d="M1710 2480 c8 -5 20 -10 25 -10 6 0 3 5 -5 10 -8 5 -19 10 -25 10 -5
0 -3 -5 5 -10z"/>
<path d="M890 2470 c0 -5 5 -10 11 -10 5 0 7 5 4 10 -3 6 -8 10 -11 10 -2 0
-4 -4 -4 -10z"/>
<path d="M122 2445 c0 -16 2 -22 5 -12 2 9 2 23 0 30 -3 6 -5 -1 -5 -18z"/>
<path d="M1031 2448 c-1 -16 4 -28 9 -28 12 0 12 8 0 35 -8 18 -9 17 -9 -7z"/>
<path d="M1758 2463 c7 -3 16 -2 19 1 4 3 -2 6 -13 5 -11 0 -14 -3 -6 -6z"/>
<path d="M1860 2441 c0 -6 5 -11 10 -11 6 0 10 -13 10 -30 0 -16 4 -30 8 -30
14 0 -1 73 -16 78 -6 2 -12 -1 -12 -7z"/>
<path d="M862 2420 c-12 -10 -19 -21 -14 -24 8 -5 47 33 40 39 -2 2 -13 -5
-26 -15z"/>
<path d="M1904 2433 c8 -8 92 -32 115 -33 17 0 9 10 -11 14 -7 2 -20 6 -28 9
-27 10 -84 17 -76 10z"/>
<path d="M2370 2406 c0 -22 3 -27 11 -19 8 8 8 16 0 30 -9 16 -10 14 -11 -11z"/>
<path d="M959 2403 c-10 -12 -11 -17 -2 -20 7 -2 11 -10 9 -16 -1 -7 -1 -9 1
-4 3 4 15 7 28 7 30 0 55 10 55 21 0 6 -8 5 -19 -1 -11 -5 -27 -10 -35 -10
-22 0 -20 27 2 33 13 4 13 5 -4 6 -12 0 -28 -6 -35 -16z"/>
<path d="M124 2300 c0 -63 1 -89 3 -57 2 31 2 83 0 115 -2 31 -3 5 -3 -58z"/>
<path d="M1853 2370 c0 -25 2 -35 4 -22 2 12 2 32 0 45 -2 12 -4 2 -4 -23z"/>
<path d="M2448 2403 c7 -3 16 -2 19 1 4 3 -2 6 -13 5 -11 0 -14 -3 -6 -6z"/>
<path d="M2074 2384 c22 -8 41 -12 44 -9 6 6 -45 25 -66 24 -9 0 1 -7 22 -15z"/>
<path d="M2161 2382 c-5 -10 -12 -60 -16 -110 -7 -118 -9 -122 -55 -122 -23 0
-46 -8 -60 -20 -13 -11 -27 -20 -32 -20 -4 0 -8 -12 -8 -26 0 -14 -9 -33 -20
-42 -17 -15 -19 -22 -10 -53 7 -25 18 -39 32 -43 30 -7 45 8 28 29 -8 9 -8 15
-2 15 6 0 14 -4 17 -10 3 -5 10 -10 15 -10 13 0 21 33 10 44 -5 5 -10 15 -10
20 0 6 5 5 12 -2 7 -7 23 -12 38 -12 25 -1 25 -1 -10 -28 -19 -15 -49 -42 -68
-60 -33 -31 -34 -36 -28 -80 17 -123 17 -140 -4 -242 -12 -58 -24 -154 -26
-214 l-4 -109 -49 -28 c-28 -16 -62 -45 -77 -65 -16 -20 -61 -58 -102 -86 -40
-27 -76 -56 -79 -65 -3 -8 1 -48 11 -87 9 -39 16 -85 16 -102 l0 -32 -62 32
c-59 29 -69 31 -173 30 -60 0 -162 -2 -226 -5 l-116 -4 -32 95 c-17 52 -31 98
-31 101 0 13 150 12 185 -1 23 -9 38 -8 70 4 22 8 72 17 110 21 91 8 115 14
115 30 0 16 -41 32 -103 40 -48 6 -64 13 -127 53 -19 12 -47 22 -61 22 -15 0
-37 8 -50 19 -19 14 -45 20 -111 22 l-86 4 22 -30 c17 -25 21 -45 22 -120 1
-74 8 -108 37 -195 40 -118 41 -143 6 -338 -11 -62 -18 -119 -16 -125 2 -7 9
15 15 48 7 33 19 92 27 130 8 39 14 100 15 137 l0 67 43 3 c23 2 60 0 82 -4
22 -4 58 -2 80 4 92 25 287 0 348 -44 12 -9 22 -42 32 -108 17 -104 43 -185
85 -270 29 -57 98 -145 107 -136 3 3 -11 24 -30 46 -83 98 -145 284 -167 505
-5 55 -15 117 -21 138 -13 47 -2 62 75 107 28 16 72 51 98 78 26 28 93 76 150
110 137 80 197 127 214 169 8 18 20 36 27 39 7 2 48 0 92 -4 92 -10 113 -5
210 57 17 11 43 32 59 48 20 20 27 23 22 10 -3 -10 -6 -22 -6 -27 0 -12 -82
-96 -108 -109 -36 -19 -17 -26 20 -9 65 31 109 48 124 48 8 0 26 7 39 16 13 9
32 14 42 12 12 -3 -3 -15 -46 -36 -35 -18 -71 -38 -80 -46 -9 -8 -54 -26 -101
-41 -47 -16 -101 -36 -120 -45 -34 -18 -96 -82 -181 -190 -45 -57 -165 -198
-184 -215 -6 -5 -19 -20 -29 -32 -18 -22 -18 -23 11 -60 17 -21 44 -65 62 -98
35 -66 141 -205 141 -186 0 7 -25 44 -55 83 -30 38 -55 73 -55 77 0 3 16 19
35 34 19 15 35 33 35 38 0 6 -16 -3 -35 -20 -39 -34 -55 -39 -55 -16 0 9 6 12
18 9 14 -5 14 -4 2 4 -8 6 -17 9 -22 6 -4 -3 -15 8 -24 23 -9 15 -26 41 -36
56 l-19 28 88 100 c48 55 108 126 133 159 43 59 44 60 57 38 7 -13 15 -44 19
-70 4 -27 10 -48 14 -48 9 0 -8 97 -21 122 -5 9 -9 21 -9 26 0 16 81 102 111
118 27 14 29 13 29 -6 0 -11 5 -20 11 -20 7 0 9 9 5 23 -5 20 0 25 29 34 20 6
35 7 35 2 0 -5 7 -9 16 -9 10 0 14 6 11 14 -6 14 32 27 93 32 41 4 142 30 183
48 30 13 37 21 32 36 -3 10 -1 21 5 25 15 10 12 25 -6 25 -11 0 -14 5 -10 16
9 24 -9 48 -46 61 -52 19 -208 52 -208 44 0 -4 28 -13 63 -20 75 -15 167 -44
167 -52 0 -8 -121 -39 -151 -39 -15 0 -19 4 -15 15 3 8 9 22 12 30 11 28 -28
16 -69 -21 l-40 -37 -106 7 c-124 8 -170 17 -270 53 -63 23 -71 28 -57 39 16
11 133 26 211 26 19 0 35 5 35 10 0 7 -24 9 -69 5 l-70 -6 -7 55 c-3 29 -4 66
-2 81 9 47 30 127 39 145 5 10 9 37 9 62 0 28 7 52 20 69 11 14 20 30 20 35 0
18 -20 24 -36 11 -8 -6 -16 -10 -18 -8 -2 2 -9 58 -15 123 -7 65 -14 123 -17
128 -9 13 -23 9 -33 -10z m29 -53 c1 -30 6 -87 12 -126 11 -72 11 -73 -15 -94
-15 -11 -34 -36 -44 -56 -10 -22 -19 -31 -21 -22 -3 8 -11 21 -18 30 -11 13
-11 17 5 31 11 9 21 14 24 12 7 -8 27 123 30 196 2 58 13 98 23 88 2 -2 4 -29
4 -59z m-60 -197 c0 -12 -40 -47 -40 -36 0 5 -5 1 -11 -9 -9 -15 -7 -21 8 -32
10 -7 15 -16 11 -20 -11 -11 -48 14 -48 33 0 9 -3 27 -6 39 -5 17 -1 22 18 26
41 8 68 7 68 -1z m116 -22 c-19 -23 -24 -38 -20 -58 3 -16 -6 -67 -22 -122
-27 -93 -31 -142 -19 -207 3 -18 2 -33 -2 -34 -91 -7 -123 -26 -123 -72 0 -17
4 -37 8 -44 8 -13 110 -63 130 -63 16 0 15 -7 -6 -50 -12 -25 -44 -53 -112
-97 -52 -35 -99 -63 -104 -63 -10 0 -1 108 20 235 27 161 31 205 21 270 -12
87 -5 109 52 151 27 20 61 57 77 81 30 48 90 103 112 103 9 0 5 -11 -12 -30z
m-208 -55 c-1 -17 2 -36 6 -43 11 -18 4 -23 -15 -9 -20 15 -32 94 -15 100 16
6 27 -14 24 -48z m-41 -59 c-1 -1 4 -10 12 -19 12 -15 11 -17 -3 -17 -19 0
-40 46 -30 69 5 13 8 12 15 -7 5 -12 7 -24 6 -26z m168 -404 c61 -21 214 -42
302 -42 43 0 45 -1 27 -15 -10 -8 -29 -15 -41 -15 -12 0 -25 -5 -29 -11 -13
-21 -223 10 -298 44 -48 22 -53 27 -49 51 4 18 9 24 17 18 6 -5 38 -19 71 -30z
m635 -22 c0 -10 -8 -24 -17 -29 -24 -14 -7 -14 19 0 16 9 19 8 16 -3 -2 -7
-27 -21 -54 -31 -30 -11 -38 -16 -19 -13 17 2 38 8 48 11 9 4 17 3 17 -1 0
-11 -74 -40 -120 -48 -19 -3 -46 -8 -60 -12 l-25 -7 27 22 c14 11 33 21 41 21
8 0 26 9 40 20 14 11 30 20 36 20 6 0 11 7 11 15 0 27 -102 8 -177 -33 -33
-18 -28 -1 8 31 19 16 44 27 63 28 17 0 54 7 81 14 28 7 53 13 58 14 4 0 7 -8
7 -19z m-1630 -325 c19 -14 46 -25 61 -25 14 0 52 -15 83 -34 39 -24 75 -36
116 -41 33 -4 62 -10 65 -15 5 -9 -53 -20 -107 -20 -21 0 -56 -7 -79 -17 -36
-14 -49 -15 -106 -3 -38 7 -85 10 -115 6 l-50 -7 6 43 c6 39 0 73 -19 119 -5
14 3 17 52 18 49 1 65 -3 93 -24z"/>
<path d="M2193 2010 c-12 -28 -18 -52 -14 -54 8 -5 46 92 39 99 -2 3 -14 -18
-25 -45z"/>
<path d="M1070 1205 c0 -16 16 -20 24 -6 3 5 -1 11 -9 15 -9 3 -15 0 -15 -9z"/>
<path d="M1176 1195 c4 -8 10 -15 15 -15 5 0 9 7 9 15 0 8 -7 15 -15 15 -9 0
-12 -6 -9 -15z"/>
<path d="M1270 1155 c0 -8 9 -15 20 -15 24 0 27 15 4 24 -22 9 -24 8 -24 -9z"/>
<path d="M1107 1153 c-11 -11 -8 -43 4 -43 6 0 9 7 5 15 -3 8 -1 15 4 15 6 0
10 5 10 10 0 11 -13 13 -23 3z"/>
<path d="M1226 1143 c-9 -10 -7 -43 3 -43 11 0 21 39 11 45 -4 2 -10 2 -14 -2z"/>
<path d="M1096 2333 c-3 -10 -9 -24 -12 -32 -4 -8 -2 -11 4 -7 7 4 12 -11 15
-41 3 -37 4 -31 5 25 2 73 -1 86 -12 55z"/>
<path d="M1880 2313 c0 -28 -3 -34 -10 -23 -6 9 -10 10 -10 3 0 -21 17 -23 71
-8 30 9 81 23 114 32 33 9 64 20 70 25 16 14 -7 9 -111 -22 -54 -16 -102 -30
-106 -30 -4 0 -6 14 -4 30 2 17 -1 30 -5 30 -5 0 -9 -17 -9 -37z"/>
<path d="M2370 2245 c0 -112 0 -111 -52 -106 -9 1 -19 -3 -23 -9 -4 -6 9 -10
35 -10 38 0 40 -1 34 -25 -4 -15 -2 -25 5 -25 8 0 11 44 11 140 0 77 -2 140
-5 140 -3 0 -5 -47 -5 -105z"/>
<path d="M850 2329 c0 -5 5 -7 10 -4 6 3 10 8 10 11 0 2 -4 4 -10 4 -5 0 -10
-5 -10 -11z"/>
<path d="M865 2310 c-3 -6 1 -7 9 -4 18 7 21 14 7 14 -6 0 -13 -4 -16 -10z"/>
<path d="M970 2300 c-9 -6 -10 -10 -3 -10 6 0 15 5 18 10 8 12 4 12 -15 0z"/>
<path d="M2485 2280 c-17 -7 -17 -9 -2 -9 9 -1 17 -7 17 -15 0 -9 -9 -12 -27
-9 -23 3 -24 2 -8 -5 17 -8 17 -9 -9 -16 -16 -4 -26 -9 -23 -12 12 -12 76 18
83 38 8 26 -6 38 -31 28z"/>
<path d="M893 2215 c-30 -45 -34 -58 -23 -68 10 -9 11 -9 6 0 -9 16 44 97 56
85 9 -9 -21 -73 -49 -104 -16 -18 -18 -18 -24 -1 -7 16 -8 15 -8 -4 -1 -27 11
-29 33 -7 15 14 17 14 23 -2 3 -9 0 -26 -7 -38 -12 -19 -12 -20 4 -7 10 9 17
27 15 45 -2 40 30 116 49 116 10 0 13 -7 8 -27 -5 -21 -4 -24 4 -13 8 12 10
10 10 -12 0 -15 -5 -30 -12 -34 -8 -5 -9 -2 -5 10 4 10 3 15 -3 11 -6 -4 -10
-12 -9 -18 3 -18 -12 -49 -34 -74 -12 -13 -15 -23 -9 -23 7 0 21 14 32 32 l19
32 10 -25 c5 -13 10 -17 10 -8 1 8 -4 20 -10 26 -6 6 -8 16 -4 23 11 17 35 -8
35 -37 0 -14 4 -21 10 -18 6 3 10 13 10 21 0 18 53 74 69 74 6 0 11 7 11 17 0
14 -3 14 -22 -3 -12 -10 -32 -30 -45 -44 -19 -21 -24 -23 -33 -10 -6 8 -8 23
-6 34 3 10 1 28 -4 41 -9 24 -48 65 -62 65 -4 0 -24 -25 -45 -55z m57 35 c0
-5 -5 -10 -11 -10 -5 0 -7 5 -4 10 3 6 8 10 11 10 2 0 4 -4 4 -10z"/>
<path d="M2394 2225 c-8 -19 3 -35 24 -35 15 0 15 2 2 10 -13 9 -12 12 4 25
19 15 19 15 -2 15 -13 0 -25 -7 -28 -15z"/>
<path d="M2535 2176 c-15 -30 -29 -44 -55 -53 -33 -11 -34 -12 -7 -12 18 -1
27 -6 27 -17 0 -11 -6 -15 -20 -11 -11 3 -18 2 -15 -3 3 -4 -6 -10 -20 -12
-13 -3 -26 0 -28 5 -5 16 -27 -2 -27 -23 0 -24 29 -33 75 -24 27 5 35 3 35 -9
0 -8 -10 -17 -22 -20 -13 -3 -34 -9 -47 -13 -17 -5 -22 -4 -17 4 10 16 -5 15
-27 -2 -15 -12 -15 -15 -2 -26 10 -9 15 -9 15 -1 0 6 16 11 35 11 40 0 91 41
82 65 -3 7 3 21 14 31 20 18 25 49 9 59 -6 4 -4 17 6 36 8 17 14 36 12 43 -2
7 -12 -6 -23 -28z m-3 -77 c-5 -35 -19 -47 -64 -60 -41 -11 -68 -7 -68 10 0 6
15 7 35 4 21 -3 35 -1 35 5 0 5 12 13 26 16 22 6 25 11 20 32 -5 19 -3 25 6
22 7 -3 11 -15 10 -29z"/>
<path d="M2458 2193 c7 -3 16 -2 19 1 4 3 -2 6 -13 5 -11 0 -14 -3 -6 -6z"/>
<path d="M1538 2183 c6 -2 18 -2 25 0 6 3 1 5 -13 5 -14 0 -19 -2 -12 -5z"/>
<path d="M130 2112 l5 -57 3 49 c2 27 0 52 -5 57 -4 4 -6 -18 -3 -49z"/>
<path d="M1080 2151 c0 -5 7 -11 14 -14 10 -4 13 -1 9 9 -6 15 -23 19 -23 5z"/>
<path d="M1370 2140 c-9 -6 -10 -10 -3 -10 6 0 15 5 18 10 8 12 4 12 -15 0z"/>
<path d="M1270 2120 c-20 -6 -21 -8 -5 -8 11 0 31 4 45 8 20 6 21 8 5 8 -11 0
-31 -4 -45 -8z"/>
<path d="M1906 2123 c-11 -11 -6 -23 9 -23 8 0 15 4 15 9 0 13 -16 22 -24 14z"/>
<path d="M1950 2115 c0 -8 5 -15 10 -15 6 0 10 7 10 15 0 8 -4 15 -10 15 -5 0
-10 -7 -10 -15z"/>
<path d="M1095 2110 c9 -15 -12 -38 -64 -72 -25 -15 -42 -28 -38 -28 16 0 65
26 90 49 27 25 37 61 16 61 -5 0 -7 -5 -4 -10z"/>
<path d="M1825 2110 c-4 -6 -5 -10 -3 -11 25 -6 38 -6 38 1 0 12 -29 20 -35
10z"/>
<path d="M2590 2100 c0 -11 2 -20 5 -20 2 0 9 9 15 20 9 16 8 20 -5 20 -8 0
-15 -9 -15 -20z"/>
<path d="M2637 2113 c-12 -12 -7 -30 8 -30 8 0 15 9 15 19 0 18 -11 24 -23 11z"/>
<path d="M1767 2097 c-5 -12 -1 -17 13 -17 12 0 20 7 20 18 0 13 -2 14 -9 3
-7 -11 -9 -11 -13 0 -3 9 -6 8 -11 -4z"/>
<path d="M2727 2090 c3 -11 7 -20 8 -20 1 0 5 9 8 20 3 12 0 20 -8 20 -8 0
-11 -8 -8 -20z"/>
<path d="M1714 2089 c-3 -6 -1 -16 5 -22 8 -8 11 -5 11 11 0 24 -5 28 -16 11z"/>
<path d="M2680 2084 c0 -14 3 -14 15 -4 8 7 15 14 15 16 0 2 -7 4 -15 4 -8 0
-15 -7 -15 -16z"/>
<path d="M2760 2085 c0 -6 9 -11 20 -12 11 -1 20 4 20 12 0 8 -9 13 -20 12
-11 -1 -20 -6 -20 -12z"/>
<path d="M2820 2083 c0 -13 5 -23 10 -23 13 0 13 11 0 30 -8 12 -10 11 -10 -7z"/>
<path d="M1050 2080 c0 -5 5 -10 10 -10 6 0 10 5 10 10 0 6 -4 10 -10 10 -5 0
-10 -4 -10 -10z"/>
<path d="M2880 2074 c0 -8 5 -12 10 -9 6 3 10 10 10 16 0 5 -4 9 -10 9 -5 0
-10 -7 -10 -16z"/>
<path d="M1630 2063 c0 -13 5 -23 10 -23 13 0 13 11 0 30 -8 12 -10 11 -10 -7z"/>
<path d="M1663 2065 c2 -5 10 -10 17 -10 7 0 15 5 17 10 2 6 -6 11 -17 11 -11
0 -19 -5 -17 -11z"/>
<path d="M1870 2060 c-9 -16 -8 -20 5 -20 8 0 15 9 15 20 0 11 -2 20 -5 20 -2
0 -9 -9 -15 -20z"/>
<path d="M1910 2061 c0 -11 5 -23 10 -26 6 -4 10 5 10 19 0 14 -4 26 -10 26
-5 0 -10 -9 -10 -19z"/>
<path d="M2916 2071 c-3 -5 1 -11 9 -15 9 -3 15 0 15 9 0 16 -16 20 -24 6z"/>
<path d="M2960 2058 c0 -19 2 -20 10 -8 13 19 13 30 0 30 -5 0 -10 -10 -10
-22z"/>
<path d="M166 2048 c7 -11 74 -41 80 -35 2 2 -16 13 -41 24 -24 11 -42 16 -39
11z"/>
<path d="M755 2050 c3 -5 15 -10 26 -10 11 0 17 5 14 10 -3 6 -15 10 -26 10
-11 0 -17 -4 -14 -10z"/>
<path d="M980 2049 c0 -5 9 -9 20 -9 11 0 20 2 20 4 0 2 -9 6 -20 9 -11 3 -20
1 -20 -4z"/>
<path d="M1580 2039 c0 -18 2 -19 15 -5 8 8 15 17 15 20 0 3 -7 6 -15 6 -9 0
-15 -9 -15 -21z"/>
<path d="M1793 2040 c-3 -12 -10 -17 -17 -13 -6 4 -17 8 -24 9 -10 2 -11 -1
-1 -12 14 -17 69 -10 81 10 6 8 8 7 8 -1 0 -7 5 -13 10 -13 6 0 6 7 -2 19 -10
16 -14 17 -25 5 -19 -18 -24 -18 -17 1 4 8 3 15 -1 15 -4 0 -9 -9 -12 -20z"/>
<path d="M2360 2027 c0 -23 4 -36 10 -32 13 8 13 35 0 55 -7 11 -10 5 -10 -23z"/>
<path d="M1543 2043 c-7 -2 -13 -11 -13 -19 0 -7 6 -11 13 -8 8 3 14 11 14 19
0 8 -1 15 -1 14 -1 0 -7 -3 -13 -6z"/>
<path d="M1715 2040 c-3 -5 -1 -10 4 -10 6 0 11 5 11 10 0 6 -2 10 -4 10 -3 0
-8 -4 -11 -10z"/>
<path d="M2534 2028 c3 -10 -5 -29 -18 -45 -13 -16 -21 -33 -19 -40 6 -18 -35
-35 -68 -28 -22 5 -31 3 -36 -11 -9 -25 25 -46 65 -39 24 4 32 2 32 -8 0 -17
-44 -28 -82 -20 -24 5 -28 2 -28 -16 0 -11 5 -21 11 -21 6 0 9 6 6 13 -3 9 5
12 29 9 37 -5 88 21 81 41 -2 7 4 23 14 36 11 13 19 31 18 40 0 9 -5 4 -10
-11 -7 -19 -24 -32 -55 -44 -43 -16 -46 -16 -62 0 -16 17 -16 18 5 12 28 -9
93 18 93 39 0 8 12 33 26 55 15 22 24 43 20 47 -3 3 -6 0 -6 -8 0 -12 -2 -11
-11 1 -9 13 -10 12 -5 -2z"/>
<path d="M815 1993 c4 -16 7 -29 8 -30 6 -5 57 11 57 18 0 5 -11 7 -25 5 -20
-4 -25 -1 -25 15 0 10 -5 19 -11 19 -7 0 -9 -10 -4 -27z"/>
<path d="M1470 2006 c0 -9 5 -16 10 -16 6 0 10 4 10 9 0 6 -4 13 -10 16 -5 3
-10 -1 -10 -9z"/>
<path d="M1668 1998 c2 -10 8 -18 13 -18 5 0 9 8 9 18 0 10 -6 19 -14 19 -8 0
-11 -8 -8 -19z"/>
<path d="M1720 2010 c0 -5 5 -10 10 -10 6 0 10 5 10 10 0 6 -4 10 -10 10 -5 0
-10 -4 -10 -10z"/>
<path d="M1621 1993 c-8 -14 -11 -15 -11 -3 0 12 -3 11 -11 -3 -13 -22 -3 -35
13 -19 7 7 20 12 31 12 10 0 17 5 15 12 -7 20 -26 20 -37 1z"/>
<path d="M900 1990 c-12 -8 -10 -10 8 -10 13 0 20 4 17 10 -7 12 -6 12 -25 0z"/>
<path d="M1380 1970 c-14 -10 -21 -22 -17 -27 5 -4 15 0 22 11 8 10 18 15 24
11 6 -3 11 1 11 9 0 21 -9 20 -40 -4z"/>
<path d="M1556 1972 c-2 -4 -1 -14 5 -22 7 -12 9 -10 9 8 0 23 -5 28 -14 14z"/>
<path d="M2553 1935 c0 -27 2 -38 4 -22 2 15 2 37 0 50 -2 12 -4 0 -4 -28z"/>
<path d="M743 1959 c-13 -6 -10 -8 14 -8 17 -1 34 3 38 8 6 11 -24 11 -52 0z"/>
<path d="M1320 1945 c0 -9 5 -15 11 -13 6 2 11 8 11 13 0 5 -5 11 -11 13 -6 2
-11 -4 -11 -13z"/>
<path d="M1496 1953 c-11 -11 -6 -23 9 -23 8 0 15 4 15 9 0 13 -16 22 -24 14z"/>
<path d="M2362 1930 c0 -19 2 -27 5 -17 2 9 2 25 0 35 -3 9 -5 1 -5 -18z"/>
<path d="M2455 1950 c4 -6 11 -8 16 -5 14 9 11 15 -7 15 -8 0 -12 -5 -9 -10z"/>
<path d="M1274 1936 c-8 -22 3 -33 18 -18 9 9 9 15 0 24 -9 9 -13 7 -18 -6z"/>
<path d="M2418 1943 c7 -3 16 -2 19 1 4 3 -2 6 -13 5 -11 0 -14 -3 -6 -6z"/>
<path d="M1234 1927 c-8 -21 -3 -29 13 -19 8 5 9 13 3 22 -7 12 -10 12 -16 -3z"/>
<path d="M1430 1925 c0 -8 5 -15 10 -15 6 0 10 7 10 15 0 8 -4 15 -10 15 -5 0
-10 -7 -10 -15z"/>
<path d="M2895 1919 c-148 -17 -167 -28 -156 -96 l6 -38 75 -14 c41 -7 81 -15
89 -17 11 -4 12 -19 7 -72 -3 -37 -6 -118 -6 -179 0 -104 -2 -113 -19 -113
-39 0 -122 -33 -117 -46 3 -9 -9 -17 -37 -24 -110 -29 -157 -43 -154 -47 11
-10 184 42 207 62 14 13 50 30 81 39 31 9 62 22 68 30 7 8 23 17 36 20 14 4
25 10 25 15 0 13 -42 1 -64 -18 -18 -15 -18 -13 -12 64 3 44 6 122 6 173 l0
92 37 0 c61 0 29 12 -55 20 -110 11 -162 28 -162 52 0 14 5 18 18 14 24 -8
160 -25 200 -26 17 0 32 5 32 10 0 6 -26 10 -57 10 -119 0 -219 27 -183 50 19
12 123 29 188 31 28 1 52 6 52 11 0 9 -5 9 -105 -3z"/>
<path d="M1405 1910 c-3 -5 -12 -7 -20 -3 -9 3 -15 -1 -15 -11 0 -18 15 -22
25 -6 4 6 11 8 16 5 5 -4 9 1 9 9 0 18 -6 21 -15 6z"/>
<path d="M1177 1904 c-8 -8 3 -34 14 -34 11 0 12 27 0 34 -4 3 -11 3 -14 0z"/>
<path d="M1127 1893 c-14 -13 -6 -33 12 -33 14 0 18 5 14 20 -5 21 -15 25 -26
13z"/>
<path d="M1330 1885 c0 -8 6 -15 13 -15 8 0 14 7 14 15 0 8 -6 15 -14 15 -7 0
-13 -7 -13 -15z"/>
<path d="M1296 1883 c-11 -11 -6 -23 9 -23 8 0 15 4 15 9 0 13 -16 22 -24 14z"/>
<path d="M2362 1865 c0 -16 2 -22 5 -12 2 9 2 23 0 30 -3 6 -5 -1 -5 -18z"/>
<path d="M2524 1872 c16 -27 -25 -62 -89 -75 -11 -3 0 -3 25 -1 60 5 105 58
68 80 -7 4 -8 3 -4 -4z"/>
<path d="M1060 1854 c0 -17 22 -14 28 4 2 7 -3 12 -12 12 -9 0 -16 -7 -16 -16z"/>
<path d="M1207 1843 c-7 -11 10 -40 18 -31 4 4 3 14 -3 24 -5 9 -12 12 -15 7z"/>
<path d="M1180 1826 c0 -9 5 -16 10 -16 6 0 10 4 10 9 0 6 -4 13 -10 16 -5 3
-10 -1 -10 -9z"/>
<path d="M1146 1821 c-4 -5 -2 -12 3 -15 5 -4 12 -2 15 3 4 5 2 12 -3 15 -5 4
-12 2 -15 -3z"/>
<path d="M1107 1813 c-12 -11 -8 -23 8 -23 8 0 15 7 15 15 0 16 -12 20 -23 8z"/>
<path d="M2350 1785 c0 -8 5 -15 10 -15 6 0 10 7 10 15 0 8 -4 15 -10 15 -5 0
-10 -7 -10 -15z"/>
<path d="M2521 1783 c0 -13 -10 -28 -20 -35 -10 -6 -17 -17 -14 -24 7 -18 -68
-38 -79 -21 -6 9 -10 9 -20 -1 -22 -22 4 -46 58 -53 47 -5 48 -6 24 -17 l-25
-12 25 3 c16 1 26 9 29 22 2 11 8 23 14 27 6 4 8 10 5 14 -4 3 -14 -1 -23 -10
-22 -21 -91 -22 -99 0 -3 9 -2 12 4 9 6 -4 28 -4 50 0 31 5 43 14 60 42 12 20
19 45 17 57 -4 20 -4 20 -6 -1z"/>
<path d="M2482 1774 c-7 -8 -27 -14 -45 -14 -24 0 -28 3 -17 10 9 6 10 10 3
10 -24 0 -43 -13 -43 -29 0 -24 44 -43 72 -31 20 8 18 9 -14 9 -20 1 -40 6
-43 11 -4 6 9 10 32 10 36 0 84 22 73 33 -3 3 -11 -1 -18 -9z"/>
<path d="M2543 1710 c0 -36 2 -50 4 -32 2 17 2 47 0 65 -2 17 -4 3 -4 -33z"/>
<path d="M347 1704 c-8 -8 3 -34 14 -34 5 0 9 9 9 20 0 19 -11 26 -23 14z"/>
<path d="M297 1694 c-8 -8 3 -34 14 -34 11 0 12 27 0 34 -4 3 -11 3 -14 0z"/>
<path d="M2350 1689 c0 -5 5 -7 10 -4 6 3 10 8 10 11 0 2 -4 4 -10 4 -5 0 -10
-5 -10 -11z"/>
<path d="M6 1673 c-12 -12 -5 -23 14 -23 11 0 20 4 20 9 0 11 -26 22 -34 14z"/>
<path d="M80 1660 c0 -13 5 -18 14 -14 8 3 12 12 9 20 -8 21 -23 17 -23 -6z"/>
<path d="M160 1658 c0 -12 3 -18 7 -14 11 10 12 36 2 36 -5 0 -9 -10 -9 -22z"/>
<path d="M227 1673 c-13 -13 -7 -21 13 -16 11 3 17 9 14 14 -6 11 -18 12 -27
2z"/>
<path d="M130 1661 c0 -6 5 -13 10 -16 6 -3 10 1 10 9 0 9 -4 16 -10 16 -5 0
-10 -4 -10 -9z"/>
<path d="M2350 1657 c0 -21 22 -37 50 -36 l25 1 -27 11 c-16 6 -28 17 -28 24
0 7 -4 13 -10 13 -5 0 -10 -6 -10 -13z"/>
<path d="M2516 1644 c-8 -20 0 -32 14 -18 5 5 5 15 1 22 -6 11 -10 10 -15 -4z"/>
<path d="M17 1613 c-10 -9 -8 -43 2 -43 5 0 9 11 9 25 0 27 -1 28 -11 18z"/>
<path d="M196 1613 c-11 -11 -6 -34 5 -27 6 3 15 0 20 -7 7 -11 9 -11 9 -1 0
17 -26 43 -34 35z"/>
<path d="M327 1613 c-12 -12 -7 -19 13 -19 11 0 20 6 20 13 0 14 -22 18 -33 6z"/>
<path d="M40 1596 c0 -9 5 -16 10 -16 6 0 10 4 10 9 0 6 -4 13 -10 16 -5 3
-10 -1 -10 -9z"/>
<path d="M80 1588 c0 -19 2 -20 10 -8 13 19 13 30 0 30 -5 0 -10 -10 -10 -22z"/>
<path d="M117 1604 c-4 -4 -7 -14 -7 -23 0 -11 3 -12 11 -4 6 6 10 16 7 23 -2
6 -7 8 -11 4z"/>
<path d="M150 1595 c0 -9 5 -15 11 -13 6 2 11 8 11 13 0 5 -5 11 -11 13 -6 2
-11 -4 -11 -13z"/>
<path d="M262 1598 c6 -18 28 -21 28 -4 0 9 -7 16 -16 16 -9 0 -14 -5 -12 -12z"/>
<path d="M1850 1413 c0 -5 5 -15 10 -23 8 -12 10 -11 10 8 0 12 -4 22 -10 22
-5 0 -10 -3 -10 -7z"/>
<path d="M1895 1409 c-10 -15 3 -25 16 -12 7 7 7 13 1 17 -6 3 -14 1 -17 -5z"/>
<path d="M1820 1401 c0 -5 5 -13 10 -16 6 -3 10 -2 10 4 0 5 -4 13 -10 16 -5
3 -10 2 -10 -4z"/>
<path d="M1786 1384 c-9 -22 -8 -24 9 -18 8 4 15 12 15 20 0 19 -16 18 -24 -2z"/>
<path d="M2542 1388 c2 -5 8 -9 13 -9 5 0 11 4 13 9 1 5 -4 9 -13 9 -9 0 -14
-4 -13 -9z"/>
<path d="M2606 1385 c-3 -9 0 -15 9 -15 8 0 15 7 15 15 0 8 -4 15 -9 15 -5 0
-11 -7 -15 -15z"/>
<path d="M1730 1376 c0 -8 4 -17 9 -21 6 -3 9 4 8 15 -1 23 -17 28 -17 6z"/>
<path d="M2652 1374 c3 -17 21 -21 26 -6 1 5 -4 12 -13 16 -11 4 -15 1 -13
-10z"/>
<path d="M1700 1371 c0 -6 5 -13 10 -16 6 -3 10 1 10 9 0 9 -4 16 -10 16 -5 0
-10 -4 -10 -9z"/>
<path d="M2695 1370 c-7 -12 2 -30 15 -30 5 0 8 9 7 20 -1 21 -12 26 -22 10z"/>
<path d="M1907 1363 c-12 -12 -7 -19 13 -19 11 0 20 6 20 13 0 14 -22 18 -33
6z"/>
<path d="M2470 1355 c0 -9 5 -15 11 -13 6 2 11 8 11 13 0 5 -5 11 -11 13 -6 2
-11 -4 -11 -13z"/>
<path d="M2737 1364 c-8 -8 1 -24 14 -24 5 0 9 7 9 15 0 15 -12 20 -23 9z"/>
<path d="M1607 1346 c-6 -15 1 -26 15 -26 11 0 10 27 -1 34 -5 3 -11 0 -14 -8z"/>
<path d="M1640 1353 c0 -14 19 -38 25 -32 8 8 -5 39 -16 39 -5 0 -9 -3 -9 -7z"/>
<path d="M1830 1339 c0 -11 4 -18 10 -14 5 3 7 12 3 20 -7 21 -13 19 -13 -6z"/>
<path d="M1860 1345 c0 -8 5 -15 10 -15 6 0 10 7 10 15 0 8 -4 15 -10 15 -5 0
-10 -7 -10 -15z"/>
<path d="M2510 1346 c0 -9 5 -16 10 -16 6 0 10 4 10 9 0 6 -4 13 -10 16 -5 3
-10 -1 -10 -9z"/>
<path d="M2546 1341 c-4 -7 -5 -15 -2 -18 9 -9 19 4 14 18 -4 11 -6 11 -12 0z"/>
<path d="M2575 1340 c-7 -12 2 -30 16 -30 5 0 9 9 9 20 0 21 -15 27 -25 10z"/>
<path d="M2627 1329 c-3 -12 -1 -19 5 -17 13 5 20 38 8 38 -4 0 -10 -9 -13
-21z"/>
<path d="M2957 1343 c-13 -13 -7 -43 7 -37 8 3 13 12 12 19 -3 19 -11 27 -19
18z"/>
<path d="M2 1318 c2 -5 8 -9 13 -9 5 0 11 4 13 9 1 5 -4 9 -13 9 -9 0 -14 -4
-13 -9z"/>
<path d="M1580 1315 c0 -8 4 -15 10 -15 5 0 7 7 4 15 -4 8 -8 15 -10 15 -2 0
-4 -7 -4 -15z"/>
<path d="M1765 1320 c-3 -5 -2 -10 4 -10 5 0 13 5 16 10 3 6 2 10 -4 10 -5 0
-13 -4 -16 -10z"/>
<path d="M1543 1304 c-14 -15 -3 -27 14 -16 7 4 9 13 5 19 -5 8 -11 7 -19 -3z"/>
<path d="M1710 1310 c-12 -7 -12 -12 -2 -22 9 -9 15 -9 24 0 8 8 9 15 2 22 -5
5 -15 6 -24 0z"/>
<path d="M87 1296 c-3 -8 0 -17 8 -20 15 -5 39 17 28 27 -11 12 -31 8 -36 -7z"/>
<path d="M1497 1294 c-8 -8 1 -24 14 -24 5 0 9 7 9 15 0 15 -12 20 -23 9z"/>
<path d="M1670 1285 c0 -8 5 -15 10 -15 6 0 10 7 10 15 0 8 -4 15 -10 15 -5 0
-10 -7 -10 -15z"/>
<path d="M2814 1289 c-7 -13 22 -46 32 -36 4 4 2 13 -4 20 -7 8 -9 17 -5 20 3
4 1 7 -5 7 -6 0 -14 -5 -18 -11z"/>
<path d="M1614 1269 c-3 -6 -1 -16 5 -22 8 -8 11 -5 11 11 0 24 -5 28 -16 11z"/>
<path d="M217 1250 c3 -12 6 -19 7 -18 1 2 8 11 15 21 12 15 11 17 -7 17 -15
0 -19 -5 -15 -20z"/>
<path d="M316 1254 c-9 -23 -8 -24 13 -24 14 0 18 5 14 20 -6 24 -19 26 -27 4z"/>
<path d="M2534 1260 c-12 -4 -31 -24 -42 -44 -12 -20 -32 -41 -46 -47 -27 -13
-52 -57 -38 -71 5 -5 24 -2 44 6 20 9 56 15 80 14 25 0 56 5 69 13 24 13 256
23 292 13 15 -5 17 -21 17 -163 0 -109 4 -161 12 -169 7 -7 28 -12 48 -11 l35
1 -42 10 -43 9 0 154 0 154 40 -14 c61 -22 48 -2 -17 25 -58 25 -119 30 -181
18 -18 -4 -47 -2 -63 4 -24 8 -43 6 -95 -11 -36 -13 -73 -19 -85 -16 -11 4
-36 -1 -55 -10 -52 -24 -55 -9 -7 33 22 20 46 47 52 60 7 12 18 22 25 22 8 0
19 7 26 15 14 17 6 18 -26 5z"/>
<path d="M2680 1246 c0 -8 5 -18 10 -21 6 -3 10 -2 10 4 0 6 7 8 16 4 11 -4
15 -2 12 7 -6 19 -48 24 -48 6z"/>
<path d="M2587 1233 c-7 -6 11 -33 22 -33 4 0 7 9 7 20 0 19 -16 27 -29 13z"/>
<path d="M40 1205 c0 -14 5 -25 10 -25 6 0 10 11 10 25 0 14 -4 25 -10 25 -5
0 -10 -11 -10 -25z"/>
<path d="M160 1179 c0 -22 13 -25 29 -5 9 11 7 15 -9 19 -15 4 -20 0 -20 -14z"/>
<path d="M2950 1178 c0 -19 2 -20 10 -8 13 19 13 30 0 30 -5 0 -10 -10 -10
-22z"/>
<path d="M640 1170 c0 -5 7 -7 15 -4 8 4 15 8 15 10 0 2 -7 4 -15 4 -8 0 -15
-4 -15 -10z"/>
<path d="M320 1150 c0 -5 -5 -9 -11 -7 -6 1 -13 -3 -16 -10 -3 -7 3 -9 16 -6
18 4 31 33 16 33 -3 0 -5 -4 -5 -10z"/>
<path d="M0 1140 c0 -5 5 -10 11 -10 5 0 7 5 4 10 -3 6 -8 10 -11 10 -2 0 -4
-4 -4 -10z"/>
<path d="M2222 1069 c-18 -38 -22 -58 -17 -89 6 -38 5 -42 -42 -85 -28 -25
-42 -44 -33 -45 9 0 2 -9 -15 -20 -16 -11 -25 -20 -18 -20 15 0 73 49 70 60
-1 4 17 25 40 47 33 31 40 43 36 64 -3 15 1 37 8 50 7 13 12 30 11 37 -5 20
16 14 23 -8 4 -11 20 -27 36 -35 16 -9 29 -20 29 -25 0 -6 5 -10 11 -10 8 0 8
4 0 14 -9 11 -9 16 0 22 8 4 9 3 5 -5 -6 -8 -1 -10 17 -6 14 4 28 2 31 -4 4
-6 12 -11 18 -11 7 0 6 6 -2 15 -10 12 -10 15 3 15 9 0 22 -10 28 -22 8 -15
14 -19 17 -10 5 16 42 -14 42 -35 0 -7 5 -13 11 -13 6 0 9 7 5 15 -3 8 -1 15
5 15 5 0 14 -11 19 -25 8 -22 13 -24 30 -15 12 6 29 9 38 7 14 -4 13 -6 -5
-12 -13 -4 -23 -12 -23 -17 0 -6 8 -7 18 -3 9 4 28 9 42 11 24 4 25 4 3 -5
-32 -14 -28 -22 7 -14 26 5 29 3 24 -12 -6 -15 -4 -16 14 -6 28 15 35 14 28
-5 -5 -12 -2 -15 11 -9 10 4 37 9 61 11 24 2 47 6 53 9 5 4 9 1 9 -4 0 -6 -4
-11 -9 -11 -11 0 -71 -61 -71 -72 0 -18 17 -6 35 24 26 45 31 18 5 -32 -35
-68 -65 -290 -39 -290 7 0 10 18 7 50 -3 54 -1 61 10 31 4 -11 8 17 8 63 1 60
7 95 23 130 11 27 21 57 21 67 0 10 5 21 10 24 6 3 10 15 10 26 0 16 -3 18
-19 9 -28 -15 -112 -12 -141 5 -14 8 -32 17 -40 21 -8 4 -23 14 -32 22 -10 8
-24 12 -32 9 -9 -4 -18 -2 -20 2 -3 5 -20 11 -38 15 -18 3 -42 16 -55 28 -18
17 -38 22 -103 25 -78 4 -81 5 -117 43 l-38 39 -23 -50z m19 -31 c-6 -17 -11
-45 -12 -62 l-1 -31 -9 32 c-7 24 -5 42 8 73 20 45 31 37 14 -12z m344 -78 c3
-5 1 -10 -4 -10 -6 0 -11 5 -11 10 0 6 2 10 4 10 3 0 8 -4 11 -10z"/>
<path d="M50 1095 c0 -9 10 -15 26 -15 31 0 28 22 -4 27 -14 2 -22 -2 -22 -12z"/>
<path d="M160 1085 c0 -8 5 -15 10 -15 6 0 10 7 10 15 0 8 -4 15 -10 15 -5 0
-10 -7 -10 -15z"/>
<path d="M256 1062 c-3 -3 -6 -11 -6 -17 0 -14 42 -13 47 2 4 11 -32 24 -41
15z"/>
<path d="M2353 867 c20 -17 50 -48 67 -67 16 -19 29 -30 29 -25 1 16 -105 125
-120 125 -8 0 3 -15 24 -33z"/>
<path d="M2400 884 c0 -8 5 -12 10 -9 6 3 10 10 10 16 0 5 -4 9 -10 9 -5 0
-10 -7 -10 -16z"/>
<path d="M2481 882 c0 -13 -6 -32 -11 -43 -7 -13 -7 -19 -1 -19 13 0 24 42 18
67 -4 14 -5 13 -6 -5z"/>
<path d="M210 881 c0 -6 5 -11 11 -11 5 0 8 -4 4 -9 -3 -5 -1 -12 5 -16 16
-10 12 21 -5 35 -10 9 -15 9 -15 1z"/>
<path d="M2426 874 c-4 -9 -4 -19 -1 -22 2 -3 7 3 11 12 4 9 4 19 1 22 -2 3
-7 -3 -11 -12z"/>
<path d="M2260 875 c0 -15 48 -75 75 -94 42 -28 70 -29 55 -1 -19 35 -130 116
-130 95z m108 -95 c7 -19 -67 39 -80 64 -8 15 1 11 32 -15 24 -20 46 -42 48
-49z"/>
<path d="M194 857 c3 -10 6 -25 6 -33 0 -9 5 -12 10 -9 14 9 13 18 -6 41 -14
17 -15 17 -10 1z"/>
<path d="M2446 855 c-3 -8 -1 -15 4 -15 6 0 10 7 10 15 0 8 -2 15 -4 15 -2 0
-6 -7 -10 -15z"/>
<path d="M136 851 c-4 -5 -2 -12 3 -15 5 -4 12 -2 15 3 4 5 2 12 -3 15 -5 4
-12 2 -15 -3z"/>
<path d="M2593 810 c-30 -18 -51 -40 -38 -40 3 0 20 10 38 22 18 13 34 24 36
25 2 2 2 5 0 8 -3 2 -19 -4 -36 -15z"/>
<path d="M2615 789 c-11 -17 1 -21 15 -4 8 9 8 15 2 15 -6 0 -14 -5 -17 -11z"/>
<path d="M2646 785 c-3 -8 -1 -15 4 -15 13 0 22 18 11 24 -5 3 -11 -1 -15 -9z"/>
<path d="M701 764 c0 -11 3 -14 6 -6 3 7 2 16 -1 19 -3 4 -6 -2 -5 -13z"/>
<path d="M2680 770 c0 -5 5 -10 10 -10 6 0 10 5 10 10 0 6 -4 10 -10 10 -5 0
-10 -4 -10 -10z"/>
<path d="M2450 740 c0 -5 6 -10 13 -10 6 -1 1 -7 -13 -15 -18 -10 -20 -14 -8
-15 9 0 19 -6 21 -12 4 -8 6 -7 6 4 1 9 7 18 14 21 9 3 9 7 -2 20 -15 19 -31
22 -31 7z"/>
<path d="M2553 740 c-13 -5 -23 -11 -23 -12 0 -2 42 -3 94 -3 52 0 89 3 83 7
-22 12 -132 18 -154 8z"/>
<path d="M2863 733 c-10 -3 -13 -38 -13 -123 0 -108 2 -120 19 -130 25 -13
131 -13 131 0 0 6 -18 7 -42 4 -24 -3 -55 -1 -70 5 l-28 11 0 104 0 104 64 -5
c44 -4 66 -2 71 7 4 7 2 16 -6 21 -15 9 -105 11 -126 2z m117 -13 c0 -12 -67
-12 -95 0 -14 6 -4 9 38 9 32 1 57 -3 57 -9z"/>
<path d="M2041 704 c0 -11 3 -14 6 -6 3 7 2 16 -1 19 -3 4 -6 -2 -5 -13z"/>
<path d="M2560 700 c0 -13 58 -42 73 -37 7 3 0 8 -15 12 -16 4 -28 11 -28 15
0 10 71 -8 85 -21 11 -11 35 -12 35 -1 0 11 -94 42 -126 42 -13 0 -24 -4 -24
-10z"/>
<path d="M2650 660 c0 -5 5 -10 11 -10 5 0 7 5 4 10 -3 6 -8 10 -11 10 -2 0
-4 -4 -4 -10z"/>
<path d="M2750 563 c0 -4 5 -15 10 -23 8 -13 10 -13 10 2 0 9 -4 20 -10 23 -5
3 -10 3 -10 -2z"/>
<path d="M2727 483 c7 -71 11 -75 12 -10 1 31 -3 57 -8 57 -5 0 -6 -21 -4 -47z"/>
<path d="M2697 443 c-3 -17 0 -34 8 -42 12 -13 13 -9 8 25 -7 49 -9 51 -16 17z"/>
<path d="M2920 410 c0 -5 18 -10 40 -10 22 0 40 5 40 10 0 6 -18 10 -40 10
-22 0 -40 -4 -40 -10z"/>
<path d="M2662 393 c-6 -10 -62 -70 -126 -133 -117 -116 -245 -206 -326 -231
-68 -20 -164 -22 -270 -4 -91 15 -116 16 -214 5 -187 -22 -441 -19 -576 7
-180 34 -215 36 -341 18 -131 -18 -175 -13 -262 32 -49 24 -60 26 -173 24
l-121 -2 -6 29 c-7 32 -33 42 -111 42 -52 0 -70 -12 -63 -39 5 -19 1 -21 -34
-21 -21 0 -39 -4 -39 -9 0 -5 18 -7 40 -4 l39 6 -5 -39 c-3 -22 -7 -47 -9 -57
-2 -9 1 -17 5 -17 9 0 24 107 18 129 -2 9 16 13 72 13 69 0 75 -2 78 -21 2
-12 15 -29 28 -39 14 -9 43 -32 65 -49 23 -18 45 -33 50 -33 13 0 -61 65 -96
83 -29 16 -26 16 88 17 112 0 120 -1 170 -30 79 -44 133 -51 257 -34 97 14
192 14 275 -2 182 -34 369 -41 615 -22 90 7 161 6 254 -3 188 -18 269 -6 373
54 l80 47 226 0 c125 0 227 -2 227 -4 0 -2 -23 -26 -51 -55 -27 -28 -45 -51
-39 -51 19 0 100 91 100 112 0 14 5 18 18 15 9 -3 38 -8 65 -12 38 -5 48 -3
53 10 9 21 7 22 -57 30 -50 6 -60 4 -78 -14 -20 -20 -30 -20 -231 -19 -115 2
-210 6 -210 10 0 4 3 8 8 8 10 0 219 207 239 236 9 14 13 27 10 30 -3 3 -10
-3 -15 -13z m-2457 -233 c4 -6 -15 -10 -49 -10 -30 0 -58 5 -61 10 -4 6 15 10
49 10 30 0 58 -4 61 -10z m2762 -20 c13 0 21 -4 18 -10 -6 -10 -55 -3 -90 12
-15 6 -11 7 14 3 18 -3 44 -5 58 -5z"/>
<path d="M2889 383 c-4 -110 -3 -193 3 -199 4 -4 31 -8 60 -10 l53 -3 -52 11
-53 11 0 99 c0 94 1 98 19 88 11 -5 35 -9 53 -9 29 1 28 2 -14 11 -27 6 -48
14 -48 19 0 23 -20 6 -21 -18z"/>
<path d="M505 229 c-4 -6 -5 -12 -2 -15 2 -3 7 2 10 11 7 17 1 20 -8 4z"/>
<path d="M1676 213 c-6 -14 -5 -15 5 -6 7 7 10 15 7 18 -3 3 -9 -2 -12 -12z"/>
<path d="M2532 56 c-8 -18 -8 -25 1 -29 7 -3 13 7 14 24 3 35 0 36 -15 5z"/>
<path d="M2565 59 c-5 -15 0 -28 16 -43 l22 -21 -16 27 c-19 31 -22 42 -7 33
6 -3 7 1 4 9 -8 21 -11 20 -19 -5z"/>
<path d="M547 19 c7 -7 15 -10 18 -7 3 3 -2 9 -12 12 -14 6 -15 5 -6 -5z"/>
<path d="M2338 3 c7 -3 16 -2 19 1 4 3 -2 6 -13 5 -11 0 -14 -3 -6 -6z"/>
</g>
</svg>
