<?xml version="1.0" standalone="no"?>
<!DOCTYPE svg PUBLIC "-//W3C//DTD SVG 20010904//EN"
 "http://www.w3.org/TR/2001/REC-SVG-20010904/DTD/svg10.dtd">
<svg version="1.0" xmlns="http://www.w3.org/2000/svg"
 width="214.000000pt" height="300.000000pt" viewBox="0 0 214.000000 300.000000"
 preserveAspectRatio="xMidYMid meet">
<metadata>
Created by potrace 1.10, written by Peter Selinger 2001-2011
</metadata>
<g transform="translate(0.000000,300.000000) scale(0.100000,-0.100000)"
fill="#000000" stroke="none">
<path d="M0 1498 c0 -826 2 -1499 5 -1496 3 3 6 674 6 1492 0 1147 3 1486 12
1487 7 1 66 5 132 9 l120 6 -137 2 -138 2 0 -1502z"/>
<path d="M2076 2987 c3 -10 9 -15 12 -12 3 3 0 11 -7 18 -10 9 -11 8 -5 -6z"/>
<path d="M2117 2988 c4 -7 11 -83 14 -168 l5 -155 2 168 c2 145 0 167 -14 167
-10 0 -12 -4 -7 -12z"/>
<path d="M1036 2934 c-10 -74 -25 -246 -23 -258 1 -5 -5 -11 -15 -13 -9 -3
-32 13 -55 39 -89 101 -222 232 -228 226 -9 -8 25 -59 35 -53 11 7 201 -197
197 -210 -10 -29 -39 -4 -111 95 -44 60 -81 108 -84 106 -4 -5 75 -120 124
-181 39 -48 41 -88 8 -110 -22 -14 -27 -13 -76 18 -29 19 -79 49 -111 68 -32
18 -54 35 -49 37 7 2 149 -44 226 -74 13 -5 17 -4 12 4 -4 7 -60 28 -124 47
-64 20 -129 40 -144 44 -70 23 -3 -28 170 -129 40 -24 72 -49 72 -58 0 -8 6
-23 14 -31 12 -13 12 -19 1 -34 -12 -17 -23 -17 -171 -8 -87 6 -172 11 -188
11 -50 0 -24 8 59 19 44 6 89 12 100 15 11 2 53 7 93 11 39 4 72 11 72 15 0 9
-26 7 -195 -16 -122 -16 -205 -34 -205 -45 0 -6 71 -12 305 -25 101 -6 122
-10 133 -25 7 -11 22 -19 33 -19 12 0 19 -7 19 -19 0 -29 29 -53 59 -49 15 1
37 -5 49 -14 27 -18 59 -13 75 13 8 13 15 15 23 8 18 -15 52 6 60 36 3 14 10
25 15 25 5 0 17 8 27 18 14 14 60 22 222 41 254 28 263 32 120 50 -94 12 -146
14 -137 5 5 -6 28 -8 127 -13 70 -4 23 -16 -110 -30 -63 -6 -134 -14 -156 -16
-36 -5 -44 -2 -59 21 -12 19 -14 29 -6 37 18 18 12 44 -14 65 -24 19 -33 47
-17 54 26 11 220 268 203 268 -10 0 -126 -104 -201 -180 -25 -25 -57 -50 -71
-57 -22 -9 -27 -8 -38 9 -10 15 -20 19 -47 16 -31 -4 -35 -2 -30 16 2 12 8 67
12 124 3 56 8 101 9 100 2 -2 11 -48 20 -103 9 -55 21 -107 26 -115 11 -17 3
56 -11 105 -5 17 -12 55 -15 85 -10 80 -21 93 -29 34z m282 -152 c-111 -142
-121 -152 -134 -134 -11 14 1 31 79 109 51 51 96 93 100 93 5 0 -16 -30 -45
-68z m-230 -114 c23 -23 13 -36 -28 -36 -25 -1 -40 4 -40 12 0 17 21 36 40 36
9 0 21 -5 28 -12z m-84 -33 c3 -8 -3 -17 -15 -20 -10 -4 -24 -16 -30 -27 -11
-21 -12 -21 -25 -3 -18 25 -18 31 7 53 22 21 54 19 63 -3z m176 -4 c5 -11 7
-27 4 -35 -7 -18 -24 -22 -24 -6 0 6 -11 15 -24 21 -14 7 -22 17 -19 25 8 21
51 17 63 -5z m-50 -34 c19 -11 18 -12 -13 -27 -17 -8 -33 -24 -35 -35 -3 -19
-2 -19 8 -2 16 25 59 40 76 27 20 -17 27 -66 14 -105 -15 -44 -64 -75 -120
-75 -36 0 -48 6 -82 39 -35 36 -39 44 -36 83 3 42 4 43 40 46 28 2 40 -2 52
-20 12 -17 16 -18 16 -6 0 25 -28 42 -68 41 l-36 -1 24 19 c14 11 34 24 45 29
24 12 88 4 115 -13z m-196 -35 c-1 -7 -2 -24 -2 -38 -2 -20 -6 -25 -24 -22
-30 4 -37 47 -12 65 20 15 40 12 38 -5z m286 3 c14 -16 10 -47 -6 -52 -6 -2
-14 4 -17 14 -2 10 -8 26 -12 36 -9 21 17 24 35 2z m10 -90 c14 -17 5 -51 -16
-59 -26 -10 -32 2 -20 39 12 39 18 42 36 20z m-293 -25 c12 -33 4 -45 -26 -35
-25 7 -35 34 -20 51 18 22 34 16 46 -16z m54 -64 c24 -21 26 -26 14 -36 -27
-22 -83 29 -58 53 10 10 13 9 44 -17z m193 9 c6 -16 -18 -45 -39 -45 -19 0
-32 23 -16 28 7 2 17 10 24 18 16 17 24 17 31 -1z m-74 -45 c0 -15 -29 -31
-52 -28 -14 2 -24 11 -26 23 -2 18 2 20 38 17 22 -2 40 -8 40 -12z"/>
<path d="M1110 2530 c-13 -9 -13 -11 0 -20 8 -5 20 -10 27 -10 19 0 27 21 12
31 -18 11 -21 11 -39 -1z m30 -10 c0 -5 -4 -10 -10 -10 -5 0 -10 5 -10 10 0 6
5 10 10 10 6 0 10 -4 10 -10z"/>
<path d="M972 2522 c-10 -7 -10 -12 3 -22 17 -14 45 -5 48 15 3 13 -34 18 -51
7z m35 -8 c-3 -3 -12 -4 -19 -1 -8 3 -5 6 6 6 11 1 17 -2 13 -5z"/>
<path d="M1026 2484 c-4 -9 -2 -22 3 -28 6 -7 9 -21 7 -32 -2 -10 -1 -14 1 -8
2 6 18 9 36 8 28 -2 32 0 32 21 0 20 -4 22 -31 18 -20 -3 -34 0 -39 7 -5 9 -4
11 4 6 16 -10 61 1 61 15 0 7 -6 7 -17 0 -11 -5 -24 -6 -34 0 -12 6 -19 4 -23
-7z m54 -44 c0 -5 -5 -10 -11 -10 -5 0 -7 5 -4 10 3 6 8 10 11 10 2 0 4 -4 4
-10z"/>
<path d="M2020 2970 c0 -5 5 -10 11 -10 5 0 7 5 4 10 -3 6 -8 10 -11 10 -2 0
-4 -4 -4 -10z"/>
<path d="M1835 2956 c-16 -17 -16 -54 0 -60 8 -3 25 -3 38 -1 18 4 34 -5 61
-31 20 -19 36 -40 36 -47 0 -7 4 -6 10 3 8 13 10 13 10 1 0 -8 -9 -24 -19 -35
-30 -32 -50 -100 -41 -138 5 -22 9 -26 10 -13 8 80 22 134 36 146 12 9 14 4
14 -33 0 -85 -38 -153 -101 -178 -16 -7 -29 -15 -29 -19 0 -4 -27 -4 -61 -1
-55 5 -65 10 -95 44 -19 21 -34 33 -34 27 0 -6 -7 -11 -15 -11 -8 0 -15 -5
-15 -11 0 -5 5 -7 11 -3 7 4 7 -1 -1 -16 -10 -18 -9 -24 1 -31 21 -13 26 -11
32 11 3 11 10 20 15 20 6 0 8 -9 5 -20 -4 -15 2 -22 21 -30 107 -40 227 3 276
101 25 48 27 147 4 195 -18 38 -87 104 -108 104 -8 0 -18 5 -22 12 -4 7 -3 8
4 4 7 -4 12 -1 12 6 0 16 -41 20 -55 4z m42 -43 c2 -6 -4 -10 -14 -8 -10 2
-22 4 -28 4 -5 1 -3 6 5 11 17 11 32 8 37 -7z"/>
<path d="M935 2930 c-3 -5 -1 -10 4 -10 6 0 11 5 11 10 0 6 -2 10 -4 10 -3 0
-8 -4 -11 -10z"/>
<path d="M198 2923 c-24 -6 -23 -19 2 -36 11 -8 17 -17 13 -20 -3 -4 -1 -7 5
-7 7 0 12 5 12 11 0 5 4 8 9 5 5 -3 11 3 14 14 3 13 -1 24 -13 30 -10 6 -20 9
-22 9 -2 -1 -11 -3 -20 -6z m19 -18 c0 -8 -4 -12 -9 -9 -5 3 -6 10 -3 15 9 13
12 11 12 -6z"/>
<path d="M1510 2909 c0 -5 5 -7 10 -4 6 3 10 8 10 11 0 2 -4 4 -10 4 -5 0 -10
-5 -10 -11z"/>
<path d="M1225 2890 c3 -5 8 -10 11 -10 2 0 4 5 4 10 0 6 -5 10 -11 10 -5 0
-7 -4 -4 -10z"/>
<path d="M136 2854 c-42 -44 -68 -116 -64 -179 l3 -47 49 46 c43 40 52 44 65
32 9 -7 30 -19 46 -25 l30 -11 -32 5 c-18 2 -35 0 -38 -6 -4 -5 -16 -7 -28 -3
-21 6 -22 6 -3 -12 13 -14 20 -16 23 -6 7 20 21 14 25 -10 2 -19 11 -24 45
-29 24 -3 46 -9 50 -13 9 -10 -73 -2 -99 9 -11 4 -18 3 -18 -4 0 -6 8 -11 17
-11 9 0 31 -12 47 -27 20 -19 24 -20 12 -5 l-19 22 39 0 c37 0 64 13 64 31 0
4 -10 7 -22 7 -13 0 -36 2 -53 5 -16 3 -36 6 -42 6 -7 1 -13 8 -13 16 0 10 10
15 29 15 45 0 47 18 3 29 -21 6 -47 20 -57 31 -25 27 -31 26 -57 -15 -29 -43
-38 -44 -38 -2 1 45 31 108 69 140 18 15 29 31 26 37 -10 17 -23 12 -59 -26z"/>
<path d="M600 2864 c0 -8 5 -12 10 -9 6 4 8 11 5 16 -9 14 -15 11 -15 -7z"/>
<path d="M391 2831 c-8 -5 -9 -11 -3 -15 5 -3 12 1 16 9 6 17 6 18 -13 6z"/>
<path d="M940 2816 c0 -9 5 -16 10 -16 6 0 10 4 10 9 0 6 -4 13 -10 16 -5 3
-10 -1 -10 -9z"/>
<path d="M1856 2751 c-31 -31 -56 -60 -56 -64 0 -17 20 -5 37 23 23 39 36 39
16 -1 -13 -25 -13 -35 -3 -54 9 -17 9 -28 1 -43 -16 -31 -13 -51 4 -22 17 29
19 66 5 75 -6 4 -4 17 5 36 9 16 14 33 11 38 -7 10 40 51 58 51 25 0 25 15 1
16 -16 1 -41 -16 -79 -55z"/>
<path d="M2092 2790 c0 -14 2 -19 5 -12 2 6 2 18 0 25 -3 6 -5 1 -5 -13z"/>
<path d="M725 2780 c-3 -5 -1 -10 4 -10 6 0 11 5 11 10 0 6 -2 10 -4 10 -3 0
-8 -4 -11 -10z"/>
<path d="M1420 2780 c-8 -5 -12 -12 -9 -15 8 -8 39 5 39 16 0 11 -11 11 -30
-1z"/>
<path d="M1906 2741 c-4 -7 -5 -15 -2 -18 9 -9 19 4 14 18 -4 11 -6 11 -12 0z"/>
<path d="M490 2730 c0 -5 5 -10 10 -10 6 0 10 5 10 10 0 6 -4 10 -10 10 -5 0
-10 -4 -10 -10z"/>
<path d="M1478 2702 c-10 -2 -18 -8 -18 -13 0 -6 -4 -7 -10 -4 -10 6 -209 -52
-225 -66 -17 -17 13 -9 111 26 54 20 102 34 107 32 5 -1 -32 -27 -82 -56 -50
-29 -94 -58 -98 -64 -12 -20 152 78 236 140 8 6 -4 9 -21 5z"/>
<path d="M1573 2685 c-3 -9 -3 -18 -1 -21 3 -3 8 4 11 16 6 23 -1 27 -10 5z"/>
<path d="M1878 2688 c-4 -10 -3 -20 2 -23 15 -9 12 -48 -6 -75 l-16 -25 21 25
c12 14 25 30 31 37 6 7 4 15 -5 23 -8 6 -15 21 -17 33 -3 19 -4 20 -10 5z"/>
<path d="M127 2653 c-7 -11 10 -40 18 -31 4 4 3 14 -3 24 -5 9 -12 12 -15 7z"/>
<path d="M2090 2648 c0 -9 5 -20 10 -23 13 -8 13 5 0 25 -8 13 -10 13 -10 -2z"/>
<path d="M90 2625 c-10 -12 -8 -22 13 -54 54 -81 168 -104 272 -55 30 15 55
32 55 39 0 17 -26 13 -82 -13 -81 -38 -195 -5 -220 65 -13 37 -20 40 -38 18z"/>
<path d="M433 2605 c4 -9 -1 -11 -15 -7 -15 4 -19 1 -16 -9 3 -8 10 -13 16
-12 6 2 16 -6 22 -17 9 -18 13 -18 25 -7 18 19 8 54 -17 60 -13 4 -18 1 -15
-8z"/>
<path d="M610 2579 c0 -5 5 -7 10 -4 6 3 10 8 10 11 0 2 -4 4 -10 4 -5 0 -10
-5 -10 -11z"/>
<path d="M2098 2583 c-2 -5 -1 -37 3 -73 l6 -65 1 73 c2 65 -1 85 -10 65z"/>
<path d="M1455 2570 c3 -5 8 -10 11 -10 2 0 4 5 4 10 0 6 -5 10 -11 10 -5 0
-7 -4 -4 -10z"/>
<path d="M202 2560 c14 -4 32 -11 40 -16 10 -6 10 -4 -1 9 -7 9 -25 17 -40 16
l-26 -1 27 -8z"/>
<path d="M1275 2531 c6 -5 44 -11 85 -15 43 -4 70 -2 65 3 -6 4 -44 11 -85 15
-45 4 -71 3 -65 -3z"/>
<path d="M1975 2470 c-3 -5 1 -10 9 -10 9 0 16 5 16 10 0 6 -4 10 -9 10 -6 0
-13 -4 -16 -10z"/>
<path d="M97 2429 c-5 -20 -8 -21 -24 -8 -16 13 -17 13 -4 -4 8 -9 16 -15 19
-12 3 3 11 0 19 -7 12 -10 13 -7 7 18 -9 38 -10 39 -17 13z"/>
<path d="M370 2410 c0 -5 5 -10 10 -10 6 0 10 5 10 10 0 6 -4 10 -10 10 -5 0
-10 -4 -10 -10z"/>
<path d="M1740 2390 c0 -5 5 -10 10 -10 6 0 10 5 10 10 0 6 -4 10 -10 10 -5 0
-10 -4 -10 -10z"/>
<path d="M2113 2325 c0 -44 3 -125 7 -180 6 -96 7 -97 7 -25 0 41 -3 122 -7
180 -7 103 -7 104 -7 25z"/>
<path d="M364 2338 c-3 -5 -15 -6 -26 -2 -14 4 -27 -1 -42 -14 -11 -12 -31
-31 -44 -42 -27 -25 -26 -58 3 -74 11 -6 23 -16 27 -22 8 -13 76 -16 93 -6 5
3 19 6 29 7 23 0 75 70 76 101 0 29 -40 61 -79 61 -17 0 -34 -4 -37 -9z m76
-23 c5 3 14 -3 20 -14 8 -16 7 -24 -9 -40 -10 -10 -21 -27 -23 -38 -2 -12 -12
-18 -29 -18 -14 0 -33 -6 -41 -13 -13 -10 -17 -10 -20 0 -4 10 -8 10 -21 -1
-15 -12 -17 -11 -17 8 0 17 -5 22 -22 19 -18 -2 -24 2 -26 24 -2 19 2 28 17
33 10 3 27 17 36 31 12 18 20 22 29 15 7 -6 17 -6 26 -1 8 5 22 7 32 4 9 -2
20 1 24 8 7 10 9 9 12 -5 2 -9 7 -15 12 -12z"/>
<path d="M1733 2277 c3 -7 -8 -22 -24 -33 -29 -19 -32 -25 -43 -91 -6 -35 8
-46 19 -15 3 9 19 27 34 39 l28 22 39 -19 c21 -11 49 -20 61 -20 21 0 23 -5
23 -51 0 -45 -2 -50 -20 -44 -20 6 -73 -16 -86 -37 -4 -7 -9 -33 -11 -59 -3
-50 14 -76 41 -66 9 4 17 -2 21 -14 7 -21 59 -28 70 -9 3 6 14 10 24 10 9 0
26 9 37 20 10 11 30 31 43 44 24 24 24 25 6 61 -9 21 -26 40 -36 42 -13 4 -19
14 -19 35 0 17 -9 43 -21 59 -11 16 -17 29 -14 29 10 0 56 -37 58 -47 1 -4 6
-7 10 -5 5 1 6 -2 2 -7 -3 -6 7 -29 22 -52 15 -23 29 -36 31 -30 5 16 -18 71
-29 71 -5 0 -8 3 -8 8 3 19 -2 33 -11 27 -6 -3 -7 1 -4 9 4 11 0 16 -12 17
-14 0 -11 4 10 14 l29 12 -43 32 c-24 17 -47 32 -52 32 -13 2 -21 5 -41 14
-10 4 -40 5 -67 3 -28 -3 -50 -1 -50 3 0 5 -5 9 -11 9 -6 0 -9 -6 -6 -13z
m187 -44 c36 -18 61 -33 55 -34 -53 -7 -85 -7 -79 3 4 6 -1 8 -12 4 -11 -3
-26 -1 -34 5 -12 8 -11 9 5 5 11 -3 26 -2 33 2 9 6 5 12 -13 20 -15 7 -24 8
-20 3 5 -10 -27 -19 -88 -25 -15 -1 -38 -12 -50 -24 -30 -28 -35 -28 -29 3 4
25 39 50 92 65 41 13 72 7 140 -27z m-66 -38 c20 -9 34 -20 31 -25 -3 -6 -2
-10 4 -10 16 0 33 -39 35 -77 1 -24 -2 -32 -12 -28 -8 3 -17 5 -21 5 -4 0 -8
19 -8 43 0 51 -7 67 -33 67 -24 0 -70 21 -70 32 0 13 34 10 74 -7z m2 -149 c3
-8 -1 -28 -10 -44 -14 -27 -13 -42 5 -42 3 0 10 20 13 45 8 47 23 57 46 30 10
-12 10 -21 1 -42 -13 -27 -9 -39 8 -28 6 3 11 21 11 39 0 40 7 48 31 35 16 -8
17 -14 8 -30 -8 -16 -7 -20 5 -17 27 5 22 -7 -21 -52 -30 -30 -43 -39 -43 -27
0 26 -19 20 -30 -8 -10 -26 -34 -33 -45 -15 -4 6 -1 18 6 26 15 18 3 32 -13
16 -16 -16 -55 -15 -61 2 -3 7 -1 18 5 24 8 8 8 16 -2 26 -10 13 -7 21 20 46
35 33 58 38 66 16z"/>
<path d="M1700 2270 c0 -5 5 -10 10 -10 6 0 10 5 10 10 0 6 -4 10 -10 10 -5 0
-10 -4 -10 -10z"/>
<path d="M1370 2240 c0 -5 5 -10 10 -10 6 0 10 5 10 10 0 6 -4 10 -10 10 -5 0
-10 -4 -10 -10z"/>
<path d="M1015 2223 c-16 -8 -40 -24 -52 -35 -17 -16 -25 -18 -41 -9 -12 6
-37 11 -58 11 -31 0 -44 -7 -77 -42 -34 -35 -46 -42 -83 -44 -53 -2 -87 -23
-104 -63 -7 -19 -26 -38 -47 -47 -19 -9 -41 -31 -50 -48 -8 -17 -35 -52 -59
-78 -24 -26 -44 -52 -44 -59 0 -6 20 11 45 38 l46 48 -6 -35 c-4 -19 -9 -44
-11 -55 -5 -20 -5 -20 10 -1 9 11 16 37 16 57 0 32 5 41 33 58 19 11 38 31 44
44 8 18 22 26 54 31 32 5 53 18 86 50 41 41 47 44 108 48 54 3 69 8 94 32 l30
29 52 -22 c65 -26 64 -26 127 5 l52 26 35 -31 c39 -34 105 -56 146 -47 22 4
35 -3 67 -34 29 -29 49 -40 70 -40 24 0 34 -7 51 -35 11 -19 32 -40 46 -47 19
-8 25 -19 26 -42 0 -17 5 -40 10 -51 6 -14 7 -4 3 29 -6 46 -6 48 14 37 12 -6
28 -21 36 -33 9 -12 19 -19 22 -15 9 9 -15 36 -50 58 -17 10 -34 33 -40 51 -7
20 -23 39 -41 48 -16 9 -46 32 -66 53 -27 27 -45 37 -68 37 -24 0 -42 11 -79
50 -44 46 -52 50 -95 50 -34 0 -67 -10 -121 -37 l-75 -37 -56 18 c-48 15 -54
20 -44 32 37 45 120 57 162 24 27 -22 37 -25 37 -12 0 14 -76 52 -101 52 -13
-1 -37 -8 -54 -17z m288 -44 c29 -15 77 -60 77 -72 0 -5 -24 -7 -54 -5 -39 3
-65 12 -90 32 -20 15 -36 31 -36 36 0 19 71 25 103 9z m-373 -15 c3 -3 -7 -16
-21 -28 -25 -22 -124 -44 -137 -32 -2 3 12 22 32 42 34 34 40 36 78 30 23 -4
45 -9 48 -12z m-211 -100 c-25 -27 -76 -54 -104 -54 -14 0 -14 3 1 29 21 35
47 49 93 50 l34 1 -24 -26z m779 -7 c31 -28 28 -37 -9 -27 -31 9 -69 37 -69
50 0 14 55 -3 78 -23z m92 -79 c11 -12 20 -25 20 -30 0 -17 -20 -7 -40 22 -25
35 -11 41 20 8z m-1045 -28 c-16 -16 -33 -30 -38 -30 -4 0 1 14 13 30 12 17
29 30 38 30 12 0 9 -8 -13 -30z"/>
<path d="M110 2150 c0 -5 5 -10 11 -10 5 0 7 5 4 10 -3 6 -8 10 -11 10 -2 0
-4 -4 -4 -10z"/>
<path d="M160 2034 c-12 -19 -20 -38 -16 -41 3 -4 -1 -15 -10 -24 -41 -45 -11
-131 35 -102 16 10 20 9 25 -2 8 -22 34 -18 41 5 4 11 19 27 35 35 21 11 31
25 36 49 7 38 -3 67 -16 46 -4 -7 -12 0 -20 20 -25 60 -78 67 -110 14z m78 6
c11 -12 27 -39 37 -60 l18 -40 -44 -39 c-28 -24 -47 -35 -51 -28 -9 14 0 29
13 22 5 -4 12 1 15 9 3 8 14 18 24 21 10 3 21 13 24 21 7 19 -73 57 -99 48
-14 -6 -16 -3 -10 17 16 52 42 62 73 29z m-23 -72 c36 -16 31 -30 -21 -67 -39
-27 -49 -30 -59 -19 -14 14 -9 78 7 78 5 0 7 -4 4 -9 -4 -5 0 -12 6 -14 10 -4
10 -8 -1 -15 -16 -11 -7 -47 9 -37 6 4 7 11 4 17 -4 6 0 14 7 19 12 8 12 10 0
18 -9 6 -10 11 -2 15 6 4 9 12 6 17 -8 12 9 11 40 -3z"/>
<path d="M197 2024 c6 -15 23 -19 23 -5 0 5 -7 11 -14 14 -10 4 -13 1 -9 -9z"/>
<path d="M1045 2015 c5 -27 2 -31 -31 -42 -37 -11 -84 -1 -84 19 0 4 -5 8 -11
8 -17 0 11 -30 36 -40 19 -8 19 -8 -5 -18 -18 -7 -31 -6 -47 4 -29 18 -39 18
-23 -1 7 -8 19 -15 27 -15 8 0 13 -6 11 -12 -6 -17 -57 -23 -71 -9 -6 6 -16
11 -21 11 -18 -1 38 -40 56 -40 9 0 20 -9 23 -20 3 -11 13 -20 22 -20 9 0 13
-6 10 -13 -4 -10 2 -13 19 -9 20 4 23 1 18 -14 -4 -14 -3 -16 4 -5 6 8 15 10
23 5 14 -8 19 -9 73 -12 20 -2 27 -6 22 -17 -3 -8 -1 -15 4 -15 6 0 10 9 10
19 0 20 32 39 38 22 2 -6 8 -11 13 -11 4 0 6 7 3 15 -7 18 26 21 44 3 8 -8 12
-9 12 -1 0 6 -6 13 -12 16 -10 4 -10 7 0 18 10 11 16 11 35 0 l22 -13 -22 23
c-22 22 -23 22 -43 4 -18 -17 -23 -17 -32 -5 -8 13 -9 12 -5 -1 13 -39 -116
-53 -188 -20 -73 33 -79 66 -19 105 26 18 26 17 18 -6 -4 -12 -7 -27 -7 -33 0
-34 4 -55 11 -55 5 0 7 14 4 30 -17 116 119 136 228 34 34 -32 37 -33 73 -22
20 6 37 18 37 25 0 12 -4 11 -22 -1 -28 -20 -52 -20 -68 -1 -10 12 -10 15 2
15 8 0 23 10 34 21 l19 22 -33 -17 c-19 -10 -41 -15 -50 -11 -13 5 -11 10 13
31 31 26 28 27 -17 5 -22 -11 -31 -11 -56 0 -26 11 -29 16 -21 37 11 29 11 32
0 32 -5 0 -11 -10 -13 -22 -5 -36 -43 -36 -57 -1 l-11 28 5 -30z"/>
<path d="M976 2006 c8 -21 31 -27 38 -10 3 8 2 12 -3 9 -5 -3 -12 -1 -16 5 -9
15 -25 12 -19 -4z"/>
<path d="M1162 2008 c-14 -14 -16 -28 -3 -28 9 0 24 30 18 36 -2 2 -9 -2 -15
-8z"/>
<path d="M1371 2004 c0 -11 3 -14 6 -6 3 7 2 16 -1 19 -3 4 -6 -2 -5 -13z"/>
<path d="M2133 1950 c0 -36 2 -50 4 -32 2 17 2 47 0 65 -2 17 -4 3 -4 -33z"/>
<path d="M1028 1914 c-15 -32 -2 -55 37 -69 23 -8 30 -6 46 13 29 36 5 82 -42
82 -22 0 -32 -7 -41 -26z m41 -5 c-10 -6 -10 -9 -2 -9 6 0 15 5 19 11 12 21
27 -7 15 -30 -16 -28 -35 -26 -51 5 -12 21 -12 27 0 34 8 5 18 6 23 3 5 -3 3
-9 -4 -14z"/>
<path d="M1165 1880 c3 -5 8 -10 11 -10 2 0 4 5 4 10 0 6 -5 10 -11 10 -5 0
-7 -4 -4 -10z"/>
<path d="M2131 1864 c0 -11 3 -14 6 -6 3 7 2 16 -1 19 -3 4 -6 -2 -5 -13z"/>
<path d="M1680 1815 c0 -8 -7 -15 -16 -15 -8 0 -12 -5 -9 -10 3 -6 -1 -13 -9
-16 -24 -9 -19 -21 9 -26 21 -4 24 -2 20 12 -7 23 20 47 31 28 13 -20 14 -39
2 -32 -11 7 -28 -13 -28 -33 0 -7 5 -13 10 -13 6 0 10 7 10 15 0 12 4 13 18 6
15 -8 17 -4 17 35 0 37 -3 43 -17 38 -12 -3 -18 0 -18 10 0 9 -4 16 -10 16 -5
0 -10 -7 -10 -15z"/>
<path d="M416 1782 c-6 -17 -13 -21 -27 -17 -17 6 -19 3 -13 -19 4 -16 1 -32
-6 -41 -10 -13 -8 -15 13 -15 19 0 25 -4 21 -15 -4 -8 -1 -15 5 -15 6 0 11 7
11 15 0 8 5 15 10 15 6 0 10 -4 10 -10 0 -5 5 -10 11 -10 6 0 8 11 5 28 -4 17
-1 35 8 47 22 29 19 35 -8 22 -20 -10 -24 -17 -19 -41 4 -19 3 -27 -5 -22 -5
3 -13 0 -15 -6 -4 -10 -6 -10 -6 0 -1 7 -5 10 -11 7 -13 -8 -1 26 17 47 8 9
13 25 11 35 -4 15 -5 15 -12 -5z"/>
<path d="M1540 1728 c0 -4 14 -8 30 -8 17 0 30 5 30 10 0 6 -13 9 -30 8 -16
-1 -30 -6 -30 -10z"/>
<path d="M1395 1721 c-17 -28 22 -127 42 -107 4 3 -1 12 -9 19 -19 15 -34 87
-18 87 6 0 8 -4 5 -10 -3 -5 4 -10 16 -10 18 0 19 2 9 15 -14 17 -36 20 -45 6z"/>
<path d="M664 1706 c-11 -8 -15 -18 -10 -23 5 -4 11 -2 13 5 3 6 11 12 19 12
17 0 18 -37 3 -77 -8 -21 -7 -25 1 -17 21 21 30 83 13 99 -18 18 -15 18 -39 1z"/>
<path d="M530 1700 c0 -13 11 -13 30 0 12 8 11 10 -7 10 -13 0 -23 -4 -23 -10z"/>
<path d="M1787 1693 c-14 -13 -6 -20 18 -15 14 2 22 8 19 13 -6 11 -28 12 -37
2z"/>
<path d="M500 1680 c0 -5 5 -10 10 -10 6 0 10 5 10 10 0 6 -4 10 -10 10 -5 0
-10 -4 -10 -10z"/>
<path d="M1540 1675 c0 -8 10 -25 22 -37 l21 -21 -22 -9 c-19 -7 -21 -11 -11
-23 7 -8 23 -15 36 -15 15 0 22 -5 18 -13 -6 -16 18 -39 37 -35 24 5 23 -82
-1 -112 l-20 -25 -30 35 c-17 19 -40 52 -51 73 -49 92 -71 -10 -23 -106 43
-85 101 -164 111 -153 4 3 -59 99 -81 126 -28 33 -56 150 -36 150 5 0 16 -15
24 -32 7 -18 30 -51 49 -73 l36 -40 28 35 c34 42 39 103 11 139 -10 13 -18 30
-18 37 0 7 -13 22 -30 34 -16 12 -30 29 -30 38 1 16 2 16 14 0 7 -10 19 -18
25 -18 13 0 99 -90 118 -123 10 -17 12 -18 13 -5 0 9 -11 30 -25 46 -13 16
-22 32 -18 36 3 3 0 6 -8 6 -8 0 -20 9 -27 20 -6 11 -28 26 -47 34 -19 8 -38
22 -41 31 -8 19 -44 20 -44 0z m81 -91 c11 -13 9 -14 -17 -8 -40 9 -54 24 -22
24 14 0 31 -7 39 -16z m19 -34 c0 -5 -8 -10 -17 -10 -15 0 -16 2 -3 10 19 12
20 12 20 0z"/>
<path d="M1420 1670 c0 -5 5 -10 11 -10 5 0 7 5 4 10 -3 6 -8 10 -11 10 -2 0
-4 -4 -4 -10z"/>
<path d="M519 1638 c-17 -41 -57 -89 -64 -78 -3 5 -11 10 -17 10 -7 0 -6 -5 1
-14 10 -12 8 -17 -8 -25 -28 -15 -44 -14 -37 4 3 8 1 15 -3 15 -14 0 -22 -32
-11 -45 7 -9 3 -23 -15 -50 -15 -20 -24 -45 -22 -54 3 -12 6 -10 14 9 17 38
72 110 85 110 6 0 0 -12 -14 -27 -32 -35 -40 -68 -22 -84 13 -10 14 -7 10 18
-4 23 0 35 16 49 19 17 21 17 15 2 -4 -10 -2 -18 3 -18 6 0 10 14 10 31 0 17
13 49 30 74 41 59 51 63 32 12 -21 -60 -25 -142 -6 -157 8 -7 14 -22 14 -34 0
-12 7 -31 15 -42 13 -16 16 -17 25 -4 5 8 13 32 16 53 4 21 15 48 24 60 17 20
17 18 15 -64 -2 -88 -21 -171 -35 -149 -5 8 -10 8 -14 2 -9 -15 21 -23 33 -9
22 27 33 76 36 160 2 54 -1 90 -8 94 -18 11 -55 -44 -62 -92 -9 -54 -22 -58
-31 -10 -3 19 -10 38 -15 41 -15 9 -10 61 7 75 9 7 35 13 57 14 76 2 47 55
-31 57 -37 1 -37 0 -17 39 16 29 13 49 -6 49 -5 0 -14 -10 -20 -22z m89 -91
c9 -10 4 -13 -24 -14 -20 -1 -41 -6 -47 -12 -19 -19 -27 -12 -15 14 9 19 19
25 43 25 18 0 37 -6 43 -13z"/>
<path d="M670 1650 c0 -5 5 -10 10 -10 6 0 10 5 10 10 0 6 -4 10 -10 10 -5 0
-10 -4 -10 -10z"/>
<path d="M1010 1651 c-101 -33 -181 -101 -210 -177 -42 -112 -19 -226 60 -303
23 -22 36 -42 31 -46 -6 -3 -29 -37 -51 -75 -41 -70 -41 -71 -105 -74 -18 -1
-115 74 -115 89 1 15 36 55 49 55 16 0 33 39 26 60 -4 14 -2 20 9 20 9 0 16 5
16 10 0 15 -30 12 -36 -4 -3 -8 -13 -12 -25 -9 -10 3 -19 0 -19 -6 0 -5 7 -8
15 -5 9 4 15 0 15 -9 0 -19 -24 -29 -38 -15 -7 7 -17 6 -31 -1 -25 -14 -27
-29 -6 -37 21 -8 0 -34 -26 -34 -15 0 -19 -7 -19 -31 0 -24 4 -30 16 -25 8 3
13 2 11 -2 -2 -4 -12 -33 -22 -65 l-18 -57 -91 -51 c-87 -48 -204 -138 -179
-139 6 0 38 22 70 50 32 27 99 70 149 94 90 44 92 46 103 90 12 51 26 56 62
27 l24 -19 -38 -15 c-20 -9 -37 -18 -37 -21 0 -5 54 9 68 18 11 7 122 24 122
19 0 -2 -7 -18 -16 -35 -20 -39 -20 -87 0 -126 19 -37 44 -52 94 -57 20 -2 56
-6 80 -10 37 -7 42 -11 42 -34 0 -15 5 -32 12 -39 8 -8 8 -12 1 -12 -6 0 -16
7 -23 15 -7 8 -25 15 -41 15 -25 0 -29 4 -30 28 l0 27 -12 -24 c-9 -19 -8 -26
8 -37 10 -8 27 -14 37 -14 10 0 30 -7 43 -16 14 -9 32 -13 41 -10 9 4 28 -4
46 -19 34 -28 76 -33 85 -9 4 11 -5 25 -26 41 l-32 25 69 72 c38 39 75 82 82
96 13 25 15 82 4 132 l-6 28 64 -6 c84 -7 177 -25 184 -35 3 -5 16 -6 28 -3
14 3 42 -3 67 -14 24 -11 64 -25 89 -32 46 -12 141 -57 150 -70 3 -4 28 -18
55 -30 28 -12 58 -27 68 -32 33 -17 16 -1 -30 29 -66 43 -200 108 -250 123
-24 7 -43 18 -43 24 0 6 -9 22 -20 36 -11 14 -20 36 -20 49 0 14 -7 33 -17 43
-9 11 -11 18 -5 18 7 0 12 9 12 19 0 19 -25 36 -47 32 -6 -1 -13 9 -15 21 -2
14 -12 25 -28 28 -14 4 -24 12 -22 18 1 7 -7 12 -18 12 -13 0 -19 -6 -17 -17
6 -32 36 -80 61 -96 18 -12 23 -23 19 -39 -3 -13 -7 -36 -9 -53 -4 -25 -2 -24
11 10 21 57 20 63 -25 107 -39 39 -57 76 -22 46 9 -9 23 -13 30 -11 6 3 12 0
12 -7 0 -6 -4 -8 -10 -5 -5 3 -10 2 -10 -4 0 -5 9 -12 20 -16 18 -6 70 -99 70
-125 0 -7 9 -23 20 -37 11 -15 18 -28 15 -31 -8 -8 -45 42 -51 71 -4 15 -10
27 -13 27 -16 0 -31 -26 -31 -54 0 -21 -3 -27 -9 -18 -4 8 -11 13 -15 12 -3
-1 -27 2 -52 6 -25 3 -80 9 -122 13 l-77 6 -3 43 c-2 23 -7 42 -11 42 -11 0
-4 -106 9 -130 12 -23 -2 -27 -20 -5 -7 8 -21 15 -31 15 -25 0 -33 16 -39 79
-3 33 -10 56 -18 59 -11 3 -12 0 -4 -14 5 -11 12 -45 15 -76 l6 -58 -32 -1
c-18 0 -41 -4 -52 -9 -18 -8 -18 -9 5 -9 14 0 45 4 70 9 32 6 52 4 71 -6 68
-35 45 -106 -70 -219 -28 -27 -51 -55 -51 -62 0 -7 12 -23 26 -36 31 -29 16
-45 -17 -18 -13 10 -39 26 -56 35 -18 9 -33 23 -33 31 0 7 25 47 55 87 30 40
55 76 55 80 0 15 -29 -4 -35 -22 -3 -11 -19 -33 -35 -49 -25 -28 -34 -31 -85
-31 -51 0 -60 3 -86 31 -34 36 -38 82 -13 132 17 32 17 32 -4 14 -31 -28 -37
-81 -14 -128 16 -31 17 -39 5 -39 -46 0 -91 73 -80 130 4 15 32 70 63 121 31
52 68 114 82 139 40 71 81 119 121 141 20 11 55 35 79 54 24 19 54 35 66 35
26 0 56 -28 56 -52 0 -9 3 -18 8 -20 11 -5 82 -101 78 -105 -2 -3 -20 6 -40
19 -27 17 -36 30 -36 51 0 16 -4 26 -10 22 -5 -3 -10 -24 -10 -46 0 -43 -6
-48 -26 -21 -7 9 -14 12 -14 6 0 -6 7 -17 15 -24 9 -8 15 -30 15 -56 0 -24 4
-44 9 -44 26 0 98 71 124 120 37 74 40 177 6 247 -29 61 -91 123 -152 152 -52
25 -154 37 -197 22z m94 -82 c14 -38 26 -77 26 -85 0 -8 2 -14 5 -14 2 0 35
23 73 50 38 28 72 50 76 50 4 0 -8 -29 -28 -65 -20 -36 -36 -69 -36 -73 0 -4
21 -12 48 -19 26 -6 61 -17 77 -23 l30 -12 -59 -14 c-57 -14 -59 -13 -88 11
-16 14 -33 25 -38 25 -22 0 -61 -22 -102 -57 -25 -21 -58 -46 -74 -55 -16 -10
-54 -38 -84 -62 -30 -25 -58 -45 -62 -46 -12 0 29 62 68 104 43 47 40 50 -69
66 l-80 13 59 24 c33 13 80 30 107 37 l47 12 -77 54 c-42 30 -71 56 -64 58 13
4 147 -44 166 -60 27 -23 35 -7 35 72 0 44 4 80 9 80 5 0 20 -32 35 -71z m122
22 c25 -19 25 -21 6 -21 -11 0 -24 -5 -28 -12 -5 -7 -2 -8 7 -3 8 5 11 5 7 1
-3 -4 -8 -6 -11 -4 -3 2 -14 -5 -25 -15 -10 -9 -26 -15 -35 -12 -16 7 -32 68
-22 85 3 6 -1 10 -9 10 -9 0 -16 4 -16 9 0 14 96 -15 126 -38z m-188 -8 c2
-19 -1 -33 -7 -33 -6 0 -11 -7 -11 -15 0 -17 -17 -20 -22 -4 -3 8 -19 15 -49
18 -4 1 -6 12 -6 26 0 24 7 29 36 26 7 -2 11 2 8 6 -3 5 6 9 21 8 23 0 27 -5
30 -32z m-108 -8 c0 -8 -7 -15 -16 -15 -14 0 -14 3 -4 15 7 8 14 15 16 15 2 0
4 -7 4 -15z m107 -57 c-3 -8 -6 -5 -6 6 -1 11 2 17 5 13 3 -3 4 -12 1 -19z
m261 0 c-2 -4 5 -13 16 -21 14 -11 51 -87 41 -87 -15 0 -65 24 -65 32 0 5 -4
7 -9 4 -5 -3 -11 3 -14 14 -3 11 -1 23 4 26 5 3 9 14 9 25 0 12 5 19 11 17 6
-2 9 -7 7 -10z m-423 -19 c-3 -5 10 -15 30 -23 19 -8 35 -16 35 -18 0 -2 -23
-4 -50 -5 -34 -1 -48 2 -44 9 4 7 2 8 -4 4 -6 -4 -9 -13 -5 -21 6 -17 39 -20
45 -5 2 6 9 6 17 0 12 -7 8 -10 -15 -16 -16 -4 -38 -13 -49 -20 -24 -17 -36
-18 -30 -1 2 6 9 31 15 55 6 23 15 40 20 37 6 -4 10 1 10 9 0 10 6 13 15 10 8
-4 12 -10 10 -15z m475 -168 c14 -27 13 -34 -5 -27 -12 4 -13 2 -3 -13 8 -13
8 -23 0 -37 -11 -18 -11 -18 -12 -1 0 10 -4 16 -9 13 -11 -7 -26 11 -35 42 -6
17 -2 24 16 31 33 14 36 13 48 -8z m-435 -11 c11 -1 15 -4 7 -7 -6 -2 -10 -9
-6 -14 6 -11 2 -11 -20 -3 -9 3 -13 10 -10 15 3 5 0 9 -5 9 -16 0 -13 -18 5
-28 13 -8 13 -13 -8 -45 -13 -20 -27 -36 -32 -37 -5 0 -3 7 4 15 10 12 10 15
0 15 -9 0 -7 7 6 23 10 12 12 16 4 10 -20 -18 -28 -16 -41 8 -9 17 -8 20 3 14
7 -3 5 0 -5 8 -18 15 -18 16 5 19 21 4 37 4 93 -2z m359 -121 c-3 -5 0 -9 5
-9 20 0 11 -17 -14 -28 -24 -11 -25 -10 -15 8 6 11 7 20 3 19 -19 -3 -23 2
-11 15 14 14 42 10 32 -5z m-598 -54 c-11 -8 -23 -15 -27 -15 -4 0 -18 -16
-30 -36 l-22 -37 21 -17 c65 -53 84 -71 78 -77 -3 -3 -18 6 -32 20 -44 44 -75
33 -89 -30 -3 -18 -10 -33 -15 -33 -5 0 0 26 11 57 11 32 17 63 15 69 -2 6 5
26 16 44 15 26 17 35 7 41 -8 4 -10 11 -6 16 5 4 11 2 15 -4 5 -8 14 -8 32 2
33 19 50 18 26 0z m894 -26 c0 -14 -17 -10 -23 5 -4 10 -1 13 9 9 7 -3 14 -9
14 -14z m3 -138 l22 -23 -25 7 c-37 11 -43 20 -35 52 7 24 9 25 13 8 2 -11 14
-31 25 -44z m-553 -246 c-7 -9 -15 -13 -19 -10 -3 3 1 10 9 15 21 14 24 12 10
-5z"/>
<path d="M1157 1566 c-4 -10 -3 -15 3 -11 6 3 10 1 10 -6 0 -7 3 -10 6 -6 3 3
2 13 -4 22 -8 16 -9 16 -15 1z"/>
<path d="M970 1570 c0 -5 5 -10 11 -10 5 0 7 5 4 10 -3 6 -8 10 -11 10 -2 0
-4 -4 -4 -10z"/>
<path d="M1690 1654 c0 -3 9 -17 19 -31 11 -13 18 -30 15 -36 -2 -7 11 -28 31
-47 19 -19 35 -41 35 -49 0 -12 3 -12 12 -3 9 9 4 20 -22 47 -20 20 -28 35
-20 35 20 0 70 -51 70 -72 0 -10 5 -18 10 -18 12 0 13 23 1 36 -12 12 -31 104
-21 104 4 0 10 -8 13 -17 3 -10 15 -43 26 -73 17 -43 22 -82 24 -172 1 -73 5
-108 10 -95 27 73 -35 374 -81 392 -18 7 -26 -19 -13 -44 6 -11 11 -27 11 -37
0 -13 -3 -14 -15 -4 -8 7 -24 10 -35 7 -13 -3 -20 0 -20 9 0 21 -29 74 -40 74
-6 0 -10 -3 -10 -6z"/>
<path d="M283 1623 c-13 -2 -23 -10 -23 -18 0 -11 6 -11 30 -2 26 10 43 29 23
26 -5 -1 -18 -4 -30 -6z"/>
<path d="M384 1587 c-8 -21 2 -35 16 -21 5 5 6 15 0 24 -8 12 -10 12 -16 -3z"/>
<path d="M289 1573 c-2 -25 3 -143 8 -170 7 -46 24 -41 18 5 -19 154 -15 178
16 82 8 -27 15 -38 17 -27 2 10 -1 23 -6 30 -5 7 -12 29 -16 50 -4 23 -13 37
-21 37 -8 0 -15 -3 -16 -7z"/>
<path d="M1808 1445 c2 -14 8 -23 12 -20 10 6 1 45 -10 45 -4 0 -5 -11 -2 -25z"/>
<path d="M1840 1456 c0 -8 5 -18 10 -21 6 -3 10 3 10 14 0 12 -4 21 -10 21 -5
0 -10 -6 -10 -14z"/>
<path d="M1752 1434 c-1 -14 2 -23 8 -19 12 7 14 45 2 45 -4 0 -9 -11 -10 -26z"/>
<path d="M452 1433 c2 -9 8 -18 15 -20 7 -3 9 3 6 16 -6 25 -26 28 -21 4z"/>
<path d="M390 1381 c0 -12 5 -21 10 -21 6 0 10 6 10 14 0 8 -4 18 -10 21 -5 3
-10 -3 -10 -14z"/>
<path d="M465 1380 c3 -5 8 -10 11 -10 2 0 4 5 4 10 0 6 -5 10 -11 10 -5 0 -7
-4 -4 -10z"/>
<path d="M1830 1370 c0 -19 3 -21 12 -12 9 9 9 15 0 24 -9 9 -12 7 -12 -12z"/>
<path d="M340 1366 c0 -8 5 -18 10 -21 6 -3 10 1 10 9 0 8 -4 18 -10 21 -5 3
-10 -1 -10 -9z"/>
<path d="M311 1320 c0 -25 6 -63 14 -85 13 -40 13 -40 8 25 -7 83 -22 124 -22
60z"/>
<path d="M1130 1328 c0 -16 48 -39 56 -27 3 5 -2 9 -10 9 -9 0 -16 7 -16 15 0
8 -7 15 -15 15 -8 0 -15 -6 -15 -12z"/>
<path d="M1200 1305 c0 -9 5 -15 11 -13 6 2 11 8 11 13 0 5 -5 11 -11 13 -6 2
-11 -4 -11 -13z"/>
<path d="M1620 1311 c0 -6 4 -13 10 -16 6 -3 7 1 4 9 -7 18 -14 21 -14 7z"/>
<path d="M440 1255 c0 -19 4 -35 8 -35 4 0 6 16 4 35 -2 19 -6 35 -8 35 -2 0
-4 -16 -4 -35z"/>
<path d="M1979 1149 c-18 -15 -21 -22 -10 -26 30 -12 50 -44 77 -124 36 -108
34 -99 43 -204 7 -88 7 -89 15 -42 5 26 16 52 25 57 9 5 11 10 4 10 -9 0 -10
7 -3 25 6 16 6 25 -1 25 -5 0 -12 -7 -16 -16 -4 -10 -13 13 -25 57 -10 41 -21
82 -24 93 -5 13 -2 17 7 12 8 -4 5 -1 -5 8 -10 8 -27 33 -37 56 -10 22 -25 40
-34 40 -8 0 -15 5 -15 10 0 6 6 10 14 10 18 0 30 17 17 24 -5 3 -20 -3 -32
-15z"/>
<path d="M180 1059 c0 -7 8 -18 18 -26 13 -11 13 -13 2 -10 -10 3 -22 -9 -34
-34 -15 -30 -24 -38 -38 -33 -12 4 -18 0 -18 -11 0 -9 4 -14 9 -11 8 5 -33
-135 -45 -156 -3 -4 -12 -8 -20 -8 -8 0 -12 -5 -9 -10 4 -6 10 -8 15 -5 11 7
17 -19 23 -90 2 -27 14 -70 25 -94 13 -25 22 -65 22 -90 1 -25 7 -57 15 -71 8
-14 14 -32 14 -40 0 -10 -2 -11 -6 -2 -2 6 -11 12 -19 12 -25 0 -15 -17 18
-31 35 -14 77 -56 78 -77 0 -6 5 -11 12 -10 14 3 99 -117 95 -134 -1 -6 17
-21 41 -34 23 -14 42 -20 42 -14 0 6 -14 17 -30 24 -20 8 -38 29 -55 62 -14
28 -41 69 -60 91 -39 46 -45 78 -15 86 29 7 25 30 -4 25 -19 -4 -27 2 -40 29
-21 44 -22 113 -1 113 8 0 15 7 15 15 0 8 -4 15 -10 15 -5 0 -10 16 -10 35 0
32 2 35 24 29 28 -7 43 11 26 31 -8 9 -21 13 -35 9 -20 -5 -25 -1 -34 33 -13
47 -13 49 0 96 8 31 14 38 29 34 11 -3 26 3 36 14 15 17 15 19 1 25 -9 3 -22
2 -29 -2 -7 -4 -1 8 13 27 15 18 36 35 48 37 29 5 37 27 18 47 -12 11 -18 12
-23 3 -4 -6 -2 -14 4 -16 7 -2 12 -8 12 -13 0 -4 -6 -6 -13 -3 -8 3 -20 -2
-27 -11 -7 -8 -19 -15 -27 -15 -8 0 -12 -4 -9 -9 3 -5 -6 -29 -19 -54 -31 -55
-42 -131 -24 -172 8 -19 13 -75 14 -152 0 -110 2 -124 21 -145 15 -16 19 -29
14 -43 -6 -18 -11 -14 -38 29 -36 56 -60 152 -43 169 15 15 14 27 -3 27 -17 0
-29 33 -28 73 1 24 -2 26 -14 16 -12 -10 -14 -2 -14 50 0 36 4 60 9 56 5 -3
12 -1 16 5 3 5 -1 10 -10 10 -12 0 -14 7 -9 28 16 73 74 201 95 210 3 1 15 9
25 16 18 14 18 15 0 35 -21 23 -36 27 -36 10z m70 -439 c0 -5 -7 -7 -15 -4 -8
4 -15 8 -15 10 0 2 7 4 15 4 8 0 15 -4 15 -10z"/>
<path d="M1936 1011 c-18 -19 -11 -31 26 -44 10 -3 26 -24 35 -46 13 -31 20
-37 30 -29 17 13 17 31 1 25 -16 -5 -42 50 -39 82 2 15 -1 21 -8 16 -6 -3 -9
-10 -6 -15 7 -12 -13 -23 -26 -14 -8 5 -6 10 5 16 17 9 22 28 8 28 -5 0 -16
-8 -26 -19z"/>
<path d="M260 1000 c0 -5 5 -10 11 -10 5 0 7 5 4 10 -3 6 -8 10 -11 10 -2 0
-4 -4 -4 -10z"/>
<path d="M1330 930 c0 -5 4 -10 9 -10 6 0 13 5 16 10 3 6 -1 10 -9 10 -9 0
-16 -4 -16 -10z"/>
<path d="M1530 899 c0 -6 4 -8 9 -5 5 3 11 -3 14 -14 5 -20 -17 -40 -45 -40
-8 0 -29 -13 -48 -30 -37 -31 -50 -36 -50 -20 0 6 5 10 11 10 6 0 21 10 34 22
13 12 40 28 61 35 22 7 29 11 17 9 -14 -3 -23 2 -26 15 -6 24 -19 24 -48 -1
-19 -15 -21 -22 -11 -28 10 -7 10 -11 -2 -21 -11 -9 -15 -9 -18 1 -6 17 -58
-6 -58 -26 0 -35 58 -53 78 -24 16 22 69 51 81 44 12 -8 54 41 46 53 -3 6 -1
11 4 11 26 0 8 17 -19 18 -16 0 -30 -4 -30 -9z m-30 -30 c0 -5 -4 -8 -9 -5 -5
4 -11 0 -14 -6 -2 -7 -8 -9 -13 -5 -5 4 -2 12 6 17 20 13 30 12 30 -1z m-85
-58 c-3 -6 -14 -11 -23 -11 -15 1 -15 2 2 15 21 16 32 13 21 -4z"/>
<path d="M683 865 c-8 -9 -9 -16 -3 -20 6 -3 13 1 16 10 9 21 2 26 -13 10z"/>
<path d="M2005 861 c3 -5 0 -13 -7 -17 -8 -5 -5 -10 9 -15 14 -5 22 -20 26
-46 4 -21 13 -50 21 -64 13 -25 12 -28 -16 -49 -16 -12 -36 -37 -45 -55 -12
-25 -20 -32 -28 -25 -9 7 -16 6 -24 -4 -9 -10 -8 -16 3 -25 17 -14 14 -66 -6
-89 -27 -31 -38 -60 -38 -102 0 -28 -8 -52 -24 -73 -31 -41 -57 -93 -50 -100
3 -3 -8 -13 -25 -23 -17 -10 -31 -23 -31 -28 0 -6 5 -5 12 2 7 7 19 12 27 12
12 0 12 -3 3 -12 -14 -14 -16 -38 -3 -38 5 0 11 13 14 29 7 31 48 78 90 100
31 17 36 36 8 28 -13 -3 -21 1 -24 14 -3 12 15 40 55 86 33 37 67 82 75 100
11 21 21 30 32 26 13 -5 14 -3 4 8 -18 18 -16 84 3 120 8 17 13 33 10 36 -2 3
-12 -9 -20 -25 -9 -17 -21 -34 -27 -38 -8 -5 -9 -2 -4 7 6 11 5 11 -5 2 -13
-12 -4 -37 11 -28 16 11 10 -48 -11 -89 -23 -49 -113 -151 -106 -121 2 11 7
33 11 50 9 41 25 60 36 43 5 -8 9 9 9 42 0 46 6 64 35 107 32 48 75 85 75 66
0 -4 5 -1 10 7 8 13 10 12 10 -2 0 -10 5 -18 10 -18 19 0 10 32 -10 37 -26 7
-44 42 -60 116 -9 36 -18 57 -27 57 -8 0 -12 -4 -8 -9z m-135 -632 c-31 -42
-36 -29 -9 23 16 30 24 38 27 26 2 -10 -6 -32 -18 -49z"/>
<path d="M480 825 c0 -9 6 -12 15 -9 18 7 19 -11 4 -55 -17 -49 1 -60 46 -26
42 33 57 57 49 79 -10 25 -25 19 -18 -8 4 -18 -2 -29 -27 -49 -19 -14 -35 -24
-37 -22 -3 2 1 18 7 35 7 22 7 38 0 51 -12 22 -39 25 -39 4z"/>
<path d="M665 820 c-3 -5 -1 -10 4 -10 6 0 11 5 11 10 0 6 -2 10 -4 10 -3 0
-8 -4 -11 -10z"/>
<path d="M1640 805 c0 -8 6 -12 14 -9 8 3 16 -3 19 -15 3 -12 1 -21 -4 -21 -5
0 -9 -12 -9 -27 -1 -32 -30 -75 -37 -55 -3 6 -12 12 -21 12 -13 0 -11 -4 6
-16 12 -8 22 -22 22 -31 0 -15 -2 -15 -18 0 -23 21 -67 38 -122 47 -55 9 -70
4 -70 -25 0 -18 -4 -21 -25 -17 -17 3 -27 -1 -31 -12 -9 -23 40 -73 80 -81 73
-15 104 -28 99 -41 -2 -7 -29 -31 -58 -53 l-53 -40 -4 -68 c-2 -37 -8 -77 -13
-87 -6 -14 -5 -17 3 -12 7 4 12 2 12 -5 0 -7 3 -9 6 -6 4 4 6 42 5 85 l-2 79
36 31 c45 40 50 40 25 0 -27 -45 -25 -58 8 -58 29 0 62 29 95 82 18 29 23 53
8 44 -11 -7 -36 22 -27 31 3 3 15 -2 26 -12 27 -24 19 -66 -22 -118 -22 -29
-31 -51 -34 -88 -1 -27 -6 -54 -9 -59 -3 -6 1 -10 9 -10 13 0 16 12 16 53 0
41 7 61 30 96 18 26 32 63 36 93 l7 49 27 -26 c23 -22 34 -26 60 -20 27 6 32
4 37 -14 3 -12 12 -21 20 -21 10 0 11 4 4 18 -24 42 -27 43 -54 33 -23 -9 -32
-6 -62 21 -26 22 -34 36 -29 50 3 10 1 25 -5 32 -14 17 27 102 42 87 8 -8 8
-14 0 -22 -6 -6 -9 -17 -7 -23 3 -7 -2 -31 -11 -55 -13 -38 -13 -42 0 -31 8 7
15 18 15 25 0 20 36 55 46 45 5 -5 28 11 56 41 32 34 41 49 30 49 -9 0 -30
-18 -45 -40 -25 -35 -47 -51 -47 -35 0 15 42 85 50 85 6 0 10 7 10 16 0 27
-30 -4 -51 -52 -22 -52 -37 -63 -31 -23 3 19 -2 37 -13 49 -10 11 -13 20 -7
20 6 0 15 -8 21 -17 5 -10 12 -15 16 -11 3 3 1 15 -6 26 -10 17 -10 23 0 36
18 21 32 20 24 -1 -4 -11 -3 -14 5 -9 7 4 12 13 12 21 0 25 -21 27 -45 5 l-23
-22 -7 21 c-7 24 -35 29 -35 6z m-76 -151 c17 -7 41 -24 54 -38 20 -22 21 -26
7 -39 -23 -24 -70 -30 -132 -16 -55 11 -123 45 -123 61 0 4 53 5 118 2 90 -3
111 -2 92 7 -14 6 -42 8 -64 6 -47 -7 -86 7 -86 29 0 13 8 15 52 9 28 -4 65
-13 82 -21z m62 -121 c-10 -10 -19 5 -10 18 6 11 8 11 12 0 2 -7 1 -15 -2 -18z
m-36 -28 c7 -9 10 -18 7 -22 -8 -7 -37 15 -37 28 0 14 16 11 30 -6z m-20 -20
c12 -14 5 -55 -9 -55 -17 0 -32 30 -26 50 8 24 18 25 35 5z m-27 -78 c-4 -6
-12 -3 -20 8 -20 28 -16 41 7 20 11 -10 17 -22 13 -28z m-23 -8 c0 -5 -7 -9
-15 -9 -9 0 -12 6 -9 15 6 15 24 11 24 -6z"/>
<path d="M1546 465 c4 -8 11 -15 16 -15 6 0 5 6 -2 15 -7 8 -14 15 -16 15 -2
0 -1 -7 2 -15z"/>
<path d="M45 790 c3 -5 11 -10 16 -10 6 0 7 5 4 10 -3 6 -11 10 -16 10 -6 0
-7 -4 -4 -10z"/>
<path d="M467 733 c-11 -17 1 -39 29 -53 13 -8 30 -26 38 -41 13 -25 12 -28
-15 -48 l-28 -21 -33 20 c-36 22 -73 26 -83 10 -4 -7 4 -9 22 -6 19 3 37 -2
56 -18 l28 -23 -60 10 c-62 10 -91 6 -91 -14 0 -6 7 -9 15 -5 8 3 15 0 15 -7
0 -9 2 -9 8 -1 7 12 127 12 139 0 12 -12 23 -6 38 25 l16 30 21 -26 c19 -24
19 -27 4 -44 -9 -10 -24 -42 -35 -72 -17 -51 -20 -54 -47 -49 -55 8 -117 5
-121 -7 -4 -12 14 -12 33 -1 5 4 28 3 50 -2 76 -18 80 -16 98 50 9 32 21 62
25 64 5 3 11 -17 13 -44 3 -31 14 -61 30 -82 14 -18 28 -49 32 -68 3 -19 10
-40 14 -46 9 -13 109 -74 122 -74 26 0 5 19 -50 45 -45 21 -62 36 -70 58 -14
42 -13 49 9 37 34 -18 44 -12 37 21 -5 27 -4 30 12 24 54 -22 75 -8 52 35 -6
12 -9 24 -6 27 10 10 34 -17 66 -73 17 -30 42 -60 55 -66 14 -6 25 -15 25 -20
0 -4 8 -8 18 -8 13 1 10 6 -13 25 -52 43 -59 51 -87 99 -16 27 -39 51 -55 57
-14 5 -44 26 -65 45 -22 19 -49 40 -62 45 -12 6 -27 24 -33 40 -11 27 -9 31
13 41 14 7 23 18 22 27 -3 14 -19 19 -18 6 1 -3 -6 -13 -15 -21 -15 -16 -40
-10 -29 7 3 5 9 7 14 4 9 -6 21 35 14 47 -4 5 -14 2 -24 -7 -18 -16 -21 -16
-49 4 -46 33 -50 24 -6 -14 33 -29 37 -37 25 -45 -11 -7 -20 -4 -32 13 -10 12
-18 28 -18 35 0 6 -8 12 -18 12 -11 0 -22 11 -28 28 -6 17 -12 23 -17 15z
m148 -145 c17 -42 1 -49 -27 -13 l-22 28 -23 -28 c-13 -15 -27 -24 -31 -20 -9
9 57 65 76 65 7 0 19 -15 27 -32z m53 -65 c40 -25 108 -98 115 -122 7 -27 -16
-28 -67 -1 -30 15 -43 17 -58 9 -22 -12 -34 -6 -23 11 4 6 14 9 22 6 11 -4 13
-1 8 14 -4 11 -2 20 4 20 6 0 11 -5 11 -11 0 -5 5 -7 11 -4 6 4 21 -3 35 -16
13 -12 26 -20 29 -17 3 3 -11 18 -30 33 -25 19 -43 25 -60 21 -18 -5 -24 -1
-29 19 -4 14 -11 25 -17 25 -8 0 -7 5 1 15 15 19 15 19 48 -2z m-38 -43 c0 -5
-4 -10 -10 -10 -5 0 -10 5 -10 10 0 6 5 10 10 10 6 0 10 -4 10 -10z m1 -33
c-1 -12 -15 -9 -19 4 -3 6 1 10 8 8 6 -3 11 -8 11 -12z m53 -69 c-6 -20 -5
-21 10 -9 14 11 16 11 16 -2 0 -23 -13 -27 -34 -12 -19 14 -16 45 4 45 7 0 9
-8 4 -22z"/>
<path d="M768 633 c-2 -10 0 -28 6 -41 7 -17 6 -29 -3 -44 -10 -16 -10 -19 1
-16 7 3 19 23 27 45 12 34 13 44 2 57 -17 21 -29 20 -33 -1z m32 -24 c0 -5 -4
-9 -10 -9 -5 0 -10 7 -10 16 0 8 5 12 10 9 6 -3 10 -10 10 -16z"/>
<path d="M1650 640 c0 -5 5 -10 11 -10 5 0 7 5 4 10 -3 6 -8 10 -11 10 -2 0
-4 -4 -4 -10z"/>
<path d="M1280 570 c0 -5 5 -10 11 -10 5 0 7 5 4 10 -3 6 -8 10 -11 10 -2 0
-4 -4 -4 -10z"/>
<path d="M1270 540 c0 -5 5 -10 10 -10 6 0 10 5 10 10 0 6 -4 10 -10 10 -5 0
-10 -4 -10 -10z"/>
<path d="M51 509 c-7 -12 -10 -23 -8 -26 3 -3 11 5 17 17 15 28 8 35 -9 9z"/>
<path d="M940 466 c0 -18 10 -25 26 -19 20 7 17 20 -6 26 -12 3 -20 0 -20 -7z"/>
<path d="M1132 354 c-6 -11 -6 -28 0 -46 7 -20 7 -33 -1 -42 -8 -10 -9 -16 -1
-21 5 -3 10 0 10 9 0 8 5 16 10 18 15 5 18 90 3 95 -6 2 -16 -4 -21 -13z m28
-13 c0 -6 -4 -13 -10 -16 -5 -3 -10 1 -10 9 0 9 5 16 10 16 6 0 10 -4 10 -9z"/>
<path d="M236 241 c-4 -6 -2 -16 3 -23 49 -61 75 -88 84 -88 6 0 -1 12 -15 28
-14 15 -35 42 -46 60 -11 20 -23 29 -26 23z"/>
<path d="M479 229 c-8 -15 -8 -24 0 -32 6 -6 11 -19 11 -29 0 -34 18 -18 25
22 10 58 -12 82 -36 39z m31 -15 c0 -8 -4 -12 -10 -9 -5 3 -10 10 -10 16 0 5
5 9 10 9 6 0 10 -7 10 -16z"/>
<path d="M2025 210 c-33 -13 -48 -38 -48 -82 0 -33 6 -47 27 -65 34 -29 84
-30 114 -3 22 21 31 47 11 34 -13 -7 -8 38 5 47 15 12 -5 49 -34 64 -32 17
-45 18 -75 5z m81 -24 c16 -12 17 -17 6 -28 -17 -17 -64 -18 -58 -1 7 16 -6
17 -22 1 -8 -8 -3 -18 21 -39 17 -15 29 -30 26 -34 -10 -10 -36 5 -48 28 -6
12 -9 14 -7 5 5 -18 -16 -42 -27 -31 -13 12 -7 68 9 91 18 26 69 30 100 8z
m-16 -61 c7 -9 10 -18 7 -22 -8 -7 -37 15 -37 28 0 14 16 11 30 -6z"/>
<path d="M1302 149 c2 -6 8 -10 13 -10 5 0 11 4 13 10 2 6 -4 11 -13 11 -9 0
-15 -5 -13 -11z"/>
<path d="M1565 151 c-3 -5 -1 -12 5 -16 12 -7 30 2 30 16 0 12 -27 12 -35 0z"/>
<path d="M89 129 c-15 -15 -19 -30 -17 -66 4 -54 26 -76 52 -50 20 20 20 27 1
27 -20 0 -19 36 1 44 9 4 14 9 11 13 -4 3 -13 1 -20 -6 -11 -9 -17 -8 -26 3
-17 20 28 51 61 41 47 -15 79 -67 61 -100 -12 -21 -32 -3 -35 32 -1 17 -9 35
-18 40 -12 8 -15 5 -17 -18 -2 -21 2 -27 12 -22 20 7 19 -21 0 -37 -24 -20
-18 -27 22 -25 31 1 39 6 47 27 29 82 -75 157 -135 97z"/>
<path d="M1440 135 c0 -9 6 -12 15 -9 8 4 15 10 15 15 0 5 -7 9 -15 9 -8 0
-15 -7 -15 -15z"/>
<path d="M1670 69 c-9 -15 -8 -24 1 -37 8 -9 15 -19 16 -21 2 -3 9 4 17 14 10
14 11 25 3 42 -13 28 -23 29 -37 2z m30 -20 c0 -5 -4 -9 -10 -9 -5 0 -10 7
-10 16 0 8 5 12 10 9 6 -3 10 -10 10 -16z"/>
<path d="M737 73 c-12 -12 -7 -50 8 -63 19 -15 35 -5 35 24 0 32 -27 56 -43
39z m33 -39 c0 -16 -16 -19 -25 -4 -8 13 4 32 16 25 5 -4 9 -13 9 -21z"/>
</g>
</svg>
