<?xml version="1.0" standalone="no"?>
<!DOCTYPE svg PUBLIC "-//W3C//DTD SVG 20010904//EN"
 "http://www.w3.org/TR/2001/REC-SVG-20010904/DTD/svg10.dtd">
<svg version="1.0" xmlns="http://www.w3.org/2000/svg"
 width="300.000000pt" height="308.000000pt" viewBox="0 0 300.000000 308.000000"
 preserveAspectRatio="xMidYMid meet">
<metadata>
Created by potrace 1.10, written by Peter Selinger 2001-2011
</metadata>
<g transform="translate(0.000000,308.000000) scale(0.100000,-0.100000)"
fill="#000000" stroke="none">
<path d="M963 2951 c-7 -12 -8 -21 -3 -23 6 -2 3 -16 -5 -32 -19 -36 -20 -33
13 -33 15 0 37 -4 49 -8 17 -5 24 -3 29 9 8 22 -4 35 -16 16 -7 -11 -14 -12
-33 -3 -20 9 -24 17 -20 35 3 13 10 28 14 34 8 10 2 24 -10 24 -4 0 -12 -9
-18 -19z"/>
<path d="M740 2933 c0 -21 -3 -24 -12 -15 -29 29 -36 10 -13 -30 14 -24 25
-53 25 -65 0 -31 16 -29 24 3 7 25 8 26 21 8 18 -26 28 -13 15 20 -8 21 -6 34
6 57 19 37 11 49 -15 25 -18 -17 -19 -16 -26 3 -9 30 -25 26 -25 -6z m45 -49
c0 -13 -6 -24 -12 -24 -7 0 -13 -6 -13 -12 0 -7 -7 0 -15 15 -11 22 -12 31 -3
41 19 20 43 8 43 -20z"/>
<path d="M1126 2928 c3 -18 7 -39 10 -45 5 -19 44 -16 51 3 8 21 -10 49 -31
48 -9 -1 -16 4 -16 12 0 8 -4 14 -10 14 -5 0 -7 -14 -4 -32z m40 -46 c-4 -3
-12 0 -19 7 -9 9 -9 14 3 21 11 7 16 5 18 -6 2 -9 1 -18 -2 -22z"/>
<path d="M1256 2921 c-3 -5 0 -11 7 -14 9 -3 12 -16 9 -36 -2 -19 0 -31 7 -31
6 0 11 12 11 28 l1 27 15 -27 c19 -36 35 -36 28 1 -4 21 -2 30 11 34 9 4 13
11 10 17 -11 17 -24 11 -31 -15 l-6 -25 -20 25 c-20 26 -33 31 -42 16z"/>
<path d="M2010 2906 c0 -8 -7 -13 -16 -12 -9 0 -19 -4 -21 -10 -2 -6 7 -10 19
-9 15 1 24 9 26 23 2 12 1 22 -2 22 -3 0 -6 -6 -6 -14z"/>
<path d="M2060 2904 c-9 -10 -10 -18 -2 -26 12 -12 32 -2 32 17 0 21 -16 26
-30 9z"/>
<path d="M2130 2903 c0 -19 21 -27 31 -12 13 21 11 25 -11 25 -11 0 -20 -6
-20 -13z"/>
<path d="M1430 2881 c0 -6 5 -13 10 -16 6 -3 10 -17 10 -31 0 -17 -5 -24 -19
-24 -23 0 -35 -15 -25 -31 4 -8 9 -7 14 2 5 7 23 17 42 23 46 15 50 49 9 70
-35 19 -41 19 -41 7z m55 -41 c0 -7 -6 -15 -12 -17 -8 -3 -13 4 -13 17 0 13 5
20 13 18 6 -3 12 -11 12 -18z"/>
<path d="M592 2825 c-46 -24 -96 -46 -110 -50 -15 -4 -48 -29 -75 -56 -27 -28
-56 -49 -68 -49 -19 0 -118 -94 -119 -113 0 -4 -10 -21 -21 -37 -17 -22 -20
-37 -16 -64 4 -23 0 -47 -9 -64 -16 -31 -19 -88 -4 -97 7 -4 7 -13 0 -26 -6
-10 -8 -34 -5 -52 5 -24 2 -37 -10 -47 -15 -13 -45 -62 -45 -75 0 -16 19 -1
30 24 6 16 20 37 31 47 14 13 17 25 12 59 -3 26 -1 45 6 49 16 10 13 36 -4 36
-21 0 -19 26 6 76 15 32 18 48 10 62 -7 13 -6 25 4 43 8 13 19 35 25 49 16 36
91 110 112 110 26 0 22 -12 -12 -45 -29 -28 -40 -65 -20 -65 6 0 10 6 10 14 0
8 11 28 25 44 14 17 25 36 25 42 0 26 50 79 69 75 15 -3 18 0 14 13 -6 15 -5
15 11 3 16 -13 17 -13 14 4 -2 12 4 21 15 23 9 2 43 19 74 38 41 24 59 31 64
22 6 -9 14 -9 35 0 38 18 40 8 4 -19 -16 -13 -52 -43 -78 -66 -27 -25 -57 -43
-71 -43 -17 0 -22 -4 -17 -16 3 -9 -5 -29 -19 -48 -14 -18 -25 -44 -25 -57 0
-13 -4 -30 -9 -38 -5 -7 -4 -25 3 -42 8 -22 8 -34 -2 -49 -16 -26 -15 -31 3
-24 12 5 15 -3 15 -39 0 -25 5 -49 10 -52 6 -3 10 -2 10 3 0 5 13 15 30 22 39
16 57 37 42 52 -8 8 -7 15 3 25 24 24 30 81 10 103 -17 19 -16 19 21 13 46 -6
70 -29 52 -50 -8 -10 -14 -11 -22 -3 -17 17 -26 11 -26 -17 0 -14 -7 -35 -17
-45 -9 -10 -13 -21 -10 -24 12 -12 46 40 41 61 -4 16 -3 17 5 5 9 -12 13 -12
33 6 39 35 51 39 43 15 -4 -13 -1 -28 5 -37 10 -11 7 -26 -18 -77 -40 -81 -62
-146 -55 -163 3 -8 -4 -37 -16 -64 -23 -54 -25 -60 -13 -60 11 0 46 101 43
125 -2 21 11 56 53 150 35 77 46 98 61 124 7 14 11 29 8 34 -3 6 -13 -6 -21
-27 -15 -38 -32 -48 -32 -19 0 9 16 34 37 55 l36 37 -39 44 c-52 59 -91 81
-137 75 -20 -2 -37 -1 -37 3 0 15 29 29 45 22 15 -5 17 -2 13 14 -4 15 1 24
18 32 15 6 25 7 29 0 10 -15 27 1 21 18 -4 9 -1 21 5 29 14 18 7 58 -11 61 -8
1 -53 -17 -98 -42z m84 9 c-30 -21 -44 -16 -17 7 13 11 27 17 30 13 3 -3 -3
-12 -13 -20z m36 -212 c30 -29 48 -54 44 -60 -11 -18 -34 -14 -56 8 -12 12
-32 25 -45 30 -18 7 -23 14 -18 27 5 14 1 13 -16 -4 -12 -13 -29 -23 -39 -24
-9 0 -36 -1 -58 -3 l-42 -2 25 38 c25 37 27 38 90 38 63 0 65 -1 115 -48z
m-64 -36 c31 -16 68 -54 60 -61 -10 -11 -59 18 -54 32 6 16 -6 17 -21 2 -7 -7
-24 -8 -42 -4 -34 7 -42 25 -12 25 11 0 23 5 26 10 8 13 11 13 43 -4z m-112
-21 c-11 -8 -26 -15 -33 -15 -7 0 -13 -9 -13 -20 0 -11 -7 -20 -15 -20 -8 0
-15 5 -15 10 0 6 5 10 11 10 6 0 8 7 5 17 -8 21 10 33 49 33 29 -1 29 -1 11
-15z m25 -44 c14 -23 14 -33 4 -57 -11 -25 -14 -26 -20 -11 -4 9 -5 23 -2 31
4 9 -3 16 -19 20 -28 7 -31 21 -6 35 24 15 25 14 43 -18z m-44 -33 c12 -16 34
-101 27 -107 -2 -3 -10 1 -16 7 -19 19 -28 14 -28 -13 0 -43 -20 -27 -21 18
-2 43 -1 100 0 105 3 7 30 0 38 -10z"/>
<path d="M2117 2833 c-4 -3 -7 -15 -7 -25 0 -26 22 -18 27 10 3 21 -7 29 -20
15z"/>
<path d="M2592 2814 c-12 -16 -30 -38 -41 -49 -10 -11 -39 -52 -64 -91 -25
-39 -52 -74 -61 -77 -9 -4 -47 -9 -84 -13 -72 -7 -95 -15 -129 -47 -12 -11
-32 -25 -45 -31 -12 -6 -32 -26 -44 -44 -27 -40 -79 -170 -72 -178 12 -12 65
26 93 65 15 23 29 41 31 41 7 0 -11 -36 -32 -65 -12 -16 -25 -51 -28 -77 -7
-45 -6 -48 23 -63 17 -8 31 -20 31 -25 0 -15 39 -32 60 -25 29 9 25 30 -14 72
-27 31 -32 42 -25 61 5 12 12 22 17 22 4 0 19 10 31 21 29 28 38 16 47 -63 5
-43 11 -59 24 -63 10 -3 25 -17 34 -30 16 -25 47 -32 80 -19 27 10 18 33 -24
59 -50 32 -58 60 -31 113 12 23 21 48 21 57 0 21 32 19 63 -5 14 -11 32 -20
40 -20 8 0 20 -7 27 -15 7 -8 20 -15 30 -15 16 0 90 -83 90 -102 0 -4 7 -8 15
-8 9 0 26 -6 38 -14 22 -14 46 -19 81 -17 13 1 17 7 13 20 -4 16 1 19 29 19
18 0 38 3 44 7 15 9 -14 42 -60 65 -19 10 -52 36 -74 58 -36 38 -38 42 -27 74
9 29 8 46 -9 101 -12 37 -19 71 -16 75 4 7 35 18 104 38 20 6 9 40 -11 36 -9
-2 -17 2 -17 8 0 9 21 14 42 11 4 0 10 9 14 21 7 23 -16 48 -45 48 -9 0 -36
18 -60 41 -39 35 -46 38 -54 23 -9 -15 -11 -15 -22 6 l-12 22 -21 -28z m43
-56 c10 40 28 41 79 2 22 -17 47 -30 57 -30 37 0 28 -19 -13 -30 -24 -6 -53
-15 -65 -20 -24 -10 -31 -30 -11 -30 6 0 4 -8 -6 -19 -22 -24 -23 -62 -3 -129
17 -56 14 -104 -9 -123 -11 -9 -14 -7 -14 12 0 13 -5 31 -10 39 -6 10 -8 -4
-6 -42 2 -37 12 -73 29 -102 14 -25 21 -46 16 -46 -6 0 -8 -4 -4 -10 3 -5 12
-7 19 -4 8 3 29 -2 48 -12 33 -17 33 -18 9 -24 -39 -9 -95 25 -133 81 -22 34
-42 52 -61 56 -26 5 -28 9 -24 37 3 17 2 40 -3 51 -7 15 -9 10 -9 -22 -1 -35
-4 -43 -20 -43 -10 0 -24 7 -31 16 -8 8 -29 22 -48 30 -31 13 -34 17 -28 45 3
18 2 28 -4 24 -6 -3 -10 -26 -10 -51 0 -24 -4 -44 -10 -44 -5 0 -10 -5 -10
-11 0 -5 5 -7 12 -3 7 4 2 -9 -10 -30 -12 -20 -22 -46 -22 -57 0 -10 -5 -19
-12 -19 -16 0 31 -49 65 -66 15 -8 25 -19 22 -24 -10 -17 -48 -5 -81 25 -29
27 -34 38 -34 77 0 34 -6 54 -24 75 -13 15 -31 44 -41 63 -10 19 -20 29 -23
22 -2 -7 6 -28 17 -48 23 -38 19 -63 -5 -43 -11 9 -14 8 -14 -3 0 -8 -9 -23
-20 -33 -28 -26 -25 -57 10 -90 17 -16 30 -36 30 -44 0 -14 -1 -14 -10 -1 -9
13 -10 13 -10 0 0 -13 -1 -13 -10 0 -5 8 -10 11 -10 5 0 -5 -7 1 -16 13 -8 12
-21 22 -29 22 -8 0 -16 4 -19 9 -8 13 4 42 15 35 5 -3 9 0 9 5 0 6 -4 11 -10
11 -16 0 -11 36 7 51 21 18 44 74 37 92 -2 7 0 26 6 41 8 21 7 27 -2 24 -7 -3
-16 -20 -19 -38 -4 -19 -12 -36 -18 -38 -6 -2 -11 -12 -11 -23 0 -11 -7 -19
-16 -19 -8 0 -12 -4 -9 -10 4 -6 -1 -7 -11 -3 -12 5 -15 3 -9 -6 4 -8 2 -17
-6 -22 -17 -11 -39 -12 -23 -1 6 4 18 30 28 57 21 63 51 114 74 122 9 3 31 19
49 36 33 30 85 46 159 47 51 0 83 24 120 87 15 27 38 61 51 76 21 26 23 27 23
8 0 -12 5 -21 11 -21 6 0 8 7 5 16 -3 8 2 32 11 52 l17 37 6 -50 c6 -49 7 -49
15 -17z m118 -121 c7 -2 5 -3 -4 -2 -8 1 -24 -4 -34 -11 -23 -17 -43 -18 -27
-2 7 7 12 20 12 29 0 23 34 30 38 7 2 -9 9 -19 15 -21z m-36 -311 c22 -25 56
-52 76 -62 40 -19 46 -29 21 -38 -9 -3 -27 3 -41 14 -14 11 -29 18 -33 15 -4
-2 -12 7 -18 20 -7 14 -16 25 -22 25 -6 0 -2 -13 10 -30 12 -16 27 -30 34 -30
8 0 19 -7 26 -15 17 -20 8 -19 -34 6 -43 25 -85 83 -55 77 6 -2 14 3 16 10 3
7 -1 10 -10 7 -17 -7 -41 20 -32 35 11 17 22 11 62 -34z"/>
<path d="M2540 2570 c0 -5 7 -10 15 -10 8 0 15 5 15 10 0 6 -7 10 -15 10 -8 0
-15 -4 -15 -10z"/>
<path d="M2410 2540 c0 -5 7 -10 15 -10 8 0 15 5 15 10 0 6 -7 10 -15 10 -8 0
-15 -4 -15 -10z"/>
<path d="M2290 2530 c0 -5 5 -10 10 -10 6 0 10 5 10 10 0 6 -4 10 -10 10 -5 0
-10 -4 -10 -10z"/>
<path d="M2580 2470 c0 -5 7 -10 15 -10 8 0 15 5 15 10 0 6 -7 10 -15 10 -8 0
-15 -4 -15 -10z"/>
<path d="M2250 2420 c0 -5 5 -10 10 -10 6 0 10 5 10 10 0 6 -4 10 -10 10 -5 0
-10 -4 -10 -10z"/>
<path d="M2436 2421 c-4 -5 -2 -12 3 -15 5 -4 12 -2 15 3 4 5 2 12 -3 15 -5 4
-12 2 -15 -3z"/>
<path d="M2130 2409 c0 -5 5 -7 10 -4 6 3 10 8 10 11 0 2 -4 4 -10 4 -5 0 -10
-5 -10 -11z"/>
<path d="M2590 2380 c0 -5 5 -10 10 -10 6 0 10 5 10 10 0 6 -4 10 -10 10 -5 0
-10 -4 -10 -10z"/>
<path d="M2017 2823 c-3 -5 -1 -17 3 -27 7 -20 12 -16 23 17 6 17 -17 26 -26
10z"/>
<path d="M2060 2810 c0 -5 4 -10 9 -10 6 0 13 5 16 10 3 6 -1 10 -9 10 -9 0
-16 -4 -16 -10z"/>
<path d="M1600 2795 c-14 -7 -33 -16 -43 -19 -28 -9 -18 -50 12 -54 27 -4 43
15 35 41 -5 15 5 22 29 18 9 -1 9 16 -1 23 -4 2 -19 -2 -32 -9z m-10 -51 c0
-17 -22 -14 -28 4 -2 7 3 12 12 12 9 0 16 -7 16 -16z"/>
<path d="M1736 2725 c-3 -9 -6 -26 -6 -38 0 -20 -1 -19 -28 6 -29 27 -52 35
-52 17 0 -5 5 -10 10 -10 6 0 10 -16 10 -35 0 -19 4 -35 10 -35 5 0 7 14 3 33
-6 29 -5 31 10 19 9 -8 19 -22 22 -33 11 -34 25 -20 25 26 0 37 3 43 16 38 11
-4 15 -2 12 7 -7 21 -25 23 -32 5z"/>
<path d="M1784 2502 c-6 -22 -8 -22 -25 -6 -26 24 -34 12 -15 -25 9 -16 16
-41 16 -55 0 -27 21 -48 28 -27 3 9 7 9 17 1 18 -15 31 10 38 78 5 45 4 52 -7
43 -8 -7 -12 -20 -9 -31 7 -27 -5 -72 -18 -65 -5 4 -16 2 -23 -4 -11 -9 -15
-4 -18 24 -3 24 0 35 9 36 40 4 42 6 25 34 -11 20 -12 20 -18 -3z"/>
<path d="M320 2480 c0 -5 7 -10 15 -10 8 0 15 5 15 10 0 6 -7 10 -15 10 -8 0
-15 -4 -15 -10z"/>
<path d="M1321 2416 c-9 -11 -9 -16 0 -21 6 -4 15 -2 19 5 6 9 9 9 15 0 4 -6
0 -19 -9 -29 -9 -10 -16 -22 -16 -27 0 -12 -83 -87 -102 -93 -7 -2 -26 -6 -41
-9 -16 -2 -31 -11 -34 -18 -3 -8 -14 -14 -24 -14 -10 0 -26 -11 -34 -24 -9
-13 -28 -27 -43 -31 -46 -11 -144 -71 -203 -124 -70 -62 -158 -194 -193 -287
-15 -40 -36 -80 -46 -89 -23 -21 -26 -35 -7 -35 27 0 47 27 62 84 20 75 39
116 89 191 69 104 172 192 266 229 25 10 50 20 56 23 6 2 14 -3 18 -13 4 -12
-5 -27 -33 -50 -84 -72 -157 -190 -203 -329 -11 -33 -33 -79 -48 -102 -32 -47
-29 -58 10 -38 31 16 40 33 40 74 0 52 56 187 111 266 41 60 140 157 155 151
7 -3 24 4 37 15 14 10 30 19 35 19 5 0 15 7 22 15 7 9 15 13 17 11 9 -8 87 38
125 74 21 19 38 43 38 52 0 9 5 20 11 24 6 4 8 20 5 39 -4 19 -2 36 4 40 5 3
10 1 10 -4 0 -6 5 -11 10 -11 14 0 13 27 -2 36 -6 4 -20 -3 -31 -17 l-19 -24
-20 28 c-22 31 -31 33 -47 13z m79 -61 c10 -12 10 -18 0 -30 -7 -8 -18 -15
-25 -15 -7 0 -18 7 -25 15 -10 12 -10 18 0 30 7 8 18 15 25 15 7 0 18 -7 25
-15z m-28 -55 c23 0 23 -13 -2 -35 -21 -19 -47 -15 -56 10 -8 21 16 49 30 35
5 -5 18 -10 28 -10z m-62 -47 c18 -16 18 -18 3 -35 -9 -10 -20 -18 -24 -18
-13 0 -31 40 -25 56 7 19 21 18 46 -3z m-53 -39 c10 -21 9 -26 -4 -31 -19 -7
-44 23 -36 43 8 22 27 16 40 -12z m-53 -14 c13 -28 13 -31 -4 -40 -16 -8 -23
-5 -37 16 -16 25 -16 27 2 40 24 18 21 19 39 -16z m-54 -31 c16 -37 1 -61 -28
-43 -22 14 -27 41 -12 59 18 22 26 19 40 -16z m-500 -503 c0 -2 -7 -9 -15 -16
-13 -11 -14 -10 -9 4 5 14 24 23 24 12z m190 -17 c-7 -11 -14 -19 -16 -16 -7
7 7 37 17 37 6 0 5 -9 -1 -21z"/>
<path d="M1365 2330 c4 -6 11 -8 16 -5 14 9 11 15 -7 15 -8 0 -12 -5 -9 -10z"/>
<path d="M1743 2151 c-37 -23 -59 -53 -69 -96 -19 -76 -171 -202 -270 -223
-42 -9 -59 -37 -27 -48 10 -4 41 -28 68 -54 112 -107 270 -200 340 -200 24 0
25 -3 25 -64 0 -44 5 -69 15 -80 24 -24 16 -106 -11 -106 -8 0 -14 -4 -14 -10
0 -14 23 -13 38 2 7 7 12 34 12 60 0 65 22 63 46 -4 12 -32 26 -54 37 -56 9
-2 17 1 17 7 0 6 -6 11 -13 11 -8 0 -19 17 -25 39 -15 49 -15 51 2 51 20 0 22
11 15 93 l-6 72 36 33 c20 18 68 57 108 87 75 57 121 114 149 186 9 24 21 49
26 55 12 16 -11 32 -72 50 -29 8 -78 33 -110 55 -67 46 -89 48 -172 14 -62
-25 -138 -33 -138 -15 0 6 4 10 9 10 5 0 27 19 50 42 34 33 41 47 39 72 -3 28
-7 31 -38 34 -21 1 -47 -5 -67 -17z m94 -17 c7 -20 -40 -70 -132 -139 -38 -29
-88 -72 -110 -95 -45 -46 -73 -64 -152 -91 -39 -13 -53 -15 -53 -6 0 7 21 18
46 25 67 18 127 56 169 107 20 25 57 59 83 76 67 45 112 90 112 111 0 41 -82
-28 -104 -87 -2 -5 -6 -8 -9 -5 -12 11 33 89 60 104 37 20 82 20 90 0z m-58
-31 c0 -5 -14 -19 -32 -33 -30 -24 -30 -14 1 23 15 17 32 23 31 10z m292 -117
c39 -25 89 -48 110 -51 44 -8 64 -26 22 -20 -49 7 -93 23 -149 55 -63 35 -81
37 -157 10 -60 -21 -152 -26 -177 -10 -24 16 7 31 39 19 26 -11 99 2 156 27
51 22 81 16 156 -30z m-41 -21 c31 -23 88 -45 153 -59 17 -4 27 -13 27 -24 0
-35 -74 -145 -119 -176 -24 -17 -71 -54 -104 -82 -61 -53 -90 -60 -100 -23 -7
25 -37 24 -44 -1 -3 -11 -12 -20 -19 -20 -8 0 -14 -9 -14 -21 0 -15 -5 -19
-17 -15 -10 3 -31 8 -48 12 -65 15 -194 96 -282 177 -45 42 -53 57 -28 57 35
0 141 65 195 120 58 59 59 59 87 45 42 -22 120 -18 183 10 70 31 88 31 130 0z
m-159 -378 c-13 -13 -26 -3 -16 12 3 6 11 8 17 5 6 -4 6 -10 -1 -17z m32 -24
c3 -5 6 -44 8 -88 l4 -80 -40 0 -40 0 -3 88 -3 87 35 0 c19 0 37 -3 39 -7z"/>
<path d="M1862 1506 c1 -15 8 -26 14 -26 7 0 10 8 7 20 -8 31 -23 35 -21 6z"/>
<path d="M2651 1971 c-25 -25 -27 -58 -6 -81 13 -15 13 -23 -1 -71 -25 -88
-110 -231 -181 -306 -35 -37 -61 -62 -58 -55 10 19 -16 14 -60 -13 -22 -14
-53 -25 -70 -25 -16 0 -37 -5 -45 -10 -13 -9 -13 -11 0 -20 14 -9 59 -15 89
-10 8 1 17 -4 22 -11 10 -17 82 39 88 67 2 10 25 42 51 70 70 77 116 152 158
256 38 95 40 98 68 98 14 0 16 -14 12 -112 -5 -119 -31 -217 -80 -296 -38 -61
-118 -152 -134 -152 -9 0 -25 -12 -37 -26 -11 -15 -41 -39 -65 -55 -35 -22
-41 -30 -29 -35 10 -3 28 -3 41 0 15 4 26 1 29 -7 7 -17 76 63 77 89 0 11 14
33 31 50 61 57 129 165 156 248 21 67 26 101 27 198 1 78 6 122 14 130 28 28
-1 82 -50 93 -19 5 -32 1 -47 -14z m81 -27 c14 -31 1 -57 -31 -62 -28 -4 -51
14 -51 42 0 50 62 65 82 20z m-338 -511 c7 -17 -27 -57 -38 -45 -4 3 -26 5
-50 3 -24 -1 -46 1 -49 6 -3 4 10 8 29 9 19 0 47 10 62 22 33 26 38 26 46 5z
m92 -204 c-8 -12 -23 -23 -33 -24 -10 -1 -29 -5 -43 -9 -23 -7 -22 -6 5 12 17
10 39 29 49 41 26 28 44 12 22 -20z"/>
<path d="M2675 1940 c-3 -5 -1 -10 4 -10 6 0 11 5 11 10 0 6 -2 10 -4 10 -3 0
-8 -4 -11 -10z"/>
<path d="M2670 1910 c0 -5 7 -10 15 -10 8 0 15 5 15 10 0 6 -7 10 -15 10 -8 0
-15 -4 -15 -10z"/>
<path d="M1137 1642 c-36 -40 -48 -110 -54 -308 -7 -214 -1 -278 28 -302 20
-17 27 -38 9 -27 -5 3 -10 2 -10 -4 0 -5 6 -11 13 -14 8 -3 6 -11 -8 -27 -19
-22 -19 -23 -1 -17 10 4 25 2 32 -4 17 -14 18 -5 2 21 -11 16 -9 22 7 36 17
13 17 15 3 10 -24 -7 -23 12 2 32 31 25 40 78 47 277 7 213 0 285 -30 321 -22
26 -23 26 -40 6z m42 -63 c22 -100 8 -469 -20 -520 -15 -30 -41 -19 -52 21
-12 47 -2 444 13 495 24 80 43 81 59 4z"/>
<path d="M1140 1510 c0 -11 5 -20 10 -20 6 0 10 9 10 20 0 11 -4 20 -10 20 -5
0 -10 -9 -10 -20z"/>
<path d="M502 1423 c-12 -39 -22 -76 -22 -83 0 -12 -48 18 -92 58 -37 34 -43
24 -18 -29 29 -64 27 -69 -22 -52 -62 21 -74 11 -43 -34 14 -21 25 -41 25 -45
0 -4 -18 -20 -40 -34 -22 -15 -38 -29 -36 -31 5 -5 52 19 81 42 20 16 20 16
-3 55 -12 22 -21 40 -19 40 3 0 24 -7 47 -15 23 -8 44 -15 46 -15 10 0 2 40
-15 72 l-18 36 54 -40 c29 -23 55 -39 57 -37 2 2 10 31 19 64 l16 60 -5 -62
c-3 -35 -2 -63 2 -63 4 0 21 12 37 28 27 24 28 25 18 4 -13 -25 -9 -29 44 -35
l30 -3 -27 -14 c-43 -21 -34 -29 39 -32 l67 -3 -57 -35 c-31 -19 -57 -38 -57
-42 0 -4 21 -9 48 -10 l47 -1 -45 -4 c-75 -6 -77 -9 -35 -53 45 -46 43 -47
-24 -21 -27 11 -51 18 -53 15 -3 -2 -3 -28 0 -57 l5 -52 -36 28 c-20 15 -40
27 -46 27 -6 0 -22 -17 -36 -37 l-25 -38 0 48 c0 28 -5 47 -11 47 -6 0 -33
-18 -59 -40 -56 -47 -69 -51 -42 -12 28 41 76 132 71 136 -11 11 -139 10 -151
-2 -9 -9 -9 -12 5 -12 10 0 14 -5 11 -15 -4 -8 -1 -22 6 -30 6 -8 9 -19 5 -25
-3 -5 1 -13 9 -16 22 -8 29 -39 16 -64 -14 -25 -6 -38 13 -22 14 12 57 5 57
-8 0 -4 -7 -10 -15 -14 -8 -3 -15 -11 -15 -18 0 -7 -8 -18 -19 -25 -21 -13
-27 -93 -7 -93 6 0 4 -6 -5 -13 -9 -7 -19 -25 -23 -40 l-7 -29 58 7 c32 4 67
13 79 20 22 14 90 15 112 1 7 -4 19 -3 26 3 7 6 16 8 19 5 6 -6 54 -8 115 -5
29 1 53 48 32 61 -8 5 -17 7 -21 4 -17 -10 -19 18 -3 51 12 27 14 38 5 49 -7
8 -11 18 -10 22 4 21 -2 33 -18 36 -15 3 -13 8 12 34 17 17 41 53 55 80 14 27
31 54 39 60 12 9 2 14 -49 20 l-65 9 58 34 c32 18 56 36 53 39 -3 3 -34 8 -68
12 -59 6 -61 7 -35 18 15 6 27 16 27 21 0 10 -34 21 -68 21 l-23 0 25 37 c14
20 23 39 21 42 -3 2 -26 -14 -53 -36 l-48 -41 4 62 c6 99 -2 108 -26 29z
m-202 -303 c0 -10 5 -20 11 -22 9 -3 8 -11 -1 -28 -18 -34 -17 -34 -35 -16
-10 10 -14 24 -10 36 4 11 3 20 -2 19 -19 -3 -23 2 -13 20 12 24 50 17 50 -9z
m50 24 c0 -1 -3 -9 -6 -18 -8 -22 -24 -20 -24 2 0 10 7 19 15 19 8 0 15 -1 15
-3z m310 -3 c0 -5 -7 -12 -16 -15 -22 -9 -24 -8 -24 9 0 8 9 15 20 15 11 0 20
-4 20 -9z m60 0 c0 -6 -5 -13 -11 -16 -5 -4 -15 -18 -20 -32 -9 -25 -10 -25
-29 -8 -22 20 -26 35 -9 35 6 0 17 7 25 15 17 17 44 20 44 6z m-83 -82 c28
-10 28 -11 8 -28 -11 -9 -26 -27 -33 -39 -15 -27 -7 -48 13 -32 16 13 28 -1
19 -23 -3 -8 2 -17 12 -21 16 -6 16 -8 -1 -26 -9 -10 -18 -30 -19 -44 0 -14
-5 -26 -9 -26 -4 0 -32 18 -61 40 -29 22 -59 40 -67 40 -8 0 -20 5 -27 12 -13
13 -46 -8 -36 -24 3 -5 11 -5 19 2 10 8 15 8 20 0 4 -6 13 -9 21 -6 8 3 17 -1
20 -9 4 -8 12 -15 20 -15 8 0 14 -7 14 -16 0 -10 5 -14 15 -10 9 3 20 -2 27
-13 9 -15 20 -18 50 -13 33 4 37 2 32 -12 -7 -18 -8 -18 -77 -20 -27 -1 -51 2
-54 7 -2 4 -11 2 -20 -4 -9 -8 -17 -9 -21 -3 -4 5 -32 10 -62 11 -30 2 -56 7
-58 12 -2 5 -19 7 -38 4 -21 -3 -34 -2 -34 5 0 6 -8 12 -17 14 -15 3 -15 5 3
22 13 14 15 21 6 24 -20 6 -14 22 13 34 15 6 24 17 21 25 -3 7 2 16 10 21 18
10 7 45 -12 38 -25 -10 -15 8 20 37 19 15 37 27 39 27 2 0 2 -25 0 -55 -1 -30
1 -55 6 -55 5 0 22 20 38 45 15 25 33 45 38 45 6 0 27 -14 48 -31 31 -26 38
-28 43 -14 4 8 4 29 1 45 -8 39 17 50 70 29z m-262 -288 c0 -8 -11 -15 -25
-16 -14 -1 -41 -5 -60 -9 -23 -5 -30 -4 -21 2 7 5 11 14 7 20 -8 13 5 17 57
17 29 0 42 -5 42 -14z"/>
<path d="M2774 1185 c-3 -8 -3 -19 1 -25 4 -6 -14 -33 -39 -60 -51 -54 -56
-70 -25 -70 20 0 21 -4 16 -67 -4 -43 -3 -59 2 -43 5 14 10 41 10 60 2 48 9
56 61 70 25 6 53 13 63 16 14 5 17 -1 17 -35 0 -31 -4 -41 -21 -46 -26 -9 -34
-31 -48 -140 -25 -196 -31 -224 -58 -245 -14 -11 -29 -20 -33 -20 -3 0 2 46
12 103 11 56 20 125 21 152 2 47 1 50 -25 53 -16 2 -34 -4 -46 -16 -18 -18
-24 -42 -75 -320 l-12 -62 -95 -66 c-136 -96 -165 -124 -122 -124 16 0 64 25
159 80 26 15 -1 -16 -86 -100 -158 -156 -149 -176 22 -52 44 32 97 72 118 91
29 24 39 29 39 17 0 -19 10 -20 33 -3 11 7 22 37 28 78 11 62 14 67 54 92 52
33 53 33 47 1 -4 -24 -3 -25 15 -15 12 6 23 17 26 26 4 8 23 113 42 232 28
164 34 222 26 235 -6 10 -11 34 -11 53 0 31 5 38 31 49 l30 13 -23 15 c-13 8
-38 20 -56 28 -19 7 -31 18 -28 25 2 7 -1 18 -7 24 -16 16 -57 14 -63 -4z m51
-4 c3 -5 1 -13 -5 -16 -15 -9 -43 3 -35 15 8 13 32 13 40 1z m95 -82 c0 -5
-37 -14 -190 -46 -22 -5 -19 1 24 45 l48 50 59 -22 c32 -11 59 -24 59 -27z
m-34 -140 c8 -3 6 -33 -6 -99 -10 -52 -27 -151 -39 -220 -13 -69 -27 -129 -33
-135 -6 -7 -7 -1 -3 18 9 36 -5 35 -61 -3 l-44 -29 6 27 c5 24 58 82 75 82 8
0 34 133 50 258 8 64 16 92 25 92 8 0 11 7 8 18 -4 10 -3 13 3 6 4 -6 13 -13
19 -15z m-142 -116 c-8 -41 -59 -352 -70 -433 -8 -52 -25 -81 -34 -57 -4 12
-34 -6 -125 -74 -66 -50 -128 -95 -138 -100 -9 -5 37 43 103 108 l120 118 20
135 c18 113 48 258 65 308 2 6 18 12 34 12 22 0 28 -4 25 -17z m-176 -426
c-43 -32 -194 -111 -180 -94 8 9 49 38 91 66 42 27 84 57 92 67 13 16 14 16
18 -2 2 -11 -6 -26 -21 -37z"/>
<path d="M2800 1095 c0 -8 4 -15 9 -15 5 0 11 7 15 15 3 9 0 15 -9 15 -8 0
-15 -7 -15 -15z"/>
<path d="M470 1180 c0 -5 5 -10 10 -10 6 0 10 5 10 10 0 6 -4 10 -10 10 -5 0
-10 -4 -10 -10z"/>
<path d="M460 1150 c0 -5 6 -10 14 -10 8 0 18 5 21 10 3 6 -3 10 -14 10 -12 0
-21 -4 -21 -10z"/>
<path d="M1845 1074 c-38 -7 -81 -22 -95 -32 -22 -16 -29 -17 -55 -6 -16 7
-52 13 -80 14 -59 0 -106 -25 -136 -72 -19 -30 -20 -43 -14 -145 5 -90 3 -118
-9 -142 -27 -52 -101 -96 -89 -53 2 10 -5 29 -16 43 -16 19 -23 22 -38 13 -10
-6 -19 -23 -21 -37 -3 -21 3 -30 22 -39 32 -14 32 -21 4 -41 -13 -8 -19 -19
-15 -23 5 -5 21 6 36 24 15 17 34 32 42 32 32 0 77 39 93 82 14 36 16 59 9
123 -15 139 7 190 91 213 30 9 121 0 133 -12 3 -2 -2 -15 -11 -28 -25 -38 -36
-107 -26 -162 6 -28 31 -92 56 -142 45 -88 46 -92 34 -130 -7 -21 -21 -55 -31
-75 -18 -36 -18 -37 1 -54 10 -9 20 -27 22 -39 2 -11 8 -19 13 -16 6 3 9 8 7
13 -1 4 2 7 7 7 13 0 21 42 10 56 -6 7 -4 15 6 24 8 7 29 37 46 67 28 49 31
60 24 101 -4 26 -8 58 -9 72 -1 14 -5 31 -10 38 -13 21 -4 22 46 6 42 -14 47
-20 59 -61 11 -40 10 -50 -8 -93 -15 -34 -17 -52 -10 -59 6 -6 8 -14 4 -18
-17 -16 -31 20 -29 75 2 43 -3 65 -18 91 -12 18 -23 31 -26 28 -3 -3 1 -16 9
-29 19 -30 29 -88 18 -102 -6 -7 -3 -25 7 -48 14 -31 22 -38 45 -38 27 0 27 1
14 26 -12 24 -12 32 6 74 19 45 19 51 5 94 -15 46 -15 46 8 46 18 0 24 -6 24
-22 0 -11 17 -37 38 -57 20 -20 42 -45 49 -56 11 -19 12 -19 12 -1 1 11 -19
39 -44 63 -25 23 -45 48 -45 55 0 7 11 31 25 53 25 40 31 65 18 65 -5 0 -15
-18 -24 -39 -14 -31 -22 -39 -50 -43 -19 -3 -56 2 -84 12 -41 14 -51 21 -53
43 -2 15 -8 27 -13 27 -12 0 -12 1 11 -130 l21 -113 -46 -68 c-25 -38 -45 -80
-45 -94 0 -30 -11 -32 -27 -6 -10 17 -7 31 18 89 l31 70 -46 93 c-77 157 -82
242 -19 317 23 27 43 36 113 53 75 19 93 20 162 10 43 -6 100 -20 128 -32 l49
-21 -21 -28 c-27 -36 -19 -68 29 -121 36 -40 36 -40 17 -59 -10 -11 -36 -26
-57 -35 l-39 -16 7 23 c6 20 1 17 -31 -14 l-37 -36 42 -51 c39 -46 41 -52 27
-67 -15 -15 -22 -44 -10 -44 9 0 36 30 27 30 -4 0 -1 4 6 9 12 8 7 21 -27 70
-23 33 -39 62 -35 64 5 3 21 7 38 8 26 4 30 0 35 -25 6 -36 55 -66 104 -64 30
1 34 4 26 19 -6 9 -25 23 -44 29 -44 14 -52 54 -18 87 19 20 26 21 49 10 24
-11 28 -8 65 33 47 53 78 110 78 143 0 13 -12 34 -26 48 l-25 24 -50 -27 c-27
-14 -52 -22 -55 -17 -3 5 -16 9 -28 9 -13 0 -43 11 -67 24 -84 47 -205 62
-314 40z m533 -66 c16 -16 15 -63 -2 -96 -8 -15 -32 -44 -54 -65 -40 -39 -40
-39 -71 -23 -37 20 -91 90 -91 119 0 46 62 75 90 42 10 -12 17 -11 48 10 42
27 63 30 80 13z m-196 -275 c2 -20 13 -33 38 -45 19 -10 27 -18 18 -18 -25 0
-68 22 -68 34 0 6 -3 21 -6 34 -4 12 -2 22 4 22 6 0 12 -12 14 -27z m-836 -78
c8 -30 3 -38 -19 -29 -18 6 -30 32 -21 45 11 18 34 9 40 -16z"/>
<path d="M2257 888 c-9 -6 -9 -8 1 -8 6 0 12 -7 12 -15 0 -23 14 -18 26 9 10
22 9 24 -8 23 -10 -1 -24 -5 -31 -9z"/>
<path d="M195 430 c-4 -6 1 -23 11 -38 10 -15 19 -30 19 -34 0 -4 6 -13 13
-20 6 -6 12 -16 12 -22 0 -5 17 -26 39 -47 21 -21 35 -39 31 -41 -21 -8 -114
-133 -115 -155 -1 -40 23 -39 68 5 23 22 56 47 74 56 17 8 40 26 50 39 18 24
22 24 153 21 129 -3 174 -5 445 -20 138 -7 229 6 248 37 11 18 28 19 384 19
205 0 373 3 373 8 0 4 -24 8 -53 10 -28 1 -115 7 -192 12 -77 5 -219 12 -315
16 -171 6 -176 7 -203 33 l-28 26 -177 -1 c-172 0 -236 -6 -489 -41 l-122 -17
-22 28 c-12 15 -45 38 -74 51 -29 12 -55 28 -59 33 -14 23 -65 52 -71 42z
m105 -97 c0 -9 7 -11 23 -8 22 6 42 -7 70 -47 11 -16 21 -16 132 -3 94 11 121
12 127 2 6 -9 10 -9 17 2 13 20 264 43 418 39 135 -4 160 -14 157 -65 -1 -23
-5 -28 -25 -25 -18 1 -21 0 -9 -7 31 -21 -9 -26 -197 -25 -156 1 -197 4 -205
15 -6 10 -11 10 -14 3 -4 -8 -59 -10 -198 -6 -187 5 -194 4 -205 -15 -6 -12
-30 -32 -53 -46 -24 -14 -51 -34 -62 -46 -10 -11 -23 -18 -27 -15 -5 3 -9 -2
-9 -10 0 -9 -4 -16 -8 -16 -5 0 -8 8 -7 18 1 18 21 46 68 95 15 16 27 32 27
37 0 5 9 12 20 15 27 9 25 22 -5 29 -14 4 -25 11 -25 17 0 6 4 8 9 4 5 -3 13
0 17 6 5 8 0 10 -17 6 -19 -5 -29 0 -47 27 -12 18 -22 36 -22 41 0 5 -10 20
-22 34 -19 20 -14 18 25 -9 26 -18 47 -39 47 -47z m978 -74 c-2 -6 -8 -10 -13
-10 -5 0 -11 4 -13 10 -2 6 4 11 13 11 9 0 15 -5 13 -11z m40 -1 c-6 -18 -28
-21 -28 -4 0 9 7 16 16 16 9 0 14 -5 12 -12z m32 -4 c0 -8 -4 -12 -10 -9 -5 3
-10 10 -10 16 0 5 5 9 10 9 6 0 10 -7 10 -16z m61 6 c5 0 9 -4 9 -9 0 -8 -29
-8 -58 -2 -2 1 0 6 3 12 4 6 14 8 22 5 8 -3 19 -6 24 -6z m64 -10 c-3 -5 -12
-10 -20 -10 -8 0 -17 5 -20 10 -4 6 5 10 20 10 15 0 24 -4 20 -10z m55 0 c0
-5 -9 -10 -20 -10 -11 0 -20 5 -20 10 0 6 9 10 20 10 11 0 20 -4 20 -10z m90
0 c0 -5 -16 -10 -35 -10 -19 0 -35 5 -35 10 0 6 16 10 35 10 19 0 35 -4 35
-10z m73 -7 c-13 -2 -33 -2 -45 0 -13 2 -3 4 22 4 25 0 35 -2 23 -4z"/>
<path d="M910 280 c0 -5 7 -10 15 -10 8 0 15 5 15 10 0 6 -7 10 -15 10 -8 0
-15 -4 -15 -10z"/>
<path d="M500 240 c0 -5 5 -10 10 -10 6 0 10 5 10 10 0 6 -4 10 -10 10 -5 0
-10 -4 -10 -10z"/>
<path d="M350 190 c0 -5 5 -10 10 -10 6 0 10 5 10 10 0 6 -4 10 -10 10 -5 0
-10 -4 -10 -10z"/>
<path d="M280 140 c0 -5 5 -10 10 -10 6 0 10 5 10 10 0 6 -4 10 -10 10 -5 0
-10 -4 -10 -10z"/>
</g>
</svg>
