<?xml version="1.0" standalone="no"?>
<!DOCTYPE svg PUBLIC "-//W3C//DTD SVG 20010904//EN"
 "http://www.w3.org/TR/2001/REC-SVG-20010904/DTD/svg10.dtd">
<svg version="1.0" xmlns="http://www.w3.org/2000/svg"
 width="205.000000pt" height="296.000000pt" viewBox="0 0 205.000000 296.000000"
 preserveAspectRatio="xMidYMid meet">
<metadata>
Created by potrace 1.10, written by Peter Selinger 2001-2011
</metadata>
<g transform="translate(0.000000,296.000000) scale(0.100000,-0.100000)"
fill="#000000" stroke="none">
<path d="M562 2908 c41 -105 47 -115 81 -135 32 -20 36 -20 52 -4 10 9 15 11
12 5 -10 -18 14 -31 55 -31 25 -1 36 3 31 10 -4 6 0 8 9 4 33 -12 26 8 -17 54
-25 27 -45 55 -45 64 0 21 4 19 38 -15 47 -47 68 -37 37 18 -8 15 -19 39 -25
55 -5 15 -13 27 -18 27 -5 0 1 -21 14 -47 32 -65 30 -70 -12 -33 -26 22 -39
28 -44 20 -13 -21 2 -52 44 -93 35 -34 38 -39 16 -32 -32 10 -90 53 -90 67 0
6 -3 9 -6 6 -11 -12 15 -44 50 -63 42 -23 48 -40 9 -23 -51 22 -73 40 -79 64
-3 13 -10 24 -15 24 -14 0 -11 -9 11 -40 17 -24 18 -29 5 -34 -8 -3 -14 -2
-13 2 3 12 -25 62 -34 62 -10 0 -3 -16 20 -42 9 -11 11 -18 4 -18 -19 0 -58
63 -76 123 -9 31 -21 57 -26 57 -4 0 1 -24 12 -52z"/>
<path d="M1450 2947 c-8 -7 -23 -29 -33 -50 -16 -35 -16 -40 -1 -62 12 -19 14
-29 5 -38 -8 -10 -7 -19 4 -33 8 -10 15 -14 15 -7 0 6 -5 15 -10 18 -12 7 -4
25 11 25 25 0 20 -33 -11 -65 l-32 -33 40 -44 c37 -40 39 -45 25 -63 -14 -20
-14 -20 -28 -1 -11 15 -12 23 -3 33 6 7 8 16 5 19 -3 3 -11 -4 -17 -16 -9 -18
-8 -25 5 -40 16 -18 16 -21 -4 -46 l-22 -27 26 -27 c22 -23 23 -27 10 -41 -16
-16 -11 -49 7 -49 5 0 -3 -15 -17 -34 -25 -33 -26 -36 -10 -60 12 -19 14 -29
6 -44 -8 -16 -7 -25 8 -43 19 -23 19 -24 -1 -52 l-20 -28 26 -28 26 -27 -22
-22 c-20 -20 -21 -22 -5 -40 21 -23 22 -46 2 -62 -14 -12 -13 -16 6 -36 22
-23 22 -24 4 -44 -18 -20 -18 -21 2 -43 29 -32 34 -43 27 -61 -5 -13 -9 -14
-20 -5 -11 9 -12 15 -3 26 7 7 9 16 6 19 -3 3 -11 -4 -17 -17 -11 -19 -10 -24
5 -35 16 -12 16 -15 1 -45 -15 -29 -14 -33 3 -58 13 -18 17 -32 11 -41 -5 -8
-6 -18 -4 -22 3 -4 1 -8 -5 -8 -16 0 -71 -89 -71 -114 0 -13 7 -29 15 -36 8
-7 15 -18 15 -26 0 -7 9 -15 19 -19 25 -8 36 -57 20 -86 -11 -22 -12 -22 -25
-4 -12 16 -12 22 2 43 9 13 14 26 11 28 -2 3 -12 -7 -21 -21 -15 -23 -16 -29
-3 -48 13 -19 12 -26 -1 -54 -14 -30 -14 -34 1 -51 21 -23 21 -36 3 -65 -13
-19 -13 -26 -1 -47 12 -23 11 -28 -12 -58 l-25 -34 27 -28 c26 -27 26 -29 11
-59 -15 -29 -15 -33 4 -71 11 -22 24 -40 29 -40 5 0 15 25 21 56 10 48 10 58
-5 74 -15 17 -15 20 0 50 16 31 16 34 -4 60 l-20 28 25 33 c24 33 24 33 4 54
-17 18 -18 25 -8 52 10 25 9 35 -4 55 -14 22 -14 26 3 46 10 13 16 29 13 36
-3 8 4 15 20 18 24 5 25 3 28 -51 l3 -56 50 -27 c42 -23 51 -32 55 -61 l5 -35
32 42 c50 65 49 68 -7 101 -58 34 -66 65 -26 108 l23 25 31 -30 30 -31 51 43
c28 24 49 46 46 48 -3 3 -18 -6 -33 -20 -20 -20 -34 -25 -54 -21 -18 3 -28 1
-28 -7 0 -7 -9 -2 -19 11 l-19 24 32 14 c43 19 58 21 73 10 8 -7 18 -7 32 1
20 10 26 4 22 -22 0 -4 8 -12 19 -18 11 -6 20 -8 20 -4 0 7 -62 94 -67 94 -2
0 -17 -7 -32 -15 -37 -19 -45 -9 -20 25 l21 27 -21 45 c-11 25 -26 49 -33 55
-17 13 -145 15 -153 2 -4 -5 -11 -6 -17 -3 -5 4 -23 -3 -39 -15 -15 -11 -31
-21 -34 -21 -2 0 9 26 25 58 l30 57 -25 20 c-18 15 -22 24 -14 37 6 12 6 24 0
36 -7 14 -6 25 5 41 15 20 14 24 0 40 -14 15 -14 20 -2 36 12 16 12 22 -1 42
-14 20 -13 26 6 56 l21 35 -22 14 c-22 15 -22 16 -4 42 17 27 17 28 -5 52 -20
22 -21 25 -6 47 14 21 13 25 -3 47 -17 23 -17 26 -2 52 13 23 14 32 4 48 -12
20 -7 50 9 50 14 0 11 20 -6 36 -13 14 -13 19 1 46 14 27 14 31 -2 49 -17 19
-17 22 -2 46 14 24 15 29 1 50 -13 19 -14 29 -4 50 9 19 9 29 0 39 -9 11 -8
18 1 29 10 13 10 19 -5 35 -16 18 -16 20 5 50 l22 31 -23 25 c-20 21 -21 28
-11 44 14 23 13 24 -8 7z m10 -52 c18 -22 -6 -81 -26 -64 -15 12 -18 37 -8 63
8 20 18 20 34 1z m5 -175 c3 -5 1 -19 -6 -31 -10 -19 -12 -20 -27 -6 -13 13
-13 19 -2 31 14 18 26 20 35 6z m1 -188 c9 -14 9 -24 0 -40 -12 -23 -12 -23
-30 -3 -11 13 -15 27 -11 40 8 26 26 27 41 3z m3 -119 c-15 -18 -34 -1 -25 22
5 14 9 15 21 5 12 -10 13 -16 4 -27z m-5 -59 c8 -20 -12 -56 -27 -51 -17 5
-21 35 -7 52 16 19 26 19 34 -1z m-1 -136 l-10 -23 -12 23 c-7 13 -10 31 -6
40 5 14 7 14 22 -1 13 -12 14 -21 6 -39z m11 -91 c-7 -32 -15 -34 -32 -7 -9
16 -10 26 -1 41 10 19 13 20 26 7 9 -10 12 -24 7 -41z m4 -102 c-13 -24 -16
-25 -28 -10 -11 13 -11 20 0 41 12 21 16 23 28 10 12 -12 12 -17 0 -41z m-3
-96 c-6 -19 -9 -20 -22 -6 -12 12 -13 18 -2 35 11 18 15 19 22 7 4 -9 5 -25 2
-36z m-3 -74 c-11 -21 -25 -4 -16 20 4 10 10 13 16 7 7 -7 7 -16 0 -27z m14
-176 l-14 -34 -12 26 c-9 21 -9 32 0 49 10 19 14 20 26 8 13 -12 13 -19 0 -49z
m137 -51 c-2 -5 -3 -19 -3 -33 0 -20 -5 -25 -25 -25 -13 0 -36 -5 -50 -12 -21
-10 -29 -9 -43 5 -13 13 -14 21 -6 35 16 25 44 28 44 3 0 -11 5 -23 10 -26 7
-4 9 2 5 18 -5 18 -2 28 12 36 20 12 60 11 56 -1z m82 -8 c18 -20 18 -21 -3
-27 -12 -3 -22 -10 -22 -15 0 -5 -10 -8 -22 -6 -26 3 -35 32 -18 53 17 21 44
19 65 -5z m-221 -55 c15 -23 15 -26 -4 -45 -38 -38 -71 11 -33 52 20 22 18 23
37 -7z m252 0 c9 -22 -5 -67 -19 -62 -16 5 -40 55 -32 67 9 15 45 12 51 -5z
m-72 -11 c27 -10 18 -50 -18 -82 -41 -35 -138 -62 -165 -45 -26 16 -25 56 3
82 42 39 135 62 180 45z m-216 -84 c-4 -31 -33 -38 -48 -11 -8 15 -8 27 0 41
9 17 14 18 31 7 13 -8 19 -21 17 -37z m262 11 c0 -22 -19 -41 -42 -41 -24 0
-23 19 3 47 24 24 39 22 39 -6z m88 -12 c-2 -6 -8 -10 -13 -10 -5 0 -11 4 -13
10 -2 6 4 11 13 11 9 0 15 -5 13 -11z m-155 -59 c-5 -18 -37 -33 -47 -22 -14
13 -4 40 17 49 25 12 37 1 30 -27z m-183 16 c0 -20 -13 -27 -30 -15 -13 8 -13
10 0 19 21 14 30 12 30 -4z m118 -28 c-4 -31 -48 -39 -48 -10 0 20 12 30 38
31 8 1 12 -8 10 -21z m-60 -5 c-2 -9 -15 -20 -29 -24 -23 -6 -26 -4 -24 15 3
28 1 26 31 26 18 0 25 -5 22 -17z m222 -12 c0 -14 -18 -23 -30 -16 -6 4 -8 11
-5 16 8 12 35 12 35 0z m-135 -10 c7 -12 -12 -24 -25 -16 -11 7 -4 25 10 25 5
0 11 -4 15 -9z m-32 -23 c15 -7 25 -18 22 -25 -2 -7 6 -20 18 -30 13 -10 21
-26 19 -37 -6 -30 15 -42 38 -21 30 27 27 -2 -5 -45 -24 -33 -25 -33 -25 -9 0
19 -9 29 -35 42 -22 10 -35 24 -35 36 0 21 -23 45 -33 34 -4 -3 -7 10 -7 30 0
41 4 43 43 25z m-13 -83 c0 -9 -6 -12 -15 -9 -8 4 -15 10 -15 15 0 5 7 9 15 9
8 0 15 -7 15 -15z m-100 -34 c0 -9 -5 -23 -10 -31 -8 -13 -11 -13 -26 2 -15
15 -16 21 -6 44 10 21 15 24 27 14 8 -7 15 -20 15 -29z m208 17 c-6 -18 -28
-21 -28 -4 0 9 7 16 16 16 9 0 14 -5 12 -12z m-200 -110 c2 -8 -6 -25 -16 -38
-19 -24 -19 -24 -30 -3 -9 15 -7 25 4 42 17 24 37 23 42 -1z m-8 -107 c7 -14
7 -27 -2 -45 -14 -31 -19 -32 -43 -6 -17 18 -17 21 -1 45 20 30 32 32 46 6z
m-1 -115 c9 -11 9 -25 1 -55 -6 -23 -13 -41 -15 -41 -3 0 -11 13 -20 30 -12
23 -13 34 -3 55 13 29 21 31 37 11z"/>
<path d="M1574 1536 c-4 -10 -2 -22 4 -28 8 -8 13 -7 18 6 4 10 2 22 -4 28 -8
8 -13 7 -18 -6z"/>
<path d="M1603 1501 c-6 -10 -32 -24 -57 -32 -24 -7 -43 -16 -40 -20 5 -9 58
8 96 31 16 9 24 21 19 28 -4 8 -10 6 -18 -7z"/>
<path d="M1505 1500 c-7 -12 2 -30 16 -30 5 0 9 9 9 20 0 21 -15 27 -25 10z"/>
<path d="M2042 2930 c0 -19 2 -27 5 -17 2 9 2 25 0 35 -3 9 -5 1 -5 -18z"/>
<path d="M70 2920 l-25 -6 -3 -142 -3 -141 27 -7 c37 -10 347 5 358 16 13 13
10 228 -3 263 l-11 28 -157 -2 c-87 -1 -169 -5 -183 -9z m337 -12 c4 -7 9 -68
11 -135 l4 -123 -23 -1 c-13 0 -33 -2 -44 -5 -11 -2 -81 -7 -157 -10 l-136 -7
-6 54 c-3 30 -4 92 -3 139 l2 85 90 6 c176 11 253 10 262 -3z"/>
<path d="M170 2868 c0 -10 -7 -18 -15 -18 -8 0 -15 -4 -15 -10 0 -5 4 -10 9
-10 6 0 13 5 16 10 3 6 12 10 18 10 7 -1 1 -10 -12 -21 -18 -14 -26 -17 -32
-8 -5 8 -13 6 -30 -10 -12 -11 -18 -21 -11 -21 6 0 14 5 17 10 3 6 12 10 18
10 7 0 1 -11 -13 -23 -22 -19 -25 -29 -22 -65 2 -23 9 -42 14 -42 7 0 9 18 6
45 -5 44 -5 45 50 90 61 50 64 51 129 2 39 -30 42 -36 43 -79 0 -26 4 -50 10
-53 6 -4 7 11 3 40 -5 41 -4 45 13 39 11 -4 4 7 -16 23 -29 26 -33 33 -22 46
12 14 11 16 -6 14 -13 -1 -18 -6 -14 -16 3 -9 -13 -1 -37 18 -39 31 -44 32
-58 18 -15 -15 -18 -15 -29 1 -13 16 -13 16 -14 0z"/>
<path d="M203 2692 c-13 -2 -23 -7 -23 -11 0 -11 39 -11 46 0 8 13 4 16 -23
11z"/>
<path d="M300 2686 c0 -9 5 -16 10 -16 6 0 10 4 10 9 0 6 -4 13 -10 16 -5 3
-10 -1 -10 -9z"/>
<path d="M140 2680 c0 -5 7 -10 15 -10 8 0 15 5 15 10 0 6 -7 10 -15 10 -8 0
-15 -4 -15 -10z"/>
<path d="M240 2678 c0 -4 11 -7 25 -6 14 1 25 6 25 10 0 4 -11 7 -25 6 -14 -1
-25 -6 -25 -10z"/>
<path d="M900 2920 c0 -5 7 -10 16 -10 8 0 12 5 9 10 -3 6 -10 10 -16 10 -5 0
-9 -4 -9 -10z"/>
<path d="M940 2916 c0 -9 5 -16 10 -16 6 0 10 4 10 9 0 6 -4 13 -10 16 -5 3
-10 -1 -10 -9z"/>
<path d="M970 2915 c0 -8 2 -15 4 -15 2 0 6 7 10 15 3 8 1 15 -4 15 -6 0 -10
-7 -10 -15z"/>
<path d="M996 2921 c-4 -7 -5 -15 -2 -18 9 -9 19 4 14 18 -4 11 -6 11 -12 0z"/>
<path d="M1020 2899 c0 -5 5 -7 10 -4 6 3 10 8 10 11 0 2 -4 4 -10 4 -5 0 -10
-5 -10 -11z"/>
<path d="M1855 2883 c-22 -1 -80 -8 -128 -15 l-88 -12 2 -182 c0 -100 5 -187
9 -194 8 -13 81 -10 210 10 36 5 69 10 73 10 8 0 1 265 -9 348 -3 24 -10 41
-17 40 -7 -1 -30 -3 -52 -5z m64 -195 l1 -116 -27 -6 c-16 -3 -75 -8 -133 -12
l-105 -6 -3 149 -4 150 129 14 128 14 7 -35 c4 -19 7 -88 7 -152z m9 -151 c5
-26 -34 -36 -165 -44 l-115 -6 4 24 c3 23 8 24 123 35 145 14 149 13 153 -9z"/>
<path d="M1805 2830 c-3 -5 -21 -10 -39 -10 -34 0 -76 -23 -64 -36 4 -4 0 -12
-9 -19 -11 -8 -14 -18 -8 -31 4 -10 7 -27 6 -36 -2 -20 31 -32 62 -21 19 6 17
8 -18 13 l-40 6 38 17 c48 22 47 30 -3 25 -43 -4 -52 5 -20 22 11 6 17 16 14
25 -5 12 3 15 32 16 22 1 42 1 47 0 4 0 7 6 7 14 0 17 16 20 25 5 3 -5 15 -10
26 -10 28 0 19 -24 -10 -28 -15 -2 -21 -9 -19 -20 2 -10 11 -16 22 -14 10 2
25 1 33 -2 21 -8 -2 -36 -28 -36 -11 0 -19 -5 -19 -10 0 -6 10 -8 24 -4 37 9
43 -15 7 -29 -32 -12 -44 -32 -13 -23 9 3 24 1 32 -4 13 -9 13 -11 0 -20 -8
-5 -22 -10 -31 -10 -9 0 -19 -7 -23 -15 -6 -16 -56 -21 -56 -6 0 6 -17 11 -37
14 l-38 3 33 14 c34 15 45 36 13 25 -22 -7 -53 4 -45 16 3 5 0 9 -5 9 -18 0
-12 -27 7 -35 16 -6 16 -7 0 -16 -28 -15 -10 -42 24 -37 16 3 31 1 34 -4 9
-14 84 -9 84 6 0 7 14 16 30 20 21 4 30 11 30 26 0 11 -5 20 -10 20 -6 0 -5 9
2 21 11 18 11 23 0 26 -10 4 -10 8 -1 19 17 21 3 44 -28 44 l-28 1 28 15 c31
17 35 32 10 40 -10 3 -26 10 -35 15 -23 12 -35 11 -43 -1z m-78 -106 c-3 -3
-12 -4 -19 -1 -8 3 -5 6 6 6 11 1 17 -2 13 -5z"/>
<path d="M1843 2532 c-18 -2 -33 -8 -33 -13 0 -11 69 -9 76 2 7 11 -8 15 -43
11z"/>
<path d="M1775 2520 c-3 -5 -1 -10 4 -10 6 0 11 5 11 10 0 6 -2 10 -4 10 -3 0
-8 -4 -11 -10z"/>
<path d="M1710 2510 c0 -5 5 -10 10 -10 6 0 10 5 10 10 0 6 -4 10 -10 10 -5 0
-10 -4 -10 -10z"/>
<path d="M955 2859 c-10 -15 3 -25 16 -12 7 7 7 13 1 17 -6 3 -14 1 -17 -5z"/>
<path d="M1170 2855 c0 -8 7 -15 15 -15 8 0 15 4 15 9 0 5 -7 11 -15 15 -9 3
-15 0 -15 -9z"/>
<path d="M1275 2859 c-4 -6 -13 -8 -21 -5 -8 3 -14 1 -14 -4 0 -5 11 -9 25 -8
14 1 25 8 25 15 0 16 -7 17 -15 2z"/>
<path d="M990 2845 c0 -8 5 -15 10 -15 6 0 10 7 10 15 0 8 -4 15 -10 15 -5 0
-10 -7 -10 -15z"/>
<path d="M1020 2850 c0 -5 5 -10 10 -10 6 0 10 5 10 10 0 6 -4 10 -10 10 -5 0
-10 -4 -10 -10z"/>
<path d="M1050 2845 c0 -8 5 -15 10 -15 6 0 10 7 10 15 0 8 -4 15 -10 15 -5 0
-10 -7 -10 -15z"/>
<path d="M1210 2850 c0 -5 5 -10 10 -10 6 0 10 5 10 10 0 6 -4 10 -10 10 -5 0
-10 -4 -10 -10z"/>
<path d="M1187 2783 c-4 -3 -7 -11 -7 -17 0 -6 5 -5 12 2 6 6 9 14 7 17 -3 3
-9 2 -12 -2z"/>
<path d="M1140 2770 c0 -5 5 -10 10 -10 6 0 10 5 10 10 0 6 -4 10 -10 10 -5 0
-10 -4 -10 -10z"/>
<path d="M1180 2701 c0 -6 5 -13 10 -16 6 -3 10 1 10 9 0 9 -4 16 -10 16 -5 0
-10 -4 -10 -9z"/>
<path d="M1216 2701 c-4 -7 -5 -15 -2 -18 9 -9 19 4 14 18 -4 11 -6 11 -12 0z"/>
<path d="M1246 2695 c-3 -8 -1 -15 4 -15 6 0 10 7 10 15 0 8 -2 15 -4 15 -2 0
-6 -7 -10 -15z"/>
<path d="M1287 2703 c-10 -9 -9 -33 1 -33 4 0 8 9 9 20 2 21 0 24 -10 13z"/>
<path d="M1340 2696 c0 -9 5 -16 10 -16 6 0 10 4 10 9 0 6 -4 13 -10 16 -5 3
-10 -1 -10 -9z"/>
<path d="M230 2536 c-10 -13 -10 -22 0 -47 12 -28 11 -33 -7 -48 -27 -21 -44
-56 -38 -73 4 -9 -4 -19 -20 -26 -27 -12 -33 -28 -12 -35 8 -3 3 -11 -13 -25
-22 -18 -23 -21 -8 -27 16 -6 16 -8 -3 -24 -39 -31 -6 -61 69 -61 32 0 44 -14
20 -23 -7 -2 -10 -7 -7 -11 4 -4 14 0 22 9 20 20 37 19 53 -2 7 -10 16 -14 20
-10 5 4 2 12 -6 17 -11 7 -5 10 22 10 79 0 115 40 67 74 l-21 14 21 11 c25 14
27 36 5 49 -15 8 -15 10 1 16 14 5 15 9 5 21 -7 8 -21 15 -31 15 -14 0 -19 7
-19 26 0 16 -11 37 -29 53 -26 24 -28 30 -16 42 12 11 12 19 2 39 -15 30 -58
38 -77 16z m54 -2 c19 -7 21 -45 5 -61 -9 -9 -4 -18 20 -38 22 -19 31 -36 31
-56 0 -21 5 -29 18 -29 9 0 24 -5 32 -10 12 -7 8 -11 -17 -16 -41 -8 -43 -24
-3 -24 62 0 27 -18 -48 -24 -124 -11 -137 -33 -21 -37 74 -2 99 -12 99 -40 0
-16 -5 -18 -25 -13 -17 4 -25 2 -25 -6 0 -10 -21 -11 -90 -6 -92 7 -140 19
-140 35 0 5 19 17 43 27 l42 18 -32 4 c-43 4 -42 18 2 33 42 16 45 26 8 32
l-28 3 32 13 c30 12 31 14 16 29 -16 16 -15 17 6 20 12 2 29 -2 38 -10 12 -9
15 -10 9 0 -4 6 -2 12 3 12 6 0 11 -4 11 -10 0 -5 7 -7 16 -3 25 9 -4 23 -51
23 l-40 1 28 24 c29 25 35 53 15 73 -8 8 -8 15 2 27 14 17 21 18 44 9z m91
-274 c-3 -5 -32 -9 -63 -9 -51 1 -53 2 -22 9 54 11 92 11 85 0z"/>
<path d="M255 2500 c3 -5 12 -7 20 -3 21 7 19 13 -6 13 -11 0 -18 -4 -14 -10z"/>
<path d="M244 2329 c-11 -18 11 -32 25 -16 9 12 8 16 -3 20 -9 4 -18 1 -22 -4z"/>
<path d="M696 2465 c-54 -42 -79 -84 -70 -120 10 -41 39 -50 85 -26 39 21 39
21 59 1 24 -24 29 -24 57 -5 18 13 22 13 33 0 18 -21 53 -19 84 6 20 16 30 19
39 10 13 -13 66 -14 86 -2 9 6 22 4 35 -4 30 -19 73 -8 111 30 42 43 52 82 28
106 -16 16 -23 17 -55 7 -31 -9 -39 -8 -53 6 -19 18 -66 21 -82 5 -9 -9 -16
-8 -28 5 -19 19 -35 20 -69 5 -19 -9 -29 -9 -39 -1 -15 12 -68 2 -92 -18 -9
-8 -14 -5 -18 10 -8 32 -57 26 -111 -15z m106 7 c3 -11 -7 -35 -23 -57 -16
-21 -29 -44 -29 -50 0 -14 -53 -45 -79 -45 -27 0 -44 32 -32 62 9 24 48 63 91
91 33 22 66 22 72 -1z m217 5 c13 -16 5 -27 -19 -27 -12 0 -20 -11 -24 -31 -4
-19 -13 -33 -26 -36 -11 -3 -20 -12 -20 -20 0 -13 3 -13 15 -3 12 10 15 9 15
-4 0 -10 -14 -23 -32 -30 -70 -30 -99 22 -46 81 12 13 17 27 12 35 -4 7 -4 10
0 6 4 -3 26 5 49 18 48 27 60 29 76 11z m-99 -7 c0 -5 -6 -10 -14 -10 -8 0
-23 -17 -34 -37 -16 -33 -23 -38 -51 -36 -25 1 -31 -2 -31 -18 0 -23 16 -25
28 -2 8 14 11 13 17 -7 5 -15 2 -25 -6 -31 -38 -24 -79 6 -62 44 16 34 64 88
87 97 29 12 66 12 66 0z m218 -16 c7 -13 13 -14 30 -5 28 15 69 14 75 -2 8
-21 -18 -72 -48 -95 -16 -13 -42 -22 -61 -22 -46 0 -54 30 -20 74 22 29 23 36
11 46 -12 10 -16 9 -20 -2 -3 -8 -5 -21 -3 -29 2 -8 -4 -13 -13 -11 -9 1 -19
-4 -22 -13 -4 -8 -13 -12 -22 -9 -11 5 -14 2 -9 -11 5 -11 10 -13 17 -6 15 15
27 14 27 -4 0 -18 -31 -35 -64 -35 -35 0 -51 32 -34 67 28 59 134 97 156 57z"/>
<path d="M746 2461 c-7 -11 3 -41 14 -41 11 0 21 30 14 41 -3 5 -9 9 -14 9 -5
0 -11 -4 -14 -9z"/>
<path d="M730 2411 c0 -18 -4 -22 -19 -18 -14 3 -17 0 -14 -14 4 -15 7 -16 19
-5 7 8 19 16 25 18 9 3 9 9 1 24 -11 18 -11 18 -12 -5z"/>
<path d="M657 2383 c-13 -12 -7 -43 8 -43 8 0 15 5 15 10 0 6 -4 10 -10 10 -5
0 -10 5 -10 11 0 5 5 7 10 4 6 -3 10 -1 10 4 0 12 -13 14 -23 4z"/>
<path d="M886 2383 c-12 -12 -6 -43 9 -43 8 0 15 9 15 19 0 21 -13 34 -24 24z"/>
<path d="M1190 2434 c0 -17 22 -14 28 4 2 7 -3 12 -12 12 -9 0 -16 -7 -16 -16z"/>
<path d="M1176 2398 c5 -8 2 -9 -9 -5 -11 4 -17 1 -17 -8 0 -8 3 -15 8 -15 14
1 42 27 35 33 -11 12 -25 8 -17 -5z"/>
<path d="M995 2370 c3 -5 10 -10 16 -10 5 0 9 5 9 10 0 6 -7 10 -16 10 -8 0
-12 -4 -9 -10z"/>
<path d="M1112 2364 c4 -21 22 -23 26 -1 2 10 -3 17 -13 17 -10 0 -15 -6 -13
-16z"/>
<path d="M1727 2349 c-13 -8 -17 -18 -13 -33 4 -18 0 -26 -19 -34 -47 -22 -88
-122 -50 -122 8 0 15 -5 15 -11 0 -5 -4 -7 -10 -4 -5 3 -10 1 -10 -5 0 -18 25
-6 28 13 2 11 -3 17 -13 17 -14 0 -16 6 -10 27 8 34 23 53 40 53 17 0 45 44
45 69 0 26 15 35 37 22 16 -10 17 -10 1 -11 -9 0 -20 -5 -24 -12 -5 -8 -2 -9
10 -5 14 6 17 3 12 -10 -4 -10 3 -27 21 -46 l28 -29 -34 7 c-23 5 -31 4 -27
-4 4 -6 20 -11 35 -11 24 0 29 -5 33 -30 4 -24 1 -30 -14 -30 -11 0 -27 4 -37
10 -13 6 -24 4 -40 -6 -32 -23 -10 -44 44 -44 l42 0 17 -58 c23 -73 19 -117
-10 -117 -11 0 -27 -4 -35 -10 -13 -10 -48 -11 -114 -6 -27 2 -26 3 20 19 45
15 50 20 51 50 1 17 -3 32 -9 32 -6 0 -7 -3 -4 -7 4 -3 -1 -12 -11 -19 -16
-13 -16 -13 1 -14 9 0 17 -4 17 -9 0 -13 -66 -34 -87 -28 -14 4 -13 5 4 6 27
1 40 20 22 32 -22 14 -33 10 -19 -6 10 -13 9 -15 -9 -15 -17 0 -21 6 -21 29 0
53 8 61 59 60 25 -1 36 -4 23 -6 -13 -3 -26 -11 -29 -19 -3 -8 -12 -14 -20
-14 -13 0 -13 3 -3 15 8 9 9 15 2 15 -21 0 -25 -23 -7 -37 28 -19 48 -17 42 6
-4 15 2 20 27 25 30 7 30 7 11 22 -14 11 -31 13 -59 8 l-40 -6 18 27 c11 17
13 26 5 23 -21 -7 -41 -79 -36 -132 5 -51 26 -79 52 -69 10 3 15 -8 17 -44 2
-39 7 -48 23 -50 11 -2 14 0 8 3 -7 3 -13 10 -13 15 0 6 5 7 10 4 6 -4 10 6
10 24 0 16 -6 32 -12 34 -7 3 4 6 24 6 35 1 37 0 40 -36 2 -20 9 -38 16 -41
11 -3 13 8 10 51 -2 41 0 53 10 50 40 -16 54 55 27 142 -8 29 -12 66 -8 91 5
38 2 48 -26 83 -23 29 -31 47 -26 61 7 22 -10 50 -29 50 -6 0 -19 -5 -29 -11z
m73 -198 c17 -1 21 -4 13 -12 -14 -14 -75 -8 -81 9 -2 8 4 11 20 8 12 -3 34
-5 48 -5z"/>
<path d="M1910 2299 c0 -5 11 -9 25 -9 33 0 33 15 0 16 -14 1 -25 -2 -25 -7z"/>
<path d="M1721 2221 c-23 -15 -5 -44 23 -37 14 3 28 2 31 -4 3 -5 11 -10 17
-10 7 0 6 6 -2 15 -7 8 -17 15 -23 15 -5 0 -15 7 -21 15 -7 9 -16 12 -25 6z
m24 -29 c-8 -8 -25 10 -19 20 4 6 9 5 15 -3 4 -7 6 -15 4 -17z"/>
<path d="M1920 2184 c0 -8 5 -12 10 -9 6 4 8 11 5 16 -9 14 -15 11 -15 -7z"/>
<path d="M1967 2187 c-3 -8 3 -13 14 -13 11 0 19 6 19 13 0 7 -6 13 -14 13 -8
0 -16 -6 -19 -13z"/>
<path d="M366 2119 c-11 -34 -15 -189 -4 -183 7 4 7 -1 2 -17 -8 -23 -9 -167
-2 -175 8 -7 865 -17 901 -10 25 5 37 12 37 24 0 9 12 26 28 38 35 28 22 42
-24 25 -20 -7 -38 -11 -40 -8 -3 3 18 13 46 23 69 25 82 41 42 55 l-31 11 0
101 c0 70 -4 103 -13 109 -7 5 -47 8 -88 7 -41 -1 -249 1 -462 6 -328 7 -388
6 -392 -6z m604 -10 c157 -1 297 -4 313 -6 l27 -5 0 -93 c0 -81 -2 -94 -17
-97 -10 -2 -26 1 -35 6 -12 7 -21 7 -29 -1 -10 -10 -8 -14 7 -19 46 -14 59
-24 24 -18 -19 4 -42 12 -52 18 -17 10 -15 14 19 42 47 40 38 65 -13 33 -19
-12 -38 -19 -41 -16 -3 3 10 15 28 26 l34 21 -30 -4 c-82 -10 -119 -31 -227
-129 -17 -15 -32 -26 -34 -24 -11 11 18 58 50 82 20 15 36 33 36 40 0 14 -23
26 -55 30 -27 3 -112 -41 -125 -64 -15 -29 -12 -48 4 -26 8 11 12 23 10 27 -3
4 5 12 16 18 11 6 20 8 20 4 0 -4 9 1 20 11 11 10 23 16 26 13 3 -3 -7 -15
-22 -27 -15 -12 -21 -21 -13 -21 10 -1 9 -4 -3 -11 -10 -5 -18 -14 -18 -20 0
-6 15 1 33 14 45 35 97 59 97 47 0 -5 -4 -10 -10 -10 -23 0 -80 -66 -80 -92 0
-40 13 -41 49 -3 40 42 60 46 32 6 -12 -16 -21 -36 -21 -45 0 -14 -15 -16 -95
-16 l-96 0 7 37 c4 21 15 56 25 78 34 74 22 84 -35 29 -54 -52 -55 -35 -2 30
56 69 60 85 6 25 -53 -60 -67 -86 -52 -101 9 -9 20 -2 48 31 42 49 56 48 24
-3 -11 -20 -23 -54 -25 -77 -2 -23 -7 -44 -11 -48 -4 -3 -4 7 0 22 4 19 3 26
-4 22 -5 -3 -10 -15 -10 -26 0 -17 -7 -19 -64 -19 -36 0 -67 4 -71 10 -3 5 -3
40 1 77 5 47 10 61 15 48 8 -21 7 -22 13 27 0 6 11 12 23 14 19 3 21 0 17 -29
-3 -28 -2 -29 7 -12 7 11 38 44 70 73 61 54 60 58 -19 43 -33 -7 -44 -5 -51 6
-6 12 -13 13 -28 4 -11 -5 -23 -8 -26 -5 -13 13 -27 -8 -17 -26 7 -13 6 -21
-4 -29 -10 -9 -13 -6 -12 11 1 25 -3 28 -35 28 -15 0 -19 -5 -15 -15 4 -10 -1
-15 -14 -15 -11 0 -19 -3 -18 -7 2 -13 -14 -47 -34 -70 -21 -23 -21 -70 0 -66
7 2 12 -9 12 -27 l0 -30 -74 0 c-93 0 -94 1 -56 135 5 21 8 24 9 10 1 -18 2
-18 14 4 6 14 18 26 25 29 10 3 9 -4 -4 -24 l-18 -29 25 25 c21 22 22 27 9 38
-13 12 -12 13 5 6 11 -4 31 -7 45 -7 22 1 20 -1 -12 -18 -21 -11 -38 -24 -38
-29 0 -6 17 1 38 14 20 13 36 29 34 36 -1 6 7 14 18 17 34 9 22 23 -19 23 -46
0 -129 -43 -142 -74 -6 -14 -8 8 -6 68 l2 88 155 -6 c85 -3 283 -6 440 -7z
m-285 -69 c-22 -24 -31 -25 -39 -4 -3 8 -2 12 4 9 5 -3 18 -1 27 4 26 15 28
13 8 -9z m120 1 c-69 -62 -96 -82 -93 -71 5 21 -47 22 -66 1 -12 -13 -17 -41
-19 -96 l-2 -77 -39 5 c-21 3 -43 11 -47 19 -5 7 -6 45 -3 83 6 63 9 73 38 97
20 17 33 23 38 15 4 -6 5 -14 2 -18 -2 -4 0 -10 6 -14 6 -3 27 7 47 24 41 34
56 33 27 -1 -16 -19 -14 -19 11 3 17 14 40 24 53 23 12 0 25 3 28 7 3 5 10 9
17 9 7 0 7 -3 2 -9z m-299 -20 c8 7 14 7 14 1 0 -12 -29 -24 -41 -16 -5 3 -6
10 -2 17 5 8 8 8 11 -1 3 -10 7 -10 18 -1z m-86 -36 c-7 -9 -15 -13 -19 -10
-3 3 1 10 9 15 21 14 24 12 10 -5z m570 -16 c0 -5 -6 -9 -14 -9 -7 0 -19 -7
-26 -15 -7 -8 -17 -15 -23 -15 -6 0 -1 10 11 23 12 13 19 26 16 30 -3 3 3 3
15 0 12 -3 21 -9 21 -14z m171 -3 c-20 -24 18 -28 55 -7 40 24 46 9 7 -16 -32
-20 -83 -72 -83 -85 0 -5 -9 -21 -20 -36 -18 -24 -26 -27 -65 -24 -53 5 -55
14 -22 81 15 31 29 45 46 48 21 3 22 1 10 -13 -8 -10 -15 -12 -17 -5 -4 13
-22 5 -22 -10 0 -6 5 -7 10 -4 6 3 10 1 10 -6 0 -6 9 -1 19 12 13 16 16 28 9
36 -6 8 -3 15 10 22 16 8 21 7 26 -5 5 -12 2 -15 -11 -10 -16 5 -16 4 -2 -6
15 -10 14 -14 -10 -34 -14 -13 -21 -23 -16 -23 6 0 26 13 45 29 19 17 27 28
18 24 -10 -3 -16 -1 -14 8 2 16 15 38 23 38 3 0 0 -6 -6 -14z m-640 -79 c-18
-18 -25 1 -11 30 l14 28 4 -24 c2 -13 -1 -28 -7 -34z m709 -24 c0 -3 -6 -3
-14 0 -8 3 -20 -2 -28 -11 -12 -15 -11 -16 5 -3 12 9 17 10 17 2 0 -7 5 -9 13
-4 14 9 130 33 136 27 2 -2 -9 -8 -25 -15 -55 -21 -77 -34 -82 -48 -5 -14 21
-13 63 5 18 7 19 6 6 -10 -12 -15 -29 -17 -108 -15 -51 2 -93 4 -93 6 0 12 44
83 52 83 5 0 6 -5 2 -12 -4 -7 -3 -8 4 -4 6 4 8 14 5 23 -5 13 -3 13 20 -2 15
-9 27 -20 27 -22z m85 27 c13 -6 15 -9 5 -9 -8 0 -22 4 -30 9 -18 12 -2 12 25
0z m-495 -101 c282 -1 470 -11 470 -25 0 -9 -12 -14 -34 -14 -19 0 -42 -3 -52
-7 -13 -5 -16 -3 -11 10 3 9 2 17 -3 17 -6 0 -10 -8 -11 -17 0 -15 -2 -15 -9
2 -7 17 -9 17 -9 3 -1 -15 -11 -18 -71 -18 -60 0 -70 3 -71 18 -1 16 -2 15 -6
-1 -4 -17 -18 -18 -231 -11 -125 4 -267 8 -317 8 -86 2 -90 3 -93 25 l-4 24
164 -7 c89 -3 219 -6 288 -7z"/>
<path d="M675 1944 c0 -29 1 -29 14 -5 8 14 7 20 -2 24 -7 3 -12 -5 -12 -19z"/>
<path d="M885 1942 c-5 -4 -11 -11 -12 -17 -1 -5 -5 -19 -8 -30 -6 -15 -3 -14
11 5 10 14 19 31 20 37 3 15 2 15 -11 5z"/>
<path d="M723 2011 c-20 -31 1 -33 28 -3 13 14 17 21 7 14 -10 -9 -17 -9 -20
-2 -1 5 -9 1 -15 -9z"/>
<path d="M574 1988 c-10 -12 -13 -18 -6 -14 10 6 11 1 7 -21 -5 -28 -5 -28 6
-3 11 26 20 60 15 60 -2 0 -11 -10 -22 -22z"/>
<path d="M601 1966 c-7 -8 -11 -23 -8 -33 3 -14 6 -12 16 11 13 33 9 43 -8 22z"/>
<path d="M435 1780 c-19 -8 -19 -9 3 -9 12 -1 22 4 22 9 0 6 -1 10 -2 9 -2 0
-12 -4 -23 -9z"/>
<path d="M488 1773 c7 -3 16 -2 19 1 4 3 -2 6 -13 5 -11 0 -14 -3 -6 -6z"/>
<path d="M528 1773 c6 -2 18 -2 25 0 6 3 1 5 -13 5 -14 0 -19 -2 -12 -5z"/>
<path d="M625 1770 c3 -5 8 -10 11 -10 2 0 4 5 4 10 0 6 -5 10 -11 10 -5 0 -7
-4 -4 -10z"/>
<path d="M650 1770 c0 -5 5 -10 10 -10 6 0 10 5 10 10 0 6 -4 10 -10 10 -5 0
-10 -4 -10 -10z"/>
<path d="M730 1769 c-20 -6 -17 -7 18 -8 23 -1 42 1 42 3 0 9 -37 12 -60 5z"/>
<path d="M835 1769 c-4 -6 -5 -12 -2 -15 2 -3 7 2 10 11 7 17 1 20 -8 4z"/>
<path d="M865 1770 c-3 -5 -1 -10 4 -10 6 0 11 5 11 10 0 6 -2 10 -4 10 -3 0
-8 -4 -11 -10z"/>
<path d="M940 1766 c0 -2 7 -6 15 -10 8 -3 15 -1 15 4 0 6 -7 10 -15 10 -8 0
-15 -2 -15 -4z"/>
<path d="M980 1759 c0 -5 5 -7 10 -4 6 3 10 8 10 11 0 2 -4 4 -10 4 -5 0 -10
-5 -10 -11z"/>
<path d="M1075 1760 c3 -5 8 -10 11 -10 2 0 4 5 4 10 0 6 -5 10 -11 10 -5 0
-7 -4 -4 -10z"/>
<path d="M1105 1760 c-3 -5 -1 -10 4 -10 6 0 11 5 11 10 0 6 -2 10 -4 10 -3 0
-8 -4 -11 -10z"/>
<path d="M1130 1760 c0 -5 5 -10 10 -10 6 0 10 5 10 10 0 6 -4 10 -10 10 -5 0
-10 -4 -10 -10z"/>
<path d="M1960 2080 c-8 -5 -12 -11 -9 -14 7 -8 49 5 49 15 0 12 -21 11 -40
-1z"/>
<path d="M1774 2059 c-10 -17 13 -36 27 -22 12 12 4 33 -11 33 -5 0 -12 -5
-16 -11z m26 -9 c0 -5 -5 -10 -11 -10 -5 0 -7 5 -4 10 3 6 8 10 11 10 2 0 4
-4 4 -10z"/>
<path d="M1966 1983 c-11 -11 -6 -23 9 -23 8 0 15 4 15 9 0 13 -16 22 -24 14z"/>
<path d="M173 1930 c-40 -16 -50 -73 -17 -101 16 -13 19 -95 3 -104 -25 -16
-30 -57 -10 -97 10 -21 15 -40 11 -43 -18 -11 -20 -57 -4 -92 14 -28 15 -39 6
-54 -16 -26 -15 -49 3 -69 13 -14 14 -22 4 -43 -10 -22 -9 -31 5 -53 11 -16
15 -35 11 -51 -4 -16 -2 -22 5 -18 5 3 10 15 10 26 0 10 5 19 10 19 6 0 10 -9
10 -20 0 -13 6 -20 18 -19 10 0 12 3 5 6 -16 6 -17 39 -3 48 6 4 10 28 9 54
-1 26 1 53 5 60 4 6 1 25 -8 42 -12 23 -13 36 -4 54 9 19 8 34 -5 67 -10 24
-13 46 -8 52 21 27 23 76 3 109 -26 42 -26 99 -2 140 24 39 25 60 4 81 -17 18
-29 19 -61 6z m51 -16 c20 -20 20 -22 -4 -62 -20 -33 -29 -142 -12 -142 15 0
31 -47 25 -71 -3 -13 -13 -32 -21 -41 -13 -16 -13 -20 0 -35 25 -29 31 -61 15
-91 -11 -23 -11 -30 -1 -40 18 -17 16 -148 -2 -163 -11 -9 -18 -8 -29 1 -18
15 -20 67 -3 72 7 3 3 15 -12 36 -21 29 -22 33 -8 54 14 21 14 28 2 49 -16 29
-18 73 -4 100 8 14 7 25 -5 41 -19 28 -19 72 0 88 20 16 20 100 0 126 -21 28
-18 59 8 77 28 20 32 20 51 1z"/>
<path d="M165 1880 c3 -5 8 -10 11 -10 2 0 4 5 4 10 0 6 -5 10 -11 10 -5 0 -7
-4 -4 -10z"/>
<path d="M200 1880 c-8 -5 -12 -11 -10 -14 3 -2 14 2 24 10 22 15 10 19 -14 4z"/>
<path d="M1907 1883 c-10 -10 -8 -33 2 -33 6 0 9 9 8 20 -1 23 -1 22 -10 13z"/>
<path d="M1973 1875 c-3 -9 -3 -19 1 -22 3 -4 6 2 6 12 0 14 3 15 15 5 12 -10
15 -10 15 4 0 20 -29 21 -37 1z"/>
<path d="M1930 1865 c0 -8 4 -15 9 -15 5 0 11 7 15 15 3 9 0 15 -9 15 -8 0
-15 -7 -15 -15z"/>
<path d="M1790 1810 c0 -5 11 -10 25 -10 14 0 25 5 25 10 0 6 -11 10 -25 10
-14 0 -25 -4 -25 -10z"/>
<path d="M1690 1800 c-13 -8 -12 -10 3 -10 9 0 17 5 17 10 0 12 -1 12 -20 0z"/>
<path d="M1067 1624 c-4 -4 -7 -14 -7 -23 0 -11 3 -12 11 -4 6 6 10 16 7 23
-2 6 -7 8 -11 4z"/>
<path d="M1107 1623 c-10 -10 -8 -33 2 -33 6 0 9 9 8 20 -1 23 -1 22 -10 13z"/>
<path d="M649 1574 c-20 -21 -23 -34 -21 -75 l4 -49 -70 -31 -70 -31 -41 -86
c-43 -91 -81 -247 -81 -333 0 -26 -7 -66 -15 -89 -8 -24 -13 -52 -9 -62 3 -12
1 -17 -6 -16 -7 2 -15 -3 -17 -11 -13 -34 25 0 55 50 18 30 36 54 40 54 19 1
33 19 28 38 -10 40 25 180 61 244 19 35 39 65 44 69 14 8 51 -83 44 -106 -6
-17 -51 -90 -201 -326 -33 -51 -44 -80 -53 -142 -21 -133 -49 -226 -92 -308
-54 -101 -129 -284 -129 -311 0 -26 30 -12 63 30 19 23 59 80 89 127 54 84 54
86 51 153 -3 81 18 137 43 116 13 -10 14 -33 8 -133 -7 -134 -24 -182 -24 -71
0 39 -4 65 -8 59 -4 -7 -5 -40 -4 -74 3 -50 7 -61 20 -58 13 3 19 26 28 112 7
61 20 148 28 195 8 47 18 107 21 133 8 70 32 124 74 160 35 31 105 106 148
162 l23 29 44 -39 c24 -22 45 -42 45 -46 3 -17 -100 -136 -151 -176 -61 -48
-67 -77 -9 -48 27 15 31 15 31 1 0 -8 4 -15 10 -15 11 0 50 40 50 52 0 12 100
138 110 138 5 0 18 -13 29 -29 l21 -29 -23 -29 c-70 -84 -117 -166 -119 -207
0 -22 -2 -68 -3 -101 -2 -33 1 -101 6 -150 l10 -91 -46 -93 c-25 -52 -45 -101
-43 -109 2 -11 32 16 85 75 l82 91 7 -31 c3 -18 13 -41 20 -51 13 -18 14 -18
20 -2 4 10 2 41 -5 70 -7 28 -17 112 -23 186 l-11 135 31 55 c18 30 41 66 52
80 17 21 21 23 30 10 31 -46 57 -221 66 -438 5 -119 10 -172 18 -169 6 2 14
25 18 51 4 27 9 50 11 52 3 3 25 -8 50 -24 52 -32 195 -97 202 -91 2 3 -33 43
-79 91 -96 100 -96 99 -96 284 0 104 -2 123 -16 128 -9 4 -18 5 -19 4 -17 -23
-20 -45 -11 -79 8 -30 7 -42 -1 -47 -14 -9 -56 -103 -49 -110 3 -2 15 18 27
46 l22 51 19 -24 c11 -15 18 -40 18 -68 0 -81 10 -102 83 -181 40 -42 70 -76
67 -75 -3 0 -45 22 -95 47 l-90 47 0 102 c1 56 -3 99 -7 97 -4 -3 -8 -46 -8
-96 0 -74 -3 -89 -14 -85 -11 4 -17 -9 -24 -56 -9 -61 -9 -61 -11 48 -1 61 -6
162 -11 225 -8 98 -7 117 6 131 12 13 14 28 9 58 -4 23 -11 41 -16 41 -5 0 -9
7 -9 15 0 18 -16 20 -26 4 -4 -7 -12 1 -21 19 -14 29 -13 32 23 82 52 72 61
53 28 -60 -4 -15 -3 -22 2 -17 9 8 10 12 13 40 1 9 3 9 10 -2 5 -7 6 -22 4
-32 -3 -10 0 -19 6 -19 6 0 11 9 11 20 0 35 14 21 42 -41 15 -32 27 -60 27
-62 0 -1 24 -45 53 -98 29 -52 91 -173 138 -267 47 -94 91 -172 98 -172 6 0
12 5 12 11 0 5 -5 7 -12 3 -8 -5 -9 -2 -5 10 4 9 0 33 -8 53 -15 35 -13 53 6
53 6 0 8 -4 4 -9 -8 -14 77 -61 159 -88 39 -13 73 -23 75 -23 12 0 -91 98
-184 175 -90 75 -102 88 -113 132 -25 93 -106 279 -180 413 -42 74 -75 143
-74 152 0 9 9 35 19 58 l18 41 27 -60 c27 -62 21 -86 -7 -31 -9 17 -20 30 -26
30 -11 0 38 -67 66 -90 22 -18 19 0 -10 64 -40 87 -43 99 -33 126 l9 24 19
-29 c11 -17 27 -51 36 -77 12 -36 31 -61 79 -103 34 -31 68 -69 75 -85 7 -16
17 -27 22 -24 5 3 3 12 -4 22 -11 13 -10 15 14 9 14 -4 34 -10 43 -14 13 -4
16 -2 13 8 -3 8 -16 13 -29 12 -13 -1 -19 0 -12 3 7 3 -13 31 -48 67 -34 36
-65 80 -74 105 -8 23 -22 62 -30 86 -22 61 -71 121 -116 142 -22 9 -39 21 -39
26 0 5 -33 41 -73 81 -40 40 -89 92 -108 116 -33 42 -38 44 -94 49 -33 3 -63
10 -67 16 -4 6 -8 30 -8 53 0 34 3 41 15 37 31 -12 13 6 -25 26 -50 25 -52 25
-81 -6z m81 -59 c0 -28 5 -56 12 -63 7 -7 34 -12 61 -12 49 0 50 -1 133 -87
46 -49 83 -90 83 -93 0 -3 -11 -13 -25 -23 l-25 -18 -60 55 c-33 31 -64 56
-68 56 -4 0 -23 -40 -43 -90 l-35 -89 29 -35 c21 -26 27 -41 22 -60 -4 -19 -1
-26 15 -31 29 -9 42 -37 35 -74 -8 -40 -22 -48 -39 -25 -17 22 -19 60 -5 69
15 9 12 22 -5 22 -10 0 -15 -11 -16 -31 0 -17 -4 -39 -7 -49 -7 -16 -9 -16
-32 5 -14 13 -27 22 -31 21 -3 -1 -16 9 -29 22 l-22 24 -23 -26 -22 -26 -7 28
c-7 29 -31 54 -52 55 -6 0 -17 -13 -23 -28 -10 -25 -9 -34 13 -73 l25 -44 -26
-27 c-33 -35 -41 -35 -45 -3 -3 28 -21 30 -23 3 -2 -21 -75 -106 -92 -107 -7
-1 -13 -10 -13 -21 0 -12 -7 -35 -16 -51 -8 -17 -13 -34 -9 -37 11 -11 34 29
27 46 -5 15 -4 16 14 2 17 -14 18 -14 6 2 -11 13 -11 21 -2 39 10 17 14 19 21
8 11 -17 12 -32 1 -25 -4 2 -9 -17 -9 -42 -1 -26 -7 -84 -14 -130 l-11 -83
-23 21 -23 21 -22 -36 c-19 -31 -23 -49 -21 -112 l2 -74 -65 -97 c-72 -109
-104 -148 -111 -140 -9 9 71 203 84 204 6 1 15 2 20 3 13 2 51 65 51 86 0 19
-21 16 -28 -5 -3 -7 0 -10 7 -6 19 12 12 -8 -14 -38 -14 -16 -25 -26 -25 -21
0 18 24 85 30 85 5 0 11 11 14 25 4 14 11 23 16 20 5 -3 8 3 8 12 -1 10 6 41
15 69 10 28 26 100 36 161 18 106 21 114 77 197 33 47 75 113 94 145 19 32 49
83 67 111 19 33 29 59 25 69 -18 40 -53 101 -60 101 -4 -1 -24 -29 -44 -65
-41 -69 -78 -190 -79 -257 0 -24 -3 -37 -6 -29 -4 9 -18 -8 -40 -45 -33 -57
-36 -46 -7 25 8 18 14 56 14 83 0 86 21 190 57 281 19 48 39 90 44 93 13 8 11
-30 -3 -44 -9 -9 -9 -12 0 -12 7 0 12 5 12 12 0 6 7 3 15 -8 8 -10 15 -14 15
-7 0 7 7 10 15 7 9 -4 15 0 15 10 0 9 5 16 12 16 6 0 8 3 5 6 -4 4 -17 0 -31
-9 -22 -15 -36 -13 -36 4 0 5 7 6 15 3 8 -4 15 -1 15 5 0 6 3 10 8 9 4 -1 20
4 35 10 16 7 33 12 38 12 5 0 18 9 30 21 15 15 28 19 49 14 16 -3 37 -2 48 4
24 13 62 -11 62 -40 0 -21 15 -26 26 -7 5 7 3 8 -6 3 -9 -5 -10 -2 -6 12 4 12
1 25 -9 33 -8 7 -15 9 -15 5 0 -4 -6 -3 -12 2 -23 18 -118 6 -143 -17 -15 -14
-37 -22 -66 -23 -24 -1 -46 -7 -49 -13 -4 -9 -9 -8 -18 2 -11 12 -10 15 5 20
10 4 41 17 69 30 56 25 66 43 57 100 -5 27 -1 37 18 53 18 15 28 16 46 8 20
-9 23 -18 23 -62z m223 -293 c19 -21 18 -21 -40 -50 -39 -20 -63 -40 -72 -59
l-13 -28 -24 30 c-13 17 -24 34 -24 38 0 4 14 44 31 87 l32 80 46 -39 c25 -21
54 -48 64 -59z m98 16 c8 -7 20 -25 26 -39 10 -22 8 -30 -13 -55 -13 -16 -23
-35 -24 -41 0 -22 -14 -15 -55 27 -39 39 -39 39 -19 62 22 27 57 57 65 58 3 0
12 -6 20 -12z m-133 -93 c-12 -27 -24 -32 -31 -12 -3 9 24 34 40 37 2 0 -3
-11 -9 -25z m226 12 c18 -13 18 -15 1 -40 -21 -33 -23 -33 -51 -6 -41 39 4 79
50 46z m-181 -20 c13 -20 13 -26 1 -42 -12 -16 -17 -17 -39 -5 l-24 13 20 28
c11 16 22 29 24 29 1 0 9 -10 18 -23z m-76 -23 c4 -12 -53 -81 -60 -74 -10 10
32 92 45 88 6 -2 13 -9 15 -14z m303 -4 c8 -15 7 -26 -6 -46 l-18 -26 -17 23
c-16 21 -16 24 -1 46 21 28 28 28 42 3z m-80 -27 c0 -2 -5 -13 -11 -25 -11
-20 -11 -20 -34 2 -19 18 -22 27 -14 41 9 18 11 18 34 3 14 -9 25 -18 25 -21z
m-61 -25 c28 -24 30 -30 19 -48 -7 -11 -15 -20 -18 -20 -13 0 -30 44 -24 63 6
21 5 21 -8 3 -10 -13 -17 -15 -22 -8 -4 7 -12 12 -19 12 -6 0 -4 -7 5 -16 15
-15 15 -19 1 -40 -12 -20 -18 -21 -34 -11 -19 12 -27 47 -11 47 5 0 16 16 25
36 19 39 18 39 86 -18z m-119 17 c13 -16 6 -35 -15 -35 -8 0 -19 -10 -26 -21
-10 -19 -13 -20 -26 -6 -14 14 -13 18 6 46 24 34 42 39 61 16z m299 -21 c10
-22 9 -31 -4 -50 -19 -30 -27 -30 -41 -1 -8 17 -7 29 5 50 19 34 25 34 40 1z
m-109 -24 c-6 -11 -16 -17 -22 -14 -7 4 -8 3 -4 -4 8 -13 -3 -62 -14 -62 -4 0
-11 7 -14 16 -6 15 12 50 43 87 19 22 27 6 11 -23z m-504 -53 c14 -26 14 -31
-2 -48 -20 -22 -38 -15 -31 12 3 11 1 17 -4 14 -11 -7 -23 40 -15 61 5 14 9
14 22 3 8 -7 22 -26 30 -42z m307 13 c4 0 14 -3 23 -8 14 -8 14 -10 0 -21 -13
-11 -16 -11 -16 3 0 10 -4 15 -9 11 -13 -7 -30 26 -23 45 4 11 7 9 11 -8 3
-13 9 -23 14 -22z m148 -78 c-12 -24 -8 -58 10 -79 10 -12 13 -29 10 -48 l-6
-29 -32 34 c-39 41 -39 44 -11 64 19 14 20 17 7 28 -37 32 -43 47 -24 68 21
23 9 27 -15 5 -15 -14 -18 -14 -30 0 -11 13 -9 20 10 40 l22 24 34 -45 c26
-33 32 -49 25 -62z m184 -2 c-5 -19 -4 -22 5 -13 9 8 26 -3 70 -50 32 -34 56
-64 54 -67 -3 -2 -9 2 -14 10 -8 12 -10 12 -10 1 0 -9 -10 -3 -25 13 -14 15
-25 32 -25 37 0 6 -4 8 -9 5 -12 -8 -91 79 -91 99 0 9 8 28 17 42 l17 26 9
-39 c4 -21 5 -50 2 -64z m-335 11 c0 -15 -12 -46 -27 -68 -26 -40 -43 -47 -43
-18 0 8 -8 19 -17 24 -17 10 -17 12 3 28 27 22 44 55 44 85 l1 23 19 -24 c11
-13 20 -35 20 -50z m59 26 c8 -11 6 -18 -9 -32 -27 -25 -48 -7 -28 24 15 25
21 26 37 8z m-174 -76 c-18 -19 -28 -22 -36 -14 -9 9 -6 20 11 44 22 30 24 31
37 13 12 -16 10 -21 -12 -43z m219 23 c17 -24 17 -27 2 -42 -14 -15 -18 -14
-40 7 -21 20 -23 26 -13 42 16 25 28 23 51 -7z m-48 -40 l27 -35 -26 -52 c-15
-29 -43 -72 -62 -97 -32 -42 -57 -81 -96 -150 -14 -26 -17 -27 -32 -13 -14 14
-14 20 1 62 9 25 18 48 19 50 1 2 11 -7 22 -20 26 -31 27 -12 2 21 -19 24 -19
25 2 62 12 21 25 38 28 38 4 0 14 -12 24 -26 9 -14 19 -23 22 -20 3 2 -4 18
-16 34 -26 37 -26 36 1 72 l22 30 29 -27 c32 -30 28 -13 -6 24 -20 22 -20 23
-2 43 10 11 16 22 13 25 -5 6 -78 -103 -112 -168 -23 -42 -39 -52 -44 -26 -1
9 11 31 28 49 16 17 30 36 30 41 0 4 14 24 30 42 17 19 30 39 30 44 0 11 21
33 31 33 5 0 20 -16 35 -36z m-463 -36 c-2 -4 -11 -4 -20 -1 -9 4 -14 2 -10
-3 9 -16 -27 -64 -41 -55 -8 5 -2 18 23 45 19 21 35 44 36 50 0 6 4 2 8 -9 5
-11 7 -23 4 -27z m247 20 c-1 -22 -37 -61 -49 -54 -8 5 -5 16 11 36 25 31 38
37 38 18z m320 -104 c0 -6 -10 -24 -21 -38 -17 -21 -24 -25 -30 -14 -5 7 -9
19 -9 27 0 11 4 9 15 -5 22 -29 17 -5 -9 48 -13 26 -21 50 -18 53 8 7 72 -56
72 -71z m59 9 c12 -27 32 -64 43 -83 l22 -35 -22 19 c-12 11 -22 26 -22 34 0
9 -3 13 -6 9 -3 -3 -18 8 -33 25 -19 21 -26 39 -23 55 7 34 17 28 41 -24z
m-436 31 c8 -9 -31 -84 -44 -84 -6 0 -7 5 -3 12 5 8 0 9 -17 4 -59 -18 -61
-17 -16 13 26 17 50 38 53 46 6 16 17 19 27 9z m423 -147 c-14 -36 -14 -39 -1
-23 8 11 15 26 15 33 0 20 24 15 48 -10 l21 -22 -21 -68 c-11 -37 -23 -66 -26
-63 -3 3 -13 24 -24 47 l-18 41 26 -17 c14 -9 28 -15 30 -12 2 2 -13 15 -34
28 -21 14 -47 43 -59 68 -20 40 -21 46 -7 73 l15 29 25 -31 c26 -30 26 -31 10
-73z m-326 9 c0 -6 -11 -35 -25 -64 -13 -28 -27 -69 -29 -90 l-6 -37 11 34 10
33 24 -22 c25 -23 25 -27 27 -171 0 -20 -7 -50 -17 -68 -13 -26 -19 -30 -31
-20 -16 13 -19 -2 -4 -17 10 -10 4 -26 -27 -83 -1 -2 -9 -1 -17 2 -13 5 -12
12 6 48 11 24 21 59 22 78 1 20 10 49 21 64 l18 29 14 -24 c10 -17 12 -17 7
-3 -4 11 -7 31 -7 45 0 14 -2 19 -4 11 -4 -9 -12 -5 -29 15 -13 16 -23 24 -24
18 0 -6 8 -19 18 -30 18 -18 18 -20 -1 -51 -10 -18 -21 -33 -23 -33 -2 0 -3
52 -2 115 0 76 4 115 11 115 7 0 7 4 -1 12 -17 17 -15 36 8 87 17 37 22 41 35
31 8 -7 15 -18 15 -24z m177 -37 c-4 -16 -2 -19 10 -15 12 5 14 1 9 -20 -5
-17 -3 -23 4 -19 5 3 10 0 10 -7 0 -16 -17 -44 -23 -38 -9 11 -25 93 -20 106
8 22 16 16 10 -7z m264 -56 c25 -58 21 -67 -15 -38 -24 19 -27 27 -21 54 3 17
9 31 11 31 3 0 14 -21 25 -47z m-131 -75 c0 -31 -15 -45 -24 -22 -8 21 -8 59
1 67 10 11 23 -14 23 -45z m144 4 c2 -4 2 -27 -1 -50 -5 -35 -8 -40 -20 -31
-7 7 -16 9 -20 6 -3 -4 2 -9 11 -13 9 -3 16 -13 16 -22 0 -15 -1 -15 -16 -1
-8 9 -16 23 -18 32 -1 8 -8 22 -15 31 -9 10 -11 28 -7 51 l7 35 29 -15 c16 -8
31 -18 34 -23z m50 -86 c22 -68 21 -71 -18 -40 -32 26 -33 28 -23 66 11 46 18
41 41 -26z m-194 8 c0 -14 -4 -23 -10 -19 -5 3 -10 15 -10 26 0 10 5 19 10 19
6 0 10 -12 10 -26z m272 -193 c-2 -14 -8 -36 -14 -49 -10 -18 -8 -32 5 -68 9
-25 12 -42 7 -39 -6 3 -10 11 -10 16 0 6 -13 37 -29 70 -17 32 -27 59 -23 59
3 0 1 5 -5 11 -6 6 -9 29 -8 52 1 25 1 29 -2 10 -2 -18 -7 -33 -11 -33 -13 0
-54 108 -47 121 5 8 30 -11 74 -56 51 -53 65 -74 63 -94z m-556 54 c-3 -8 0
-28 5 -45 14 -40 5 -63 -10 -26 l-12 29 -30 -34 c-19 -21 -25 -24 -15 -9 9 14
23 42 32 63 15 34 43 55 30 22z m635 -97 c-1 -5 -1 -17 -1 -28 0 -25 -8 -25
-43 4 -23 18 -27 28 -21 50 l6 27 30 -23 c16 -13 29 -26 29 -30z m-611 -28 c0
-11 -2 -20 -4 -20 -2 0 -6 9 -9 20 -3 11 -1 20 4 20 5 0 9 -9 9 -20z m662 -7
c32 -31 39 -70 11 -58 -10 4 -26 10 -35 12 -13 4 -18 16 -18 39 0 41 6 42 42
7z m-794 -1 c9 -6 4 -16 -18 -37 -33 -32 -35 -31 -19 14 12 33 16 36 37 23z
m877 -80 c-6 -7 -45 19 -45 29 0 5 11 2 24 -8 13 -10 23 -19 21 -21z"/>
<path d="M683 1553 c-13 -2 -23 -8 -23 -12 0 -5 11 -6 25 -3 14 2 25 8 25 13
0 5 -1 8 -2 8 -2 -1 -13 -4 -25 -6z"/>
<path d="M830 1410 c6 -11 15 -20 19 -20 5 0 8 -8 6 -17 -1 -10 0 -12 2 -5 3
6 8 12 13 12 4 0 6 9 3 19 -3 12 -11 17 -19 14 -8 -3 -14 0 -14 6 0 6 -5 11
-10 11 -7 0 -7 -6 0 -20z"/>
<path d="M690 1201 c-43 -22 -53 -63 -21 -81 17 -8 26 -7 44 7 28 21 48 59 40
79 -7 19 -21 18 -63 -5z m57 -7 c2 -5 -11 -25 -28 -44 -17 -19 -28 -27 -25
-17 6 20 -5 22 -22 5 -7 -7 -12 -8 -12 -4 0 5 8 15 18 23 16 14 16 14 -2 8
-19 -6 -19 -5 -2 14 10 11 22 18 27 16 4 -3 11 -1 14 5 8 12 27 9 32 -6z"/>
<path d="M750 1020 c0 -5 6 -10 14 -10 8 0 18 5 21 10 3 6 -3 10 -14 10 -12 0
-21 -4 -21 -10z"/>
<path d="M1040 1209 c0 -5 5 -7 10 -4 6 3 10 8 10 11 0 2 -4 4 -10 4 -5 0 -10
-5 -10 -11z"/>
<path d="M1334 175 c11 -8 25 -15 30 -15 6 0 2 7 -8 15 -11 8 -25 15 -30 15
-6 0 -2 -7 8 -15z"/>
<path d="M1301 1554 c0 -11 3 -14 6 -6 3 7 2 16 -1 19 -3 4 -6 -2 -5 -13z"/>
<path d="M1231 1546 c-7 -8 -8 -17 -3 -20 6 -3 13 1 16 10 9 23 2 28 -13 10z"/>
<path d="M1140 1533 c0 -8 10 -12 28 -10 15 2 27 7 27 12 0 5 -12 10 -27 10
-17 1 -28 -5 -28 -12z"/>
<path d="M1260 1535 c0 -8 5 -15 10 -15 6 0 10 7 10 15 0 8 -4 15 -10 15 -5 0
-10 -7 -10 -15z"/>
<path d="M1295 1520 c-3 -5 -1 -10 4 -10 6 0 11 5 11 10 0 6 -2 10 -4 10 -3 0
-8 -4 -11 -10z"/>
<path d="M60 1463 c0 -8 5 -13 12 -11 18 6 21 25 3 25 -8 0 -15 -7 -15 -14z"/>
<path d="M1920 1454 c0 -18 -28 -61 -139 -216 -26 -37 -53 -85 -60 -106 -12
-34 -11 -43 4 -66 37 -56 105 -41 169 37 63 77 136 207 136 243 0 33 -41 94
-63 94 -6 0 -19 7 -29 17 -17 15 -18 15 -18 -3z m85 -67 c21 -30 19 -50 -11
-110 -61 -119 -163 -237 -206 -237 -31 0 -58 29 -58 62 0 44 22 82 127 220 28
37 57 81 64 97 l13 29 28 -19 c15 -11 34 -30 43 -42z"/>
<path d="M1910 1330 c0 -5 5 -10 10 -10 6 0 10 5 10 10 0 6 -4 10 -10 10 -5 0
-10 -4 -10 -10z"/>
<path d="M1880 1300 c-11 -7 -12 -12 -3 -21 13 -13 33 -4 33 17 0 16 -9 18
-30 4z"/>
<path d="M1960 1296 c0 -8 -6 -16 -12 -19 -7 -2 -10 -8 -6 -12 8 -9 38 18 38
34 0 6 -4 11 -10 11 -5 0 -10 -6 -10 -14z"/>
<path d="M1920 1246 c0 -9 5 -16 10 -16 6 0 10 4 10 9 0 6 -4 13 -10 16 -5 3
-10 -1 -10 -9z"/>
<path d="M1840 1236 c0 -9 5 -16 10 -16 6 0 10 4 10 9 0 6 -4 13 -10 16 -5 3
-10 -1 -10 -9z"/>
<path d="M1815 1200 c3 -5 10 -10 16 -10 5 0 9 5 9 10 0 6 -7 10 -16 10 -8 0
-12 -4 -9 -10z"/>
<path d="M1860 1155 c-7 -14 -10 -28 -7 -31 4 -4 10 2 14 12 3 10 11 22 16 25
6 4 5 9 0 12 -6 4 -16 -5 -23 -18z"/>
<path d="M1790 1160 c0 -5 5 -10 11 -10 5 0 7 5 4 10 -3 6 -8 10 -11 10 -2 0
-4 -4 -4 -10z"/>
<path d="M1817 1107 c-20 -30 -21 -37 -7 -37 6 0 10 6 10 14 0 8 5 16 12 18 6
2 9 10 7 17 -3 9 -11 5 -22 -12z"/>
<path d="M1755 1110 c3 -5 11 -10 16 -10 6 0 7 5 4 10 -3 6 -11 10 -16 10 -6
0 -7 -4 -4 -10z"/>
<path d="M60 1408 c0 -4 4 -8 9 -8 6 0 12 4 15 8 3 5 -1 9 -9 9 -8 0 -15 -4
-15 -9z"/>
<path d="M1346 1372 c-4 -7 -3 -19 2 -28 12 -21 22 -5 12 20 -4 13 -9 16 -14
8z"/>
<path d="M60 1356 c0 -8 5 -18 10 -21 6 -3 10 3 10 14 0 12 -4 21 -10 21 -5 0
-10 -6 -10 -14z"/>
<path d="M1290 1359 c0 -5 5 -7 10 -4 6 3 10 8 10 11 0 2 -4 4 -10 4 -5 0 -10
-5 -10 -11z"/>
<path d="M1335 1300 c-3 -5 3 -10 15 -10 12 0 18 5 15 10 -3 6 -10 10 -15 10
-5 0 -12 -4 -15 -10z"/>
<path d="M55 1290 c-3 -5 1 -10 9 -10 9 0 16 5 16 10 0 6 -4 10 -9 10 -6 0
-13 -4 -16 -10z"/>
<path d="M1350 1244 c0 -8 5 -12 10 -9 6 3 10 10 10 16 0 5 -4 9 -10 9 -5 0
-10 -7 -10 -16z"/>
<path d="M50 1231 c0 -6 5 -13 10 -16 6 -3 10 1 10 9 0 9 -4 16 -10 16 -5 0
-10 -4 -10 -9z"/>
<path d="M1350 1201 c0 -25 6 -27 13 -6 4 8 2 17 -3 20 -6 4 -10 -3 -10 -14z"/>
<path d="M50 1165 c0 -8 4 -15 9 -15 5 0 11 7 15 15 3 9 0 15 -9 15 -8 0 -15
-7 -15 -15z"/>
<path d="M1351 1144 c0 -11 3 -14 6 -6 3 7 2 16 -1 19 -3 4 -6 -2 -5 -13z"/>
<path d="M50 1095 c0 -8 7 -15 15 -15 9 0 12 6 9 15 -4 8 -10 15 -15 15 -5 0
-9 -7 -9 -15z"/>
<path d="M1340 1100 c0 -5 4 -10 9 -10 6 0 13 5 16 10 3 6 -1 10 -9 10 -9 0
-16 -4 -16 -10z"/>
<path d="M1340 1052 c0 -5 7 -9 15 -9 8 0 15 4 15 9 0 4 -7 8 -15 8 -8 0 -15
-4 -15 -8z"/>
<path d="M52 1041 c4 -13 18 -16 19 -4 0 4 -5 9 -11 12 -7 2 -11 -2 -8 -8z"/>
<path d="M1350 1000 c0 -11 4 -20 9 -20 5 0 7 9 4 20 -3 11 -7 20 -9 20 -2 0
-4 -9 -4 -20z"/>
<path d="M1640 935 c0 -8 2 -15 4 -15 2 0 6 7 10 15 3 8 1 15 -4 15 -6 0 -10
-7 -10 -15z"/>
<path d="M1670 925 c0 -6 7 -12 15 -12 8 0 15 6 15 12 0 6 -7 12 -15 12 -8 0
-15 -6 -15 -12z"/>
<path d="M1090 895 c0 -8 5 -15 10 -15 6 0 10 7 10 15 0 8 -4 15 -10 15 -5 0
-10 -7 -10 -15z"/>
<path d="M1708 788 c-7 -4 -27 -8 -45 -8 -17 0 -39 -8 -49 -17 -17 -18 -22
-20 -56 -22 -26 -2 -52 -46 -40 -67 7 -13 5 -25 -5 -41 -20 -30 -6 -66 34 -85
28 -14 30 -23 18 -64 -5 -15 4 -34 28 -66 l35 -46 -21 -21 c-28 -27 -11 -27
64 0 l57 21 -30 43 c-30 43 -30 43 -12 68 21 28 64 42 64 21 0 -7 -4 -16 -10
-19 -15 -10 -12 -21 16 -54 21 -25 23 -34 14 -51 -7 -12 -10 -23 -8 -25 2 -2
28 12 58 30 30 19 60 36 65 38 6 3 7 8 2 12 -4 5 -13 3 -19 -3 -7 -7 -17 -12
-22 -12 -6 0 -2 7 8 15 16 12 17 18 8 27 -19 19 -15 33 23 74 19 21 35 45 35
54 0 8 9 23 20 33 27 22 25 43 -5 73 -14 14 -25 32 -25 40 0 8 -15 21 -34 29
-19 8 -37 19 -41 25 -7 11 -109 10 -127 -2z m127 -7 c3 -5 1 -12 -5 -16 -5 -3
-10 -17 -10 -30 0 -21 -3 -22 -27 -16 -33 9 -42 40 -17 58 21 15 50 17 59 4z
m-83 -31 c4 -27 2 -30 -24 -30 -33 0 -47 23 -28 45 21 26 47 18 52 -15z m-66
-2 c-1 -27 -13 -38 -43 -38 -28 0 -37 14 -23 40 7 13 21 20 39 20 22 0 27 -4
27 -22z m205 -4 c11 -14 9 -19 -11 -34 -27 -20 -50 -11 -50 20 0 33 38 42 61
14z m-293 -27 c16 -18 -40 -71 -57 -54 -16 16 -13 45 7 56 23 14 38 13 50 -2z
m232 -22 c44 -23 51 -77 12 -89 -79 -25 -236 -26 -260 -2 -32 31 5 80 73 97
53 13 145 10 175 -6z m95 -5 c18 -20 15 -70 -5 -70 -33 0 -65 72 -37 83 20 9
23 8 42 -13z m-363 -67 c6 -27 -3 -53 -18 -53 -20 0 -34 31 -23 52 12 23 36
23 41 1z m348 -33 c0 -10 -12 -26 -27 -35 -16 -10 -25 -14 -21 -10 4 4 3 16
-3 27 -14 26 17 64 38 47 7 -6 13 -19 13 -29z m-295 -10 c11 0 12 -6 6 -22
-12 -34 -45 -30 -49 6 -3 23 0 28 13 22 9 -3 23 -6 30 -6z m233 -14 c8 -37
-69 -52 -88 -17 -14 27 -13 29 18 34 47 7 67 3 70 -17z m-104 -39 c-18 -11
-44 3 -44 23 0 26 33 30 46 5 7 -15 7 -22 -2 -28z m-52 18 c5 -22 2 -25 -23
-25 -15 0 -31 5 -34 10 -12 19 4 40 29 40 17 0 25 -7 28 -25z m-56 -32 c3 -10
15 -35 25 -55 14 -27 17 -42 10 -55 -5 -10 -12 -26 -15 -35 -3 -10 -13 -18
-23 -18 -14 0 -15 2 -4 9 10 7 11 13 2 29 -6 12 -11 25 -10 29 4 23 -3 34 -26
43 -23 9 -25 12 -14 32 21 40 46 49 55 21z m218 2 c-7 -17 -20 -20 -28 -6 -7
10 3 21 20 21 8 0 11 -6 8 -15z m-34 -15 c11 -11 17 -20 14 -20 -4 0 -1 -6 5
-14 13 -16 -1 -50 -29 -72 -20 -16 -26 -9 -10 11 10 12 10 18 0 30 -7 9 -19
14 -27 11 -19 -8 -28 21 -15 50 14 29 35 31 62 4z m-140 -5 c-7 -8 -17 -12
-23 -8 -6 4 -3 9 9 14 27 11 28 11 14 -6z m-70 -66 c0 -6 -4 -7 -10 -4 -5 3
-10 11 -10 16 0 6 5 7 10 4 6 -3 10 -11 10 -16z m188 -8 c3 -8 -1 -12 -9 -9
-7 2 -15 10 -17 17 -3 8 1 12 9 9 7 -2 15 -10 17 -17z m-93 -31 c3 -6 -1 -13
-10 -16 -19 -8 -30 0 -20 15 8 14 22 14 30 1z"/>
<path d="M1737 694 c-3 -3 -3 -12 0 -20 4 -11 9 -12 19 -3 8 6 11 15 8 20 -6
10 -18 12 -27 3z"/>
<path d="M1644 679 c-10 -17 13 -36 27 -22 12 12 4 33 -11 33 -5 0 -12 -5 -16
-11z"/>
<path d="M1740 643 c-19 -8 -50 -13 -67 -11 -20 3 -33 0 -33 -7 0 -8 15 -9 53
-3 28 5 62 10 75 11 12 1 22 5 22 9 0 15 -17 16 -50 1z"/>
<path d="M36 781 c-13 -20 -9 -371 4 -386 13 -15 69 -21 71 -7 0 4 2 91 4 194
3 207 9 186 -57 204 -9 3 -19 0 -22 -5z m65 -153 c1 -79 1 -147 0 -152 -1 -4
-2 -24 -3 -43 -1 -38 -20 -52 -44 -32 -13 10 -15 41 -13 191 l1 178 29 0 29 0
1 -142z"/>
<path d="M68 753 c7 -3 16 -2 19 1 4 3 -2 6 -13 5 -11 0 -14 -3 -6 -6z"/>
<path d="M71 731 c-10 -6 -10 -10 -1 -16 13 -8 24 -1 19 14 -3 6 -10 7 -18 2z"/>
<path d="M67 675 c-8 -20 -4 -29 11 -24 5 2 6 13 2 23 -6 19 -7 19 -13 1z"/>
<path d="M65 631 c-3 -5 -1 -12 5 -16 5 -3 10 1 10 9 0 18 -6 21 -15 7z"/>
<path d="M68 593 c7 -3 16 -2 19 1 4 3 -2 6 -13 5 -11 0 -14 -3 -6 -6z"/>
<path d="M60 550 c0 -5 4 -10 9 -10 6 0 13 5 16 10 3 6 -1 10 -9 10 -9 0 -16
-4 -16 -10z"/>
<path d="M70 514 c0 -8 5 -12 10 -9 6 4 8 11 5 16 -9 14 -15 11 -15 -7z"/>
<path d="M60 478 c0 -4 7 -8 15 -8 8 0 15 4 15 8 0 5 -7 9 -15 9 -8 0 -15 -4
-15 -9z"/>
<path d="M56 451 c-9 -14 4 -41 19 -41 8 0 11 8 8 20 -6 24 -19 34 -27 21z"/>
<path d="M343 415 c0 -22 2 -30 4 -17 2 12 2 30 0 40 -3 9 -5 -1 -4 -23z"/>
<path d="M1920 332 c0 -7 -7 -12 -15 -12 -8 0 -15 -8 -15 -17 0 -14 2 -15 9
-4 5 7 13 11 19 7 15 -9 26 14 13 27 -8 8 -11 8 -11 -1z"/>
<path d="M1815 290 c-8 -13 4 -32 16 -25 12 8 12 35 0 35 -6 0 -13 -4 -16 -10z"/>
<path d="M1745 270 c3 -5 8 -10 11 -10 2 0 4 5 4 10 0 6 -5 10 -11 10 -5 0 -7
-4 -4 -10z"/>
<path d="M1630 236 c0 -9 5 -16 10 -16 6 0 10 4 10 9 0 6 -4 13 -10 16 -5 3
-10 -1 -10 -9z"/>
<path d="M1740 234 c0 -8 5 -12 10 -9 6 3 10 10 10 16 0 5 -4 9 -10 9 -5 0
-10 -7 -10 -16z"/>
<path d="M1680 185 c0 -8 5 -15 10 -15 6 0 10 7 10 15 0 8 -4 15 -10 15 -5 0
-10 -7 -10 -15z"/>
<path d="M1560 177 c0 -7 9 -13 19 -14 14 -1 18 3 14 13 -6 17 -33 19 -33 1z"/>
</g>
</svg>
