<?xml version="1.0" standalone="no"?>
<!DOCTYPE svg PUBLIC "-//W3C//DTD SVG 20010904//EN"
 "http://www.w3.org/TR/2001/REC-SVG-20010904/DTD/svg10.dtd">
<svg version="1.0" xmlns="http://www.w3.org/2000/svg"
 width="276.000000pt" height="300.000000pt" viewBox="0 0 276.000000 300.000000"
 preserveAspectRatio="xMidYMid meet">
<metadata>
Created by potrace 1.10, written by Peter Selinger 2001-2011
</metadata>
<g transform="translate(0.000000,300.000000) scale(0.100000,-0.100000)"
fill="#000000" stroke="none">
<path d="M1322 2445 c-7 -14 -12 -34 -12 -43 0 -14 4 -12 19 7 l18 24 8 -24
c8 -24 8 -24 12 -2 4 23 -12 63 -26 63 -4 0 -13 -11 -19 -25z"/>
<path d="M1497 2435 c-9 -19 -12 -35 -7 -35 6 0 10 5 10 10 0 6 7 10 16 10 11
0 14 -6 9 -20 -4 -11 -2 -20 4 -20 12 0 26 64 16 79 -12 21 -31 11 -48 -24z
m33 5 c0 -5 -5 -10 -11 -10 -5 0 -7 5 -4 10 3 6 8 10 11 10 2 0 4 -4 4 -10z"/>
<path d="M1227 2453 c-11 -10 -8 -71 3 -78 11 -7 50 30 50 48 0 26 -37 47 -53
30z m33 -32 c0 -11 -4 -23 -10 -26 -5 -3 -10 -2 -10 4 0 5 -3 16 -6 25 -4 11
-1 16 10 16 9 0 16 -8 16 -19z"/>
<path d="M1597 2443 c-3 -4 -8 -23 -12 -40 -6 -31 -5 -33 20 -33 27 0 33 8 37
50 2 19 -2 26 -19 28 -11 2 -23 0 -26 -5z m25 -25 c-7 -7 -12 -8 -12 -2 0 6 3
14 7 17 3 4 9 5 12 2 2 -3 -1 -11 -7 -17z m-2 -28 c0 -5 -2 -10 -4 -10 -3 0
-8 5 -11 10 -3 6 -1 10 4 10 6 0 11 -4 11 -10z"/>
<path d="M1150 2403 c0 -25 -1 -25 -19 -9 -23 20 -31 11 -20 -24 5 -20 7 -21
8 -5 1 15 4 16 13 7 23 -23 38 -13 38 23 0 19 -4 35 -10 35 -5 0 -10 -12 -10
-27z"/>
<path d="M1687 2413 c-2 -10 -8 -26 -12 -35 -4 -10 -3 -18 3 -18 8 0 32 50 32
66 0 12 -19 1 -23 -13z"/>
<path d="M1027 2389 c-24 -14 -21 -44 6 -61 23 -16 47 -13 47 4 0 6 -7 8 -14
5 -11 -4 -13 -1 -9 10 5 12 2 15 -10 10 -20 -7 -22 4 -5 21 16 16 7 23 -15 11z"/>
<path d="M1740 2374 c-6 -14 -10 -29 -10 -34 0 -11 31 -22 39 -14 3 4 0 9 -6
11 -19 7 -16 23 5 23 14 0 15 2 2 10 -13 8 -12 10 3 10 10 0 15 5 12 10 -11
19 -35 10 -45 -16z"/>
<path d="M1810 2329 c-24 -33 -19 -55 5 -23 14 18 14 18 15 -9 0 -16 4 -26 10
-22 5 3 7 12 4 20 -4 8 1 18 10 21 9 3 16 15 16 25 0 30 -36 23 -60 -12z m45
11 c3 -5 -1 -10 -10 -10 -9 0 -13 5 -10 10 3 6 8 10 10 10 2 0 7 -4 10 -10z"/>
<path d="M937 2323 c-12 -12 -7 -63 6 -69 7 -2 25 1 39 9 22 11 24 15 13 30
-17 24 -38 22 -30 -3 3 -11 2 -20 -4 -20 -16 0 -24 21 -12 33 6 6 11 15 11 19
0 10 -14 11 -23 1z"/>
<path d="M1894 2292 c4 -12 2 -30 -4 -42 -15 -27 -2 -25 25 5 23 24 22 29 -14
50 -10 6 -12 2 -7 -13z"/>
<path d="M860 2233 c0 -38 10 -73 21 -73 5 0 7 11 3 24 -6 27 14 46 27 25 4
-7 11 -10 15 -6 9 9 -35 57 -53 57 -8 0 -13 -11 -13 -27z m30 -2 c0 -6 -4 -13
-10 -16 -5 -3 -10 1 -10 9 0 9 5 16 10 16 6 0 10 -4 10 -9z"/>
<path d="M1942 2227 c-12 -13 -22 -30 -22 -38 1 -8 11 -2 25 16 14 17 25 25
25 18 0 -6 -4 -14 -10 -18 -11 -7 -2 -35 11 -35 5 0 9 18 9 40 0 46 -8 49 -38
17z"/>
<path d="M1412 2093 c-16 -6 -42 -56 -42 -81 0 -10 11 -32 25 -48 30 -35 32
-69 5 -109 -13 -19 -20 -47 -20 -77 0 -49 -24 -88 -52 -88 -57 1 -89 14 -108
47 -22 38 -25 30 26 101 16 21 16 24 -6 47 -13 14 -27 25 -32 25 -19 0 -85
-72 -107 -115 -22 -45 -23 -50 -9 -99 12 -43 12 -58 0 -96 -11 -36 -11 -66 -3
-150 6 -58 8 -144 4 -191 -6 -94 3 -139 43 -201 13 -21 24 -49 24 -62 0 -20 7
-27 33 -34 60 -17 74 36 33 125 -24 50 -24 52 -6 68 31 28 62 15 86 -35 30
-64 46 -74 120 -77 75 -3 100 13 137 87 25 50 50 62 67 31 9 -17 5 -34 -20
-91 -38 -86 -34 -123 13 -118 16 2 33 10 37 18 4 8 15 29 24 45 73 130 87 266
64 635 0 8 3 41 7 72 10 76 -4 109 -64 148 -26 16 -51 30 -54 30 -4 0 -14 -14
-23 -32 -18 -34 -18 -34 32 -64 12 -7 15 -17 11 -35 -13 -47 -41 -71 -88 -75
-52 -6 -83 9 -109 51 -19 31 -19 31 5 84 33 70 32 102 -5 144 -33 39 -36 53
-15 81 11 14 12 23 4 33 -12 14 -16 15 -37 6z m12 -48 c-14 -33 -13 -35 16
-68 40 -46 38 -102 -6 -175 -2 -2 -12 -1 -23 3 -25 8 -18 25 10 25 10 0 19 5
19 10 0 6 -7 10 -16 10 -13 0 -14 3 -4 14 6 8 18 12 26 9 8 -3 14 -1 14 5 0 5
-8 13 -17 17 -17 6 -17 7 0 19 16 13 16 14 -4 19 -16 4 -19 11 -14 26 5 17 3
20 -11 14 -13 -5 -15 -2 -10 15 6 17 4 21 -8 16 -20 -8 -21 10 -1 29 8 8 12
17 9 20 -9 9 6 27 21 27 12 0 12 -5 -1 -35z m-201 -219 l-20 -25 -24 25 -24
26 24 19 c24 20 25 20 44 0 20 -19 20 -19 0 -45z m441 23 c-17 -18 -16 -19 14
-13 20 4 38 2 47 -6 17 -14 21 -35 5 -25 -6 4 -19 3 -28 -1 -13 -6 -11 -8 13
-13 17 -4 31 -13 33 -24 3 -15 -1 -17 -22 -11 -31 7 -36 -11 -6 -21 32 -10 25
-35 -10 -35 -35 0 -41 -17 -8 -22 34 -5 40 -61 35 -311 l-4 -217 -36 -74 c-21
-41 -37 -78 -37 -84 0 -15 -40 -26 -52 -14 -6 6 -7 23 -4 38 6 21 9 25 16 14
5 -8 12 -11 16 -7 4 3 2 13 -4 20 -14 16 -6 28 14 20 17 -6 19 8 3 24 -6 6 -8
17 -4 24 6 9 11 8 21 -5 8 -11 14 -13 19 -7 8 14 -3 31 -21 31 -8 0 -14 8 -14
18 0 26 -35 55 -57 48 -11 -3 -34 -35 -52 -71 -34 -65 -59 -87 -47 -41 3 14 2
28 -4 31 -5 3 -10 -3 -10 -14 0 -13 -7 -21 -16 -21 -12 0 -15 6 -10 25 5 20 3
25 -14 25 -15 0 -20 -7 -20 -25 0 -31 -18 -33 -30 -2 -9 22 -11 19 -14 -15 -2
-32 -21 -23 -43 21 -42 83 -78 101 -121 61 -27 -25 -27 -27 -2 -81 26 -58 27
-109 1 -109 -13 0 -30 25 -63 92 l-44 93 2 225 c3 284 1 270 36 263 40 -8 36
14 -4 25 -20 5 -34 16 -37 27 -3 18 -2 18 23 2 22 -15 26 -15 26 -2 0 8 -11
17 -25 21 -18 4 -25 13 -25 31 l0 24 31 -21 c39 -28 52 -16 15 13 -19 15 -25
27 -21 40 4 9 10 17 14 17 15 0 49 -46 55 -73 4 -16 18 -40 31 -53 44 -44 165
-25 165 26 0 29 37 21 75 -17 29 -29 40 -33 85 -33 62 0 85 11 105 50 21 41
19 63 -10 90 -23 22 -24 25 -9 41 9 10 22 15 30 12 13 -5 12 -8 -2 -24z m-234
-73 c0 -9 -7 -12 -20 -9 -11 3 -20 9 -20 14 0 5 9 9 20 9 11 0 20 -6 20 -14z
m33 -710 c15 -12 12 -13 -28 -12 -38 1 -43 3 -28 14 21 15 33 15 56 -2z"/>
<path d="M1416 1704 c-7 -17 0 -34 14 -34 14 0 18 25 5 37 -10 10 -14 9 -19
-3z"/>
<path d="M1234 1636 c22 -18 62 -21 71 -6 4 6 -6 10 -24 10 -16 0 -38 3 -48 6
-16 5 -16 4 1 -10z"/>
<path d="M1376 1641 c20 -21 87 -25 109 -6 20 16 19 16 -5 10 -34 -9 -50 -9
-85 0 -23 6 -27 5 -19 -4z"/>
<path d="M1536 1638 c7 -11 35 -10 53 1 10 6 3 9 -22 8 -20 0 -34 -5 -31 -9z"/>
<path d="M1633 1626 c-13 -6 -23 -15 -23 -20 0 -4 10 -5 23 -1 12 3 32 9 45
12 12 3 22 9 22 14 0 12 -40 9 -67 -5z"/>
<path d="M1130 1600 c0 -5 10 -10 23 -10 12 0 31 -7 41 -15 24 -18 46 -19 46
-2 0 6 -18 18 -40 25 -48 15 -70 15 -70 2z"/>
<path d="M1363 1593 c-24 -9 -13 -25 12 -19 14 4 35 1 47 -5 23 -13 98 4 98
21 0 13 -10 13 -49 -1 -24 -9 -35 -9 -44 0 -11 11 -42 13 -64 4z"/>
<path d="M1665 1574 c-16 -9 -41 -20 -55 -24 -21 -6 -22 -9 -8 -15 16 -6 128
38 128 50 0 11 -37 4 -65 -11z"/>
<path d="M1130 1540 c0 -5 11 -10 24 -10 13 0 35 -9 50 -21 15 -12 33 -18 43
-15 12 5 5 13 -30 31 -48 26 -87 32 -87 15z"/>
<path d="M1360 1531 c0 -10 45 -31 67 -31 26 0 83 23 83 33 0 5 -6 7 -14 4
-36 -14 -84 -17 -109 -8 -15 6 -27 7 -27 2z"/>
<path d="M1635 1496 c-35 -18 -37 -21 -18 -24 13 -2 33 4 45 12 12 9 30 16 40
16 10 0 18 5 18 10 0 16 -42 9 -85 -14z"/>
<path d="M1125 1480 c3 -5 12 -10 20 -10 7 0 26 -8 43 -17 18 -10 36 -14 48
-9 17 7 15 10 -13 20 -17 6 -35 14 -39 19 -11 11 -66 9 -59 -3z"/>
<path d="M1466 1475 c-15 -8 -48 -15 -72 -15 -23 0 -46 -4 -49 -10 -10 -16 92
-12 124 5 16 8 31 12 34 9 3 -3 11 -3 17 1 9 6 9 10 -1 16 -18 11 -19 11 -53
-6z"/>
<path d="M1664 1449 c-3 -6 -20 -17 -38 -24 -26 -12 -28 -15 -13 -21 12 -4 29
1 47 15 16 11 36 21 45 21 9 0 13 5 10 10 -8 13 -42 13 -51 -1z"/>
<path d="M1130 1420 c0 -5 6 -10 14 -10 7 0 27 -7 42 -15 33 -17 74 -20 74 -5
0 5 -16 12 -35 16 -19 3 -38 10 -41 15 -7 12 -54 11 -54 -1z"/>
<path d="M1361 1402 c-27 -9 -7 -18 37 -17 100 3 122 5 122 14 0 9 -134 11
-159 3z"/>
<path d="M1683 1382 c-12 -2 -27 -10 -33 -18 -7 -8 -21 -14 -31 -14 -11 0 -19
-4 -19 -10 0 -16 21 -12 74 14 48 23 52 35 9 28z"/>
<path d="M1155 1342 c33 -21 93 -33 101 -21 6 10 -12 20 -44 24 -15 2 -40 7
-57 10 l-30 7 30 -20z"/>
<path d="M1367 1354 c-11 -11 -9 -26 3 -19 5 3 19 1 31 -6 16 -8 32 -8 65 1
54 15 72 36 23 26 -45 -9 -70 -10 -94 -2 -11 4 -24 4 -28 0z"/>
<path d="M1703 1304 c-3 -9 -13 -14 -24 -11 -23 6 -26 -18 -4 -27 16 -6 55 26
55 44 0 16 -20 12 -27 -6z"/>
<path d="M1570 1292 c0 -4 9 -13 20 -20 11 -7 20 -19 20 -27 0 -8 5 -15 10
-15 19 0 10 39 -12 54 -24 17 -38 20 -38 8z"/>
<path d="M1247 1258 c-9 -18 -14 -35 -11 -37 2 -2 5 -2 7 0 1 2 12 19 25 37
16 23 19 32 9 32 -8 0 -22 -15 -30 -32z"/>
<path d="M1380 1276 c0 -8 7 -16 15 -20 9 -3 15 0 15 8 0 8 -7 16 -15 20 -9 3
-15 0 -15 -8z"/>
<path d="M1190 1270 c-8 -5 -26 -6 -40 -3 -22 6 -24 5 -11 -10 17 -21 45 -22
61 -2 16 19 10 27 -10 15z"/>
<path d="M1297 1262 c-17 -18 -23 -42 -11 -42 8 0 43 43 44 53 0 13 -17 7 -33
-11z"/>
<path d="M1455 1269 c-4 -6 -5 -12 -2 -15 7 -7 37 7 37 17 0 13 -27 11 -35 -2z"/>
<path d="M1540 1272 c0 -12 39 -46 45 -41 6 7 -24 49 -36 49 -5 0 -9 -4 -9 -8z"/>
<path d="M1375 1230 c10 -11 20 -18 23 -15 7 6 -18 35 -31 35 -5 0 -2 -9 8
-20z"/>
<path d="M1470 1235 c-16 -19 0 -19 26 0 16 12 16 14 3 15 -9 0 -22 -7 -29
-15z"/>
<path d="M1130 1212 c0 -11 41 -34 48 -28 3 4 -3 13 -14 21 -21 16 -34 19 -34
7z"/>
<path d="M1488 1196 c-15 -5 -30 -16 -33 -24 -8 -20 1 -26 17 -13 7 7 22 18
33 26 26 18 17 24 -17 11z"/>
<path d="M1350 1191 c0 -8 43 -41 55 -41 16 0 1 22 -25 35 -16 9 -30 11 -30 6z"/>
<path d="M1663 1192 c-7 -5 -2 -12 13 -19 13 -6 26 -7 29 -3 8 12 -28 30 -42
22z"/>
<path d="M1136 1152 c-2 -4 7 -12 20 -19 26 -12 32 -5 12 15 -14 14 -25 15
-32 4z"/>
<path d="M1163 1093 c9 -9 19 -14 23 -11 10 10 -6 28 -24 28 -15 0 -15 -1 1
-17z"/>
<path d="M1190 1045 c7 -8 16 -12 21 -9 13 8 1 24 -18 24 -13 0 -13 -3 -3 -15z"/>
<path d="M1196 657 c-14 -11 -16 -19 -9 -47 8 -32 43 -57 43 -31 0 6 -8 11
-17 12 -14 0 -12 3 5 10 13 5 21 13 17 18 -3 6 -13 7 -22 4 -11 -4 -14 -2 -11
8 3 8 13 13 23 11 10 -2 15 2 13 9 -6 19 -22 21 -42 6z"/>
<path d="M1498 659 c-19 -11 -26 -79 -8 -79 6 0 10 8 10 17 0 13 3 14 12 5 7
-7 19 -12 28 -12 13 1 12 3 -2 14 -13 9 -14 16 -6 24 11 11 5 42 -9 42 -4 0
-16 -5 -25 -11z m22 -18 c0 -6 -4 -13 -10 -16 -5 -3 -10 1 -10 9 0 9 5 16 10
16 6 0 10 -4 10 -9z"/>
<path d="M1320 638 c-1 -22 -1 -22 -15 -4 -17 23 -21 21 -30 -17 -5 -17 -3
-27 4 -27 6 0 11 8 11 17 0 13 3 14 12 5 7 -7 18 -12 25 -12 15 0 18 46 3 55
-6 3 -10 -4 -10 -17z"/>
<path d="M1381 646 c-14 -16 -4 -73 14 -80 18 -6 56 4 50 14 -3 5 -14 6 -25 3
-11 -3 -20 0 -20 6 0 6 5 11 10 11 6 0 10 5 10 11 0 6 -7 9 -15 5 -9 -3 -15 0
-15 9 0 8 9 15 21 15 11 0 17 5 14 10 -9 14 -31 12 -44 -4z"/>
<path d="M1587 644 c-13 -14 -7 -43 12 -53 23 -13 45 8 39 36 -3 18 -38 30
-51 17z m29 -41 c-11 -11 -19 6 -11 24 8 17 8 17 12 0 3 -10 2 -21 -1 -24z"/>
</g>
</svg>
