<?xml version="1.0" standalone="no"?>
<!DOCTYPE svg PUBLIC "-//W3C//DTD SVG 20010904//EN"
 "http://www.w3.org/TR/2001/REC-SVG-20010904/DTD/svg10.dtd">
<svg version="1.0" xmlns="http://www.w3.org/2000/svg"
 width="189.000000pt" height="151.000000pt" viewBox="0 0 189.000000 151.000000"
 preserveAspectRatio="xMidYMid meet">
<metadata>
Created by potrace 1.10, written by Peter Selinger 2001-2011
</metadata>
<g transform="translate(0.000000,151.000000) scale(0.100000,-0.100000)"
fill="#000000" stroke="none">
<path d="M1610 1499 c0 -5 5 -7 10 -4 6 3 10 8 10 11 0 2 -4 4 -10 4 -5 0 -10
-5 -10 -11z"/>
<path d="M140 1476 c0 -9 5 -16 10 -16 6 0 10 4 10 9 0 6 -4 13 -10 16 -5 3
-10 -1 -10 -9z"/>
<path d="M141 1404 c0 -11 3 -14 6 -6 3 7 2 16 -1 19 -3 4 -6 -2 -5 -13z"/>
<path d="M1496 1407 c3 -10 9 -15 12 -12 3 3 0 11 -7 18 -10 9 -11 8 -5 -6z"/>
<path d="M1567 1382 c-18 -20 -22 -42 -8 -42 5 0 11 10 15 22 4 18 8 20 17 11
22 -22 -75 -246 -128 -294 -55 -52 -62 -52 -110 0 -24 25 -43 49 -43 53 0 4
-12 19 -27 33 -21 20 -36 25 -58 22 -21 -3 -37 1 -52 15 -30 28 -98 36 -123
13 -18 -16 -20 -16 -48 3 -53 39 -106 33 -157 -16 -56 -53 -97 -80 -147 -98
-23 -8 -52 -24 -63 -34 -12 -11 -24 -18 -27 -15 -8 9 -56 -16 -62 -31 -7 -18
-1 -18 29 2 26 17 45 12 45 -12 0 -8 5 -14 11 -14 7 0 9 9 6 21 -7 27 23 54
75 69 20 6 51 22 68 36 27 23 30 24 30 7 0 -25 19 -43 45 -43 25 0 61 35 46
44 -5 4 -14 -1 -19 -10 -13 -23 -46 -13 -50 15 -5 29 30 67 76 82 30 10 38 9
63 -10 15 -11 33 -21 39 -21 8 0 10 -13 5 -39 -5 -32 -2 -43 19 -67 27 -31 36
-21 11 12 -18 23 -19 55 -3 89 16 34 56 37 114 6 30 -17 32 -20 19 -37 -8 -10
-15 -29 -15 -41 0 -24 27 -56 41 -48 13 9 11 25 -3 23 -21 -5 -22 52 -1 68 29
22 49 16 82 -23 18 -21 43 -50 58 -65 22 -22 26 -36 28 -90 1 -34 7 -92 14
-128 17 -89 -8 -252 -46 -298 -10 -12 -26 -33 -36 -47 -19 -26 -37 -28 -21 -3
5 7 16 34 24 59 14 40 14 52 2 95 -17 57 -18 76 -7 124 12 53 -8 25 -34 -47
-18 -51 -51 -118 -119 -242 -5 -8 -22 -22 -39 -31 -52 -27 -85 -51 -80 -57 5
-4 90 39 114 59 7 5 28 39 48 74 20 35 39 64 43 64 6 0 17 -6 60 -35 8 -6 -32
-76 -53 -93 -14 -11 -24 -26 -23 -33 2 -7 -9 -19 -24 -26 -16 -8 -28 -19 -28
-26 0 -8 3 -8 12 1 18 18 25 15 31 -17 4 -16 16 -39 28 -50 26 -24 28 -24 48
-12 12 8 13 14 3 36 -16 36 -15 55 4 55 11 0 15 -6 11 -20 -3 -12 -1 -17 5
-14 5 3 9 0 7 -7 -3 -28 1 -38 15 -33 23 9 39 61 34 109 -5 37 -2 47 18 66 36
34 75 143 81 232 4 54 3 77 -6 77 -7 0 -11 -20 -11 -55 0 -59 -29 -156 -55
-185 -20 -22 -19 -36 2 -19 15 13 15 12 4 -9 -6 -12 -21 -28 -31 -35 -17 -10
-20 -23 -20 -84 0 -47 -4 -73 -11 -73 -6 0 -9 7 -6 15 3 7 -2 23 -11 34 -13
15 -22 17 -41 10 -23 -9 -24 -23 -5 -74 13 -33 -32 2 -46 35 -13 31 -12 32 43
81 31 27 59 58 62 69 8 24 25 27 25 4 0 -8 5 -12 10 -9 6 4 8 14 5 24 -3 9 7
42 22 72 31 63 36 146 15 244 -8 33 -16 81 -19 107 -5 47 -5 47 33 63 39 16
83 59 109 108 9 15 23 27 33 27 47 0 121 77 141 148 11 38 -4 53 -24 26 -19
-25 -18 -35 2 -27 14 6 14 2 -3 -26 -29 -49 -82 -101 -104 -101 -11 0 -20 1
-20 3 0 2 12 28 27 58 17 35 27 71 27 103 1 54 -11 66 -37 38z m-163 -684 c-2
-23 -9 -47 -15 -52 -9 -8 -10 -2 -5 23 3 18 6 42 6 52 0 11 4 19 9 19 4 0 7
-19 5 -42z m-107 -104 c-6 -6 -67 23 -67 33 0 3 10 22 22 41 l22 35 14 -52 c8
-28 12 -54 9 -57z m-42 -134 c-10 -11 -23 -20 -28 -20 -6 0 -2 9 8 20 10 11
23 20 28 20 6 0 2 -9 -8 -20z"/>
<path d="M865 1270 c-3 -6 1 -7 9 -4 18 7 21 14 7 14 -6 0 -13 -4 -16 -10z"/>
<path d="M26 1255 c4 -8 8 -15 10 -15 2 0 4 7 4 15 0 8 -4 15 -10 15 -5 0 -7
-7 -4 -15z"/>
<path d="M55 1260 c-3 -5 -1 -10 4 -10 6 0 11 5 11 10 0 6 -2 10 -4 10 -3 0
-8 -4 -11 -10z"/>
<path d="M1515 1260 c-3 -5 -1 -10 4 -10 6 0 11 5 11 10 0 6 -2 10 -4 10 -3 0
-8 -4 -11 -10z"/>
<path d="M847 1249 c7 -7 15 -10 18 -7 3 3 -2 9 -12 12 -14 6 -15 5 -6 -5z"/>
<path d="M57 1228 c-7 -4 3 -8 25 -8 20 0 44 -3 52 -6 12 -5 15 -2 10 10 -7
17 -62 20 -87 4z"/>
<path d="M170 1229 c0 -5 5 -7 10 -4 6 3 10 8 10 11 0 2 -4 4 -10 4 -5 0 -10
-5 -10 -11z"/>
<path d="M750 1191 c0 -7 -5 -9 -12 -5 -7 5 -8 3 -3 -5 5 -9 10 -10 18 -2 6 6
8 14 4 18 -4 3 -7 1 -7 -6z"/>
<path d="M906 1174 c-5 -14 -4 -15 9 -4 17 14 19 20 6 20 -5 0 -12 -7 -15 -16z"/>
<path d="M864 1148 l-19 -23 23 19 c21 18 27 26 19 26 -2 0 -12 -10 -23 -22z"/>
<path d="M735 1150 c-16 -7 -17 -9 -3 -9 9 -1 20 4 23 9 7 11 7 11 -20 0z"/>
<path d="M1075 1140 c-3 -5 -1 -10 4 -10 6 0 11 5 11 10 0 6 -2 10 -4 10 -3 0
-8 -4 -11 -10z"/>
<path d="M1108 1123 c7 -3 16 -2 19 1 4 3 -2 6 -13 5 -11 0 -14 -3 -6 -6z"/>
<path d="M540 1110 c-13 -8 -12 -10 3 -10 9 0 17 5 17 10 0 12 -1 12 -20 0z"/>
<path d="M581 1101 c-9 -6 -7 -10 8 -14 12 -3 21 -1 21 3 0 14 -15 19 -29 11z"/>
<path d="M1070 1094 c0 -8 5 -12 10 -9 6 3 10 10 10 16 0 5 -4 9 -10 9 -5 0
-10 -7 -10 -16z"/>
<path d="M1509 1073 c-13 -16 -12 -17 4 -4 16 13 21 21 13 21 -2 0 -10 -8 -17
-17z"/>
<path d="M128 1073 c7 -3 16 -2 19 1 4 3 -2 6 -13 5 -11 0 -14 -3 -6 -6z"/>
<path d="M726 1062 c-3 -5 1 -9 9 -9 8 0 12 4 9 9 -3 4 -7 8 -9 8 -2 0 -6 -4
-9 -8z"/>
<path d="M467 1049 c7 -7 15 -10 18 -7 3 3 -2 9 -12 12 -14 6 -15 5 -6 -5z"/>
<path d="M286 1027 c3 -10 9 -15 12 -12 3 3 0 11 -7 18 -10 9 -11 8 -5 -6z"/>
<path d="M510 1030 c-9 -6 -10 -10 -3 -10 6 0 15 5 18 10 8 12 4 12 -15 0z"/>
<path d="M440 1025 c0 -5 5 -17 10 -25 5 -8 10 -10 10 -5 0 6 -5 17 -10 25 -5
8 -10 11 -10 5z"/>
<path d="M1848 1013 c7 -3 16 -2 19 1 4 3 -2 6 -13 5 -11 0 -14 -3 -6 -6z"/>
<path d="M16 1003 c-3 -4 -6 -11 -6 -16 0 -6 3 -7 7 -4 3 4 12 -1 19 -11 9
-11 13 -13 14 -4 0 17 -25 43 -34 35z"/>
<path d="M158 1003 c7 -3 16 -2 19 1 4 3 -2 6 -13 5 -11 0 -14 -3 -6 -6z"/>
<path d="M499 978 c-74 -84 -90 -104 -95 -123 -3 -11 -12 -37 -21 -57 -13 -32
-20 -37 -39 -32 -45 11 -123 -61 -95 -89 5 -5 7 -16 4 -24 -4 -9 2 -16 15 -20
20 -5 20 -7 7 -26 -8 -12 -15 -31 -15 -43 0 -12 -14 -49 -32 -84 l-32 -62 34
-32 c20 -18 50 -54 67 -82 45 -70 70 -94 98 -94 31 0 31 13 1 53 -26 35 -66
111 -66 125 0 9 70 62 82 62 3 0 0 -18 -6 -41 -9 -36 -8 -46 18 -95 46 -87
123 -142 140 -98 3 9 11 12 18 8 10 -5 10 -4 1 6 -10 11 -15 11 -28 0 -24 -20
-59 2 -99 62 -40 61 -43 70 -33 119 10 50 28 64 59 47 13 -7 24 -14 26 -14 2
-1 -6 -17 -17 -35 -24 -40 -26 -70 -7 -107 18 -34 54 -67 63 -58 4 4 -2 15
-13 24 -45 36 -54 80 -28 134 l16 34 108 -2 c60 -2 118 -7 129 -13 11 -6 37
-11 58 -11 46 0 63 -14 63 -51 0 -66 -36 -109 -105 -129 -22 -6 -49 -18 -59
-25 -16 -12 -17 -17 -6 -30 19 -22 61 -15 145 26 66 33 72 38 104 102 36 70
52 80 57 35 1 -15 10 -38 19 -52 24 -36 16 -55 -34 -90 -47 -33 -69 -61 -59
-72 13 -12 53 5 99 43 79 64 93 102 64 182 -13 38 -13 41 4 41 10 0 29 9 42
21 21 18 22 20 4 14 -11 -4 -48 -16 -83 -28 -50 -17 -64 -18 -75 -8 -10 10 -7
16 13 33 26 21 67 112 47 105 -6 -2 -15 -16 -20 -33 -5 -16 -25 -45 -44 -65
-23 -25 -31 -39 -23 -44 8 -5 7 -11 -3 -23 -8 -10 -17 -29 -21 -44 -11 -47
-53 -85 -126 -114 -43 -17 -75 -24 -87 -19 -15 6 -13 9 12 17 51 16 111 47
128 66 21 23 30 114 13 137 -6 9 -31 19 -56 21 -25 3 -57 10 -71 15 -14 6 -76
11 -137 13 -92 2 -115 5 -132 21 -11 10 -20 26 -20 36 0 10 -4 21 -10 24 -6 4
-10 -6 -10 -24 0 -32 -22 -51 -57 -51 -11 0 -34 -15 -52 -34 l-33 -34 22 -48
c12 -27 33 -64 47 -82 27 -35 25 -54 -3 -31 -9 7 -37 44 -61 81 -24 37 -56 76
-71 87 l-27 19 27 54 c16 29 33 72 39 96 5 24 19 52 30 63 10 10 19 24 19 29
0 15 -18 12 -27 -5 -11 -19 -30 -6 -38 26 -8 32 25 69 62 69 20 0 22 -4 17
-24 -7 -31 30 -57 41 -29 5 15 7 15 15 3 7 -11 11 -9 19 12 5 14 15 29 22 34
9 5 10 2 5 -12 -5 -10 -13 -34 -18 -53 -5 -18 -29 -58 -54 -87 -29 -37 -44
-64 -44 -84 0 -45 17 -45 40 0 12 23 34 55 51 72 16 17 33 47 39 67 5 20 16
45 24 56 14 18 14 16 4 -17 -13 -43 -6 -58 17 -35 17 18 20 31 4 22 -10 -7 -8
22 7 93 6 32 -12 28 -87 -17 -35 -21 -65 -38 -67 -37 -1 2 11 27 28 57 16 30
30 62 30 72 0 11 12 31 28 45 15 15 35 39 45 55 12 18 26 27 43 27 22 0 25 2
14 15 -17 20 -27 19 -51 -7z m1 -223 c0 -2 -11 -21 -25 -41 -14 -20 -25 -45
-25 -55 0 -11 -15 -36 -34 -56 -18 -21 -43 -56 -54 -78 -12 -22 -21 -34 -22
-27 0 25 28 78 59 107 17 16 36 47 42 70 12 46 35 85 49 85 6 0 10 -2 10 -5z
m588 -414 c21 -69 16 -93 -30 -138 -44 -42 -86 -68 -95 -60 -2 3 8 13 24 23
42 26 83 66 83 81 0 7 -9 27 -20 45 -32 54 -27 78 21 87 3 0 11 -16 17 -38z"/>
<path d="M1040 990 c0 -5 5 -10 11 -10 5 0 7 5 4 10 -3 6 -8 10 -11 10 -2 0
-4 -4 -4 -10z"/>
<path d="M60 981 c0 -9 24 -21 41 -21 6 0 7 5 4 10 -4 6 -11 8 -16 5 -5 -4 -9
-1 -9 4 0 6 -4 11 -10 11 -5 0 -10 -4 -10 -9z"/>
<path d="M130 981 c0 -6 4 -13 10 -16 6 -3 7 1 4 9 -7 18 -14 21 -14 7z"/>
<path d="M640 986 c0 -2 9 -6 20 -9 11 -3 18 -1 14 4 -5 9 -34 13 -34 5z"/>
<path d="M1205 980 c3 -5 8 -10 11 -10 2 0 4 5 4 10 0 6 -5 10 -11 10 -5 0 -7
-4 -4 -10z"/>
<path d="M1415 980 c3 -5 8 -10 11 -10 2 0 4 5 4 10 0 6 -5 10 -11 10 -5 0 -7
-4 -4 -10z"/>
<path d="M287 966 c-4 -10 -1 -13 8 -9 8 3 12 9 9 14 -7 12 -11 11 -17 -5z"/>
<path d="M1805 970 c-3 -5 -1 -10 4 -10 6 0 11 5 11 10 0 6 -2 10 -4 10 -3 0
-8 -4 -11 -10z"/>
<path d="M703 963 c9 -2 23 -2 30 0 6 3 -1 5 -18 5 -16 0 -22 -2 -12 -5z"/>
<path d="M385 940 c3 -5 8 -10 11 -10 2 0 4 5 4 10 0 6 -5 10 -11 10 -5 0 -7
-4 -4 -10z"/>
<path d="M77 929 c7 -7 15 -10 18 -7 3 3 -2 9 -12 12 -14 6 -15 5 -6 -5z"/>
<path d="M290 936 c0 -9 30 -14 35 -6 4 6 -3 10 -14 10 -12 0 -21 -2 -21 -4z"/>
<path d="M407 923 c-4 -3 -7 -11 -7 -17 0 -6 5 -5 12 2 6 6 9 14 7 17 -3 3 -9
2 -12 -2z"/>
<path d="M198 913 c7 -3 16 -2 19 1 4 3 -2 6 -13 5 -11 0 -14 -3 -6 -6z"/>
<path d="M705 910 c3 -5 8 -10 11 -10 2 0 4 5 4 10 0 6 -5 10 -11 10 -5 0 -7
-4 -4 -10z"/>
<path d="M930 906 c0 -2 7 -7 16 -10 8 -3 12 -2 9 4 -6 10 -25 14 -25 6z"/>
<path d="M785 873 c-13 -61 -48 -180 -62 -207 -31 -61 -153 -170 -170 -152 -4
3 -4 7 -2 9 56 39 83 66 105 103 l27 45 -13 105 c-7 57 -16 104 -20 104 -13 0
-19 -40 -10 -68 5 -15 11 -42 14 -61 5 -27 3 -32 -10 -27 -9 3 -20 6 -25 6
-15 0 -10 32 9 53 17 19 16 19 -18 12 -37 -7 -51 -20 -77 -70 -15 -28 -15 -29
0 -16 12 10 32 11 73 6 55 -7 56 -7 51 -34 -10 -47 -48 -101 -89 -127 -25 -16
-38 -31 -36 -42 10 -48 120 21 182 114 38 57 45 62 86 69 71 10 140 9 153 -4
6 -6 17 -11 24 -11 7 0 37 -9 68 -21 l55 -20 0 -64 c0 -54 -4 -68 -26 -94 -14
-17 -21 -31 -16 -31 6 0 22 14 36 31 21 24 26 41 26 84 0 88 -9 100 -85 119
-64 16 -111 36 -203 87 -46 25 -45 21 -25 107 3 12 0 22 -6 22 -6 0 -13 -12
-16 -27z m44 -160 c-66 -19 -73 -12 -54 54 3 8 19 4 51 -14 l47 -26 -44 -14z
m-229 42 c0 -8 -9 -15 -20 -15 -22 0 -27 15 -7 23 21 9 27 7 27 -8z"/>
<path d="M702 870 c0 -14 2 -19 5 -12 2 6 2 18 0 25 -3 6 -5 1 -5 -13z"/>
<path d="M845 860 c3 -5 8 -10 11 -10 2 0 4 5 4 10 0 6 -5 10 -11 10 -5 0 -7
-4 -4 -10z"/>
<path d="M450 835 c-7 -14 -10 -28 -7 -31 4 -4 11 6 17 21 14 36 7 42 -10 10z"/>
<path d="M720 850 c0 -5 7 -10 16 -10 8 0 12 5 9 10 -3 6 -10 10 -16 10 -5 0
-9 -4 -9 -10z"/>
<path d="M170 830 c20 -13 33 -13 25 0 -3 6 -14 10 -23 10 -15 0 -15 -2 -2
-10z"/>
<path d="M480 831 c0 -6 4 -12 8 -15 5 -3 9 1 9 9 0 8 -4 15 -9 15 -4 0 -8 -4
-8 -9z"/>
<path d="M553 824 c-7 -7 -8 -17 -2 -25 7 -11 9 -10 9 5 0 11 5 16 14 13 8 -3
16 0 19 6 6 16 -26 17 -40 1z"/>
<path d="M20 826 c0 -2 7 -7 16 -10 8 -3 12 -2 9 4 -6 10 -25 14 -25 6z"/>
<path d="M953 823 c9 -2 23 -2 30 0 6 3 -1 5 -18 5 -16 0 -22 -2 -12 -5z"/>
<path d="M216 804 c-9 -8 -13 -21 -9 -27 4 -7 8 -6 11 3 2 8 11 21 20 28 9 6
11 12 5 12 -7 0 -19 -7 -27 -16z"/>
<path d="M300 806 c0 -9 5 -16 10 -16 6 0 10 4 10 9 0 6 -4 13 -10 16 -5 3
-10 -1 -10 -9z"/>
<path d="M120 799 c0 -5 4 -8 9 -5 5 4 12 0 14 -6 3 -8 6 -6 6 5 1 9 -6 17
-14 17 -8 0 -15 -5 -15 -11z"/>
<path d="M276 795 c4 -8 8 -15 10 -15 2 0 4 7 4 15 0 8 -4 15 -10 15 -5 0 -7
-7 -4 -15z"/>
<path d="M160 770 c0 -5 5 -10 10 -10 6 0 10 5 10 10 0 6 -4 10 -10 10 -5 0
-10 -4 -10 -10z"/>
<path d="M225 750 c3 -5 10 -10 16 -10 5 0 9 5 9 10 0 6 -7 10 -16 10 -8 0
-12 -4 -9 -10z"/>
<path d="M910 756 c0 -2 7 -7 16 -10 8 -3 12 -2 9 4 -6 10 -25 14 -25 6z"/>
<path d="M180 730 c0 -5 5 -10 10 -10 6 0 10 5 10 10 0 6 -4 10 -10 10 -5 0
-10 -4 -10 -10z"/>
<path d="M140 700 c0 -5 7 -10 16 -10 8 0 12 5 9 10 -3 6 -10 10 -16 10 -5 0
-9 -4 -9 -10z"/>
<path d="M282 691 c4 -13 18 -16 19 -4 0 4 -5 9 -11 12 -7 2 -11 -2 -8 -8z"/>
<path d="M570 680 c0 -5 5 -10 10 -10 6 0 10 5 10 10 0 6 -4 10 -10 10 -5 0
-10 -4 -10 -10z"/>
<path d="M178 673 c7 -3 16 -2 19 1 4 3 -2 6 -13 5 -11 0 -14 -3 -6 -6z"/>
<path d="M390 665 c0 -8 5 -15 10 -15 6 0 10 7 10 15 0 8 -4 15 -10 15 -5 0
-10 -7 -10 -15z"/>
<path d="M923 673 c-15 -5 -17 -23 -4 -23 5 0 11 7 15 15 3 8 4 15 3 14 -1 0
-8 -3 -14 -6z"/>
<path d="M1720 676 c0 -2 7 -7 16 -10 8 -3 12 -2 9 4 -6 10 -25 14 -25 6z"/>
<path d="M100 658 c0 -9 7 -19 16 -22 15 -6 15 -4 3 11 -7 10 -15 20 -16 22
-2 2 -3 -3 -3 -11z"/>
<path d="M540 660 c-9 -6 -10 -10 -3 -10 6 0 15 5 18 10 8 12 4 12 -15 0z"/>
<path d="M811 654 c0 -11 3 -14 6 -6 3 7 2 16 -1 19 -3 4 -6 -2 -5 -13z"/>
<path d="M835 661 c-6 -11 9 -23 19 -14 9 9 7 23 -3 23 -6 0 -12 -4 -16 -9z"/>
<path d="M1168 663 c7 -3 16 -2 19 1 4 3 -2 6 -13 5 -11 0 -14 -3 -6 -6z"/>
<path d="M600 644 c0 -8 5 -12 10 -9 6 3 10 10 10 16 0 5 -4 9 -10 9 -5 0 -10
-7 -10 -16z"/>
<path d="M1475 649 c-4 -6 -5 -12 -2 -15 2 -3 7 2 10 11 7 17 1 20 -8 4z"/>
<path d="M775 639 c-10 -15 3 -25 16 -12 7 7 7 13 1 17 -6 3 -14 1 -17 -5z"/>
<path d="M1046 641 c-4 -7 -5 -15 -2 -18 9 -9 19 4 14 18 -4 11 -6 11 -12 0z"/>
<path d="M1873 613 c-42 -140 -54 -181 -58 -203 -2 -14 -9 -50 -14 -80 -6 -30
-17 -107 -26 -170 -9 -63 -18 -125 -22 -137 -4 -17 -1 -23 11 -23 9 0 16 8 16
20 0 17 3 19 19 10 25 -13 91 -13 91 0 0 6 -16 10 -36 10 -58 0 -73 14 -69 60
2 23 9 64 15 93 5 29 10 63 10 77 -1 33 5 84 12 96 3 5 9 27 13 49 4 22 11 45
17 52 5 7 7 17 3 23 -4 6 -2 16 3 23 12 15 35 113 30 127 -2 6 -9 -6 -15 -27z"/>
<path d="M495 619 c-4 -6 -5 -13 -2 -16 7 -7 27 6 27 18 0 12 -17 12 -25 -2z"/>
<path d="M560 621 c0 -5 6 -14 14 -20 12 -10 13 -8 9 8 -5 21 -23 30 -23 12z"/>
<path d="M205 600 c3 -5 8 -10 11 -10 2 0 4 5 4 10 0 6 -5 10 -11 10 -5 0 -7
-4 -4 -10z"/>
<path d="M845 601 c-6 -11 9 -23 19 -14 9 9 7 23 -3 23 -6 0 -12 -4 -16 -9z"/>
<path d="M915 600 c3 -5 8 -10 11 -10 2 0 4 5 4 10 0 6 -5 10 -11 10 -5 0 -7
-4 -4 -10z"/>
<path d="M460 590 c0 -5 5 -10 11 -10 5 0 7 5 4 10 -3 6 -8 10 -11 10 -2 0 -4
-4 -4 -10z"/>
<path d="M721 574 c0 -11 3 -14 6 -6 3 7 2 16 -1 19 -3 4 -6 -2 -5 -13z"/>
<path d="M955 579 c-4 -6 -5 -13 -2 -16 7 -7 27 6 27 18 0 12 -17 12 -25 -2z"/>
<path d="M1037 561 c-4 -17 -3 -21 5 -13 5 5 8 16 6 23 -3 8 -7 3 -11 -10z"/>
<path d="M1230 564 c0 -8 5 -12 10 -9 6 3 10 10 10 16 0 5 -4 9 -10 9 -5 0
-10 -7 -10 -16z"/>
<path d="M220 560 c0 -5 5 -10 10 -10 6 0 10 5 10 10 0 6 -4 10 -10 10 -5 0
-10 -4 -10 -10z"/>
<path d="M300 561 c0 -6 5 -13 10 -16 6 -3 10 1 10 9 0 9 -4 16 -10 16 -5 0
-10 -4 -10 -9z"/>
<path d="M920 561 c0 -5 7 -12 16 -15 14 -5 15 -4 4 9 -14 17 -20 19 -20 6z"/>
<path d="M490 550 c0 -5 5 -10 10 -10 6 0 10 5 10 10 0 6 -4 10 -10 10 -5 0
-10 -4 -10 -10z"/>
<path d="M700 550 c0 -5 5 -10 11 -10 5 0 7 5 4 10 -3 6 -8 10 -11 10 -2 0 -4
-4 -4 -10z"/>
<path d="M980 550 c-9 -6 -10 -10 -3 -10 6 0 15 5 18 10 8 12 4 12 -15 0z"/>
<path d="M820 546 c0 -2 7 -9 15 -16 9 -7 15 -8 15 -2 0 5 -7 12 -15 16 -8 3
-15 4 -15 2z"/>
<path d="M1195 523 c-18 -28 -18 -28 2 -10 11 9 23 14 27 10 4 -4 4 0 0 10 -8
22 -9 22 -29 -10z"/>
<path d="M666 532 c-3 -5 1 -9 9 -9 8 0 15 4 15 9 0 4 -4 8 -9 8 -6 0 -12 -4
-15 -8z"/>
<path d="M101 526 c12 -10 60 -16 54 -6 -3 5 -18 10 -32 10 -15 0 -24 -2 -22
-4z"/>
<path d="M296 515 c4 -8 8 -15 10 -15 2 0 4 7 4 15 0 8 -4 15 -10 15 -5 0 -7
-7 -4 -15z"/>
<path d="M886 518 c3 -5 10 -6 15 -3 13 9 11 12 -6 12 -8 0 -12 -4 -9 -9z"/>
<path d="M779 511 c7 -5 11 -13 7 -19 -3 -6 -3 -13 2 -16 4 -2 9 6 10 20 1 17
-3 24 -16 24 -13 0 -14 -2 -3 -9z"/>
<path d="M978 508 c6 -6 18 -8 28 -6 14 3 12 5 -9 10 -19 3 -25 2 -19 -4z"/>
<path d="M115 500 c3 -5 8 -10 11 -10 2 0 4 5 4 10 0 6 -5 10 -11 10 -5 0 -7
-4 -4 -10z"/>
<path d="M707 496 c-4 -10 -1 -13 9 -9 7 3 14 9 14 14 0 14 -17 10 -23 -5z"/>
<path d="M655 490 c-3 -5 -1 -10 4 -10 6 0 11 5 11 10 0 6 -2 10 -4 10 -3 0
-8 -4 -11 -10z"/>
<path d="M280 464 c0 -8 5 -12 10 -9 6 3 10 10 10 16 0 5 -4 9 -10 9 -5 0 -10
-7 -10 -16z"/>
<path d="M1170 456 c0 -8 5 -18 10 -21 6 -3 10 1 10 9 0 8 -4 18 -10 21 -5 3
-10 -1 -10 -9z"/>
<path d="M1300 460 c0 -5 5 -10 10 -10 6 0 10 5 10 10 0 6 -4 10 -10 10 -5 0
-10 -4 -10 -10z"/>
<path d="M163 428 c-19 -30 -31 -58 -23 -53 5 3 15 19 24 35 15 30 14 41 -1
18z"/>
<path d="M920 429 c0 -5 5 -7 10 -4 6 3 10 8 10 11 0 2 -4 4 -10 4 -5 0 -10
-5 -10 -11z"/>
<path d="M1486 413 c-6 -14 -5 -15 5 -6 7 7 10 15 7 18 -3 3 -9 -2 -12 -12z"/>
<path d="M170 387 c0 -9 4 -18 9 -21 5 -4 8 1 7 9 -3 21 -16 31 -16 12z"/>
<path d="M678 393 c6 -2 18 -2 25 0 6 3 1 5 -13 5 -14 0 -19 -2 -12 -5z"/>
<path d="M46 382 c-2 -4 4 -9 15 -9 11 -1 17 2 14 8 -7 11 -22 12 -29 1z"/>
<path d="M580 380 c0 -5 5 -10 11 -10 5 0 7 5 4 10 -3 6 -8 10 -11 10 -2 0 -4
-4 -4 -10z"/>
<path d="M620 380 c0 -5 5 -10 10 -10 6 0 10 5 10 10 0 6 -4 10 -10 10 -5 0
-10 -4 -10 -10z"/>
<path d="M795 380 c3 -5 11 -10 16 -10 6 0 7 5 4 10 -3 6 -11 10 -16 10 -6 0
-7 -4 -4 -10z"/>
<path d="M555 370 c-3 -5 -1 -10 4 -10 6 0 11 5 11 10 0 6 -2 10 -4 10 -3 0
-8 -4 -11 -10z"/>
<path d="M667 369 c7 -7 15 -10 18 -7 3 3 -2 9 -12 12 -14 6 -15 5 -6 -5z"/>
<path d="M1497 359 c7 -7 15 -10 18 -7 3 3 -2 9 -12 12 -14 6 -15 5 -6 -5z"/>
<path d="M1878 304 c-2 -36 -1 -85 3 -108 4 -29 7 -9 8 67 0 59 -1 107 -3 107
-2 0 -6 -30 -8 -66z"/>
<path d="M1656 351 c-3 -4 6 -6 19 -3 14 2 25 6 25 8 0 8 -39 4 -44 -5z"/>
<path d="M139 308 c4 -28 6 -29 9 -9 2 13 0 27 -5 32 -6 6 -7 -3 -4 -23z"/>
<path d="M565 330 c-3 -5 -1 -10 4 -10 6 0 11 5 11 10 0 6 -2 10 -4 10 -3 0
-8 -4 -11 -10z"/>
<path d="M56 321 c-3 -5 1 -14 8 -20 12 -10 13 -8 9 8 -6 23 -9 25 -17 12z"/>
<path d="M240 315 c0 -8 4 -15 10 -15 5 0 7 7 4 15 -4 8 -8 15 -10 15 -2 0 -4
-7 -4 -15z"/>
<path d="M698 323 c7 -3 16 -2 19 1 4 3 -2 6 -13 5 -11 0 -14 -3 -6 -6z"/>
<path d="M102 300 c0 -14 2 -19 5 -12 2 6 2 18 0 25 -3 6 -5 1 -5 -13z"/>
<path d="M1491 294 c0 -11 3 -14 6 -6 3 7 2 16 -1 19 -3 4 -6 -2 -5 -13z"/>
<path d="M266 281 c-4 -7 -5 -15 -2 -18 9 -9 19 4 14 18 -4 11 -6 11 -12 0z"/>
<path d="M1161 264 c0 -11 3 -14 6 -6 3 7 2 16 -1 19 -3 4 -6 -2 -5 -13z"/>
<path d="M75 260 c3 -5 8 -10 11 -10 2 0 4 5 4 10 0 6 -5 10 -11 10 -5 0 -7
-4 -4 -10z"/>
<path d="M1473 249 c9 -6 15 -14 12 -20 -7 -10 8 -13 18 -3 8 9 -18 34 -35 34
-8 0 -6 -5 5 -11z"/>
<path d="M1745 251 c-3 -5 -1 -12 5 -16 5 -3 10 1 10 9 0 18 -6 21 -15 7z"/>
<path d="M173 233 c9 -2 25 -2 35 0 9 3 1 5 -18 5 -19 0 -27 -2 -17 -5z"/>
<path d="M127 209 c4 -13 8 -18 11 -10 2 7 -1 18 -6 23 -8 8 -9 4 -5 -13z"/>
<path d="M1435 220 c-3 -6 1 -7 9 -4 18 7 21 14 7 14 -6 0 -13 -4 -16 -10z"/>
<path d="M1678 223 c6 -2 18 -2 25 0 6 3 1 5 -13 5 -14 0 -19 -2 -12 -5z"/>
<path d="M83 203 c9 -9 20 -13 24 -9 4 4 1 11 -7 16 -25 16 -35 11 -17 -7z"/>
<path d="M150 210 c0 -5 5 -10 11 -10 5 0 7 5 4 10 -3 6 -8 10 -11 10 -2 0 -4
-4 -4 -10z"/>
<path d="M205 210 c3 -5 16 -10 28 -10 18 0 19 2 7 10 -20 13 -43 13 -35 0z"/>
<path d="M1130 209 c0 -5 5 -7 10 -4 6 3 10 8 10 11 0 2 -4 4 -10 4 -5 0 -10
-5 -10 -11z"/>
<path d="M268 203 c7 -3 16 -2 19 1 4 3 -2 6 -13 5 -11 0 -14 -3 -6 -6z"/>
<path d="M566 191 c-4 -6 -2 -11 4 -11 6 0 8 -4 5 -10 -3 -5 -1 -10 4 -10 13
0 14 10 2 29 -6 9 -11 10 -15 2z"/>
<path d="M605 190 c3 -5 8 -10 11 -10 2 0 4 5 4 10 0 6 -5 10 -11 10 -5 0 -7
-4 -4 -10z"/>
<path d="M68 174 c13 -25 42 -50 42 -37 0 5 -12 20 -26 34 -24 21 -26 22 -16
3z"/>
<path d="M171 176 c-8 -10 -8 -21 -1 -41 6 -15 8 -31 4 -36 -3 -5 -1 -9 5 -9
15 0 19 23 8 54 -7 21 -6 30 4 37 8 5 9 9 3 9 -6 0 -17 -6 -23 -14z"/>
<path d="M447 183 c-4 -3 -7 -11 -7 -17 0 -6 4 -4 10 4 8 12 11 12 28 -3 26
-24 39 -21 17 3 -18 20 -36 25 -48 13z"/>
<path d="M517 175 c3 -8 9 -12 14 -9 12 7 11 11 -5 17 -10 4 -13 1 -9 -8z"/>
<path d="M6 155 c4 -8 8 -15 10 -15 2 0 4 7 4 15 0 8 -4 15 -10 15 -5 0 -7 -7
-4 -15z"/>
<path d="M350 160 c0 -5 5 -10 10 -10 6 0 10 5 10 10 0 6 -4 10 -10 10 -5 0
-10 -4 -10 -10z"/>
<path d="M400 160 c0 -5 5 -10 10 -10 6 0 10 5 10 10 0 6 -4 10 -10 10 -5 0
-10 -4 -10 -10z"/>
<path d="M257 143 c-3 -5 -1 -17 4 -28 7 -17 8 -17 8 8 1 27 -4 34 -12 20z"/>
<path d="M460 140 c0 -5 5 -10 11 -10 5 0 7 5 4 10 -3 6 -8 10 -11 10 -2 0 -4
-4 -4 -10z"/>
<path d="M520 130 c0 -5 7 -10 15 -10 8 0 15 5 15 10 0 6 -7 10 -15 10 -8 0
-15 -4 -15 -10z"/>
<path d="M1724 125 c-4 -8 -15 -15 -25 -15 -11 0 -19 -7 -19 -16 0 -14 5 -13
32 5 34 21 48 41 29 41 -7 0 -14 -7 -17 -15z"/>
<path d="M135 120 c3 -5 8 -10 11 -10 2 0 4 5 4 10 0 6 -5 10 -11 10 -5 0 -7
-4 -4 -10z"/>
<path d="M295 120 c3 -5 8 -10 11 -10 2 0 4 5 4 10 0 6 -5 10 -11 10 -5 0 -7
-4 -4 -10z"/>
<path d="M365 120 c3 -5 8 -10 11 -10 2 0 4 5 4 10 0 6 -5 10 -11 10 -5 0 -7
-4 -4 -10z"/>
<path d="M490 111 c0 -5 11 -16 25 -25 22 -14 25 -15 25 -1 0 8 -9 15 -21 15
-11 0 -17 5 -14 10 3 6 1 10 -4 10 -6 0 -11 -4 -11 -9z"/>
<path d="M580 108 c0 -9 -6 -19 -12 -21 -10 -4 -10 -6 0 -6 14 -1 28 26 18 36
-3 4 -6 -1 -6 -9z"/>
<path d="M1205 110 c-3 -5 1 -10 10 -10 9 0 13 5 10 10 -3 6 -8 10 -10 10 -2
0 -7 -4 -10 -10z"/>
<path d="M80 102 c0 -4 9 -8 20 -9 11 -1 20 2 20 8 0 5 -9 9 -20 9 -11 0 -20
-4 -20 -8z"/>
<path d="M720 99 c0 -5 5 -7 10 -4 6 3 10 8 10 11 0 2 -4 4 -10 4 -5 0 -10 -5
-10 -11z"/>
<path d="M1830 100 c0 -5 8 -10 18 -10 10 0 23 -5 30 -12 9 -9 12 -9 12 0 0 7
-12 17 -26 22 -32 12 -34 12 -34 0z"/>
<path d="M130 80 c0 -5 5 -10 11 -10 5 0 7 5 4 10 -3 6 -8 10 -11 10 -2 0 -4
-4 -4 -10z"/>
<path d="M865 80 c-16 -7 -17 -9 -3 -9 9 -1 20 4 23 9 7 11 7 11 -20 0z"/>
<path d="M1513 74 c-7 -7 -9 -15 -5 -17 4 -3 13 1 19 9 7 7 9 15 5 17 -4 3
-13 -1 -19 -9z"/>
<path d="M1640 80 c0 -5 4 -10 9 -10 6 0 13 5 16 10 3 6 -1 10 -9 10 -9 0 -16
-4 -16 -10z"/>
<path d="M45 70 c3 -5 16 -10 28 -9 21 0 21 1 2 9 -28 12 -37 12 -30 0z"/>
<path d="M190 65 c-12 -15 -6 -35 11 -35 6 0 7 5 3 11 -3 6 -1 15 6 19 7 5 8
10 2 14 -5 3 -15 -1 -22 -9z"/>
<path d="M295 70 c-3 -6 1 -7 9 -4 18 7 21 14 7 14 -6 0 -13 -4 -16 -10z"/>
<path d="M355 70 c-3 -6 1 -7 9 -4 9 3 16 1 16 -6 0 -6 5 -8 11 -4 8 4 7 9 -2
15 -18 11 -26 11 -34 -1z"/>
<path d="M635 69 c-16 -7 -12 -8 14 -4 19 3 40 0 47 -6 9 -7 14 -8 14 -1 0 21
-41 27 -75 11z"/>
<path d="M747 65 c3 -8 9 -12 14 -9 12 7 11 11 -5 17 -10 4 -13 1 -9 -8z"/>
<path d="M907 69 c7 -7 15 -10 18 -7 3 3 -2 9 -12 12 -14 6 -15 5 -6 -5z"/>
<path d="M1308 73 c6 -2 18 -2 25 0 6 3 1 5 -13 5 -14 0 -19 -2 -12 -5z"/>
<path d="M240 60 c0 -5 5 -10 10 -10 6 0 10 5 10 10 0 6 -4 10 -10 10 -5 0
-10 -4 -10 -10z"/>
<path d="M447 50 c19 -22 26 -21 17 4 -3 9 -12 16 -20 16 -11 0 -10 -4 3 -20z"/>
<path d="M491 54 c-1 -12 19 -34 31 -34 4 0 8 5 8 10 0 6 -6 10 -14 10 -8 0
-17 6 -19 13 -3 6 -6 7 -6 1z"/>
<path d="M1340 49 c0 -5 5 -7 10 -4 6 3 10 8 10 11 0 2 -4 4 -10 4 -5 0 -10
-5 -10 -11z"/>
<path d="M135 39 c-4 -6 -5 -12 -2 -15 2 -3 7 2 10 11 7 17 1 20 -8 4z"/>
<path d="M299 33 c-12 -16 -12 -17 2 -6 9 7 19 10 22 6 4 -3 7 -1 7 5 0 17
-16 15 -31 -5z"/>
<path d="M580 41 c0 -6 4 -13 10 -16 6 -3 7 1 4 9 -7 18 -14 21 -14 7z"/>
<path d="M1490 20 c-6 -11 -8 -20 -6 -20 3 0 10 9 16 20 6 11 8 20 6 20 -3 0
-10 -9 -16 -20z"/>
</g>
</svg>
