<?xml version="1.0" standalone="no"?>
<!DOCTYPE svg PUBLIC "-//W3C//DTD SVG 20010904//EN"
 "http://www.w3.org/TR/2001/REC-SVG-20010904/DTD/svg10.dtd">
<svg version="1.0" xmlns="http://www.w3.org/2000/svg"
 width="300.000000pt" height="214.000000pt" viewBox="0 0 300.000000 214.000000"
 preserveAspectRatio="xMidYMid meet">
<metadata>
Created by potrace 1.10, written by Peter Selinger 2001-2011
</metadata>
<g transform="translate(0.000000,214.000000) scale(0.100000,-0.100000)"
fill="#000000" stroke="none">
<path d="M839 1843 l-196 -3 -7 -47 c-8 -59 -8 -996 0 -1017 6 -14 91 -16 869
-16 l862 0 7 63 c5 52 -2 1009 -7 1013 -5 3 -1351 9 -1528 7z m1515 -38 c3
-11 6 -212 6 -447 l0 -426 -32 9 c-71 20 -247 72 -323 96 -67 21 -92 24 -155
19 -108 -9 -106 -23 3 -18 62 2 108 -2 142 -12 28 -8 121 -36 208 -62 l157
-48 0 -68 0 -68 -122 -1 c-68 0 -453 -2 -855 -4 l-733 -4 0 236 0 235 93 -7
c119 -9 150 -20 167 -59 7 -17 16 -35 18 -40 3 -5 0 -6 -7 -2 -6 4 -11 2 -11
-4 0 -7 7 -9 16 -6 9 3 21 3 27 -1 7 -4 24 -6 39 -4 22 2 27 -1 22 -13 -4 -12
-2 -15 9 -10 8 3 18 1 22 -5 3 -6 10 -11 16 -11 18 0 8 15 -26 38 -34 24 -63
82 -50 102 3 5 1 10 -4 10 -14 0 -14 -31 -1 -66 12 -31 8 -38 -17 -30 -22 7
-53 56 -53 83 0 32 35 94 60 106 13 7 28 26 33 42 10 33 35 65 49 65 13 0 48
-88 42 -105 -4 -8 -1 -15 4 -15 6 0 14 9 17 21 10 32 49 88 59 86 5 -2 19 -31
31 -65 13 -35 30 -71 38 -80 11 -12 13 -22 7 -32 -12 -19 -12 -30 -1 -30 5 0
12 14 16 31 8 36 16 32 20 -11 4 -50 16 -49 13 2 -2 25 -6 44 -9 43 -3 -2 -5
18 -5 44 1 46 3 49 35 61 32 12 35 11 77 -31 51 -50 58 -75 18 -65 -15 4 -23
3 -20 -2 3 -6 0 -15 -7 -21 -8 -6 -13 -31 -12 -66 1 -31 -2 -58 -7 -61 -4 -3
-8 -14 -8 -24 0 -11 -12 -27 -26 -37 -25 -16 -28 -16 -55 -1 -16 10 -31 13
-34 7 -4 -5 -1 -9 5 -9 6 0 22 -8 36 -17 26 -16 26 -17 5 -25 -27 -10 -27 -28
0 -21 11 3 25 16 30 29 8 24 29 33 29 14 0 -5 -4 -10 -10 -10 -5 0 -10 -5 -10
-10 0 -6 8 -5 19 2 11 7 18 15 15 19 -2 4 0 10 5 14 6 3 8 12 4 20 -3 8 -2 23
3 33 10 22 15 50 14 81 l0 24 115 -5 c64 -3 118 -8 122 -11 3 -4 1 -13 -6 -20
-17 -21 3 -33 72 -46 64 -12 71 -15 106 -45 l24 -21 -12 23 c-13 24 -66 52
-98 52 -10 0 -35 5 -56 11 -34 9 -37 12 -22 23 16 11 16 13 0 26 -11 9 -54 15
-131 18 -63 3 -114 8 -114 11 0 4 14 14 32 22 17 8 33 19 35 24 5 16 -87 120
-106 121 -9 0 -24 -5 -35 -12 -10 -7 -24 -10 -32 -7 -10 4 -13 -7 -11 -45 4
-90 -26 -79 -57 22 -28 87 -57 96 -86 26 -16 -39 -26 -38 -40 4 -24 73 -57 68
-92 -12 -11 -24 -29 -47 -42 -52 -13 -4 -29 -22 -36 -39 -14 -34 -27 -40 -36
-16 -7 17 -80 19 -174 5 -44 -7 -34 -8 48 -5 61 3 102 0 102 -5 0 -6 6 -10 14
-10 18 0 29 -16 21 -29 -3 -6 -19 -4 -40 5 -21 8 -68 14 -119 14 l-85 0 -3
158 c-2 86 -2 217 0 290 l3 134 849 -4 c839 -3 849 -3 854 -23z"/>
<path d="M1532 1614 c-40 -18 -52 -29 -48 -40 3 -9 6 -18 6 -20 0 -2 16 -4 35
-4 l35 0 0 -48 c0 -38 6 -55 31 -85 17 -20 36 -37 44 -37 7 0 25 -16 39 -35
23 -29 33 -35 65 -35 43 0 114 -35 151 -75 28 -30 90 -49 131 -40 38 9 89 76
89 118 0 17 -11 45 -26 64 -14 18 -41 65 -60 103 -19 39 -39 70 -44 70 -6 0
-27 -16 -49 -35 -21 -19 -41 -35 -45 -35 -3 0 -17 23 -31 50 -14 28 -31 50
-38 50 -7 0 -32 -20 -56 -45 -24 -25 -51 -45 -62 -45 -27 0 -47 37 -52 95 -3
47 -5 50 -33 51 -16 1 -53 -9 -82 -22z m107 -59 c1 -38 23 -71 52 -78 16 -4
34 6 75 45 l53 50 28 -56 c15 -31 31 -56 35 -56 5 0 28 18 53 41 l44 41 35
-72 c20 -40 47 -85 61 -102 28 -33 34 -85 10 -94 -8 -4 -15 -12 -15 -20 0 -28
-47 -47 -97 -39 -48 7 -93 30 -93 47 0 11 59 1 77 -14 7 -5 18 -8 25 -5 20 7
-64 39 -90 34 -28 -5 -108 36 -123 64 -5 10 -15 19 -21 19 -9 0 -9 -3 0 -12
20 -20 14 -29 -15 -22 -33 7 -66 42 -59 61 3 7 1 13 -3 13 -5 0 -11 -5 -13
-12 -3 -7 -22 5 -46 30 -38 39 -42 48 -42 92 0 45 -2 50 -22 51 -13 0 -32 4
-43 9 -18 7 -15 10 20 25 22 10 54 21 70 25 33 7 42 -6 44 -65z"/>
<path d="M1800 1465 c0 -8 4 -15 10 -15 5 0 7 7 4 15 -4 8 -8 15 -10 15 -2 0
-4 -7 -4 -15z"/>
<path d="M1927 1463 c-3 -4 1 -14 9 -20 7 -7 15 -9 18 -4 3 5 -1 14 -8 20 -8
7 -16 8 -19 4z"/>
<path d="M1960 1352 c0 -12 19 -26 26 -19 2 2 -2 10 -11 17 -9 8 -15 8 -15 2z"/>
<path d="M1332 1328 c5 -15 28 -18 29 -3 0 6 -7 12 -17 13 -10 3 -15 -1 -12
-10z"/>
<path d="M1001 1215 c0 -11 6 -31 14 -45 18 -31 18 -16 0 30 -9 23 -14 28 -14
15z"/>
<path d="M1037 1199 c4 -13 8 -18 11 -10 2 7 -1 18 -6 23 -8 8 -9 4 -5 -13z"/>
<path d="M768 1203 c7 -3 16 -2 19 1 4 3 -2 6 -13 5 -11 0 -14 -3 -6 -6z"/>
<path d="M810 1200 c0 -5 5 -10 10 -10 6 0 10 5 10 10 0 6 -4 10 -10 10 -5 0
-10 -4 -10 -10z"/>
<path d="M1105 1150 c-10 -16 -13 -80 -4 -80 4 0 16 -3 26 -7 17 -7 17 -6 -1
12 -13 13 -17 28 -13 52 6 34 3 41 -8 23z"/>
<path d="M1380 1099 c0 -5 4 -8 8 -5 5 3 18 -3 28 -13 21 -19 84 -26 84 -9 0
6 -13 8 -28 6 -17 -2 -35 3 -47 14 -20 20 -45 24 -45 7z"/>
<path d="M890 1070 c0 -5 7 -7 15 -4 8 4 15 8 15 10 0 2 -7 4 -15 4 -8 0 -15
-4 -15 -10z"/>
<path d="M1151 1070 c-1 -24 22 -46 47 -46 12 0 22 4 22 8 0 4 -11 8 -23 8
-15 0 -28 9 -35 23 -6 13 -11 16 -11 7z"/>
<path d="M935 1060 c3 -5 8 -10 11 -10 2 0 4 5 4 10 0 6 -5 10 -11 10 -5 0 -7
-4 -4 -10z"/>
<path d="M980 1060 c0 -5 5 -10 10 -10 6 0 10 5 10 10 0 6 -4 10 -10 10 -5 0
-10 -4 -10 -10z"/>
<path d="M1510 1064 c0 -3 6 -12 14 -20 17 -16 46 -19 46 -3 0 5 -4 8 -9 4 -5
-3 -16 2 -24 10 -16 15 -27 19 -27 9z"/>
<path d="M700 1050 l-35 -7 43 -2 c23 0 42 4 42 9 0 6 -3 9 -7 9 -5 -1 -24 -5
-43 -9z"/>
<path d="M1075 1050 c17 -4 39 -8 50 -9 16 -1 17 1 5 9 -8 5 -31 9 -50 9 l-35
-1 30 -8z"/>
<path d="M1391 1051 c-9 -6 -4 -10 18 -13 24 -4 28 -2 20 9 -13 15 -19 16 -38
4z"/>
<path d="M1040 1030 c0 -5 7 -7 15 -4 8 4 15 8 15 10 0 2 -7 4 -15 4 -8 0 -15
-4 -15 -10z"/>
<path d="M1470 1031 c0 -5 9 -7 20 -4 11 3 20 7 20 9 0 2 -9 4 -20 4 -11 0
-20 -4 -20 -9z"/>
<path d="M1594 1029 c-5 -9 134 -4 143 5 3 3 -26 5 -66 4 -39 0 -74 -5 -77 -9z"/>
<path d="M700 1024 c37 -14 46 -17 63 -20 9 -2 17 1 17 6 0 6 -6 10 -14 10 -7
0 -29 2 -47 5 -19 3 -27 3 -19 -1z"/>
<path d="M1090 1019 c0 -5 5 -7 10 -4 6 3 10 8 10 11 0 2 -4 4 -10 4 -5 0 -10
-5 -10 -11z"/>
<path d="M825 1010 c-3 -5 1 -10 10 -10 9 0 13 5 10 10 -3 6 -8 10 -10 10 -2
0 -7 -4 -10 -10z"/>
<path d="M1145 1010 c3 -5 8 -10 11 -10 2 0 4 5 4 10 0 6 -5 10 -11 10 -5 0
-7 -4 -4 -10z"/>
<path d="M1235 1010 c3 -5 11 -10 16 -10 6 0 7 5 4 10 -3 6 -11 10 -16 10 -6
0 -7 -4 -4 -10z"/>
<path d="M2020 990 c8 -5 24 -9 35 -9 20 0 20 0 0 9 -11 5 -27 9 -35 9 -13 1
-13 0 0 -9z"/>
<path d="M1648 973 c12 -2 30 -2 40 0 9 3 -1 5 -23 4 -22 0 -30 -2 -17 -4z"/>
<path d="M1758 963 c7 -3 16 -2 19 1 4 3 -2 6 -13 5 -11 0 -14 -3 -6 -6z"/>
<path d="M2044 955 c22 -8 42 -13 44 -10 8 8 -1 12 -43 18 l-40 7 39 -15z"/>
<path d="M1055 910 c-3 -5 1 -10 9 -10 9 0 16 5 16 10 0 6 -4 10 -9 10 -6 0
-13 -4 -16 -10z"/>
<path d="M988 873 c7 -3 16 -2 19 1 4 3 -2 6 -13 5 -11 0 -14 -3 -6 -6z"/>
<path d="M1098 873 c7 -3 16 -2 19 1 4 3 -2 6 -13 5 -11 0 -14 -3 -6 -6z"/>
<path d="M2120 869 c0 -5 5 -7 10 -4 6 3 10 8 10 11 0 2 -4 4 -10 4 -5 0 -10
-5 -10 -11z"/>
<path d="M2170 870 c0 -5 5 -10 10 -10 6 0 10 5 10 10 0 6 -4 10 -10 10 -5 0
-10 -4 -10 -10z"/>
<path d="M1985 860 c3 -5 12 -10 20 -10 8 0 17 5 20 10 4 6 -5 10 -20 10 -15
0 -24 -4 -20 -10z"/>
<path d="M1636 815 c-3 -8 -16 -15 -28 -16 -13 0 -17 -3 -10 -6 21 -8 62 6 62
22 0 19 -16 19 -24 0z"/>
<path d="M1688 823 c7 -3 16 -2 19 1 4 3 -2 6 -13 5 -11 0 -14 -3 -6 -6z"/>
<path d="M2230 355 c-17 -21 -8 -50 18 -53 12 -2 22 1 22 7 0 6 -7 7 -17 4
-11 -5 -14 -3 -8 6 4 8 2 17 -6 22 -11 7 -10 9 4 9 9 0 17 5 17 10 0 15 -16
12 -30 -5z"/>
<path d="M528 342 c-18 -20 -13 -42 10 -42 15 0 15 2 2 10 -13 9 -13 12 3 24
10 8 14 17 9 20 -5 3 -16 -2 -24 -12z"/>
<path d="M734 345 c-5 -12 -10 -13 -19 -5 -10 9 -16 6 -24 -9 -14 -25 -14 -31
-1 -31 6 0 10 7 10 16 0 13 3 14 14 5 11 -9 15 -8 21 6 7 17 8 17 15 -2 8 -18
9 -17 9 8 1 29 -16 37 -25 12z"/>
<path d="M824 345 c-14 -35 33 -65 52 -33 5 8 2 9 -11 4 -11 -4 -22 -2 -27 6
-12 19 -10 26 10 31 16 4 16 5 -1 6 -10 0 -20 -6 -23 -14z"/>
<path d="M1017 338 c-3 -12 -4 -25 -1 -30 7 -11 34 -10 34 2 0 6 -5 10 -11 10
-6 0 -8 9 -4 20 3 11 2 20 -3 20 -5 0 -12 -10 -15 -22z"/>
<path d="M1110 344 c-11 -12 -10 -18 3 -32 16 -15 18 -15 34 0 13 14 14 20 3
32 -7 9 -16 16 -20 16 -4 0 -13 -7 -20 -16z m30 -14 c0 -5 -4 -10 -10 -10 -5
0 -10 5 -10 10 0 6 5 10 10 10 6 0 10 -4 10 -10z"/>
<path d="M1236 351 c-4 -5 -3 -16 0 -25 3 -9 1 -16 -6 -16 -6 0 -8 -5 -5 -10
10 -16 27 0 22 21 -3 12 0 19 10 19 8 0 11 5 8 10 -8 12 -22 13 -29 1z"/>
<path d="M1457 353 c-4 -3 -7 -17 -7 -30 0 -27 26 -41 43 -24 8 8 5 11 -13 11
-20 0 -22 2 -10 10 13 9 13 10 0 10 -11 1 -10 4 4 15 15 12 16 15 5 15 -9 0
-19 -3 -22 -7z"/>
<path d="M1735 340 c-3 -11 -3 -24 0 -30 8 -13 35 -13 35 0 0 6 -7 10 -15 10
-13 0 -14 4 -5 20 7 12 7 20 1 20 -5 0 -12 -9 -16 -20z"/>
<path d="M1826 338 c-20 -28 -21 -44 -2 -29 10 8 16 9 21 1 12 -20 21 -10 17
20 -5 36 -15 38 -36 8z"/>
<path d="M2342 334 c-15 -31 -15 -34 -2 -34 6 0 10 10 10 22 l0 22 17 -23 16
-24 14 28 c8 15 12 29 9 32 -3 3 -9 -4 -14 -17 l-9 -23 -15 21 -15 22 -11 -26z"/>
<path d="M2475 338 c4 -17 4 -19 -3 -9 -8 11 -12 10 -21 -7 -15 -29 -14 -37 4
-22 12 10 18 10 30 0 12 -10 15 -9 15 8 0 28 -10 52 -22 52 -5 0 -6 -10 -3
-22z"/>
<path d="M600 331 c-14 -27 -13 -36 3 -22 10 8 17 7 25 -1 13 -13 16 -1 6 26
-8 21 -21 20 -34 -3z"/>
<path d="M920 325 c0 -20 5 -25 23 -24 18 1 19 2 4 6 -13 3 -17 11 -14 24 3
10 1 19 -4 19 -5 0 -9 -11 -9 -25z"/>
<path d="M1571 333 c-8 -15 -11 -15 -26 -3 -14 12 -18 12 -26 -1 -12 -19 -11
-29 1 -29 6 0 10 5 10 11 0 8 5 7 16 -2 14 -11 18 -10 30 6 14 19 18 35 9 35
-2 0 -8 -8 -14 -17z"/>
<path d="M2037 329 c-21 -29 -22 -46 -2 -29 12 10 18 10 30 0 20 -16 21 8 2
35 -13 17 -15 17 -30 -6z"/>
<path d="M2127 343 c-4 -3 -7 -18 -7 -32 0 -20 3 -22 9 -12 7 11 13 12 24 3
11 -10 14 -6 14 18 0 21 -5 30 -17 30 -9 0 -20 -3 -23 -7z m28 -13 c-3 -5 -11
-10 -16 -10 -6 0 -7 5 -4 10 3 6 11 10 16 10 6 0 7 -4 4 -10z"/>
<path d="M2091 204 c0 -11 3 -14 6 -6 3 7 2 16 -1 19 -3 4 -6 -2 -5 -13z"/>
</g>
</svg>
