<?xml version="1.0" standalone="no"?>
<!DOCTYPE svg PUBLIC "-//W3C//DTD SVG 20010904//EN"
 "http://www.w3.org/TR/2001/REC-SVG-20010904/DTD/svg10.dtd">
<svg version="1.0" xmlns="http://www.w3.org/2000/svg"
 width="300.000000pt" height="302.000000pt" viewBox="0 0 300.000000 302.000000"
 preserveAspectRatio="xMidYMid meet">
<metadata>
Created by potrace 1.10, written by Peter Selinger 2001-2011
</metadata>
<g transform="translate(0.000000,302.000000) scale(0.100000,-0.100000)"
fill="#000000" stroke="none">
<path d="M243 2982 c-10 -7 -10 -12 1 -27 12 -17 13 -17 18 8 5 28 1 32 -19
19z"/>
<path d="M287 2983 c-13 -12 -7 -43 8 -43 12 0 13 4 5 19 -7 14 -6 21 3 24 7
3 7 6 1 6 -6 1 -14 -2 -17 -6z"/>
<path d="M330 2972 c0 -11 8 -18 20 -19 17 -2 18 1 10 18 -13 24 -30 25 -30 1z"/>
<path d="M390 2979 c0 -5 5 -7 12 -3 7 5 9 0 6 -14 -6 -21 13 -47 25 -35 11
10 8 25 -3 18 -6 -4 -10 5 -10 19 0 16 -6 26 -15 26 -8 0 -15 -5 -15 -11z"/>
<path d="M1578 2973 c-8 -31 9 -176 25 -214 8 -20 32 -49 52 -65 91 -69 308
-29 423 79 24 22 46 88 57 170 6 42 4 47 -13 47 -16 0 -20 -10 -26 -56 -7 -62
-32 -118 -68 -151 -42 -39 -135 -73 -218 -80 l-77 -6 -41 37 c-47 43 -59 73
-70 176 -5 57 -11 75 -23 78 -9 2 -18 -5 -21 -15z m32 -54 c0 -84 19 -137 66
-187 l43 -44 88 4 c75 4 98 9 158 39 89 43 131 100 141 189 4 33 11 60 15 60
5 0 7 -10 5 -22 -3 -13 -10 -49 -16 -81 -14 -72 -48 -112 -128 -155 -67 -36
-179 -58 -244 -48 -64 10 -114 54 -133 118 -17 58 -21 193 -5 183 6 -3 10 -29
10 -56z"/>
<path d="M117 2973 c-7 -14 -2 -36 9 -40 5 -2 10 8 10 22 0 24 -10 34 -19 18z"/>
<path d="M196 2964 c-8 -21 -8 -21 13 -27 14 -3 17 0 14 14 -7 26 -20 32 -27
13z"/>
<path d="M70 2949 c0 -24 23 -21 28 4 2 10 -3 17 -12 17 -10 0 -16 -9 -16 -21z"/>
<path d="M575 2842 l-17 -27 -201 -2 c-111 -1 -217 -2 -235 -2 -39 0 -53 -25
-28 -49 12 -12 35 -17 79 -18 34 -1 74 -4 88 -8 16 -5 48 -1 80 8 68 21 66 21
61 -13 -5 -35 0 -39 68 -42 53 -3 55 -2 58 24 4 36 18 34 38 -4 l16 -31 19 31
19 32 24 -27 23 -27 7 28 7 28 24 -23 24 -22 6 36 c7 36 8 36 59 37 28 0 65 2
81 3 17 1 92 3 168 4 120 2 138 4 135 18 -3 14 -30 15 -220 14 -192 -1 -217 1
-212 15 7 17 -31 22 -41 5 -10 -16 -25 -2 -25 22 0 21 0 21 -26 -2 -21 -21
-27 -22 -34 -10 -5 8 -10 18 -10 23 0 16 -20 5 -35 -21z m40 -19 l7 -28 24 28
c22 26 24 26 24 8 0 -23 12 -26 41 -10 17 8 20 7 17 -6 -3 -15 20 -16 222 -17
l225 -2 -220 -6 c-121 -4 -221 -7 -221 -8 -1 -1 -5 -17 -8 -34 l-7 -33 -19 23
c-22 27 -30 28 -30 3 0 -30 -16 -33 -30 -6 -17 33 -25 31 -40 -6 l-13 -31 -15
28 c-19 38 -17 37 -41 29 -14 -4 -21 -15 -21 -31 0 -22 -4 -24 -45 -24 -45 0
-45 0 -45 35 0 41 -13 44 -83 20 -40 -13 -48 -13 -76 1 -24 12 -35 13 -46 4
-19 -16 -83 -2 -108 23 l-20 20 35 -6 c21 -3 40 -1 47 6 9 9 11 8 6 -5 -5 -12
-2 -18 8 -18 8 0 18 7 21 16 5 13 9 14 20 5 10 -9 20 -9 40 0 22 11 28 9 45
-12 19 -23 20 -23 39 -6 17 16 35 18 115 15 94 -3 95 -3 114 24 23 35 29 35
38 1z"/>
<path d="M2762 2770 c-18 -11 -35 -26 -38 -34 -4 -9 -17 -12 -47 -9 -33 4 -48
0 -69 -17 -33 -25 -36 -40 -9 -40 10 0 24 -7 31 -15 19 -22 54 -15 58 12 2 12
19 39 39 60 20 21 34 33 32 28 -3 -6 -13 -27 -22 -47 -9 -20 -21 -39 -27 -43
-5 -3 -10 -13 -10 -21 0 -10 7 -13 25 -8 15 4 39 -1 61 -11 20 -9 38 -14 41
-11 4 3 -7 11 -23 16 -44 15 -58 43 -43 88 6 20 18 45 27 55 19 22 15 22 -26
-3z m-72 -57 c-1 -5 -9 -18 -20 -31 -18 -21 -21 -22 -46 -9 l-27 14 24 16 c24
17 69 23 69 10z m60 -52 c0 -5 -9 -11 -20 -14 -22 -6 -26 3 -8 21 11 11 28 7
28 -7z"/>
<path d="M2485 2690 c-20 -8 -20 -8 0 -15 31 -12 73 -61 80 -93 5 -24 1 -32
-20 -46 -14 -9 -25 -22 -25 -28 0 -9 3 -9 12 0 15 15 60 15 93 0 26 -12 32
-23 15 -33 -5 -3 -10 -17 -10 -30 0 -23 1 -23 30 -9 16 9 32 25 36 37 3 13 17
31 33 41 15 10 35 32 44 48 12 21 22 28 35 24 10 -4 27 1 38 9 10 8 27 15 37
15 28 0 9 20 -19 20 -15 0 -24 -6 -24 -15 0 -9 -9 -15 -22 -15 -13 0 -39 -6
-58 -13 -30 -10 -35 -16 -32 -40 3 -25 0 -28 -20 -25 -17 2 -23 -2 -24 -17 -1
-11 -2 -27 -3 -35 -1 -9 -10 -16 -21 -16 -21 0 -26 11 -10 21 6 3 10 19 10 34
0 15 5 32 11 38 13 13 5 43 -12 43 -6 0 -23 -13 -37 -30 -15 -16 -30 -30 -34
-30 -17 0 -7 32 17 56 25 25 33 40 16 30 -5 -3 -11 3 -14 14 -3 12 -14 20 -27
20 -11 0 -18 -4 -15 -10 12 -20 -8 -9 -32 16 -27 29 -23 45 7 26 28 -17 38
-15 14 3 -21 16 -39 18 -69 5z m109 -79 c3 -5 -1 -14 -9 -21 -13 -10 -15 -9
-15 9 0 21 14 28 24 12z m166 -50 c0 -6 -4 -13 -10 -16 -5 -3 -10 1 -10 9 0 9
5 16 10 16 6 0 10 -4 10 -9z m-108 -22 c-5 -11 -11 -20 -15 -20 -4 1 -12 1
-19 1 -6 0 -3 9 7 20 23 26 36 26 27 -1z"/>
<path d="M1590 2655 c-20 -24 -7 -145 21 -202 30 -60 70 -87 154 -103 58 -11
75 -10 133 5 156 41 244 128 259 256 5 45 4 49 -16 49 -16 0 -21 -6 -21 -25 0
-14 -13 -52 -30 -84 -32 -65 -92 -115 -170 -144 -60 -22 -155 -22 -200 1 -47
23 -85 99 -95 186 -7 70 -15 85 -35 61z m25 -73 c9 -91 46 -160 100 -187 64
-31 155 -26 235 12 36 17 79 44 97 61 37 35 83 121 83 157 0 14 5 25 10 25 15
0 1 -76 -22 -127 -35 -75 -108 -125 -231 -157 -45 -12 -70 -13 -117 -4 -77 13
-119 42 -148 99 -25 51 -43 189 -24 189 5 0 13 -31 17 -68z"/>
<path d="M2710 2610 c0 -5 12 -10 26 -10 14 0 23 4 19 10 -3 6 -15 10 -26 10
-10 0 -19 -4 -19 -10z"/>
<path d="M147 2551 c-17 -6 -18 -8 -3 -20 18 -15 29 -10 24 12 -2 9 -9 12 -21
8z"/>
<path d="M280 2515 c0 -8 7 -15 15 -15 8 0 15 7 15 15 0 8 -7 15 -15 15 -8 0
-15 -7 -15 -15z"/>
<path d="M142 2488 c6 -18 25 -21 25 -3 0 8 -7 15 -14 15 -8 0 -13 -5 -11 -12z"/>
<path d="M225 2480 c-4 -6 -11 -8 -16 -5 -5 4 -9 1 -9 -4 0 -6 9 -11 20 -11
11 0 20 7 20 15 0 17 -6 19 -15 5z"/>
<path d="M288 2483 c6 -2 18 -2 25 0 6 3 1 5 -13 5 -14 0 -19 -2 -12 -5z"/>
<path d="M140 2446 c0 -6 9 -12 20 -13 11 -1 20 2 20 6 0 5 -9 11 -20 14 -12
3 -20 0 -20 -7z"/>
<path d="M282 2448 c7 -19 35 -21 35 -3 0 8 -9 15 -19 15 -11 0 -18 -5 -16
-12z"/>
<path d="M205 2432 c-8 -8 5 -22 21 -22 8 0 14 6 14 13 0 13 -25 19 -35 9z"/>
<path d="M145 2406 c-19 -14 -19 -15 -2 -22 22 -8 30 -1 25 21 -3 14 -5 14
-23 1z"/>
<path d="M280 2401 c0 -5 7 -11 15 -15 9 -3 15 0 15 9 0 8 -7 15 -15 15 -8 0
-15 -4 -15 -9z"/>
<path d="M287 2364 c7 -3 9 -12 6 -20 -3 -8 0 -14 6 -14 6 0 11 9 11 20 0 13
-6 20 -17 19 -10 0 -13 -3 -6 -5z"/>
<path d="M66 2353 c-11 -11 -6 -23 9 -23 8 0 15 4 15 9 0 13 -16 22 -24 14z"/>
<path d="M206 2351 c-4 -5 -2 -13 4 -16 6 -4 8 -15 5 -26 -4 -13 -2 -19 9 -19
12 0 15 8 12 32 -3 32 -19 47 -30 29z"/>
<path d="M140 2335 c0 -8 7 -15 15 -15 8 0 15 7 15 15 0 8 -7 15 -15 15 -8 0
-15 -7 -15 -15z"/>
<path d="M596 2325 c-3 -8 -17 -15 -30 -15 -15 0 -30 -8 -36 -20 -7 -13 -21
-20 -39 -20 -18 0 -32 -7 -36 -17 -4 -10 -10 -108 -13 -218 -4 -175 -2 -202
12 -214 20 -17 357 -43 510 -39 l111 3 3 27 c2 19 10 28 25 30 15 2 23 11 25
30 2 19 10 28 25 30 21 3 22 10 34 173 7 113 8 181 2 202 -12 38 -12 38 -317
53 -264 13 -269 13 -276 -5z m371 -14 c105 -5 197 -12 204 -16 9 -6 10 -51 4
-189 -4 -99 -9 -185 -12 -190 -7 -11 -489 0 -543 12 l-35 8 0 89 c1 89 12 238
21 284 5 24 6 24 87 17 45 -4 168 -11 274 -15z m-381 -33 c-3 -13 -9 -96 -12
-185 l-7 -162 28 -11 c15 -6 139 -13 276 -17 229 -6 249 -8 249 -24 0 -10 -10
-21 -22 -25 -21 -6 -308 1 -467 12 -124 10 -125 11 -118 188 3 78 11 165 17
194 10 46 15 52 37 52 21 0 24 -4 19 -22z m-71 -43 c-4 -11 -9 -90 -12 -175
-5 -176 -2 -185 62 -200 22 -5 145 -12 273 -16 214 -7 232 -9 232 -25 0 -26
-42 -31 -195 -25 -241 10 -395 24 -412 38 -14 11 -15 36 -9 206 4 107 10 200
12 207 3 7 16 12 30 11 20 -1 24 -5 19 -21z"/>
<path d="M855 2226 c-16 -8 -52 -30 -80 -50 -27 -20 -57 -36 -66 -36 -9 0 -24
-9 -34 -20 -16 -18 -17 -25 -6 -60 11 -39 13 -40 56 -40 35 0 47 5 62 26 22
30 57 27 66 -6 9 -36 86 -53 109 -24 42 53 133 144 144 144 7 0 14 -6 17 -12
2 -7 8 -10 12 -6 12 11 -5 28 -28 28 -13 0 -41 -21 -73 -56 l-52 -55 -10 30
c-9 27 -16 31 -47 31 -24 0 -41 -7 -56 -24 -25 -29 -66 -25 -71 7 -2 12 -13
27 -26 33 -23 11 -21 13 37 48 45 28 67 36 83 30 20 -6 21 -5 9 10 -7 9 -14
16 -15 16 0 -1 -14 -7 -31 -14z m-116 -134 c1 9 6 20 13 24 8 5 9 0 5 -15 -4
-17 -2 -21 9 -17 8 3 14 1 14 -4 0 -6 -4 -10 -10 -10 -5 0 -10 -10 -10 -22 0
-21 -1 -21 -17 -6 -15 16 -17 16 -30 0 -13 -15 -13 -15 -7 7 4 16 3 21 -5 17
-7 -5 -9 -1 -5 8 3 9 1 16 -5 16 -6 0 -11 4 -11 9 0 5 9 7 20 4 13 -3 20 0 21
8 1 8 5 3 9 -11 5 -16 8 -19 9 -8z m201 -17 c0 6 5 2 11 -8 7 -13 6 -21 -5
-32 -10 -10 -17 -12 -21 -5 -5 8 -12 7 -23 -2 -13 -11 -15 -10 -9 5 4 12 1 17
-11 18 -16 1 -16 2 0 6 10 2 15 10 11 19 -4 10 0 12 11 8 10 -4 16 -1 17 7 0
8 4 5 9 -6 5 -11 9 -15 10 -10z"/>
<path d="M1605 2273 c13 -104 45 -156 120 -196 33 -18 57 -22 140 -21 118 0
152 12 224 79 56 52 78 92 83 150 2 30 -1 40 -13 43 -13 2 -18 -8 -23 -48 -22
-162 -285 -250 -419 -139 -43 35 -77 103 -77 152 0 31 -3 37 -21 37 -20 0 -21
-3 -14 -57z m25 20 c0 -87 70 -179 154 -203 70 -19 172 -9 234 25 77 42 113
85 128 152 10 48 12 52 13 24 1 -52 -35 -118 -90 -161 -64 -51 -107 -64 -209
-64 -73 0 -92 3 -137 27 -42 22 -56 36 -76 79 -27 57 -43 148 -27 148 6 0 10
-12 10 -27z"/>
<path d="M55 2311 c-3 -5 -1 -12 5 -16 12 -7 30 2 30 16 0 12 -27 12 -35 0z"/>
<path d="M298 2313 c7 -3 16 -2 19 1 4 3 -2 6 -13 5 -11 0 -14 -3 -6 -6z"/>
<path d="M284 2289 c-8 -14 26 -23 39 -10 6 6 9 11 7 12 -3 0 -13 2 -22 4 -10
2 -20 -1 -24 -6z"/>
<path d="M210 2266 c0 -9 7 -16 16 -16 17 0 14 22 -4 28 -7 2 -12 -3 -12 -12z"/>
<path d="M147 2254 c-8 -8 1 -24 14 -24 5 0 9 7 9 15 0 15 -12 20 -23 9z"/>
<path d="M210 2225 c0 -8 7 -15 15 -15 8 0 15 4 15 9 0 5 -7 11 -15 15 -9 3
-15 0 -15 -9z"/>
<path d="M53 2215 c0 -10 6 -14 14 -10 8 3 20 5 26 6 7 0 3 4 -8 9 -29 12 -32
12 -32 -5z"/>
<path d="M142 2208 c3 -7 13 -15 24 -17 16 -3 17 -1 5 13 -16 19 -34 21 -29 4z"/>
<path d="M140 2161 c0 -5 7 -12 16 -15 21 -8 21 -8 21 9 0 8 -9 15 -19 15 -10
0 -18 -4 -18 -9z"/>
<path d="M70 2134 c0 -9 5 -12 13 -8 8 5 8 2 -2 -9 -12 -15 -11 -17 3 -17 20
0 21 36 1 44 -9 3 -15 0 -15 -10z"/>
<path d="M140 2132 c0 -10 22 -32 32 -32 15 0 8 15 -12 28 -11 7 -20 9 -20 4z"/>
<path d="M220 2125 c0 -8 6 -15 13 -15 8 0 14 7 14 15 0 8 -6 15 -14 15 -7 0
-13 -7 -13 -15z"/>
<path d="M220 2083 c0 -7 7 -13 15 -13 8 0 15 6 15 13 0 8 -7 14 -15 14 -8 0
-15 -6 -15 -14z"/>
<path d="M72 2073 c2 -10 11 -19 21 -21 18 -4 20 17 2 30 -17 13 -27 9 -23 -9z"/>
<path d="M2765 2082 c-6 -4 -18 -20 -28 -35 -10 -15 -29 -33 -43 -39 -25 -12
-28 -28 -6 -36 7 -2 10 2 6 12 -4 11 -1 16 10 16 9 0 27 17 39 38 18 30 23 33
25 17 3 -19 42 -45 69 -45 22 0 14 -27 -9 -34 l-23 -7 23 -9 c30 -12 28 -30
-3 -30 -14 0 -25 -5 -25 -10 0 -13 52 -1 62 14 4 6 0 17 -9 23 -15 12 -15 13
0 19 22 8 22 33 0 40 -55 19 -72 30 -75 51 -2 13 -7 19 -13 15z"/>
<path d="M145 2050 c-3 -6 1 -13 10 -16 19 -8 30 0 20 15 -8 14 -22 14 -30 1z"/>
<path d="M220 2050 c0 -5 7 -10 15 -10 8 0 15 5 15 10 0 6 -7 10 -15 10 -8 0
-15 -4 -15 -10z"/>
<path d="M71 2030 c-11 -6 -9 -10 8 -19 17 -10 21 -9 21 3 0 20 -13 27 -29 16z"/>
<path d="M158 2013 c7 -3 16 -2 19 1 4 3 -2 6 -13 5 -11 0 -14 -3 -6 -6z"/>
<path d="M2752 2008 c-19 -19 -14 -28 12 -28 32 0 42 16 18 29 -13 7 -22 7
-30 -1z m25 -14 c-3 -3 -12 -4 -19 -1 -8 3 -5 6 6 6 11 1 17 -2 13 -5z"/>
<path d="M74 1979 c0 -22 21 -25 29 -5 3 8 -2 16 -12 19 -11 3 -17 -2 -17 -14z"/>
<path d="M145 1989 c7 -11 35 -12 35 -1 0 4 -9 8 -20 9 -11 1 -18 -2 -15 -8z"/>
<path d="M220 1971 c0 -13 12 -20 26 -14 20 8 17 19 -6 20 -11 1 -20 -2 -20
-6z"/>
<path d="M152 1963 c-15 -6 -6 -23 14 -23 8 0 14 7 14 15 0 15 -6 17 -28 8z"/>
<path d="M2688 1963 c-10 -2 -18 -9 -18 -14 0 -11 39 -2 55 12 9 9 -6 10 -37
2z"/>
<path d="M80 1940 c20 -13 33 -13 25 0 -3 6 -14 10 -23 10 -15 0 -15 -2 -2
-10z"/>
<path d="M230 1926 c0 -9 7 -16 16 -16 17 0 14 22 -4 28 -7 2 -12 -3 -12 -12z"/>
<path d="M2695 1930 c3 -5 13 -10 21 -10 8 0 14 5 14 10 0 6 -9 10 -21 10 -11
0 -17 -4 -14 -10z"/>
<path d="M75 1911 c-3 -6 3 -15 14 -21 12 -6 22 -6 26 -1 3 6 -3 15 -14 21
-12 6 -22 6 -26 1z"/>
<path d="M142 1908 c3 -7 13 -15 24 -17 16 -3 17 -1 5 13 -16 19 -34 21 -29 4z"/>
<path d="M2683 1904 c15 -8 33 -12 39 -8 14 9 -15 22 -47 23 -16 0 -15 -2 8
-15z"/>
<path d="M2820 1901 c0 -6 -8 -8 -17 -4 -14 5 -15 3 -6 -7 7 -8 16 -9 28 -2
12 6 14 11 6 16 -6 4 -11 3 -11 -3z"/>
<path d="M2660 1891 c0 -7 44 -31 55 -31 17 0 0 17 -25 27 -16 6 -30 8 -30 4z"/>
<path d="M152 1868 c5 -15 28 -23 28 -10 0 5 -7 13 -16 16 -10 4 -14 1 -12 -6z"/>
<path d="M2808 1873 c-16 -4 -16 -6 -4 -19 20 -20 31 -18 33 6 2 20 1 21 -29
13z"/>
<path d="M2660 1859 c0 -5 16 -11 36 -15 19 -4 37 -12 39 -18 2 -6 6 -64 9
-130 5 -118 5 -118 -14 -101 -28 26 -43 89 -36 154 7 56 7 56 -12 34 l-19 -22
-23 24 c-30 32 -47 32 -26 0 25 -38 19 -42 -14 -10 -30 28 -30 28 -30 6 0 -14
17 -40 44 -66 40 -40 53 -71 60 -140 1 -5 9 -11 18 -13 15 -3 15 1 -3 35 -10
20 -19 48 -19 60 0 15 -18 41 -47 69 -44 42 -44 44 -10 18 l38 -27 -6 29 c-5
21 -4 25 3 15 9 -13 13 -13 28 0 16 13 17 12 9 -6 -13 -30 -7 -94 12 -133 18
-35 47 -61 58 -51 3 3 2 66 -1 140 l-7 135 -43 10 c-24 6 -44 7 -44 3z"/>
<path d="M150 1830 c0 -5 7 -10 15 -10 8 0 15 5 15 10 0 6 -7 10 -15 10 -8 0
-15 -4 -15 -10z"/>
<path d="M2784 1813 c2 -16 4 -72 5 -125 1 -74 4 -98 14 -98 22 0 40 45 34 80
-4 17 -3 29 2 26 4 -3 13 6 20 20 6 14 15 23 19 20 4 -2 13 4 20 15 7 10 8 19
4 19 -13 0 -52 -39 -52 -53 0 -7 -8 -3 -16 8 -15 19 -16 17 -11 -28 5 -53 0
-87 -14 -87 -5 0 -9 52 -9 115 0 65 -4 115 -9 115 -6 0 -8 -12 -7 -27z"/>
<path d="M92 1815 c-11 -12 -10 -15 3 -15 8 0 15 7 15 15 0 18 -2 18 -18 0z"/>
<path d="M80 1770 c0 -5 9 -10 20 -10 11 0 20 5 20 10 0 6 -9 10 -20 10 -11 0
-20 -4 -20 -10z"/>
<path d="M2287 1744 c-10 -10 21 -62 44 -74 19 -11 18 -13 -21 -41 -40 -29
-46 -55 -10 -46 16 4 18 0 13 -30 -4 -25 -1 -39 14 -56 11 -12 23 -35 27 -50
l7 -29 -46 33 c-25 18 -51 39 -57 46 -6 7 -15 13 -20 13 -15 0 48 -82 87 -113
32 -25 35 -33 35 -78 0 -47 -1 -49 -24 -43 -20 5 -23 2 -23 -20 0 -15 4 -29 9
-32 5 -3 5 -11 -1 -18 -8 -9 -4 -19 14 -36 24 -23 25 -28 25 -149 l0 -125 -28
27 c-15 15 -31 27 -35 27 -18 0 -4 -43 25 -77 23 -27 25 -31 7 -15 -57 50 -67
12 -13 -48 40 -44 43 -66 4 -25 -44 47 -58 17 -15 -33 25 -30 35 -56 13 -34
-17 17 -28 15 -28 -6 0 -22 80 -102 102 -102 22 0 78 60 78 83 0 14 -4 16 -19
7 -34 -17 -34 -11 -2 25 49 56 39 83 -17 48 -19 -12 -13 -2 21 34 26 29 47 57
47 62 0 22 -20 20 -49 -5 -40 -33 -40 -17 -1 21 47 45 37 73 -13 40 l-23 -15
0 121 c1 106 3 122 20 134 23 18 32 80 12 88 -8 3 -22 -3 -32 -14 -9 -10 -12
-19 -6 -19 6 0 14 5 17 10 3 6 11 10 17 10 7 0 -1 -13 -17 -30 -27 -28 -24
-45 3 -18 6 6 14 9 18 6 3 -4 -6 -14 -20 -23 -26 -17 -26 -19 -26 -146 0 -82
4 -129 10 -129 6 0 22 8 37 17 25 17 26 17 15 -2 -5 -11 -22 -31 -36 -44 -44
-41 -24 -59 24 -21 45 35 44 21 -4 -30 -60 -64 -61 -93 -1 -54 34 22 31 9 -5
-33 -29 -32 -39 -63 -22 -63 4 0 13 5 20 12 6 6 14 9 17 7 7 -7 -52 -69 -66
-69 -14 0 -92 80 -85 87 3 3 19 -5 35 -17 42 -29 39 -12 -9 46 -46 56 -53 80
-12 41 26 -25 52 -35 52 -21 0 3 -18 26 -40 51 -47 54 -52 72 -11 42 48 -35
59 -18 18 28 -46 51 -49 78 -3 34 l34 -33 3 34 c2 18 3 83 1 144 -3 101 -5
112 -23 117 -10 3 -19 10 -19 17 0 7 8 9 23 5 19 -6 18 -3 -8 19 -16 14 -25
25 -18 26 6 0 15 -4 18 -10 3 -5 12 -10 18 -10 7 0 -1 11 -18 25 -29 23 -26
35 5 15 20 -13 30 6 30 61 0 43 -3 49 -46 84 -25 20 -43 40 -40 43 4 3 16 -4
29 -16 32 -31 47 -27 47 9 0 21 -9 40 -25 55 -31 28 -32 53 -3 89 l21 27 -24
-7 c-13 -4 -30 -10 -36 -12 -26 -10 -12 8 27 33 l40 27 -36 31 c-48 41 -42 67
6 31 32 -23 35 -24 38 -8 7 32 21 37 27 10 7 -26 8 -26 37 -11 40 21 50 8 15
-20 -28 -23 -28 -23 -10 -54 20 -36 12 -53 -15 -29 -26 24 -36 21 -18 -5 22
-31 20 -68 -5 -94 -14 -15 -19 -32 -17 -58 l3 -35 33 21 c18 11 31 23 28 25
-2 3 -16 -3 -30 -12 -25 -17 -26 -17 -26 5 0 12 11 35 25 52 18 21 23 36 19
54 -5 18 -2 24 10 24 19 0 21 32 4 60 -10 16 -9 23 10 43 37 40 20 63 -28 37
-15 -8 -20 -6 -25 10 -8 26 -32 26 -40 0 l-6 -20 -26 20 c-26 20 -45 25 -56
14z"/>
<path d="M2898 1729 c-10 -5 -18 -6 -18 -2 0 11 -20 -20 -20 -31 0 -5 9 -1 20
9 34 30 35 8 1 -25 -20 -20 -31 -42 -31 -60 0 -15 -7 -33 -15 -40 -27 -23 -16
-31 22 -15 60 25 51 7 -11 -21 l-57 -26 3 -46 c3 -41 6 -47 25 -47 30 0 30
-18 1 -26 -20 -5 -19 -6 11 -12 36 -7 34 -21 -4 -30 -18 -4 -18 -5 3 -6 28 -1
30 -31 2 -31 -11 0 -20 -4 -20 -10 0 -14 22 -12 44 5 16 12 17 17 6 30 -8 10
-9 15 -1 15 6 0 11 7 11 15 0 8 -4 15 -8 15 -5 0 -8 10 -8 23 1 17 -5 23 -27
25 -21 3 -27 8 -23 19 3 8 6 24 6 36 1 16 14 28 50 46 55 27 74 45 85 79 6 21
2 20 -40 -13 -50 -38 -64 -40 -46 -7 6 12 11 28 11 38 0 9 14 32 30 51 41 46
40 67 -2 42z m26 -134 c-4 -8 -11 -15 -16 -15 -6 0 -5 6 2 15 7 8 14 15 16 15
2 0 1 -7 -2 -15z"/>
<path d="M1358 1707 c-21 -21 -30 -177 -26 -421 l3 -180 30 -8 c17 -5 144 -10
283 -11 215 -2 254 0 263 13 15 22 7 549 -8 576 -17 30 -44 33 -303 40 -200 6
-228 5 -242 -9z m485 -13 c23 -4 42 -14 48 -27 12 -22 19 -550 8 -562 -10 -9
-388 -9 -483 0 l-79 8 6 278 c4 179 10 287 18 300 11 22 13 22 228 15 119 -3
233 -9 254 -12z"/>
<path d="M1637 1612 c-10 -10 -17 -24 -17 -30 0 -7 -9 -12 -20 -12 -30 0 -63
-38 -57 -66 3 -17 -3 -28 -19 -39 -14 -9 -24 -25 -24 -38 0 -12 -9 -28 -20
-35 -22 -13 -28 -78 -10 -111 7 -14 3 -24 -20 -46 -56 -54 -24 -89 60 -67 23
6 42 6 46 1 3 -5 23 -9 45 -9 48 0 57 16 37 68 -9 23 -12 46 -7 62 5 14 14 46
21 73 10 38 17 47 35 47 12 0 24 -4 27 -9 8 -13 36 -170 36 -203 0 -16 4 -28
9 -28 17 0 21 49 11 140 -11 111 -24 130 -87 130 -46 0 -53 11 -29 43 10 12
28 17 69 17 l55 0 12 -51 c7 -27 15 -103 19 -167 5 -95 9 -117 21 -117 31 0
18 209 -21 333 l-11 32 -69 0 c-38 0 -69 2 -69 5 0 3 10 19 21 35 12 16 19 36
16 44 -8 22 -40 20 -60 -2z m53 1 c0 -5 -9 -23 -20 -41 -11 -18 -20 -43 -20
-55 0 -13 -6 -31 -13 -42 -12 -15 -12 -22 0 -46 17 -35 8 -82 -16 -75 -9 3
-23 1 -31 -4 -10 -6 -23 0 -47 25 -39 41 -41 57 -9 83 16 12 26 31 28 53 2 29
8 36 36 44 17 5 32 13 32 19 0 15 32 46 47 46 7 0 13 -3 13 -7z m108 -120 c23
-59 51 -313 34 -313 -4 0 -9 33 -10 73 -2 84 -20 215 -33 239 -7 13 -26 18
-72 21 l-62 3 66 2 c64 2 67 1 77 -25z m-70 -71 c18 -12 32 -69 31 -122 -1
-41 -3 -38 -14 28 -6 40 -16 77 -21 82 -5 5 -25 10 -44 13 l-35 4 35 1 c19 1
41 -2 48 -6z m-192 -57 l24 -24 -37 -35 c-41 -37 -51 -33 -52 26 -2 61 23 75
65 33z m90 -39 c8 -22 -24 -82 -62 -116 -29 -25 -43 -30 -84 -30 -28 0 -50 3
-50 8 0 16 34 55 91 102 61 50 95 62 105 36z m8 -147 c-6 -10 -74 -13 -74 -3
0 3 12 20 27 39 l27 34 13 -31 c7 -16 10 -34 7 -39z m133 39 c-3 -7 -5 -2 -5
12 0 14 2 19 5 13 2 -7 2 -19 0 -25z"/>
<path d="M2616 1623 c10 -44 37 -76 82 -98 37 -18 41 -24 42 -57 0 -30 -4 -37
-22 -40 -18 -2 -23 -10 -24 -36 -1 -18 2 -34 6 -37 4 -2 6 -19 5 -37 -2 -18 2
-39 7 -45 7 -9 7 -13 -1 -13 -20 0 -11 -20 14 -32 20 -9 25 -19 25 -46 0 -20
-7 -43 -15 -52 -9 -10 -18 -33 -22 -53 -4 -27 -1 -39 16 -56 40 -40 102 -23
121 34 10 30 9 40 -4 60 -9 14 -21 25 -26 25 -6 0 -10 17 -10 38 0 33 4 39 31
49 26 10 30 15 20 26 -6 8 -9 22 -5 31 3 9 1 16 -5 16 -6 0 -11 -4 -11 -9 0
-5 -10 -12 -22 -16 -22 -7 -22 -8 5 -12 32 -5 32 -26 0 -31 -17 -3 -22 -12
-25 -48 -3 -38 0 -47 19 -60 29 -19 30 -67 3 -94 -25 -25 -51 -25 -80 -2 -18
15 -21 24 -16 49 4 17 16 39 27 49 13 12 19 30 19 59 0 39 -2 43 -31 49 -33 6
-31 25 4 27 21 1 21 1 -2 8 -34 9 -39 31 -7 31 14 0 26 5 26 10 0 6 -12 10
-26 10 -30 0 -22 20 9 21 21 1 21 1 -2 8 -33 9 -39 31 -9 32 22 1 21 1 -4 11
-35 12 -36 28 -3 28 23 0 25 3 25 48 0 45 -2 49 -33 60 -18 7 -46 27 -63 44
-16 18 -22 27 -14 21 26 -23 29 -13 7 22 -27 41 -40 45 -31 8z"/>
<path d="M2959 1554 c25 -32 26 -52 5 -82 -29 -42 -93 -22 -107 33 -4 16 -5
15 -6 -6 -2 -54 78 -80 119 -39 32 32 23 99 -15 114 -13 4 -12 0 4 -20z"/>
<path d="M2911 1523 c11 -13 11 -17 2 -20 -7 -3 -13 -9 -13 -15 0 -6 9 -3 20
7 15 14 17 21 9 32 -6 7 -16 13 -21 13 -6 0 -4 -7 3 -17z"/>
<path d="M673 1478 c-11 -13 -24 -33 -27 -45 -4 -12 -16 -25 -26 -28 -11 -4
-23 -17 -26 -30 -3 -13 -17 -31 -30 -40 -13 -8 -24 -23 -24 -31 0 -9 -9 -23
-19 -32 -20 -17 -24 -31 -22 -65 1 -15 9 -18 48 -15 41 3 49 7 62 33 8 17 21
43 29 58 8 16 11 31 8 34 -3 3 1 18 8 32 8 14 20 41 26 58 19 51 30 29 30 -61
0 -99 8 -146 25 -146 30 0 22 227 -10 276 -19 30 -26 30 -52 2z m56 -42 c6
-25 10 -87 10 -138 -2 -87 -2 -89 -9 -38 -5 30 -8 83 -9 117 -1 35 -6 65 -13
69 -13 8 -60 -45 -52 -58 3 -5 -1 -20 -10 -33 -9 -13 -16 -31 -16 -40 0 -8 -4
-23 -8 -33 -5 -9 -15 -30 -23 -47 -12 -24 -22 -31 -52 -33 -34 -3 -37 -1 -37
22 0 15 8 31 20 38 11 7 20 23 20 36 0 17 8 27 30 35 17 6 28 16 26 22 -5 15
13 45 27 45 7 0 20 18 30 40 26 55 51 54 66 -4z"/>
<path d="M2473 1478 c-4 -7 -8 -19 -10 -27 -1 -7 -15 -28 -32 -45 -28 -29 -31
-38 -31 -95 0 -54 2 -62 15 -51 8 6 19 9 25 5 5 -3 10 1 10 9 0 19 -11 21 -28
4 -9 -9 -12 -2 -12 35 0 41 6 55 45 105 25 31 45 60 45 65 0 12 -18 8 -27 -5z"/>
<path d="M699 1108 c-7 -13 -4 -48 3 -48 6 0 8 6 5 14 -3 7 0 19 6 25 8 8 8
11 -1 11 -7 0 -13 -1 -13 -2z"/>
<path d="M483 1093 c-15 -5 -18 -43 -4 -43 5 0 11 11 13 25 3 14 5 25 4 24 0
0 -7 -3 -13 -6z"/>
<path d="M510 1085 c0 -8 0 -17 0 -20 0 -3 3 -4 7 -2 10 3 11 37 1 37 -4 0 -8
-7 -8 -15z"/>
<path d="M574 1086 c-4 -9 -4 -20 0 -23 3 -4 12 -1 18 5 9 9 9 15 0 24 -9 9
-13 7 -18 -6z"/>
<path d="M657 1093 c-12 -12 -7 -33 7 -33 9 0 14 9 13 20 -1 20 -9 25 -20 13z"/>
<path d="M540 1075 c0 -8 2 -15 4 -15 2 0 6 7 10 15 3 8 1 15 -4 15 -6 0 -10
-7 -10 -15z"/>
<path d="M457 1004 c-17 -17 -5 -31 27 -32 21 -1 36 4 39 13 4 9 -1 13 -14 12
-10 -1 -19 -6 -19 -11 0 -5 -6 -2 -13 8 -7 9 -16 14 -20 10z"/>
<path d="M577 988 c-7 -26 -3 -32 17 -25 9 4 12 14 9 26 -7 27 -19 27 -26 -1z"/>
<path d="M667 1003 c-4 -3 -7 -15 -7 -27 0 -20 0 -20 15 0 8 10 15 22 15 27 0
9 -14 9 -23 0z"/>
<path d="M706 994 c-11 -28 -7 -35 14 -24 11 6 17 16 14 25 -8 20 -20 19 -28
-1z"/>
<path d="M756 1003 c-3 -3 -6 -16 -5 -27 0 -19 1 -19 11 4 9 21 12 22 15 7 5
-20 28 -18 28 3 0 14 -38 24 -49 13z"/>
<path d="M626 993 c-11 -11 -6 -23 9 -23 8 0 15 4 15 9 0 13 -16 22 -24 14z"/>
<path d="M1776 707 c-9 -7 -22 -24 -29 -37 -9 -18 -22 -26 -47 -28 -19 -2 -41
-10 -47 -19 -11 -15 -13 -15 -18 0 -5 12 -17 14 -62 10 -50 -6 -55 -4 -51 13
2 15 13 20 53 22 27 2 53 9 57 15 6 9 10 9 16 1 8 -13 93 -24 86 -12 -3 5 -19
8 -36 8 -17 0 -37 8 -44 18 -13 15 -15 16 -26 1 -20 -25 -109 -30 -138 -7 -31
25 -66 23 -97 -8 -18 -18 -29 -22 -36 -15 -6 6 -24 11 -40 11 -17 0 -36 8 -43
18 -13 16 -15 16 -28 0 -7 -10 -23 -18 -35 -18 -12 0 -31 -4 -41 -10 -13 -7
-21 -5 -31 6 -35 42 -94 34 -106 -14 -16 -66 43 -114 95 -75 15 11 29 29 30
39 5 26 31 44 64 44 20 0 28 5 28 18 1 16 1 16 14 0 8 -11 27 -18 49 -18 30 0
39 -5 52 -29 31 -62 111 -84 137 -38 11 18 22 22 63 22 37 0 54 -5 66 -19 15
-19 16 -19 30 1 8 11 29 22 46 25 26 4 36 0 47 -18 42 -63 142 -19 116 52 -19
49 -59 67 -94 41z m46 -29 c-5 -21 -4 -22 11 -9 10 8 17 9 17 3 0 -6 -5 -14
-10 -17 -8 -5 -7 -11 1 -21 10 -12 9 -13 -5 -8 -11 4 -16 1 -16 -12 -1 -18 -1
-18 -11 -1 -9 15 -13 16 -27 5 -14 -11 -15 -10 -9 6 5 12 3 23 -5 28 -10 6 -8
8 4 8 10 0 23 9 30 20 17 27 28 25 20 -2z m-699 -53 c18 -13 19 -15 4 -15 -9
0 -17 -4 -17 -10 0 -5 -4 -10 -10 -10 -5 0 -10 8 -10 17 0 13 -3 14 -12 5 -19
-19 -30 -14 -18 8 9 16 8 20 -7 21 -14 0 -13 2 5 9 12 5 26 18 30 27 6 15 8
13 10 -9 2 -15 13 -35 25 -43z m333 50 c-7 -18 5 -20 22 -3 7 7 12 8 12 2 0
-5 -5 -15 -12 -22 -9 -9 -9 -12 0 -12 7 0 12 -5 12 -11 0 -5 -4 -7 -10 -4 -6
3 -10 -4 -10 -17 -1 -22 -1 -22 -15 -4 -8 11 -15 14 -15 8 0 -7 -4 -12 -10
-12 -5 0 -7 7 -3 16 5 13 1 15 -18 10 -22 -6 -22 -6 -7 7 14 11 15 16 5 26
-10 11 -8 12 9 7 15 -4 24 -2 28 9 3 8 8 15 12 15 3 0 4 -7 0 -15z m334 5 c0
-5 -2 -10 -4 -10 -3 0 -8 5 -11 10 -3 6 -1 10 4 10 6 0 11 -4 11 -10z"/>
<path d="M2850 633 c0 -9 3 -13 7 -10 3 4 12 2 20 -4 10 -9 13 -8 13 4 0 8 -7
18 -16 21 -22 9 -24 8 -24 -11z"/>
<path d="M1190 630 c-24 -8 -24 -8 6 -9 23 -1 33 -7 37 -21 3 -11 12 -20 21
-20 9 0 21 9 28 20 8 12 24 20 40 20 15 0 30 5 33 10 4 7 -3 9 -22 6 -15 -2
-33 -5 -40 -5 -6 -1 -15 -10 -18 -21 -9 -29 -35 -25 -35 5 0 26 -8 28 -50 15z"/>
<path d="M2864 595 c11 -8 22 -12 25 -9 6 6 -19 24 -34 24 -5 -1 -1 -7 9 -15z"/>
<path d="M2776 565 c4 -8 12 -15 20 -15 8 0 14 7 14 15 0 8 -9 15 -20 15 -13
0 -18 -5 -14 -15z"/>
<path d="M2874 555 c15 -12 16 -15 5 -15 -9 0 -16 -7 -16 -15 0 -30 32 -16 34
15 2 25 -1 30 -20 30 -21 -1 -22 -1 -3 -15z"/>
<path d="M2757 524 c-3 -3 -3 -12 0 -20 4 -12 8 -11 20 3 8 10 11 12 7 4 -5
-9 -3 -12 4 -7 7 4 12 11 12 17 0 10 -33 13 -43 3z"/>
<path d="M2860 488 c0 -3 9 -6 20 -5 11 1 20 5 20 9 0 3 -9 6 -20 5 -11 -1
-20 -5 -20 -9z"/>
<path d="M2765 470 c-3 -5 -1 -10 6 -10 8 0 9 -3 0 -14 -8 -10 -8 -16 3 -25
16 -14 22 -7 24 32 2 27 -20 38 -33 17z"/>
<path d="M247 463 c-4 -3 -7 -15 -7 -26 0 -13 5 -17 16 -13 9 3 22 6 30 6 8 0
14 9 14 20 0 26 -8 25 -29 -2 -14 -17 -18 -18 -18 -5 0 9 4 14 9 11 4 -3 8 0
8 5 0 12 -13 14 -23 4z"/>
<path d="M316 455 c-8 -22 -8 -22 9 -22 17 0 18 6 6 25 -7 11 -10 10 -15 -3z"/>
<path d="M347 464 c7 -3 9 -12 6 -20 -3 -8 1 -14 9 -14 7 0 14 9 15 20 1 15
-4 20 -20 19 -12 0 -17 -3 -10 -5z"/>
<path d="M394 457 c-8 -21 2 -35 16 -21 5 5 6 15 0 24 -8 12 -10 12 -16 -3z"/>
<path d="M474 455 c-6 -15 2 -35 15 -35 4 0 7 11 7 25 0 27 -13 34 -22 10z"/>
<path d="M650 450 c-12 -23 2 -27 19 -6 8 9 8 16 2 20 -6 4 -15 -3 -21 -14z"/>
<path d="M810 445 c0 -14 4 -25 8 -25 4 0 8 11 8 25 0 14 -4 25 -8 25 -4 0 -8
-11 -8 -25z"/>
<path d="M1280 445 c0 -20 -5 -25 -24 -25 -13 0 -26 5 -28 11 -2 7 -9 5 -17
-5 -12 -14 -9 -16 32 -16 38 0 46 3 51 23 8 31 7 37 -4 37 -5 0 -10 -11 -10
-25z"/>
<path d="M440 448 c0 -9 5 -20 10 -23 13 -8 13 5 0 25 -8 13 -10 13 -10 -2z"/>
<path d="M517 440 c3 -11 7 -20 8 -20 1 0 5 9 8 20 3 12 0 20 -8 20 -8 0 -11
-8 -8 -20z"/>
<path d="M552 444 c4 -23 27 -31 24 -8 -2 10 -8 20 -15 22 -8 3 -12 -3 -9 -14z"/>
<path d="M695 450 c-8 -13 4 -32 16 -25 12 8 12 35 0 35 -6 0 -13 -4 -16 -10z"/>
<path d="M730 440 c0 -11 6 -20 14 -20 9 0 12 7 9 20 -3 11 -9 20 -14 20 -5 0
-9 -9 -9 -20z"/>
<path d="M770 439 c0 -18 2 -19 15 -9 15 12 12 30 -6 30 -5 0 -9 -10 -9 -21z"/>
<path d="M895 449 c-9 -13 -5 -16 20 -21 12 -2 21 3 23 15 4 19 -32 25 -43 6z
m30 -9 c3 -6 -1 -7 -9 -4 -18 7 -21 14 -7 14 6 0 13 -4 16 -10z"/>
<path d="M950 441 c0 -25 34 -21 38 5 3 16 1 17 -7 4 -7 -10 -11 -11 -11 -2 0
6 -4 12 -10 12 -5 0 -10 -9 -10 -19z"/>
<path d="M1000 440 c0 -11 5 -20 10 -20 6 0 10 9 10 20 0 11 -4 20 -10 20 -5
0 -10 -9 -10 -20z"/>
<path d="M1041 444 c0 -11 3 -14 6 -6 3 7 2 16 -1 19 -3 4 -6 -2 -5 -13z"/>
<path d="M1060 444 c0 -8 5 -12 10 -9 6 3 10 10 10 16 0 5 -4 9 -10 9 -5 0
-10 -7 -10 -16z"/>
<path d="M1087 446 c-4 -10 -5 -21 -2 -24 9 -9 17 6 13 25 -3 17 -4 17 -11 -1z"/>
<path d="M1113 447 c3 -25 21 -26 25 -2 2 15 1 17 -6 6 -8 -11 -11 -11 -16 0
-3 9 -5 7 -3 -4z"/>
<path d="M1160 440 c0 -5 5 -10 10 -10 6 0 10 5 10 10 0 6 -4 10 -10 10 -5 0
-10 -4 -10 -10z"/>
<path d="M2673 423 c9 -9 20 -13 24 -9 4 4 1 11 -7 16 -25 16 -35 11 -17 -7z"/>
<path d="M2868 434 c-4 -4 -5 -11 -2 -15 8 -13 44 -11 44 2 0 6 -6 9 -14 6 -8
-3 -16 -1 -18 4 -2 6 -7 7 -10 3z"/>
<path d="M1087 393 c-15 -14 -6 -31 12 -26 12 3 17 11 14 19 -6 15 -16 18 -26
7z"/>
<path d="M2870 386 c0 -9 7 -16 16 -16 17 0 14 22 -4 28 -7 2 -12 -3 -12 -12z"/>
<path d="M1036 383 c-11 -11 -6 -23 9 -23 8 0 15 4 15 9 0 13 -16 22 -24 14z"/>
<path d="M2662 378 c5 -15 28 -18 29 -3 0 6 -7 12 -17 13 -10 3 -15 -1 -12
-10z"/>
<path d="M1160 350 c0 -5 5 -10 10 -10 6 0 10 5 10 10 0 6 -4 10 -10 10 -5 0
-10 -4 -10 -10z"/>
<path d="M2662 338 c3 -7 13 -15 22 -16 12 -3 17 1 14 10 -3 7 -13 15 -22 16
-12 3 -17 -1 -14 -10z"/>
<path d="M2873 335 c0 -14 26 -30 35 -20 6 5 -17 35 -28 35 -3 0 -7 -7 -7 -15z"/>
<path d="M2760 329 c0 -5 4 -8 9 -4 5 3 12 1 16 -5 4 -6 11 -8 16 -4 5 3 7 10
4 15 -8 13 -45 11 -45 -2z"/>
<path d="M2680 294 c22 -13 22 -14 3 -9 -12 3 -24 2 -27 -3 -3 -5 8 -9 24 -10
34 -1 39 12 11 28 -30 16 -39 11 -11 -6z"/>
<path d="M2774 283 c4 -24 21 -27 23 -3 1 11 -4 20 -12 20 -7 0 -12 -8 -11
-17z"/>
<path d="M2870 263 c0 -5 11 -13 25 -20 29 -13 34 1 6 17 -23 12 -31 13 -31 3z"/>
<path d="M2668 243 c7 -3 16 -2 19 1 4 3 -2 6 -13 5 -11 0 -14 -3 -6 -6z"/>
<path d="M2706 225 c4 -8 8 -15 10 -15 2 0 4 7 4 15 0 8 -4 15 -10 15 -5 0 -7
-7 -4 -15z"/>
<path d="M2217 224 c-11 -11 5 -34 24 -34 17 0 18 3 9 20 -11 20 -22 25 -33
14z"/>
<path d="M2663 210 c-2 -22 -1 -23 21 -14 13 5 14 9 5 20 -16 19 -24 17 -26
-6z"/>
<path d="M2887 204 c3 -9 9 -12 12 -7 3 4 10 11 15 16 5 4 0 7 -12 7 -15 0
-20 -4 -15 -16z"/>
<path d="M2783 179 c-2 -18 0 -19 14 -7 12 9 15 10 9 1 -4 -7 -2 -13 3 -13 17
0 13 27 -5 34 -9 3 -17 6 -18 6 -1 0 -2 -9 -3 -21z"/>
<path d="M880 157 c0 -19 -8 -25 -44 -35 -45 -12 -64 -35 -46 -57 8 -9 -7 -14
-62 -19 -65 -6 -128 -29 -115 -43 3 -2 16 3 30 11 14 10 57 19 105 23 66 5 79
8 66 18 -29 21 -13 49 31 55 35 4 40 9 43 33 3 21 9 27 28 27 20 0 24 -5 24
-30 0 -26 3 -30 29 -30 35 0 62 -27 40 -41 -8 -5 -20 -9 -26 -9 -21 0 -15 -14
10 -25 12 -6 21 -16 20 -23 -2 -7 2 -12 7 -12 17 0 11 28 -7 39 -35 21 21 39
75 25 19 -6 22 -11 17 -35 -5 -22 -3 -29 9 -29 9 0 16 7 16 15 0 22 47 19 53
-2 4 -17 5 -17 6 0 1 22 51 24 51 2 0 -8 4 -15 10 -15 5 0 7 7 4 15 -5 12 2
15 29 15 25 0 37 -5 40 -18 4 -16 5 -16 6 1 1 23 48 23 54 -1 4 -16 5 -16 6 1
1 10 9 17 21 17 10 0 24 -8 29 -17 6 -10 11 -12 11 -5 0 16 37 16 43 0 4 -10
6 -10 6 0 1 14 41 17 41 2 0 -5 5 -10 11 -10 5 0 7 4 4 10 -3 6 5 10 19 10 13
0 27 -6 29 -12 4 -10 6 -10 6 0 1 6 12 12 25 12 13 0 27 -6 29 -12 4 -10 6
-10 6 0 1 14 51 17 51 2 0 -5 5 -10 10 -10 6 0 10 16 10 35 l0 35 -101 0 c-55
0 -98 -4 -95 -8 9 -14 -12 -35 -28 -29 -14 5 -15 11 -6 27 9 16 8 20 -5 20 -9
0 -15 -9 -15 -23 0 -16 -6 -23 -20 -24 -14 -1 -20 4 -20 18 0 10 5 19 12 19 6
0 9 2 7 5 -3 2 -102 7 -220 11 -154 5 -218 10 -229 19 -8 8 -27 17 -43 20 -15
4 -27 12 -26 19 4 29 -3 36 -36 36 -30 0 -35 -3 -35 -23z m298 -99 c3 -13 -3
-18 -22 -18 -20 0 -26 5 -26 21 0 15 5 20 22 17 13 -2 24 -11 26 -20z m62 0
c0 -13 -8 -18 -25 -18 -18 0 -25 5 -25 20 0 15 6 19 25 18 17 -2 25 -8 25 -20z
m80 -3 c0 -10 -11 -15 -35 -15 -24 0 -35 5 -35 15 0 10 11 15 35 15 24 0 35
-5 35 -15z m60 0 c0 -9 -9 -15 -25 -15 -16 0 -25 6 -25 15 0 9 9 15 25 15 16
0 25 -6 25 -15z m60 0 c0 -9 -9 -15 -25 -15 -16 0 -25 6 -25 15 0 9 9 15 25
15 16 0 25 -6 25 -15z m160 -10 c0 -8 -9 -15 -20 -15 -11 0 -20 7 -20 15 0 8
9 15 20 15 11 0 20 -7 20 -15z m60 0 c0 -9 -9 -15 -25 -15 -24 0 -32 10 -18
23 12 13 43 7 43 -8z m60 0 c0 -9 -9 -15 -25 -15 -16 0 -25 6 -25 15 0 9 9 15
25 15 16 0 25 -6 25 -15z"/>
<path d="M2890 164 c0 -15 26 -19 34 -5 3 5 -3 11 -14 14 -13 3 -20 0 -20 -9z"/>
<path d="M2225 160 c-10 -17 12 -37 25 -24 8 8 6 15 -4 23 -10 9 -16 9 -21 1z"/>
<path d="M2667 163 c-12 -11 -8 -21 12 -26 14 -3 17 0 14 14 -5 20 -15 24 -26
12z"/>
<path d="M2793 143 c-19 -7 -16 -32 4 -29 18 3 29 21 16 29 -4 2 -14 2 -20 0z"/>
<path d="M2887 121 c5 -19 43 -37 43 -21 0 11 -29 40 -40 40 -4 0 -6 -9 -3
-19z"/>
<path d="M2220 97 c0 -7 9 -13 20 -14 11 -1 20 0 20 2 0 2 -9 9 -20 15 -15 8
-20 8 -20 -3z"/>
<path d="M2790 80 c0 -22 7 -25 29 -11 11 7 9 11 -8 20 -18 10 -21 9 -21 -9z"/>
<path d="M2890 71 c0 -5 9 -11 20 -14 13 -3 20 0 20 9 0 8 -9 14 -20 14 -11 0
-20 -4 -20 -9z"/>
<path d="M2670 61 c0 -5 9 -11 20 -14 24 -6 27 8 4 17 -21 8 -24 8 -24 -3z"/>
<path d="M2221 43 c9 -10 14 -11 19 -2 6 8 9 8 13 -2 4 -10 6 -10 6 2 1 11 -7
17 -24 17 -21 0 -23 -3 -14 -15z"/>
<path d="M2887 44 c7 -3 9 -12 6 -20 -6 -16 22 -20 32 -5 5 10 -25 32 -42 30
-4 0 -3 -3 4 -5z"/>
<path d="M2790 23 c0 -10 4 -14 8 -8 4 6 11 13 16 18 5 4 2 7 -7 7 -10 0 -17
-8 -17 -17z"/>
<path d="M2660 19 c0 -7 3 -9 6 -6 4 3 16 2 26 -4 16 -9 19 -8 16 3 -6 17 -48
23 -48 7z"/>
</g>
</svg>
